<svg width="250" height="250" viewBox="0 0 250 250" fill="none" xmlns="http://www.w3.org/2000/svg">
<rect width="250" height="250" fill="white"/>
<path d="M161.241 74.4231C165.488 77.6091 170.533 79.202 176.108 79.202C183.277 79.202 189.649 76.2816 194.162 71.5027C194.958 70.9717 195.489 69.9097 196.551 68.8477C199.472 64.5998 201.33 59.8209 201.33 54.2455C201.33 40.1742 189.914 29.0234 176.108 29.0234C168.94 29.0234 162.833 31.9438 158.32 36.4573C162.303 42.8291 164.426 50.5285 164.426 58.2279C164.426 64.0688 163.099 69.3787 161.241 74.4231Z" fill="url(#paint0_linear)"/>
<path d="M74.9542 116.371C80.2641 108.672 85.574 102.566 92.2114 97.5213C86.105 93.2734 79.2021 91.1494 73.3612 91.1494C53.4491 91.4149 26.103 117.168 26.103 158.585C26.103 163.895 27.696 167.878 31.6784 171.595C36.7229 176.373 47.3427 179.825 59.0245 180.887C58.4935 178.497 57.9625 176.374 57.9625 173.719C57.697 154.337 64.0689 132.832 74.9542 116.371Z" fill="url(#paint1_linear)"/>
<path d="M176.108 91.4149C170.001 91.4149 162.833 94.0698 155.93 98.5832C161.771 103.097 166.815 109.203 171.86 116.371C179.294 127.788 184.604 141.859 187.259 155.665C190.71 153.541 194.427 151.948 198.409 151.948C207.702 151.948 216.463 156.461 221.508 164.426V164.692C221.773 165.223 222.039 165.754 222.304 166.019C223.366 163.895 223.897 161.24 223.897 158.585C223.897 116.902 196.02 91.4149 176.108 91.4149Z" fill="url(#paint2_linear)"/>
<path d="M123.54 85.3085C138.674 85.3085 151.152 73.0957 151.152 57.697C151.152 42.5637 138.939 30.0854 123.54 30.0854C108.142 30.3509 95.9287 42.8292 95.9287 57.697C95.9287 72.8302 108.407 85.3085 123.54 85.3085Z" fill="url(#paint3_linear)"/>
<path d="M141.859 190.179C137.611 181.152 137.611 172.391 141.859 164.426L142.124 164.161C147.169 156.461 155.664 151.682 165.222 151.682C169.47 151.682 173.187 153.275 176.904 155.665C170.532 119.292 144.779 97.7868 125.132 97.7868C102.831 97.7868 72.2988 126.195 72.2988 172.922C72.2988 178.763 74.1573 183.276 78.1397 187.259C86.3701 194.958 105.751 198.675 125.398 198.675C132.301 198.675 139.469 198.144 145.841 197.082L145.576 195.224C143.717 193.896 142.655 192.038 141.859 190.179Z" fill="url(#paint4_linear)"/>
<path d="M55.0423 72.2991C59.5557 77.078 66.1931 79.9985 73.096 79.9985C77.8749 79.9985 82.6538 78.671 86.1053 76.016C83.7158 70.4406 82.6538 64.5997 82.6538 58.4933C82.6538 49.732 85.3088 42.0326 89.8222 35.3952C85.3088 31.4128 79.7334 29.2888 73.3615 29.2888C59.2902 29.2888 48.1394 40.7051 48.1394 54.5109C48.1394 60.0863 49.7324 64.8652 52.9183 69.1132C53.7148 70.1751 54.5113 71.2371 55.0423 72.2991Z" fill="url(#paint5_linear)"/>
<path d="M215.401 189.117C218.587 182.48 218.587 176.108 215.136 170.267C211.419 164.426 205.312 160.709 197.613 160.709C192.037 160.709 186.728 165.754 183.011 169.205C179.294 165.488 173.984 160.975 168.408 160.975C161.24 160.975 154.868 164.692 151.151 170.267C147.965 176.108 147.965 182.48 151.151 189.383C154.072 195.224 159.116 200.268 162.302 203.188C166.815 207.702 179.294 217.791 181.418 219.649L183.011 220.977L184.604 219.649C187.259 217.26 199.471 207.171 203.719 202.657C208.233 199.471 212.746 194.427 215.401 189.117Z" fill="url(#paint6_linear)"/>
<defs>
<linearGradient id="paint0_linear" x1="179.825" y1="29.0234" x2="179.825" y2="79.202" gradientUnits="userSpaceOnUse">
<stop stop-color="#2A94F4"/>
<stop offset="0.9999" stop-color="#00C6A7"/>
</linearGradient>
<linearGradient id="paint1_linear" x1="59.1572" y1="91.1494" x2="59.1572" y2="180.887" gradientUnits="userSpaceOnUse">
<stop stop-color="#2A94F4"/>
<stop offset="0.9999" stop-color="#00C6A7"/>
</linearGradient>
<linearGradient id="paint2_linear" x1="189.914" y1="91.4149" x2="189.914" y2="166.019" gradientUnits="userSpaceOnUse">
<stop stop-color="#2A94F4"/>
<stop offset="0.9999" stop-color="#00C6A7"/>
</linearGradient>
<linearGradient id="paint3_linear" x1="123.54" y1="30.0854" x2="123.54" y2="85.3085" gradientUnits="userSpaceOnUse">
<stop stop-color="#2A94F4"/>
<stop offset="0.9999" stop-color="#00C6A7"/>
</linearGradient>
<linearGradient id="paint4_linear" x1="124.601" y1="97.7868" x2="124.601" y2="198.675" gradientUnits="userSpaceOnUse">
<stop stop-color="#2A94F4"/>
<stop offset="0.9999" stop-color="#00C6A7"/>
</linearGradient>
<linearGradient id="paint5_linear" x1="68.9808" y1="29.2888" x2="68.9808" y2="79.9985" gradientUnits="userSpaceOnUse">
<stop stop-color="#2A94F4"/>
<stop offset="0.9999" stop-color="#00C6A7"/>
</linearGradient>
<linearGradient id="paint6_linear" x1="183.26" y1="160.709" x2="183.26" y2="220.977" gradientUnits="userSpaceOnUse">
<stop stop-color="#2A94F4"/>
<stop offset="0.9999" stop-color="#00C6A7"/>
</linearGradient>
</defs>
</svg>
