<svg id="Layer_1" data-name="Layer 1" xmlns="http://www.w3.org/2000/svg" viewBox="0 0 151.92 153.12"><defs><style>.cls-1{fill:#fdfdfd;}.cls-2{fill:#1f2121;}.cls-3{fill:#beb1d6;}.cls-4{fill:#8e8f8f;}.cls-5{fill:#565757;}.cls-6{fill:#c7e2c8;}.cls-7{fill:#c2e5ea;}.cls-8{fill:#bfdb97;}.cls-9{fill:#202222;}.cls-10{fill:#1f2221;}.cls-11{fill:#212323;}</style></defs><title>city icon</title><path class="cls-1" d="M1508,1957.33q0-44.6,0-89.21c0-.86.13-1.12,1.08-1.12q74.89,0,149.79,0c.88,0,1,.21,1,1q0,75.5,0,151c0,.79-.08,1.07-1,1.07q-75,0-149.91,0c-.83,0-1.08-.15-1-1a21.16,21.16,0,0,0,0-2.39c.75,2.53,2.69,3.09,5,3h.6l15.79-.09q10.11,0,20.23,0,31.23,0,62.47.13a38.88,38.88,0,0,0,4.18-.08,3.41,3.41,0,0,0,3.36-2.69c.4.37,0,1.29,1.06,1.23,2.06-.12,4.13-.07,6.19-.08.82,1.62,2.34,1.6,3.82,1.59,5,0,10-.11,15.07-.12,3.27,0,6.54.13,9.81.12,2.61,0,3.55-1,3.84-3.54a34.29,34.29,0,0,0,0-4.18q0-13.83,0-27.65v-65.12c0-2.67.07-5.35,0-8,0-2.36-1-3.23-3.33-3.22-3.63,0-7.25.11-10.88.1-5.07,0-10.13-.06-15.2-.11a3.55,3.55,0,0,0-2.8,1.06c-2.43-.22-4.86,0-7.28-.1,0-3,0-5.91-.06-8.86-.15-4.32-2.14-6.75-6.07-7.59-.35-.08-.71-.1-1.06-.17-2.86-.52-3.9-1.72-3.9-4.64q0-7.54.08-15.08c0-3.75-.63-4.44-4.45-4.26-2.18.1-3,1-2.9,3.19.26,4.58-.28,9.17.21,13.74a4,4,0,0,1-.12,1.19,1.62,1.62,0,0,1-2,1.47,9.71,9.71,0,0,1-2.75-.77,2.83,2.83,0,0,1-2.18-3.15c0-3.47,0-7,0-10.42a16.48,16.48,0,0,0,0-3c-.28-1.51-1.1-2.18-3-2.34q-3.66-.32-4.35,1.84a2.87,2.87,0,0,0-.13.7c0,.48,0,1,0,1.44,0,3,.09,6,0,9,0,1.57-.82,2.1-2.37,1.89a15.12,15.12,0,0,1-2.94-1c-14.63-5.17-29.44-9.8-44.16-14.71-.9-.3-.89,0-.89.72,0,6.15-.07,12.3-.07,18.44q0,27.6.08,55.21c0,.28,0,.56,0,.84-.07,3.1.29,6.23-.19,9.32-.31,1.93-1.37,2.78-3.32,3a16.86,16.86,0,0,1-3.69,0c-2.67-.26-3.62-1.35-3.59-4.06q0-.66.06-1.32c.28-3.3-.13-6.62.08-9.92a2.26,2.26,0,0,0-1.12-2.36,5.51,5.51,0,0,0-5,0c-1.45.71-1.25,2.18-1.23,3.49.06,3.27,0,6.53.22,9.8.24,3.09-1.4,4.57-4.48,4.54a13.54,13.54,0,0,1-1.91-.16C1509.76,1954.43,1509.38,1954.62,1508,1957.33Z" transform="translate(-1508 -1867)"/><path class="cls-2" d="M1619.68,2017a3.41,3.41,0,0,1-3.36,2.69,38.88,38.88,0,0,1-4.18.08q-31.23-.09-62.47-.13-10.11,0-20.23,0l-15.79.09h-.6c-2.32.09-4.26-.47-5-3v-4.31c.49-1.52.17-3.07.18-4.6l0-6.45v-36.12c0-2,0-4.07,0-6.1,0-.45.2-1-.23-1.35v-.48c1.34-2.71,1.72-2.9,4.82-2.44a13.54,13.54,0,0,0,1.91.16c3.08,0,4.72-1.45,4.48-4.54-.26-3.27-.16-6.53-.22-9.8,0-1.31-.22-2.78,1.23-3.49a5.51,5.51,0,0,1,5,0,2.26,2.26,0,0,1,1.12,2.36c-.21,3.3.2,6.62-.08,9.92q-.06.66-.06,1.32c0,2.71.92,3.8,3.59,4.06a16.86,16.86,0,0,0,3.69,0c2-.23,3-1.08,3.32-3,.48-3.09.12-6.22.19-9.32,0-.28,0-.56,0-.84q0-27.6-.08-55.21c0-6.14.06-12.29.07-18.44,0-.67,0-1,.89-.72,14.72,4.91,29.53,9.54,44.16,14.71a15.12,15.12,0,0,0,2.94,1c1.55.21,2.34-.32,2.37-1.89.06-3,0-6,0-9,0-.48,0-1,0-1.44a2.87,2.87,0,0,1,.13-.7q.69-2.16,4.35-1.84c1.89.16,2.71.83,3,2.34a16.48,16.48,0,0,1,0,3c0,3.47,0,7,0,10.42a2.83,2.83,0,0,0,2.18,3.15,9.71,9.71,0,0,0,2.75.77,1.62,1.62,0,0,0,2-1.47,4,4,0,0,0,.12-1.19c-.49-4.57,0-9.16-.21-13.74-.13-2.18.72-3.09,2.9-3.19,3.82-.18,4.5.51,4.45,4.26q-.09,7.55-.08,15.08c0,2.92,1,4.12,3.9,4.64.35.07.71.09,1.06.17,3.93.84,5.92,3.27,6.07,7.59.1,3,0,5.9.06,8.86-.07,4.94-.16,9.88-.21,14.82q-.06,8-.06,15.92,0,27.78.06,55.55v.71C1619.83,2003,1620.08,2010,1619.68,2017Zm-75.5-101v35.44c0,.44,0,.88,0,1.32a2.15,2.15,0,0,0,2.15,2.14c.51,0,1,0,1.55,0,6.22,0,12.45,0,18.67,0,1.8,0,2.67,1,2.79,2.75,0,.48,0,1,0,1.44q0,21.32,0,42.63c0,1.84.07,3.67.25,5.5.3,3,1.53,4.67,4,5.12a13,13,0,0,0,2.85.26c3.06-.11,6.13-.28,9.19-.46,1.18-.06,1.72-.87,2-1.93a8.66,8.66,0,0,0,0-3.44c-.56-3.14-1.43-6-4.44-7.91a13.68,13.68,0,0,1-6.54-11.36c-.34-9,8.1-16.07,17.15-14.4,6.33,1.16,10.85,6.16,11.47,13.18a13.94,13.94,0,0,1-8.49,13.86,3.38,3.38,0,0,0-2.15,2.49c-.16.73-.33,1.47-.46,2.21-.55,3.36.77,5.8,3.68,6.76a11.94,11.94,0,0,0,3.52.56c2.59,0,5.18-.11,7.77.12,2.19.19,3.12-.66,3.47-2.85a10.69,10.69,0,0,0,.15-1.78c0-6.58-.15-13.17-.17-19.75,0-5.14.07-10.29.08-15.44.07-21.71,0-43.43,0-65.15,0-1.15.09-2.31.06-3.46-.08-3.17-1-4.3-4-5.3l-52-17.3c-3.27-1.09-6.53-2.22-9.83-3.26-2-.63-2.71,0-2.74,2.08,0,.32,0,.64,0,1Zm18.21,71q0-10.71,0-21.43c0-2.91-.79-3.72-3.66-3.71-3.59,0-7.18.07-10.77.06l-29-.06c-2.65,0-3.48.82-3.5,3.51v.72q0,12.26,0,24.52c0,6,0,12,0,18,0,2.75.86,3.62,3.54,3.62h39.87c2.65,0,3.5-.86,3.5-3.51Q1562.41,1997.87,1562.39,1987Zm28.51,7.19a7,7,0,0,0,7.23-7.09,7.15,7.15,0,0,0-7.19-7.2,7.35,7.35,0,0,0-7.19,7.17A7.13,7.13,0,0,0,1590.9,1994.22Z" transform="translate(-1508 -1867)"/><path class="cls-3" d="M1508.25,1973.64q0,13.88,0,27.74a.34.34,0,0,0-.2,0v-27.79A.75.75,0,0,1,1508.25,1973.64Z" transform="translate(-1508 -1867)"/><path class="cls-4" d="M1508.25,1973.64a.75.75,0,0,0-.21,0v-8.38a.75.75,0,0,1,.21,0Z" transform="translate(-1508 -1867)"/><path class="cls-5" d="M1508.25,1965.26a.75.75,0,0,0-.21,0v-7.43c.43.39.22.9.23,1.35C1508.28,1961.19,1508.26,1963.23,1508.25,1965.26Z" transform="translate(-1508 -1867)"/><path class="cls-4" d="M1508,2001.41a.34.34,0,0,1,.2,0c0,2.15,0,4.3,0,6.45a.29.29,0,0,0-.18.05Z" transform="translate(-1508 -1867)"/><path class="cls-5" d="M1508,2007.88a.29.29,0,0,1,.18-.05c0,1.53.31,3.08-.18,4.6Z" transform="translate(-1508 -1867)"/><path class="cls-6" d="M1619.68,2017c.4-7,.15-14,0-21v-.71q0-27.78-.06-55.55,0-8,.06-15.92c0-4.94.14-9.88.21-14.82,2.42.08,4.85-.12,7.28.1a7.44,7.44,0,0,0-.47,3.52c.16,2.1,1,2.82,3,2.82q9.27,0,18.55-.08c2.7,0,3.59.79,3.63,3.52,0,1.87,0,3.75,0,5.62q0,33.93,0,67.86c0,5.35,0,10.69,0,16,0,3-.84,3.86-3.82,3.85l-16-.06a14.84,14.84,0,0,0-3,0,2.48,2.48,0,0,0-2.33,2.44,10.2,10.2,0,0,0,.1,3.57c-2.06,0-4.13,0-6.19.08C1619.67,2018.27,1620.08,2017.35,1619.68,2017Zm18.43-29.76a31.9,31.9,0,0,0,3.85-.21,2.5,2.5,0,0,0,2.66-2.39,22.82,22.82,0,0,0,.4-4.52c0-2.89-1.43-4.43-4.3-4.2a71.93,71.93,0,0,1-10.38.09c-2-.13-3.08.9-3.47,2.88a16.73,16.73,0,0,0-.21,4.41c.21,2.91,1.73,4.42,4.32,4.11A53.43,53.43,0,0,1,1638.11,1987.22Zm-2.76-47c-2.26,0-4.14,0-6,0-1.66,0-2.22.44-2.61,2a18.94,18.94,0,0,0-.55,3.17,4.69,4.69,0,0,0,4,5.37,28.19,28.19,0,0,0,7.62.35,25.42,25.42,0,0,0,5-.32,2.5,2.5,0,0,0,2.28-2.51,21.76,21.76,0,0,0-.22-5.47c-.25-2.24-1-2.88-3.21-2.73S1637.19,1940.2,1635.35,1940.27Zm1.22,64.8a36.1,36.1,0,0,0,6.32-.33,2.5,2.5,0,0,0,2.19-2.34,25.2,25.2,0,0,0-.27-6,2.15,2.15,0,0,0-2.45-2.21c-4.43,0-8.86,0-13.28,0a2.18,2.18,0,0,0-2.27,1.74,16.3,16.3,0,0,0-.61,2.92,4.94,4.94,0,0,0,4.17,5.85C1632.43,2005.23,1634.51,2005,1636.57,2005.07Zm-.74-46.75v0c-2.11,0-4.23,0-6.34,0-1.8,0-2.43.52-2.8,2.28-.2.93-.31,1.89-.42,2.83-.36,3,.89,4.87,3.82,5.32a47.58,47.58,0,0,0,12.39,0c1.78-.19,2.44-1.1,2.54-2.91a32.52,32.52,0,0,0-.2-5.13c-.19-1.86-.82-2.47-2.65-2.49Zm9.18-29.91a11.46,11.46,0,0,0-.17-2.44c-.44-2.84-1.9-4.07-4.78-3.74a55.33,55.33,0,0,1-8.24.21c-1,0-2,0-3,0a2.06,2.06,0,0,0-1.71.94c-2.84,4.35-.38,9.37,4.74,9.75,3.32.25,6.64-.45,10,.19,1.49.28,2.46-.65,2.89-2.14A7.78,7.78,0,0,0,1645,1928.41Z" transform="translate(-1508 -1867)"/><path class="cls-2" d="M1626.93,2018.13a10.2,10.2,0,0,1-.1-3.57,2.48,2.48,0,0,1,2.33-2.44,14.84,14.84,0,0,1,3,0l16,.06c3,0,3.82-.81,3.82-3.85,0-5.35,0-10.69,0-16q0-33.93,0-67.86c0-1.87.07-3.75,0-5.62,0-2.73-.93-3.54-3.63-3.52q-9.28.08-18.55.08c-2.1,0-2.89-.72-3-2.82a7.44,7.44,0,0,1,.47-3.52,3.55,3.55,0,0,1,2.8-1.06c5.07,0,10.13.11,15.2.11,3.63,0,7.25-.08,10.88-.1,2.35,0,3.29.86,3.33,3.22.06,2.67,0,5.35,0,8v65.12q0,13.83,0,27.65a34.29,34.29,0,0,1,0,4.18c-.29,2.58-1.23,3.53-3.84,3.54-3.27,0-6.54-.12-9.81-.12-5,0-10,.09-15.07.12C1629.27,2019.73,1627.75,2019.75,1626.93,2018.13Z" transform="translate(-1508 -1867)"/><path class="cls-7" d="M1544.18,1916v-35c0-.32,0-.64,0-1,0-2.11.75-2.71,2.74-2.08,3.3,1,6.56,2.17,9.83,3.26l52,17.3c3,1,3.88,2.13,4,5.3,0,1.15-.06,2.31-.06,3.46,0,21.72,0,43.44,0,65.15,0,5.15-.1,10.3-.08,15.44,0,6.58.12,13.17.17,19.75a10.69,10.69,0,0,1-.15,1.78c-.35,2.19-1.28,3-3.47,2.85-2.59-.23-5.18-.07-7.77-.12a11.94,11.94,0,0,1-3.52-.56c-2.91-1-4.23-3.4-3.68-6.76.13-.74.3-1.48.46-2.21a3.38,3.38,0,0,1,2.15-2.49,13.94,13.94,0,0,0,8.49-13.86c-.62-7-5.14-12-11.47-13.18-9-1.67-17.49,5.36-17.15,14.4a13.68,13.68,0,0,0,6.54,11.36c3,1.94,3.88,4.77,4.44,7.91a8.66,8.66,0,0,1,0,3.44c-.23,1.06-.77,1.87-2,1.93-3.06.18-6.13.35-9.19.46a13,13,0,0,1-2.85-.26c-2.43-.45-3.66-2.1-4-5.12-.18-1.83-.25-3.66-.25-5.5q0-21.32,0-42.63c0-.48,0-1,0-1.44-.12-1.79-1-2.74-2.79-2.75-6.22,0-12.45,0-18.67,0-.52,0-1,0-1.55,0a2.15,2.15,0,0,1-2.15-2.14c0-.44,0-.88,0-1.32Zm34.22,31.78v-.06h18.67a53.87,53.87,0,0,0,6,0c1.6-.17,2.17-1,2.38-3,.23-2.34-.36-3.81-1.74-4.29a2.86,2.86,0,0,0-.58-.13c-.56,0-1.11-.12-1.67-.12-5.46,0-10.93.14-16.39.13-9.69,0-19.39-.09-29.08-.13-4,0-4.87.9-4.51,4.91,0,.24.09.47.13.71a2.28,2.28,0,0,0,2.07,2,17.45,17.45,0,0,0,3,0Zm.06-28.75v.09c7.7,0,15.4,0,23.1,0,3.08,0,4-.94,3.85-4.3,0-.24-.07-.48-.1-.71a2.36,2.36,0,0,0-2.37-2.38,33.65,33.65,0,0,0-5,0q-11.79.06-23.58.07c-6.47,0-12.93,0-19.4-.06a13.3,13.3,0,0,0-1.55.09,1.78,1.78,0,0,0-1.48.9,5.9,5.9,0,0,0,0,5.09c.62,1.41,2,1.36,3.33,1.36,2,0,4-.12,6-.13C1567,1919.05,1572.71,1919.06,1578.46,1919.06Zm11.53,35.81c-3.35,0-6.7.15-10-.07-1-.07-2.21-.07-2.82.94a5.55,5.55,0,0,0-.17,5.06c.53,1.34,1.87,1.31,3.09,1.28,6.1-.12,12.2-.16,18.3,0,1.35,0,2.71.07,4.06,0a2.6,2.6,0,0,0,2.45-1,5.38,5.38,0,0,0,.16-4.95c-.61-1.43-2-1.42-3.31-1.34C1597.8,1955.07,1593.89,1954.83,1590,1954.87ZM1566,1926v.17c-1.08,0-2.16,0-3.24,0-2.79,0-5.58-.12-8.37-.14-1.17,0-2.38.25-2.67,1.55-.82,3.69-.42,6.34,4,5.68h.12c3.79,0,7.58,0,11.37,0,3.27,0,6.55-.13,9.81.08,2.26.15,3.17-.64,3.3-2.9a9.42,9.42,0,0,0,0-1.19c-.15-2.56-.84-3.21-3.4-3.21Zm-3-21.51c1.87,0,3.75-.09,5.62,0,3.89.23,4.69-.52,4.42-4.43-.15-2.27-1-3.1-3.26-3a143.45,143.45,0,0,1-14.81,0c-2.18-.09-3.23.65-3.45,2.45a8.7,8.7,0,0,0,.07,2.74c.33,1.66,1,2.36,2.69,2.25C1557.14,1904.32,1560,1904.45,1563,1904.44Zm33.37,21.52c-2.1.18-4.25,0-6.4,0a2.39,2.39,0,0,0-2.63,2.49c0,.44,0,.88,0,1.32,0,2.7,1.08,3.68,3.78,3.49a71,71,0,0,1,10.52,0c2.75.21,3.83-.78,3.91-3.54a8.05,8.05,0,0,0-.07-1.2c-.24-1.87-1-2.61-2.92-2.58C1600.44,1926,1598.41,1926.09,1596.32,1926Z" transform="translate(-1508 -1867)"/><path class="cls-8" d="M1562.39,1987q0,10.85,0,21.68c0,2.65-.85,3.51-3.5,3.51H1519c-2.68,0-3.54-.87-3.54-3.62,0-6,0-12,0-18q0-12.26,0-24.52v-.72c0-2.69.85-3.52,3.5-3.51l29,.06c3.59,0,7.18,0,10.77-.06,2.87,0,3.66.8,3.66,3.71Q1562.41,1976.33,1562.39,1987Zm-12.85-10.76v0c.67,0,1.35,0,2,0,2.79.11,3.65-.7,3.66-3.54a9.65,9.65,0,0,0-.06-1.31c-.25-1.83-1.09-2.55-2.94-2.59-1.27,0-2.52.19-3.81.06-3.6-.35-4.69.77-4.42,4.42a6.85,6.85,0,0,0,.21,1.17,2.11,2.11,0,0,0,2.12,1.75C1547.39,1976.3,1548.46,1976.27,1549.54,1976.27Zm0,14.6v.05c1,0,1.91,0,2.87,0a2.46,2.46,0,0,0,2.71-2.43,7.84,7.84,0,0,0,.06-1.19c0-3.16-1.06-4.13-4.16-3.72a10.47,10.47,0,0,1-2.74,0c-3.3-.44-4.41.55-4.34,3.88a7.91,7.91,0,0,0,.19,1.54,2.18,2.18,0,0,0,2.18,1.86C1547.43,1990.91,1548.5,1990.87,1549.58,1990.87ZM1528,1976.31h1.67c3.29,0,4.18-.91,4-4.21a7.58,7.58,0,0,0-.13-.94c-.35-1.68-1.12-2.39-2.8-2.31a50.88,50.88,0,0,1-5.24,0,2.33,2.33,0,0,0-2.73,2.22,8.85,8.85,0,0,0,0,3.08,2.32,2.32,0,0,0,2.55,2.16C1526.19,1976.33,1527.11,1976.31,1528,1976.31Zm21.6,28.74v0c.68,0,1.35,0,2,0,2.83.13,3.57-.56,3.58-3.4a8.1,8.1,0,0,0-.16-1.77,2.31,2.31,0,0,0-2.49-2.09c-2,0-4.06,0-6.08,0a2.18,2.18,0,0,0-2.24,1.63,7.14,7.14,0,0,0-.08,3.89,2.13,2.13,0,0,0,2.23,1.76Zm-21.44-14.13v-.05c.56,0,1.12,0,1.68,0,2.94.15,3.8-.66,3.8-3.62a7.24,7.24,0,0,0-.11-1.31c-.3-1.72-1.1-2.52-2.84-2.42s-3.66,0-5.49,0c-1.63,0-2.46,1-2.57,2.94-.15,2.85.49,4.15,2.19,4.41a11.32,11.32,0,0,0,1.43.07Zm-.12,6.9c-.59,0-1.19,0-1.79,0-2.83-.09-3.62.68-3.62,3.56,0,.32,0,.64,0,1,.14,2.12,1.15,3,3.27,2.83a16.48,16.48,0,0,1,3.58-.08c3.12.37,4.19-.58,4.15-3.73a9.2,9.2,0,0,0-.21-1.65,2.18,2.18,0,0,0-2.28-1.88C1530.14,1997.79,1529.1,1997.82,1528.06,1997.82Z" transform="translate(-1508 -1867)"/><path class="cls-3" d="M1590.9,1994.22a7.13,7.13,0,0,1-7.15-7.12,7.35,7.35,0,0,1,7.19-7.17,7.15,7.15,0,0,1,7.19,7.2A7,7,0,0,1,1590.9,1994.22Z" transform="translate(-1508 -1867)"/><path class="cls-9" d="M1638.11,1987.22a53.43,53.43,0,0,0-7.13.17c-2.59.31-4.11-1.2-4.32-4.11a16.73,16.73,0,0,1,.21-4.41c.39-2,1.46-3,3.47-2.88a71.93,71.93,0,0,0,10.38-.09c2.87-.23,4.25,1.31,4.3,4.2a22.82,22.82,0,0,1-.4,4.52A2.5,2.5,0,0,1,1642,1987,31.9,31.9,0,0,1,1638.11,1987.22Z" transform="translate(-1508 -1867)"/><path class="cls-10" d="M1635.35,1940.27c1.84-.07,4.08.06,6.31-.09s3,.49,3.21,2.73a21.76,21.76,0,0,1,.22,5.47,2.5,2.5,0,0,1-2.28,2.51,25.42,25.42,0,0,1-5,.32,28.19,28.19,0,0,1-7.62-.35,4.69,4.69,0,0,1-4-5.37,18.94,18.94,0,0,1,.55-3.17c.39-1.61,1-2,2.61-2C1631.21,1940.25,1633.09,1940.27,1635.35,1940.27Z" transform="translate(-1508 -1867)"/><path class="cls-10" d="M1636.57,2005.07c-2.06-.09-4.14.16-6.2-.3a4.94,4.94,0,0,1-4.17-5.85,16.3,16.3,0,0,1,.61-2.92,2.18,2.18,0,0,1,2.27-1.74c4.42,0,8.85,0,13.28,0a2.15,2.15,0,0,1,2.45,2.21,25.2,25.2,0,0,1,.27,6,2.5,2.5,0,0,1-2.19,2.34A36.1,36.1,0,0,1,1636.57,2005.07Z" transform="translate(-1508 -1867)"/><path class="cls-9" d="M1635.83,1958.32h6.34c1.83,0,2.46.63,2.65,2.49a32.52,32.52,0,0,1,.2,5.13c-.1,1.81-.76,2.72-2.54,2.91a47.58,47.58,0,0,1-12.39,0c-2.93-.45-4.18-2.37-3.82-5.32.11-.94.22-1.9.42-2.83.37-1.76,1-2.26,2.8-2.28,2.11,0,4.23,0,6.34,0Z" transform="translate(-1508 -1867)"/><path class="cls-9" d="M1645,1928.41a7.78,7.78,0,0,1-.28,2.78c-.43,1.49-1.4,2.42-2.89,2.14-3.33-.64-6.65.06-10-.19-5.12-.38-7.58-5.4-4.74-9.75a2.06,2.06,0,0,1,1.71-.94c1,0,2,0,3,0a55.33,55.33,0,0,0,8.24-.21c2.88-.33,4.34.9,4.78,3.74A11.46,11.46,0,0,1,1645,1928.41Z" transform="translate(-1508 -1867)"/><path class="cls-2" d="M1578.4,1947.81h-21.78a17.45,17.45,0,0,1-3,0,2.28,2.28,0,0,1-2.07-2c0-.24-.11-.47-.13-.71-.36-4,.48-4.93,4.51-4.91,9.69,0,19.39.12,29.08.13,5.46,0,10.93-.09,16.39-.13.56,0,1.11.07,1.67.12a2.86,2.86,0,0,1,.58.13c1.38.48,2,2,1.74,4.29-.21,2.09-.78,2.87-2.38,3a53.87,53.87,0,0,1-6,0H1578.4Z" transform="translate(-1508 -1867)"/><path class="cls-2" d="M1578.46,1919.06c-5.75,0-11.5,0-17.24,0-2,0-4,.12-6,.13-1.28,0-2.71,0-3.33-1.36a5.9,5.9,0,0,1,0-5.09,1.78,1.78,0,0,1,1.48-.9,13.3,13.3,0,0,1,1.55-.09c6.47,0,12.93.06,19.4.06q11.79,0,23.58-.07a33.65,33.65,0,0,1,5,0,2.36,2.36,0,0,1,2.37,2.38c0,.23.09.47.1.71.11,3.36-.77,4.32-3.85,4.3-7.7-.05-15.4,0-23.1,0Z" transform="translate(-1508 -1867)"/><path class="cls-9" d="M1590,1954.87c3.9,0,7.81.2,11.72-.07,1.27-.08,2.7-.09,3.31,1.34a5.38,5.38,0,0,1-.16,4.95,2.6,2.6,0,0,1-2.45,1c-1.35,0-2.71,0-4.06,0-6.1-.11-12.2-.07-18.3,0-1.22,0-2.56.06-3.09-1.28a5.55,5.55,0,0,1,.17-5.06c.61-1,1.78-1,2.82-.94C1583.29,1955,1586.64,1954.91,1590,1954.87Z" transform="translate(-1508 -1867)"/><path class="cls-9" d="M1566,1926h10.89c2.56,0,3.25.65,3.4,3.21a9.42,9.42,0,0,1,0,1.19c-.13,2.26-1,3.05-3.3,2.9-3.26-.21-6.54-.1-9.81-.08-3.79,0-7.58,0-11.37,0h-.12c-4.41.66-4.81-2-4-5.68.29-1.3,1.5-1.56,2.67-1.55,2.79,0,5.58.1,8.37.14,1.08,0,2.16,0,3.24,0Z" transform="translate(-1508 -1867)"/><path class="cls-9" d="M1563,1904.44c-2.91,0-5.81-.12-8.72.08-1.66.11-2.36-.59-2.69-2.25a8.7,8.7,0,0,1-.07-2.74c.22-1.8,1.27-2.54,3.45-2.45a143.45,143.45,0,0,0,14.81,0c2.23-.13,3.11.7,3.26,3,.27,3.91-.53,4.66-4.42,4.43C1566.7,1904.35,1564.82,1904.44,1563,1904.44Z" transform="translate(-1508 -1867)"/><path class="cls-11" d="M1596.32,1926c2.09.13,4.12,0,6.16,0,1.89,0,2.68.71,2.92,2.58a8.05,8.05,0,0,1,.07,1.2c-.08,2.76-1.16,3.75-3.91,3.54a71,71,0,0,0-10.52,0c-2.7.19-3.76-.79-3.78-3.49,0-.44,0-.88,0-1.32a2.39,2.39,0,0,1,2.63-2.49C1592.07,1925.93,1594.22,1926.14,1596.32,1926Z" transform="translate(-1508 -1867)"/><path class="cls-9" d="M1549.54,1976.27c-1.08,0-2.15,0-3.22,0a2.11,2.11,0,0,1-2.12-1.75,6.85,6.85,0,0,1-.21-1.17c-.27-3.65.82-4.77,4.42-4.42,1.29.13,2.54-.09,3.81-.06,1.85,0,2.69.76,2.94,2.59a9.65,9.65,0,0,1,.06,1.31c0,2.84-.87,3.65-3.66,3.54-.67,0-1.35,0-2,0Z" transform="translate(-1508 -1867)"/><path class="cls-9" d="M1549.58,1990.87c-1.08,0-2.15,0-3.23,0a2.18,2.18,0,0,1-2.18-1.86,7.91,7.91,0,0,1-.19-1.54c-.07-3.33,1-4.32,4.34-3.88a10.47,10.47,0,0,0,2.74,0c3.1-.41,4.17.56,4.16,3.72a7.84,7.84,0,0,1-.06,1.19,2.46,2.46,0,0,1-2.71,2.43c-1,0-1.91,0-2.87,0Z" transform="translate(-1508 -1867)"/><path class="cls-9" d="M1528,1976.31c-.91,0-1.83,0-2.74,0a2.32,2.32,0,0,1-2.55-2.16,8.85,8.85,0,0,1,0-3.08,2.33,2.33,0,0,1,2.73-2.22,50.88,50.88,0,0,0,5.24,0c1.68-.08,2.45.63,2.8,2.31a7.58,7.58,0,0,1,.13.94c.23,3.3-.66,4.24-4,4.21Z" transform="translate(-1508 -1867)"/><path class="cls-2" d="M1549.62,2005.05h-3.22a2.13,2.13,0,0,1-2.23-1.76,7.14,7.14,0,0,1,.08-3.89,2.18,2.18,0,0,1,2.24-1.63c2,0,4,0,6.08,0a2.31,2.31,0,0,1,2.49,2.09,8.1,8.1,0,0,1,.16,1.77c0,2.84-.75,3.53-3.58,3.4-.67,0-1.34,0-2,0Z" transform="translate(-1508 -1867)"/><path class="cls-9" d="M1528.18,1990.92h-1.91a11.32,11.32,0,0,1-1.43-.07c-1.7-.26-2.34-1.56-2.19-4.41.11-2,.94-3,2.57-2.94,1.83,0,3.65.12,5.49,0s2.54.7,2.84,2.42a7.24,7.24,0,0,1,.11,1.31c0,3-.86,3.77-3.8,3.62-.56,0-1.12,0-1.68,0Z" transform="translate(-1508 -1867)"/><path class="cls-9" d="M1528.06,1997.82c1,0,2.08,0,3.11,0a2.18,2.18,0,0,1,2.28,1.88,9.2,9.2,0,0,1,.21,1.65c0,3.15-1,4.1-4.15,3.73a16.48,16.48,0,0,0-3.58.08c-2.12.18-3.13-.71-3.27-2.83,0-.32,0-.64,0-1,0-2.88.79-3.65,3.62-3.56C1526.87,1997.84,1527.47,1997.82,1528.06,1997.82Z" transform="translate(-1508 -1867)"/></svg>