<svg width="104" height="104" viewBox="0 0 104 104" fill="none" xmlns="http://www.w3.org/2000/svg">
<path d="M76.5263 37.3333H74.0526V34.8889C74.0526 34.2406 73.792 33.6188 73.3281 33.1604C72.8642 32.702 72.235 32.4444 71.5789 32.4444C70.9229 32.4444 70.2937 32.702 69.8298 33.1604C69.3659 33.6188 69.1053 34.2406 69.1053 34.8889V37.3333H66.6316C65.9755 37.3333 65.3463 37.5909 64.8824 38.0493C64.4185 38.5077 64.1579 39.1295 64.1579 39.7778C64.1579 40.4261 64.4185 41.0478 64.8824 41.5063C65.3463 41.9647 65.9755 42.2222 66.6316 42.2222H69.1053V44.6667C69.1053 45.315 69.3659 45.9367 69.8298 46.3952C70.2937 46.8536 70.9229 47.1111 71.5789 47.1111C72.235 47.1111 72.8642 46.8536 73.3281 46.3952C73.792 45.9367 74.0526 45.315 74.0526 44.6667V42.2222H76.5263C77.1824 42.2222 77.8116 41.9647 78.2755 41.5063C78.7394 41.0478 79 40.4261 79 39.7778C79 39.1295 78.7394 38.5077 78.2755 38.0493C77.8116 37.5909 77.1824 37.3333 76.5263 37.3333ZM49.3158 49.5556C51.2728 49.5556 53.1858 48.9821 54.813 47.9077C56.4402 46.8333 57.7084 45.3062 58.4573 43.5196C59.2062 41.7329 59.4022 39.7669 59.0204 37.8702C58.6386 35.9735 57.6962 34.2313 56.3124 32.8638C54.9286 31.4964 53.1655 30.5652 51.2462 30.1879C49.3268 29.8106 47.3373 30.0042 45.5292 30.7443C43.7212 31.4844 42.1759 32.7376 41.0886 34.3455C40.0014 35.9535 39.4211 37.8439 39.4211 39.7778C39.4211 42.371 40.4635 44.858 42.3192 46.6917C44.1748 48.5254 46.6915 49.5556 49.3158 49.5556ZM64.1579 74C64.814 74 65.4431 73.7425 65.9071 73.284C66.371 72.8256 66.6316 72.2039 66.6316 71.5556C66.6316 67.0174 64.8072 62.6651 61.5599 59.4562C58.3126 56.2472 53.9082 54.4444 49.3158 54.4444C44.7234 54.4444 40.319 56.2472 37.0717 59.4562C33.8243 62.6651 32 67.0174 32 71.5556C32 72.2039 32.2606 72.8256 32.7245 73.284C33.1884 73.7425 33.8176 74 34.4737 74" fill="#5B5B5B"/>
<circle cx="52" cy="52" r="50" stroke="#5B5B5B" stroke-width="4"/>
</svg>
