<svg id="svg" version="1.1" xmlns="http://www.w3.org/2000/svg" xmlns:xlink="http://www.w3.org/1999/xlink" width="400" height="400" viewBox="0, 0, 400,400"><g id="svgg"><path id="path0" d="M146.468 2.900 L 146.600 5.800 131.600 5.808 C 112.984 5.817,114.276 5.318,113.768 12.704 L 113.495 16.663 104.048 16.631 C 91.796 16.591,92.290 16.299,92.231 23.600 L 92.200 27.400 87.257 27.372 C 81.026 27.337,81.310 27.052,81.360 33.270 L 81.400 38.204 76.200 38.145 C 61.770 37.982,60.436 38.583,60.089 45.400 L 59.906 49.000 55.731 49.068 C 49.483 49.171,49.100 49.582,49.035 56.238 L 49.000 59.907 45.400 60.090 C 38.583 60.436,37.982 61.770,38.145 76.200 L 38.204 81.400 33.270 81.360 C 27.052 81.310,27.337 81.026,27.372 87.257 L 27.400 92.200 23.600 92.231 C 16.299 92.290,16.591 91.796,16.631 104.048 L 16.663 113.495 12.704 113.768 C 5.318 114.276,5.817 112.984,5.808 131.600 L 5.800 146.600 2.900 146.468 L 0.000 146.337 0.000 152.368 L 0.000 158.400 2.800 158.400 C 4.400 158.400,5.600 158.571,5.600 158.800 C 5.600 159.029,4.400 159.200,2.800 159.200 L 0.000 159.200 0.000 206.600 L 0.000 254.000 2.800 254.000 L 5.600 254.000 5.659 257.100 C 5.692 258.805,5.737 265.420,5.759 271.800 C 5.811 286.509,5.456 285.777,12.769 286.256 L 16.688 286.513 16.644 295.556 C 16.583 308.013,16.351 307.561,23.005 307.901 L 27.090 308.109 27.322 311.155 C 27.450 312.830,27.456 314.933,27.335 315.828 C 26.973 318.496,27.575 318.800,33.229 318.800 C 37.489 318.800,38.005 318.875,38.044 319.500 C 38.068 319.885,38.134 323.260,38.190 327.000 C 38.373 339.109,38.906 339.992,46.039 339.998 L 48.678 340.000 48.937 344.222 C 49.321 350.505,49.494 350.679,55.732 351.060 L 59.908 351.316 60.092 354.758 C 60.448 361.378,61.720 361.962,75.842 361.990 L 81.084 362.000 81.321 364.822 C 81.451 366.374,81.456 368.500,81.332 369.547 C 80.979 372.527,81.468 372.800,87.168 372.800 L 91.878 372.800 92.137 377.022 C 92.545 383.688,91.872 383.321,104.023 383.513 L 113.447 383.662 113.846 388.040 C 114.449 394.639,113.557 394.342,132.900 394.376 L 146.400 394.400 146.400 397.200 L 146.400 400.000 152.400 400.000 L 158.400 400.000 158.400 397.200 C 158.400 395.600,158.571 394.400,158.800 394.400 C 159.029 394.400,159.200 395.600,159.200 397.200 L 159.200 400.000 206.600 400.000 L 254.000 400.000 254.000 397.200 L 254.000 394.400 264.036 394.400 C 286.961 394.400,285.842 394.741,286.276 387.625 L 286.517 383.662 295.959 383.513 C 308.136 383.321,307.621 383.605,307.921 376.900 L 308.105 372.800 311.752 372.758 C 313.759 372.734,315.871 372.745,316.447 372.782 C 318.370 372.905,318.692 372.093,318.757 366.948 C 318.828 361.320,318.033 362.043,324.217 361.983 C 338.441 361.845,339.990 361.130,340.006 354.692 C 340.014 351.365,340.023 351.358,344.507 351.071 C 350.415 350.692,350.692 350.415,351.071 344.507 C 351.358 340.023,351.365 340.014,354.692 340.006 C 361.130 339.990,361.845 338.441,361.983 324.217 C 362.043 318.033,361.320 318.828,366.948 318.757 C 372.093 318.692,372.905 318.370,372.782 316.447 C 372.745 315.871,372.734 313.759,372.758 311.752 L 372.800 308.105 376.900 307.902 C 383.679 307.566,383.362 308.138,383.531 295.959 L 383.662 286.517 387.625 286.276 C 394.741 285.842,394.400 286.961,394.400 264.036 L 394.400 254.000 397.200 254.000 L 400.000 254.000 400.000 206.600 L 400.000 159.200 397.200 159.200 C 395.600 159.200,394.400 159.029,394.400 158.800 C 394.400 158.571,395.600 158.400,397.200 158.400 L 400.000 158.400 400.000 152.400 L 400.000 146.400 397.200 146.400 L 394.400 146.400 394.376 132.900 C 394.342 113.557,394.639 114.449,388.040 113.846 L 383.662 113.447 383.531 104.023 C 383.362 91.875,383.734 92.547,376.949 92.132 L 372.800 91.878 372.800 87.168 C 372.800 81.468,372.527 80.979,369.547 81.332 C 368.500 81.456,366.374 81.451,364.822 81.321 L 362.000 81.084 361.990 75.842 C 361.962 61.720,361.378 60.448,354.758 60.092 L 351.316 59.908 351.060 55.732 C 350.679 49.494,350.505 49.321,344.222 48.937 L 340.000 48.678 339.998 46.039 C 339.992 38.906,339.109 38.373,327.000 38.190 C 323.260 38.134,319.885 38.068,319.500 38.044 C 318.875 38.005,318.800 37.489,318.800 33.229 C 318.800 27.575,318.496 26.973,315.828 27.335 C 314.933 27.456,312.830 27.450,311.155 27.322 L 308.109 27.090 307.901 23.005 C 307.561 16.351,308.013 16.583,295.556 16.644 L 286.513 16.688 286.256 12.769 C 285.777 5.456,286.509 5.811,271.800 5.759 C 265.420 5.737,258.805 5.692,257.100 5.659 L 254.000 5.600 254.000 2.800 L 254.000 0.000 206.600 0.000 L 159.200 0.000 159.200 2.800 C 159.200 4.400,159.029 5.600,158.800 5.600 C 158.571 5.600,158.400 4.400,158.400 2.800 L 158.400 0.000 152.368 0.000 L 146.337 0.000 146.468 2.900 M124.293 14.834 C 124.335 15.397,124.174 15.599,123.798 15.455 C 123.433 15.315,123.317 15.441,123.463 15.820 C 123.694 16.421,122.998 16.644,122.650 16.081 C 122.335 15.572,123.066 14.670,123.551 14.970 C 123.827 15.141,123.902 15.011,123.753 14.621 C 123.622 14.279,123.675 14.000,123.872 14.000 C 124.069 14.000,124.258 14.375,124.293 14.834 M278.000 16.124 C 278.000 16.344,277.640 16.198,277.200 15.800 C 276.760 15.402,276.400 14.896,276.400 14.676 C 276.400 14.456,276.760 14.602,277.200 15.000 C 277.640 15.398,278.000 15.904,278.000 16.124 M82.676 28.581 C 81.764 29.493,81.354 29.335,82.202 28.398 C 82.602 27.956,83.011 27.678,83.112 27.779 C 83.213 27.879,83.017 28.240,82.676 28.581 M200.802 39.500 C 200.803 40.325,200.992 41.720,201.221 42.600 C 202.780 48.588,202.168 48.509,249.500 48.775 L 254.000 48.800 254.028 50.300 C 254.052 51.548,254.120 51.666,254.433 51.000 C 254.684 50.467,254.735 51.365,254.585 53.689 C 254.217 59.393,254.604 59.596,265.821 59.562 C 269.989 59.550,273.895 59.553,274.500 59.570 C 275.536 59.598,275.602 59.711,275.640 61.500 C 275.674 63.113,275.733 63.249,276.034 62.400 C 276.267 61.741,276.319 62.510,276.188 64.653 C 275.956 68.449,276.116 69.032,277.599 69.799 C 278.951 70.498,287.867 70.608,288.678 69.936 C 289.058 69.620,289.200 69.632,289.200 69.982 C 289.200 70.281,289.762 70.435,290.700 70.392 C 291.525 70.354,293.312 70.340,294.671 70.361 L 297.141 70.400 297.364 73.900 C 297.487 75.825,297.635 78.081,297.694 78.914 C 297.841 81.017,298.393 81.232,303.400 81.135 L 307.800 81.050 308.120 84.425 C 308.296 86.281,308.476 88.571,308.520 89.513 C 308.627 91.811,309.036 91.987,314.300 91.994 L 318.800 92.000 318.800 95.176 C 318.800 97.002,318.982 98.465,319.228 98.617 C 319.489 98.779,319.556 99.480,319.398 100.411 C 319.035 102.562,319.797 102.874,325.152 102.759 C 330.147 102.652,330.409 102.751,330.372 104.724 C 330.349 105.932,330.279 106.055,329.987 105.400 C 329.766 104.905,329.706 106.508,329.830 109.600 C 329.940 112.350,330.077 116.310,330.136 118.400 C 330.194 120.490,330.278 122.420,330.321 122.690 C 330.480 123.676,332.830 124.470,335.346 124.388 C 340.551 124.218,340.400 124.164,340.400 126.200 C 340.400 127.190,340.560 128.000,340.756 128.000 C 340.955 128.000,341.065 131.393,341.006 135.700 C 340.867 145.856,341.074 146.191,347.366 145.987 C 351.603 145.849,351.200 145.239,351.200 151.800 C 351.200 154.990,351.359 157.600,351.553 157.600 C 351.754 157.600,351.845 163.696,351.763 171.700 C 351.504 196.950,352.261 199.200,361.005 199.200 C 362.695 199.200,362.845 199.278,362.728 200.100 C 362.617 200.882,362.400 200.982,361.072 200.867 C 359.284 200.711,355.780 201.474,354.521 202.293 C 352.200 203.802,351.573 209.715,351.763 228.300 C 351.850 236.869,351.760 242.400,351.533 242.400 C 351.314 242.400,351.209 244.827,351.280 248.302 L 351.400 254.203 349.800 254.100 C 348.461 254.013,348.347 254.060,349.100 254.385 C 350.556 255.015,350.183 255.064,346.721 254.699 C 340.774 254.071,340.864 253.921,341.006 264.300 C 341.065 268.607,340.955 272.000,340.756 272.000 C 340.560 272.000,340.400 272.810,340.400 273.800 C 340.400 274.790,340.580 275.600,340.800 275.600 C 341.020 275.600,341.200 275.816,341.200 276.080 C 341.200 276.453,341.093 276.453,340.720 276.080 C 340.456 275.816,339.421 275.625,338.420 275.654 C 337.419 275.684,337.008 275.787,337.506 275.883 C 339.346 276.237,337.966 276.651,335.919 276.360 C 330.506 275.590,330.229 275.824,330.110 281.270 C 330.060 283.541,329.932 287.650,329.825 290.400 C 329.702 293.554,329.764 295.105,329.992 294.600 C 330.260 294.009,330.344 294.354,330.313 295.920 C 330.291 297.086,330.146 297.837,329.993 297.589 C 329.731 297.164,328.819 297.175,321.000 297.694 L 319.400 297.800 319.504 299.474 C 319.562 300.394,319.427 301.260,319.204 301.397 C 318.596 301.773,318.683 307.892,319.300 308.112 C 319.575 308.210,319.655 308.445,319.478 308.634 C 319.301 308.822,319.008 308.736,318.826 308.442 C 318.572 308.032,317.766 307.969,315.348 308.170 C 313.617 308.314,311.390 308.470,310.400 308.516 L 308.600 308.600 308.516 310.400 C 308.470 311.390,308.314 313.617,308.170 315.348 C 307.969 317.766,308.032 318.572,308.442 318.826 C 308.736 319.008,308.822 319.301,308.634 319.478 C 308.445 319.655,308.210 319.575,308.112 319.300 C 307.892 318.683,301.773 318.596,301.397 319.204 C 301.260 319.427,300.394 319.562,299.474 319.504 L 297.800 319.400 297.694 321.000 C 297.175 328.819,297.164 329.731,297.589 329.993 C 297.837 330.146,297.086 330.291,295.920 330.313 C 294.354 330.344,294.009 330.260,294.600 329.992 C 295.105 329.764,293.554 329.702,290.400 329.825 C 287.650 329.932,283.541 330.060,281.270 330.110 C 275.824 330.229,275.590 330.506,276.360 335.919 C 276.651 337.966,276.237 339.346,275.883 337.506 C 275.787 337.008,275.684 337.419,275.654 338.420 C 275.625 339.421,275.816 340.456,276.080 340.720 C 276.453 341.093,276.453 341.200,276.080 341.200 C 275.816 341.200,275.600 341.020,275.600 340.800 C 275.600 340.580,274.790 340.400,273.800 340.400 C 272.810 340.400,272.000 340.560,272.000 340.756 C 272.000 340.955,268.607 341.065,264.300 341.006 C 253.921 340.864,254.071 340.774,254.699 346.721 C 255.064 350.183,255.015 350.556,254.385 349.100 C 254.060 348.347,254.013 348.461,254.100 349.800 L 254.203 351.400 248.302 351.280 C 244.827 351.209,242.400 351.314,242.400 351.533 C 242.400 351.760,236.869 351.850,228.300 351.763 C 209.715 351.573,203.802 352.200,202.293 354.521 C 201.474 355.780,200.711 359.284,200.867 361.072 C 200.982 362.400,200.882 362.617,200.100 362.728 C 199.278 362.845,199.200 362.695,199.200 361.005 C 199.200 352.261,196.950 351.504,171.700 351.763 C 163.696 351.845,157.600 351.754,157.600 351.553 C 157.600 351.359,154.990 351.200,151.800 351.200 C 145.239 351.200,145.849 351.603,145.987 347.366 C 146.191 341.074,145.856 340.867,135.700 341.006 C 131.393 341.065,128.000 340.955,128.000 340.756 C 128.000 340.560,127.190 340.400,126.200 340.400 C 124.164 340.400,124.218 340.551,124.388 335.346 C 124.470 332.830,123.676 330.480,122.690 330.321 C 122.420 330.278,120.490 330.194,118.400 330.136 C 116.310 330.077,112.350 329.940,109.600 329.830 C 106.508 329.706,104.905 329.766,105.400 329.987 C 106.055 330.279,105.932 330.349,104.724 330.372 C 102.751 330.409,102.652 330.147,102.759 325.152 C 102.874 319.797,102.562 319.035,100.411 319.398 C 99.480 319.556,98.779 319.489,98.617 319.228 C 98.465 318.982,97.002 318.800,95.176 318.800 L 92.000 318.800 91.994 314.300 C 91.987 309.036,91.811 308.627,89.513 308.520 C 88.571 308.476,86.281 308.296,84.425 308.120 L 81.050 307.800 81.135 303.400 C 81.232 298.393,81.017 297.841,78.914 297.694 C 78.081 297.635,75.825 297.487,73.900 297.364 L 70.400 297.141 70.361 294.671 C 70.340 293.312,70.354 291.525,70.392 290.700 C 70.435 289.762,70.281 289.200,69.982 289.200 C 69.632 289.200,69.620 289.058,69.936 288.678 C 70.608 287.867,70.498 278.951,69.799 277.599 C 69.032 276.116,68.449 275.956,64.653 276.188 C 62.510 276.319,61.741 276.267,62.400 276.034 C 63.249 275.733,63.113 275.674,61.500 275.640 C 59.711 275.602,59.598 275.536,59.570 274.500 C 59.553 273.895,59.550 269.989,59.562 265.821 C 59.596 254.604,59.393 254.217,53.689 254.585 C 51.365 254.735,50.467 254.684,51.000 254.433 C 51.666 254.120,51.548 254.052,50.300 254.028 L 48.800 254.000 48.775 249.500 C 48.509 202.168,48.588 202.780,42.600 201.221 C 41.720 200.992,40.325 200.803,39.500 200.802 C 38.267 200.800,38.000 200.657,38.000 200.000 C 38.000 199.343,38.267 199.200,39.500 199.198 C 47.990 199.185,48.485 197.411,48.643 166.461 C 48.699 155.384,48.837 146.230,48.948 146.118 C 49.060 146.007,50.768 145.937,52.744 145.963 C 59.434 146.053,59.557 145.831,59.539 133.757 C 59.531 128.799,59.620 124.647,59.737 124.530 C 59.853 124.413,61.850 124.333,64.174 124.350 C 66.685 124.370,68.400 124.224,68.400 123.991 C 68.400 123.776,68.670 123.600,69.000 123.600 C 69.330 123.600,69.600 123.330,69.600 123.000 C 69.600 122.670,69.768 122.400,69.973 122.400 C 70.193 122.400,70.344 118.458,70.342 112.764 C 70.340 107.465,70.440 103.027,70.565 102.901 C 70.690 102.776,72.867 102.712,75.403 102.759 C 81.364 102.868,81.284 102.941,81.196 97.497 C 81.159 95.244,81.145 93.040,81.164 92.600 C 81.197 91.839,81.433 91.806,86.004 91.924 C 92.284 92.085,92.085 92.284,91.924 86.004 C 91.806 81.433,91.839 81.197,92.600 81.164 C 93.040 81.145,95.244 81.159,97.497 81.196 C 102.941 81.284,102.868 81.364,102.759 75.403 C 102.712 72.867,102.776 70.690,102.901 70.565 C 103.027 70.440,107.465 70.340,112.764 70.342 C 118.458 70.344,122.400 70.193,122.400 69.973 C 122.400 69.768,122.670 69.600,123.000 69.600 C 123.330 69.600,123.600 69.330,123.600 69.000 C 123.600 68.670,123.776 68.400,123.991 68.400 C 124.224 68.400,124.370 66.685,124.350 64.174 C 124.333 61.850,124.413 59.853,124.530 59.737 C 124.647 59.620,128.799 59.531,133.757 59.539 C 145.831 59.557,146.053 59.434,145.963 52.744 C 145.937 50.768,146.007 49.060,146.118 48.948 C 146.230 48.837,155.384 48.699,166.461 48.643 C 197.411 48.485,199.185 47.990,199.198 39.500 C 199.200 38.267,199.343 38.000,200.000 38.000 C 200.657 38.000,200.800 38.267,200.802 39.500 M69.905 39.075 C 69.522 39.175,68.802 39.179,68.305 39.083 C 67.807 38.987,68.120 38.905,69.000 38.901 C 69.880 38.896,70.287 38.975,69.905 39.075 M60.676 48.300 C 60.575 48.685,60.493 48.370,60.493 47.600 C 60.493 46.830,60.575 46.515,60.676 46.900 C 60.776 47.285,60.776 47.915,60.676 48.300 M140.000 52.400 C 140.000 52.620,139.925 52.800,139.833 52.800 C 139.741 52.800,139.342 52.924,138.946 53.076 C 138.303 53.323,138.289 53.282,138.813 52.691 C 139.481 51.939,140.000 51.812,140.000 52.400 M341.999 58.198 C 342.514 58.748,342.846 59.288,342.735 59.399 C 342.624 59.510,342.051 59.060,341.463 58.400 C 340.178 56.957,340.661 56.775,341.999 58.198 M59.367 57.947 C 59.485 58.137,59.243 58.599,58.830 58.973 C 57.898 59.817,57.332 59.125,58.225 58.232 C 58.954 57.503,59.074 57.473,59.367 57.947 M48.300 60.676 C 47.915 60.776,47.285 60.776,46.900 60.676 C 46.515 60.575,46.830 60.493,47.600 60.493 C 48.370 60.493,48.685 60.575,48.300 60.676 M39.083 69.695 C 38.987 70.193,38.905 69.880,38.901 69.000 C 38.896 68.120,38.975 67.713,39.075 68.095 C 39.175 68.478,39.179 69.198,39.083 69.695 M28.676 82.581 C 27.764 83.493,27.354 83.335,28.202 82.398 C 28.602 81.956,29.011 81.678,29.112 81.779 C 29.213 81.879,29.017 82.240,28.676 82.581 M179.107 92.457 C 178.565 92.792,178.173 96.800,178.682 96.800 C 178.894 96.800,179.067 97.916,179.067 99.280 C 179.067 100.835,178.953 101.469,178.761 100.980 C 178.594 100.551,178.444 117.795,178.428 139.300 L 178.400 178.400 145.500 178.495 L 112.600 178.590 136.000 178.811 L 159.400 179.032 130.500 179.056 C 114.605 179.069,101.600 178.927,101.600 178.740 C 101.600 178.553,100.205 178.424,98.500 178.453 C 95.998 178.495,95.670 178.566,96.800 178.819 C 97.923 179.071,97.690 179.120,95.620 179.067 C 93.353 179.008,92.988 179.103,92.607 179.854 C 91.926 181.193,92.033 220.193,92.720 220.880 C 93.139 221.299,101.522 221.420,135.820 221.505 L 178.400 221.611 178.447 258.105 C 178.473 278.177,178.618 294.060,178.770 293.400 C 178.930 292.702,179.044 293.915,179.044 296.300 C 179.043 298.555,178.898 300.400,178.721 300.400 C 178.545 300.400,178.418 301.525,178.440 302.900 C 178.471 304.858,178.556 305.183,178.830 304.400 C 179.083 303.679,179.121 303.930,178.966 305.301 C 178.765 307.077,178.820 307.228,179.816 307.606 C 181.795 308.359,220.024 308.103,220.876 307.331 C 221.548 306.723,221.587 304.386,221.596 264.274 C 221.602 240.947,221.663 221.803,221.733 221.733 C 221.803 221.663,240.947 221.602,264.274 221.596 C 304.725 221.587,306.719 221.553,307.345 220.861 C 308.337 219.765,308.152 180.380,307.150 179.379 C 306.405 178.634,296.800 177.967,296.800 178.660 C 296.800 178.868,295.225 179.043,293.300 179.049 C 291.215 179.056,290.204 178.943,290.800 178.770 C 291.350 178.610,276.005 178.462,256.700 178.440 L 221.600 178.400 221.542 137.100 C 221.510 114.385,221.512 95.260,221.547 94.600 C 221.678 92.131,222.795 92.255,200.193 92.226 C 188.825 92.212,179.336 92.316,179.107 92.457 M179.087 107.895 C 178.995 108.503,178.917 108.100,178.914 107.000 C 178.911 105.900,178.987 105.403,179.082 105.895 C 179.177 106.386,179.179 107.286,179.087 107.895 M330.276 110.700 C 330.175 111.085,330.093 110.770,330.093 110.000 C 330.093 109.230,330.175 108.915,330.276 109.300 C 330.376 109.685,330.376 110.315,330.276 110.700 M385.199 122.998 C 385.714 123.548,386.046 124.088,385.935 124.199 C 385.824 124.310,385.251 123.860,384.663 123.200 C 383.378 121.757,383.861 121.575,385.199 122.998 M16.400 123.266 C 16.400 123.497,16.139 123.586,15.820 123.463 C 15.441 123.317,15.315 123.433,15.455 123.798 C 15.599 124.174,15.397 124.335,14.834 124.293 C 14.375 124.258,14.000 124.069,14.000 123.872 C 14.000 123.675,14.279 123.622,14.621 123.753 C 15.011 123.902,15.141 123.827,14.970 123.551 C 14.820 123.309,14.937 122.963,15.230 122.782 C 15.833 122.409,16.400 122.643,16.400 123.266 M52.967 139.343 C 52.734 139.948,52.000 140.283,52.000 139.783 C 52.000 139.498,52.968 138.451,53.109 138.583 C 53.170 138.639,53.105 138.981,52.967 139.343 M351.892 151.091 C 351.805 151.921,351.733 151.340,351.731 149.800 C 351.729 148.260,351.800 147.581,351.889 148.291 C 351.977 149.001,351.979 150.261,351.892 151.091 M262.500 179.100 C 256.725 179.162,247.275 179.162,241.500 179.100 C 235.725 179.037,240.450 178.986,252.000 178.986 C 263.550 178.986,268.275 179.037,262.500 179.100 M303.505 179.075 C 303.122 179.175,302.402 179.179,301.905 179.083 C 301.407 178.987,301.720 178.905,302.600 178.901 C 303.480 178.896,303.887 178.975,303.505 179.075 M284.100 179.897 C 282.505 179.973,279.895 179.973,278.300 179.897 C 276.705 179.821,278.010 179.759,281.200 179.759 C 284.390 179.759,285.695 179.821,284.100 179.897 M352.676 214.300 C 352.575 214.685,352.493 214.370,352.493 213.600 C 352.493 212.830,352.575 212.515,352.676 212.900 C 352.776 213.285,352.776 213.915,352.676 214.300 M351.892 251.491 C 351.805 252.321,351.733 251.740,351.731 250.200 C 351.729 248.660,351.800 247.981,351.889 248.691 C 351.977 249.401,351.979 250.661,351.892 251.491 M344.000 255.153 C 344.000 255.348,343.550 255.593,343.000 255.698 C 341.531 255.979,342.303 255.230,343.900 254.825 C 343.955 254.811,344.000 254.959,344.000 255.153 M15.800 277.200 C 16.198 277.640,16.344 278.000,16.124 278.000 C 15.904 278.000,15.398 277.640,15.000 277.200 C 14.602 276.760,14.456 276.400,14.676 276.400 C 14.896 276.400,15.402 276.760,15.800 277.200 M385.930 277.001 C 385.859 277.210,385.478 277.430,385.084 277.491 C 384.486 277.582,384.453 277.504,384.884 277.016 C 385.440 276.388,386.143 276.377,385.930 277.001 M330.276 290.700 C 330.175 291.085,330.093 290.770,330.093 290.000 C 330.093 289.230,330.175 288.915,330.276 289.300 C 330.376 289.685,330.376 290.315,330.276 290.700 M110.700 330.276 C 110.315 330.376,109.685 330.376,109.300 330.276 C 108.915 330.175,109.230 330.093,110.000 330.093 C 110.770 330.093,111.085 330.175,110.700 330.276 M290.700 330.276 C 290.315 330.376,289.685 330.376,289.300 330.276 C 288.915 330.175,289.230 330.093,290.000 330.093 C 290.770 330.093,291.085 330.175,290.700 330.276 M59.399 342.735 C 59.154 342.980,57.200 341.196,57.200 340.727 C 57.200 340.544,57.740 340.875,58.400 341.463 C 59.060 342.051,59.510 342.624,59.399 342.735 M255.698 343.000 C 255.593 343.550,255.337 344.000,255.130 344.000 C 254.922 344.000,254.826 343.865,254.915 343.700 C 255.004 343.535,255.189 343.085,255.326 342.700 C 255.693 341.668,255.918 341.849,255.698 343.000 M151.091 351.892 C 150.261 351.979,149.001 351.977,148.291 351.889 C 147.581 351.800,148.260 351.729,149.800 351.731 C 151.340 351.733,151.921 351.805,151.091 351.892 M251.491 351.892 C 250.661 351.979,249.401 351.977,248.691 351.889 C 247.981 351.800,248.660 351.729,250.200 351.731 C 251.740 351.733,252.321 351.805,251.491 351.892 M214.300 352.676 C 213.915 352.776,213.285 352.776,212.900 352.676 C 212.515 352.575,212.830 352.493,213.600 352.493 C 214.370 352.493,214.685 352.575,214.300 352.676 M124.199 385.935 C 123.954 386.180,122.000 384.396,122.000 383.927 C 122.000 383.744,122.540 384.075,123.200 384.663 C 123.860 385.251,124.310 385.824,124.199 385.935 M277.427 385.300 C 277.335 385.795,277.246 386.281,277.230 386.380 C 277.213 386.479,276.999 386.359,276.753 386.113 C 276.424 385.784,276.451 385.504,276.853 385.048 C 277.580 384.227,277.624 384.247,277.427 385.300 " stroke="none" fill="#5c5c5c" fill-rule="evenodd"></path><path id="path1" d="M158.400 2.800 C 158.400 4.400,158.571 5.600,158.800 5.600 C 159.029 5.600,159.200 4.400,159.200 2.800 C 159.200 1.200,159.029 0.000,158.800 0.000 C 158.571 0.000,158.400 1.200,158.400 2.800 M126.505 5.887 C 127.114 5.979,128.014 5.977,128.505 5.882 C 128.997 5.787,128.500 5.711,127.400 5.714 C 126.300 5.717,125.897 5.795,126.505 5.887 M136.300 5.889 C 137.015 5.978,138.185 5.978,138.900 5.889 C 139.615 5.801,139.030 5.728,137.600 5.728 C 136.170 5.728,135.585 5.801,136.300 5.889 M261.100 5.889 C 261.815 5.978,262.985 5.978,263.700 5.889 C 264.415 5.801,263.830 5.728,262.400 5.728 C 260.970 5.728,260.385 5.801,261.100 5.889 M271.705 5.887 C 272.314 5.979,273.214 5.977,273.705 5.882 C 274.197 5.787,273.700 5.711,272.600 5.714 C 271.500 5.717,271.097 5.795,271.705 5.887 M123.753 14.621 C 123.902 15.011,123.827 15.141,123.551 14.970 C 123.066 14.670,122.335 15.572,122.650 16.081 C 122.998 16.644,123.694 16.421,123.463 15.820 C 123.317 15.441,123.433 15.315,123.798 15.455 C 124.174 15.599,124.335 15.397,124.293 14.834 C 124.258 14.375,124.069 14.000,123.872 14.000 C 123.675 14.000,123.622 14.279,123.753 14.621 M276.400 14.676 C 276.400 14.896,276.760 15.402,277.200 15.800 C 277.640 16.198,278.000 16.344,278.000 16.124 C 278.000 15.904,277.640 15.398,277.200 15.000 C 276.760 14.602,276.400 14.456,276.400 14.676 M103.905 16.683 C 104.402 16.779,105.122 16.775,105.505 16.675 C 105.887 16.575,105.480 16.496,104.600 16.501 C 103.720 16.505,103.407 16.587,103.905 16.683 M110.905 16.687 C 111.514 16.779,112.414 16.777,112.905 16.682 C 113.397 16.587,112.900 16.511,111.800 16.514 C 110.700 16.517,110.297 16.595,110.905 16.687 M287.305 16.687 C 287.914 16.779,288.814 16.777,289.305 16.682 C 289.797 16.587,289.300 16.511,288.200 16.514 C 287.100 16.517,286.697 16.595,287.305 16.687 M294.705 16.683 C 295.202 16.779,295.922 16.775,296.305 16.675 C 296.687 16.575,296.280 16.496,295.400 16.501 C 294.520 16.505,294.207 16.587,294.705 16.683 M85.505 27.483 C 86.002 27.579,86.722 27.575,87.105 27.475 C 87.487 27.375,87.080 27.296,86.200 27.301 C 85.320 27.305,85.007 27.387,85.505 27.483 M313.105 27.483 C 313.602 27.579,314.322 27.575,314.705 27.475 C 315.087 27.375,314.680 27.296,313.800 27.301 C 312.920 27.305,312.607 27.387,313.105 27.483 M82.202 28.398 C 81.803 28.839,81.607 29.200,81.767 29.200 C 82.188 29.200,83.328 27.995,83.112 27.779 C 83.011 27.678,82.602 27.956,82.202 28.398 M81.301 32.600 C 81.305 33.480,81.387 33.793,81.483 33.295 C 81.579 32.798,81.575 32.078,81.475 31.695 C 81.375 31.313,81.296 31.720,81.301 32.600 M77.700 38.276 C 78.085 38.376,78.715 38.376,79.100 38.276 C 79.485 38.175,79.170 38.093,78.400 38.093 C 77.630 38.093,77.315 38.175,77.700 38.276 M320.900 38.276 C 321.285 38.376,321.915 38.376,322.300 38.276 C 322.685 38.175,322.370 38.093,321.600 38.093 C 320.830 38.093,320.515 38.175,320.900 38.276 M68.305 39.083 C 68.802 39.179,69.522 39.175,69.905 39.075 C 70.287 38.975,69.880 38.896,69.000 38.901 C 68.120 38.905,67.807 38.987,68.305 39.083 M60.493 47.600 C 60.493 48.370,60.575 48.685,60.676 48.300 C 60.776 47.915,60.776 47.285,60.676 46.900 C 60.575 46.515,60.493 46.830,60.493 47.600 M254.520 52.400 C 254.520 53.610,254.595 54.105,254.687 53.500 C 254.778 52.895,254.778 51.905,254.687 51.300 C 254.595 50.695,254.520 51.190,254.520 52.400 M138.813 52.691 C 138.289 53.282,138.303 53.323,138.946 53.076 C 139.342 52.924,139.741 52.800,139.833 52.800 C 139.925 52.800,140.000 52.620,140.000 52.400 C 140.000 51.812,139.481 51.939,138.813 52.691 M341.463 58.400 C 342.051 59.060,342.624 59.510,342.735 59.399 C 342.980 59.154,341.196 57.200,340.727 57.200 C 340.544 57.200,340.875 57.740,341.463 58.400 M58.225 58.232 C 57.332 59.125,57.898 59.817,58.830 58.973 C 59.243 58.599,59.485 58.137,59.367 57.947 C 59.074 57.473,58.954 57.503,58.225 58.232 M46.900 60.676 C 47.285 60.776,47.915 60.776,48.300 60.676 C 48.685 60.575,48.370 60.493,47.600 60.493 C 46.830 60.493,46.515 60.575,46.900 60.676 M276.120 63.600 C 276.120 64.810,276.195 65.305,276.287 64.700 C 276.378 64.095,276.378 63.105,276.287 62.500 C 276.195 61.895,276.120 62.390,276.120 63.600 M38.901 69.000 C 38.905 69.880,38.987 70.193,39.083 69.695 C 39.179 69.198,39.175 68.478,39.075 68.095 C 38.975 67.713,38.896 68.120,38.901 69.000 M38.093 78.400 C 38.093 79.170,38.175 79.485,38.276 79.100 C 38.376 78.715,38.376 78.085,38.276 77.700 C 38.175 77.315,38.093 77.630,38.093 78.400 M31.905 81.483 C 32.402 81.579,33.122 81.575,33.505 81.475 C 33.887 81.375,33.480 81.296,32.600 81.301 C 31.720 81.305,31.407 81.387,31.905 81.483 M366.705 81.483 C 367.202 81.579,367.922 81.575,368.305 81.475 C 368.687 81.375,368.280 81.296,367.400 81.301 C 366.520 81.305,366.207 81.387,366.705 81.483 M28.202 82.398 C 27.803 82.839,27.607 83.200,27.767 83.200 C 28.188 83.200,29.328 81.995,29.112 81.779 C 29.011 81.678,28.602 81.956,28.202 82.398 M27.301 86.200 C 27.305 87.080,27.387 87.393,27.483 86.895 C 27.579 86.398,27.575 85.678,27.475 85.295 C 27.375 84.913,27.296 85.320,27.301 86.200 M182.500 92.276 C 182.885 92.376,183.515 92.376,183.900 92.276 C 184.285 92.175,183.970 92.093,183.200 92.093 C 182.430 92.093,182.115 92.175,182.500 92.276 M191.300 92.297 C 192.785 92.374,195.215 92.374,196.700 92.297 C 198.185 92.220,196.970 92.157,194.000 92.157 C 191.030 92.157,189.815 92.220,191.300 92.297 M202.917 92.297 C 204.411 92.374,206.751 92.374,208.117 92.296 C 209.482 92.218,208.260 92.155,205.400 92.155 C 202.540 92.156,201.422 92.220,202.917 92.297 M215.905 92.283 C 216.402 92.379,217.122 92.375,217.505 92.275 C 217.887 92.175,217.480 92.096,216.600 92.101 C 215.720 92.105,215.407 92.187,215.905 92.283 M178.428 98.500 C 178.444 99.435,178.594 100.551,178.761 100.980 C 178.953 101.469,179.067 100.835,179.067 99.280 C 179.067 97.916,178.917 96.800,178.733 96.800 C 178.550 96.800,178.413 97.565,178.428 98.500 M329.628 103.676 C 329.682 105.448,330.340 106.375,330.372 104.724 C 330.387 103.912,330.220 103.136,330.000 103.000 C 329.775 102.861,329.612 103.157,329.628 103.676 M16.501 104.600 C 16.505 105.480,16.587 105.793,16.683 105.295 C 16.779 104.798,16.775 104.078,16.675 103.695 C 16.575 103.313,16.496 103.720,16.501 104.600 M178.914 107.000 C 178.917 108.100,178.995 108.503,179.087 107.895 C 179.179 107.286,179.177 106.386,179.082 105.895 C 178.987 105.403,178.911 105.900,178.914 107.000 M330.093 110.000 C 330.093 110.770,330.175 111.085,330.276 110.700 C 330.376 110.315,330.376 109.685,330.276 109.300 C 330.175 108.915,330.093 109.230,330.093 110.000 M16.514 111.800 C 16.517 112.900,16.595 113.303,16.687 112.695 C 16.779 112.086,16.777 111.186,16.682 110.695 C 16.587 110.203,16.511 110.700,16.514 111.800 M330.124 117.000 C 330.126 118.320,330.201 118.812,330.290 118.093 C 330.379 117.374,330.377 116.294,330.286 115.693 C 330.195 115.092,330.122 115.680,330.124 117.000 M384.663 123.200 C 385.251 123.860,385.824 124.310,385.935 124.199 C 386.180 123.954,384.396 122.000,383.927 122.000 C 383.744 122.000,384.075 122.540,384.663 123.200 M15.230 122.782 C 14.937 122.963,14.820 123.309,14.970 123.551 C 15.141 123.827,15.011 123.902,14.621 123.753 C 14.279 123.622,14.000 123.675,14.000 123.872 C 14.000 124.069,14.375 124.258,14.834 124.293 C 15.397 124.335,15.599 124.174,15.455 123.798 C 15.315 123.433,15.441 123.317,15.820 123.463 C 16.139 123.586,16.400 123.497,16.400 123.266 C 16.400 122.643,15.833 122.409,15.230 122.782 M5.714 127.400 C 5.717 128.500,5.795 128.903,5.887 128.295 C 5.979 127.686,5.977 126.786,5.882 126.295 C 5.787 125.803,5.711 126.300,5.714 127.400 M340.909 129.600 C 340.909 130.590,340.987 130.995,341.082 130.500 C 341.178 130.005,341.178 129.195,341.082 128.700 C 340.987 128.205,340.909 128.610,340.909 129.600 M5.728 137.600 C 5.728 139.030,5.801 139.615,5.889 138.900 C 5.978 138.185,5.978 137.015,5.889 136.300 C 5.801 135.585,5.728 136.170,5.728 137.600 M340.928 137.600 C 340.928 139.030,341.001 139.615,341.089 138.900 C 341.178 138.185,341.178 137.015,341.089 136.300 C 341.001 135.585,340.928 136.170,340.928 137.600 M52.500 139.023 C 51.911 139.663,51.862 140.000,52.357 140.000 C 52.698 140.000,53.337 138.796,53.109 138.583 C 53.049 138.527,52.775 138.725,52.500 139.023 M351.731 149.800 C 351.733 151.340,351.805 151.921,351.892 151.091 C 351.979 150.261,351.977 149.001,351.889 148.291 C 351.800 147.581,351.729 148.260,351.731 149.800 M351.737 160.600 C 351.739 162.360,351.809 163.030,351.893 162.089 C 351.978 161.149,351.977 159.709,351.891 158.889 C 351.805 158.070,351.736 158.840,351.737 160.600 M0.000 158.800 C 0.000 159.029,1.200 159.200,2.800 159.200 C 4.400 159.200,5.600 159.029,5.600 158.800 C 5.600 158.571,4.400 158.400,2.800 158.400 C 1.200 158.400,0.000 158.571,0.000 158.800 M394.400 158.800 C 394.400 159.029,395.600 159.200,397.200 159.200 C 398.800 159.200,400.000 159.029,400.000 158.800 C 400.000 158.571,398.800 158.400,397.200 158.400 C 395.600 158.400,394.400 158.571,394.400 158.800 M351.742 175.400 C 351.741 177.380,351.808 178.240,351.892 177.312 C 351.976 176.384,351.977 174.764,351.895 173.712 C 351.812 172.660,351.743 173.420,351.742 175.400 M101.600 178.805 C 101.600 178.956,114.695 179.091,130.700 179.105 C 146.705 179.119,159.530 179.067,159.200 178.989 C 158.037 178.714,101.600 178.534,101.600 178.805 M290.800 178.770 C 290.204 178.943,291.215 179.056,293.300 179.049 C 295.225 179.043,296.800 178.895,296.800 178.719 C 296.800 178.329,292.185 178.368,290.800 178.770 M95.905 179.083 C 96.402 179.179,97.122 179.175,97.505 179.075 C 97.887 178.975,97.480 178.896,96.600 178.901 C 95.720 178.905,95.407 178.987,95.905 179.083 M241.500 179.100 C 247.275 179.162,256.725 179.162,262.500 179.100 C 268.275 179.037,263.550 178.986,252.000 178.986 C 240.450 178.986,235.725 179.037,241.500 179.100 M301.905 179.083 C 302.402 179.179,303.122 179.175,303.505 179.075 C 303.887 178.975,303.480 178.896,302.600 178.901 C 301.720 178.905,301.407 178.987,301.905 179.083 M278.300 179.897 C 279.895 179.973,282.505 179.973,284.100 179.897 C 285.695 179.821,284.390 179.759,281.200 179.759 C 278.010 179.759,276.705 179.821,278.300 179.897 M92.153 190.200 C 92.153 192.840,92.218 193.868,92.297 192.484 C 92.375 191.101,92.374 188.941,92.295 187.684 C 92.216 186.428,92.152 187.560,92.153 190.200 M362.142 200.198 C 362.111 200.746,362.246 201.095,362.442 200.974 C 362.875 200.707,362.923 199.200,362.500 199.200 C 362.335 199.200,362.174 199.649,362.142 200.198 M92.124 213.800 C 92.126 215.120,92.201 215.612,92.290 214.893 C 92.379 214.174,92.377 213.094,92.286 212.493 C 92.195 211.892,92.122 212.480,92.124 213.800 M352.493 213.600 C 352.493 214.370,352.575 214.685,352.676 214.300 C 352.776 213.915,352.776 213.285,352.676 212.900 C 352.575 212.515,352.493 212.830,352.493 213.600 M351.742 224.600 C 351.741 226.580,351.808 227.440,351.892 226.512 C 351.976 225.584,351.977 223.964,351.895 222.912 C 351.812 221.860,351.743 222.620,351.742 224.600 M351.737 239.400 C 351.739 241.160,351.809 241.830,351.893 240.889 C 351.978 239.949,351.977 238.509,351.891 237.689 C 351.805 236.870,351.736 237.640,351.737 239.400 M351.731 250.200 C 351.733 251.740,351.805 252.321,351.892 251.491 C 351.979 250.661,351.977 249.401,351.889 248.691 C 351.800 247.981,351.729 248.660,351.731 250.200 M51.300 254.687 C 51.905 254.778,52.895 254.778,53.500 254.687 C 54.105 254.595,53.610 254.520,52.400 254.520 C 51.190 254.520,50.695 254.595,51.300 254.687 M346.000 254.625 C 347.403 254.935,349.918 254.990,349.743 254.707 C 349.638 254.538,348.618 254.421,347.476 254.446 C 346.334 254.472,345.670 254.552,346.000 254.625 M342.900 255.212 C 341.706 255.692,341.756 255.936,343.000 255.698 C 343.550 255.593,344.000 255.348,344.000 255.153 C 344.000 254.959,343.955 254.811,343.900 254.825 C 343.845 254.839,343.395 255.013,342.900 255.212 M5.728 262.400 C 5.728 263.830,5.801 264.415,5.889 263.700 C 5.978 262.985,5.978 261.815,5.889 261.100 C 5.801 260.385,5.728 260.970,5.728 262.400 M340.928 262.400 C 340.928 263.830,341.001 264.415,341.089 263.700 C 341.178 262.985,341.178 261.815,341.089 261.100 C 341.001 260.385,340.928 260.970,340.928 262.400 M340.909 270.400 C 340.909 271.390,340.987 271.795,341.082 271.300 C 341.178 270.805,341.178 269.995,341.082 269.500 C 340.987 269.005,340.909 269.410,340.909 270.400 M5.714 272.600 C 5.717 273.700,5.795 274.103,5.887 273.495 C 5.979 272.886,5.977 271.986,5.882 271.495 C 5.787 271.003,5.711 271.500,5.714 272.600 M62.500 276.287 C 63.105 276.378,64.095 276.378,64.700 276.287 C 65.305 276.195,64.810 276.120,63.600 276.120 C 62.390 276.120,61.895 276.195,62.500 276.287 M334.433 276.164 C 334.743 276.468,337.964 276.570,338.250 276.284 C 338.406 276.128,337.573 276.000,336.400 276.000 C 335.227 276.000,334.342 276.074,334.433 276.164 M15.000 277.200 C 15.398 277.640,15.904 278.000,16.124 278.000 C 16.344 278.000,16.198 277.640,15.800 277.200 C 15.402 276.760,14.896 276.400,14.676 276.400 C 14.456 276.400,14.602 276.760,15.000 277.200 M384.884 277.016 C 384.453 277.504,384.486 277.582,385.084 277.491 C 385.478 277.430,385.859 277.210,385.930 277.001 C 386.143 276.377,385.440 276.388,384.884 277.016 M330.124 283.000 C 330.126 284.320,330.201 284.812,330.290 284.093 C 330.379 283.374,330.377 282.294,330.286 281.693 C 330.195 281.092,330.122 281.680,330.124 283.000 M16.514 288.200 C 16.517 289.300,16.595 289.703,16.687 289.095 C 16.779 288.486,16.777 287.586,16.682 287.095 C 16.587 286.603,16.511 287.100,16.514 288.200 M330.093 290.000 C 330.093 290.770,330.175 291.085,330.276 290.700 C 330.376 290.315,330.376 289.685,330.276 289.300 C 330.175 288.915,330.093 289.230,330.093 290.000 M178.657 293.900 C 178.300 296.058,178.343 300.400,178.721 300.400 C 178.898 300.400,179.051 298.600,179.061 296.400 C 179.081 292.009,179.026 291.666,178.657 293.900 M16.501 295.400 C 16.505 296.280,16.587 296.593,16.683 296.095 C 16.779 295.598,16.775 294.878,16.675 294.495 C 16.575 294.113,16.496 294.520,16.501 295.400 M329.780 295.367 C 329.639 296.119,329.691 297.035,329.897 297.402 C 330.172 297.893,330.290 297.531,330.343 296.035 C 330.425 293.695,330.154 293.373,329.780 295.367 M27.301 313.800 C 27.305 314.680,27.387 314.993,27.483 314.495 C 27.579 313.998,27.575 313.278,27.475 312.895 C 27.375 312.513,27.296 312.920,27.301 313.800 M38.093 321.600 C 38.093 322.370,38.175 322.685,38.276 322.300 C 38.376 321.915,38.376 321.285,38.276 320.900 C 38.175 320.515,38.093 320.830,38.093 321.600 M103.000 330.000 C 103.136 330.220,103.912 330.387,104.724 330.372 C 105.913 330.349,106.045 330.277,105.400 330.000 C 104.277 329.517,102.702 329.517,103.000 330.000 M294.600 330.006 C 294.024 330.257,294.394 330.344,295.920 330.313 C 297.200 330.288,297.834 330.141,297.520 329.942 C 296.864 329.526,295.636 329.553,294.600 330.006 M109.300 330.276 C 109.685 330.376,110.315 330.376,110.700 330.276 C 111.085 330.175,110.770 330.093,110.000 330.093 C 109.230 330.093,108.915 330.175,109.300 330.276 M115.907 330.290 C 116.626 330.379,117.706 330.377,118.307 330.286 C 118.908 330.195,118.320 330.122,117.000 330.124 C 115.680 330.126,115.188 330.201,115.907 330.290 M281.907 330.290 C 282.626 330.379,283.706 330.377,284.307 330.286 C 284.908 330.195,284.320 330.122,283.000 330.124 C 281.680 330.126,281.188 330.201,281.907 330.290 M289.300 330.276 C 289.685 330.376,290.315 330.376,290.700 330.276 C 291.085 330.175,290.770 330.093,290.000 330.093 C 289.230 330.093,288.915 330.175,289.300 330.276 M276.000 336.400 C 276.000 337.573,276.128 338.406,276.284 338.250 C 276.570 337.964,276.468 334.743,276.164 334.433 C 276.074 334.342,276.000 335.227,276.000 336.400 M57.200 340.727 C 57.200 341.196,59.154 342.980,59.399 342.735 C 59.510 342.624,59.060 342.051,58.400 341.463 C 57.740 340.875,57.200 340.544,57.200 340.727 M128.700 341.082 C 129.195 341.178,130.005 341.178,130.500 341.082 C 130.995 340.987,130.590 340.909,129.600 340.909 C 128.610 340.909,128.205 340.987,128.700 341.082 M136.300 341.089 C 137.015 341.178,138.185 341.178,138.900 341.089 C 139.615 341.001,139.030 340.928,137.600 340.928 C 136.170 340.928,135.585 341.001,136.300 341.089 M261.100 341.089 C 261.815 341.178,262.985 341.178,263.700 341.089 C 264.415 341.001,263.830 340.928,262.400 340.928 C 260.970 340.928,260.385 341.001,261.100 341.089 M269.500 341.082 C 269.995 341.178,270.805 341.178,271.300 341.082 C 271.795 340.987,271.390 340.909,270.400 340.909 C 269.410 340.909,269.005 340.987,269.500 341.082 M255.326 342.700 C 255.189 343.085,255.004 343.535,254.915 343.700 C 254.826 343.865,254.922 344.000,255.130 344.000 C 255.337 344.000,255.593 343.550,255.698 343.000 C 255.918 341.849,255.693 341.668,255.326 342.700 M254.446 347.476 C 254.421 348.618,254.538 349.638,254.707 349.743 C 254.876 349.847,254.957 349.183,254.886 348.266 C 254.679 345.575,254.496 345.247,254.446 347.476 M148.291 351.889 C 149.001 351.977,150.261 351.979,151.091 351.892 C 151.921 351.805,151.340 351.733,149.800 351.731 C 148.260 351.729,147.581 351.800,148.291 351.889 M159.111 351.893 C 160.051 351.978,161.491 351.977,162.311 351.891 C 163.130 351.805,162.360 351.736,160.600 351.737 C 158.840 351.739,158.170 351.809,159.111 351.893 M173.712 351.895 C 174.764 351.977,176.384 351.976,177.312 351.892 C 178.240 351.808,177.380 351.741,175.400 351.742 C 173.420 351.743,172.660 351.812,173.712 351.895 M222.912 351.895 C 223.964 351.977,225.584 351.976,226.512 351.892 C 227.440 351.808,226.580 351.741,224.600 351.742 C 222.620 351.743,221.860 351.812,222.912 351.895 M237.911 351.893 C 238.851 351.978,240.291 351.977,241.111 351.891 C 241.930 351.805,241.160 351.736,239.400 351.737 C 237.640 351.739,236.970 351.809,237.911 351.893 M248.691 351.889 C 249.401 351.977,250.661 351.979,251.491 351.892 C 252.321 351.805,251.740 351.733,250.200 351.731 C 248.660 351.729,247.981 351.800,248.691 351.889 M212.900 352.676 C 213.285 352.776,213.915 352.776,214.300 352.676 C 214.685 352.575,214.370 352.493,213.600 352.493 C 212.830 352.493,212.515 352.575,212.900 352.676 M199.200 362.500 C 199.200 362.923,200.707 362.875,200.974 362.442 C 201.095 362.246,200.746 362.111,200.198 362.142 C 199.649 362.174,199.200 362.335,199.200 362.500 M81.301 367.400 C 81.305 368.280,81.387 368.593,81.483 368.095 C 81.579 367.598,81.575 366.878,81.475 366.495 C 81.375 366.113,81.296 366.520,81.301 367.400 M122.000 383.927 C 122.000 384.396,123.954 386.180,124.199 385.935 C 124.310 385.824,123.860 385.251,123.200 384.663 C 122.540 384.075,122.000 383.744,122.000 383.927 M276.853 385.048 C 276.451 385.504,276.424 385.784,276.753 386.113 C 276.999 386.359,277.213 386.479,277.230 386.380 C 277.246 386.281,277.335 385.795,277.427 385.300 C 277.624 384.247,277.580 384.227,276.853 385.048 M158.400 397.200 C 158.400 398.800,158.571 400.000,158.800 400.000 C 159.029 400.000,159.200 398.800,159.200 397.200 C 159.200 395.600,159.029 394.400,158.800 394.400 C 158.571 394.400,158.400 395.600,158.400 397.200 " stroke="none" fill="#605c5c" fill-rule="evenodd"></path><path id="path2" d="M158.400 2.800 C 158.400 4.400,158.571 5.600,158.800 5.600 C 159.029 5.600,159.200 4.400,159.200 2.800 C 159.200 1.200,159.029 0.000,158.800 0.000 C 158.571 0.000,158.400 1.200,158.400 2.800 M126.505 5.887 C 127.114 5.979,128.014 5.977,128.505 5.882 C 128.997 5.787,128.500 5.711,127.400 5.714 C 126.300 5.717,125.897 5.795,126.505 5.887 M136.300 5.889 C 137.015 5.978,138.185 5.978,138.900 5.889 C 139.615 5.801,139.030 5.728,137.600 5.728 C 136.170 5.728,135.585 5.801,136.300 5.889 M261.100 5.889 C 261.815 5.978,262.985 5.978,263.700 5.889 C 264.415 5.801,263.830 5.728,262.400 5.728 C 260.970 5.728,260.385 5.801,261.100 5.889 M271.705 5.887 C 272.314 5.979,273.214 5.977,273.705 5.882 C 274.197 5.787,273.700 5.711,272.600 5.714 C 271.500 5.717,271.097 5.795,271.705 5.887 M123.753 14.621 C 123.902 15.011,123.827 15.141,123.551 14.970 C 123.066 14.670,122.335 15.572,122.650 16.081 C 122.998 16.644,123.694 16.421,123.463 15.820 C 123.317 15.441,123.433 15.315,123.798 15.455 C 124.174 15.599,124.335 15.397,124.293 14.834 C 124.258 14.375,124.069 14.000,123.872 14.000 C 123.675 14.000,123.622 14.279,123.753 14.621 M276.400 14.676 C 276.400 14.896,276.760 15.402,277.200 15.800 C 277.640 16.198,278.000 16.344,278.000 16.124 C 278.000 15.904,277.640 15.398,277.200 15.000 C 276.760 14.602,276.400 14.456,276.400 14.676 M103.905 16.683 C 104.402 16.779,105.122 16.775,105.505 16.675 C 105.887 16.575,105.480 16.496,104.600 16.501 C 103.720 16.505,103.407 16.587,103.905 16.683 M110.905 16.687 C 111.514 16.779,112.414 16.777,112.905 16.682 C 113.397 16.587,112.900 16.511,111.800 16.514 C 110.700 16.517,110.297 16.595,110.905 16.687 M287.305 16.687 C 287.914 16.779,288.814 16.777,289.305 16.682 C 289.797 16.587,289.300 16.511,288.200 16.514 C 287.100 16.517,286.697 16.595,287.305 16.687 M294.705 16.683 C 295.202 16.779,295.922 16.775,296.305 16.675 C 296.687 16.575,296.280 16.496,295.400 16.501 C 294.520 16.505,294.207 16.587,294.705 16.683 M85.505 27.483 C 86.002 27.579,86.722 27.575,87.105 27.475 C 87.487 27.375,87.080 27.296,86.200 27.301 C 85.320 27.305,85.007 27.387,85.505 27.483 M313.105 27.483 C 313.602 27.579,314.322 27.575,314.705 27.475 C 315.087 27.375,314.680 27.296,313.800 27.301 C 312.920 27.305,312.607 27.387,313.105 27.483 M82.202 28.398 C 81.803 28.839,81.607 29.200,81.767 29.200 C 82.188 29.200,83.328 27.995,83.112 27.779 C 83.011 27.678,82.602 27.956,82.202 28.398 M81.301 32.600 C 81.305 33.480,81.387 33.793,81.483 33.295 C 81.579 32.798,81.575 32.078,81.475 31.695 C 81.375 31.313,81.296 31.720,81.301 32.600 M77.700 38.276 C 78.085 38.376,78.715 38.376,79.100 38.276 C 79.485 38.175,79.170 38.093,78.400 38.093 C 77.630 38.093,77.315 38.175,77.700 38.276 M320.900 38.276 C 321.285 38.376,321.915 38.376,322.300 38.276 C 322.685 38.175,322.370 38.093,321.600 38.093 C 320.830 38.093,320.515 38.175,320.900 38.276 M68.305 39.083 C 68.802 39.179,69.522 39.175,69.905 39.075 C 70.287 38.975,69.880 38.896,69.000 38.901 C 68.120 38.905,67.807 38.987,68.305 39.083 M60.493 47.600 C 60.493 48.370,60.575 48.685,60.676 48.300 C 60.776 47.915,60.776 47.285,60.676 46.900 C 60.575 46.515,60.493 46.830,60.493 47.600 M254.520 52.400 C 254.520 53.610,254.595 54.105,254.687 53.500 C 254.778 52.895,254.778 51.905,254.687 51.300 C 254.595 50.695,254.520 51.190,254.520 52.400 M138.813 52.691 C 138.289 53.282,138.303 53.323,138.946 53.076 C 139.342 52.924,139.741 52.800,139.833 52.800 C 139.925 52.800,140.000 52.620,140.000 52.400 C 140.000 51.812,139.481 51.939,138.813 52.691 M341.463 58.400 C 342.051 59.060,342.624 59.510,342.735 59.399 C 342.980 59.154,341.196 57.200,340.727 57.200 C 340.544 57.200,340.875 57.740,341.463 58.400 M58.225 58.232 C 57.332 59.125,57.898 59.817,58.830 58.973 C 59.243 58.599,59.485 58.137,59.367 57.947 C 59.074 57.473,58.954 57.503,58.225 58.232 M46.900 60.676 C 47.285 60.776,47.915 60.776,48.300 60.676 C 48.685 60.575,48.370 60.493,47.600 60.493 C 46.830 60.493,46.515 60.575,46.900 60.676 M276.120 63.600 C 276.120 64.810,276.195 65.305,276.287 64.700 C 276.378 64.095,276.378 63.105,276.287 62.500 C 276.195 61.895,276.120 62.390,276.120 63.600 M38.901 69.000 C 38.905 69.880,38.987 70.193,39.083 69.695 C 39.179 69.198,39.175 68.478,39.075 68.095 C 38.975 67.713,38.896 68.120,38.901 69.000 M38.093 78.400 C 38.093 79.170,38.175 79.485,38.276 79.100 C 38.376 78.715,38.376 78.085,38.276 77.700 C 38.175 77.315,38.093 77.630,38.093 78.400 M31.905 81.483 C 32.402 81.579,33.122 81.575,33.505 81.475 C 33.887 81.375,33.480 81.296,32.600 81.301 C 31.720 81.305,31.407 81.387,31.905 81.483 M366.705 81.483 C 367.202 81.579,367.922 81.575,368.305 81.475 C 368.687 81.375,368.280 81.296,367.400 81.301 C 366.520 81.305,366.207 81.387,366.705 81.483 M28.202 82.398 C 27.803 82.839,27.607 83.200,27.767 83.200 C 28.188 83.200,29.328 81.995,29.112 81.779 C 29.011 81.678,28.602 81.956,28.202 82.398 M27.301 86.200 C 27.305 87.080,27.387 87.393,27.483 86.895 C 27.579 86.398,27.575 85.678,27.475 85.295 C 27.375 84.913,27.296 85.320,27.301 86.200 M182.500 92.276 C 182.885 92.376,183.515 92.376,183.900 92.276 C 184.285 92.175,183.970 92.093,183.200 92.093 C 182.430 92.093,182.115 92.175,182.500 92.276 M191.300 92.297 C 192.785 92.374,195.215 92.374,196.700 92.297 C 198.185 92.220,196.970 92.157,194.000 92.157 C 191.030 92.157,189.815 92.220,191.300 92.297 M202.917 92.297 C 204.411 92.374,206.751 92.374,208.117 92.296 C 209.482 92.218,208.260 92.155,205.400 92.155 C 202.540 92.156,201.422 92.220,202.917 92.297 M215.905 92.283 C 216.402 92.379,217.122 92.375,217.505 92.275 C 217.887 92.175,217.480 92.096,216.600 92.101 C 215.720 92.105,215.407 92.187,215.905 92.283 M178.428 98.500 C 178.444 99.435,178.594 100.551,178.761 100.980 C 178.953 101.469,179.067 100.835,179.067 99.280 C 179.067 97.916,178.917 96.800,178.733 96.800 C 178.550 96.800,178.413 97.565,178.428 98.500 M329.628 103.676 C 329.682 105.448,330.340 106.375,330.372 104.724 C 330.387 103.912,330.220 103.136,330.000 103.000 C 329.775 102.861,329.612 103.157,329.628 103.676 M16.501 104.600 C 16.505 105.480,16.587 105.793,16.683 105.295 C 16.779 104.798,16.775 104.078,16.675 103.695 C 16.575 103.313,16.496 103.720,16.501 104.600 M178.914 107.000 C 178.917 108.100,178.995 108.503,179.087 107.895 C 179.179 107.286,179.177 106.386,179.082 105.895 C 178.987 105.403,178.911 105.900,178.914 107.000 M330.093 110.000 C 330.093 110.770,330.175 111.085,330.276 110.700 C 330.376 110.315,330.376 109.685,330.276 109.300 C 330.175 108.915,330.093 109.230,330.093 110.000 M16.514 111.800 C 16.517 112.900,16.595 113.303,16.687 112.695 C 16.779 112.086,16.777 111.186,16.682 110.695 C 16.587 110.203,16.511 110.700,16.514 111.800 M330.124 117.000 C 330.126 118.320,330.201 118.812,330.290 118.093 C 330.379 117.374,330.377 116.294,330.286 115.693 C 330.195 115.092,330.122 115.680,330.124 117.000 M384.663 123.200 C 385.251 123.860,385.824 124.310,385.935 124.199 C 386.180 123.954,384.396 122.000,383.927 122.000 C 383.744 122.000,384.075 122.540,384.663 123.200 M15.230 122.782 C 14.937 122.963,14.820 123.309,14.970 123.551 C 15.141 123.827,15.011 123.902,14.621 123.753 C 14.279 123.622,14.000 123.675,14.000 123.872 C 14.000 124.069,14.375 124.258,14.834 124.293 C 15.397 124.335,15.599 124.174,15.455 123.798 C 15.315 123.433,15.441 123.317,15.820 123.463 C 16.139 123.586,16.400 123.497,16.400 123.266 C 16.400 122.643,15.833 122.409,15.230 122.782 M5.714 127.400 C 5.717 128.500,5.795 128.903,5.887 128.295 C 5.979 127.686,5.977 126.786,5.882 126.295 C 5.787 125.803,5.711 126.300,5.714 127.400 M340.909 129.600 C 340.909 130.590,340.987 130.995,341.082 130.500 C 341.178 130.005,341.178 129.195,341.082 128.700 C 340.987 128.205,340.909 128.610,340.909 129.600 M5.728 137.600 C 5.728 139.030,5.801 139.615,5.889 138.900 C 5.978 138.185,5.978 137.015,5.889 136.300 C 5.801 135.585,5.728 136.170,5.728 137.600 M340.928 137.600 C 340.928 139.030,341.001 139.615,341.089 138.900 C 341.178 138.185,341.178 137.015,341.089 136.300 C 341.001 135.585,340.928 136.170,340.928 137.600 M52.500 139.023 C 51.911 139.663,51.862 140.000,52.357 140.000 C 52.698 140.000,53.337 138.796,53.109 138.583 C 53.049 138.527,52.775 138.725,52.500 139.023 M351.731 149.800 C 351.733 151.340,351.805 151.921,351.892 151.091 C 351.979 150.261,351.977 149.001,351.889 148.291 C 351.800 147.581,351.729 148.260,351.731 149.800 M351.737 160.600 C 351.739 162.360,351.809 163.030,351.893 162.089 C 351.978 161.149,351.977 159.709,351.891 158.889 C 351.805 158.070,351.736 158.840,351.737 160.600 M0.000 158.800 C 0.000 159.029,1.200 159.200,2.800 159.200 C 4.400 159.200,5.600 159.029,5.600 158.800 C 5.600 158.571,4.400 158.400,2.800 158.400 C 1.200 158.400,0.000 158.571,0.000 158.800 M394.400 158.800 C 394.400 159.029,395.600 159.200,397.200 159.200 C 398.800 159.200,400.000 159.029,400.000 158.800 C 400.000 158.571,398.800 158.400,397.200 158.400 C 395.600 158.400,394.400 158.571,394.400 158.800 M351.742 175.400 C 351.741 177.380,351.808 178.240,351.892 177.312 C 351.976 176.384,351.977 174.764,351.895 173.712 C 351.812 172.660,351.743 173.420,351.742 175.400 M101.600 178.805 C 101.600 178.956,114.695 179.091,130.700 179.105 C 146.705 179.119,159.530 179.067,159.200 178.989 C 158.037 178.714,101.600 178.534,101.600 178.805 M290.800 178.770 C 290.204 178.943,291.215 179.056,293.300 179.049 C 295.225 179.043,296.800 178.895,296.800 178.719 C 296.800 178.329,292.185 178.368,290.800 178.770 M95.905 179.083 C 96.402 179.179,97.122 179.175,97.505 179.075 C 97.887 178.975,97.480 178.896,96.600 178.901 C 95.720 178.905,95.407 178.987,95.905 179.083 M241.500 179.100 C 247.275 179.162,256.725 179.162,262.500 179.100 C 268.275 179.037,263.550 178.986,252.000 178.986 C 240.450 178.986,235.725 179.037,241.500 179.100 M301.905 179.083 C 302.402 179.179,303.122 179.175,303.505 179.075 C 303.887 178.975,303.480 178.896,302.600 178.901 C 301.720 178.905,301.407 178.987,301.905 179.083 M278.300 179.897 C 279.895 179.973,282.505 179.973,284.100 179.897 C 285.695 179.821,284.390 179.759,281.200 179.759 C 278.010 179.759,276.705 179.821,278.300 179.897 M92.153 190.200 C 92.153 192.840,92.218 193.868,92.297 192.484 C 92.375 191.101,92.374 188.941,92.295 187.684 C 92.216 186.428,92.152 187.560,92.153 190.200 M362.142 200.198 C 362.111 200.746,362.246 201.095,362.442 200.974 C 362.875 200.707,362.923 199.200,362.500 199.200 C 362.335 199.200,362.174 199.649,362.142 200.198 M92.124 213.800 C 92.126 215.120,92.201 215.612,92.290 214.893 C 92.379 214.174,92.377 213.094,92.286 212.493 C 92.195 211.892,92.122 212.480,92.124 213.800 M352.493 213.600 C 352.493 214.370,352.575 214.685,352.676 214.300 C 352.776 213.915,352.776 213.285,352.676 212.900 C 352.575 212.515,352.493 212.830,352.493 213.600 M351.742 224.600 C 351.741 226.580,351.808 227.440,351.892 226.512 C 351.976 225.584,351.977 223.964,351.895 222.912 C 351.812 221.860,351.743 222.620,351.742 224.600 M351.737 239.400 C 351.739 241.160,351.809 241.830,351.893 240.889 C 351.978 239.949,351.977 238.509,351.891 237.689 C 351.805 236.870,351.736 237.640,351.737 239.400 M351.731 250.200 C 351.733 251.740,351.805 252.321,351.892 251.491 C 351.979 250.661,351.977 249.401,351.889 248.691 C 351.800 247.981,351.729 248.660,351.731 250.200 M51.300 254.687 C 51.905 254.778,52.895 254.778,53.500 254.687 C 54.105 254.595,53.610 254.520,52.400 254.520 C 51.190 254.520,50.695 254.595,51.300 254.687 M346.000 254.625 C 347.403 254.935,349.918 254.990,349.743 254.707 C 349.638 254.538,348.618 254.421,347.476 254.446 C 346.334 254.472,345.670 254.552,346.000 254.625 M342.900 255.212 C 341.706 255.692,341.756 255.936,343.000 255.698 C 343.550 255.593,344.000 255.348,344.000 255.153 C 344.000 254.959,343.955 254.811,343.900 254.825 C 343.845 254.839,343.395 255.013,342.900 255.212 M5.728 262.400 C 5.728 263.830,5.801 264.415,5.889 263.700 C 5.978 262.985,5.978 261.815,5.889 261.100 C 5.801 260.385,5.728 260.970,5.728 262.400 M340.928 262.400 C 340.928 263.830,341.001 264.415,341.089 263.700 C 341.178 262.985,341.178 261.815,341.089 261.100 C 341.001 260.385,340.928 260.970,340.928 262.400 M340.909 270.400 C 340.909 271.390,340.987 271.795,341.082 271.300 C 341.178 270.805,341.178 269.995,341.082 269.500 C 340.987 269.005,340.909 269.410,340.909 270.400 M5.714 272.600 C 5.717 273.700,5.795 274.103,5.887 273.495 C 5.979 272.886,5.977 271.986,5.882 271.495 C 5.787 271.003,5.711 271.500,5.714 272.600 M62.500 276.287 C 63.105 276.378,64.095 276.378,64.700 276.287 C 65.305 276.195,64.810 276.120,63.600 276.120 C 62.390 276.120,61.895 276.195,62.500 276.287 M334.433 276.164 C 334.743 276.468,337.964 276.570,338.250 276.284 C 338.406 276.128,337.573 276.000,336.400 276.000 C 335.227 276.000,334.342 276.074,334.433 276.164 M15.000 277.200 C 15.398 277.640,15.904 278.000,16.124 278.000 C 16.344 278.000,16.198 277.640,15.800 277.200 C 15.402 276.760,14.896 276.400,14.676 276.400 C 14.456 276.400,14.602 276.760,15.000 277.200 M384.884 277.016 C 384.453 277.504,384.486 277.582,385.084 277.491 C 385.478 277.430,385.859 277.210,385.930 277.001 C 386.143 276.377,385.440 276.388,384.884 277.016 M330.124 283.000 C 330.126 284.320,330.201 284.812,330.290 284.093 C 330.379 283.374,330.377 282.294,330.286 281.693 C 330.195 281.092,330.122 281.680,330.124 283.000 M16.514 288.200 C 16.517 289.300,16.595 289.703,16.687 289.095 C 16.779 288.486,16.777 287.586,16.682 287.095 C 16.587 286.603,16.511 287.100,16.514 288.200 M330.093 290.000 C 330.093 290.770,330.175 291.085,330.276 290.700 C 330.376 290.315,330.376 289.685,330.276 289.300 C 330.175 288.915,330.093 289.230,330.093 290.000 M178.657 293.900 C 178.300 296.058,178.343 300.400,178.721 300.400 C 178.898 300.400,179.051 298.600,179.061 296.400 C 179.081 292.009,179.026 291.666,178.657 293.900 M16.501 295.400 C 16.505 296.280,16.587 296.593,16.683 296.095 C 16.779 295.598,16.775 294.878,16.675 294.495 C 16.575 294.113,16.496 294.520,16.501 295.400 M329.780 295.367 C 329.639 296.119,329.691 297.035,329.897 297.402 C 330.172 297.893,330.290 297.531,330.343 296.035 C 330.425 293.695,330.154 293.373,329.780 295.367 M27.301 313.800 C 27.305 314.680,27.387 314.993,27.483 314.495 C 27.579 313.998,27.575 313.278,27.475 312.895 C 27.375 312.513,27.296 312.920,27.301 313.800 M38.093 321.600 C 38.093 322.370,38.175 322.685,38.276 322.300 C 38.376 321.915,38.376 321.285,38.276 320.900 C 38.175 320.515,38.093 320.830,38.093 321.600 M103.000 330.000 C 103.136 330.220,103.912 330.387,104.724 330.372 C 105.913 330.349,106.045 330.277,105.400 330.000 C 104.277 329.517,102.702 329.517,103.000 330.000 M294.600 330.006 C 294.024 330.257,294.394 330.344,295.920 330.313 C 297.200 330.288,297.834 330.141,297.520 329.942 C 296.864 329.526,295.636 329.553,294.600 330.006 M109.300 330.276 C 109.685 330.376,110.315 330.376,110.700 330.276 C 111.085 330.175,110.770 330.093,110.000 330.093 C 109.230 330.093,108.915 330.175,109.300 330.276 M115.907 330.290 C 116.626 330.379,117.706 330.377,118.307 330.286 C 118.908 330.195,118.320 330.122,117.000 330.124 C 115.680 330.126,115.188 330.201,115.907 330.290 M281.907 330.290 C 282.626 330.379,283.706 330.377,284.307 330.286 C 284.908 330.195,284.320 330.122,283.000 330.124 C 281.680 330.126,281.188 330.201,281.907 330.290 M289.300 330.276 C 289.685 330.376,290.315 330.376,290.700 330.276 C 291.085 330.175,290.770 330.093,290.000 330.093 C 289.230 330.093,288.915 330.175,289.300 330.276 M276.000 336.400 C 276.000 337.573,276.128 338.406,276.284 338.250 C 276.570 337.964,276.468 334.743,276.164 334.433 C 276.074 334.342,276.000 335.227,276.000 336.400 M57.200 340.727 C 57.200 341.196,59.154 342.980,59.399 342.735 C 59.510 342.624,59.060 342.051,58.400 341.463 C 57.740 340.875,57.200 340.544,57.200 340.727 M128.700 341.082 C 129.195 341.178,130.005 341.178,130.500 341.082 C 130.995 340.987,130.590 340.909,129.600 340.909 C 128.610 340.909,128.205 340.987,128.700 341.082 M136.300 341.089 C 137.015 341.178,138.185 341.178,138.900 341.089 C 139.615 341.001,139.030 340.928,137.600 340.928 C 136.170 340.928,135.585 341.001,136.300 341.089 M261.100 341.089 C 261.815 341.178,262.985 341.178,263.700 341.089 C 264.415 341.001,263.830 340.928,262.400 340.928 C 260.970 340.928,260.385 341.001,261.100 341.089 M269.500 341.082 C 269.995 341.178,270.805 341.178,271.300 341.082 C 271.795 340.987,271.390 340.909,270.400 340.909 C 269.410 340.909,269.005 340.987,269.500 341.082 M255.326 342.700 C 255.189 343.085,255.004 343.535,254.915 343.700 C 254.826 343.865,254.922 344.000,255.130 344.000 C 255.337 344.000,255.593 343.550,255.698 343.000 C 255.918 341.849,255.693 341.668,255.326 342.700 M254.446 347.476 C 254.421 348.618,254.538 349.638,254.707 349.743 C 254.876 349.847,254.957 349.183,254.886 348.266 C 254.679 345.575,254.496 345.247,254.446 347.476 M148.291 351.889 C 149.001 351.977,150.261 351.979,151.091 351.892 C 151.921 351.805,151.340 351.733,149.800 351.731 C 148.260 351.729,147.581 351.800,148.291 351.889 M159.111 351.893 C 160.051 351.978,161.491 351.977,162.311 351.891 C 163.130 351.805,162.360 351.736,160.600 351.737 C 158.840 351.739,158.170 351.809,159.111 351.893 M173.712 351.895 C 174.764 351.977,176.384 351.976,177.312 351.892 C 178.240 351.808,177.380 351.741,175.400 351.742 C 173.420 351.743,172.660 351.812,173.712 351.895 M222.912 351.895 C 223.964 351.977,225.584 351.976,226.512 351.892 C 227.440 351.808,226.580 351.741,224.600 351.742 C 222.620 351.743,221.860 351.812,222.912 351.895 M237.911 351.893 C 238.851 351.978,240.291 351.977,241.111 351.891 C 241.930 351.805,241.160 351.736,239.400 351.737 C 237.640 351.739,236.970 351.809,237.911 351.893 M248.691 351.889 C 249.401 351.977,250.661 351.979,251.491 351.892 C 252.321 351.805,251.740 351.733,250.200 351.731 C 248.660 351.729,247.981 351.800,248.691 351.889 M212.900 352.676 C 213.285 352.776,213.915 352.776,214.300 352.676 C 214.685 352.575,214.370 352.493,213.600 352.493 C 212.830 352.493,212.515 352.575,212.900 352.676 M199.200 362.500 C 199.200 362.923,200.707 362.875,200.974 362.442 C 201.095 362.246,200.746 362.111,200.198 362.142 C 199.649 362.174,199.200 362.335,199.200 362.500 M81.301 367.400 C 81.305 368.280,81.387 368.593,81.483 368.095 C 81.579 367.598,81.575 366.878,81.475 366.495 C 81.375 366.113,81.296 366.520,81.301 367.400 M122.000 383.927 C 122.000 384.396,123.954 386.180,124.199 385.935 C 124.310 385.824,123.860 385.251,123.200 384.663 C 122.540 384.075,122.000 383.744,122.000 383.927 M276.853 385.048 C 276.451 385.504,276.424 385.784,276.753 386.113 C 276.999 386.359,277.213 386.479,277.230 386.380 C 277.246 386.281,277.335 385.795,277.427 385.300 C 277.624 384.247,277.580 384.227,276.853 385.048 M158.400 397.200 C 158.400 398.800,158.571 400.000,158.800 400.000 C 159.029 400.000,159.200 398.800,159.200 397.200 C 159.200 395.600,159.029 394.400,158.800 394.400 C 158.571 394.400,158.400 395.600,158.400 397.200 " stroke="none" fill="#605c5c" fill-rule="evenodd"></path><path id="path3" d="M158.400 2.800 C 158.400 4.400,158.571 5.600,158.800 5.600 C 159.029 5.600,159.200 4.400,159.200 2.800 C 159.200 1.200,159.029 0.000,158.800 0.000 C 158.571 0.000,158.400 1.200,158.400 2.800 M126.505 5.887 C 127.114 5.979,128.014 5.977,128.505 5.882 C 128.997 5.787,128.500 5.711,127.400 5.714 C 126.300 5.717,125.897 5.795,126.505 5.887 M136.300 5.889 C 137.015 5.978,138.185 5.978,138.900 5.889 C 139.615 5.801,139.030 5.728,137.600 5.728 C 136.170 5.728,135.585 5.801,136.300 5.889 M261.100 5.889 C 261.815 5.978,262.985 5.978,263.700 5.889 C 264.415 5.801,263.830 5.728,262.400 5.728 C 260.970 5.728,260.385 5.801,261.100 5.889 M271.705 5.887 C 272.314 5.979,273.214 5.977,273.705 5.882 C 274.197 5.787,273.700 5.711,272.600 5.714 C 271.500 5.717,271.097 5.795,271.705 5.887 M123.753 14.621 C 123.902 15.011,123.827 15.141,123.551 14.970 C 123.066 14.670,122.335 15.572,122.650 16.081 C 122.998 16.644,123.694 16.421,123.463 15.820 C 123.317 15.441,123.433 15.315,123.798 15.455 C 124.174 15.599,124.335 15.397,124.293 14.834 C 124.258 14.375,124.069 14.000,123.872 14.000 C 123.675 14.000,123.622 14.279,123.753 14.621 M276.400 14.676 C 276.400 14.896,276.760 15.402,277.200 15.800 C 277.640 16.198,278.000 16.344,278.000 16.124 C 278.000 15.904,277.640 15.398,277.200 15.000 C 276.760 14.602,276.400 14.456,276.400 14.676 M103.905 16.683 C 104.402 16.779,105.122 16.775,105.505 16.675 C 105.887 16.575,105.480 16.496,104.600 16.501 C 103.720 16.505,103.407 16.587,103.905 16.683 M110.905 16.687 C 111.514 16.779,112.414 16.777,112.905 16.682 C 113.397 16.587,112.900 16.511,111.800 16.514 C 110.700 16.517,110.297 16.595,110.905 16.687 M287.305 16.687 C 287.914 16.779,288.814 16.777,289.305 16.682 C 289.797 16.587,289.300 16.511,288.200 16.514 C 287.100 16.517,286.697 16.595,287.305 16.687 M294.705 16.683 C 295.202 16.779,295.922 16.775,296.305 16.675 C 296.687 16.575,296.280 16.496,295.400 16.501 C 294.520 16.505,294.207 16.587,294.705 16.683 M85.505 27.483 C 86.002 27.579,86.722 27.575,87.105 27.475 C 87.487 27.375,87.080 27.296,86.200 27.301 C 85.320 27.305,85.007 27.387,85.505 27.483 M313.105 27.483 C 313.602 27.579,314.322 27.575,314.705 27.475 C 315.087 27.375,314.680 27.296,313.800 27.301 C 312.920 27.305,312.607 27.387,313.105 27.483 M82.202 28.398 C 81.803 28.839,81.607 29.200,81.767 29.200 C 82.188 29.200,83.328 27.995,83.112 27.779 C 83.011 27.678,82.602 27.956,82.202 28.398 M81.301 32.600 C 81.305 33.480,81.387 33.793,81.483 33.295 C 81.579 32.798,81.575 32.078,81.475 31.695 C 81.375 31.313,81.296 31.720,81.301 32.600 M77.700 38.276 C 78.085 38.376,78.715 38.376,79.100 38.276 C 79.485 38.175,79.170 38.093,78.400 38.093 C 77.630 38.093,77.315 38.175,77.700 38.276 M320.900 38.276 C 321.285 38.376,321.915 38.376,322.300 38.276 C 322.685 38.175,322.370 38.093,321.600 38.093 C 320.830 38.093,320.515 38.175,320.900 38.276 M68.305 39.083 C 68.802 39.179,69.522 39.175,69.905 39.075 C 70.287 38.975,69.880 38.896,69.000 38.901 C 68.120 38.905,67.807 38.987,68.305 39.083 M60.493 47.600 C 60.493 48.370,60.575 48.685,60.676 48.300 C 60.776 47.915,60.776 47.285,60.676 46.900 C 60.575 46.515,60.493 46.830,60.493 47.600 M254.520 52.400 C 254.520 53.610,254.595 54.105,254.687 53.500 C 254.778 52.895,254.778 51.905,254.687 51.300 C 254.595 50.695,254.520 51.190,254.520 52.400 M138.813 52.691 C 138.289 53.282,138.303 53.323,138.946 53.076 C 139.342 52.924,139.741 52.800,139.833 52.800 C 139.925 52.800,140.000 52.620,140.000 52.400 C 140.000 51.812,139.481 51.939,138.813 52.691 M341.463 58.400 C 342.051 59.060,342.624 59.510,342.735 59.399 C 342.980 59.154,341.196 57.200,340.727 57.200 C 340.544 57.200,340.875 57.740,341.463 58.400 M58.225 58.232 C 57.332 59.125,57.898 59.817,58.830 58.973 C 59.243 58.599,59.485 58.137,59.367 57.947 C 59.074 57.473,58.954 57.503,58.225 58.232 M46.900 60.676 C 47.285 60.776,47.915 60.776,48.300 60.676 C 48.685 60.575,48.370 60.493,47.600 60.493 C 46.830 60.493,46.515 60.575,46.900 60.676 M276.120 63.600 C 276.120 64.810,276.195 65.305,276.287 64.700 C 276.378 64.095,276.378 63.105,276.287 62.500 C 276.195 61.895,276.120 62.390,276.120 63.600 M38.901 69.000 C 38.905 69.880,38.987 70.193,39.083 69.695 C 39.179 69.198,39.175 68.478,39.075 68.095 C 38.975 67.713,38.896 68.120,38.901 69.000 M38.093 78.400 C 38.093 79.170,38.175 79.485,38.276 79.100 C 38.376 78.715,38.376 78.085,38.276 77.700 C 38.175 77.315,38.093 77.630,38.093 78.400 M31.905 81.483 C 32.402 81.579,33.122 81.575,33.505 81.475 C 33.887 81.375,33.480 81.296,32.600 81.301 C 31.720 81.305,31.407 81.387,31.905 81.483 M366.705 81.483 C 367.202 81.579,367.922 81.575,368.305 81.475 C 368.687 81.375,368.280 81.296,367.400 81.301 C 366.520 81.305,366.207 81.387,366.705 81.483 M28.202 82.398 C 27.803 82.839,27.607 83.200,27.767 83.200 C 28.188 83.200,29.328 81.995,29.112 81.779 C 29.011 81.678,28.602 81.956,28.202 82.398 M27.301 86.200 C 27.305 87.080,27.387 87.393,27.483 86.895 C 27.579 86.398,27.575 85.678,27.475 85.295 C 27.375 84.913,27.296 85.320,27.301 86.200 M182.500 92.276 C 182.885 92.376,183.515 92.376,183.900 92.276 C 184.285 92.175,183.970 92.093,183.200 92.093 C 182.430 92.093,182.115 92.175,182.500 92.276 M191.300 92.297 C 192.785 92.374,195.215 92.374,196.700 92.297 C 198.185 92.220,196.970 92.157,194.000 92.157 C 191.030 92.157,189.815 92.220,191.300 92.297 M202.917 92.297 C 204.411 92.374,206.751 92.374,208.117 92.296 C 209.482 92.218,208.260 92.155,205.400 92.155 C 202.540 92.156,201.422 92.220,202.917 92.297 M215.905 92.283 C 216.402 92.379,217.122 92.375,217.505 92.275 C 217.887 92.175,217.480 92.096,216.600 92.101 C 215.720 92.105,215.407 92.187,215.905 92.283 M178.428 98.500 C 178.444 99.435,178.594 100.551,178.761 100.980 C 178.953 101.469,179.067 100.835,179.067 99.280 C 179.067 97.916,178.917 96.800,178.733 96.800 C 178.550 96.800,178.413 97.565,178.428 98.500 M329.628 103.676 C 329.682 105.448,330.340 106.375,330.372 104.724 C 330.387 103.912,330.220 103.136,330.000 103.000 C 329.775 102.861,329.612 103.157,329.628 103.676 M16.501 104.600 C 16.505 105.480,16.587 105.793,16.683 105.295 C 16.779 104.798,16.775 104.078,16.675 103.695 C 16.575 103.313,16.496 103.720,16.501 104.600 M178.914 107.000 C 178.917 108.100,178.995 108.503,179.087 107.895 C 179.179 107.286,179.177 106.386,179.082 105.895 C 178.987 105.403,178.911 105.900,178.914 107.000 M330.093 110.000 C 330.093 110.770,330.175 111.085,330.276 110.700 C 330.376 110.315,330.376 109.685,330.276 109.300 C 330.175 108.915,330.093 109.230,330.093 110.000 M16.514 111.800 C 16.517 112.900,16.595 113.303,16.687 112.695 C 16.779 112.086,16.777 111.186,16.682 110.695 C 16.587 110.203,16.511 110.700,16.514 111.800 M330.124 117.000 C 330.126 118.320,330.201 118.812,330.290 118.093 C 330.379 117.374,330.377 116.294,330.286 115.693 C 330.195 115.092,330.122 115.680,330.124 117.000 M384.663 123.200 C 385.251 123.860,385.824 124.310,385.935 124.199 C 386.180 123.954,384.396 122.000,383.927 122.000 C 383.744 122.000,384.075 122.540,384.663 123.200 M15.230 122.782 C 14.937 122.963,14.820 123.309,14.970 123.551 C 15.141 123.827,15.011 123.902,14.621 123.753 C 14.279 123.622,14.000 123.675,14.000 123.872 C 14.000 124.069,14.375 124.258,14.834 124.293 C 15.397 124.335,15.599 124.174,15.455 123.798 C 15.315 123.433,15.441 123.317,15.820 123.463 C 16.139 123.586,16.400 123.497,16.400 123.266 C 16.400 122.643,15.833 122.409,15.230 122.782 M5.714 127.400 C 5.717 128.500,5.795 128.903,5.887 128.295 C 5.979 127.686,5.977 126.786,5.882 126.295 C 5.787 125.803,5.711 126.300,5.714 127.400 M340.909 129.600 C 340.909 130.590,340.987 130.995,341.082 130.500 C 341.178 130.005,341.178 129.195,341.082 128.700 C 340.987 128.205,340.909 128.610,340.909 129.600 M5.728 137.600 C 5.728 139.030,5.801 139.615,5.889 138.900 C 5.978 138.185,5.978 137.015,5.889 136.300 C 5.801 135.585,5.728 136.170,5.728 137.600 M340.928 137.600 C 340.928 139.030,341.001 139.615,341.089 138.900 C 341.178 138.185,341.178 137.015,341.089 136.300 C 341.001 135.585,340.928 136.170,340.928 137.600 M52.500 139.023 C 51.911 139.663,51.862 140.000,52.357 140.000 C 52.698 140.000,53.337 138.796,53.109 138.583 C 53.049 138.527,52.775 138.725,52.500 139.023 M351.731 149.800 C 351.733 151.340,351.805 151.921,351.892 151.091 C 351.979 150.261,351.977 149.001,351.889 148.291 C 351.800 147.581,351.729 148.260,351.731 149.800 M351.737 160.600 C 351.739 162.360,351.809 163.030,351.893 162.089 C 351.978 161.149,351.977 159.709,351.891 158.889 C 351.805 158.070,351.736 158.840,351.737 160.600 M0.000 158.800 C 0.000 159.029,1.200 159.200,2.800 159.200 C 4.400 159.200,5.600 159.029,5.600 158.800 C 5.600 158.571,4.400 158.400,2.800 158.400 C 1.200 158.400,0.000 158.571,0.000 158.800 M394.400 158.800 C 394.400 159.029,395.600 159.200,397.200 159.200 C 398.800 159.200,400.000 159.029,400.000 158.800 C 400.000 158.571,398.800 158.400,397.200 158.400 C 395.600 158.400,394.400 158.571,394.400 158.800 M351.742 175.400 C 351.741 177.380,351.808 178.240,351.892 177.312 C 351.976 176.384,351.977 174.764,351.895 173.712 C 351.812 172.660,351.743 173.420,351.742 175.400 M101.600 178.805 C 101.600 178.956,114.695 179.091,130.700 179.105 C 146.705 179.119,159.530 179.067,159.200 178.989 C 158.037 178.714,101.600 178.534,101.600 178.805 M290.800 178.770 C 290.204 178.943,291.215 179.056,293.300 179.049 C 295.225 179.043,296.800 178.895,296.800 178.719 C 296.800 178.329,292.185 178.368,290.800 178.770 M95.905 179.083 C 96.402 179.179,97.122 179.175,97.505 179.075 C 97.887 178.975,97.480 178.896,96.600 178.901 C 95.720 178.905,95.407 178.987,95.905 179.083 M241.500 179.100 C 247.275 179.162,256.725 179.162,262.500 179.100 C 268.275 179.037,263.550 178.986,252.000 178.986 C 240.450 178.986,235.725 179.037,241.500 179.100 M301.905 179.083 C 302.402 179.179,303.122 179.175,303.505 179.075 C 303.887 178.975,303.480 178.896,302.600 178.901 C 301.720 178.905,301.407 178.987,301.905 179.083 M278.300 179.897 C 279.895 179.973,282.505 179.973,284.100 179.897 C 285.695 179.821,284.390 179.759,281.200 179.759 C 278.010 179.759,276.705 179.821,278.300 179.897 M92.153 190.200 C 92.153 192.840,92.218 193.868,92.297 192.484 C 92.375 191.101,92.374 188.941,92.295 187.684 C 92.216 186.428,92.152 187.560,92.153 190.200 M362.142 200.198 C 362.111 200.746,362.246 201.095,362.442 200.974 C 362.875 200.707,362.923 199.200,362.500 199.200 C 362.335 199.200,362.174 199.649,362.142 200.198 M92.124 213.800 C 92.126 215.120,92.201 215.612,92.290 214.893 C 92.379 214.174,92.377 213.094,92.286 212.493 C 92.195 211.892,92.122 212.480,92.124 213.800 M352.493 213.600 C 352.493 214.370,352.575 214.685,352.676 214.300 C 352.776 213.915,352.776 213.285,352.676 212.900 C 352.575 212.515,352.493 212.830,352.493 213.600 M351.742 224.600 C 351.741 226.580,351.808 227.440,351.892 226.512 C 351.976 225.584,351.977 223.964,351.895 222.912 C 351.812 221.860,351.743 222.620,351.742 224.600 M351.737 239.400 C 351.739 241.160,351.809 241.830,351.893 240.889 C 351.978 239.949,351.977 238.509,351.891 237.689 C 351.805 236.870,351.736 237.640,351.737 239.400 M351.731 250.200 C 351.733 251.740,351.805 252.321,351.892 251.491 C 351.979 250.661,351.977 249.401,351.889 248.691 C 351.800 247.981,351.729 248.660,351.731 250.200 M51.300 254.687 C 51.905 254.778,52.895 254.778,53.500 254.687 C 54.105 254.595,53.610 254.520,52.400 254.520 C 51.190 254.520,50.695 254.595,51.300 254.687 M346.000 254.625 C 347.403 254.935,349.918 254.990,349.743 254.707 C 349.638 254.538,348.618 254.421,347.476 254.446 C 346.334 254.472,345.670 254.552,346.000 254.625 M342.900 255.212 C 341.706 255.692,341.756 255.936,343.000 255.698 C 343.550 255.593,344.000 255.348,344.000 255.153 C 344.000 254.959,343.955 254.811,343.900 254.825 C 343.845 254.839,343.395 255.013,342.900 255.212 M5.728 262.400 C 5.728 263.830,5.801 264.415,5.889 263.700 C 5.978 262.985,5.978 261.815,5.889 261.100 C 5.801 260.385,5.728 260.970,5.728 262.400 M340.928 262.400 C 340.928 263.830,341.001 264.415,341.089 263.700 C 341.178 262.985,341.178 261.815,341.089 261.100 C 341.001 260.385,340.928 260.970,340.928 262.400 M340.909 270.400 C 340.909 271.390,340.987 271.795,341.082 271.300 C 341.178 270.805,341.178 269.995,341.082 269.500 C 340.987 269.005,340.909 269.410,340.909 270.400 M5.714 272.600 C 5.717 273.700,5.795 274.103,5.887 273.495 C 5.979 272.886,5.977 271.986,5.882 271.495 C 5.787 271.003,5.711 271.500,5.714 272.600 M62.500 276.287 C 63.105 276.378,64.095 276.378,64.700 276.287 C 65.305 276.195,64.810 276.120,63.600 276.120 C 62.390 276.120,61.895 276.195,62.500 276.287 M334.433 276.164 C 334.743 276.468,337.964 276.570,338.250 276.284 C 338.406 276.128,337.573 276.000,336.400 276.000 C 335.227 276.000,334.342 276.074,334.433 276.164 M15.000 277.200 C 15.398 277.640,15.904 278.000,16.124 278.000 C 16.344 278.000,16.198 277.640,15.800 277.200 C 15.402 276.760,14.896 276.400,14.676 276.400 C 14.456 276.400,14.602 276.760,15.000 277.200 M384.884 277.016 C 384.453 277.504,384.486 277.582,385.084 277.491 C 385.478 277.430,385.859 277.210,385.930 277.001 C 386.143 276.377,385.440 276.388,384.884 277.016 M330.124 283.000 C 330.126 284.320,330.201 284.812,330.290 284.093 C 330.379 283.374,330.377 282.294,330.286 281.693 C 330.195 281.092,330.122 281.680,330.124 283.000 M16.514 288.200 C 16.517 289.300,16.595 289.703,16.687 289.095 C 16.779 288.486,16.777 287.586,16.682 287.095 C 16.587 286.603,16.511 287.100,16.514 288.200 M330.093 290.000 C 330.093 290.770,330.175 291.085,330.276 290.700 C 330.376 290.315,330.376 289.685,330.276 289.300 C 330.175 288.915,330.093 289.230,330.093 290.000 M178.657 293.900 C 178.300 296.058,178.343 300.400,178.721 300.400 C 178.898 300.400,179.051 298.600,179.061 296.400 C 179.081 292.009,179.026 291.666,178.657 293.900 M16.501 295.400 C 16.505 296.280,16.587 296.593,16.683 296.095 C 16.779 295.598,16.775 294.878,16.675 294.495 C 16.575 294.113,16.496 294.520,16.501 295.400 M329.780 295.367 C 329.639 296.119,329.691 297.035,329.897 297.402 C 330.172 297.893,330.290 297.531,330.343 296.035 C 330.425 293.695,330.154 293.373,329.780 295.367 M27.301 313.800 C 27.305 314.680,27.387 314.993,27.483 314.495 C 27.579 313.998,27.575 313.278,27.475 312.895 C 27.375 312.513,27.296 312.920,27.301 313.800 M38.093 321.600 C 38.093 322.370,38.175 322.685,38.276 322.300 C 38.376 321.915,38.376 321.285,38.276 320.900 C 38.175 320.515,38.093 320.830,38.093 321.600 M103.000 330.000 C 103.136 330.220,103.912 330.387,104.724 330.372 C 105.913 330.349,106.045 330.277,105.400 330.000 C 104.277 329.517,102.702 329.517,103.000 330.000 M294.600 330.006 C 294.024 330.257,294.394 330.344,295.920 330.313 C 297.200 330.288,297.834 330.141,297.520 329.942 C 296.864 329.526,295.636 329.553,294.600 330.006 M109.300 330.276 C 109.685 330.376,110.315 330.376,110.700 330.276 C 111.085 330.175,110.770 330.093,110.000 330.093 C 109.230 330.093,108.915 330.175,109.300 330.276 M115.907 330.290 C 116.626 330.379,117.706 330.377,118.307 330.286 C 118.908 330.195,118.320 330.122,117.000 330.124 C 115.680 330.126,115.188 330.201,115.907 330.290 M281.907 330.290 C 282.626 330.379,283.706 330.377,284.307 330.286 C 284.908 330.195,284.320 330.122,283.000 330.124 C 281.680 330.126,281.188 330.201,281.907 330.290 M289.300 330.276 C 289.685 330.376,290.315 330.376,290.700 330.276 C 291.085 330.175,290.770 330.093,290.000 330.093 C 289.230 330.093,288.915 330.175,289.300 330.276 M276.000 336.400 C 276.000 337.573,276.128 338.406,276.284 338.250 C 276.570 337.964,276.468 334.743,276.164 334.433 C 276.074 334.342,276.000 335.227,276.000 336.400 M57.200 340.727 C 57.200 341.196,59.154 342.980,59.399 342.735 C 59.510 342.624,59.060 342.051,58.400 341.463 C 57.740 340.875,57.200 340.544,57.200 340.727 M128.700 341.082 C 129.195 341.178,130.005 341.178,130.500 341.082 C 130.995 340.987,130.590 340.909,129.600 340.909 C 128.610 340.909,128.205 340.987,128.700 341.082 M136.300 341.089 C 137.015 341.178,138.185 341.178,138.900 341.089 C 139.615 341.001,139.030 340.928,137.600 340.928 C 136.170 340.928,135.585 341.001,136.300 341.089 M261.100 341.089 C 261.815 341.178,262.985 341.178,263.700 341.089 C 264.415 341.001,263.830 340.928,262.400 340.928 C 260.970 340.928,260.385 341.001,261.100 341.089 M269.500 341.082 C 269.995 341.178,270.805 341.178,271.300 341.082 C 271.795 340.987,271.390 340.909,270.400 340.909 C 269.410 340.909,269.005 340.987,269.500 341.082 M255.326 342.700 C 255.189 343.085,255.004 343.535,254.915 343.700 C 254.826 343.865,254.922 344.000,255.130 344.000 C 255.337 344.000,255.593 343.550,255.698 343.000 C 255.918 341.849,255.693 341.668,255.326 342.700 M254.446 347.476 C 254.421 348.618,254.538 349.638,254.707 349.743 C 254.876 349.847,254.957 349.183,254.886 348.266 C 254.679 345.575,254.496 345.247,254.446 347.476 M148.291 351.889 C 149.001 351.977,150.261 351.979,151.091 351.892 C 151.921 351.805,151.340 351.733,149.800 351.731 C 148.260 351.729,147.581 351.800,148.291 351.889 M159.111 351.893 C 160.051 351.978,161.491 351.977,162.311 351.891 C 163.130 351.805,162.360 351.736,160.600 351.737 C 158.840 351.739,158.170 351.809,159.111 351.893 M173.712 351.895 C 174.764 351.977,176.384 351.976,177.312 351.892 C 178.240 351.808,177.380 351.741,175.400 351.742 C 173.420 351.743,172.660 351.812,173.712 351.895 M222.912 351.895 C 223.964 351.977,225.584 351.976,226.512 351.892 C 227.440 351.808,226.580 351.741,224.600 351.742 C 222.620 351.743,221.860 351.812,222.912 351.895 M237.911 351.893 C 238.851 351.978,240.291 351.977,241.111 351.891 C 241.930 351.805,241.160 351.736,239.400 351.737 C 237.640 351.739,236.970 351.809,237.911 351.893 M248.691 351.889 C 249.401 351.977,250.661 351.979,251.491 351.892 C 252.321 351.805,251.740 351.733,250.200 351.731 C 248.660 351.729,247.981 351.800,248.691 351.889 M212.900 352.676 C 213.285 352.776,213.915 352.776,214.300 352.676 C 214.685 352.575,214.370 352.493,213.600 352.493 C 212.830 352.493,212.515 352.575,212.900 352.676 M199.200 362.500 C 199.200 362.923,200.707 362.875,200.974 362.442 C 201.095 362.246,200.746 362.111,200.198 362.142 C 199.649 362.174,199.200 362.335,199.200 362.500 M81.301 367.400 C 81.305 368.280,81.387 368.593,81.483 368.095 C 81.579 367.598,81.575 366.878,81.475 366.495 C 81.375 366.113,81.296 366.520,81.301 367.400 M122.000 383.927 C 122.000 384.396,123.954 386.180,124.199 385.935 C 124.310 385.824,123.860 385.251,123.200 384.663 C 122.540 384.075,122.000 383.744,122.000 383.927 M276.853 385.048 C 276.451 385.504,276.424 385.784,276.753 386.113 C 276.999 386.359,277.213 386.479,277.230 386.380 C 277.246 386.281,277.335 385.795,277.427 385.300 C 277.624 384.247,277.580 384.227,276.853 385.048 M158.400 397.200 C 158.400 398.800,158.571 400.000,158.800 400.000 C 159.029 400.000,159.200 398.800,159.200 397.200 C 159.200 395.600,159.029 394.400,158.800 394.400 C 158.571 394.400,158.400 395.600,158.400 397.200 " stroke="none" fill="#605c5c" fill-rule="evenodd"></path><path id="path4" d="M158.400 2.800 C 158.400 4.400,158.571 5.600,158.800 5.600 C 159.029 5.600,159.200 4.400,159.200 2.800 C 159.200 1.200,159.029 0.000,158.800 0.000 C 158.571 0.000,158.400 1.200,158.400 2.800 M126.505 5.887 C 127.114 5.979,128.014 5.977,128.505 5.882 C 128.997 5.787,128.500 5.711,127.400 5.714 C 126.300 5.717,125.897 5.795,126.505 5.887 M136.300 5.889 C 137.015 5.978,138.185 5.978,138.900 5.889 C 139.615 5.801,139.030 5.728,137.600 5.728 C 136.170 5.728,135.585 5.801,136.300 5.889 M261.100 5.889 C 261.815 5.978,262.985 5.978,263.700 5.889 C 264.415 5.801,263.830 5.728,262.400 5.728 C 260.970 5.728,260.385 5.801,261.100 5.889 M271.705 5.887 C 272.314 5.979,273.214 5.977,273.705 5.882 C 274.197 5.787,273.700 5.711,272.600 5.714 C 271.500 5.717,271.097 5.795,271.705 5.887 M123.753 14.621 C 123.902 15.011,123.827 15.141,123.551 14.970 C 123.066 14.670,122.335 15.572,122.650 16.081 C 122.998 16.644,123.694 16.421,123.463 15.820 C 123.317 15.441,123.433 15.315,123.798 15.455 C 124.174 15.599,124.335 15.397,124.293 14.834 C 124.258 14.375,124.069 14.000,123.872 14.000 C 123.675 14.000,123.622 14.279,123.753 14.621 M276.400 14.676 C 276.400 14.896,276.760 15.402,277.200 15.800 C 277.640 16.198,278.000 16.344,278.000 16.124 C 278.000 15.904,277.640 15.398,277.200 15.000 C 276.760 14.602,276.400 14.456,276.400 14.676 M103.905 16.683 C 104.402 16.779,105.122 16.775,105.505 16.675 C 105.887 16.575,105.480 16.496,104.600 16.501 C 103.720 16.505,103.407 16.587,103.905 16.683 M110.905 16.687 C 111.514 16.779,112.414 16.777,112.905 16.682 C 113.397 16.587,112.900 16.511,111.800 16.514 C 110.700 16.517,110.297 16.595,110.905 16.687 M287.305 16.687 C 287.914 16.779,288.814 16.777,289.305 16.682 C 289.797 16.587,289.300 16.511,288.200 16.514 C 287.100 16.517,286.697 16.595,287.305 16.687 M294.705 16.683 C 295.202 16.779,295.922 16.775,296.305 16.675 C 296.687 16.575,296.280 16.496,295.400 16.501 C 294.520 16.505,294.207 16.587,294.705 16.683 M85.505 27.483 C 86.002 27.579,86.722 27.575,87.105 27.475 C 87.487 27.375,87.080 27.296,86.200 27.301 C 85.320 27.305,85.007 27.387,85.505 27.483 M313.105 27.483 C 313.602 27.579,314.322 27.575,314.705 27.475 C 315.087 27.375,314.680 27.296,313.800 27.301 C 312.920 27.305,312.607 27.387,313.105 27.483 M82.202 28.398 C 81.803 28.839,81.607 29.200,81.767 29.200 C 82.188 29.200,83.328 27.995,83.112 27.779 C 83.011 27.678,82.602 27.956,82.202 28.398 M81.301 32.600 C 81.305 33.480,81.387 33.793,81.483 33.295 C 81.579 32.798,81.575 32.078,81.475 31.695 C 81.375 31.313,81.296 31.720,81.301 32.600 M77.700 38.276 C 78.085 38.376,78.715 38.376,79.100 38.276 C 79.485 38.175,79.170 38.093,78.400 38.093 C 77.630 38.093,77.315 38.175,77.700 38.276 M320.900 38.276 C 321.285 38.376,321.915 38.376,322.300 38.276 C 322.685 38.175,322.370 38.093,321.600 38.093 C 320.830 38.093,320.515 38.175,320.900 38.276 M68.305 39.083 C 68.802 39.179,69.522 39.175,69.905 39.075 C 70.287 38.975,69.880 38.896,69.000 38.901 C 68.120 38.905,67.807 38.987,68.305 39.083 M60.493 47.600 C 60.493 48.370,60.575 48.685,60.676 48.300 C 60.776 47.915,60.776 47.285,60.676 46.900 C 60.575 46.515,60.493 46.830,60.493 47.600 M254.520 52.400 C 254.520 53.610,254.595 54.105,254.687 53.500 C 254.778 52.895,254.778 51.905,254.687 51.300 C 254.595 50.695,254.520 51.190,254.520 52.400 M138.813 52.691 C 138.289 53.282,138.303 53.323,138.946 53.076 C 139.342 52.924,139.741 52.800,139.833 52.800 C 139.925 52.800,140.000 52.620,140.000 52.400 C 140.000 51.812,139.481 51.939,138.813 52.691 M341.463 58.400 C 342.051 59.060,342.624 59.510,342.735 59.399 C 342.980 59.154,341.196 57.200,340.727 57.200 C 340.544 57.200,340.875 57.740,341.463 58.400 M58.225 58.232 C 57.332 59.125,57.898 59.817,58.830 58.973 C 59.243 58.599,59.485 58.137,59.367 57.947 C 59.074 57.473,58.954 57.503,58.225 58.232 M46.900 60.676 C 47.285 60.776,47.915 60.776,48.300 60.676 C 48.685 60.575,48.370 60.493,47.600 60.493 C 46.830 60.493,46.515 60.575,46.900 60.676 M276.120 63.600 C 276.120 64.810,276.195 65.305,276.287 64.700 C 276.378 64.095,276.378 63.105,276.287 62.500 C 276.195 61.895,276.120 62.390,276.120 63.600 M38.901 69.000 C 38.905 69.880,38.987 70.193,39.083 69.695 C 39.179 69.198,39.175 68.478,39.075 68.095 C 38.975 67.713,38.896 68.120,38.901 69.000 M38.093 78.400 C 38.093 79.170,38.175 79.485,38.276 79.100 C 38.376 78.715,38.376 78.085,38.276 77.700 C 38.175 77.315,38.093 77.630,38.093 78.400 M31.905 81.483 C 32.402 81.579,33.122 81.575,33.505 81.475 C 33.887 81.375,33.480 81.296,32.600 81.301 C 31.720 81.305,31.407 81.387,31.905 81.483 M366.705 81.483 C 367.202 81.579,367.922 81.575,368.305 81.475 C 368.687 81.375,368.280 81.296,367.400 81.301 C 366.520 81.305,366.207 81.387,366.705 81.483 M28.202 82.398 C 27.803 82.839,27.607 83.200,27.767 83.200 C 28.188 83.200,29.328 81.995,29.112 81.779 C 29.011 81.678,28.602 81.956,28.202 82.398 M27.301 86.200 C 27.305 87.080,27.387 87.393,27.483 86.895 C 27.579 86.398,27.575 85.678,27.475 85.295 C 27.375 84.913,27.296 85.320,27.301 86.200 M182.500 92.276 C 182.885 92.376,183.515 92.376,183.900 92.276 C 184.285 92.175,183.970 92.093,183.200 92.093 C 182.430 92.093,182.115 92.175,182.500 92.276 M191.300 92.297 C 192.785 92.374,195.215 92.374,196.700 92.297 C 198.185 92.220,196.970 92.157,194.000 92.157 C 191.030 92.157,189.815 92.220,191.300 92.297 M202.917 92.297 C 204.411 92.374,206.751 92.374,208.117 92.296 C 209.482 92.218,208.260 92.155,205.400 92.155 C 202.540 92.156,201.422 92.220,202.917 92.297 M215.905 92.283 C 216.402 92.379,217.122 92.375,217.505 92.275 C 217.887 92.175,217.480 92.096,216.600 92.101 C 215.720 92.105,215.407 92.187,215.905 92.283 M178.428 98.500 C 178.444 99.435,178.594 100.551,178.761 100.980 C 178.953 101.469,179.067 100.835,179.067 99.280 C 179.067 97.916,178.917 96.800,178.733 96.800 C 178.550 96.800,178.413 97.565,178.428 98.500 M329.628 103.676 C 329.682 105.448,330.340 106.375,330.372 104.724 C 330.387 103.912,330.220 103.136,330.000 103.000 C 329.775 102.861,329.612 103.157,329.628 103.676 M16.501 104.600 C 16.505 105.480,16.587 105.793,16.683 105.295 C 16.779 104.798,16.775 104.078,16.675 103.695 C 16.575 103.313,16.496 103.720,16.501 104.600 M178.914 107.000 C 178.917 108.100,178.995 108.503,179.087 107.895 C 179.179 107.286,179.177 106.386,179.082 105.895 C 178.987 105.403,178.911 105.900,178.914 107.000 M330.093 110.000 C 330.093 110.770,330.175 111.085,330.276 110.700 C 330.376 110.315,330.376 109.685,330.276 109.300 C 330.175 108.915,330.093 109.230,330.093 110.000 M16.514 111.800 C 16.517 112.900,16.595 113.303,16.687 112.695 C 16.779 112.086,16.777 111.186,16.682 110.695 C 16.587 110.203,16.511 110.700,16.514 111.800 M330.124 117.000 C 330.126 118.320,330.201 118.812,330.290 118.093 C 330.379 117.374,330.377 116.294,330.286 115.693 C 330.195 115.092,330.122 115.680,330.124 117.000 M384.663 123.200 C 385.251 123.860,385.824 124.310,385.935 124.199 C 386.180 123.954,384.396 122.000,383.927 122.000 C 383.744 122.000,384.075 122.540,384.663 123.200 M15.230 122.782 C 14.937 122.963,14.820 123.309,14.970 123.551 C 15.141 123.827,15.011 123.902,14.621 123.753 C 14.279 123.622,14.000 123.675,14.000 123.872 C 14.000 124.069,14.375 124.258,14.834 124.293 C 15.397 124.335,15.599 124.174,15.455 123.798 C 15.315 123.433,15.441 123.317,15.820 123.463 C 16.139 123.586,16.400 123.497,16.400 123.266 C 16.400 122.643,15.833 122.409,15.230 122.782 M5.714 127.400 C 5.717 128.500,5.795 128.903,5.887 128.295 C 5.979 127.686,5.977 126.786,5.882 126.295 C 5.787 125.803,5.711 126.300,5.714 127.400 M340.909 129.600 C 340.909 130.590,340.987 130.995,341.082 130.500 C 341.178 130.005,341.178 129.195,341.082 128.700 C 340.987 128.205,340.909 128.610,340.909 129.600 M5.728 137.600 C 5.728 139.030,5.801 139.615,5.889 138.900 C 5.978 138.185,5.978 137.015,5.889 136.300 C 5.801 135.585,5.728 136.170,5.728 137.600 M340.928 137.600 C 340.928 139.030,341.001 139.615,341.089 138.900 C 341.178 138.185,341.178 137.015,341.089 136.300 C 341.001 135.585,340.928 136.170,340.928 137.600 M52.500 139.023 C 51.911 139.663,51.862 140.000,52.357 140.000 C 52.698 140.000,53.337 138.796,53.109 138.583 C 53.049 138.527,52.775 138.725,52.500 139.023 M351.731 149.800 C 351.733 151.340,351.805 151.921,351.892 151.091 C 351.979 150.261,351.977 149.001,351.889 148.291 C 351.800 147.581,351.729 148.260,351.731 149.800 M351.737 160.600 C 351.739 162.360,351.809 163.030,351.893 162.089 C 351.978 161.149,351.977 159.709,351.891 158.889 C 351.805 158.070,351.736 158.840,351.737 160.600 M0.000 158.800 C 0.000 159.029,1.200 159.200,2.800 159.200 C 4.400 159.200,5.600 159.029,5.600 158.800 C 5.600 158.571,4.400 158.400,2.800 158.400 C 1.200 158.400,0.000 158.571,0.000 158.800 M394.400 158.800 C 394.400 159.029,395.600 159.200,397.200 159.200 C 398.800 159.200,400.000 159.029,400.000 158.800 C 400.000 158.571,398.800 158.400,397.200 158.400 C 395.600 158.400,394.400 158.571,394.400 158.800 M351.742 175.400 C 351.741 177.380,351.808 178.240,351.892 177.312 C 351.976 176.384,351.977 174.764,351.895 173.712 C 351.812 172.660,351.743 173.420,351.742 175.400 M101.600 178.805 C 101.600 178.956,114.695 179.091,130.700 179.105 C 146.705 179.119,159.530 179.067,159.200 178.989 C 158.037 178.714,101.600 178.534,101.600 178.805 M290.800 178.770 C 290.204 178.943,291.215 179.056,293.300 179.049 C 295.225 179.043,296.800 178.895,296.800 178.719 C 296.800 178.329,292.185 178.368,290.800 178.770 M95.905 179.083 C 96.402 179.179,97.122 179.175,97.505 179.075 C 97.887 178.975,97.480 178.896,96.600 178.901 C 95.720 178.905,95.407 178.987,95.905 179.083 M241.500 179.100 C 247.275 179.162,256.725 179.162,262.500 179.100 C 268.275 179.037,263.550 178.986,252.000 178.986 C 240.450 178.986,235.725 179.037,241.500 179.100 M301.905 179.083 C 302.402 179.179,303.122 179.175,303.505 179.075 C 303.887 178.975,303.480 178.896,302.600 178.901 C 301.720 178.905,301.407 178.987,301.905 179.083 M278.300 179.897 C 279.895 179.973,282.505 179.973,284.100 179.897 C 285.695 179.821,284.390 179.759,281.200 179.759 C 278.010 179.759,276.705 179.821,278.300 179.897 M92.153 190.200 C 92.153 192.840,92.218 193.868,92.297 192.484 C 92.375 191.101,92.374 188.941,92.295 187.684 C 92.216 186.428,92.152 187.560,92.153 190.200 M362.142 200.198 C 362.111 200.746,362.246 201.095,362.442 200.974 C 362.875 200.707,362.923 199.200,362.500 199.200 C 362.335 199.200,362.174 199.649,362.142 200.198 M92.124 213.800 C 92.126 215.120,92.201 215.612,92.290 214.893 C 92.379 214.174,92.377 213.094,92.286 212.493 C 92.195 211.892,92.122 212.480,92.124 213.800 M352.493 213.600 C 352.493 214.370,352.575 214.685,352.676 214.300 C 352.776 213.915,352.776 213.285,352.676 212.900 C 352.575 212.515,352.493 212.830,352.493 213.600 M351.742 224.600 C 351.741 226.580,351.808 227.440,351.892 226.512 C 351.976 225.584,351.977 223.964,351.895 222.912 C 351.812 221.860,351.743 222.620,351.742 224.600 M351.737 239.400 C 351.739 241.160,351.809 241.830,351.893 240.889 C 351.978 239.949,351.977 238.509,351.891 237.689 C 351.805 236.870,351.736 237.640,351.737 239.400 M351.731 250.200 C 351.733 251.740,351.805 252.321,351.892 251.491 C 351.979 250.661,351.977 249.401,351.889 248.691 C 351.800 247.981,351.729 248.660,351.731 250.200 M51.300 254.687 C 51.905 254.778,52.895 254.778,53.500 254.687 C 54.105 254.595,53.610 254.520,52.400 254.520 C 51.190 254.520,50.695 254.595,51.300 254.687 M346.000 254.625 C 347.403 254.935,349.918 254.990,349.743 254.707 C 349.638 254.538,348.618 254.421,347.476 254.446 C 346.334 254.472,345.670 254.552,346.000 254.625 M342.900 255.212 C 341.706 255.692,341.756 255.936,343.000 255.698 C 343.550 255.593,344.000 255.348,344.000 255.153 C 344.000 254.959,343.955 254.811,343.900 254.825 C 343.845 254.839,343.395 255.013,342.900 255.212 M5.728 262.400 C 5.728 263.830,5.801 264.415,5.889 263.700 C 5.978 262.985,5.978 261.815,5.889 261.100 C 5.801 260.385,5.728 260.970,5.728 262.400 M340.928 262.400 C 340.928 263.830,341.001 264.415,341.089 263.700 C 341.178 262.985,341.178 261.815,341.089 261.100 C 341.001 260.385,340.928 260.970,340.928 262.400 M340.909 270.400 C 340.909 271.390,340.987 271.795,341.082 271.300 C 341.178 270.805,341.178 269.995,341.082 269.500 C 340.987 269.005,340.909 269.410,340.909 270.400 M5.714 272.600 C 5.717 273.700,5.795 274.103,5.887 273.495 C 5.979 272.886,5.977 271.986,5.882 271.495 C 5.787 271.003,5.711 271.500,5.714 272.600 M62.500 276.287 C 63.105 276.378,64.095 276.378,64.700 276.287 C 65.305 276.195,64.810 276.120,63.600 276.120 C 62.390 276.120,61.895 276.195,62.500 276.287 M334.433 276.164 C 334.743 276.468,337.964 276.570,338.250 276.284 C 338.406 276.128,337.573 276.000,336.400 276.000 C 335.227 276.000,334.342 276.074,334.433 276.164 M15.000 277.200 C 15.398 277.640,15.904 278.000,16.124 278.000 C 16.344 278.000,16.198 277.640,15.800 277.200 C 15.402 276.760,14.896 276.400,14.676 276.400 C 14.456 276.400,14.602 276.760,15.000 277.200 M384.884 277.016 C 384.453 277.504,384.486 277.582,385.084 277.491 C 385.478 277.430,385.859 277.210,385.930 277.001 C 386.143 276.377,385.440 276.388,384.884 277.016 M330.124 283.000 C 330.126 284.320,330.201 284.812,330.290 284.093 C 330.379 283.374,330.377 282.294,330.286 281.693 C 330.195 281.092,330.122 281.680,330.124 283.000 M16.514 288.200 C 16.517 289.300,16.595 289.703,16.687 289.095 C 16.779 288.486,16.777 287.586,16.682 287.095 C 16.587 286.603,16.511 287.100,16.514 288.200 M330.093 290.000 C 330.093 290.770,330.175 291.085,330.276 290.700 C 330.376 290.315,330.376 289.685,330.276 289.300 C 330.175 288.915,330.093 289.230,330.093 290.000 M178.657 293.900 C 178.300 296.058,178.343 300.400,178.721 300.400 C 178.898 300.400,179.051 298.600,179.061 296.400 C 179.081 292.009,179.026 291.666,178.657 293.900 M16.501 295.400 C 16.505 296.280,16.587 296.593,16.683 296.095 C 16.779 295.598,16.775 294.878,16.675 294.495 C 16.575 294.113,16.496 294.520,16.501 295.400 M329.780 295.367 C 329.639 296.119,329.691 297.035,329.897 297.402 C 330.172 297.893,330.290 297.531,330.343 296.035 C 330.425 293.695,330.154 293.373,329.780 295.367 M27.301 313.800 C 27.305 314.680,27.387 314.993,27.483 314.495 C 27.579 313.998,27.575 313.278,27.475 312.895 C 27.375 312.513,27.296 312.920,27.301 313.800 M38.093 321.600 C 38.093 322.370,38.175 322.685,38.276 322.300 C 38.376 321.915,38.376 321.285,38.276 320.900 C 38.175 320.515,38.093 320.830,38.093 321.600 M103.000 330.000 C 103.136 330.220,103.912 330.387,104.724 330.372 C 105.913 330.349,106.045 330.277,105.400 330.000 C 104.277 329.517,102.702 329.517,103.000 330.000 M294.600 330.006 C 294.024 330.257,294.394 330.344,295.920 330.313 C 297.200 330.288,297.834 330.141,297.520 329.942 C 296.864 329.526,295.636 329.553,294.600 330.006 M109.300 330.276 C 109.685 330.376,110.315 330.376,110.700 330.276 C 111.085 330.175,110.770 330.093,110.000 330.093 C 109.230 330.093,108.915 330.175,109.300 330.276 M115.907 330.290 C 116.626 330.379,117.706 330.377,118.307 330.286 C 118.908 330.195,118.320 330.122,117.000 330.124 C 115.680 330.126,115.188 330.201,115.907 330.290 M281.907 330.290 C 282.626 330.379,283.706 330.377,284.307 330.286 C 284.908 330.195,284.320 330.122,283.000 330.124 C 281.680 330.126,281.188 330.201,281.907 330.290 M289.300 330.276 C 289.685 330.376,290.315 330.376,290.700 330.276 C 291.085 330.175,290.770 330.093,290.000 330.093 C 289.230 330.093,288.915 330.175,289.300 330.276 M276.000 336.400 C 276.000 337.573,276.128 338.406,276.284 338.250 C 276.570 337.964,276.468 334.743,276.164 334.433 C 276.074 334.342,276.000 335.227,276.000 336.400 M57.200 340.727 C 57.200 341.196,59.154 342.980,59.399 342.735 C 59.510 342.624,59.060 342.051,58.400 341.463 C 57.740 340.875,57.200 340.544,57.200 340.727 M128.700 341.082 C 129.195 341.178,130.005 341.178,130.500 341.082 C 130.995 340.987,130.590 340.909,129.600 340.909 C 128.610 340.909,128.205 340.987,128.700 341.082 M136.300 341.089 C 137.015 341.178,138.185 341.178,138.900 341.089 C 139.615 341.001,139.030 340.928,137.600 340.928 C 136.170 340.928,135.585 341.001,136.300 341.089 M261.100 341.089 C 261.815 341.178,262.985 341.178,263.700 341.089 C 264.415 341.001,263.830 340.928,262.400 340.928 C 260.970 340.928,260.385 341.001,261.100 341.089 M269.500 341.082 C 269.995 341.178,270.805 341.178,271.300 341.082 C 271.795 340.987,271.390 340.909,270.400 340.909 C 269.410 340.909,269.005 340.987,269.500 341.082 M255.326 342.700 C 255.189 343.085,255.004 343.535,254.915 343.700 C 254.826 343.865,254.922 344.000,255.130 344.000 C 255.337 344.000,255.593 343.550,255.698 343.000 C 255.918 341.849,255.693 341.668,255.326 342.700 M254.446 347.476 C 254.421 348.618,254.538 349.638,254.707 349.743 C 254.876 349.847,254.957 349.183,254.886 348.266 C 254.679 345.575,254.496 345.247,254.446 347.476 M148.291 351.889 C 149.001 351.977,150.261 351.979,151.091 351.892 C 151.921 351.805,151.340 351.733,149.800 351.731 C 148.260 351.729,147.581 351.800,148.291 351.889 M159.111 351.893 C 160.051 351.978,161.491 351.977,162.311 351.891 C 163.130 351.805,162.360 351.736,160.600 351.737 C 158.840 351.739,158.170 351.809,159.111 351.893 M173.712 351.895 C 174.764 351.977,176.384 351.976,177.312 351.892 C 178.240 351.808,177.380 351.741,175.400 351.742 C 173.420 351.743,172.660 351.812,173.712 351.895 M222.912 351.895 C 223.964 351.977,225.584 351.976,226.512 351.892 C 227.440 351.808,226.580 351.741,224.600 351.742 C 222.620 351.743,221.860 351.812,222.912 351.895 M237.911 351.893 C 238.851 351.978,240.291 351.977,241.111 351.891 C 241.930 351.805,241.160 351.736,239.400 351.737 C 237.640 351.739,236.970 351.809,237.911 351.893 M248.691 351.889 C 249.401 351.977,250.661 351.979,251.491 351.892 C 252.321 351.805,251.740 351.733,250.200 351.731 C 248.660 351.729,247.981 351.800,248.691 351.889 M212.900 352.676 C 213.285 352.776,213.915 352.776,214.300 352.676 C 214.685 352.575,214.370 352.493,213.600 352.493 C 212.830 352.493,212.515 352.575,212.900 352.676 M199.200 362.500 C 199.200 362.923,200.707 362.875,200.974 362.442 C 201.095 362.246,200.746 362.111,200.198 362.142 C 199.649 362.174,199.200 362.335,199.200 362.500 M81.301 367.400 C 81.305 368.280,81.387 368.593,81.483 368.095 C 81.579 367.598,81.575 366.878,81.475 366.495 C 81.375 366.113,81.296 366.520,81.301 367.400 M122.000 383.927 C 122.000 384.396,123.954 386.180,124.199 385.935 C 124.310 385.824,123.860 385.251,123.200 384.663 C 122.540 384.075,122.000 383.744,122.000 383.927 M276.853 385.048 C 276.451 385.504,276.424 385.784,276.753 386.113 C 276.999 386.359,277.213 386.479,277.230 386.380 C 277.246 386.281,277.335 385.795,277.427 385.300 C 277.624 384.247,277.580 384.227,276.853 385.048 M158.400 397.200 C 158.400 398.800,158.571 400.000,158.800 400.000 C 159.029 400.000,159.200 398.800,159.200 397.200 C 159.200 395.600,159.029 394.400,158.800 394.400 C 158.571 394.400,158.400 395.600,158.400 397.200 " stroke="none" fill="#605c5c" fill-rule="evenodd"></path></g></svg>