<svg width="48" height="48" viewBox="0 0 48 48" fill="none" xmlns="http://www.w3.org/2000/svg">
<path d="M21.4307 18.7501C21.3615 19.3746 21.4273 20.0066 21.6237 20.6033C21.8202 21.2001 22.1427 21.7476 22.5693 22.2088C22.996 22.6699 23.5168 23.0339 24.0966 23.2761C24.6763 23.5183 25.3013 23.6329 25.9292 23.6123L29.6449 23.4909C30.7923 23.4334 31.8712 22.9276 32.6492 22.0824C33.4273 21.2372 33.8422 20.1202 33.8047 18.972C33.7672 17.8238 33.2802 16.7362 32.4487 15.9436C31.6171 15.151 30.5075 14.7167 29.3588 14.7342L27.2345 14.7974" stroke="#5B5B5B" stroke-width="2" stroke-linecap="round" stroke-linejoin="round"/>
<path d="M25.1869 19.8673C25.2562 19.2429 25.1904 18.6108 24.994 18.0141C24.7975 17.4173 24.475 16.8698 24.0484 16.4087C23.6217 15.9475 23.1008 15.5835 22.5211 15.3413C21.9414 15.0992 21.3164 14.9845 20.6885 15.0051L16.9728 15.1265C15.8254 15.184 14.7465 15.6898 13.9685 16.535C13.1904 17.3803 12.7754 18.4973 12.813 19.6455C12.8505 20.7937 13.3375 21.8812 14.169 22.6738C15.0006 23.4664 16.1102 23.9008 17.2589 23.8832L19.3768 23.814" stroke="#5B5B5B" stroke-width="2" stroke-linecap="round" stroke-linejoin="round"/>
<circle cx="23.5" cy="19.5" r="16.75" stroke="#5B5B5B" stroke-width="2.5"/>
</svg>
