<svg width="44" height="42" viewBox="0 0 44 42" fill="none" xmlns="http://www.w3.org/2000/svg">
<path d="M41.6842 7H39.3684V4.66667C39.3684 4.04783 39.1244 3.45434 38.6901 3.01675C38.2558 2.57917 37.6668 2.33334 37.0526 2.33334C36.4384 2.33334 35.8494 2.57917 35.4151 3.01675C34.9808 3.45434 34.7368 4.04783 34.7368 4.66667V7H32.4211C31.8069 7 31.2178 7.24584 30.7835 7.68342C30.3492 8.12101 30.1053 8.7145 30.1053 9.33334C30.1053 9.95218 30.3492 10.5457 30.7835 10.9833C31.2178 11.4208 31.8069 11.6667 32.4211 11.6667H34.7368V14C34.7368 14.6188 34.9808 15.2123 35.4151 15.6499C35.8494 16.0875 36.4384 16.3333 37.0526 16.3333C37.6668 16.3333 38.2558 16.0875 38.6901 15.6499C39.1244 15.2123 39.3684 14.6188 39.3684 14V11.6667H41.6842C42.2984 11.6667 42.8874 11.4208 43.3217 10.9833C43.756 10.5457 44 9.95218 44 9.33334C44 8.7145 43.756 8.12101 43.3217 7.68342C42.8874 7.24584 42.2984 7 41.6842 7ZM16.2105 18.6667C18.0426 18.6667 19.8335 18.1193 21.3569 17.0937C22.8802 16.0682 24.0675 14.6105 24.7686 12.905C25.4697 11.1996 25.6531 9.32298 25.2957 7.51249C24.9383 5.702 24.056 4.03896 22.7606 2.73367C21.4651 1.42838 19.8146 0.53947 18.0177 0.179342C16.2208 -0.180787 14.3583 0.00404396 12.6657 0.710462C10.973 1.41688 9.52634 2.61316 8.50849 4.14801C7.49064 5.68287 6.94737 7.48738 6.94737 9.33334C6.94737 11.8087 7.92331 14.1827 9.66048 15.933C11.3977 17.6833 13.7538 18.6667 16.2105 18.6667ZM30.1053 42C30.7194 42 31.3085 41.7542 31.7428 41.3166C32.1771 40.879 32.4211 40.2855 32.4211 39.6667C32.4211 35.3348 30.7132 31.1804 27.6731 28.1173C24.633 25.0542 20.5098 23.3333 16.2105 23.3333C11.9112 23.3333 7.78802 25.0542 4.74795 28.1173C1.70789 31.1804 6.40645e-08 35.3348 0 39.6667C0 40.2855 0.243984 40.879 0.678279 41.3166C1.11257 41.7542 1.7016 42 2.31579 42" fill="#656565"/>
</svg>
