<svg width="37" height="37" viewBox="0 0 37 37" fill="none" xmlns="http://www.w3.org/2000/svg">
<path d="M16.4307 17.7501C16.3615 18.3746 16.4273 19.0066 16.6237 19.6033C16.8202 20.2001 17.1427 20.7476 17.5693 21.2088C17.996 21.6699 18.5168 22.0339 19.0966 22.2761C19.6763 22.5183 20.3013 22.6329 20.9292 22.6123L24.6449 22.4909C25.7923 22.4334 26.8712 21.9276 27.6492 21.0824C28.4273 20.2372 28.8422 19.1202 28.8047 17.972C28.7672 16.8238 28.2802 15.7362 27.4487 14.9436C26.6171 14.151 25.5075 13.7167 24.3588 13.7342L22.2345 13.7974" stroke="#5B5B5B" stroke-width="2" stroke-linecap="round" stroke-linejoin="round"/>
<path d="M20.1869 18.8673C20.2562 18.2429 20.1904 17.6108 19.994 17.0141C19.7975 16.4173 19.475 15.8698 19.0484 15.4087C18.6217 14.9475 18.1008 14.5835 17.5211 14.3413C16.9414 14.0992 16.3164 13.9845 15.6885 14.0051L11.9728 14.1265C10.8254 14.184 9.74651 14.6898 8.96845 15.535C8.19039 16.3803 7.77544 17.4973 7.81295 18.6455C7.85047 19.7937 8.33746 20.8812 9.16903 21.6738C10.0006 22.4664 11.1102 22.9008 12.2589 22.8832L14.3768 22.814" stroke="#5B5B5B" stroke-width="2" stroke-linecap="round" stroke-linejoin="round"/>
<circle cx="18.5" cy="18.5" r="16.75" stroke="#5B5B5B" stroke-width="2.5"/>
</svg>
