<svg id="Layer_1" data-name="Layer 1" xmlns="http://www.w3.org/2000/svg" viewBox="0 0 221.27 223.15"><defs><style>.cls-1{fill:#100d0b;}.cls-2{fill:#f27383;}.cls-3{fill:#3bb9eb;}.cls-4{fill:#6acce1;}.cls-5{fill:#6155a4;}.cls-6{fill:#72c59a;}.cls-7{fill:#7d73b4;}.cls-8{fill:#8ab2de;}.cls-9{fill:#71c05c;}.cls-10{fill:#ffcf8b;}.cls-11{fill:#a98b30;}.cls-12{fill:#dfab26;}.cls-13{fill:#d28b7a;}.cls-14{fill:#d29029;}.cls-15{fill:#936627;}.cls-16{fill:#ffe5aa;}.cls-17{fill:#34c6f4;}</style></defs><title>community name</title><path class="cls-1" d="M178,276.76H75.48c-6.82,0-7.53-.62-7.41-7.34.08-4.79-.45-9.58.65-14.37a39.16,39.16,0,0,1,5-11.78c2.28-3.73,7.56-5.73,8.21-9.5s-1.38-7.92-1.55-12.11C79.92,210.93,82.51,202,93.12,197c1.22-.56,1.44-1.71,1.71-2.84a30.75,30.75,0,0,1,11-17.26c2-1.63,2.21-2.87,1.48-5.38a38.68,38.68,0,0,1-.35-20.15,20.78,20.78,0,0,1,22-15.41c11,1.26,18.87,9.4,18.85,20,0,5.9.55,11.79-1.29,17.74-1,3.24,3.77,4.25,5.71,6.47,1.69,2,2.07-1.1,3.15-1.69,3.6-2,3.77-4.56,3-8.8-1.5-8.88-2.52-18.17,3.92-26.12A20.93,20.93,0,0,1,185.14,137c8.46,2.92,14.24,10.31,14.28,18.92,0,5.75.58,11.5-1.34,17.23-1.37,4.11,3.75,4.64,5.52,7.16,1.12,1.6,2.11-1.06,3.17-1.74,3.24-2.08,4.39-4.14,3.11-8.71a37,37,0,0,1,.06-18.72A20.44,20.44,0,0,1,231.62,136c11.22,1.23,18.93,9.32,19.49,20.8.25,5.27.53,10.65-1.56,15.7-.81,1.95,0,2.89,1.45,4.1a31.37,31.37,0,0,1,11.26,17.64c.42,1.86,1.56,2.63,3.08,3.47,6.88,3.8,10.88,9.64,11.24,17.54.25,5.59.91,11.33-1.32,16.71-1,2.35.4,3.21,1.85,4.39C288.91,246,290,259.15,289,272.93c-.28,3.73-3.41,3.85-6.4,3.85q-25.89-.06-51.78,0Zm49.54-22c-.82-5-4-8.54-7.58-11.84-1.61-1.5-2.79-1.83-5.05-.48-6.89,4.09-14.25,4.23-21.15.08-2.43-1.46-3.79-1-5.48.51-6.81,6.05-9.3,13.74-8.82,22.69.13,2.33,1.36,2.18,2.9,2.17l44.21-.25c2,.53,2.61-.36,2.57-2.3C229.11,261.75,229,258.16,227.58,254.77ZM150.34,195a24.51,24.51,0,0,0-5.91-9.69c-2.36-2.51-4.26-3.68-7.91-1.45a17.75,17.75,0,0,1-18.88,0c-3.7-2.21-5.81-1.12-8,1.42a57.28,57.28,0,0,0-4.55,6.46c-1.4,2.19-1.59,3.51,1.78,4.35,7.85,1.94,13,7.28,14.88,15,1.49,6.12,1.87,12.64-.08,18.66-1.24,3.84-.3,5.91,2.59,7.76,1.18.76,2.19,3.83,3.69,1.65,1.64-2.39,6.67-2.66,5.18-6.79-1.69-4.71-1.13-9.45-1.5-14.19-.74-9.45,5.79-20.36,16.39-22.39C148.94,195.63,150.53,195.78,150.34,195Zm66.58-13a24.49,24.49,0,0,0-8.74,9.34c-1.49,2.63-1.79,4,2,4.89,6.91,1.64,11.67,6.4,13.91,13a36.29,36.29,0,0,1,.5,20.11c-.87,3.63-1.24,6.28,2.59,8.05,1.36.64,2,4.18,4.05,1.64,1.79-2.18,6.25-2.86,4.77-7.17-2.16-6.31-1.92-12.74-.89-19.14,1.23-7.63,5.63-12.93,12.76-15.87,6-2.49,6.15-2.7,2.36-8.11a31.89,31.89,0,0,0-3.48-4.21c-2-2-3.78-2.75-6.86-.94-6.39,3.76-13.23,3.65-19.87.06Zm-38.26,57.92c1.36-.08,6.71-6.06,6.27-7.16-2.33-5.76-1.55-11.76-1.42-17.69a18.42,18.42,0,0,1,9.67-16.33c3.54-2,4.71-4.73,5.5-8.06.89-3.72-2.56-5-4.4-7.08-1.59-1.83-3.26-1.55-5.27-.38-6.84,4-13.86,4.08-20.71.1-2.22-1.29-3.75-1.25-5.73.42-6.07,5.11-5.68,10.34,1.23,14.68,4.84,3,8.39,7.35,9.32,12.95,1.11,6.68,1.41,13.51-.53,20.19C172,233.55,176.66,240,178.66,239.86Zm-29.36,28c6.13,0,12.26,0,18.39,0,1.92,0,3.12-.25,3.05-2.64A52.1,52.1,0,0,1,173,250.16c.95-3.6-2.26-5.32-4.51-7.34-1.64-1.48-2.84-1.68-5-.39a20,20,0,0,1-21.2,0c-2.22-1.3-3.29-1-5,.4-6.85,5.78-9.35,13.3-9.4,22,0,2.38.76,3.18,3.12,3.13C137,267.81,143.17,267.89,149.3,267.89Zm109.87-.06c6,0,11.91,0,17.87,0,1.6,0,3.34.4,3.42-2.26.25-8.66-1.8-16.34-8.57-22.28-1.89-1.67-3.39-2.11-5.94-.59a19.17,19.17,0,0,1-19.82.36c-2.3-1.22-4.34-2.32-6.37.1s-5.65,3.86-3.74,8.2c1.75,4,1.87,8.42,1.84,12.65,0,3.64,1.55,3.95,4.43,3.88C247.91,267.72,253.54,267.83,259.17,267.83Zm-161.43,0c5.8,0,11.61-.11,17.4.05,2.74.07,4.15-.27,4.14-3.65a38.07,38.07,0,0,1,2.06-13.66c1.52-4-2.28-5.37-4.17-7.62-1.64-1.94-3.32-1.55-5.52-.29-6.84,3.9-14,4-20.74-.14-2.39-1.44-3.8-.9-5.52.58-6.82,5.89-9,13.56-8.76,22.25.06,2.5,1.44,2.5,3.22,2.49C85.81,267.85,91.78,267.87,97.74,267.87ZM89.34,220c0,2-.1,3.5,0,5a12.29,12.29,0,0,0,11.4,11.68,11.93,11.93,0,0,0,12.45-10.47,48.11,48.11,0,0,0,0-11.87,11.9,11.9,0,0,0-22-4.37C89.06,213.18,89.21,216.88,89.34,220Zm154.1.24c0,1.66-.13,3.33,0,5,.63,6.75,6.13,11.85,12.5,11.7A12.56,12.56,0,0,0,268,224.8a80.79,80.79,0,0,0,0-8.94,12.3,12.3,0,0,0-24.56-.57A43.18,43.18,0,0,0,243.44,220.25Zm-128.59-59.2c0,1.16,0,2.32,0,3.48.23,7.07,5,12.32,11.37,12.67,6.81.37,11.69-3.73,12.92-10.94a30.88,30.88,0,0,0-.31-12.3A11.79,11.79,0,0,0,124.58,145C117.5,146.68,114.84,151.05,114.85,161.05Zm127.43.24c0-1.95.09-3.44,0-4.92a12.52,12.52,0,0,0-11.86-11.82c-5.91-.31-11.12,4.19-12.31,10.61a31.63,31.63,0,0,0,.12,12.3,11.76,11.76,0,0,0,10.93,9.74,12,12,0,0,0,12.32-8C242.55,166.41,242.17,163.62,242.28,161.29ZM165,221.1c0-2.16.08-3.65,0-5.13-.44-7.25-5.57-12.15-12.48-12-6.53.17-11.6,5.3-11.86,12.14a82.22,82.22,0,0,0,.06,9.42,12.1,12.1,0,0,0,16.53,10.39C164.29,233.07,165.53,227.16,165,221.1Zm25.31-60h.14c0-1.33,0-2.65,0-4-.12-7.07-5.41-12.52-12-12.4S166.82,150,166.7,156.9c0,3-.09,5.95,0,8.92a11.64,11.64,0,0,0,10.51,11.23c6,.57,12-3.45,13-9.08C190.65,165.74,190.3,163.37,190.3,161.06Zm26.14,59.32c0-1.48.06-3,0-4.46a12.28,12.28,0,0,0-12.13-11.87c-6.69,0-11.71,4.9-12,11.89a77.86,77.86,0,0,0,.1,9.9A11.8,11.8,0,0,0,208.17,236C214.27,233.9,216.47,229.76,216.44,220.38Z" transform="translate(-68.01 -53.63)"/><path class="cls-2" d="M162.93,113.52l-7.42-7.24c1.16-2.14,1.88-4.28-.09-6.37-1.79-1.88-3.82-1.48-5.88-.54l-5.32-8.79c3.28-2.38,2.13-5.47,1.46-8.55-1.65-7.57.43-13.55,5.79-17,6-3.86,12.07-3.46,18.36,1.22,6.83,5.08,10.62,5.09,17.39.06s13.09-5.28,19.55-.44c5.11,3.83,6.79,11.25,4,18.41-4.88,12.64-14,21.81-24.5,29.9-5.36,4.12-10.17,4.55-15.34-.09C168.58,112,165.8,111,162.93,113.52Z" transform="translate(-68.01 -53.63)"/><path class="cls-1" d="M162.93,113.52c2.87-2.48,5.65-1.53,8,.59,5.17,4.64,10,4.21,15.34.09,10.53-8.09,19.62-17.26,24.5-29.9,2.77-7.16,1.09-14.58-4-18.41-6.46-4.84-12.63-4.71-19.55.44s-10.56,5-17.39-.06c-6.29-4.68-12.32-5.08-18.36-1.22-5.36,3.43-7.44,9.41-5.79,17,.67,3.08,1.82,6.17-1.46,8.55-3.78.46-5.6-1.23-6.69-4.92-3.37-11.41-.27-21.15,9.31-27.92,8.41-5.94,19-5.47,28,1.59,2.73,2.12,4.66,2.09,7.37,0,9.66-7.4,20.21-7.58,29.26-.79C220.35,65.2,223.33,76,219.09,87c-6.62,17.16-19,29.17-34.56,38.29-7.58,4.45-13-.91-18.86-4.38C162.62,119.11,161.47,116.86,162.93,113.52Z" transform="translate(-68.01 -53.63)"/><path class="cls-1" d="M149.54,99.37c2.06-.94,4.09-1.34,5.88.54,2,2.09,1.25,4.23.09,6.37-2.32,1-4.66,1.61-6.51-.75C147.32,103.4,148.16,101.32,149.54,99.37Z" transform="translate(-68.01 -53.63)"/><path class="cls-3" d="M226.61,267.65l-44.21.25c-1.54,0-2.77.16-2.9-2.17-.48-9,2-16.64,8.82-22.69,1.69-1.5,3.05-2,5.48-.51,6.9,4.15,14.26,4,21.15-.08,2.26-1.35,3.44-1,5.05.48,3.56,3.3,6.76,6.8,7.58,11.84C226.4,259,226.54,263.33,226.61,267.65Z" transform="translate(-68.01 -53.63)"/><path class="cls-4" d="M150.34,195c.19.82-1.4.67-2.3.84-10.6,2-17.13,12.94-16.39,22.39.37,4.74-.19,9.48,1.5,14.19,1.49,4.13-3.54,4.4-5.18,6.79-1.5,2.18-2.51-.89-3.69-1.65-2.89-1.85-3.83-3.92-2.59-7.76,2-6,1.57-12.54.08-18.66-1.9-7.77-7-13.11-14.88-15-3.37-.84-3.18-2.16-1.78-4.35a57.28,57.28,0,0,1,4.55-6.46c2.17-2.54,4.28-3.63,8-1.42a17.75,17.75,0,0,0,18.88,0c3.65-2.23,5.55-1.06,7.91,1.45A24.51,24.51,0,0,1,150.34,195Z" transform="translate(-68.01 -53.63)"/><path class="cls-5" d="M216.92,181.94l3.11,1.68c6.64,3.59,13.48,3.7,19.87-.06,3.08-1.81,4.87-1.07,6.86.94a31.89,31.89,0,0,1,3.48,4.21c3.79,5.41,3.67,5.62-2.36,8.11-7.13,2.94-11.53,8.24-12.76,15.87-1,6.4-1.27,12.83.89,19.14,1.48,4.31-3,5-4.77,7.17-2.08,2.54-2.69-1-4.05-1.64-3.83-1.77-3.46-4.42-2.59-8.05a36.29,36.29,0,0,0-.5-20.11c-2.24-6.63-7-11.39-13.91-13-3.8-.89-3.5-2.26-2-4.89A24.49,24.49,0,0,1,216.92,181.94Z" transform="translate(-68.01 -53.63)"/><path class="cls-6" d="M178.66,239.86c-2,.14-6.67-6.31-6.07-8.36,1.94-6.68,1.64-13.51.53-20.19-.93-5.6-4.48-9.9-9.32-12.95-6.91-4.34-7.3-9.57-1.23-14.68,2-1.67,3.51-1.71,5.73-.42,6.85,4,13.87,3.88,20.71-.1,2-1.17,3.68-1.45,5.27.38,1.84,2.12,5.29,3.36,4.4,7.08-.79,3.33-2,6.08-5.5,8.06A18.42,18.42,0,0,0,183.51,215c-.13,5.93-.91,11.93,1.42,17.69C185.37,233.8,180,239.78,178.66,239.86Z" transform="translate(-68.01 -53.63)"/><path class="cls-7" d="M149.3,267.89c-6.13,0-12.26-.08-18.39,0-2.36.05-3.13-.75-3.12-3.13,0-8.68,2.55-16.2,9.4-22,1.73-1.45,2.8-1.7,5-.4a20,20,0,0,0,21.2,0c2.2-1.29,3.4-1.09,5,.39,2.25,2,5.46,3.74,4.51,7.34a52.1,52.1,0,0,0-2.22,15.11c.07,2.39-1.13,2.66-3.05,2.64C161.56,267.85,155.43,267.89,149.3,267.89Z" transform="translate(-68.01 -53.63)"/><path class="cls-8" d="M259.17,267.83c-5.63,0-11.26-.11-16.88.05-2.88.07-4.45-.24-4.43-3.88,0-4.23-.09-8.67-1.84-12.65-1.91-4.34,1.76-5.84,3.74-8.2s4.07-1.32,6.37-.1a19.17,19.17,0,0,0,19.82-.36c2.55-1.52,4.05-1.08,5.94.59,6.77,5.94,8.82,13.62,8.57,22.28-.08,2.66-1.82,2.26-3.42,2.26C271.08,267.84,265.13,267.83,259.17,267.83Z" transform="translate(-68.01 -53.63)"/><path class="cls-9" d="M97.74,267.87c-6,0-11.93,0-17.89,0-1.78,0-3.16,0-3.22-2.49-.22-8.69,1.94-16.36,8.76-22.25,1.72-1.48,3.13-2,5.52-.58,6.76,4.1,13.9,4,20.74.14,2.2-1.26,3.88-1.65,5.52.29,1.89,2.25,5.69,3.61,4.17,7.62a38.07,38.07,0,0,0-2.06,13.66c0,3.38-1.4,3.72-4.14,3.65C109.35,267.76,103.54,267.87,97.74,267.87Z" transform="translate(-68.01 -53.63)"/><path class="cls-10" d="M89.34,220c-.13-3.13-.28-6.83,1.83-10a11.9,11.9,0,0,1,22,4.37,48.11,48.11,0,0,1,0,11.87,11.93,11.93,0,0,1-12.45,10.47A12.29,12.29,0,0,1,89.36,225C89.24,223.51,89.34,222,89.34,220Z" transform="translate(-68.01 -53.63)"/><path class="cls-11" d="M243.44,220.25a43.18,43.18,0,0,1,0-5,12.3,12.3,0,0,1,24.56.57,80.79,80.79,0,0,1,0,8.94A12.56,12.56,0,0,1,256,236.92c-6.37.15-11.87-4.95-12.5-11.7C243.31,223.58,243.44,221.91,243.44,220.25Z" transform="translate(-68.01 -53.63)"/><path class="cls-12" d="M114.85,161.05c0-10,2.65-14.37,9.73-16A11.79,11.79,0,0,1,138.83,154a30.88,30.88,0,0,1,.31,12.3c-1.23,7.21-6.11,11.31-12.92,10.94-6.42-.35-11.14-5.6-11.37-12.67C114.81,163.37,114.85,162.21,114.85,161.05Z" transform="translate(-68.01 -53.63)"/><path class="cls-13" d="M242.28,161.29c-.11,2.33.27,5.12-.82,7.86a12,12,0,0,1-12.32,8,11.76,11.76,0,0,1-10.93-9.74,31.63,31.63,0,0,1-.12-12.3c1.19-6.42,6.4-10.92,12.31-10.61a12.52,12.52,0,0,1,11.86,11.82C242.37,157.85,242.28,159.34,242.28,161.29Z" transform="translate(-68.01 -53.63)"/><path class="cls-14" d="M165,221.1c.54,6.06-.7,12-7.76,14.84a12.1,12.1,0,0,1-16.53-10.39,82.22,82.22,0,0,1-.06-9.42c.26-6.84,5.33-12,11.86-12.14,6.91-.17,12,4.73,12.48,12C165.07,217.45,165,218.94,165,221.1Z" transform="translate(-68.01 -53.63)"/><path class="cls-15" d="M190.3,161.06c0,2.31.35,4.68-.07,6.91-1,5.63-7,9.65-13,9.08a11.64,11.64,0,0,1-10.51-11.23c-.1-3-.06-5.95,0-8.92.12-6.86,5.15-12.09,11.7-12.21s11.92,5.33,12,12.4c0,1.32,0,2.64,0,4Z" transform="translate(-68.01 -53.63)"/><path class="cls-16" d="M216.44,220.38c0,9.38-2.17,13.52-8.27,15.62a11.8,11.8,0,0,1-15.79-10.16,77.86,77.86,0,0,1-.1-9.9c.31-7,5.33-11.88,12-11.89a12.28,12.28,0,0,1,12.13,11.87C216.5,217.41,216.44,218.9,216.44,220.38Z" transform="translate(-68.01 -53.63)"/><path class="cls-17" d="M226.61,267.65c-.07-4.32-.21-8.65,1-12.88,1.46,3.39,1.53,7,1.6,10.58C229.22,267.29,228.62,268.18,226.61,267.65Z" transform="translate(-68.01 -53.63)"/><path class="cls-1" d="M140.29,87.62a13.41,13.41,0,0,0,4,8.81,69.9,69.9,0,0,1,6,6.4c3.57,4.54,6.77,9.35,11.73,12.51,2.72,1.73,5.24-2.59,2.52-4.32-4.3-2.74-7.17-7.16-10.24-11.13a46.11,46.11,0,0,0-5.11-5.71c-2-1.85-3.72-3.69-3.91-6.56a2.56,2.56,0,0,0-2.5-2.5,2.51,2.51,0,0,0-2.5,2.5Z" transform="translate(-68.01 -53.63)"/><path class="cls-1" d="M138.55,86.75c0,2.2,1.25,3.83,2.67,5.39s2.56,2.92,3.73,4.47c2.44,3.23,4.65,6.62,6.85,10a2.55,2.55,0,0,0,3.42.89,2.52,2.52,0,0,0,.9-3.42c-2.08-3.2-4.16-6.41-6.44-9.47-1.18-1.58-2.4-3.14-3.69-4.64-.57-.65-1.17-1.28-1.73-1.93a4.11,4.11,0,0,1-.57-.81.73.73,0,0,1-.14-.5,2.5,2.5,0,0,0-5,0Z" transform="translate(-68.01 -53.63)"/><path class="cls-1" d="M154.49,103l-9.08-14a2.5,2.5,0,0,0-4.32,2.52l9.08,14a2.5,2.5,0,1,0,4.32-2.52Z" transform="translate(-68.01 -53.63)"/><path class="cls-1" d="M139.81,89.4c3,6.56,7.3,12.37,11.6,18.13a36.55,36.55,0,0,0,7.06,7.68,37.63,37.63,0,0,0,9.18,4.72,2.53,2.53,0,0,0,3.08-1.75,2.57,2.57,0,0,0-1.75-3.07,31.13,31.13,0,0,1-7.81-4.09,34.7,34.7,0,0,1-6.25-7.1c-4-5.4-8-10.89-10.79-17a2.52,2.52,0,0,0-3.42-.9,2.57,2.57,0,0,0-.9,3.42Z" transform="translate(-68.01 -53.63)"/><path class="cls-1" d="M138.47,88.26l6,9.55c1.88,3,3.66,6.18,6.21,8.67,2.3,2.25,5.84-1.29,3.54-3.54s-3.89-5.18-5.61-8l-5.78-9.26a2.5,2.5,0,0,0-4.32,2.53Z" transform="translate(-68.01 -53.63)"/><path class="cls-1" d="M152.13,100.77l-.37-.23c-.19-.12-.2-.17,0,0-.22-.19-.43-.38-.63-.59a7.21,7.21,0,0,1-.58-.66c.15.19.11.14,0,0s-.17-.24-.25-.37c-.72-1.1-1.31-2.28-1.93-3.44l-4.29-8.08a2.52,2.52,0,0,0-3.42-.9,2.57,2.57,0,0,0-.89,3.43l4.55,8.57c1.35,2.54,2.76,5.1,5.31,6.63a2.5,2.5,0,0,0,2.52-4.32Z" transform="translate(-68.01 -53.63)"/><path class="cls-1" d="M167.45,116.11q-2.4-2.1-4.67-4.34a2.49,2.49,0,0,0-3.54,0,2.52,2.52,0,0,0-.73,1.76,2.59,2.59,0,0,0,.73,1.77c1.52,1.5,3.08,2.94,4.67,4.35a2.68,2.68,0,0,0,1.77.73,2.49,2.49,0,0,0,2.5-2.5,2.49,2.49,0,0,0-.73-1.77Z" transform="translate(-68.01 -53.63)"/><path class="cls-1" d="M166.76,115.36a27,27,0,0,0-5.49-4.26,2.5,2.5,0,0,0-3.67,2.82,2.65,2.65,0,0,0,1.15,1.5,24.13,24.13,0,0,1,2.55,1.71l-.51-.39a25,25,0,0,1,2.43,2.16,2.59,2.59,0,0,0,1.77.73,2.55,2.55,0,0,0,1.77-.73,2.51,2.51,0,0,0,.73-1.77,2.61,2.61,0,0,0-.73-1.77Z" transform="translate(-68.01 -53.63)"/><path class="cls-1" d="M158.12,115a50.61,50.61,0,0,0,7.36,5.4,2.5,2.5,0,0,0,2.52-4.32,46.61,46.61,0,0,1-4.54-3.1l.51.39c-.79-.61-1.56-1.25-2.31-1.91a2.66,2.66,0,0,0-1.77-.73,2.49,2.49,0,0,0-2.5,2.5,2.49,2.49,0,0,0,.73,1.77Z" transform="translate(-68.01 -53.63)"/><path class="cls-1" d="M138.19,87.49a66.55,66.55,0,0,0,6.25,11.18,2.5,2.5,0,0,0,4.31-2.53A66.72,66.72,0,0,1,142.51,85a2.51,2.51,0,0,0-3.42-.9,2.58,2.58,0,0,0-.9,3.42Z" transform="translate(-68.01 -53.63)"/><path class="cls-1" d="M147.54,103.33l1.23,1.55,3-3.92,0,0,.5.39a5.68,5.68,0,0,1-1-1l.39.51a5.83,5.83,0,0,1-.72-1.23l.25.59c-.06-.14-.12-.29-.17-.44a1.78,1.78,0,0,0-.44-.85,1.85,1.85,0,0,0-.71-.65,1.78,1.78,0,0,0-.92-.29,1.89,1.89,0,0,0-1,0,2.5,2.5,0,0,0-1.75,3.08,10.7,10.7,0,0,0,.57,1.35,5.3,5.3,0,0,0,.46.76,9.17,9.17,0,0,0,.92,1.14,8.7,8.7,0,0,0,1.14,1,1.71,1.71,0,0,0,.93.3,2,2,0,0,0,1,0l.6-.26a1.8,1.8,0,0,0,.7-.64,1.23,1.23,0,0,0,.32-.55,1.88,1.88,0,0,0,.22-1l-.09-.67a2.5,2.5,0,0,0-.64-1.1l-1.23-1.56a1.93,1.93,0,0,0-.81-.51,1.84,1.84,0,0,0-1-.22,1.88,1.88,0,0,0-1,.22,1.93,1.93,0,0,0-.81.51,2.55,2.55,0,0,0-.73,1.77l.09.67a2.5,2.5,0,0,0,.64,1.1Z" transform="translate(-68.01 -53.63)"/><path class="cls-1" d="M146.44,101.8a39.6,39.6,0,0,0,12.32,13.42,2.51,2.51,0,0,0,3.42-.9,2.56,2.56,0,0,0-.9-3.42c-.56-.39-1.12-.79-1.67-1.21.46.35-.09-.07-.14-.11l-.32-.26-.79-.67a36.54,36.54,0,0,1-3-3c-.46-.51-.91-1-1.34-1.56l-.32-.4c-.3-.37.12.17-.06-.07l-.61-.83a36.38,36.38,0,0,1-2.25-3.57,2.5,2.5,0,0,0-4.32,2.53Z" transform="translate(-68.01 -53.63)"/><path class="cls-1" d="M141.39,86.51c0,1.86,1,3.55,1.8,5.17.68,1.4,1.39,2.79,2.15,4.16a33.79,33.79,0,0,0,5.76,7.72,2.5,2.5,0,1,0,3.54-3.53c-.5-.48-1-1-1.43-1.49l-.74-.89c-.26-.34.18.23-.08-.11l-.31-.41a39.63,39.63,0,0,1-2.29-3.59c-.69-1.21-1.32-2.44-1.94-3.69-.32-.66-.65-1.32-1-2-.08-.16-.15-.32-.23-.47s-.2-.44-.15-.31a2.69,2.69,0,0,0-.11-.33c-.1-.38,0,.46,0-.25a2.53,2.53,0,0,0-2.5-2.5,2.55,2.55,0,0,0-2.5,2.5Z" transform="translate(-68.01 -53.63)"/><path class="cls-1" d="M141,85.26a46.44,46.44,0,0,0,4.23,10.3,48.47,48.47,0,0,0,6.42,8.27c2.37,2.51,4.91,4.85,7.42,7.21s5.21,5.4,8.46,7c2.87,1.45,5.4-2.86,2.53-4.31s-5.26-4.2-7.63-6.43-4.72-4.4-6.95-6.74a43.68,43.68,0,0,1-5.72-7.21,40.86,40.86,0,0,1-3.94-9.46c-.94-3.07-5.77-1.76-4.82,1.33Z" transform="translate(-68.01 -53.63)"/><path class="cls-1" d="M168.35,112.44l-.34-.14.59.25a13.79,13.79,0,0,1-3-1.76l.51.39-.2-.15a1.77,1.77,0,0,0-.8-.52,1.8,1.8,0,0,0-1-.21,2.52,2.52,0,0,0-1.76.73,2.5,2.5,0,0,0-.74,1.77l.09.66a2.52,2.52,0,0,0,.65,1.1,16.85,16.85,0,0,0,2.2,1.56,18.17,18.17,0,0,0,2.45,1.14,1.9,1.9,0,0,0,1,0,2,2,0,0,0,.93-.3,1.88,1.88,0,0,0,.7-.64,2,2,0,0,0,.45-.85,2.55,2.55,0,0,0-.25-1.93l-.39-.51a2.53,2.53,0,0,0-1.11-.64Z" transform="translate(-68.01 -53.63)"/><path class="cls-1" d="M141.28,86.08c3.25,8.64,8.88,16,15.62,22.28a118.59,118.59,0,0,0,11.12,9c3.82,2.77,7.83,5.81,12.82,4.89a2.5,2.5,0,1,0-1.33-4.82c-1.69.31-3.39-.63-4.77-1.48-1.77-1.09-3.45-2.35-5.12-3.58a105.06,105.06,0,0,1-9.85-8.14C154,98.73,148.93,92.27,146.1,84.75A2.56,2.56,0,0,0,143,83a2.52,2.52,0,0,0-1.75,3.08Z" transform="translate(-68.01 -53.63)"/></svg>