<svg id="Layer_1" data-name="Layer 1" xmlns="http://www.w3.org/2000/svg" viewBox="0 0 161.92 150.24"><defs><style>.cls-1{fill:#1e1e1e;}.cls-2{fill:#c3e7ea;}.cls-3{fill:#89a3d4;}.cls-4{fill:#c8e5ca;}</style></defs><title>community input</title><path class="cls-1" d="M174.19,164.89a8.16,8.16,0,0,0,.53-.9c0-.09,0-.18.07-.27-.19-3.21-.58-6.4-.95-9.6-.41-.65-.24-1.62-.42-2.36-2.26-9.47-7.51-16.85-16-21.61-3.16-1.77-3.41-2.59-.95-5.4A20.89,20.89,0,0,0,154.42,95,21.68,21.68,0,0,0,124,96.79c-1,1.08-1.47,2.9-3.52,3.24a26,26,0,0,0-4.78-16.5C109.17,74.45,100.16,70.26,89,72.26,76.52,74.5,69.46,82.56,66.76,94.62c-.29,1.28-.05,2.89-1.41,3.46-1.62.67-2.14-1.15-3-2-8.77-8.34-21.3-8.67-30.05-.74s-9.4,20.66-1.46,29.76c2.2,2.52,1.93,3.25-.81,4.82-11,6.36-16.77,16-17.11,28.75-.2,7.35.3,7.83,7.75,7.83q71.09,0,142.18,0c3.78,0,7.51,0,11-1.33Zm-33.82-68.2a14.33,14.33,0,0,1,13.91,14.46,13.75,13.75,0,0,1-14.15,14,14.13,14.13,0,0,1-14.31-13.95C125.77,103.33,132.61,96.52,140.37,96.69ZM118.21,110.3c.81,6.31,2.43,11.75,6.82,16,.66.64,1.68,1.34.39,2.32a1.83,1.83,0,0,1-2.63-.34c-3.58-3.44-8-5.71-13.13-8.09C113.58,117.2,115.55,113.75,118.21,110.3ZM93.33,79.11A19.52,19.52,0,1,1,73.88,98.65,19.32,19.32,0,0,1,93.33,79.11ZM62.38,125.82c3.67-3.62,5.25-8.2,6.18-13.26,2.25.08,3.22,1.7,4.4,3.12s2.43,2.64,4.07,4.4c-4.71,2.5-9.2,4.56-12.78,8-1,1-2.06,1.12-2.91,0S61.81,126.38,62.38,125.82Zm-15-29.12a14.69,14.69,0,0,1,13.87,14.66c-.19,8-6.7,14-15,13.76-7.87-.23-13.68-6.55-13.46-14.64A14.31,14.31,0,0,1,47.36,96.7Zm9,42.56a27.93,27.93,0,0,0-3.86,15.63c.06,3.14-.77,4.47-4.18,4.23-4.12-.29-8.28-.07-12.42-.07-4.31,0-8.62,0-12.93,0-1.92,0-3.05-.26-2.84-2.72,1.34-15.65,18.31-27.29,33.63-23.09C57.41,134.27,58.6,135.59,56.31,139.26Zm67.5,19.84c-10.09-.14-20.19,0-30.29,0-9.93,0-19.87-.12-29.8.06-3.13.06-4.23-.65-4.17-4a30.08,30.08,0,0,1,27.29-29.56c14.35-1.59,27.52.74,36.1,14.17a30.06,30.06,0,0,1,4.56,15.9C127.57,158.52,126.51,159.14,123.81,159.1Zm40.29,0c-4.47,0-8.94,0-13.41,0-4.14,0-8.28-.08-12.42,0-2.35.07-3.71-.38-3.63-3.2a33.56,33.56,0,0,0-4.5-18c-.92-1.6-1.36-2.68.92-3.79,14.33-7,36.18,6.82,36,22.75C167,159.25,165.58,159,164.1,159.05Z" transform="translate(-12.87 -16.32)"/><path class="cls-1" d="M55.89,16.37c7.62,0,15.23.11,22.84,0,4.21-.08,6,1.56,5.94,5.83-.15,10.21,0,20.42,0,30.62,0,5.9-.63,6.75-6.46,6.6-3.54-.09-4.7,1.07-4.37,4.48.19,2,.55,4.53-1.85,5.68s-4.58-.34-6.17-2c-6.65-6.92-14.67-8.61-24.14-8.27-16.21.59-14.44,2-14.51-14.38,0-7.57.08-15.15,0-22.72-.06-4.18,1.7-5.95,6-5.86C40.66,16.49,48.28,16.37,55.89,16.37ZM66.1,59.47c1-6.88,1.5-7.54,7.17-7.43,3.23.07,4.34-.8,4.22-4.12-.25-6.75-.23-13.52,0-20.27.1-3.1-1-3.91-4-3.88q-17.65.23-35.3,0c-3,0-4.09.71-4,3.83.23,6.59.29,13.2,0,19.78-.18,3.7.92,4.63,4.66,4.7C48.21,52.28,58.44,49,66.1,59.47Z" transform="translate(-12.87 -16.32)"/><path class="cls-1" d="M170.52,54.31c0,4.12-.12,8.25,0,12.36.14,3.86-1.65,5.44-5.4,5.22-1.32-.08-2.67.14-4,0-10.09-1.41-18.87,1-26,8.51-1.34,1.41-3,2.91-5.23,1.9s-2.74-3.28-2.43-5.46c.61-4.29-1.28-5.47-5.26-5-3.78.48-5.39-1.41-5.34-5.21q.18-12.62,0-25.22c-.07-4.09,1.75-5.48,5.73-5.44q21.13.21,42.27,0c4,0,5.82,1.43,5.68,5.49C170.4,45.73,170.52,50,170.52,54.31Zm-35.29,17c5.77-7.39,13.12-7,20.49-6.67,1.49.08,3-.09,4.47,0,2.26.19,3.32-.49,3.25-3-.15-5.1-.15-10.22,0-15.33.08-2.49-1-3-3.24-3-10.94.08-21.89.11-32.83,0-2.73,0-3.37,1-3.29,3.51.14,4.78.2,9.57,0,14.35-.13,2.91,1,3.81,3.73,3.49C132.18,64.11,135.56,65,135.23,71.27Z" transform="translate(-12.87 -16.32)"/><path class="cls-2" d="M93.52,159.05c-9.93,0-19.87-.12-29.8.06-3.13.06-4.23-.65-4.17-4a30.08,30.08,0,0,1,27.29-29.56c14.35-1.59,27.52.74,36.1,14.17a30.06,30.06,0,0,1,4.56,15.9c.07,2.92-1,3.54-3.69,3.5C113.72,159,103.62,159.05,93.52,159.05Z" transform="translate(-12.87 -16.32)"/><path class="cls-2" d="M93.46,118.14a19.52,19.52,0,1,1,19.71-19.37A19.49,19.49,0,0,1,93.46,118.14Z" transform="translate(-12.87 -16.32)"/><path class="cls-3" d="M35.85,159.05c-4.31,0-8.62,0-12.93,0-1.92,0-3.05-.26-2.84-2.72,1.34-15.65,18.31-27.29,33.63-23.09,3.7,1,4.89,2.33,2.6,6a27.93,27.93,0,0,0-3.86,15.63c.06,3.14-.77,4.47-4.18,4.23C44.15,158.83,40,159.05,35.85,159.05Z" transform="translate(-12.87 -16.32)"/><path class="cls-4" d="M150.69,159.05c-4.14,0-8.28-.08-12.42,0-2.35.07-3.71-.38-3.63-3.2a33.56,33.56,0,0,0-4.5-18c-.92-1.6-1.36-2.68.92-3.79,14.33-7,36.18,6.82,36,22.75,0,2.38-1.45,2.17-2.93,2.18C159.63,159.07,155.16,159.05,150.69,159.05Z" transform="translate(-12.87 -16.32)"/><path class="cls-3" d="M32.78,110.48A14.31,14.31,0,0,1,47.36,96.7a14.69,14.69,0,0,1,13.87,14.66c-.19,8-6.7,14-15,13.76C38.37,124.89,32.56,118.57,32.78,110.48Z" transform="translate(-12.87 -16.32)"/><path class="cls-4" d="M154.28,111.15a13.75,13.75,0,0,1-14.15,14,14.13,14.13,0,0,1-14.31-13.95c0-7.85,6.79-14.66,14.55-14.49A14.33,14.33,0,0,1,154.28,111.15Z" transform="translate(-12.87 -16.32)"/><path class="cls-1" d="M55.32,41.44c-3.29,0-6.6.09-9.89,0-2.21-.08-3.83-1.08-3.76-3.61a3.29,3.29,0,0,1,3.56-3.34q10.64-.2,21.27,0A3.23,3.23,0,0,1,70,37.84c0,2.53-1.57,3.53-3.78,3.6-3.63.11-7.26,0-10.89,0Z" transform="translate(-12.87 -16.32)"/><path class="cls-1" d="M143.57,57.65c-2.8,0-5.62.15-8.41,0-2.12-.15-3.86-1.19-3.83-3.66s1.71-3.39,4-3.4c5.6,0,11.21,0,16.82,0,2.22,0,4,.84,4.1,3.29.1,2.72-1.94,3.67-4.23,3.81-2.79.18-5.6,0-8.41,0Z" transform="translate(-12.87 -16.32)"/></svg>