<svg width="155" height="155" viewBox="0 0 155 155" fill="none" xmlns="http://www.w3.org/2000/svg">
<path d="M8.00249 116.499C8.00249 104.301 49.0524 89.473 78.1963 82.7531C90.8327 79.9044 154.087 64.2733 154.087 41.7762C154.087 19.2792 120.415 0.65332 77.3928 0.65332C34.3708 0.65332 0.698242 18.6948 0.698242 41.7762H8.00249C8.00249 23.5156 39.776 7.95757 77.3928 7.95757C115.01 7.95757 146.783 23.5156 146.783 41.7762C146.783 53.9013 105.733 68.802 76.5894 75.4488C63.953 78.3705 0.698242 94.0016 0.698242 116.499C0.698242 133.225 19.0319 148.053 47.3724 154.408L48.9793 147.103C24.437 141.625 8.00249 129.354 8.00249 116.499Z" fill="url(#paint0_linear)"/>
<defs>
<linearGradient id="paint0_linear" x1="77.3928" y1="0.65332" x2="77.3928" y2="154.408" gradientUnits="userSpaceOnUse">
<stop stop-color="#00C6A7"/>
<stop offset="1" stop-color="#2A94F4"/>
</linearGradient>
</defs>
</svg>
