<svg width="158" height="162" viewBox="0 0 158 162" fill="none" xmlns="http://www.w3.org/2000/svg">
<path d="M131.225 72.0157L120.853 82.6069L115.74 87.866L79.5844 124.825L76.2244 128.258L75.567 131.326L69.7236 161.347L98.9406 155.357L101.935 154.773L105.295 151.267L141.817 114.307L147.003 109.048L157.302 98.4571L131.225 72.0157ZM79.0731 151.851L81.7756 137.754L92.805 149.003L79.0731 151.851ZM100.182 146.008L84.6973 130.158L120.853 93.1981L136.338 109.048L100.182 146.008ZM141.524 103.716L126.039 87.866L131.225 82.6069L146.783 98.4571L141.524 103.716Z" fill="url(#paint0_linear)"/>
<path d="M8.00249 116.499C8.00249 104.301 49.0524 89.473 78.1963 82.7531C90.8327 79.9044 154.087 64.2733 154.087 41.7762C154.087 19.2792 120.415 0.65332 77.3928 0.65332C34.3708 0.65332 0.698242 18.6948 0.698242 41.7762H8.00249C8.00249 23.5156 39.776 7.95757 77.3928 7.95757C115.01 7.95757 146.783 23.5156 146.783 41.7762C146.783 53.9013 105.733 68.802 76.5894 75.4488C63.953 78.3705 0.698242 94.0016 0.698242 116.499C0.698242 133.225 19.0319 148.053 47.3724 154.408L48.9793 147.103C24.437 141.625 8.00249 129.354 8.00249 116.499Z" fill="url(#paint1_linear)"/>
<defs>
<linearGradient id="paint0_linear" x1="113.513" y1="72.0157" x2="113.513" y2="161.347" gradientUnits="userSpaceOnUse">
<stop stop-color="#00C6A7"/>
<stop offset="1" stop-color="#2A94F4"/>
</linearGradient>
<linearGradient id="paint1_linear" x1="77.3928" y1="0.65332" x2="77.3928" y2="154.408" gradientUnits="userSpaceOnUse">
<stop stop-color="#00C6A7"/>
<stop offset="1" stop-color="#2A94F4"/>
</linearGradient>
</defs>
</svg>
