<svg width="250" height="250" viewBox="0 0 250 250" fill="none" xmlns="http://www.w3.org/2000/svg">
<g clip-path="url(#clip0)">
<rect width="250" height="250" fill="white"/>
<path d="M162.7 118.515L155.213 126.16L151.522 129.956L125.422 156.636L122.996 159.115L122.522 161.329L118.304 183L139.395 178.676L141.556 178.255L143.982 175.724L170.346 149.044L174.089 145.247L181.524 137.602L162.7 118.515ZM125.053 176.145L127.004 165.969L134.966 174.089L125.053 176.145ZM140.291 171.927L129.113 160.485L155.213 133.805L166.391 145.247L140.291 171.927ZM170.135 141.398L158.956 129.956L162.7 126.16L173.931 137.602L170.135 141.398Z" fill="url(#paint0_linear)"/>
<path d="M73.7488 150.626C73.7488 141.82 103.382 131.116 124.42 126.265C133.542 124.209 179.203 112.925 179.203 96.6855C179.203 80.4455 154.896 67 123.84 67C92.7834 67 68.4761 80.0236 68.4761 96.6855H73.7488C73.7488 83.5036 96.6852 72.2727 123.84 72.2727C150.994 72.2727 173.931 83.5036 173.931 96.6855C173.931 105.438 144.298 116.195 123.26 120.993C114.138 123.102 68.4761 134.385 68.4761 150.626C68.4761 162.7 81.7106 173.404 102.169 177.991L103.329 172.718C85.6124 168.764 73.7488 159.906 73.7488 150.626Z" fill="url(#paint1_linear)"/>
</g>
<defs>
<linearGradient id="paint0_linear" x1="149.914" y1="118.515" x2="149.914" y2="183" gradientUnits="userSpaceOnUse">
<stop stop-color="#00C6A7"/>
<stop offset="1" stop-color="#2A94F4"/>
</linearGradient>
<linearGradient id="paint1_linear" x1="123.84" y1="67" x2="123.84" y2="177.991" gradientUnits="userSpaceOnUse">
<stop stop-color="#00C6A7"/>
<stop offset="1" stop-color="#2A94F4"/>
</linearGradient>
<clipPath id="clip0">
<rect width="250" height="250" fill="white"/>
</clipPath>
</defs>
</svg>
