<?xml version="1.0" ?><svg data-name="Layer 1" id="Layer_1" viewBox="0 0 500 500" xmlns="http://www.w3.org/2000/svg"><defs><style>.cls-1{fill:#282828;}</style></defs><title/><path class="cls-1" d="M484.85,124.75a144.17,144.17,0,0,0-2.32-25.29c-1.94-10.19-4.67-20.12-9.55-29.33A101.85,101.85,0,0,0,453.39,44a97.14,97.14,0,0,0-42.76-24.4c-14.83-4-30-4.84-45.21-4.82a.46.46,0,0,1-.09-.23H134.59c0,.08,0,.16,0,.23-8.65.16-17.32.09-25.92,1.16A123.46,123.46,0,0,0,81,22.15,97.48,97.48,0,0,0,44.25,46.27,97.15,97.15,0,0,0,19.68,89.18c-3.94,14.72-4.8,29.73-4.82,44.85L14.7,365.7v0c.28,10.45.37,21,2.13,31.36,1.87,11,4.54,21.71,9.64,31.69A101.36,101.36,0,0,0,54.77,463a91.92,91.92,0,0,0,28.31,15.35c15.12,4.88,30.72,6.75,46.55,6.84,9.88.06,19.74.31,29.62.27,35.45-.15,70.89,0,106.34,0V328.22H212.71V265H265.6V219.7s-3.82-75.25,70.34-81.25h56.16v57.25h-40.9S333.76,199,331,215.34v48.53h58.35l-6.54,60.53H329.94v161q22.27-.11,44.55-.38a169.3,169.3,0,0,0,28.23-3A95.61,95.61,0,0,0,450,459c15.78-14.08,26.43-31.3,31.24-52.09,3.15-13.59,3.93-27.38,4.07-41.21v-2.76C485.3,361.87,484.89,127.84,484.85,124.75Z"/></svg>