<svg xmlns="http://www.w3.org/2000/svg" viewBox="0 0 1056.02 611.2"><defs><style>.cls-1{fill:#fefcfa;}.cls-2{fill:#fefcfb;}.cls-3{fill:#fef5e2;}.cls-4{fill:#f0f8ea;}.cls-5{fill:#e8f2f8;}</style></defs><g id="Layer_2" data-name="Layer 2"><g id="Layer_1-2" data-name="Layer 1"><path class="cls-1" d="M567.82,64.26V436.15a16.78,16.78,0,0,0-4,.22c-8.15,2.48-16.62,3.22-25,4.7-8.93,1.58-18,2.8-26.82,4.62-7,1.43-14.14,2.95-21.08,4-9.88,1.54-19.45,5.79-29.76,4.54a4,4,0,0,0-1.41.43c-8.78,2.77-17.89,3.9-26.92,5.46-7.64,1.31-15.52,1.92-22.83,4.29-7.72,2.51-15.84,1.35-23.6,4.29-4.76,1.81-10.7,1.29-16,3-4,1.29-6.8.22-8.75-4a44.49,44.49,0,0,0-8.11-12.31C341.64,443,327,439,310.16,441.92c-2.25.4-5.1.51-5.77-1.64-1.83-5.95-5-11.18-7.75-16.65a145.78,145.78,0,0,1-7.17-15.76c-2.28-6.35-6.93-11.72-7.57-18.71,6.65,0,13.05-2.25,19.12-4.12,5.56-1.71,11.44-2.91,16.94-4.3,6.9-1.74,13.89-4.18,21.19-4.72,2.5-.18,4.47-1.8,3.09-4.85-4.28-9.48-8.56-18.95-13-28.37-1.66-3.54-1.35-6.25,2.18-8.41,6.59-4,13.25-8,19.61-12.37,7.6-5.23,15.48-10,23.09-15.21,11.55-7.91,23.73-14.91,35.48-22.54,14.28-9.29,28.61-18.5,43.2-27.3,5.92-3.57,6.15-5.11,2-10.82-1.07-1.47-2.49-2.7-3.47-4.23C440.88,225.54,429.16,210,418.16,194c-6.36-9.24-12.87-18.38-19.4-27.49-4.89-6.83-9.93-13.56-14.9-20.33-.28-2.31.63-4.05,2.18-5.8,7.87-8.86,15.5-17.91,23-27q18.09-21.9,36.51-43.54c9.94-11.68,19.85-23.43,29.76-35.14,4.12-4.86,5.72-6.47,14.06-3.1,9.24,3.72,18.36,7.71,27.54,11.57,8.29,3.5,16.43,7.44,24.93,10.33C550.8,56.52,559.07,61,567.82,64.26Z"/><path class="cls-2" d="M40.68,611.2h9.89c-7.23-5.61-14.12-11.7-20.82-17.94-9.47-8.82-19.12-17.47-28.09-26.84A11.29,11.29,0,0,1,0,564.29V575.4c10.58,9.94,21.12,19.92,32.37,29.14Q36.49,607.92,40.68,611.2Z"/><path class="cls-2" d="M224,547.68c-18.77-18.91-37.61-37.75-56.33-56.71-16-16.17-31.75-32.52-47.72-48.7-8-8.12-16.24-16-24.37-24a35.72,35.72,0,0,1-2.77-2.87c-6.51-8.09-8-8.54-17.63-5.49-2.54.8-5.28.64-7.87.87-13,1.15-25.49,4.95-38.34,6.88-7.84,1.18-15.89,2.43-23.77,4.14-1.71.38-3.44.74-5.17,1.09V560.21A9.93,9.93,0,0,1,2.16,558c9-7.29,17.82-14.79,26.7-22.23,1-.87,1.77-1.54,3.45-.83,6.92,2.92,13.95,5.77,20.72,8.85,7,3.19,14.16,6.16,21.15,9.42,8.41,3.93,16.87,7.72,25.5,11.19,9.48,3.82,18.56,8.61,27.77,13s18.64,9.1,27.94,13.69c3.55,1.75,7.19,3.39,10.54,5.48s6.22,1.65,9-1c11.81-11.1,23.43-22.42,36.33-32.29,5.11-3.9,10.45-7.48,15.68-11.21C226.91,550,225.23,549,224,547.68Z"/><path class="cls-1" d="M208.93.28c-.28,2.09-1.85,2-3.37,2q-17.62,0-35.26,0c-1.52,0-3.09.1-3.36-2Q83.47.28,0,.26V94.08a38.74,38.74,0,0,1,2.89,12.77c.25,4.34,3,5.83,6.36,6.29,8.76,1.2,16.47,5.54,24.84,7.92,7.15,2,14,5.16,21.2,7,3.72,1,7.08,2.65,10.68,3.8,14.32,4.58,28.37,10.06,42.79,14.27,10.59,3.09,20.9,7,31.39,10.34,7.67,2.43,15.59,4.38,22.87,8.08,3.15,1.61,5.44.95,6.77-2.95,3.81-11.15,7.63-22.32,12.1-33.22,3.53-8.63,6.37-17.47,9.55-26.19,3.91-10.69,7.48-21.55,11.88-32s7.86-21.49,12.09-32.1c3.27-8.2,5.92-16.58,9-24.79,1.63-4.31,2.91-9,5.5-13Z"/><path class="cls-3" d="M28.94,417.62c12.85-1.93,25.35-5.73,38.34-6.88,2.59-.23,5.33-.07,7.87-.87,9.63-3.05,11.12-2.6,17.63,5.49a35.72,35.72,0,0,0,2.77,2.87c8.13,8,16.36,15.92,24.37,24,16,16.18,31.76,32.53,47.72,48.7,18.72,19,37.56,37.8,56.33,56.71,1.26,1.27,2.94,2.3,3,4.43,2.11,0,3.22,1.63,4.4,2.95,11.09,12.32,23,23.81,34.62,35.63,5.6,5.71,5.67,9.82,2.49,17.78-.36.9-.7,1.82-1.05,2.73h12.89c3.31-8.87,6.54-17.77,9.94-26.6,2.61-6.74,6-13.29,7.5-20.59,1-4.53,3.3-9,5.38-13.41a55.48,55.48,0,0,0,3.75-11.05c1.45-6.3,2.57-6.59,9-6.6,17.51,0,32.3-6.1,42.56-21.05,4.57-6.66,6.51-14.15,7.12-22.09.3-4,2.74-4.69,6.35-6,8.2-3,16.85-2.41,25.16-4.76,7.22-2,15.1-2.81,22.69-4.08,8.83-1.47,17.88-2.16,26.4-5.32a7.81,7.81,0,0,1,2.91-.49c10.32.34,20.07-3.29,30.21-4.48,10.46-1.23,20.87-3.82,31.34-5.64,12.09-2.1,24.11-4.51,36.25-6.36,6.93-1.06,14.29-1.74,21-4.55v-12a16.78,16.78,0,0,0-4,.22c-8.15,2.48-16.62,3.22-25,4.7-8.93,1.58-18,2.8-26.82,4.62-7,1.43-14.14,2.95-21.08,4-9.88,1.54-19.45,5.79-29.76,4.54a4,4,0,0,0-1.41.43c-8.78,2.77-17.89,3.9-26.92,5.46-7.64,1.31-15.52,1.92-22.83,4.29-7.72,2.51-15.84,1.35-23.6,4.29-4.76,1.81-10.7,1.29-16,3-4,1.29-6.8.22-8.75-4a44.49,44.49,0,0,0-8.11-12.31C341.64,443,327,439,310.16,441.92c-2.25.4-5.1.51-5.77-1.64-1.83-5.95-5-11.18-7.75-16.65a145.78,145.78,0,0,1-7.17-15.76c-2.28-6.35-6.93-11.72-7.57-18.71-2.84-.71-3.82-3.72-4.36-5.51-1.68-5.65-5.67-10-7.67-15.33-3.32-8.84-7.72-17.18-11.73-25.7-4.44-9.42-8.73-18.92-13.22-28.32-1.24-2.61-.94-4.42,1-6.7,14.37-17.14,28.21-34.72,42.93-51.55s28.7-33.84,43-50.75c11.53-13.59,23.46-26.91,34.19-41.19,4.17-5.55,9.5-10.19,13.46-16a4.47,4.47,0,0,1,4.35-1.92c-.28-2.31.63-4.05,2.18-5.8,7.87-8.86,15.5-17.91,23-27q18.09-21.9,36.51-43.54c9.94-11.68,19.85-23.43,29.76-35.14,4.12-4.86,5.72-6.47,14.06-3.1,9.24,3.72,18.36,7.71,27.54,11.57,8.29,3.5,16.43,7.44,24.93,10.33,8.91,3,17.18,7.46,25.93,10.77v-11c-10.53-2.82-20.3-7.57-30.29-11.8-9.16-3.87-18.51-7.29-27.64-11.24-8.69-3.75-17.41-7.43-26.31-10.68a19,19,0,0,0-6.76-1.29c-10.32.05-20.74-.88-30.94.21-24.14,2.59-48.34,2.33-72.53,3-12.06.34-24.16,1.06-36.19,2-18.46,1.42-36.93-.24-55.31,1-14.19,1-28.34,2.51-42.58,2.78-6,.12-6-.34-4-6.19,2.4-7,4.7-14,7.62-20.77h-13c-2.59,4-3.87,8.68-5.5,13-3.09,8.21-5.74,16.59-9,24.79-4.23,10.61-7.64,21.53-12.09,32.1s-8,21.35-11.88,32c-3.18,8.72-6,17.56-9.55,26.19-4.47,10.9-8.29,22.07-12.1,33.22-1.33,3.9-3.62,4.56-6.77,2.95-7.28-3.7-15.2-5.65-22.87-8.08-10.49-3.34-20.8-7.25-31.39-10.34-14.42-4.21-28.47-9.69-42.79-14.27-3.6-1.15-7-2.85-10.68-3.8-7.19-1.85-14-5-21.2-7-8.37-2.38-16.08-6.72-24.84-7.92-3.33-.46-6.11-2-6.36-6.29A38.74,38.74,0,0,0,0,94.08v28.06a5.57,5.57,0,0,1,1.48.53c7.28,3.88,15.42,5.33,23,8.32,14.13,5.55,28.85,9.54,43.22,14.49,10.89,3.76,21.84,7.73,33,10.92,4.92,1.41,9.89,3.57,14.74,5.06,10.17,3.11,20.12,6.88,30.29,10,5.07,1.54,10.44,2.59,15.17,5.5,2.17,1.34,2.51,2.89,1.72,4.44-3.28,6.43-5.58,13.34-7.8,20.05-3.08,9.33-7.1,18.26-10.15,27.59-3.45,10.6-8.28,20.76-11.64,31.38-2.25,7.11-5.44,13.84-7.53,21.05-1.69,5.82-4.1,11.68-6.41,17.43-3.15,7.89-6.06,15.87-9.1,23.8-2.47,6.44-5.06,12.84-7.44,19.32-2.6,7.12-4.92,14.34-7.54,21.45-3.73,10.09-7.59,20.12-11.45,30.16a3.45,3.45,0,0,1-3,2.4c-6.29.17-12.15,2.68-18.39,3.17-7.54.59-14.73,3.05-22.13,4.39a62.3,62.3,0,0,1-8.29,1.37c-4.17.16-8.27.42-11.45,2.25-3.67-.14-5-1.68-5.4-4.67-1.86-14.21-4.7-28.35-5.54-42.61-.58-9.79-2.48-19.45-4.08-28.86-1.84-10.84-.91-22.13-4.93-32.7A12.16,12.16,0,0,1,0,297v67c1.2,6.84,2.94,13.6,3,20.6s3.86,13.6,3.08,20.92c-.34,3.19-.77,4.62-4.41,4.82L0,410.44v12.41c1.73-.35,3.46-.71,5.17-1.09C13.05,420.05,21.1,418.8,28.94,417.62Zm291.94,35.52c15.22-2,33.35,15,33.21,33.31a34.75,34.75,0,0,1-34.86,34.48,34,34,0,0,1-33.32-35C286.38,468.51,300.26,451.82,320.88,453.14Zm-139.11-289c3.23-6,5.24-12.44,7.5-18.63,3.3-9,6.35-18.25,9.83-27.23,4-10.22,7.49-20.61,11.32-30.87,3.68-9.86,8.09-19.47,11-29.65,1.87-6.5,4-13.09,7.61-19A4.79,4.79,0,0,1,234,36.25a306.79,306.79,0,0,0,47.78-1.48c16.11-1.79,32.08-.51,48.07-1.54,30.16-2,60.32-3.28,90.56-3.17,14,0,27.94-3.53,42.1-2.81,3.63.19,4.3.42,4.13,2.21a28.22,28.22,0,0,1-2,3.26q-11,13.2-22,26.32-11.35,13.59-22.7,27.17-11.81,14.1-23.64,28.17c-11.48,13.71-23.4,27.05-34.54,41.06-7.72,9.71-16,19-24,28.47C324,200.25,310.33,216.66,296.59,233q-24.31,28.9-48.73,57.73c-2.14,2.53-4.42,5-6.38,7.62-1.54,2.08-2.54,1.74-3.6-.23a181.39,181.39,0,0,1-8.09-16.87c-2.93-7.06-6.69-13.78-10-20.7-4.7-9.9-9.25-19.86-13.95-29.76s-9.41-19.46-14.05-29.23c-4.33-9.09-9.2-18-12.35-27.55C178.33,170.55,180.24,166.91,181.77,164.1ZM96.2,393.69c3.66-6.75,5.38-14.25,8.09-21.35,2.45-6.43,5-12.85,7.39-19.3,3.42-9.07,6.95-18.11,10.28-27.22,2-5.38,4.57-10.65,6.11-16,2-6.86,6-12.89,7.14-20.06A32.45,32.45,0,0,1,140,278.16c2.1-3.36,3-7.58,3.92-11.55,1.78-7.93,6.05-14.86,8.56-22.49,2-6.06,4.31-12,6.52-18,2.95-8,5.43-16.19,9.29-23.83,1.25-2.49.09-5.69,2.53-7.89.83-.76,1.28-1.92,2.91-2,1.32,2.21,3.06,4.38,4,6.86,4.9,12.76,11.6,24.67,17.17,37.1,4.6,10.27,9.41,20.46,14.41,30.49,5.84,11.72,10.69,23.88,16.82,35.48,7.21,13.66,13.17,28,19.72,42,4.52,9.65,9.17,19.25,13.69,28.91,5.83,12.44,11.48,25,17.4,37.36q6.87,14.34,14.25,28.43c3.38,6.42,3.09,8.82-2.16,13.67-7,6.46-10.59,14.61-13.45,23.72-2.75,8.76-1.56,16.92.79,24.83A41,41,0,0,0,293.63,524c5.24,3.44,5,4.45,2.3,10.18-2.79,5.9-4.33,12.31-6.85,18.36-3.65,8.77-6.49,17.87-9.87,26.75-1.59,4.19-3.3,4.27-6.41,1.15-13.79-13.83-27-28.19-41.12-41.72-12.13-11.63-24-23.59-35.4-35.92-15.46-16.7-31.9-32.4-47.8-48.65q-25.51-26.07-51.12-52C94.64,399.4,94.47,396.89,96.2,393.69Z"/><path class="cls-2" d="M298.19,611.2c5.17-7.85,10-15.93,15.53-23.49s11.48-14.57,17.64-21.49c15.78-17.73,34.52-32,54.94-43.79A199.7,199.7,0,0,1,422,505.71c6.53-2.22,13.08-4.5,19.56-6.94,3.64-1.37,5.5-.67,6.78,3.62,1.45,4.86,2.93,9.77,4.65,14.58,3.31,9.25,2.95,10.46-6.26,12.95-15.75,4.25-30,11.6-43.94,19.88a201.25,201.25,0,0,0-46.88,38,192.5,192.5,0,0,0-17.74,23.41H567.86q-.11-46,0-92.08c-13.48-1.33-26.94-3.34-40.45-3.79-12.54-.42-25,2.23-37.53,3.4-7.42.69-15.74,1-22.92,5.06-3.06,1.72-5.22-1.15-5.81-3.74-1.55-6.91-4.16-13.46-6.3-20.16-1.25-3.92.16-5.31,4.08-5.84,9.1-1.24,18.15-2.91,27.21-4.36,16.82-2.68,33.46-2.57,50.33-1.86,10.59.44,20.81,3.42,31.39,3.3v-43c-6.7,2.81-14.06,3.49-21,4.55-12.14,1.85-24.16,4.26-36.25,6.36-10.47,1.82-20.88,4.41-31.34,5.64-10.14,1.19-19.89,4.82-30.21,4.48a7.81,7.81,0,0,0-2.91.49c-8.52,3.16-17.57,3.85-26.4,5.32-7.59,1.27-15.47,2-22.69,4.08-8.31,2.35-17,1.8-25.16,4.76-3.61,1.3-6.05,2-6.35,6-.61,7.94-2.55,15.43-7.12,22.09-10.26,15-25,21-42.56,21.05-6.42,0-7.54.3-9,6.6a55.48,55.48,0,0,1-3.75,11.05c-2.08,4.39-4.42,8.88-5.38,13.41-1.54,7.3-4.89,13.85-7.5,20.59-3.4,8.83-6.63,17.73-9.94,26.6Z"/><path class="cls-1" d="M3,384.58c-.1-7-1.84-13.76-3-20.6v46.46l1.71-.12c3.64-.2,4.07-1.63,4.41-4.82C6.9,398.18,3.13,391.65,3,384.58Z"/><path class="cls-4" d="M29.75,593.26c6.7,6.24,13.59,12.33,20.82,17.94H267.39c.35-.91.69-1.83,1.05-2.73,3.18-8,3.11-12.07-2.49-17.78-11.6-11.82-23.53-23.31-34.62-35.63-1.18-1.32-2.29-2.94-4.4-2.95-5.23,3.73-10.57,7.31-15.68,11.21-12.9,9.87-24.52,21.19-36.33,32.29-2.77,2.61-5.56,3.1-9,1s-7-3.73-10.54-5.48c-9.3-4.59-18.6-9.18-27.94-13.69s-18.29-9.23-27.77-13c-8.63-3.47-17.09-7.26-25.5-11.19-7-3.26-14.14-6.23-21.15-9.42-6.77-3.08-13.8-5.93-20.72-8.85-1.68-.71-2.41,0-3.45.83C20,543.16,11.16,550.66,2.16,558A9.93,9.93,0,0,0,0,560.21v4.08a11.29,11.29,0,0,0,1.66,2.13C10.63,575.79,20.28,584.44,29.75,593.26Z"/><path class="cls-1" d="M567.82,53.26c-10.53-2.82-20.3-7.57-30.29-11.8-9.16-3.87-18.51-7.29-27.64-11.24-8.69-3.75-17.41-7.43-26.31-10.68a19,19,0,0,0-6.76-1.29c-10.32.05-20.74-.88-30.94.21-24.14,2.59-48.34,2.33-72.53,3-12.06.34-24.16,1.06-36.19,2-18.46,1.42-36.93-.24-55.31,1-14.19,1-28.34,2.51-42.58,2.78-6,.12-6-.34-4-6.19,2.4-7,4.7-14,7.62-20.77q160.44,0,320.9-.1c3.42,0,4.15.67,4.1,4.1C567.69,20.6,567.82,36.93,567.82,53.26Z"/><path class="cls-5" d="M338.13,611.2a192.5,192.5,0,0,1,17.74-23.41,201.25,201.25,0,0,1,46.88-38c13.9-8.28,28.19-15.63,43.94-19.88,9.21-2.49,9.57-3.7,6.26-12.95-1.72-4.81-3.2-9.72-4.65-14.58-1.28-4.29-3.14-5-6.78-3.62-6.48,2.44-13,4.72-19.56,6.94a199.7,199.7,0,0,0-35.66,16.72c-20.42,11.82-39.16,26.06-54.94,43.79-6.16,6.92-12.16,14-17.64,21.49s-10.36,15.64-15.53,23.49Z"/><path class="cls-5" d="M40.68,611.2q-4.18-3.29-8.31-6.66C21.12,595.32,10.58,585.34,0,575.4v35.8Z"/><path class="cls-5" d="M567.82,519.12c-13.48-1.33-26.94-3.34-40.45-3.79-12.54-.42-25,2.23-37.53,3.4-7.42.69-15.74,1-22.92,5.06-3.06,1.72-5.22-1.15-5.81-3.74-1.55-6.91-4.16-13.46-6.3-20.16-1.25-3.92.16-5.31,4.08-5.84,9.1-1.24,18.15-2.91,27.21-4.36,16.82-2.68,33.46-2.57,50.33-1.86,10.59.44,20.81,3.42,31.39,3.3Z"/><path class="cls-4" d="M281.9,389.16c-2.84-.71-3.82-3.72-4.36-5.51-1.68-5.65-5.67-10-7.67-15.33-3.32-8.84-7.72-17.18-11.73-25.7-4.44-9.42-8.73-18.92-13.22-28.32-1.24-2.61-.94-4.42,1-6.7,14.37-17.14,28.21-34.72,42.93-51.55s28.7-33.84,43-50.75c11.53-13.59,23.46-26.91,34.19-41.19,4.17-5.55,9.5-10.19,13.46-16a4.47,4.47,0,0,1,4.35-1.92c5,6.77,10,13.5,14.9,20.33,6.53,9.11,13,18.25,19.4,27.49,11,16,22.72,31.5,33.18,47.88,1,1.53,2.4,2.76,3.47,4.23,4.16,5.71,3.93,7.25-2,10.82-14.59,8.8-28.92,18-43.2,27.3-11.75,7.63-23.93,14.63-35.48,22.54-7.61,5.21-15.49,10-23.09,15.21-6.36,4.38-13,8.33-19.61,12.37-3.53,2.16-3.84,4.87-2.18,8.41,4.42,9.42,8.7,18.89,13,28.37,1.38,3.05-.59,4.67-3.09,4.85-7.3.54-14.29,3-21.19,4.72-5.5,1.39-11.38,2.59-16.94,4.3C295,386.91,288.55,389.17,281.9,389.16Zm27.94-111.08c-.37,3.95,1.83,7.62,5,10.62,10.12,9.56,22,8.12,33.78,4.48,8.3-2.56,13.1-9.73,18.31-16.13,4.92-6,9.35-12.53,17.11-15.51,4.55-1.74,8.9-3.9,13.57-5.49,5.52-1.88,10.54-5.31,15.71-8.19,7-3.91,10-12.5,5.8-17.63-3-3.71-6.27-7.43-10.38-10a104.63,104.63,0,0,0-20.51-9.6c-5.52-2-11-2-16.36-3a22,22,0,0,0-11.73,1c-8.18,3.34-13.63,9.68-16.6,18.14-2.77,7.9-7,15.11-11.05,22.4-3,5.41-8.32,8.45-12.91,12.23C314.52,265.55,309.85,270,309.84,278.08Z"/><path class="cls-1" d="M466.62,29.46a28.22,28.22,0,0,1-2,3.26q-11,13.2-22,26.32-11.35,13.59-22.7,27.17-11.81,14.1-23.64,28.17c-11.48,13.71-23.4,27.05-34.54,41.06-7.72,9.71-16,19-24,28.47C324,200.25,310.33,216.66,296.59,233q-24.31,28.9-48.73,57.73c-2.14,2.53-4.42,5-6.38,7.62-1.54,2.08-2.54,1.74-3.6-.23a181.39,181.39,0,0,1-8.09-16.87c-2.93-7.06-6.69-13.78-10-20.7-4.7-9.9-9.25-19.86-13.95-29.76s-9.41-19.46-14.05-29.23c-4.33-9.09-9.2-18-12.35-27.55-1.13-3.45.78-7.09,2.31-9.9,3.23-6,5.24-12.44,7.5-18.63,3.3-9,6.35-18.25,9.83-27.23,4-10.22,7.49-20.61,11.32-30.87,3.68-9.86,8.09-19.47,11-29.65,1.87-6.5,4-13.09,7.61-19A4.79,4.79,0,0,1,234,36.25a306.79,306.79,0,0,0,47.78-1.48c16.11-1.79,32.08-.51,48.07-1.54,30.16-2,60.32-3.28,90.56-3.17,14,0,27.94-3.53,42.1-2.81C466.12,27.44,466.79,27.67,466.62,29.46Z"/><path class="cls-1" d="M173.69,192.33c1.32,2.21,3.06,4.38,4,6.86,4.9,12.76,11.6,24.67,17.17,37.1,4.6,10.27,9.41,20.46,14.41,30.49,5.84,11.72,10.69,23.88,16.82,35.48,7.21,13.66,13.17,28,19.72,42,4.52,9.65,9.17,19.25,13.69,28.91,5.83,12.44,11.48,25,17.4,37.36q6.87,14.34,14.25,28.43c3.38,6.42,3.09,8.82-2.16,13.67-7,6.46-10.59,14.61-13.45,23.72-2.75,8.76-1.56,16.92.79,24.83A41,41,0,0,0,293.63,524c5.24,3.44,5,4.45,2.3,10.18-2.79,5.9-4.33,12.31-6.85,18.36-3.65,8.77-6.49,17.87-9.87,26.75-1.59,4.19-3.3,4.27-6.41,1.15-13.79-13.83-27-28.19-41.12-41.72-12.13-11.63-24-23.59-35.4-35.92-15.46-16.7-31.9-32.4-47.8-48.65q-25.51-26.07-51.12-52c-2.72-2.75-2.89-5.26-1.16-8.46,3.66-6.75,5.38-14.25,8.09-21.35,2.45-6.43,5-12.85,7.39-19.3,3.42-9.07,6.95-18.11,10.28-27.22,2-5.38,4.57-10.65,6.11-16,2-6.86,6-12.89,7.14-20.06A32.45,32.45,0,0,1,140,278.16c2.1-3.36,3-7.58,3.92-11.55,1.78-7.93,6.05-14.86,8.56-22.49,2-6.06,4.31-12,6.52-18,2.95-8,5.43-16.19,9.29-23.83,1.25-2.49.09-5.69,2.53-7.89C171.61,193.62,172.06,192.46,173.69,192.33Z"/><path class="cls-1" d="M160.93,176.94c-4.73-2.91-10.1-4-15.17-5.5-10.17-3.1-20.12-6.87-30.29-10-4.85-1.49-9.82-3.65-14.74-5.06-11.16-3.19-22.11-7.16-33-10.92-14.37-4.95-29.09-8.94-43.22-14.49-7.61-3-15.75-4.44-23-8.32A5.57,5.57,0,0,0,0,122.14V297a12.16,12.16,0,0,0,.4,1.34c4,10.57,3.09,21.86,4.93,32.7,1.6,9.41,3.5,19.07,4.08,28.86.84,14.26,3.68,28.4,5.54,42.61.39,3,1.73,4.53,5.4,4.67,3.18-1.83,7.28-2.09,11.45-2.25a62.3,62.3,0,0,0,8.29-1.37c7.4-1.34,14.59-3.8,22.13-4.39,6.24-.49,12.1-3,18.39-3.17a3.45,3.45,0,0,0,3-2.4c3.86-10,7.72-20.07,11.45-30.16,2.62-7.11,4.94-14.33,7.54-21.45,2.38-6.48,5-12.88,7.44-19.32,3-7.93,6-15.91,9.1-23.8,2.31-5.75,4.72-11.61,6.41-17.43,2.09-7.21,5.28-13.94,7.53-21.05,3.36-10.62,8.19-20.78,11.64-31.38,3.05-9.33,7.07-18.26,10.15-27.59,2.22-6.71,4.52-13.62,7.8-20.05C163.44,179.83,163.1,178.28,160.93,176.94Z"/><path class="cls-1" d="M320.88,453.14c15.22-2,33.35,15,33.21,33.31a34.75,34.75,0,0,1-34.86,34.48,34,34,0,0,1-33.32-35C286.38,468.51,300.26,451.82,320.88,453.14Zm25.93,35.08c1.71-18.53-13.64-29.59-27-29.16-16,.51-28.15,12.2-27.71,28.09.45,16.41,12.57,26.75,28.08,27.79,7.89.53,14.66-3.92,20.06-9.35C345.06,500.74,348.61,494.85,346.81,488.22Z"/><path class="cls-5" d="M309.84,278.08c0-8.05,4.68-12.53,9.75-16.72,4.59-3.78,9.93-6.82,12.91-12.23,4-7.29,8.28-14.5,11.05-22.4,3-8.46,8.42-14.8,16.6-18.14a22,22,0,0,1,11.73-1c5.4,1,10.84,1,16.36,3a104.63,104.63,0,0,1,20.51,9.6c4.11,2.58,7.35,6.3,10.38,10,4.17,5.13,1.2,13.72-5.8,17.63-5.17,2.88-10.19,6.31-15.71,8.19-4.67,1.59-9,3.75-13.57,5.49-7.76,3-12.19,9.48-17.11,15.51-5.21,6.4-10,13.57-18.31,16.13-11.79,3.64-23.66,5.08-33.78-4.48C311.67,285.7,309.47,282,309.84,278.08Z"/><path class="cls-4" d="M346.81,488.22c1.8,6.63-1.75,12.52-6.58,17.37-5.4,5.43-12.17,9.88-20.06,9.35-15.51-1-27.63-11.38-28.08-27.79-.44-15.89,11.69-27.58,27.71-28.09C333.17,458.63,348.52,469.69,346.81,488.22Z"/><path class="cls-1" d="M1056,320.63l-1.81,1.21c-6.37,4.38-13,8.33-19.62,12.37-3.52,2.16-3.84,4.86-2.17,8.41,4.41,9.42,8.7,18.89,13,28.37,1.38,3.05-.59,4.67-3.08,4.85-7.3.54-14.3,3-21.2,4.72-5.5,1.39-11.38,2.59-16.93,4.3-6.07,1.87-12.47,4.13-19.13,4.12.64,7,5.29,12.36,7.57,18.71a144,144,0,0,0,7.18,15.76c2.75,5.47,5.91,10.69,7.75,16.64.66,2.16,3.52,2.05,5.77,1.65,16.45-2.91,30.82.88,42.7,12.72Z"/><path class="cls-2" d="M574.87,515.66c-.36,4.52-2.52,6-6.69,5.28q0,45.12,0,90.26H700.93c-14.73-14.88-29.2-30-45-43.82-12.43-10.87-25.28-21.19-40.13-29-10.49-5.49-20.93-10.81-32.14-14.64-4.73-1.62-3-6.44-2.17-9.08A45.58,45.58,0,0,0,583.18,501c0-2.45.81-3.31,3.35-2.42,7.92,2.77,15.73,5.7,23.49,8.95,11.93,5,22.75,11.69,33.61,18.43,11.34,7,21.44,15.7,31.69,24.21,20.79,17.27,39.28,37.05,60.2,54.21q4.25,3.46,8.55,6.84H754c-7.32-5.66-14.27-11.81-21-18.12-9.48-8.82-19.12-17.47-28.09-26.84-3.27-3.41-3-5.61.49-8.47,9-7.29,17.83-14.79,26.7-22.23,1-.87,1.78-1.54,3.45-.83,6.93,2.92,14,5.77,20.73,8.85,7,3.19,14.15,6.16,21.14,9.42,8.41,3.93,16.88,7.72,25.51,11.19,9.47,3.82,18.55,8.61,27.77,13.05s18.64,9.1,27.94,13.69c3.55,1.75,7.18,3.39,10.53,5.48s6.22,1.65,9-1c11.81-11.11,23.44-22.42,36.34-32.29,5.1-3.9,10.44-7.49,15.67-11.22,0-2.12-1.7-3.15-3-4.42-18.77-18.91-37.61-37.75-56.33-56.71-16-16.17-31.76-32.52-47.72-48.7-8-8.12-16.25-16-24.37-24a35.79,35.79,0,0,1-2.78-2.87c-6.51-8.09-8-8.54-17.63-5.5-2.53.8-5.27.65-7.87.88-13,1.14-25.48,4.95-38.34,6.88-7.83,1.17-15.89,2.43-23.76,4.14-8.28,1.81-16.74,3.4-25.18,4.76-7.89,1.27-16,1.75-23.77,4.33-2.8.93-5.85,1-8.8,1.42-9,1.21-17.82,3-26.72,4.56-7.92,1.41-15.78,3.16-23.75,4.22-6.69.9-13,3.72-19.88,3.72-4,0-8,1.53-12.05,2.37v47c10.13-.44,9.44,3.9,8.81,10.59C576.64,508.28,575.17,511.92,574.87,515.66Z"/><path class="cls-1" d="M912.08.1h21c-2.59,4-3.86,8.68-5.49,13-3.1,8.21-5.75,16.59-9,24.79-4.23,10.61-7.64,21.53-12.08,32.1s-8,21.35-11.88,32c-3.19,8.71-6,17.55-9.56,26.19-4.46,10.9-8.29,22.07-12.1,33.22-1.33,3.9-3.61,4.56-6.77,2.95-7.27-3.7-15.2-5.65-22.86-8.09-10.5-3.33-20.8-7.24-31.4-10.33-14.42-4.21-28.47-9.69-42.79-14.27-3.6-1.15-7-2.85-10.68-3.81-7.19-1.84-14-5-21.2-7-8.37-2.38-16.07-6.72-24.84-7.92-3.33-.46-6.11-1.95-6.35-6.29a37.12,37.12,0,0,0-9.19-22.81C693.42,80,688.72,77.48,684,75c-6.5-3.38-13.27-2.78-19.26-1.18a32.59,32.59,0,0,0-18,12.13,5,5,0,0,1-7.1,1.41c-6-3.83-13-5.14-19.33-8.12-2-.92-3.32-2.77-5.54-3.09-7.31-1.08-13.6-4.94-20.34-7.56-8.77-3.41-17.08-8-26.19-10.53,0-18,.12-36-.1-54,0-3.44.68-4.1,4.1-4.1q149,.18,297.91.1c.27,2.09,1.85,2,3.36,2h35.27C910.23,2.08,911.81,2.19,912.08.1Z"/><path class="cls-3" d="M600.11,440.87c8-1.06,15.83-2.81,23.75-4.22,8.9-1.59,17.77-3.35,26.72-4.56,2.95-.4,6-.49,8.8-1.42,7.72-2.58,15.88-3.06,23.77-4.33,8.44-1.36,16.9-2.95,25.18-4.76,7.87-1.71,15.93-3,23.76-4.14,12.86-1.93,25.36-5.74,38.34-6.88,2.6-.23,5.34-.08,7.87-.88,9.63-3,11.12-2.59,17.63,5.5a35.79,35.79,0,0,0,2.78,2.87c8.12,8,16.35,15.92,24.37,24,16,16.18,31.75,32.53,47.72,48.7,18.72,19,37.56,37.8,56.33,56.71,1.25,1.27,2.94,2.3,3,4.42,2.12,0,3.22,1.64,4.41,3,11.08,12.32,23,23.81,34.61,35.63,5.61,5.71,5.67,9.82,2.5,17.78-.39,1-.75,1.94-1.12,2.91h12.89c3.33-8.93,6.58-17.89,10-26.78,2.6-6.75,6-13.29,7.5-20.59,1-4.54,3.3-9,5.37-13.42a55.17,55.17,0,0,0,3.75-11c1.46-6.3,2.58-6.59,9-6.6,14.57,0,27.25-4.26,37-14.3V495.28a34.88,34.88,0,0,1-33.63,25.47,34,34,0,0,1-33.32-35c.46-17.43,14.35-34.12,35-32.8,12.81-1.7,27.68,10.08,32,24.77V454.46c-11.88-11.84-26.25-15.63-42.7-12.72-2.25.4-5.11.51-5.77-1.65-1.84-5.95-5-11.17-7.75-16.64a144,144,0,0,1-7.18-15.76c-2.28-6.35-6.93-11.72-7.57-18.71-2.84-.71-3.82-3.72-4.35-5.51-1.69-5.65-5.67-10-7.68-15.33-3.32-8.85-7.72-17.18-11.73-25.7-4.43-9.43-8.73-18.92-13.22-28.32-1.24-2.61-.94-4.42,1-6.71,14.37-17.13,28.21-34.72,42.93-51.54s28.71-33.84,43-50.75c7-8.22,14.08-16.34,21-24.64V166c-5,5.94-10.16,11.81-15.17,17.78q-20.58,24.51-41.1,49.08Q975.42,261.72,951,290.54c-2.14,2.53-4.42,5-6.38,7.62-1.53,2.08-2.54,1.74-3.6-.23-2.95-5.5-5.69-11.08-8.09-16.87-2.93-7.07-6.69-13.78-10-20.7-4.7-9.9-9.26-19.86-14-29.76s-9.41-19.47-14.06-29.23c-4.32-9.09-9.2-18-12.35-27.55-1.13-3.45.79-7.09,2.31-9.9,3.23-6,5.24-12.44,7.5-18.63,3.3-9,6.35-18.25,9.83-27.23,4-10.22,7.5-20.62,11.32-30.88,3.68-9.85,8.09-19.46,11-29.64,1.87-6.5,4-13.09,7.62-19a4.74,4.74,0,0,1,4.91-2.46,305.7,305.7,0,0,0,47.79-1.49C1001,32.8,1017,34.08,1033,33q11.52-.74,23-1.35V22.2q-7.87.47-15.71,1.06c-18.45,1.43-36.93-.23-55.31,1-14.19,1-28.34,2.51-42.58,2.78-6,.12-6-.35-4-6.19,2.4-7,4.7-14,7.62-20.77h-13c-2.59,4-3.86,8.68-5.49,13-3.1,8.21-5.75,16.59-9,24.79-4.23,10.61-7.64,21.53-12.08,32.1s-8,21.35-11.88,32c-3.19,8.71-6,17.55-9.56,26.19-4.46,10.9-8.29,22.07-12.1,33.22-1.33,3.9-3.61,4.56-6.77,2.95-7.27-3.7-15.2-5.65-22.86-8.09-10.5-3.33-20.8-7.24-31.4-10.33-14.42-4.21-28.47-9.69-42.79-14.27-3.6-1.15-7-2.85-10.68-3.81-7.19-1.84-14-5-21.2-7-8.37-2.38-16.07-6.72-24.84-7.92-3.33-.46-6.11-1.95-6.35-6.29a37.12,37.12,0,0,0-9.19-22.81C693.42,80,688.72,77.48,684,75c-6.5-3.38-13.27-2.78-19.26-1.18a32.59,32.59,0,0,0-18,12.13,5,5,0,0,1-7.1,1.41c-6-3.83-13-5.14-19.33-8.12-2-.92-3.32-2.77-5.54-3.09-7.31-1.08-13.6-4.94-20.34-7.56-8.77-3.41-17.08-8-26.19-10.53v11c5.4-.31,9.81,2.73,14.55,4.49,5.45,2,10.55,5,15.94,7.15,12.28,5,24.66,9.75,36.94,14.72,3,1.21,5.7,3,4.48,7-2.08,6.81,1.16,12.82,3.76,18.41,4.84,10.35,13.27,16.58,25.15,17.29,2.8.17,4,1.91,4.15,4.64.48,11,2.87,21.73,4.79,32.53.65,3.71.54,7.55,1.12,11.34,1.54,10,2.63,20.16,4.06,30.22,1.93,13.52,4.5,26.93,5.23,40.64.33,6.17,3.12,12.16,2.8,18.55,2.57,5.54,2.42,11.55,3,17.42,1.13,12.12,3.34,24.06,5.24,36.06,1.31,8.26,1.25,16.73,3.67,24.84.12.43-.57,1.1-.88,1.65.65,9.57,3.92,18.75,4.05,28.41.09,7.07,3.86,13.59,3.09,20.92-.34,3.19-.78,4.62-4.42,4.82a119.33,119.33,0,0,0-26.62,4.39c-7.8,2.29-16.16.78-23.54,4.91-3.55,2-8.12.26-12.28,1.17-10.39,2.28-21,3.85-31.37,5.93-7.31,1.47-15.25.9-22.3,5-3.42,2-8.47.05-12.73,1.33-2.5.75-5.22.76-7.84,1.1v13c4-.84,8-2.37,12.05-2.37C587.16,444.59,593.42,441.77,600.11,440.87ZM871.4,202.09c1.26-2.49.09-5.7,2.53-7.89.84-.76,1.28-1.92,2.91-2.06,1.32,2.22,3.07,4.39,4,6.87,4.9,12.76,11.59,24.67,17.16,37.1,4.6,10.26,9.42,20.45,14.41,30.49,5.84,11.72,10.7,23.88,16.83,35.48,7.21,13.65,13.16,28,19.71,42,4.52,9.66,9.17,19.26,13.69,28.92,5.83,12.44,11.48,25,17.41,37.36q6.85,14.34,14.25,28.43c3.37,6.42,3.08,8.82-2.16,13.67-7,6.45-10.6,14.61-13.46,23.72-2.74,8.76-1.56,16.92.79,24.83a41.07,41.07,0,0,0,17.29,22.88c5.24,3.44,5,4.45,2.31,10.18-2.79,5.9-4.34,12.31-6.86,18.36-3.64,8.77-6.48,17.87-9.86,26.75-1.59,4.19-3.31,4.27-6.42,1.15-13.78-13.83-27-28.2-41.12-41.72-12.13-11.63-24-23.6-35.39-35.93C884,486,867.53,470.26,851.63,454q-25.5-26.07-51.12-52c-2.72-2.75-2.89-5.27-1.16-8.46,3.66-6.75,5.38-14.25,8.1-21.35,2.45-6.43,4.95-12.85,7.38-19.3,3.43-9.07,6.95-18.11,10.28-27.22,2-5.38,4.57-10.66,6.11-16,2-6.85,6-12.88,7.14-20A32.45,32.45,0,0,1,843.11,278c2.1-3.36,3-7.58,3.92-11.55,1.78-7.93,6.05-14.86,8.56-22.49,2-6.06,4.31-12,6.52-18C865.06,217.92,867.54,209.73,871.4,202.09Zm-200.23-73c-14.65,1.21-22-12.48-22.78-23-.94-12.92,11.45-24.1,25.17-24S696,93.39,697,105.86C697.93,118.65,685.75,129.08,671.17,129.06Zm37.32,201.81c-1.85-10.84-.91-22.13-4.93-32.7-1.48-3.88-.42-8.66-1.55-12.75-2.06-7.43-1.41-15.08-2.69-22.55-2.66-15.56-4-31.33-6.56-46.88-1.47-9-.91-18.36-4.27-27.19-1.53-4,0-8.9-1.32-13.29-3.17-10.3-1.86-21.29-4.82-31.66-1-3.59-.1-6.15,4-8.15,5.59-2.75,10.82-6.52,13.95-12.36,1.06-2,3-1.59,4.35-.85,7.28,3.88,15.42,5.33,23,8.32,14.13,5.55,28.84,9.54,43.21,14.49,10.9,3.76,21.85,7.72,33,10.92,4.92,1.41,9.89,3.57,14.74,5.06,10.17,3.11,20.12,6.88,30.29,10,5.07,1.54,10.45,2.59,15.17,5.5,2.17,1.34,2.51,2.89,1.72,4.44-3.28,6.43-5.58,13.34-7.8,20.05-3.07,9.33-7.1,18.26-10.14,27.58-3.46,10.6-8.28,20.76-11.65,31.39-2.25,7.11-5.44,13.84-7.53,21-1.69,5.81-4.1,11.67-6.4,17.43-3.16,7.88-6.07,15.86-9.11,23.79-2.47,6.45-5.06,12.85-7.43,19.33-2.61,7.12-4.93,14.34-7.55,21.45-3.72,10.09-7.59,20.12-11.45,30.16a3.44,3.44,0,0,1-3,2.4c-6.3.17-12.16,2.68-18.4,3.17-7.53.59-14.73,3.05-22.13,4.38a60.75,60.75,0,0,1-8.29,1.38c-4.17.16-8.26.42-11.44,2.25-3.68-.14-5-1.68-5.41-4.67-1.86-14.21-4.7-28.35-5.54-42.61C712,349.94,710.09,340.28,708.49,330.87Z"/><path class="cls-2" d="M1001.22,611.2c5.22-7.9,10-16.05,15.65-23.67,5.48-7.46,11.49-14.57,17.64-21.49A198,198,0,0,1,1056,545.35V518.47c-9.77,10-22.45,14.28-37,14.3-6.42,0-7.54.3-9,6.6a55.17,55.17,0,0,1-3.75,11c-2.07,4.4-4.41,8.88-5.37,13.42-1.55,7.3-4.9,13.84-7.5,20.59-3.43,8.89-6.68,17.85-10,26.78Z"/><path class="cls-2" d="M1056,611.2V591.07a199.25,199.25,0,0,0-14.85,20.13Z"/><path class="cls-1" d="M702.14,356c.65,9.57,3.92,18.75,4.05,28.41.09,7.07,3.86,13.59,3.09,20.92-.34,3.19-.78,4.62-4.42,4.82a119.33,119.33,0,0,0-26.62,4.39c-7.8,2.29-16.16.78-23.54,4.91-3.55,2-8.12.26-12.28,1.17-10.39,2.28-21,3.85-31.37,5.93-7.31,1.47-15.25.9-22.3,5-3.42,2-8.47.05-12.73,1.33-2.5.75-5.22.76-7.84,1.1V69.07c5.4-.31,9.81,2.73,14.55,4.49,5.45,2,10.55,5,15.94,7.15,12.28,5,24.66,9.75,36.94,14.72,3,1.21,5.7,3,4.48,7-2.08,6.81,1.16,12.82,3.76,18.41,4.84,10.35,13.27,16.58,25.15,17.29,2.8.17,4,1.91,4.15,4.64.48,11,2.87,21.73,4.79,32.53.65,3.71.54,7.55,1.12,11.34,1.54,10,2.63,20.16,4.06,30.22,1.93,13.52,4.5,26.93,5.23,40.64.33,6.17,3.12,12.16,2.8,18.55-5.19.83-10.29,2-15.57,2.53-3.48.33-7.15-.44-10.38.71-10.76,3.85-22.18,2.15-33.22,4.39s-22.47,2.76-33.69,4.36c-2.35.34-2.75,1.28-2.47,3.71,1.08,9.44,3.43,18.61,5.33,27.88,2.31,11.3,3.92,22.73,6.67,34,1,4.18,2.58,4.27,5.82,4.47,21.91,1.3,43.66-2.08,65.52-2.06Z"/><path class="cls-4" d="M1056,291.57l-74.95,50.19c3,10.73,6.33,21.4,8.9,32.21,2.1,8.85,4.6,12.47,12.66,14.43,16.68,4.07,33.45,7.65,50,12.44a13,13,0,0,0,3.39.77Z"/><path class="cls-1" d="M1056,.09H946.07c-2.92,6.78-5.22,13.79-7.62,20.77-2,5.84-2.06,6.31,4,6.19,14.24-.27,28.39-1.81,42.58-2.78,18.38-1.25,36.86.41,55.31-1q7.83-.6,15.71-1.06Z"/><path class="cls-5" d="M1041.17,611.2A199.25,199.25,0,0,1,1056,591.07V545.35A198,198,0,0,0,1034.51,566c-6.15,6.92-12.16,14-17.64,21.49-5.6,7.62-10.43,15.77-15.65,23.67Z"/><path class="cls-5" d="M583.7,523.78c11.21,3.83,21.65,9.15,32.14,14.64,14.85,7.77,27.7,18.09,40.13,29,15.76,13.8,30.23,28.94,45,43.82h43.14q-4.3-3.37-8.55-6.84c-20.92-17.16-39.41-36.94-60.2-54.21C665.07,541.64,655,533,643.63,525.94,632.77,519.2,622,512.51,610,507.51c-7.76-3.25-15.57-6.18-23.49-8.95-2.54-.89-3.38,0-3.35,2.42a45.58,45.58,0,0,1-1.65,13.72C580.74,517.34,579,522.16,583.7,523.78Z"/><path class="cls-5" d="M568.18,494c10.13-.44,9.44,3.9,8.81,10.59-.35,3.74-1.82,7.38-2.12,11.12-.36,4.52-2.52,6-6.69,5.28Z"/><path class="cls-4" d="M1037.06,341.64c-1.74-3.7-1.41-6.52,2.27-8.77,5.58-3.43,11.21-6.81,16.69-10.4v-32.2c-11.89,3.51-23.79,4.58-34-5-3.32-3.13-5.61-7-5.23-11.08,0-8.39,4.88-13.06,10.17-17.42,4.79-4,10.35-7.12,13.46-12.76,4.2-7.6,8.63-15.12,11.52-23.35a35.31,35.31,0,0,1,4.07-8.18V179.27c-5.41,6.34-10.87,12.64-16.25,19-15,17.64-29.66,35.51-44.89,52.92s-29.78,35.89-44.76,53.75c-2,2.39-2.31,4.28-1,7,4.68,9.8,9.15,19.7,13.78,29.53,4.18,8.89,8.77,17.57,12.23,26.8,2.09,5.56,6.25,10.1,8,16,.55,1.87,1.57,5,4.53,5.75,7,0,13.62-2.34,20-4.29,5.79-1.79,11.93-3,17.66-4.49,7.2-1.82,14.49-4.36,22.1-4.92,2.6-.19,4.65-1.88,3.22-5.06C1046.13,361.34,1041.66,351.46,1037.06,341.64Z"/><path class="cls-1" d="M1056,31.69q-11.52.6-23,1.35c-16,1-32-.24-48.06,1.54a305.7,305.7,0,0,1-47.79,1.49,4.74,4.74,0,0,0-4.91,2.46c-3.65,5.92-5.75,12.51-7.62,19-2.94,10.18-7.35,19.79-11,29.64-3.82,10.26-7.36,20.66-11.32,30.88-3.48,9-6.53,18.19-9.83,27.23-2.26,6.19-4.27,12.67-7.5,18.63-1.52,2.81-3.44,6.45-2.31,9.9,3.15,9.59,8,18.46,12.35,27.55,4.65,9.76,9.42,19.47,14.06,29.23s9.25,19.86,14,29.76c3.28,6.92,7,13.63,10,20.7,2.4,5.79,5.14,11.37,8.09,16.87,1.06,2,2.07,2.31,3.6.23,2-2.66,4.24-5.09,6.38-7.62q24.38-28.86,48.74-57.73,20.6-24.51,41.1-49.08c5-6,10.13-11.84,15.17-17.78Z"/><path class="cls-1" d="M876.84,192.14c1.32,2.22,3.07,4.39,4,6.87,4.9,12.76,11.59,24.67,17.16,37.1,4.6,10.26,9.42,20.46,14.41,30.49,5.84,11.72,10.7,23.88,16.83,35.48,7.21,13.65,13.16,28,19.71,42,4.52,9.66,9.17,19.26,13.69,28.92,5.83,12.44,11.48,25,17.41,37.36q6.85,14.34,14.25,28.43c3.37,6.42,3.08,8.82-2.16,13.67-7,6.45-10.6,14.61-13.46,23.72-2.74,8.76-1.56,16.92.79,24.83a41.07,41.07,0,0,0,17.29,22.88c5.24,3.44,5,4.45,2.31,10.18-2.79,5.9-4.34,12.31-6.86,18.36-3.64,8.77-6.48,17.87-9.86,26.75-1.59,4.19-3.31,4.27-6.42,1.15-13.78-13.83-27-28.2-41.12-41.72-12.13-11.63-24-23.6-35.39-35.93C884,486,867.53,470.26,851.63,454q-25.5-26.07-51.12-52c-2.72-2.75-2.89-5.27-1.16-8.46,3.66-6.75,5.38-14.25,8.1-21.35,2.45-6.43,4.95-12.85,7.38-19.3,3.43-9.07,6.95-18.11,10.28-27.22,2-5.38,4.57-10.66,6.11-16,2-6.85,6-12.88,7.14-20A32.45,32.45,0,0,1,843.11,278c2.1-3.36,3-7.58,3.92-11.55,1.78-7.93,6.05-14.86,8.56-22.49,2-6.06,4.31-12,6.52-18,2.95-8,5.43-16.19,9.29-23.83,1.26-2.49.09-5.7,2.53-7.89C874.77,193.44,875.21,192.28,876.84,192.14Z"/><path class="cls-1" d="M723.51,407c-3.68-.14-5-1.68-5.41-4.67-1.86-14.21-4.7-28.35-5.54-42.61-.58-9.79-2.47-19.45-4.07-28.86-1.85-10.84-.91-22.13-4.93-32.7-1.48-3.88-.42-8.66-1.55-12.75-2.06-7.43-1.41-15.08-2.69-22.55-2.66-15.56-4-31.33-6.56-46.88-1.47-9-.91-18.36-4.27-27.19-1.53-4,0-8.9-1.32-13.29-3.17-10.3-1.86-21.29-4.82-31.66-1-3.59-.1-6.15,4-8.15,5.59-2.75,10.82-6.52,13.95-12.36,1.06-2,3-1.59,4.35-.85,7.28,3.88,15.42,5.33,23,8.32,14.13,5.55,28.84,9.54,43.21,14.49,10.9,3.76,21.85,7.72,33,10.92,4.92,1.41,9.89,3.57,14.74,5.06,10.17,3.11,20.12,6.88,30.29,10,5.07,1.54,10.45,2.59,15.17,5.5,2.17,1.34,2.51,2.89,1.72,4.44-3.28,6.43-5.58,13.34-7.8,20.05-3.07,9.33-7.1,18.26-10.14,27.58-3.46,10.6-8.28,20.76-11.65,31.39-2.25,7.11-5.44,13.84-7.53,21-1.69,5.81-4.1,11.67-6.4,17.43-3.16,7.88-6.07,15.87-9.11,23.79-2.47,6.45-5.06,12.85-7.43,19.33-2.61,7.12-4.93,14.34-7.55,21.45-3.72,10.09-7.59,20.12-11.45,30.16a3.44,3.44,0,0,1-3,2.4c-6.3.17-12.16,2.68-18.4,3.17-7.53.59-14.73,3.05-22.13,4.38a60.75,60.75,0,0,1-8.29,1.38C730.78,404.92,726.69,405.18,723.51,407Z"/><path class="cls-4" d="M702.14,356h-23c-21.86,0-43.61,3.36-65.52,2.06-3.24-.2-4.8-.29-5.82-4.47-2.75-11.25-4.36-22.68-6.67-34-1.9-9.27-4.25-18.44-5.33-27.88-.28-2.43.12-3.37,2.47-3.71,11.22-1.6,22.68-2.13,33.69-4.36s22.46-.54,33.22-4.39c3.23-1.15,6.9-.38,10.38-.71,5.28-.5,10.38-1.7,15.57-2.53,2.57,5.54,2.42,11.55,3,17.42,1.13,12.12,3.34,24.06,5.24,36.06,1.31,8.26,1.25,16.73,3.67,24.84C703.14,354.77,702.45,355.44,702.14,356Z"/><path class="cls-1" d="M1056,477.73c-4.31-14.69-19.18-26.47-32-24.77-20.61-1.32-34.5,15.37-35,32.8a34,34,0,0,0,33.32,35A34.88,34.88,0,0,0,1056,495.28Zm-12.63,27.68c-5.41,5.43-12.18,9.87-20.07,9.35-15.5-1-27.62-11.38-28.08-27.79-.44-15.89,11.69-27.58,27.71-28.09,13.38-.43,28.72,10.63,27,29.16C1051.76,494.67,1048.21,500.56,1043.39,505.41Z"/><path class="cls-1" d="M671.17,129.06c-14.65,1.21-22-12.48-22.78-23-.94-12.92,11.45-24.1,25.17-24S696,93.39,697,105.86C697.93,118.65,685.75,129.08,671.17,129.06Zm1.39-41c-10.63,0-17.66,7.83-18.64,18.4-.76,8.13,11.39,18,18.6,18.48,8,.52,18.85-10.22,18.53-18.35C690.64,96.13,683.73,87.76,672.56,88.07Z"/><path class="cls-4" d="M1056,182.67q-5.94,7.23-11.93,14.41c-2,2.38-2.31,4.27-1,7,4.39,9.2,8.61,18.49,12.94,27.72Z"/><path class="cls-5" d="M1056,201.41c-6.86,4.63-11.69,11.38-14.63,19.76-3.57,10.17-9,19.46-14.23,28.85-3.84,7-10.71,10.88-16.62,15.75C1004,271.16,998,276.93,998,287.29c-.48,5.1,2.35,9.82,6.45,13.69,13,12.3,28.32,10.46,43.5,5.77a28,28,0,0,0,8.09-4.08Z"/><path class="cls-4" d="M1050,488c1.8,6.63-1.75,12.52-6.57,17.37-5.41,5.43-12.18,9.87-20.07,9.35-15.5-1-27.62-11.38-28.08-27.79-.44-15.89,11.69-27.58,27.71-28.09C1036.33,458.45,1051.67,469.51,1050,488Z"/><path class="cls-4" d="M672.56,88.07c11.17-.31,18.08,8.06,18.49,18.53.32,8.13-10.51,18.87-18.53,18.35-7.21-.47-19.36-10.35-18.6-18.48C654.9,95.9,661.93,88.05,672.56,88.07Z"/><path class="cls-4" d="M832,566.4l-14-18.23c-13.31-17.34-29.24-32.52-41.56-50.68-1.82-2.69-2.7-4,0-7.34,7.24-9,15.32-17.27,22.87-26,6.2-7.15,12-14.61,18.86-21.22,1.75-1.7,2.74-1.95,4.44-.3,8.11,7.92,15.52,16.68,24,24.05s14.11,17.47,23.72,23.66c2.89,1.86,4.52,5.24,6.89,7.8,3.61,3.88,7.68,7.19,11.5,10.8-2.82,5.41-7.69,8.95-12,13-8.92,8.27-17,17.3-25.39,26.13-5.75,6.07-12.51,11.18-17.47,18C833.61,566.44,832.66,566.3,832,566.4Z"/><path class="cls-2" d="M733.05,592.56c6.42,6.46,13,12.79,19.92,18.64H971.2c.16-.42.31-.85.47-1.27,3.21-8.5,3.17-12.9-2.41-19-11.54-12.71-23.42-25.06-34.44-38.31-1.19-1.42-2.28-3.16-4.4-3.18-5.25,4-10.6,7.78-15.72,11.94-13,10.5-24.63,22.57-36.5,34.41-2.78,2.78-5.57,3.29-9,1a117.76,117.76,0,0,0-10.51-5.91c-9.28-5-18.55-9.92-27.87-14.79s-18.25-10-27.71-14.1c-8.61-3.76-17.06-7.86-25.45-12.1-7-3.53-14.11-6.74-21.1-10.19-6.75-3.33-13.77-6.41-20.68-9.57-1.67-.76-2.41,0-3.45.88-8.91,7.92-17.78,15.92-26.81,23.68-3.54,3-3.79,5.4-.54,9.07C714,573.76,723.62,583.07,733.05,592.56Z"/></g></g></svg>