<svg xmlns="http://www.w3.org/2000/svg" viewBox="0 0 1064.3 620.11"><defs><style>.cls-1{fill:#fefcfb;}.cls-2{fill:#fefcfa;}.cls-3{fill:#fef5e2;}.cls-4{fill:#f0f8ea;}.cls-5{fill:#e8f2f8;}</style></defs><g id="Layer_2" data-name="Layer 2"><g id="Layer_1-2" data-name="Layer 1"><path class="cls-1" d="M648.82,593.83c6.61,6.65,13.38,13.15,20.49,19.17h224.5l.48-1.3c3.3-8.75,3.26-13.27-2.48-19.6-11.87-13.07-24.09-25.78-35.43-39.41-1.21-1.46-2.34-3.25-4.52-3.28-5.4,4.09-10.91,8-16.18,12.29-13.32,10.81-25.33,23.22-37.54,35.4-2.86,2.86-5.73,3.38-9.25,1A118.18,118.18,0,0,0,778.08,592c-9.54-5.1-19.09-10.2-28.67-15.21s-18.78-10.26-28.51-14.51c-8.85-3.87-17.55-8.08-26.18-12.45-7.17-3.63-14.51-6.93-21.7-10.48-6.95-3.43-14.17-6.59-21.28-9.85-1.71-.78-2.47,0-3.55.9-9.17,8.16-18.28,16.38-27.58,24.37-3.64,3.13-3.89,5.55-.55,9.33C629.24,574.49,639.12,584.06,648.82,593.83Z"/><path class="cls-1" d="M567.2,561.17c24.62,10.2,49.27,20.3,73.86,30.56,21,8.75,41.85,17.74,62.82,26.5,1.53.64,3.06,1.26,4.59,1.88H776c7.12-4.72,14-9.83,21.3-14.27,6.78-4.11,13.72-8.38,20.32-13,1.44-1,2.9-2,4.36-3l-53-126.7a10.23,10.23,0,0,1-1.12,2.92c-5.49,10.19-10.73,20.52-16.05,30.81-.62,1.21-1,2.11-2.86,2.1-7.51,0-15.1.07-22.53-.16-7.69-.23-15.44-.22-23.14-.53-9.28-.37-18.55-.6-27.85-.47-10.22.14-20.45-.77-30.66-1.32s-20.71-1.19-31.06-1.83c-4-.25-7.94-.35-11.83-1s-6.37.88-7.92,4.36c-6.61,14.8-13,29.73-21.06,43.81-3.19,5.57-6.73,10.94-10.12,16.4C563.6,560.18,565.55,560.49,567.2,561.17Z"/><path class="cls-2" d="M567.82,74.08V446a17.32,17.32,0,0,0-4,.23c-8.15,2.48-16.62,3.22-25,4.69-8.93,1.59-18,2.81-26.82,4.62-7,1.44-14.14,3-21.08,4.05-9.88,1.54-19.45,5.79-29.76,4.54a4,4,0,0,0-1.41.43c-8.78,2.77-17.89,3.9-26.92,5.46-7.64,1.31-15.52,1.92-22.83,4.29-7.72,2.51-15.84,1.35-23.6,4.29-4.76,1.81-10.7,1.29-16,3-4,1.29-6.8.22-8.75-4a44.49,44.49,0,0,0-8.11-12.31c-12-12.48-26.69-16.49-43.51-13.51-2.25.4-5.1.51-5.77-1.65-1.83-5.95-5-11.17-7.75-16.64a145.78,145.78,0,0,1-7.17-15.76c-2.28-6.35-6.93-11.72-7.57-18.71,6.65,0,13.05-2.25,19.12-4.12,5.56-1.71,11.44-2.91,16.94-4.3,6.9-1.74,13.89-4.18,21.19-4.72,2.5-.18,4.47-1.8,3.09-4.85-4.28-9.48-8.56-18.95-13-28.37-1.66-3.55-1.35-6.25,2.18-8.41,6.59-4,13.25-8,19.61-12.37,7.6-5.23,15.48-10,23.09-15.21,11.55-7.91,23.73-14.91,35.48-22.54,14.28-9.29,28.61-18.5,43.2-27.3,5.92-3.57,6.15-5.11,2-10.82-1.07-1.47-2.49-2.7-3.47-4.23-10.46-16.38-22.18-31.88-33.18-47.88-6.36-9.24-12.87-18.38-19.4-27.5-4.89-6.82-9.93-13.55-14.9-20.32-.28-2.31.63-4,2.18-5.8,7.87-8.86,15.5-17.91,23-27.06q18.09-21.89,36.51-43.53c9.94-11.68,19.85-23.43,29.76-35.14,4.12-4.87,5.72-6.47,14.06-3.1C498.66,45.13,507.78,49.12,517,53c8.29,3.49,16.43,7.44,24.93,10.33C550.8,66.34,559.07,70.77,567.82,74.08Z"/><path class="cls-1" d="M39.54,620.11h9.9c-6.82-5.35-13.34-11.12-19.69-17-9.47-8.82-19.12-17.47-28.09-26.84A11.62,11.62,0,0,1,0,574.11v11.1c10.58,9.94,21.12,19.92,32.37,29.15C34.74,616.3,37.14,618.22,39.54,620.11Z"/><path class="cls-1" d="M224,557.5c-18.77-18.91-37.61-37.75-56.33-56.71-16-16.17-31.75-32.52-47.72-48.7-8-8.12-16.24-16-24.37-24a37.47,37.47,0,0,1-2.77-2.87c-6.51-8.09-8-8.54-17.63-5.5-2.54.8-5.28.65-7.87.88-13,1.14-25.49,4.95-38.34,6.88-7.84,1.17-15.89,2.43-23.77,4.14-1.71.38-3.44.74-5.17,1.09V570a9.93,9.93,0,0,1,2.16-2.26c9-7.29,17.82-14.79,26.7-22.23,1-.87,1.77-1.54,3.45-.83,6.92,2.92,13.95,5.77,20.72,8.85,7,3.19,14.16,6.16,21.15,9.42,8.41,3.93,16.87,7.72,25.5,11.19,9.48,3.82,18.56,8.61,27.77,13.05s18.64,9.1,27.94,13.69c3.55,1.75,7.19,3.39,10.54,5.48s6.22,1.65,9-1c11.81-11.11,23.43-22.42,36.33-32.29,5.11-3.9,10.45-7.49,15.68-11.22C226.91,559.8,225.23,558.77,224,557.5Z"/><path class="cls-2" d="M208.93,10.1c-.28,2.09-1.85,2-3.37,2H170.3c-1.52,0-3.09.11-3.36-2q-83.47,0-166.94,0V103.9a38.74,38.74,0,0,1,2.89,12.77c.25,4.34,3,5.83,6.36,6.29,8.76,1.2,16.47,5.54,24.84,7.92,7.15,2,14,5.16,21.2,7,3.72,1,7.08,2.66,10.68,3.81,14.32,4.58,28.37,10.06,42.79,14.27,10.59,3.09,20.9,7,31.39,10.33,7.67,2.44,15.59,4.39,22.87,8.09,3.15,1.61,5.44,1,6.77-2.95,3.81-11.15,7.63-22.32,12.1-33.22,3.53-8.64,6.37-17.48,9.55-26.19,3.91-10.69,7.48-21.56,11.88-32s7.86-21.49,12.09-32.1c3.27-8.2,5.92-16.58,9-24.79,1.63-4.31,2.91-9,5.5-13Z"/><path class="cls-3" d="M28.94,427.44c12.85-1.93,25.35-5.74,38.34-6.88,2.59-.23,5.33-.08,7.87-.88,9.63-3,11.12-2.59,17.63,5.5a37.47,37.47,0,0,0,2.77,2.87c8.13,8,16.36,15.92,24.37,24,16,16.18,31.76,32.53,47.72,48.7,18.72,19,37.56,37.8,56.33,56.71,1.26,1.27,2.94,2.3,3,4.42,2.11,0,3.22,1.64,4.4,3,11.09,12.32,23,23.81,34.62,35.63,5.6,5.71,5.67,9.82,2.49,17.78-.24.6-.47,1.21-.7,1.82h12.88c3.19-8.57,6.31-17.16,9.6-25.69,2.61-6.75,6-13.29,7.5-20.59,1-4.54,3.3-9,5.38-13.42a55.39,55.39,0,0,0,3.75-11c1.45-6.3,2.57-6.59,9-6.6,17.51,0,32.3-6.1,42.56-21.06,4.57-6.65,6.51-14.14,7.12-22.08.3-4,2.74-4.69,6.35-6,8.2-3,16.85-2.42,25.16-4.76,7.22-2,15.1-2.81,22.69-4.08,8.83-1.47,17.88-2.16,26.4-5.32A7.62,7.62,0,0,1,449,479c10.32.34,20.07-3.3,30.21-4.48,10.46-1.23,20.87-3.82,31.34-5.64,12.09-2.11,24.11-4.51,36.25-6.36,6.93-1.06,14.29-1.74,21-4.55V446a17.32,17.32,0,0,0-4,.23c-8.15,2.48-16.62,3.22-25,4.69-8.93,1.59-18,2.81-26.82,4.62-7,1.44-14.14,3-21.08,4.05-9.88,1.54-19.45,5.79-29.76,4.54a4,4,0,0,0-1.41.43c-8.78,2.77-17.89,3.9-26.92,5.46-7.64,1.31-15.52,1.92-22.83,4.29-7.72,2.51-15.84,1.35-23.6,4.29-4.76,1.81-10.7,1.29-16,3-4,1.29-6.8.22-8.75-4a44.49,44.49,0,0,0-8.11-12.31c-12-12.48-26.69-16.49-43.51-13.51-2.25.4-5.1.51-5.77-1.65-1.83-5.95-5-11.17-7.75-16.64a145.78,145.78,0,0,1-7.17-15.76c-2.28-6.35-6.93-11.72-7.57-18.71-2.84-.71-3.82-3.72-4.36-5.51-1.68-5.65-5.67-10-7.67-15.33-3.32-8.85-7.72-17.18-11.73-25.7-4.44-9.43-8.73-18.92-13.22-28.32-1.24-2.61-.94-4.42,1-6.71,14.37-17.13,28.21-34.72,42.93-51.54s28.7-33.84,43-50.75c11.53-13.59,23.46-26.91,34.19-41.2,4.17-5.54,9.5-10.18,13.46-16a4.45,4.45,0,0,1,4.35-1.92c-.28-2.31.63-4,2.18-5.8,7.87-8.86,15.5-17.91,23-27.06q18.09-21.89,36.51-43.53c9.94-11.68,19.85-23.43,29.76-35.14,4.12-4.87,5.72-6.47,14.06-3.1C498.66,45.13,507.78,49.12,517,53c8.29,3.49,16.43,7.44,24.93,10.33,8.91,3,17.18,7.46,25.93,10.77v-11c-10.53-2.82-20.3-7.57-30.29-11.8C528.37,47.41,519,44,509.89,40c-8.69-3.76-17.41-7.43-26.31-10.68a18.83,18.83,0,0,0-6.76-1.29c-10.32.05-20.74-.88-30.94.21-24.14,2.59-48.34,2.33-72.53,3-12.06.34-24.16,1-36.19,2-18.46,1.43-36.93-.23-55.31,1-14.19,1-28.34,2.51-42.58,2.78-6,.12-6-.35-4-6.19,2.4-7,4.7-14,7.62-20.77h-13c-2.59,4-3.87,8.68-5.5,13-3.09,8.21-5.74,16.59-9,24.79-4.23,10.61-7.64,21.53-12.09,32.1s-8,21.35-11.88,32c-3.18,8.71-6,17.55-9.55,26.19-4.47,10.9-8.29,22.07-12.1,33.22-1.33,3.9-3.62,4.56-6.77,2.95-7.28-3.7-15.2-5.65-22.87-8.09-10.49-3.33-20.8-7.24-31.39-10.33-14.42-4.21-28.47-9.69-42.79-14.27-3.6-1.15-7-2.85-10.68-3.81-7.19-1.84-14-5-21.2-7C25.72,128.5,18,124.16,9.25,123c-3.33-.46-6.11-1.95-6.36-6.29A38.74,38.74,0,0,0,0,103.9V132a5.57,5.57,0,0,1,1.48.53c7.28,3.88,15.42,5.33,23,8.32,14.13,5.55,28.85,9.54,43.22,14.49,10.89,3.76,21.84,7.72,33,10.92,4.92,1.41,9.89,3.57,14.74,5.06,10.17,3.11,20.12,6.88,30.29,10,5.07,1.54,10.44,2.59,15.17,5.5,2.17,1.34,2.51,2.89,1.72,4.44-3.28,6.43-5.58,13.34-7.8,20.05-3.08,9.33-7.1,18.26-10.15,27.58-3.45,10.6-8.28,20.76-11.64,31.39-2.25,7.11-5.44,13.84-7.53,21-1.69,5.81-4.1,11.67-6.41,17.43-3.15,7.88-6.06,15.87-9.1,23.79-2.47,6.45-5.06,12.85-7.44,19.33-2.6,7.12-4.92,14.34-7.54,21.45-3.73,10.09-7.59,20.12-11.45,30.16a3.45,3.45,0,0,1-3,2.4c-6.29.17-12.15,2.68-18.39,3.17-7.54.59-14.73,3.05-22.13,4.38a60.75,60.75,0,0,1-8.29,1.38c-4.17.16-8.27.42-11.45,2.25-3.67-.14-5-1.68-5.4-4.67-1.86-14.21-4.7-28.35-5.54-42.61-.58-9.79-2.48-19.45-4.08-28.86C3.49,330,4.42,318.74.4,308.17a12.85,12.85,0,0,1-.4-1.34v67c1.2,6.84,2.94,13.59,3,20.6S6.9,408,6.12,415.32c-.34,3.19-.77,4.62-4.41,4.82L0,420.25v12.42c1.73-.35,3.46-.71,5.17-1.09C13.05,429.87,21.1,428.61,28.94,427.44ZM320.88,463c15.22-2,33.35,15,33.21,33.31a34.75,34.75,0,0,1-34.86,34.48,34,34,0,0,1-33.32-35C286.38,478.33,300.26,461.64,320.88,463Zm-139.11-289c3.23-6,5.24-12.44,7.5-18.63,3.3-9,6.35-18.25,9.83-27.23,4-10.22,7.49-20.62,11.32-30.88,3.68-9.85,8.09-19.46,11-29.64,1.87-6.5,4-13.09,7.61-19A4.76,4.76,0,0,1,234,46.07a305.57,305.57,0,0,0,47.78-1.49c16.11-1.78,32.08-.5,48.07-1.54,30.16-2,60.32-3.27,90.56-3.17,14,.05,27.94-3.52,42.1-2.8,3.63.19,4.3.42,4.13,2.21a28.22,28.22,0,0,1-2,3.26q-11,13.18-22,26.32Q431.23,82.44,419.88,96q-11.81,14.1-23.64,28.17c-11.48,13.71-23.4,27.05-34.54,41.06-7.72,9.71-16,19-24,28.47-13.73,16.34-27.37,32.74-41.11,49.08q-24.31,28.9-48.73,57.73c-2.14,2.53-4.42,5-6.38,7.62-1.54,2.08-2.54,1.74-3.6-.23a182.62,182.62,0,0,1-8.09-16.87c-2.93-7.07-6.69-13.78-10-20.7-4.7-9.9-9.25-19.86-13.95-29.76s-9.41-19.47-14.05-29.23c-4.33-9.09-9.2-18-12.35-27.55C178.33,180.37,180.24,176.73,181.77,173.92ZM96.2,403.51c3.66-6.75,5.38-14.25,8.09-21.35,2.45-6.43,5-12.85,7.39-19.3,3.42-9.07,6.95-18.11,10.28-27.22,2-5.38,4.57-10.66,6.11-16,2-6.85,6-12.88,7.14-20A32.45,32.45,0,0,1,140,288c2.1-3.36,3-7.58,3.92-11.55,1.78-7.93,6.05-14.86,8.56-22.49,2-6.06,4.31-12,6.52-18,2.95-8,5.43-16.19,9.29-23.83,1.25-2.49.09-5.7,2.53-7.89.83-.76,1.28-1.92,2.91-2.06,1.32,2.22,3.06,4.39,4,6.87,4.9,12.76,11.6,24.67,17.17,37.1,4.6,10.26,9.41,20.46,14.41,30.49,5.84,11.72,10.69,23.88,16.82,35.48,7.21,13.65,13.17,28,19.72,42,4.52,9.66,9.17,19.26,13.69,28.92,5.83,12.44,11.48,25,17.4,37.36q6.87,14.34,14.25,28.43c3.38,6.42,3.09,8.82-2.16,13.67-7,6.45-10.59,14.61-13.45,23.72-2.75,8.76-1.56,16.92.79,24.83a41,41,0,0,0,17.29,22.88c5.24,3.44,5,4.45,2.3,10.18-2.79,5.9-4.33,12.31-6.85,18.36-3.65,8.77-6.49,17.87-9.87,26.75-1.59,4.19-3.3,4.27-6.41,1.15-13.79-13.83-27-28.2-41.12-41.72-12.13-11.63-24-23.6-35.4-35.93-15.46-16.69-31.9-32.39-47.8-48.64Q123,437.94,97.36,412C94.64,409.22,94.47,406.7,96.2,403.51Z"/><path class="cls-1" d="M298.77,620.11c5-7.56,9.6-15.31,15-22.58C319.2,590.07,325.2,583,331.36,576c15.78-17.73,34.52-32,54.94-43.79A199,199,0,0,1,422,515.53c6.53-2.22,13.08-4.5,19.56-6.94,3.64-1.37,5.5-.67,6.78,3.62,1.45,4.86,2.93,9.77,4.65,14.58,3.31,9.25,2.95,10.46-6.26,13-15.75,4.25-30,11.6-43.94,19.88a201,201,0,0,0-46.88,38,189.37,189.37,0,0,0-17.14,22.5H567.86q-.11-45.58,0-91.17c-13.48-1.33-26.94-3.35-40.45-3.8-12.54-.41-25,2.24-37.53,3.4-7.42.7-15.74,1-22.92,5.07-3.06,1.72-5.22-1.15-5.81-3.74-1.55-6.91-4.16-13.46-6.3-20.17-1.25-3.91.16-5.3,4.08-5.84,9.1-1.24,18.15-2.9,27.21-4.35,16.82-2.68,33.46-2.57,50.33-1.86,10.59.44,20.81,3.42,31.39,3.3V458c-6.7,2.81-14.06,3.49-21,4.55-12.14,1.85-24.16,4.25-36.25,6.36-10.47,1.82-20.88,4.41-31.34,5.64-10.14,1.18-19.89,4.82-30.21,4.48a7.62,7.62,0,0,0-2.91.49c-8.52,3.16-17.57,3.85-26.4,5.32-7.59,1.27-15.47,2.05-22.69,4.08-8.31,2.34-17,1.8-25.16,4.76-3.61,1.3-6.05,2-6.35,6-.61,7.94-2.55,15.43-7.12,22.08-10.26,15-25,21-42.56,21.06-6.42,0-7.54.3-9,6.6a55.39,55.39,0,0,1-3.75,11c-2.08,4.4-4.42,8.88-5.38,13.42-1.54,7.3-4.89,13.84-7.5,20.59-3.29,8.53-6.41,17.12-9.6,25.69Z"/><path class="cls-2" d="M3,394.4c-.1-7-1.84-13.76-3-20.6v46.45l1.71-.11c3.64-.2,4.07-1.63,4.41-4.82C6.9,408,3.13,401.47,3,394.4Z"/><path class="cls-4" d="M29.75,603.08c6.35,5.91,12.87,11.68,19.69,17h218.3c.23-.61.46-1.22.7-1.82,3.18-8,3.11-12.07-2.49-17.78-11.6-11.82-23.53-23.31-34.62-35.63-1.18-1.32-2.29-2.94-4.4-3-5.23,3.73-10.57,7.32-15.68,11.22-12.9,9.87-24.52,21.18-36.33,32.29-2.77,2.61-5.56,3.09-9,1s-7-3.73-10.54-5.48c-9.3-4.59-18.6-9.18-27.94-13.69S109.16,578,99.68,574.17c-8.63-3.47-17.09-7.26-25.5-11.19-7-3.26-14.14-6.23-21.15-9.42-6.77-3.08-13.8-5.93-20.72-8.85-1.68-.71-2.41,0-3.45.83C20,553,11.16,560.48,2.16,567.77A9.93,9.93,0,0,0,0,570v4.08a11.62,11.62,0,0,0,1.66,2.13C10.63,585.61,20.28,594.26,29.75,603.08Z"/><path class="cls-2" d="M567.82,63.08c-10.53-2.82-20.3-7.57-30.29-11.8C528.37,47.41,519,44,509.89,40c-8.69-3.76-17.41-7.43-26.31-10.68a18.83,18.83,0,0,0-6.76-1.29c-10.32.05-20.74-.88-30.94.21-24.14,2.59-48.34,2.33-72.53,3-12.06.34-24.16,1-36.19,2-18.46,1.43-36.93-.23-55.31,1-14.19,1-28.34,2.51-42.58,2.78-6,.12-6-.35-4-6.19,2.4-7,4.7-14,7.62-20.77q160.44,0,320.9-.1c3.42,0,4.15.66,4.1,4.1C567.69,30.42,567.82,46.75,567.82,63.08Z"/><path class="cls-5" d="M338.73,620.11a189.37,189.37,0,0,1,17.14-22.5,201,201,0,0,1,46.88-38c13.9-8.28,28.19-15.63,43.94-19.88,9.21-2.49,9.57-3.7,6.26-13-1.72-4.81-3.2-9.72-4.65-14.58-1.28-4.29-3.14-5-6.78-3.62-6.48,2.44-13,4.72-19.56,6.94a199,199,0,0,0-35.66,16.72c-20.42,11.82-39.16,26.06-54.94,43.79-6.16,6.92-12.16,14-17.64,21.49-5.35,7.27-10,15-15,22.58Z"/><path class="cls-5" d="M39.54,620.11c-2.4-1.89-4.8-3.81-7.17-5.75C21.12,605.13,10.58,595.15,0,585.21v34.9Z"/><path class="cls-5" d="M569.92,530.94c-13.48-1.33-26.94-3.35-40.45-3.8-12.54-.41-25,2.24-37.53,3.4-7.42.7-15.74,1-22.92,5.07-3.06,1.72-5.22-1.15-5.8-3.74-1.56-6.91-4.16-13.46-6.31-20.17-1.25-3.91.16-5.3,4.08-5.84,9.1-1.24,18.16-2.9,27.21-4.35,16.83-2.68,33.46-2.57,50.34-1.86,10.59.44,20.81,3.42,31.38,3.3Z"/><path class="cls-4" d="M281.9,399c-2.84-.71-3.82-3.72-4.36-5.51-1.68-5.65-5.67-10-7.67-15.33-3.32-8.85-7.72-17.18-11.73-25.7-4.44-9.43-8.73-18.92-13.22-28.32-1.24-2.61-.94-4.42,1-6.71,14.37-17.13,28.21-34.72,42.93-51.54s28.7-33.84,43-50.75c11.53-13.59,23.46-26.91,34.19-41.2,4.17-5.54,9.5-10.18,13.46-16a4.45,4.45,0,0,1,4.35-1.92c5,6.77,10,13.5,14.9,20.32,6.53,9.12,13,18.26,19.4,27.5,11,16,22.72,31.5,33.18,47.88,1,1.53,2.4,2.76,3.47,4.23,4.16,5.71,3.93,7.25-2,10.82-14.59,8.8-28.92,18-43.2,27.3-11.75,7.63-23.93,14.63-35.48,22.54-7.61,5.21-15.49,10-23.09,15.21-6.36,4.38-13,8.33-19.61,12.37-3.53,2.16-3.84,4.86-2.18,8.41,4.42,9.42,8.7,18.89,13,28.37,1.38,3.05-.59,4.67-3.09,4.85-7.3.54-14.29,3-21.19,4.72-5.5,1.39-11.38,2.59-16.94,4.3C295,396.73,288.55,399,281.9,399Zm27.94-111.09c-.37,4,1.83,7.63,5,10.63,10.12,9.55,22,8.12,33.78,4.48,8.3-2.57,13.1-9.73,18.31-16.13,4.92-6,9.35-12.53,17.11-15.51,4.55-1.74,8.9-3.9,13.57-5.49,5.52-1.88,10.54-5.31,15.71-8.19,7-3.91,10-12.5,5.8-17.63-3-3.71-6.27-7.44-10.38-10a104.06,104.06,0,0,0-20.51-9.6c-5.52-2-11-2-16.36-3a22,22,0,0,0-11.73,1c-8.18,3.33-13.63,9.68-16.6,18.14-2.77,7.9-7,15.11-11.05,22.4-3,5.41-8.32,8.45-12.91,12.23C314.52,275.37,309.85,279.85,309.84,287.89Z"/><path class="cls-2" d="M466.62,39.28a28.22,28.22,0,0,1-2,3.26q-11,13.18-22,26.32Q431.23,82.44,419.88,96q-11.81,14.1-23.64,28.17c-11.48,13.71-23.4,27.05-34.54,41.06-7.72,9.71-16,19-24,28.47-13.73,16.34-27.37,32.74-41.11,49.08q-24.31,28.9-48.73,57.73c-2.14,2.53-4.42,5-6.38,7.62-1.54,2.08-2.54,1.74-3.6-.23a182.62,182.62,0,0,1-8.09-16.87c-2.93-7.07-6.69-13.78-10-20.7-4.7-9.9-9.25-19.86-13.95-29.76s-9.41-19.47-14.05-29.23c-4.33-9.09-9.2-18-12.35-27.55-1.13-3.45.78-7.09,2.31-9.9,3.23-6,5.24-12.44,7.5-18.63,3.3-9,6.35-18.25,9.83-27.23,4-10.22,7.49-20.62,11.32-30.88,3.68-9.85,8.09-19.46,11-29.64,1.87-6.5,4-13.09,7.61-19A4.76,4.76,0,0,1,234,46.07a305.57,305.57,0,0,0,47.78-1.49c16.11-1.78,32.08-.5,48.07-1.54,30.16-2,60.32-3.27,90.56-3.17,14,.05,27.94-3.52,42.1-2.8C466.12,37.26,466.79,37.49,466.62,39.28Z"/><path class="cls-2" d="M173.69,202.14c1.32,2.22,3.06,4.39,4,6.87,4.9,12.76,11.6,24.67,17.17,37.1,4.6,10.26,9.41,20.46,14.41,30.49,5.84,11.72,10.69,23.88,16.82,35.48,7.21,13.65,13.17,28,19.72,42,4.52,9.66,9.17,19.26,13.69,28.92,5.83,12.44,11.48,25,17.4,37.36q6.87,14.34,14.25,28.43c3.38,6.42,3.09,8.82-2.16,13.67-7,6.45-10.59,14.61-13.45,23.72-2.75,8.76-1.56,16.92.79,24.83a41,41,0,0,0,17.29,22.88c5.24,3.44,5,4.45,2.3,10.18-2.79,5.9-4.33,12.31-6.85,18.36-3.65,8.77-6.49,17.87-9.87,26.75-1.59,4.19-3.3,4.27-6.41,1.15-13.79-13.83-27-28.2-41.12-41.72-12.13-11.63-24-23.6-35.4-35.93-15.46-16.69-31.9-32.39-47.8-48.64Q123,437.94,97.36,412c-2.72-2.75-2.89-5.27-1.16-8.46,3.66-6.75,5.38-14.25,8.09-21.35,2.45-6.43,5-12.85,7.39-19.3,3.42-9.07,6.95-18.11,10.28-27.22,2-5.38,4.57-10.66,6.11-16,2-6.85,6-12.88,7.14-20A32.45,32.45,0,0,1,140,288c2.1-3.36,3-7.58,3.92-11.55,1.78-7.93,6.05-14.86,8.56-22.49,2-6.06,4.31-12,6.52-18,2.95-8,5.43-16.19,9.29-23.83,1.25-2.49.09-5.7,2.53-7.89C171.61,203.44,172.06,202.28,173.69,202.14Z"/><path class="cls-2" d="M160.93,186.76c-4.73-2.91-10.1-4-15.17-5.5-10.17-3.1-20.12-6.87-30.29-10-4.85-1.49-9.82-3.65-14.74-5.06-11.16-3.2-22.11-7.16-33-10.92-14.37-5-29.09-8.94-43.22-14.49-7.61-3-15.75-4.44-23-8.32A5.57,5.57,0,0,0,0,132V306.83a12.85,12.85,0,0,0,.4,1.34c4,10.57,3.09,21.86,4.93,32.7,1.6,9.41,3.5,19.07,4.08,28.86.84,14.26,3.68,28.4,5.54,42.61.39,3,1.73,4.53,5.4,4.67,3.18-1.83,7.28-2.09,11.45-2.25a60.75,60.75,0,0,0,8.29-1.38c7.4-1.33,14.59-3.79,22.13-4.38,6.24-.49,12.1-3,18.39-3.17a3.45,3.45,0,0,0,3-2.4c3.86-10,7.72-20.07,11.45-30.16,2.62-7.11,4.94-14.33,7.54-21.45,2.38-6.48,5-12.88,7.44-19.33,3-7.92,6-15.91,9.1-23.79,2.31-5.76,4.72-11.62,6.41-17.43,2.09-7.21,5.28-13.94,7.53-21,3.36-10.63,8.19-20.79,11.64-31.39,3.05-9.32,7.07-18.25,10.15-27.58,2.22-6.71,4.52-13.62,7.8-20.05C163.44,189.65,163.1,188.1,160.93,186.76Z"/><path class="cls-2" d="M320.88,463c15.22-2,33.35,15,33.21,33.31a34.75,34.75,0,0,1-34.86,34.48,34,34,0,0,1-33.32-35C286.38,478.33,300.26,461.64,320.88,463ZM346.81,498c1.71-18.53-13.64-29.59-27-29.16-16,.51-28.15,12.2-27.71,28.09.45,16.41,12.57,26.75,28.08,27.79,7.89.52,14.66-3.92,20.06-9.35C345.06,510.56,348.61,504.67,346.81,498Z"/><path class="cls-5" d="M309.84,287.89c0-8,4.68-12.52,9.75-16.71,4.59-3.78,9.93-6.82,12.91-12.23,4-7.29,8.28-14.5,11.05-22.4,3-8.46,8.42-14.81,16.6-18.14a22,22,0,0,1,11.73-1c5.4,1,10.84,1,16.36,3a104.06,104.06,0,0,1,20.51,9.6c4.11,2.57,7.35,6.3,10.38,10,4.17,5.13,1.2,13.72-5.8,17.63-5.17,2.88-10.19,6.31-15.71,8.19-4.67,1.59-9,3.75-13.57,5.49-7.76,3-12.19,9.48-17.11,15.51-5.21,6.4-10,13.56-18.31,16.13-11.79,3.64-23.66,5.07-33.78-4.48C311.67,295.52,309.47,291.85,309.84,287.89Z"/><path class="cls-4" d="M346.81,498c1.8,6.63-1.75,12.52-6.58,17.37-5.4,5.43-12.17,9.87-20.06,9.35-15.51-1-27.63-11.38-28.08-27.79-.44-15.89,11.69-27.58,27.71-28.09C333.17,468.45,348.52,479.51,346.81,498Z"/><path class="cls-2" d="M1064.3,329.83c-.62.42-1.25.83-1.86,1.25-6.55,4.5-13.4,8.57-20.18,12.73-3.63,2.22-4,5-2.24,8.65,4.54,9.69,9,19.43,13.35,29.18,1.41,3.14-.61,4.81-3.18,5-7.51.56-14.7,3.06-21.8,4.86-5.66,1.42-11.71,2.67-17.42,4.43-6.25,1.92-12.83,4.24-19.68,4.23.66,7.19,5.44,12.72,7.79,19.25a147.51,147.51,0,0,0,7.38,16.21c2.84,5.63,6.09,11,8,17.12.68,2.22,3.62,2.11,5.93,1.7,16.92-3,31.71.9,43.93,13.08Z"/><path class="cls-1" d="M574.81,525.72c-.38,4.65-2.6,6.14-6.89,5.43q0,44.48,0,89H700.65c-13.84-14-27.58-28.19-42.42-41.18-12.78-11.19-26-21.8-41.28-29.79-10.79-5.65-21.52-11.13-33.07-15.07-4.86-1.66-3-6.62-2.23-9.34a46.57,46.57,0,0,0,1.7-14.11c0-2.53.83-3.4,3.45-2.49C594.94,511,603,514,611,517.34c12.27,5.14,23.39,12,34.57,19,11.67,7.23,22.06,16.14,32.6,24.9C699.52,579,718.55,599.31,740.07,617q1.93,1.59,3.89,3.15h10.2c-5.77-4.71-11.34-9.68-16.78-14.75-9.75-9.07-19.67-18-28.9-27.61-3.36-3.51-3.12-5.77.51-8.71,9.26-7.5,18.34-15.22,27.47-22.87,1.07-.9,1.83-1.58,3.55-.86,7.12,3,14.35,5.94,21.32,9.11,7.2,3.28,14.56,6.34,21.75,9.69,8.65,4,17.36,7.94,26.24,11.51,9.74,3.93,19.09,8.86,28.57,13.43s19.17,9.36,28.74,14.08c3.65,1.8,7.39,3.49,10.84,5.63s6.39,1.7,9.24-1c12.15-11.42,24.11-23.07,37.38-33.22,5.25-4,10.74-7.7,16.13-11.54,0-2.18-1.75-3.24-3-4.55q-29-29.18-57.95-58.33c-16.43-16.64-32.67-33.46-49.09-50.1-8.24-8.36-16.71-16.49-25.07-24.73a38,38,0,0,1-2.86-3c-6.69-8.32-8.22-8.78-18.13-5.65-2.61.82-5.43.66-8.1.9-13.36,1.18-26.21,5.09-39.44,7.08-8.06,1.21-16.35,2.49-24.45,4.26-8.51,1.85-17.22,3.5-25.89,4.9-8.12,1.3-16.52,1.79-24.46,4.45-2.88,1-6,1-9,1.46-9.2,1.25-18.33,3.05-27.49,4.69-8.14,1.45-16.24,3.25-24.43,4.35-6.88.92-13.32,3.82-20.45,3.82-4.13,0-8.26,1.57-12.4,2.44v48.33c10.43-.45,9.71,4,9.07,10.9C576.62,518.13,575.12,521.87,574.81,525.72Z"/><path class="cls-2" d="M916.23.1h21.59c-2.66,4.11-4,8.93-5.65,13.37-3.19,8.44-5.91,17.06-9.28,25.5-4.35,10.91-7.86,22.14-12.43,33s-8.2,22-12.22,33c-3.28,9-6.2,18.06-9.83,26.94-4.59,11.21-8.52,22.7-12.44,34.18-1.37,4-3.72,4.68-7,3-7.48-3.8-15.64-5.81-23.52-8.32-10.8-3.43-21.4-7.45-32.3-10.63-14.83-4.33-29.28-10-44-14.68-3.7-1.18-7.15-2.93-11-3.91-7.4-1.9-14.45-5.12-21.82-7.21-8.6-2.45-16.53-6.91-25.55-8.15-3.42-.47-6.28-2-6.54-6.47a38.1,38.1,0,0,0-9.44-23.46c-3.54-4-8.38-6.56-13.26-9.1-6.69-3.47-13.66-2.86-19.82-1.21a33.45,33.45,0,0,0-18.54,12.48,5.14,5.14,0,0,1-7.31,1.45C629.74,86,622.53,84.61,616,81.54c-2-1-3.42-2.85-5.7-3.19-7.52-1.1-14-5.08-20.93-7.77-9-3.51-17.57-8.18-26.94-10.83,0-18.52.12-37-.1-55.54C562.3.68,563,0,566.57,0Q719.8.18,873,.1c.28,2.16,1.9,2,3.46,2h36.28C914.33,2.14,916,2.26,916.23.1Z"/><path class="cls-3" d="M595.3,454.56c8.19-1.1,16.29-2.89,24.43-4.35,9.15-1.63,18.28-3.43,27.49-4.68,3-.41,6.17-.5,9-1.46,7.94-2.66,16.34-3.15,24.45-4.46,8.68-1.39,17.39-3,25.9-4.89,8.1-1.77,16.39-3.05,24.45-4.26,13.23-2,26.08-5.9,39.44-7.08,2.67-.24,5.49-.08,8.09-.9,9.92-3.13,11.45-2.67,18.14,5.65a36.16,36.16,0,0,0,2.86,2.95c8.36,8.24,16.82,16.38,25.07,24.73,16.42,16.65,32.66,33.47,49.09,50.11,19.26,19.5,38.64,38.88,57.94,58.33,1.3,1.31,3,2.37,3,4.55,2.18,0,3.32,1.69,4.54,3.05,11.4,12.67,23.68,24.49,35.61,36.65,4,4,5.23,7.3,4.57,11.61h13.69c2.2-6,4.42-11.94,6.71-17.88,2.68-6.94,6.13-13.67,7.71-21.18,1-4.67,3.4-9.28,5.53-13.8a57.11,57.11,0,0,0,3.86-11.36c1.5-6.49,2.65-6.78,9.25-6.79,15,0,28-4.38,38.09-14.71V510.53a35.89,35.89,0,0,1-34.6,26.21,35,35,0,0,1-34.27-36c.47-17.93,14.76-35.1,36-33.75,13.17-1.74,28.46,10.38,32.9,25.49V468.54c-12.22-12.18-27-16.08-43.93-13.08-2.31.41-5.25.52-5.93-1.7-1.89-6.12-5.14-11.5-8-17.12a147.66,147.66,0,0,1-7.38-16.22c-2.35-6.52-7.13-12.05-7.79-19.24-2.92-.73-3.92-3.83-4.47-5.67-1.74-5.81-5.84-10.28-7.9-15.77-3.42-9.1-7.95-17.67-12.07-26.44-4.56-9.69-9-19.46-13.6-29.13-1.28-2.68-1-4.55,1-6.9,14.78-17.62,29-35.72,44.16-53s29.53-34.81,44.29-52.21c7.17-8.46,14.48-16.81,21.6-25.35V171.75c-5.19,6.11-10.45,12.15-15.6,18.28-14.12,16.81-28.16,33.69-42.29,50.49q-25,29.75-50.13,59.39c-2.2,2.61-4.55,5.1-6.57,7.84-1.58,2.14-2.61,1.79-3.7-.23a192.12,192.12,0,0,1-8.33-17.36c-3-7.27-6.87-14.18-10.26-21.3-4.83-10.18-9.51-20.43-14.35-30.61s-9.67-20-14.45-30.07c-4.45-9.35-9.47-18.47-12.71-28.34-1.16-3.55.81-7.29,2.38-10.18,3.32-6.14,5.39-12.8,7.72-19.17,3.39-9.3,6.53-18.78,10.1-28,4.08-10.52,7.72-21.21,11.65-31.76,3.78-10.14,8.32-20,11.35-30.5,1.92-6.68,4.08-13.47,7.83-19.55A4.91,4.91,0,0,1,942,38.13a314.49,314.49,0,0,0,49.15-1.52c16.58-1.84,33-.52,49.45-1.59q11.85-.77,23.7-1.39V23.86q-8.1.48-16.16,1.1c-19,1.47-38-.24-56.9,1.05-14.59,1-29.15,2.58-43.8,2.86-6.21.11-6.15-.36-4.08-6.37,2.47-7.18,4.83-14.39,7.83-21.37H937.82c-2.66,4.11-4,8.93-5.65,13.36C929,22.94,926.26,31.56,922.89,40c-4.35,10.91-7.86,22.14-12.43,33s-8.2,22-12.22,33c-3.28,9-6.2,18.06-9.83,26.94-4.59,11.21-8.52,22.7-12.44,34.18-1.37,4-3.72,4.68-7,3-7.48-3.81-15.64-5.81-23.52-8.32-10.8-3.43-21.4-7.45-32.3-10.63-14.83-4.33-29.28-10-44-14.68-3.7-1.19-7.15-2.93-11-3.91-7.4-1.91-14.45-5.12-21.82-7.21-8.6-2.45-16.53-6.91-25.55-8.15-3.42-.47-6.28-2-6.54-6.47a38.1,38.1,0,0,0-9.44-23.46c-3.54-4-8.38-6.56-13.26-9.1-6.69-3.47-13.66-2.86-19.82-1.21a33.45,33.45,0,0,0-18.54,12.48,5.13,5.13,0,0,1-7.31,1.44C629.74,87,622.53,85.63,616,82.56c-2-.94-3.42-2.84-5.7-3.18-7.52-1.1-14-5.08-20.93-7.77-9-3.51-17.57-8.18-26.94-10.84V72.09c5.55-.33,10.09,2.8,15,4.61,5.6,2.08,10.85,5.09,16.4,7.35,12.62,5.15,25.36,10,38,15.15,3.06,1.24,5.86,3,4.61,7.17-2.14,7,1.18,13.19,3.87,18.94,5,10.65,13.64,17.06,25.87,17.78,2.87.18,4.14,2,4.27,4.78.49,11.32,2.94,22.35,4.92,33.46.68,3.82.56,7.77,1.15,11.67,1.59,10.33,2.71,20.74,4.19,31.09,2,13.91,4.62,27.7,5.37,41.8.34,6.35,3.21,12.51,2.88,19.08,2.65,5.7,2.49,11.89,3,17.93,1.16,12.46,3.43,24.75,5.39,37.09,1.35,8.5,1.28,17.21,3.77,25.56.13.43-.58,1.12-.9,1.69.67,9.85,4,19.29,4.16,29.23.1,7.27,4,14,3.18,21.52-.35,3.28-.8,4.75-4.54,5a122.48,122.48,0,0,0-27.39,4.51c-8,2.36-16.62.8-24.22,5.05-3.65,2.05-8.35.27-12.63,1.21-10.69,2.34-21.59,3.95-32.26,6.1-7.52,1.51-15.7.92-22.95,5.13-3.52,2.05-8.71.06-13.1,1.37-2.57.77-5.36.78-8.06,1.14v13.37c4.13-.87,8.27-2.44,12.4-2.44C582,458.38,588.42,455.49,595.3,454.56ZM874.38,208.92c1.29-2.56.1-5.86,2.6-8.12.86-.77,1.32-2,3-2.11,1.35,2.28,3.15,4.52,4.13,7.06,5,13.13,11.92,25.38,17.65,38.17,4.73,10.56,9.69,21,14.83,31.36,6,12.06,11,24.57,17.31,36.51,7.41,14,13.54,28.77,20.28,43.17,4.65,9.94,9.43,19.81,14.08,29.75,6,12.79,11.81,25.68,17.91,38.43q7.05,14.76,14.65,29.25c3.48,6.6,3.18,9.07-2.22,14.06-7.19,6.64-10.9,15-13.84,24.4-2.82,9-1.61,17.4.81,25.55a42.22,42.22,0,0,0,17.79,23.53c5.39,3.54,5.16,4.58,2.37,10.48-2.87,6.06-4.46,12.66-7.05,18.88-3.75,9-6.67,18.38-10.15,27.52-1.64,4.31-3.4,4.39-6.6,1.18-14.18-14.22-27.79-29-42.3-42.91-12.48-12-24.66-24.28-36.41-37-15.9-17.18-32.82-33.33-49.18-50q-26.24-26.82-52.58-53.54c-2.8-2.82-3-5.41-1.2-8.7,3.76-6.95,5.54-14.66,8.33-22,2.52-6.6,5.09-13.22,7.6-19.85,3.52-9.33,7.14-18.63,10.57-28,2-5.53,4.7-11,6.29-16.44,2-7.05,6.12-13.26,7.34-20.63a33.36,33.36,0,0,1,4.89-12c2.16-3.45,3.12-7.8,4-11.88,1.83-8.16,6.22-15.29,8.81-23.14,2-6.23,4.43-12.37,6.7-18.53C867.85,225.2,870.41,216.78,874.38,208.92Zm-206-75.13C653.33,135,645.75,121,645,110.14c-1-13.3,11.77-24.8,25.89-24.66S694,97.1,694.93,109.92C695.93,123.08,683.39,133.81,668.4,133.79ZM706.78,341.4c-1.89-11.15-.93-22.77-5.07-33.64-1.51-4-.42-8.91-1.59-13.11-2.11-7.64-1.45-15.51-2.76-23.2-2.74-16-4.15-32.24-6.75-48.22-1.51-9.28-.94-18.89-4.4-28-1.57-4.13,0-9.15-1.35-13.67-3.26-10.6-1.91-21.9-5-32.57-1.06-3.7-.1-6.32,4.09-8.39,5.75-2.83,11.13-6.7,14.35-12.71,1.09-2,3-1.64,4.48-.87,7.49,4,15.87,5.48,23.7,8.56,14.53,5.71,29.67,9.81,44.45,14.9,11.21,3.87,22.48,7.95,33.95,11.24,5.06,1.45,10.18,3.67,15.16,5.2,10.46,3.2,20.7,7.08,31.16,10.27,5.22,1.58,10.75,2.66,15.61,5.66,2.23,1.37,2.58,3,1.77,4.57-3.37,6.61-5.74,13.71-8,20.62-3.17,9.59-7.31,18.78-10.44,28.38-3.56,10.9-8.52,21.35-12,32.28-2.32,7.31-5.6,14.23-7.75,21.65-1.73,6-4.21,12-6.59,17.94-3.24,8.11-6.24,16.32-9.36,24.47-2.54,6.64-5.21,13.22-7.65,19.89-2.68,7.32-5.07,14.74-7.76,22.06-3.83,10.38-7.81,20.7-11.78,31a3.56,3.56,0,0,1-3.06,2.47c-6.48.17-12.51,2.75-18.93,3.26-7.75.61-15.15,3.13-22.76,4.51a62.69,62.69,0,0,1-8.53,1.41c-4.29.17-8.5.43-11.77,2.32-3.78-.15-5.16-1.73-5.56-4.81-1.91-14.62-4.84-29.16-5.7-43.83C710.38,361,708.43,351.08,706.78,341.4Z"/><path class="cls-1" d="M1013.49,620.11c3.4-5.32,6.8-10.63,10.54-15.71,5.63-7.67,11.81-15,18.15-22.1A202.75,202.75,0,0,1,1064.3,561V533.36c-10,10.33-23.09,14.69-38.09,14.71-6.6,0-7.75.3-9.25,6.79a57.11,57.11,0,0,1-3.86,11.36c-2.13,4.52-4.54,9.14-5.53,13.8-1.58,7.51-5,14.24-7.71,21.19-2.43,6.28-4.76,12.59-7.09,18.9Z"/><path class="cls-1" d="M1064.3,620.11V608c-3.3,3.88-6.39,7.93-9.35,12.07Z"/><path class="cls-2" d="M700.26,366.22c.67,9.84,4,19.28,4.16,29.22.1,7.28,4,14,3.18,21.52-.35,3.28-.8,4.75-4.54,5a121.92,121.92,0,0,0-27.39,4.52c-8,2.35-16.62.79-24.22,5-3.65,2-8.35.27-12.63,1.21-10.69,2.34-21.59,4-32.26,6.1-7.52,1.51-15.7.92-22.95,5.13-3.52,2.05-8.71.06-13.1,1.37-2.57.77-5.36.78-8.06,1.14V71.06c5.55-.33,10.09,2.8,15,4.61,5.6,2.08,10.85,5.09,16.4,7.35,12.62,5.15,25.36,10,38,15.15,3.06,1.24,5.86,3,4.61,7.17-2.14,7,1.18,13.19,3.87,18.94,5,10.65,13.64,17.06,25.87,17.79,2.87.17,4.14,2,4.27,4.77.49,11.32,2.94,22.35,4.92,33.46.68,3.82.56,7.77,1.15,11.67,1.59,10.33,2.71,20.74,4.19,31.09,2,13.91,4.62,27.7,5.37,41.8.34,6.35,3.21,12.51,2.88,19.09-5.33.85-10.58,2.09-16,2.6-3.58.34-7.36-.46-10.68.73-11.08,4-22.82,2.21-34.17,4.51s-23.12,2.84-34.67,4.5c-2.41.34-2.82,1.31-2.54,3.81,1.11,9.71,3.54,19.14,5.49,28.68,2.38,11.63,4,23.38,6.86,35,1,4.3,2.65,4.4,6,4.6,22.53,1.34,44.91-2.14,67.39-2.12Z"/><path class="cls-4" d="M1064.3,299.94l-77.1,51.63c3.09,11,6.51,22,9.15,33.14,2.17,9.1,4.74,12.82,13,14.85,17.16,4.18,34.4,7.86,51.43,12.79a13.47,13.47,0,0,0,3.49.8Z"/><path class="cls-2" d="M1064.3.1H951.19c-3,7-5.36,14.19-7.83,21.37-2.07,6-2.13,6.49,4.08,6.37,14.65-.28,29.21-1.86,43.8-2.86,18.91-1.29,37.91.42,56.9-1.05q8.05-.62,16.16-1.1Z"/><path class="cls-5" d="M1055,620.11c3-4.14,6-8.19,9.35-12.07V561a202.75,202.75,0,0,0-22.12,21.28c-6.34,7.12-12.52,14.43-18.15,22.1-3.74,5.08-7.14,10.39-10.54,15.71Z"/><path class="cls-5" d="M585.41,537.07c11.54,3.94,22.28,9.42,33.07,15.07,15.28,8,28.5,18.6,41.28,29.79,13.79,12.06,26.62,25.13,39.46,38.18h42.56l-.18-.15c-21.52-17.65-40.55-38-61.93-55.76-10.54-8.76-20.94-17.67-32.6-24.9-11.18-6.94-22.3-13.82-34.58-19-8-3.34-16-6.36-24.16-9.21-2.62-.91-3.48,0-3.45,2.49a46.57,46.57,0,0,1-1.7,14.11C582.37,530.45,580.55,535.41,585.41,537.07Z"/><path class="cls-5" d="M568.18,503.76c10.13-.43,9.44,3.91,8.81,10.6-.35,3.74-1.82,7.38-2.12,11.12-.36,4.52-2.52,6-6.69,5.28Z"/><path class="cls-4" d="M1044.79,351.45c-1.78-3.81-1.45-6.7,2.34-9,5.74-3.53,11.53-7,17.17-10.7V298.6c-12.23,3.62-24.47,4.72-35-5.19-3.41-3.22-5.77-7.15-5.37-11.39,0-8.64,5-13.44,10.46-17.93,4.92-4.06,10.64-7.32,13.85-13.12,4.31-7.82,8.87-15.56,11.85-24a36.29,36.29,0,0,1,4.18-8.41V184.41c-5.56,6.54-11.18,13-16.72,19.54-15.38,18.14-30.51,36.52-46.18,54.44s-30.63,36.91-46,55.29c-2.06,2.45-2.38,4.4-1,7.2,4.81,10.08,9.42,20.26,14.17,30.38,4.3,9.14,9,18.07,12.59,27.57,2.15,5.72,6.43,10.38,8.23,16.44.58,1.92,1.63,5.15,4.67,5.91,7.14,0,14-2.41,20.52-4.42,6-1.83,12.27-3.13,18.17-4.62,7.4-1.86,14.9-4.48,22.73-5.05,2.68-.2,4.79-1.94,3.31-5.21C1054.12,371.71,1049.53,361.55,1044.79,351.45Z"/><path class="cls-2" d="M1064.3,32.6q-11.85.61-23.7,1.39c-16.44,1.07-32.87-.25-49.45,1.59A314.49,314.49,0,0,1,942,37.1a4.91,4.91,0,0,0-5.06,2.54c-3.75,6.08-5.91,12.87-7.83,19.55-3,10.48-7.57,20.36-11.35,30.5-3.93,10.55-7.57,21.24-11.65,31.76-3.57,9.24-6.71,18.71-10.1,28-2.33,6.37-4.4,13-7.72,19.17-1.57,2.89-3.54,6.63-2.38,10.18,3.24,9.87,8.26,19,12.71,28.35,4.78,10,9.69,20,14.45,30.07s9.52,20.42,14.35,30.6c3.39,7.12,7.26,14,10.26,21.3A192.12,192.12,0,0,0,946,306.49c1.09,2,2.12,2.37,3.7.24,2-2.74,4.37-5.24,6.57-7.85q25.07-29.69,50.13-59.39c14.13-16.8,28.17-33.68,42.29-50.49,5.15-6.13,10.41-12.17,15.6-18.28Z"/><path class="cls-2" d="M880,197.66c1.35,2.28,3.15,4.52,4.13,7.07,5,13.12,11.92,25.38,17.65,38.16,4.73,10.56,9.69,21,14.83,31.36,6,12.06,11,24.57,17.31,36.51,7.41,14,13.54,28.77,20.28,43.17,4.65,9.94,9.43,19.81,14.08,29.75,6,12.8,11.81,25.68,17.91,38.43q7.05,14.76,14.65,29.25c3.48,6.6,3.18,9.07-2.22,14.06-7.19,6.64-10.9,15-13.84,24.4-2.82,9-1.61,17.41.81,25.55a42.22,42.22,0,0,0,17.79,23.53c5.39,3.54,5.16,4.58,2.37,10.48-2.87,6.06-4.46,12.66-7.05,18.89-3.75,9-6.67,18.38-10.15,27.52-1.64,4.3-3.4,4.39-6.6,1.17-14.18-14.22-27.79-29-42.3-42.91-12.48-12-24.66-24.28-36.41-37-15.9-17.17-32.82-33.33-49.18-50q-26.24-26.82-52.58-53.54c-2.8-2.82-3-5.41-1.2-8.7,3.76-6.95,5.54-14.66,8.33-22,2.52-6.6,5.09-13.21,7.6-19.84,3.52-9.34,7.14-18.64,10.57-28,2-5.53,4.7-11,6.29-16.44,2-7.05,6.12-13.25,7.34-20.63A33.24,33.24,0,0,1,845.28,286c2.16-3.46,3.12-7.8,4-11.89,1.83-8.15,6.22-15.29,8.81-23.13,2-6.24,4.43-12.38,6.7-18.54,3-8.23,5.59-16.66,9.56-24.52,1.29-2.56.1-5.86,2.6-8.12C877.84,199,878.3,197.8,880,197.66Z"/><path class="cls-2" d="M722.24,418.7c-3.78-.15-5.16-1.73-5.56-4.81-1.91-14.61-4.84-29.16-5.7-43.83-.6-10.07-2.55-20-4.2-29.69-1.89-11.15-.93-22.76-5.07-33.64-1.51-4-.42-8.91-1.59-13.11-2.11-7.64-1.45-15.51-2.76-23.2-2.74-16-4.15-32.23-6.75-48.22-1.51-9.27-.94-18.89-4.4-28-1.57-4.13,0-9.15-1.35-13.67-3.26-10.6-1.91-21.9-5-32.57-1.06-3.7-.1-6.32,4.09-8.39,5.75-2.83,11.13-6.7,14.35-12.71,1.09-2,3-1.64,4.48-.87,7.49,4,15.87,5.48,23.7,8.56,14.53,5.71,29.67,9.81,44.45,14.9,11.21,3.87,22.48,7.95,33.95,11.24,5.06,1.45,10.18,3.67,15.16,5.2,10.46,3.2,20.7,7.08,31.16,10.27,5.22,1.59,10.75,2.66,15.61,5.66,2.23,1.37,2.58,3,1.77,4.57-3.37,6.61-5.74,13.71-8,20.62-3.17,9.59-7.31,18.78-10.44,28.38-3.56,10.9-8.52,21.35-12,32.28-2.32,7.31-5.6,14.24-7.75,21.65-1.73,6-4.21,12-6.59,17.94-3.24,8.11-6.24,16.32-9.36,24.48-2.54,6.63-5.21,13.21-7.65,19.88-2.68,7.32-5.07,14.75-7.76,22.06-3.83,10.38-7.81,20.7-11.78,31a3.56,3.56,0,0,1-3.06,2.47c-6.48.17-12.51,2.75-18.93,3.26-7.75.61-15.15,3.13-22.76,4.51a62.69,62.69,0,0,1-8.53,1.41C729.72,416.55,725.51,416.81,722.24,418.7Z"/><path class="cls-4" d="M700.26,366.22H676.61c-22.48,0-44.86,3.46-67.39,2.12-3.34-.2-4.94-.3-6-4.6-2.83-11.57-4.48-23.32-6.86-35-2-9.54-4.38-19-5.49-28.68-.28-2.5.13-3.47,2.54-3.81,11.55-1.66,23.34-2.2,34.67-4.5s23.09-.55,34.17-4.51c3.32-1.19,7.1-.39,10.68-.73,5.43-.51,10.68-1.75,16-2.6,2.65,5.69,2.49,11.88,3,17.92,1.16,12.46,3.43,24.75,5.39,37.09,1.35,8.5,1.28,17.21,3.77,25.56C701.29,365,700.58,365.64,700.26,366.22Z"/><path class="cls-2" d="M1064.3,491.45c-4.44-15.11-19.73-27.23-32.9-25.48-21.21-1.36-35.5,15.81-36,33.74a35,35,0,0,0,34.27,36,35.88,35.88,0,0,0,34.6-26.21Zm-13,28.47c-5.56,5.59-12.52,10.16-20.64,9.62-16-1.07-28.41-11.7-28.88-28.58-.46-16.35,12-28.38,28.5-28.91,13.76-.44,29.55,10.95,27.79,30C1059.92,508.88,1056.27,514.93,1051.3,519.92Z"/><path class="cls-2" d="M668.4,132.77C653.33,134,645.75,119.93,645,109.11c-1-13.29,11.77-24.79,25.89-24.66S694,96.07,694.93,108.9C695.93,122.05,683.39,132.78,668.4,132.77Zm1.43-42.17c-10.94,0-18.17,8.05-19.18,18.93-.78,8.37,11.72,18.53,19.14,19,8.24.54,19.39-10.51,19.06-18.88C688.42,98.89,681.32,90.28,669.83,90.6Z"/><path class="cls-4" d="M1064.3,187.91q-6.1,7.44-12.27,14.82c-2.06,2.45-2.38,4.4-1,7.2,4.52,9.47,8.86,19,13.31,28.52Z"/><path class="cls-5" d="M1064.3,207.19c-7,4.77-12,11.71-15,20.33-3.67,10.46-9.3,20-14.64,29.68-3.95,7.17-11,11.19-17.1,16.2-6.73,5.55-12.9,11.48-12.92,22.15-.49,5.23,2.42,10.09,6.64,14.07,13.41,12.66,29.13,10.77,44.75,5.94a29.17,29.17,0,0,0,8.32-4.19Z"/><path class="cls-4" d="M1058.07,502.05c1.85,6.83-1.8,12.88-6.77,17.87-5.56,5.59-12.52,10.16-20.64,9.62-16-1.07-28.41-11.7-28.88-28.58-.46-16.35,12-28.38,28.5-28.91C1044,471.61,1059.83,483,1058.07,502.05Z"/><path class="cls-4" d="M669.83,90.6c11.49-.32,18.59,8.29,19,19.06.33,8.37-10.82,19.42-19.06,18.88-7.42-.48-19.92-10.64-19.14-19C651.66,98.65,658.89,90.58,669.83,90.6Z"/><path class="cls-4" d="M833.88,582.66l-14.41-18.74c-13.69-17.84-30.09-33.46-42.76-52.14-1.87-2.77-2.77-4.1,0-7.55,7.45-9.3,15.76-17.77,23.53-26.75,6.37-7.36,12.37-15,19.4-21.83,1.8-1.75,2.82-2,4.56-.31,8.35,8.15,16,17.16,24.7,24.74s14.52,18,24.4,24.34c3,1.91,4.64,5.39,7.09,8,3.71,4,7.9,7.4,11.83,11.11-2.91,5.57-7.91,9.22-12.35,13.34-9.17,8.52-17.53,17.81-26.12,26.89-5.92,6.25-12.86,11.5-18,18.56C835.51,582.71,834.53,582.57,833.88,582.66Z"/><path class="cls-1" d="M725.06,605.83c4.85,4.88,9.8,9.69,14.9,14.28H971.74c1.94-6.52,1.2-10.61-3.69-16C956.18,591,944,578.32,932.62,564.69c-1.22-1.46-2.35-3.25-4.52-3.28-5.4,4.09-10.91,8-16.18,12.29-13.32,10.81-25.34,23.22-37.54,35.4-2.87,2.86-5.74,3.38-9.26,1A116.87,116.87,0,0,0,854.31,604c-9.54-5.1-19.08-10.2-28.67-15.21s-18.78-10.26-28.5-14.51c-8.86-3.87-17.55-8.08-26.18-12.45-7.18-3.63-14.52-6.93-21.7-10.48-7-3.43-14.17-6.59-21.28-9.85-1.72-.78-2.48,0-3.55.9-9.17,8.16-18.29,16.38-27.58,24.37-3.65,3.13-3.9,5.55-.55,9.33C705.48,586.49,715.36,596.06,725.06,605.83Z"/></g></g></svg>