<svg xmlns="http://www.w3.org/2000/svg" viewBox="0 0 644.84 235.83"><defs><style>.cls-1,.cls-3,.cls-5{opacity:0.9;}.cls-2,.cls-5{fill:#ddeefd;}.cls-3,.cls-4{fill:#ccf4ed;}.cls-6{fill:#fefcfa;}.cls-7{fill:#fff;}.cls-8{fill:#3691e0;}</style></defs><g id="Layer_2" data-name="Layer 2"><g id="Layer_1-2" data-name="Layer 1"><g class="cls-1"><path class="cls-2" d="M556.08,154.2l68.24,24.88c10.49,3.83,15.67.4,17.82-2,1.51-1.66,4.62-6.33,1-13.73l-2.68-5.51c-18.31-37.58-48.89-97.34-49.19-97.94-1.57-3.06-6-10.11-13.79-9.64s-11.31,8-12.49,11.27L542.15,124.3A23.34,23.34,0,0,0,556.08,154.2Zm71,10.11-66-24.05a8.49,8.49,0,0,1-5.06-10.88l22.5-61.72C582.66,75.61,610.18,129.51,627.13,164.31Z"/></g><path class="cls-3" d="M508.08,68,455.46,49.06A19.77,19.77,0,0,0,430.2,61L411.32,113.6a19.78,19.78,0,0,0,11.91,25.26l52.63,18.88a19.76,19.76,0,0,0,25.25-11.92L520,93.2A19.76,19.76,0,0,0,508.08,68Zm.14,21L489.34,141.6a7.26,7.26,0,0,1-9.26,4.37l-30.53-11a2,2,0,0,1-1,.12c-2.11-.3-4.14-1-6.24-1.46l-.47-.09c-1.27,0-2.55.1-3.82.1h-.09l-.24.14-.09.06-.24.23c-1.34,1.4-3.46-.73-2.12-2.12a4.89,4.89,0,0,1,2.24-1.31l-10-3.59a7.25,7.25,0,0,1-4.37-9.25L442,65.21a7.23,7.23,0,0,1,9.25-4.37l52.62,18.88A7.25,7.25,0,0,1,508.22,89Z"/><g class="cls-1"><path class="cls-4" d="M261.09,140l-72.84,7.41c-11.2,1.14-15.4-3.42-16.92-6.24-1.05-2-2.93-7.22,2.41-13.48l4-4.66c27.24-31.77,72-81.93,72.43-82.43,2.29-2.57,8.42-8.28,15.86-5.94s9.06,10.48,9.4,13.88l6.72,66A23.37,23.37,0,0,1,261.09,140Zm-71.91-7.51,70.42-7.16a8.5,8.5,0,0,0,7.65-9.25l-6.6-64.93C254.7,57.78,214.4,103,189.18,132.44Z"/></g><path class="cls-5" d="M295.18,114.06l24.83-99A20.2,20.2,0,0,1,344.6.62L393.81,13a20.19,20.19,0,0,1,14.84,24.36l-24.83,99a20.19,20.19,0,0,1-24.59,14.46L310,138.41A20.18,20.18,0,0,1,295.18,114.06Zm101-79.87a7.39,7.39,0,0,0-5.44-8.92L341.51,12.92a7.41,7.41,0,0,0-9,5.3l-24.83,99a7.41,7.41,0,0,0,5.44,8.93l49.21,12.34a7.4,7.4,0,0,0,9-5.3Z"/><path class="cls-6" d="M238.61,140.23l-.06.21,1.85-1a5.48,5.48,0,0,1-4.61-4c-.45-1.71-2.81-1.22-2.94.4a11.16,11.16,0,0,0,4,9.46c1.06.88,3,.1,2.51-1.46-.94-2.86-2.92-7.53-.67-10.26l-2.51-.66,4.36,15.85a1.51,1.51,0,0,0,2.95-.4l1-14.75h-3l-.09,14.4,2.8-.76a16.76,16.76,0,0,1-2.72-6.06,11.93,11.93,0,0,1-.37-3.31,1.2,1.2,0,0,1,.05-.5c-.63,0-.88.24-.76.68a9.5,9.5,0,0,0-.07,1.86c-.22,2.46-.8,4.84-.46,7.32,0,.22.07.44.1.66,0,.56.16.46.64-.3,0-.22-.84-1.11-1-1.35a12.5,12.5,0,0,1-1.36-3c-.48-1.57-3-1.35-2.94.4a17.6,17.6,0,0,0,2.17,7.89L240,150a62.13,62.13,0,0,1-4.79-8.44,12.45,12.45,0,0,1-1.5-4.27,7.42,7.42,0,0,1,1.63-4.39c1.48-2.13,4.07-4.71,6.65-5.36,1.53-.38,2.69.4,4,1a14.92,14.92,0,0,0,4.48,1.32c2.22.29,6.56-.65,7.74,1.92,1.05,2.27-.41,5.62-1.11,7.82a33.64,33.64,0,0,1-3.54,7.91,25,25,0,0,1-6.18,6.39c-1,.75-2.68,2.2-4,1.56s-2.12-2.3-2.66-3.46a11.31,11.31,0,0,1-.28-8.68h-2.89a32,32,0,0,0,3.29,8.3,13.82,13.82,0,0,1,.93,1.94,3.32,3.32,0,0,0,.22.81c1.31.12,1.83-.16,1.56-.83-.05-.14-.08-.29-.12-.43a14.26,14.26,0,0,1-.38-4.65l-2.94.4c.15.59-.4,1.48-.43,2.11a4.61,4.61,0,0,0,3.77,4.71c.72.11,1.72-.17,1.85-1a47.29,47.29,0,0,0,.15-12.52c-.23-1.86-3-2-3,0l-.18,8.57h3a65.77,65.77,0,0,1,.12-11c.19-1.92-2.82-1.91-3,0a65.77,65.77,0,0,0-.12,11,1.5,1.5,0,0,0,3,0l.18-8.57h-3a44.22,44.22,0,0,1-.05,11.72l1.85-1.05a1.65,1.65,0,0,1-1.57-1.62c0-1.13.63-1.91.32-3.11-.44-1.71-2.83-1.23-2.95.4a13.52,13.52,0,0,0,.93,6.75c.82,1.6,3.41,2,4-.06.51-1.91-1.07-4.22-1.93-5.8a26.46,26.46,0,0,1-2.57-6.83c-.36-1.56-2.42-1.29-2.89,0a14.08,14.08,0,0,0,0,9.6c1,2.85,3.37,6.8,6.91,6.46a9.37,9.37,0,0,0,4.62-2.22,34.44,34.44,0,0,0,4.19-3.62,28.12,28.12,0,0,0,5.56-9c1.25-3.12,2.63-6.77,2.7-10.16.07-3.75-2.54-6.07-6.11-6.46-1.94-.22-3.89,0-5.81-.43s-3.34-1.6-5.13-2.07c-3.61-.95-7,1.69-9.44,4.06-2.81,2.75-5.19,6.68-4,10.71,1.31,4.28,3.85,8.44,6.33,12.13A1.5,1.5,0,0,0,240,150a14.09,14.09,0,0,1-1.76-6.37l-3,.4a15.26,15.26,0,0,0,2.6,5c1,1.31,3,2.64,4.38,1,1.18-1.37.34-3.44.4-5.05.07-2.18.65-4.31.65-6.48,0-1.69-.61-3.81-2.65-3.88-1.84-.07-2.61,1.66-2.64,3.23a18.71,18.71,0,0,0,3.5,10.88,1.51,1.51,0,0,0,2.79-.75l.09-14.4c0-1.94-2.87-1.91-3,0l-1,14.75,2.95-.4L239.06,132a1.52,1.52,0,0,0-2.51-.66c-3.16,3.84-1.48,9-.1,13.18l2.5-1.46a8.39,8.39,0,0,1-3.1-7.34l-2.95.4a8.36,8.36,0,0,0,6.7,6.13,1.58,1.58,0,0,0,1.85-1,2.46,2.46,0,0,0,.16-1,1.5,1.5,0,0,0-3,0Z"/><path class="cls-7" d="M236.18,130.89l-1.49,2.91,2.75.36c-.9-3.34,4.07-4.08,6.25-4.38l-1.89-1.45c.09,2.64.09,5.27,0,7.91l2.56-1.06A11.49,11.49,0,0,1,241.8,130c-.4-1.8-2.74-1.14-3,.4l-.79,6c-.23,1.69,2.54,2,2.94.4a9.32,9.32,0,0,0,0-3.29c0-.28-.18-1.18.16-1.35.19-.1-.1,0,.09.15a2.91,2.91,0,0,1,.37.75c.52,1.14,2,.79,2.59,0a17.16,17.16,0,0,0,2.33-4.29l-2.74.36a3.18,3.18,0,0,1,.25,2.28c-.09,1.14-.17,2.28-.24,3.41q-.21,3.42-.28,6.84c-.1,4.55,0,9.11.24,13.66a1.53,1.53,0,0,0,1.9,1.45c2.21-.41,2.74-2.67,2.64-4.6a42.78,42.78,0,0,1,.48-7.49,33.48,33.48,0,0,0,.12-7.62c-.12-1.28-.28-2.56-.37-3.85,0-.64-.09-1.28-.09-1.92,0-.33,0-.65,0-1,.1-.52.07-.63-.08-.31l-1.81.24c1.4.86,1.57,2.81,1.61,4.3a30.89,30.89,0,0,1-.69,6.28,53.62,53.62,0,0,0-1,12.32,1.5,1.5,0,0,0,3,0c.18-3.5.37-7,.55-10.51.15-3,.18-6-1.08-8.84-.63-1.43-2.78-.62-2.8.76a50.83,50.83,0,0,1-.65,9c-.36,1.88,2.37,2.68,2.9.8a72.17,72.17,0,0,0,1.86-8.83c.22-1.45.3-2.93.52-4.37a1,1,0,0,1,.06-.35c.19-.52-.23-.58-1.26-.17,0,.16.2.66.24.84a10.56,10.56,0,0,1,.25,2.18,48.61,48.61,0,0,1-.85,8.67c-.46,2.95-1.49,6-1.25,9a1.52,1.52,0,0,0,2.56,1.06c2.11-2.33,2.76-5.7,3.43-8.68a68.31,68.31,0,0,0,1.53-10.54c.14-1.93-2.86-1.92-3,0a63.22,63.22,0,0,1-1.32,9.28c-.54,2.49-1,5.86-2.76,7.82l2.56,1.06a21.54,21.54,0,0,1,.69-5.58c.35-1.89.64-3.8.89-5.71.43-3.33,1.13-7.26-.17-10.48-.52-1.28-1.91-2.19-3.23-1.37s-1.33,2.67-1.48,4.08a69.53,69.53,0,0,1-2.17,11.26l2.9.8a55.09,55.09,0,0,0,.75-9.77l-2.79.76c1.14,2.56.76,5.57.62,8.29l-.5,9.54h3a47.58,47.58,0,0,1,.17-7.06c.25-2.43.81-4.81,1.16-7.22.53-3.72.94-8.93-2.77-11.21a1.53,1.53,0,0,0-1.82.23c-1.34,1.61-.82,4.35-.64,6.28a60.49,60.49,0,0,1,.49,7c-.07,2.29-.5,4.55-.72,6.82a24.22,24.22,0,0,0-.14,3.29c0,.63.49,2.46-.38,2.62l1.9,1.44c-.27-4.87-.35-9.76-.22-14.64.07-2.44.18-4.88.35-7.32.13-1.84.7-4.15-.51-5.75a1.53,1.53,0,0,0-2.74.36,14.19,14.19,0,0,1-2,3.57h2.59c-.88-1.94-3-3.33-4.91-1.74A3.81,3.81,0,0,0,238,132.6c-.09,1.16.39,2.33.1,3.46l2.95.4.79-6-2.94.4a14.58,14.58,0,0,0,3.32,6.46,1.51,1.51,0,0,0,2.56-1.06c.1-2.64.1-5.27,0-7.91a1.54,1.54,0,0,0-1.9-1.45c-2.31.33-4.71.76-6.51,2.37a5.73,5.73,0,0,0-1.85,5.71,1.52,1.52,0,0,0,2.74.35l1.49-2.91c.88-1.72-1.71-3.24-2.59-1.51Z"/><path class="cls-7" d="M251.7,131.58a7,7,0,0,1,2.08,6.93,89.37,89.37,0,0,1-2.88,8.84,1.52,1.52,0,0,0,2.21,1.69c1.81-.95,2.68-2.88,3.36-4.71a28.84,28.84,0,0,0,1.44-6.29c.14-1,.24-2.08.32-3.12a17.38,17.38,0,0,0,.16-3.22,2.87,2.87,0,0,0-1.73-2.34,4.92,4.92,0,0,0-3.32,0,1.52,1.52,0,0,0-.67,2.51,9.24,9.24,0,0,0,2.78,1.7,7.53,7.53,0,0,1,1.37.42c.09,0,.08,0,0-.05l.06.26c0,.25,0,.5,0,.75,0,2.14-1.36,4.1-2.47,5.85s1.56,3.14,2.59,1.51c1.45-2.29,3-4.85,2.87-7.66a3.53,3.53,0,0,0-1.71-3.34c-.61-.3-1.3-.36-1.92-.63a5.92,5.92,0,0,1-1.44-.93l-.67,2.5c.35-.08.66-.14,1-.19.1,0,.42.12.28,0,.14.16,0,1-.06,1.21l-.06.94c-.12,1.58-.26,3.17-.52,4.74a25.94,25.94,0,0,1-1.15,4.51c-.42,1.13-.91,2.47-2,3.06l2.21,1.7,1.69-5a27.35,27.35,0,0,0,1.41-5.1,9.87,9.87,0,0,0-3.08-8.58c-1.42-1.3-3.55.82-2.12,2.13Z"/><path class="cls-7" d="M438.7,157a1.33,1.33,0,0,0-.12-1.9,5.93,5.93,0,0,0-.61-.53,24.8,24.8,0,0,1-4-4.14,7.25,7.25,0,0,1-.33-3.47,1.67,1.67,0,0,0-1.74-1.88c0-.22,0-.44,0-.67a14.14,14.14,0,0,1,4.42-9.85,1.54,1.54,0,0,1-1.08-2.57,5.46,5.46,0,0,1,.45-.39,1.47,1.47,0,0,0-1,.39,17.2,17.2,0,0,0-5.76,12.42,12.33,12.33,0,0,0,2.33,7.27,10,10,0,0,0,.91,1.93,33,33,0,0,0,2.28,2.87,33.34,33.34,0,0,1,2.47,3.83c.84,1.42,3.34.48,2.74-1.16A22.78,22.78,0,0,0,438.7,157Z"/><path class="cls-6" d="M437.11,161.2c.08.1.14.2.21.3.19.29-.06-.25,0,.09,0,.12.07.23.1.35s.05.45,0,.09c0,.5,0,1,0,1.5a6.48,6.48,0,0,0,.21,2,2.28,2.28,0,0,0,1.67,1.58,16,16,0,0,0,7.31.22,1.5,1.5,0,0,0,1.05-1.84,1.55,1.55,0,0,0-1.85-1l-.43.08c-.11,0-.21,0,0,0q-.4.06-.81.09-.78,0-1.56,0l-.74,0-.37,0h-.11a13.77,13.77,0,0,1-1.53-.3l-.13,0c-.1,0-.07,0,.08,0l.29.31c.06.17.08.2,0,.09a1.94,1.94,0,0,0-.07-.33c.05.26,0-.06,0-.11,0-.51,0-1,0-1.54a5,5,0,0,0-.81-3,1.53,1.53,0,0,0-2.05-.53,1.51,1.51,0,0,0-.54,2Z"/><path class="cls-6" d="M449.28,166.89a13,13,0,0,0,1.26-3.7,17.37,17.37,0,0,1,1.33-3.21,18.79,18.79,0,0,1,4.48-5.51l-2.5-1.46a2.93,2.93,0,0,1-1.24,1.53c-1.63,1-.13,3.62,1.51,2.59a6.21,6.21,0,0,0,2.62-3.32,1.52,1.52,0,0,0-.69-1.7,1.56,1.56,0,0,0-1.82.24,21.08,21.08,0,0,0-6.39,9.46c-.39,1.15-.47,2.54-1.15,3.57a1.51,1.51,0,0,0,.53,2.05,1.54,1.54,0,0,0,2.06-.54Z"/><path class="cls-7" d="M456.34,136.3a11.14,11.14,0,0,0-6-3.13,1.68,1.68,0,0,1,.05.91,1.57,1.57,0,0,1-1.85,1c-2.11-.3-4.14-1-6.24-1.46l-.47-.09c-1.27,0-2.55.1-3.82.1h-.09l-.24.14-.09.06-.24.23a1.22,1.22,0,0,1-.17.15l8.13,1.14c2.67.37,5.78.45,8,2.17,4.19,3.27,4.41,10.77.89,14.61-1.3,1.42.82,3.55,2.12,2.12C460.67,149.53,460.77,141,456.34,136.3Z"/><path class="cls-6" d="M442.3,133.67l-.47-.09c-1.27,0-2.55.1-3.82.1h-.09l-.09.06a1.32,1.32,0,0,0,.33.56,1.81,1.81,0,0,0,.73.4,1.67,1.67,0,0,0,.76.25,11.94,11.94,0,0,0,2.16-.11h.1l.4,0,.14-.05h0a1.56,1.56,0,0,0,1.06-.44,1.69,1.69,0,0,0,.22-.29C443.27,133.88,442.79,133.76,442.3,133.67Z"/><path class="cls-7" d="M456.87,143.21c-.6-3.66-2.55-6.87-6.56-7.1a11,11,0,0,1-2.63-.22c-.78-.24-1.49-.61-2.29-.79a11.48,11.48,0,0,0-1.62-1.09c-.49-.13-1-.25-1.47-.34l-.47-.09c-1.27,0-2.55.1-3.82.1h-.08l-.25.14-.09.06-.24.23a1.48,1.48,0,0,1-2.5-.75,1.37,1.37,0,0,0-.15,1.16c.18.49.37,1,.56,1.46-.22.31-.42.62-.62.93a11.43,11.43,0,0,0-1.07,1.44,12.22,12.22,0,0,0-1.84,6.66,1.42,1.42,0,0,0,.48,1.12c.09,3.16,1.11,6.14,4,8.1a1.23,1.23,0,0,0,.45.17,21.42,21.42,0,0,0,1.82,7.27,1.58,1.58,0,0,0,1.59,1c0,.66-.09,1.32-.13,2a1.53,1.53,0,0,0,2.86.7c.25.1.5.2.76.28a3.41,3.41,0,0,0,3.65-.66c.95-1,1.15-2.85,1.41-4.3a10.7,10.7,0,0,0,.75-1c.56-.82,1.08-1.67,1.63-2.5a23.68,23.68,0,0,1,3.63-4.17C457.39,150.36,457.44,146.73,456.87,143.21Zm-19.24-.47c0-.13.07-.26.1-.38l0-.12v.06c0,.58,0,1.15.07,1.73ZM441,147.3c0-.41,0-.82-.05-1.23H441l.09,1.09Zm.92,8.19c0-.46,0-.92,0-1.37,0,.28.08.56.13.84S442,155.31,441.9,155.49Z"/><path class="cls-6" d="M443.44,161.9a2.21,2.21,0,0,1,.05-.25c0,.16,0,.33,0,.5,0-.06,0-.1-.06-.17A.19.19,0,0,1,443.44,161.9Z"/><path class="cls-5" d="M124.7,148.16l-87.11,36a20.57,20.57,0,0,1-27-10.84L1.51,151.28a20.57,20.57,0,0,1,11.43-26.71l31.72-13.11a7.48,7.48,0,0,0,4.15-9.72l-15-36.39A20.55,20.55,0,0,1,45.2,38.65L74.42,26.56a20.58,20.58,0,0,1,27,10.84l34.75,84.05A20.57,20.57,0,0,1,124.7,148.16ZM17.88,136.52a7.48,7.48,0,0,0-4.16,9.71l9.12,22.06a7.49,7.49,0,0,0,9.81,3.94l87.11-36a7.48,7.48,0,0,0,4.16-9.71l-34.76-84a7.48,7.48,0,0,0-9.8-3.94L50.14,50.59A7.48,7.48,0,0,0,46,60.31L61,96.69A20.57,20.57,0,0,1,49.6,123.4Z"/><path class="cls-8" d="M429.58,176.06c-2.18,19.92-5.13,39.82-6.62,59.77h7.27q3.61-34.49,7.59-68.93c.71-6.07-2.85-9.78-5.89-13.73-4-5.23-4.08-10-1.47-13.89a8.25,8.25,0,0,1,.43-2.1,7.2,7.2,0,0,1,1.89-2.86,4.89,4.89,0,0,1,.48-1.1,5.56,5.56,0,0,1,3.45-2.38l.46-.07a10.23,10.23,0,0,1,4.86-.18,14.12,14.12,0,0,1,4.52.58,1.51,1.51,0,0,1,.87.69c.63.15,1.27.29,1.92.38a1.31,1.31,0,0,1,1,.95,14.62,14.62,0,0,1,6.45,3.37c5.36,5.28,3.66,15.15-1.94,20.36-5.9,5.5-5.47,10.69-5.19,17,.93,20.64,2.77,41.26,3.24,61.91h7c-1.07-16.05-1-32.16-1.6-48.24-.41-10.76-1.07-20.52,4.88-31.51,4.41-8.14,6.24-14.22,5.38-18.75-1.84-4-5.64-6.94-9.79-8.85a11.91,11.91,0,0,1-4.72.5c-3.07-.34-6-1.43-9-1.95a3,3,0,0,1-2.2-1.77c-4.75-.57-10.23-2.87-13.87,2-6.73,9-11.86,18.78-3.45,28.84C430.9,162.54,430.34,169,429.58,176.06Z"/><path class="cls-8" d="M201.21,235.83c7.18-22.14,15.43-44,22.79-66.09,1.47-4.42,3.15-10.05,10.33-6.28,6.3,3.3,19.22-1.28,17.43,12.12-1.16,8.71-1.86,17.48-2.63,26.24,2.25-.14,4.5-.21,6.76-.23-.09-14.14,8.19-28.27.14-42.49-.19-.33.72-1.44,1.37-1.85,9.85-6.09,9.13-16.38,12-25.21,1.09-3.38,1.6-6.91-2.08-9.71-10.55-8-31.65-6.5-40.47,2.48-7.44,7.56-2.27,14.83-.35,22.12,1,3.7,4.53,7-3.07,8.3-3.52.62-3.4,5.18-4.43,8.06-7.46,20.89-16.5,41.48-21.65,62.84-.78,3.27-1.65,6.49-2.57,9.7ZM231,135c2.35-4.78,4.66-11.84,14.67-10.4,3.33,5,17.47-2.25,15.63,10.66-1.51,10.56-11.74,23.72-17.78,23.36C239.6,158.42,228.56,140,231,135Z"/><path class="cls-8" d="M587.51,145.23c-3-1.57-5.72-4.28-8.34-6-3.5-2.31-7.8-2.88-12.06-3-.94.12-1.86.26-2.74.44A34.35,34.35,0,0,0,558.1,139a18.47,18.47,0,0,1-6.15,1.44c-.16.15-.35.28-.5.44-6.5,6.61-2,13-.3,19.34.85,3.24,4,6.09-2.69,7.26-3.08.54-3,4.53-3.87,7-6.52,18.26-14.43,36.25-18.92,54.93q-.78,3.19-1.64,6.36h5.68c6.13-18.63,13.07-37.05,19.27-55.65,1.28-3.88,2.75-8.79,9-5.5,1.83,1,4.3,1.16,6.72,1.43h0a21.23,21.23,0,0,0,2.07-.59c.36-.11.72-.24,1.08-.37.08,0,.56-.17.86-.29,0,0,0,0,.24-.13l.54-.24c.33-.15.66-.29,1-.45a42.29,42.29,0,0,0,6.75-3.9,3.59,3.59,0,0,1,.91-.88c8.6-5.34,8-14.33,10.47-22l.06-.2C588.29,146.44,587.89,145.84,587.51,145.23Zm-5.94,4.83c-1.31,9.23-10.26,20.74-15.54,20.42-3.41-.2-13.07-16.32-10.94-20.65s4.07-10.35,12.83-9.1C570.83,145.06,583.19,138.77,581.57,150.06Z"/><path class="cls-8" d="M574.79,145.23c-1.7.55-3.29,2.58-2.53,4.47a6.82,6.82,0,0,1,.31.9l.09.43c0,.27,0,.54,0,.81,0,.1,0,.2,0,.3v0c-.09.34-.16.69-.27,1,0,.12-.09.23-.13.35a20.15,20.15,0,0,1-1.07,1.85l-.08.13-.13.14q-.33.38-.69.75t-.84.78a2.75,2.75,0,0,1-.26.22l-.1.07c-.6.4-1.2.74-1.83,1.08l-.09.06-.16,0c-.38.13-.76.25-1.14.34l-.22,0,0,0h-.07l-.21,0c-.29.07-.22,0-.06,0-.22,0-.46.06-.57.06s-.3,0-.44,0h-.1a3.43,3.43,0,0,1-.45-.16s0,0,0,0,0,0-.08-.05l-.16-.06c-.23,0-.2-.08-.11-.08l-.05,0c-.11-.06-.54-.35-.54-.34a10.55,10.55,0,0,1-1-.9l-.44-.48-.1-.1s0-.07-.07-.13c-.14-.23-.26-.47-.39-.7.13.21-.12-.4-.2-.62l0-.09a1.44,1.44,0,0,1,0-.18,4,4,0,0,1,0-.49,4.19,4.19,0,0,1,0-.5l-.07.47c-.19-.31.41-1.68.53-2l.19-.51h0c.21-.38.37-.78.56-1.16,1.82-3.59,4.21-7,5.11-11a3.93,3.93,0,0,0-1.23-3.81c-1.53,0-3,0-4.5,0a3.2,3.2,0,0,0-1.27,1.89c-.11.46-.23.92-.37,1.37l-.24.68c0,.06-.06.17-.1.26-.37.85-.8,1.68-1.24,2.5-.93,1.73-2,3.42-2.81,5.21-1.91,4-2.81,8.66-.08,12.61a13.51,13.51,0,0,0,5.63,4.8,11.06,11.06,0,0,0,6.1.67,15.8,15.8,0,0,0,9.48-5.67c2.85-3.49,4.67-8.32,2.91-12.73C578.55,146,576.8,144.58,574.79,145.23ZM560.66,155.7s0-.11,0-.22C560.66,155.6,560.68,155.71,560.66,155.7Zm3.7,3.43h.17A.51.51,0,0,1,564.36,159.13Zm4.85-1.74Z"/><path class="cls-8" d="M581.27,140.76c-.71-.56-1.41-1.09-2.1-1.54-4.93-3.25-11.44-3.06-17.18-3a3.83,3.83,0,0,0-.84,1.12,9.16,9.16,0,0,0-4.82,5.15c0,.09-.05.19-.08.28a3.56,3.56,0,0,0-2.74,4.44,106.32,106.32,0,0,0,7.19,19,3,3,0,0,0,2.53,1.73,18.75,18.75,0,0,0,1.76,3.46,3.64,3.64,0,0,0,6.6-3c3.62-1.16,6.44-4.42,8.18-7.73a25.87,25.87,0,0,0,3-15.44A12.51,12.51,0,0,0,581.27,140.76Zm-8.8,6.2-.13,0C572.42,147,572.47,147,572.47,147Z"/><path class="cls-8" d="M563.91,168.92a1.5,1.5,0,0,0,0-3,1.5,1.5,0,0,0,0,3Z"/><path class="cls-8" d="M558.12,176a62.19,62.19,0,0,0,20.43,9.15c.92.23,4.41.5,4.74.87s-.18,3.43-.3,4.27a40.17,40.17,0,0,1-2.62,9.37c-5,12.48-13.78,23.07-17.21,36.22h7.55c4.19-13.63,14.09-24.76,18.12-38.49,1.68-5.72,4.23-16.18-3.56-18.26-3.92-1.05-7.84-1.64-11.68-3.1a56.29,56.29,0,0,1-11.81-6.3C557.91,167,554.28,173.32,558.12,176Z"/><path class="cls-8" d="M575.93,177.61q2.4-7,5.18-13.8a3.63,3.63,0,0,0-5.33-4.1,4.24,4.24,0,0,0-1.67,2.17q-2.77,6.83-5.18,13.8a3.64,3.64,0,0,0,2.53,4.46,3.73,3.73,0,0,0,4.47-2.53Z"/><path class="cls-8" d="M250.08,235.83a272.59,272.59,0,0,1,6.7-35.26c1.22-4.51-5.78-6.44-7-1.93a284.57,284.57,0,0,0-7,37.19Z"/><path class="cls-8" d="M84.53,174.35a4,4,0,0,1,1,.72A42.65,42.65,0,0,0,93,177.79l1.05.28.58.14c.27.06.3.09.26.1.32.06.82.12.91.14.37.06.75.13,1.13.18.72.11,1.44.19,2.17.23h0c2.37-.67,4.8-1.28,6.47-2.53,5.72-4.3,8,.3,9.92,3.9,10,18.62,20.75,36.88,30.51,55.6h5.92c-1.75-3.57-3.43-7.2-5-10.89-7.58-17.66-18.45-34.09-28-51-1.31-2.34-1.86-6.29-5-6.31-6.83,0-4.2-3.37-3.89-6.7.62-6.57,4.08-13.6-3.5-19-.18-.13-.39-.22-.57-.34a19,19,0,0,1-6.38-.4,34.87,34.87,0,0,0-6.65-1.27c-2.15-.08-4.51.09-6.77.21a37.76,37.76,0,0,0-5.31.91,38.69,38.69,0,0,0-4.4,2,24.57,24.57,0,0,0-2.55,1.53,27.18,27.18,0,0,0-2.82,3.63,14,14,0,0,0-.78,5.19,1.48,1.48,0,0,1-.08.53c.08.16.15.33.23.49C74.19,161.56,75.06,170.54,84.53,174.35ZM90,144.51c8.53-2.71,11.56,3,14.31,6.81,2.84,3.92-4.13,21.43-7.5,22.21-5.22,1.19-16-8.66-18.89-17.54C74.48,145.12,87.86,149.26,90,144.51Z"/><path class="cls-8" d="M104.71,150.83c-1.26-1.94-2.78-3.69-4.23-5.5l-.42-.52a.4.4,0,0,0-.07-.09l-.09-.13c-.32-.43-.63-.86-.93-1.3s-.56-.87-.82-1.33c-.1-.18-.21-.37-.3-.56s-.56-1.25-.16-.28a5,5,0,0,0-1.35-1.87c-1.58.17-3.17.28-4.75.39a3.19,3.19,0,0,0-.9,3.41c1.45,3.53,3.81,6.34,6.18,9.29.12.15.69.9.49.62l.52.71a18.14,18.14,0,0,1,1.24,2c.08.14.15.28.22.43,0,0,0,0,0,0s0,0,0,.06l0,.07c.17.33.11.32,0,.21.07.2.18.43.2.52s.06.25.09.38l0-.05s0,0,0,.07l0,.13c.09.36,0,.34-.05.19,0,.14,0,.28,0,.41,0-.18.14-.29.06,0a1.6,1.6,0,0,1,0,.21s0,.07,0,.08a.14.14,0,0,1,0-.06c0,.11,0,.23-.09.34s-.09.27-.13.41h0c-.21.37-.41.73-.64,1.08l-.22.28c-.17.2-.35.41-.54.6s-.31.27-.51.45c.12-.06.21,0,0,.09l-.16.1,0,.07a.14.14,0,0,1,0-.06,2.61,2.61,0,0,1-.28.17l-.17.1h0c-.31.07-.63.15-.94.24l-.46,0a8.75,8.75,0,0,1-.89,0h-.16l-.25-.06c-.38-.08-.76-.18-1.13-.29l-.46-.15c-.11,0-.8-.18-.24-.08s-.09,0-.23-.11l-.43-.22c-.33-.17-.65-.35-1-.55l-.51-.33-.24-.13a8.25,8.25,0,0,1-1.58-1.54l-.16-.18h0l-.13-.19a12.15,12.15,0,0,1-.66-1.09l-.06-.15a.81.81,0,0,1-.13-.29.18.18,0,0,0-.06-.08l0,0h0c-.06-.19-.09-.59-.16-.86,0,.23,0,.44-.07.08v-.23s0-.06,0-.07,0,0,0,0c0-.14,0-.28,0-.42s0-.28,0-.41a1.42,1.42,0,0,0,0-.2,3.63,3.63,0,0,0-7-1.93c-1.94,8.72,6.57,16.26,14.77,16.69a11.75,11.75,0,0,0,10.82-6.5C107.81,158.91,107.12,154.56,104.71,150.83Zm-16.52,7.63c0-.07-.1-.12-.09-.13ZM96.85,162c-.11.06-.22.12-.24.1S96.72,162,96.85,162Z"/><path class="cls-8" d="M101.88,144.46a9.33,9.33,0,0,0-5.48-4.26,4.24,4.24,0,0,0-.7-.88c-1.81.17-3.62.28-5.43.41-1.33.1-2.69.21-4,.36a16.08,16.08,0,0,0-7,3.09,9.81,9.81,0,0,0-3.14,6.6c-.54,4.88,1.41,10.15,4,14.21s6.34,7.72,11,8.33a3.55,3.55,0,0,0,1.67,3.74c1.58.92,4.14.48,5-1.3a26.42,26.42,0,0,0,1.52-4.3,3.43,3.43,0,0,0,2.27-2.42,105.1,105.1,0,0,0,3.94-20A3.63,3.63,0,0,0,101.88,144.46ZM83.33,150a2.41,2.41,0,0,1,0,.28v0C83.3,150.21,83.31,150.12,83.33,150Zm3.23,1.39s0,0,.11,0C86.56,151.65,86.41,151.1,86.56,151.43Zm.5-1.66c-.35-.46,0-.15,0,0Z"/><path class="cls-8" d="M98.46,171.66a1.5,1.5,0,0,0,0-3,1.5,1.5,0,0,0,0,3Z"/><path class="cls-8" d="M101.43,235.83h8.25c-5.75-11.71-15.84-20.46-22.57-31.55a37.62,37.62,0,0,1-4-8.56,20.3,20.3,0,0,1-1-3.91l.12-.06,1-.33c.94-.36,1.87-.72,2.8-1.1a64.47,64.47,0,0,0,19.81-12.95c3.39-3.22-1.75-8.35-5.13-5.13a57.09,57.09,0,0,1-10.33,7.85c-3.74,2.21-7.76,3.43-11.63,5.29-7.3,3.53-2.44,14,.23,19.28C84.85,216.15,94.89,224.82,101.43,235.83Z"/><path class="cls-8" d="M94.62,178.84q-3.56-6.47-7.45-12.73a3.63,3.63,0,0,0-6.27,3.66q3.9,6.27,7.45,12.74a3.63,3.63,0,0,0,6.27-3.67Z"/><path class="cls-8" d="M569.43,235.83a3.1,3.1,0,0,0-1.24-1.22,3.68,3.68,0,0,0-4.9,1.22Z"/><path class="cls-8" d="M357.77,157.69c-.28-.25.24-1.59.74-2.17,6.94-8.19,4.15-17,3.69-25.63-1.55-.92-3.05-1.94-4.56-2.94-3.61-.84-7.07-2.29-10.7-3.31a20.76,20.76,0,0,0-9.11-.47,52.19,52.19,0,0,1-8.72,1c-4.28,2.7-7.78,6.12-9.69,9.92-4.74,9.49,2.42,14.81,6.49,21.16,2.07,3.22,6.46,5.22-.37,8.84-3.15,1.67-1.64,6-1.73,9-.62,20.92-2.67,42-1.48,62.74h7c.27-19.37,1.07-38.78,1.23-58.14,0-4.67-.09-10.54,7.9-9.16,7,1.2,17.89-7.14,20.32,6.16,1.57,8.64,3.6,17.2,5.57,25.77,2.1-.83,4.22-1.58,6.36-2.3C366.28,184.73,369.81,168.74,357.77,157.69Zm-12,3.44c-3.79,1-20-13.16-19.18-18.63.76-5.27.79-12.7,10.75-14.41,4.69,3.68,15.93-7.52,18.15,5.33C357.26,143.93,351.58,159.61,345.72,161.13Z"/><path class="cls-8" d="M376.37,235.83a284.06,284.06,0,0,1-5.11-38.75c-.23-4.65-7.49-4.68-7.25,0a288.82,288.82,0,0,0,5,38.75Z"/><path class="cls-8" d="M356.78,126.73c-2.87-.74-5.66-1.81-8.53-2.7-2.06.59-3.8,1.51-6.09,1.51-4.63,0-9.36-.74-13.45,2.06a9.51,9.51,0,0,0-4,8.35,3.9,3.9,0,0,0-1.25,3.68c1,6.28,3.37,13.87,9.68,16.37,2.49,4.13,6,7.72,10.76,9,2.85.77,4.67-1.74,4.48-4a4.69,4.69,0,0,0,.94-.43c2.27-1.41,2.15-4.16,3.55-6.17a24.63,24.63,0,0,0,3.12-5.34,35,35,0,0,0,1.72-8.1,48.2,48.2,0,0,0,.35-7.69C357.93,131.11,357.88,128.66,356.78,126.73Zm-14.42,9A74.51,74.51,0,0,0,341,144a65.13,65.13,0,0,0-.43,7.39c0,.93,0,1.9,0,2.87l-.46-.63a3.58,3.58,0,0,0-1-3c-.52-.48-1-1-1.48-1.52l-.08-.16c-1-2-1.92-4.14-3-6.14a3.41,3.41,0,0,0,1.6-.46,3.68,3.68,0,0,0,1.3-5,3.94,3.94,0,0,1-.82-2,8.86,8.86,0,0,1,.11-1c.19-.4.3-.55,1-.67a6.83,6.83,0,0,1,2.7.49c.5.15,1,.33,1.5.5l.51.23C342.45,135.2,342.41,135.48,342.36,135.7ZM349,147.14a10.51,10.51,0,0,1-1.08,1.79c0-.48,0-1,.06-1.44a58.17,58.17,0,0,1,.78-6.71c.4-2.25,1.32-4.62,1.42-6.92a5,5,0,0,0-.56-2.5l1-.35c0,1,.15,1.94.17,2.91C350.87,138.14,350.69,143.21,349,147.14Z"/><path class="cls-8" d="M342.6,147.69c.53.66-.31-.43-.4-.58-.25-.36-.48-.74-.7-1.12s-.38-.69-.55-1.05c-.09-.17-.17-.35-.25-.53.36.75,0,0-.09-.23a18.94,18.94,0,0,1-.75-2.54,7.86,7.86,0,0,1-.21-1.16c0,.79,0,.22,0,.06,0-.31,0-.63,0-.93-.08-.87-.15.38,0-.09.05-.2.11-.4.15-.59.13-.52-.38.67.06,0-.09.14-.5.51-.05.13-.12.1-.63.36-.09.12-.71.32-.36.16-.14.1a2,2,0,0,1-1,0c.6.11-.63-.18-.7-.46,0,.06.61.58.14.09s-.07-.08,0,.09c.21.43-.24-.9-.06-.15a3.6,3.6,0,0,0,.12.44c.14.44-.21,0,0-.29a2.43,2.43,0,0,0,0,.45c0,.15,0,.3,0,.45s-.09,1,0,.35c-.31,2.6-.67,5,.59,7.4a10.65,10.65,0,0,0,4.13,4.05c2.1,1.25,4.59,2.52,7,1.26s2.62-3.85,2.62-6.2l0-14.3a3.63,3.63,0,0,0-7.26,0l0,13.08v1.57c0,.28-.14.9,0,1.14l.07-.52c-.08.29-.07.28.06,0,.73-.89.78-2.09,2.93-1.36.1,0,.68.32.12.05l-.69-.34c-.35-.17-.7-.35-1-.55-.17-.1-.79-.64-1-.63.24,0,.5.43.14.1-.12-.11-.25-.22-.36-.34s-.57-.66-.2-.19-.12-.25-.19-.34c-.26-.38.2.83,0,.06,0-.16-.11-.68-.05,0a8,8,0,0,1,0-1.47c0-.18.11-.91,0-.19l.09-.66a17.56,17.56,0,0,0,.24-2.17,8.22,8.22,0,0,0-2.19-5.85,6,6,0,0,0-7.16-1,7.66,7.66,0,0,0-3.64,6.72c-.1,4.81,2.16,9.54,5.08,13.21,1.19,1.49,3.91,1.33,5.14,0a3.75,3.75,0,0,0,0-5.13Z"/><path class="cls-8" d="M452.45,126.34a1.33,1.33,0,0,1-.79-.47h-1.22l-.61,0-.42-.07-.72-.17c-.48-.12-.95-.26-1.43-.4-.93-.27-1.86-.55-2.81-.73a11.66,11.66,0,0,0-7.37.77,3.64,3.64,0,0,0-1.3,5,3.87,3.87,0,0,0,.75.85,9.11,9.11,0,0,1,5.5-.46,14.12,14.12,0,0,1,4.52.58,1.51,1.51,0,0,1,.87.69c.64.15,1.27.29,1.92.38a1.27,1.27,0,0,1,1,.86q.61,0,1.23,0c.48,0,1,0,1.45,0l.66.08.69.16c.12,0,.92.34.88.3.24.11.47.23.7.36s1.19.82.63.38c1.49,1.18,3.7,1.56,5.13,0a4.12,4.12,0,0,0,.89-3.79A30.15,30.15,0,0,0,452.45,126.34Z"/><path class="cls-8" d="M345.23,152.12V134.61a3.63,3.63,0,1,0-7.26,0v17.51a3.63,3.63,0,0,0,7.26,0Z"/></g></g></svg>