<svg width="1000" height="900" viewBox="0 0 1000 900" fill="none" xmlns="http://www.w3.org/2000/svg">
<rect width="1000" height="900" fill="white"/>
<path opacity="0.5" d="M500 871.081C776.142 871.081 1000 848.166 1000 819.899C1000 791.633 776.142 768.718 500 768.718C223.858 768.718 0 791.633 0 819.899C0 848.166 223.858 871.081 500 871.081Z" fill="#E8FAF7"/>
<path opacity="0.3" d="M545.095 560.596C545.095 571.014 537.097 579.687 526.714 580.531L116.578 613.839C104.932 614.784 94.9591 605.588 94.9591 593.904V71.7568C94.9591 60.0728 104.932 50.8767 116.578 51.8225L526.714 85.1304C537.097 85.9737 545.095 94.6468 545.095 105.065V560.596Z" fill="#00C6A7" fill-opacity="0.3"/>
<path d="M287.218 426.394L415.767 446.859V194.005L287.218 173.54V426.394Z" fill="#CCE9FF"/>
<path opacity="0.13" d="M287.218 426.394L415.767 446.859V194.005L287.218 173.54V426.394Z" fill="#00C6A7"/>
<path d="M287.218 426.394L158.669 446.859V194.005L287.218 173.54V426.394Z" fill="#CCE9FF"/>
<path d="M544.316 426.394L415.767 446.859V194.005L544.316 173.54V426.394Z" fill="#CCE9FF"/>
<path d="M287.218 270.688L158.669 288.453V276.261L287.218 258.496V270.688Z" fill="#F7F7F7"/>
<path d="M287.218 348.367L158.669 366.132V353.94L287.218 336.175V348.367Z" fill="#F7F7F7"/>
<path d="M544.316 270.688L415.767 288.453V276.261L544.316 258.496V270.688Z" fill="#F7F7F7"/>
<path d="M346.577 341.7C361.628 341.7 373.829 328.727 373.829 312.724C373.829 296.721 361.628 283.748 346.577 283.748C331.526 283.748 319.325 296.721 319.325 312.724C319.325 328.727 331.526 341.7 346.577 341.7Z" fill="#0E538C"/>
<path d="M544.316 348.367L415.767 366.132V353.94L544.316 336.175V348.367Z" fill="#F7F7F7"/>
<path d="M287.218 270.688L415.767 288.453V276.261L287.218 258.496V270.688Z" fill="#F7F7F7"/>
<path d="M287.218 348.367L415.767 366.132V353.94L287.218 336.175V348.367Z" fill="#F7F7F7"/>
<path d="M200.613 440.181L189.926 441.836V189.029L200.613 187.328V440.181Z" fill="#F7F7F7"/>
<path d="M261.226 344.434L250.538 346.088V179.412L261.226 177.711V344.434Z" fill="#F7F7F7"/>
<path d="M344.255 435.848L354.943 437.502V184.599L344.255 182.898V435.848Z" fill="#F7F7F7"/>
<path d="M426.455 445.28L415.767 446.935V194.128L426.455 192.427V445.28Z" fill="#F7F7F7"/>
<path d="M477.808 352.167L467.121 353.821V186.062L477.808 184.36V352.167Z" fill="#F7F7F7"/>
<path d="M530.974 428.27L520.286 429.924V341.622L530.974 339.92V428.27Z" fill="#F7F7F7"/>
<path d="M498.392 433.611L487.705 435.265V346.962L498.392 345.261V433.611Z" fill="#F7F7F7"/>
<path d="M461.47 439.503L450.782 441.157V352.855L461.47 351.154V439.503Z" fill="#F7F7F7"/>
<path d="M346.577 270.91C324.857 270.91 307.25 289.631 307.25 312.724C307.25 335.817 324.857 354.538 346.577 354.538C368.297 354.538 385.904 335.817 385.904 312.724C385.904 289.63 368.297 270.91 346.577 270.91ZM346.577 341.699C331.526 341.699 319.325 328.727 319.325 312.724C319.325 296.721 331.526 283.748 346.577 283.748C361.628 283.748 373.829 296.721 373.829 312.724C373.829 328.727 361.628 341.699 346.577 341.699Z" fill="#F7F7F7"/>
<path d="M346.577 341.7C361.628 341.7 373.829 328.727 373.829 312.724C373.829 296.721 361.628 283.748 346.577 283.748C331.526 283.748 319.325 296.721 319.325 312.724C319.325 328.727 331.526 341.7 346.577 341.7Z" fill="#CCE9FF"/>
<path opacity="0.86" d="M346.577 341.7C361.628 341.7 373.829 328.727 373.829 312.724C373.829 296.721 361.628 283.748 346.577 283.748C331.526 283.748 319.325 296.721 319.325 312.724C319.325 328.727 331.526 341.7 346.577 341.7Z" fill="#00C6A7"/>
<path d="M415.776 283.185L415.645 283.167L285.582 265.605L225.217 272.652L225.006 270.845L285.598 263.772L415.758 281.347L471.555 272.695V185.356L473.374 185.066V274.254L415.776 283.185Z" fill="#00C6A7"/>
<path d="M226.662 294.949C220.222 294.949 209.323 293.872 209.323 289.836C209.323 285.8 220.222 284.723 226.662 284.723C233.102 284.723 244.001 285.8 244.001 289.836C244.001 293.872 233.102 294.949 226.662 294.949ZM211.678 289.836C212.206 290.831 217.662 292.609 226.662 292.609C235.663 292.609 241.118 290.831 241.647 289.836C241.118 288.842 235.663 287.063 226.662 287.063C217.661 287.063 212.206 288.842 211.678 289.836Z" fill="#00C6A7"/>
<path d="M236.471 262.973C236.471 257.556 232.08 253.165 226.663 253.165C221.245 253.165 216.854 257.556 216.854 262.973C216.854 262.982 216.854 262.991 216.854 262.999C216.858 264.268 217.192 265.513 217.755 266.65L226.663 284.65L235.57 266.65C236.133 265.513 236.467 264.268 236.471 262.999C236.471 262.991 236.471 262.982 236.471 262.973ZM226.663 268.155C223.801 268.155 221.48 265.835 221.48 262.973C221.48 260.111 223.801 257.791 226.663 257.791C229.524 257.791 231.845 260.111 231.845 262.973C231.845 265.835 229.524 268.155 226.663 268.155Z" fill="#00C6A7"/>
<path opacity="0.6" d="M303.809 263.718C304.659 270.979 310.699 276.965 311.029 284.268C311.424 292.986 303.816 299.687 297.099 305.259C290.482 310.749 283.891 316.739 280.355 324.576C276.818 332.414 277.085 342.575 283.165 348.656C290.391 355.885 302.69 355.013 310.847 361.172C317.07 365.872 319.771 373.758 323.928 380.355C332.857 394.528 349.925 403.144 366.63 401.913C371.241 401.573 376.253 400.245 378.833 396.409C381.945 391.779 380.252 385.44 377.466 380.607C374.679 375.775 370.85 371.36 369.636 365.916C367.056 354.35 377.013 343.967 386.718 337.169C396.423 330.37 407.776 323.258 410.056 311.631C412.485 299.243 403.232 287.582 393.143 279.993C387.143 275.479 380.332 271.326 377.065 264.566C374.384 259.02 374.523 252.516 372.398 246.734C369.458 238.733 361.939 232.603 353.504 231.335C338.006 229.009 335.223 241.608 324.081 247.006C315.85 250.993 302.056 248.75 303.809 263.718Z" fill="#00C6A7"/>
<path d="M614.243 757.898C613.919 763.123 613.454 768.728 610.133 772.774C606.217 777.545 599.528 778.757 593.421 779.654C584.521 780.96 575.622 782.268 566.723 783.574C566.268 784.891 567.807 785.995 569.127 786.442C575.706 788.669 582.874 787.698 589.782 786.978C597.788 786.145 605.834 785.686 613.884 785.605C617.467 785.568 621.717 785.248 623.535 782.161C624.892 779.859 624.271 776.968 623.953 774.314C622.983 766.225 625.259 757.986 624.102 749.923C623.97 748.994 623.669 747.919 622.791 747.585C622.345 747.416 621.846 747.487 621.378 747.582C614.569 748.959 614.621 751.78 614.243 757.898Z" fill="#FFE3CA"/>
<path d="M616.673 778.855C610.042 782.905 603.303 784.003 595.592 783.041C595.121 782.983 592.533 782.413 592.062 782.363C591.788 780.884 591.939 779.434 590.724 779.481C585.147 779.696 579.582 780.161 574.048 780.878C572.291 781.105 565.615 781.26 564.911 782.628C564.283 783.847 564.685 785.404 565.571 786.449C566.457 787.495 567.737 788.12 569.019 788.609C575.339 791.018 582.323 790.733 589.079 790.414C597.388 790.023 605.698 789.631 614.007 789.237C616.842 789.103 619.827 788.923 622.208 787.379C625.711 785.108 626.917 780.526 627.001 776.352C627.153 768.759 619.068 777.393 616.673 778.855Z" fill="#0B4870"/>
<path d="M589.932 381.12C589.932 381.12 608.621 380.033 608.583 379.565C608.15 374.122 603.231 366.052 605.786 361.225C608.339 356.398 610.294 353.666 612.874 348.853C613.255 348.142 613.589 347.171 613.008 346.611C612.531 346.151 611.755 346.303 611.12 346.492C607.704 347.507 604.333 348.68 601.024 350.006C595.42 352.25 590.121 352.193 589.931 358.119C589.723 364.629 589.932 381.12 589.932 381.12Z" fill="#FFE3CA"/>
<path d="M484.063 771.85C483.056 776.987 481.857 782.483 478.033 786.058C473.524 790.273 466.732 790.594 460.562 790.681C451.568 790.808 442.574 790.933 433.58 791.059C432.956 792.305 434.336 793.602 435.586 794.218C441.815 797.291 449.048 797.27 455.991 797.465C464.039 797.692 472.075 798.294 480.065 799.271C483.619 799.706 487.876 799.946 490.084 797.126C491.732 795.021 491.496 792.074 491.53 789.402C491.632 781.257 494.972 773.388 494.883 765.244C494.873 764.305 494.719 763.199 493.891 762.753C493.47 762.527 492.967 762.532 492.49 762.564C485.562 763.032 485.241 765.835 484.063 771.85Z" fill="#FFE3CA"/>
<path d="M632.244 524.503C632.244 524.503 626.218 568.939 623.959 602.831C621.699 636.722 632.997 709.777 632.244 729.359C631.491 748.942 626.972 760.237 626.972 760.237H609.649C609.649 760.237 588.561 669.108 587.808 649.526C587.055 629.943 574.251 529.776 574.251 529.776L632.244 524.503Z" fill="#0B4870"/>
<path d="M401.446 361.745C401.658 363.754 398.765 364.315 398.227 362.369C390.981 336.209 374.23 269.922 374.466 260.806C374.614 255.055 378.722 250.875 378.722 250.875H383.925C383.925 250.875 388.181 255.131 388.655 260.806C388.983 264.762 398.687 335.507 401.446 361.745Z" fill="#0B4870"/>
<path d="M590.332 324.084C588.284 327.925 585.758 332.352 581.442 332.924C580.753 333.015 580.017 333.006 579.422 333.366C578.316 334.035 578.233 335.581 578.281 336.873C578.459 341.797 578.637 346.721 578.816 351.643C578.979 356.143 579.56 361.396 583.412 363.73C586.174 365.404 589.68 364.928 592.851 364.318C595.389 363.831 597.935 363.286 600.314 362.277C607.718 359.14 612.662 351.803 614.959 344.097C616.767 338.029 617.127 331.26 614.436 325.527C609.206 314.387 596.105 313.259 590.332 324.084Z" fill="#FFE3CA"/>
<path d="M623.942 522.492C620.568 522.98 617.213 523.577 613.87 524.242C613.279 523.805 612.483 523.619 611.739 523.478C588.474 519.084 564.411 520.292 542.27 528.678C530.832 563.53 500.2 689.326 493.806 706.282C486.248 726.326 485.357 749.112 480.564 769.991C488.053 771.637 487.222 771.132 494.886 771.41C521.643 708.109 536.538 711.353 540.482 669.192C541.282 660.637 552.546 646.209 557.507 639.193C581.02 605.951 620.974 559.48 627.177 549.634C632.721 540.838 643.754 519.629 623.942 522.492Z" fill="#0B4870"/>
<path d="M402.844 304.483C402.448 302.96 401.919 301.349 400.661 300.401C399.052 299.189 396.756 299.462 394.89 300.221C393.024 300.98 391.325 302.161 389.376 302.674C385.876 303.596 381.724 302.346 378.828 304.513C377.139 305.779 376.332 308.113 376.882 310.149C377.166 311.202 377.765 312.14 378.209 313.138C379.721 316.541 379.448 320.689 381.649 323.693C383.32 325.975 386.088 327.128 388.715 328.174C395.082 330.71 401.45 333.247 407.817 335.783C408.225 335.946 408.696 336.108 409.091 335.914C409.425 335.75 409.597 335.381 409.736 335.036C412.402 328.402 411.259 325.195 407.917 319.824C405.021 315.17 404.204 309.706 402.844 304.483Z" fill="#FFE3CA"/>
<path d="M483.719 792.946C476.612 796.09 469.788 796.291 462.271 794.326C461.812 794.205 459.32 793.302 458.859 793.189C458.783 791.686 459.122 790.269 457.913 790.157C452.358 789.637 446.779 789.367 441.198 789.349C439.425 789.343 432.788 788.62 431.91 789.882C431.128 791.009 431.321 792.603 432.062 793.757C432.803 794.911 433.991 795.699 435.196 796.352C441.146 799.571 448.105 800.207 454.846 800.779C463.134 801.483 471.423 802.186 479.712 802.89C482.539 803.129 485.523 803.344 488.087 802.126C491.858 800.335 493.655 795.951 494.288 791.824C495.436 784.314 486.285 791.811 483.719 792.946Z" fill="#0B4870"/>
<path d="M641.767 397.105C632.986 389.268 623.014 380.962 611.245 381.131C607.323 381.187 547.267 367.69 540.293 367.148C493.692 363.521 455.7 326.282 409.354 320.213C404.75 321.683 403.23 327.919 405.11 332.372C406.989 336.824 411.136 339.837 415.126 342.562C456.825 371.045 500.904 379.8 546.241 402.041C535.797 429.052 557.399 461.712 555.619 468.41C553.715 475.576 536.593 522.821 538.471 529.994C555.366 535.192 568.825 535.884 586.442 537.349C604.059 538.814 622.925 535.637 637.867 526.192C636.228 517.446 628.392 509.378 634.384 506.151C651.539 495.241 668.193 487.012 679.517 470.125C681.701 466.867 683.66 463.337 684.248 459.459C685.87 448.771 654.282 408.276 641.767 397.105ZM631.64 487.146C633.841 477.295 640.244 428.951 640.244 428.951C645.315 431.588 668.7 459.206 668.7 459.206C668.7 459.206 636.616 483.826 631.64 487.146Z" fill="#00C6A7"/>
<path d="M384.61 250.65C381.282 252.469 377.023 251.665 374.425 248.903C372.921 247.304 371.839 245.124 372.864 242.484C375.15 236.607 379.393 229.754 377.435 225.836C375.476 221.918 375.476 222.246 375.476 221.918C375.476 221.592 386.275 227.992 387.88 233.344C391.145 244.228 388.053 248.767 384.61 250.65Z" fill="#F7F7F7"/>
<path d="M398.59 287.379C398.12 286.19 397.477 284.896 396.263 284.491C394.812 284.004 393.216 285.122 392.625 286.533C392.032 287.945 392.176 289.542 392.332 291.065C392.76 295.285 393.189 299.506 393.617 303.725C393.861 306.125 394.394 308.949 396.594 309.94C398.233 310.678 400.285 309.974 401.419 308.579C403.603 305.896 402.157 302.757 401.718 299.776C401.093 295.519 400.175 291.396 398.59 287.379Z" fill="#FFE3CA"/>
<path d="M388.976 238.37C388.761 236.85 388.444 235.222 387.88 233.343C386.275 227.991 375.476 221.591 375.476 221.917C375.476 222.027 375.482 222.073 375.557 222.221C375.582 222.27 375.608 222.321 375.636 222.373C375.84 222.751 376.31 223.585 377.433 225.834C379.297 229.564 375.557 235.946 373.221 241.622C373.904 241.989 374.651 242.111 375.409 241.779C376.993 241.084 377.846 238.719 379.558 238.96C381.974 239.3 381.046 243.876 383.317 244.765C384.723 245.315 386.145 243.916 386.712 242.516C387.279 241.117 387.535 239.475 388.698 238.513C388.785 238.446 388.884 238.42 388.976 238.37Z" fill="#00C6A7"/>
<path d="M627.942 324.492C624.165 320.696 619.256 318.245 614.296 316.225C610.45 314.66 606.412 313.297 602.261 313.381C598.11 313.465 593.79 315.238 591.593 318.76C589.916 321.448 589.657 324.831 590.233 327.946C590.608 329.974 591.497 334.378 593.062 335.879C594.383 337.143 596.48 336.282 597.596 338.137C598.366 339.417 598.273 341.044 597.883 342.486C597.477 343.98 596.735 345.449 595.474 346.349C595.12 346.6 594.723 346.795 594.303 346.925C592.274 347.555 590.942 349.472 591.235 351.576C591.69 354.855 592.906 358.03 594.788 360.753C595.235 361.398 595.732 362.013 596.287 362.565C596.155 363.504 595.904 364.451 595.774 365.388C595.389 368.175 596.576 371.524 599.293 372.254C598.326 371.18 597.378 369.936 597.328 368.491C597.277 367.045 598.588 365.504 599.988 365.869C601.107 366.16 601.658 367.425 601.834 368.567C602.236 371.186 601.444 373.965 599.718 375.975C601.553 374.943 603.445 373.861 604.691 372.164C606.032 370.337 606.491 367.969 607.872 366.172C608.169 365.786 608.508 365.44 608.861 365.108C609.021 365.326 609.186 365.542 609.337 365.763C610.445 367.381 610.553 368.449 609.689 371.045C609.544 371.481 608.643 372.994 608.643 372.994C608.837 372.818 613.375 369.411 610.22 364.128C610.997 363.986 611.768 363.82 612.521 363.582C618.165 361.8 622.27 357.038 626.061 352.494C629.416 348.472 632.908 344.145 633.569 338.951C634.245 333.635 631.719 328.286 627.942 324.492Z" fill="#0B4870"/>
<path d="M624.893 321.869C618.849 322.064 613.869 325.338 614.264 333.555C614.368 335.704 615.073 337.782 615.296 339.922C616.195 348.556 609.433 355.802 605.383 363.478C604.061 365.984 603.098 369.312 604.97 371.437C605 371.472 605.041 371.492 605.073 371.526C606.114 369.805 606.644 367.771 607.874 366.172C608.171 365.786 608.509 365.44 608.863 365.108C609.023 365.326 609.188 365.542 609.339 365.763C610.447 367.381 610.555 368.449 609.691 371.045C609.546 371.481 608.645 372.994 608.645 372.994C608.839 372.818 613.377 369.411 610.221 364.128C610.999 363.986 611.77 363.82 612.523 363.582C618.166 361.8 622.272 357.038 626.063 352.494C629.418 348.472 632.91 344.145 633.57 338.951C634.246 333.638 631.718 328.289 627.941 324.494C626.991 323.536 625.97 322.667 624.893 321.869Z" fill="#0B4870"/>
<path d="M645.134 334.843C646.852 326.836 641.755 318.952 633.749 317.233C625.742 315.514 617.858 320.612 616.139 328.618C614.421 336.625 619.518 344.509 627.524 346.228C635.531 347.946 643.415 342.849 645.134 334.843Z" fill="#0B4870"/>
<path d="M371.178 882.622C370.622 882.622 370.145 882.449 369.749 882.108C369.354 881.768 369.156 881.283 369.156 880.657C369.156 880.088 369.358 879.625 369.764 879.256C370.169 878.888 370.642 878.705 371.178 878.705C371.697 878.705 372.156 878.872 372.556 879.204C372.957 879.538 373.159 880.019 373.159 880.655C373.159 881.271 372.962 881.753 372.57 882.099C372.18 882.446 371.717 882.622 371.178 882.622Z" fill="#F7F7F7"/>
<path d="M601.912 882.611C601.352 882.611 600.88 882.434 600.488 882.094C600.087 881.75 599.889 881.272 599.889 880.649C599.889 880.08 600.091 879.615 600.5 879.245C600.904 878.884 601.375 878.696 601.912 878.696C602.436 878.696 602.893 878.861 603.291 879.189C603.692 879.525 603.893 880.013 603.893 880.649C603.893 881.266 603.697 881.747 603.309 882.093C602.919 882.434 602.454 882.611 601.912 882.611Z" fill="#F7F7F7"/>
<path d="M507.132 876.31C507.905 876.31 508.477 876.373 509.131 876.483L509.315 875.306C509.315 875.306 507.507 874.749 505.132 874.945L504.946 874.304C505.684 874.149 506.239 873.492 506.239 872.708C506.239 871.81 505.507 871.082 504.608 871.082C503.708 871.082 502.978 871.81 502.978 872.708C502.978 873.492 503.531 874.149 504.268 874.304L504.474 875.019C501.951 875.365 499.943 876.35 499.943 876.35L500.298 877.439C501.824 876.931 503.147 876.621 504.349 876.492C505.525 876.364 506.411 876.31 507.132 876.31Z" fill="#F7F7F7"/>
<path d="M589.956 142.061L513.4 138.386V17.3784L589.956 23.5812V142.061Z" fill="#00C6A7"/>
<path d="M115.287 342.095L61.4726 339.511V254.45L115.287 258.81V342.095Z" fill="#00C6A7"/>
<path d="M129.367 389.017L86.1675 386.942V318.659L129.367 322.159V389.017Z" fill="#2A94F4"/>
<path d="M487.825 136.709L420.379 139.209V54.4211L487.825 56.9196V136.709Z" fill="#2A94F4"/>
<path d="M282.88 647.496L215.436 649.994V565.206L282.88 567.706V647.496Z" fill="#00C6A7"/>
<path d="M804.149 449.376C803.545 448.844 802.909 448.321 802.156 448.038C801.269 447.704 800.292 447.727 799.344 447.762C798.019 447.812 796.694 447.879 795.371 447.963C794.749 448.003 794.005 448.126 793.759 448.699C793.493 449.317 794.009 449.985 794.537 450.398C796.172 451.672 798.275 452.219 799.928 453.471C801.583 454.724 802.698 456.62 804.454 457.727C804.963 458.047 805.542 458.3 806.143 458.279C806.736 458.258 807.284 457.972 807.809 457.693C810.115 456.469 809.972 455.748 808.391 453.799C807.114 452.225 805.71 450.677 804.149 449.376Z" fill="#F7F7F7"/>
<path d="M731.806 516.527L753.48 364.233L811.954 356.207L842.367 515.427L731.806 516.527Z" fill="#FCD2B1"/>
<path d="M777.002 752.511L776.94 769.675C776.926 773.168 777.402 776.643 778.35 780.004L779.842 785.291C781.068 789.632 777.804 793.94 773.295 793.924C761.603 793.881 741.62 793.913 736.47 793.922C735.627 793.924 734.801 793.355 734.729 792.515C734.295 787.503 748.771 784.148 759.673 779.927C767.978 776.712 767.536 761.785 766.511 753.068C766.126 749.776 768.871 746.972 772.176 747.247C774.911 747.474 777.013 749.765 777.002 752.511Z" fill="#FCD2B1"/>
<path d="M857.358 747.695L863.273 767.332C863.533 768.199 863.923 769.023 864.43 769.774L868.623 776.001C871.285 779.954 869.369 785.355 864.811 786.745C864.811 786.745 856.358 789.719 847.641 792.582C838.721 795.513 827.5 793.064 827.5 790.71C827.5 785.48 832.376 789.631 840.545 784.169C843.283 782.338 846.108 780.423 848.626 778.446C855.657 772.928 849.518 758.957 845.215 751.088C843.667 748.259 845.311 744.747 848.465 744.074L850.501 743.64C853.494 743.001 856.475 744.765 857.358 747.695Z" fill="#FCD2B1"/>
<path d="M796.943 518.001L732.147 512.564C732.147 512.564 725.623 559.724 741.999 645.093C749.679 685.126 765.684 761.628 765.684 761.628C769.65 763.364 773.684 763.8 777.792 762.776C777.792 762.776 779.007 729.03 779.751 692.69C780.464 657.838 780.656 620.597 782.876 608.413C787.413 583.521 796.943 518.001 796.943 518.001Z" fill="#0B4870"/>
<path d="M783.568 518.823C776.879 554.725 761.934 608.413 790.72 658.847C819.507 709.282 849.741 761.716 849.741 761.716C853.636 761.875 857.17 760.463 860.452 757.971C860.452 757.971 855.405 735.106 848.109 708.408C839.763 677.866 829.19 641.942 832.202 623.21C837.847 588.105 844.331 541.353 842.366 518.649C840.402 495.945 787.086 499.943 783.568 518.823Z" fill="#0B4870"/>
<path d="M729.568 512.649L753.479 364.233L811.953 356.207L843.379 512.925C843.969 515.87 842.062 518.73 839.11 519.289C828.225 521.352 801.964 525.663 772.575 525.663C750.636 525.663 738.307 521.398 732.697 518.697C730.424 517.6 729.167 515.14 729.568 512.649Z" fill="#F7F7F7"/>
<path d="M793.688 365.451C793.688 376.143 795.631 386.732 799.282 396.78C806.425 416.439 817.143 453.613 810.774 486.363C801.604 533.523 789.814 552.588 805.098 563.579C820.381 574.57 849.692 556.23 850.538 550.117C851.384 544.004 844.834 468.905 837.41 436.369C829.986 403.832 809.194 357.059 809.194 357.059L800.384 358C796.576 358.405 793.688 361.62 793.688 365.451Z" fill="#00C6A7"/>
<path d="M769.344 362.055C769.344 362.055 759.202 383.972 762.74 415.462C766.277 446.951 774.474 542.84 745.82 557.32C736.746 561.905 716.025 541.6 716.025 534.067C716.025 526.533 722.942 501.317 729.495 478.392C736.048 455.466 751.841 364.457 751.841 364.457L769.344 362.055Z" fill="#00C6A7"/>
<path d="M777.507 294.128C790.558 294.128 795.426 303.417 795.675 320.602C795.768 327.038 792.873 333.414 790.542 337.486C788.811 340.51 788.336 344.093 789.324 347.436L792.19 357.134C794.138 366.131 789.865 371.065 783.558 372.858C780.433 373.745 776.689 373.058 773.96 371.294C770.716 369.198 770.449 364.689 771.051 360.873L771.792 358.108C772.789 354.382 770.631 350.367 766.862 349.542C756.814 347.344 755.375 336.87 752.682 320.602C749.878 303.646 764.457 294.128 777.507 294.128Z" fill="#FCD2B1"/>
<path d="M788.481 320.919C788.481 324.904 789.964 328.134 793.801 328.134C797.638 328.134 800.1 322.654 800.1 318.671C800.1 314.686 797.638 313.706 793.801 313.706C789.964 313.706 788.481 316.934 788.481 320.919Z" fill="#FCD2B1"/>
<path d="M790.069 338.41C790.069 338.41 780.322 351.809 768.194 349.994C768.194 349.994 770.712 351.198 771.325 353.155C771.325 353.154 782.844 352.303 790.069 338.41Z" fill="#FCD2B1"/>
<path d="M755.366 363.982C755.366 363.982 741.627 366.37 705.784 411.174C690.252 444.029 689.174 431.605 689.174 431.605C689.174 431.605 692.683 452.521 702.839 447.742C712.994 442.963 744.615 409.382 744.615 409.382L755.366 363.982Z" fill="#00C6A7"/>
<path d="M697.153 410.606C692.944 417.34 687.78 423.379 687.472 431.315C687.164 439.251 692.646 448.004 700.583 448.232C707.156 448.419 713.161 433.951 713.161 433.951L741.627 371.443L729.402 366.823C729.4 366.82 703.792 399.988 697.153 410.606Z" fill="#00C6A7"/>
<path d="M740.456 371.081C740.644 371.353 740.83 371.626 741.017 371.899C745.258 366.992 749.215 361.84 752.863 356.477C753.804 355.093 754.753 353.62 754.907 351.954C755.104 349.847 754.002 347.861 752.938 346.032C751.715 343.93 750.558 341.174 749.336 339.071C751.314 336.739 753.293 334.407 755.273 332.076C756.078 331.128 756.9 330.151 757.316 328.979C757.732 327.806 757.662 326.378 756.817 325.465C755.973 324.552 754.758 324.285 753.825 325.11C749.505 328.93 730.529 360.983 730.048 365.497C729.755 368.238 729.596 371.382 731.537 373.338C733.889 375.709 738.003 373.349 740.456 371.081Z" fill="#FCD2B1"/>
<path d="M758.21 301.916C758.21 301.916 777.939 303.558 784.036 299.175C784.036 299.175 786.381 312.803 790.067 315.326C793.754 317.849 791.629 312.382 795.275 313.767C795.275 313.767 798.135 297.462 785.178 292.507C772.221 287.553 764.408 281.456 764.408 281.456L770.124 287.363L760.788 284.695L765.361 289.078L747.449 288.125L752.33 290.411L743.638 296.7L755.364 296.128L742.682 303.369L755.364 300.892L750.307 304.321L758.21 301.916Z" fill="#0B4870"/>
<path d="M692.97 436.622C692.418 436.248 691.737 435.875 691.121 436.126C690.688 436.303 690.429 436.739 690.142 437.11C687.023 441.129 679.328 438.445 676.395 442.602C675.194 444.306 675.313 446.678 676.194 448.567C677.075 450.456 678.603 451.957 680.148 453.355C684.123 456.949 694.635 458.235 694.635 458.235L707.865 462.167L708.478 456.452L702.11 451.512C702.11 451.512 703.752 448.07 703.315 447.425C700.092 442.672 695.604 438.41 692.97 436.622Z" fill="#FCD2B1"/>
<path d="M693.653 436.456C693.118 435.855 692.547 435.26 691.834 434.888C690.993 434.451 690.02 434.357 689.073 434.279C687.752 434.171 686.429 434.079 685.105 434.006C684.482 433.971 683.73 434.006 683.416 434.546C683.079 435.126 683.511 435.85 683.988 436.324C685.459 437.783 687.482 438.579 688.973 440.018C690.467 441.46 691.348 443.474 692.959 444.783C693.425 445.163 693.971 445.483 694.57 445.533C695.162 445.582 695.739 445.364 696.294 445.151C698.73 444.21 698.674 443.477 697.337 441.353C696.256 439.637 695.046 437.931 693.653 436.456Z" fill="#FCD2B1"/>
<path d="M809.194 357.058C824.393 361.87 844.908 380.474 843.316 396.337C840.705 422.378 835.214 460.12 824.422 478.009C819.557 486.071 806.217 483.12 796.871 481.985C769.446 478.655 715.187 471.483 691.201 457.776C692.135 453.809 692.156 450.385 694.29 446.914C719.022 445.838 776.678 448.396 800.362 455.6L806.545 420.259" fill="#00C6A7"/>
<path d="M614.243 757.898C613.919 763.123 613.454 768.728 610.133 772.774C606.217 777.545 599.528 778.757 593.421 779.654C584.521 780.96 575.622 782.268 566.723 783.574C566.268 784.891 567.807 785.995 569.127 786.442C575.706 788.669 582.874 787.698 589.782 786.978C597.788 786.145 605.834 785.686 613.884 785.605C617.467 785.568 621.717 785.248 623.535 782.161C624.892 779.859 624.271 776.968 623.953 774.314C622.983 766.225 625.259 757.986 624.102 749.923C623.97 748.994 623.669 747.919 622.791 747.585C622.345 747.416 621.846 747.487 621.378 747.582C614.569 748.959 614.621 751.78 614.243 757.898Z" fill="#FFE3CA"/>
<path d="M616.673 778.855C610.042 782.905 603.303 784.003 595.592 783.041C595.121 782.983 592.533 782.413 592.062 782.363C591.788 780.884 591.939 779.434 590.724 779.481C585.147 779.696 579.582 780.161 574.048 780.878C572.291 781.105 565.615 781.26 564.911 782.628C564.283 783.847 564.685 785.404 565.571 786.449C566.457 787.495 567.737 788.12 569.019 788.609C575.339 791.018 582.323 790.733 589.079 790.414C597.388 790.023 605.698 789.631 614.007 789.237C616.842 789.103 619.827 788.923 622.208 787.379C625.711 785.108 626.917 780.526 627.001 776.352C627.153 768.759 619.068 777.393 616.673 778.855Z" fill="#0B4870"/>
<path d="M589.932 381.12C589.932 381.12 608.621 380.033 608.583 379.565C608.15 374.122 603.231 366.052 605.786 361.225C608.339 356.398 610.294 353.666 612.874 348.853C613.255 348.142 613.589 347.171 613.008 346.611C612.531 346.151 611.755 346.303 611.12 346.492C607.704 347.507 604.333 348.68 601.024 350.006C595.42 352.25 590.121 352.193 589.931 358.119C589.723 364.629 589.932 381.12 589.932 381.12Z" fill="#FFE3CA"/>
<path d="M484.063 771.85C483.056 776.987 481.857 782.483 478.033 786.058C473.524 790.273 466.732 790.594 460.562 790.681C451.568 790.808 442.574 790.933 433.58 791.059C432.956 792.305 434.336 793.602 435.586 794.218C441.815 797.291 449.048 797.27 455.991 797.465C464.039 797.692 472.075 798.294 480.065 799.271C483.619 799.706 487.876 799.946 490.084 797.126C491.732 795.021 491.496 792.074 491.53 789.402C491.632 781.257 494.972 773.388 494.883 765.244C494.873 764.305 494.719 763.199 493.891 762.753C493.47 762.527 492.967 762.532 492.49 762.564C485.562 763.032 485.241 765.835 484.063 771.85Z" fill="#FFE3CA"/>
<path d="M632.244 524.503C632.244 524.503 626.218 568.939 623.959 602.831C621.699 636.722 632.997 709.777 632.244 729.359C631.491 748.942 626.972 760.237 626.972 760.237H609.649C609.649 760.237 588.561 669.108 587.808 649.526C587.055 629.943 574.251 529.776 574.251 529.776L632.244 524.503Z" fill="#0B4870"/>
<path d="M401.446 361.745C401.658 363.754 398.765 364.315 398.227 362.369C390.981 336.209 374.23 269.922 374.466 260.806C374.614 255.055 378.722 250.875 378.722 250.875H383.925C383.925 250.875 388.181 255.131 388.655 260.806C388.983 264.762 398.687 335.507 401.446 361.745Z" fill="#0B4870"/>
<path d="M590.332 324.084C588.284 327.925 585.758 332.352 581.442 332.924C580.753 333.015 580.017 333.006 579.422 333.366C578.316 334.035 578.233 335.581 578.281 336.873C578.459 341.797 578.637 346.721 578.816 351.643C578.979 356.143 579.56 361.396 583.412 363.73C586.174 365.404 589.68 364.928 592.851 364.318C595.389 363.831 597.935 363.286 600.314 362.277C607.718 359.14 612.662 351.803 614.959 344.097C616.767 338.029 617.127 331.26 614.436 325.527C609.206 314.387 596.105 313.259 590.332 324.084Z" fill="#FFE3CA"/>
<path d="M623.942 522.492C620.568 522.98 617.213 523.577 613.87 524.242C613.279 523.805 612.483 523.619 611.739 523.478C588.474 519.084 564.411 520.292 542.27 528.678C530.832 563.53 500.2 689.326 493.806 706.282C486.248 726.326 485.357 749.112 480.564 769.991C488.053 771.637 487.222 771.132 494.886 771.41C521.643 708.109 536.538 711.353 540.482 669.192C541.282 660.637 552.546 646.209 557.507 639.193C581.02 605.951 620.974 559.48 627.177 549.634C632.721 540.838 643.754 519.629 623.942 522.492Z" fill="#0B4870"/>
<path d="M402.844 304.483C402.448 302.96 401.919 301.349 400.661 300.401C399.052 299.189 396.756 299.462 394.89 300.221C393.024 300.98 391.325 302.161 389.376 302.674C385.876 303.596 381.724 302.346 378.828 304.513C377.139 305.779 376.332 308.113 376.882 310.149C377.166 311.202 377.765 312.14 378.209 313.138C379.721 316.541 379.448 320.689 381.649 323.693C383.32 325.975 386.088 327.128 388.715 328.174C395.082 330.71 401.45 333.247 407.817 335.783C408.225 335.946 408.696 336.108 409.091 335.914C409.425 335.75 409.597 335.381 409.736 335.036C412.402 328.402 411.259 325.195 407.917 319.824C405.021 315.17 404.204 309.706 402.844 304.483Z" fill="#FFE3CA"/>
<path d="M483.719 792.946C476.612 796.09 469.788 796.291 462.271 794.326C461.812 794.205 459.32 793.302 458.859 793.189C458.783 791.686 459.122 790.269 457.913 790.157C452.358 789.637 446.779 789.367 441.198 789.349C439.425 789.343 432.788 788.62 431.91 789.882C431.128 791.009 431.321 792.603 432.062 793.757C432.803 794.911 433.991 795.699 435.196 796.352C441.146 799.571 448.105 800.207 454.846 800.779C463.134 801.483 471.423 802.186 479.712 802.89C482.539 803.129 485.523 803.344 488.087 802.126C491.858 800.335 493.655 795.951 494.288 791.824C495.436 784.314 486.285 791.811 483.719 792.946Z" fill="#0B4870"/>
<path d="M641.767 397.105C632.986 389.268 623.014 380.962 611.245 381.131C607.323 381.187 547.267 367.69 540.293 367.148C493.692 363.521 455.7 326.282 409.354 320.213C404.75 321.683 403.23 327.919 405.11 332.372C406.989 336.824 411.136 339.837 415.126 342.562C456.825 371.045 500.904 379.8 546.241 402.041C535.797 429.052 557.399 461.712 555.619 468.41C553.715 475.576 536.593 522.821 538.471 529.994C555.366 535.192 568.825 535.884 586.442 537.349C604.059 538.814 622.925 535.637 637.867 526.192C636.228 517.446 628.392 509.378 634.384 506.151C651.539 495.241 668.193 487.012 679.517 470.125C681.701 466.867 683.66 463.337 684.248 459.459C685.87 448.771 654.282 408.276 641.767 397.105ZM631.64 487.146C633.841 477.295 640.244 428.951 640.244 428.951C645.315 431.588 668.7 459.206 668.7 459.206C668.7 459.206 636.616 483.826 631.64 487.146Z" fill="#00C6A7"/>
<path d="M384.61 250.65C381.282 252.469 377.023 251.665 374.425 248.903C372.921 247.304 371.839 245.124 372.864 242.484C375.15 236.607 379.393 229.754 377.435 225.836C375.476 221.918 375.476 222.246 375.476 221.918C375.476 221.592 386.275 227.992 387.88 233.344C391.145 244.228 388.053 248.767 384.61 250.65Z" fill="#F7F7F7"/>
<path d="M398.59 287.379C398.12 286.19 397.477 284.896 396.263 284.491C394.812 284.004 393.216 285.122 392.625 286.533C392.032 287.945 392.176 289.542 392.332 291.065C392.76 295.285 393.189 299.506 393.617 303.725C393.861 306.125 394.394 308.949 396.594 309.94C398.233 310.678 400.285 309.974 401.419 308.579C403.603 305.896 402.157 302.757 401.718 299.776C401.093 295.519 400.175 291.396 398.59 287.379Z" fill="#FFE3CA"/>
<path d="M388.976 238.37C388.761 236.85 388.444 235.222 387.88 233.343C386.275 227.991 375.476 221.591 375.476 221.917C375.476 222.027 375.482 222.073 375.557 222.221C375.582 222.27 375.608 222.321 375.636 222.373C375.84 222.751 376.31 223.585 377.433 225.834C379.297 229.564 375.557 235.946 373.221 241.622C373.904 241.989 374.651 242.111 375.409 241.779C376.993 241.084 377.846 238.719 379.558 238.96C381.974 239.3 381.046 243.876 383.317 244.765C384.723 245.315 386.145 243.916 386.712 242.516C387.279 241.117 387.535 239.475 388.698 238.513C388.785 238.446 388.884 238.42 388.976 238.37Z" fill="#00C6A7"/>
<path d="M627.942 324.492C624.165 320.696 619.256 318.245 614.296 316.225C610.45 314.66 606.412 313.297 602.261 313.381C598.11 313.465 593.79 315.238 591.593 318.76C589.916 321.448 589.657 324.831 590.233 327.946C590.608 329.974 591.497 334.378 593.062 335.879C594.383 337.143 596.48 336.282 597.596 338.137C598.366 339.417 598.273 341.044 597.883 342.486C597.477 343.98 596.735 345.449 595.474 346.349C595.12 346.6 594.723 346.795 594.303 346.925C592.274 347.555 590.942 349.472 591.235 351.576C591.69 354.855 592.906 358.03 594.788 360.753C595.235 361.398 595.732 362.013 596.287 362.565C596.155 363.504 595.904 364.451 595.774 365.388C595.389 368.175 596.576 371.524 599.293 372.254C598.326 371.18 597.378 369.936 597.328 368.491C597.277 367.045 598.588 365.504 599.988 365.869C601.107 366.16 601.658 367.425 601.834 368.567C602.236 371.186 601.444 373.965 599.718 375.975C601.553 374.943 603.445 373.861 604.691 372.164C606.032 370.337 606.491 367.969 607.872 366.172C608.169 365.786 608.508 365.44 608.861 365.108C609.021 365.326 609.186 365.542 609.337 365.763C610.445 367.381 610.553 368.449 609.689 371.045C609.544 371.481 608.643 372.994 608.643 372.994C608.837 372.818 613.375 369.411 610.22 364.128C610.997 363.986 611.768 363.82 612.521 363.582C618.165 361.8 622.27 357.038 626.061 352.494C629.416 348.472 632.908 344.145 633.569 338.951C634.245 333.635 631.719 328.286 627.942 324.492Z" fill="#0B4870"/>
<path d="M624.893 321.869C618.849 322.064 613.869 325.338 614.264 333.555C614.368 335.704 615.073 337.782 615.296 339.922C616.195 348.556 609.433 355.802 605.383 363.478C604.061 365.984 603.098 369.312 604.97 371.437C605 371.472 605.041 371.492 605.073 371.526C606.114 369.805 606.644 367.771 607.874 366.172C608.171 365.786 608.509 365.44 608.863 365.108C609.023 365.326 609.188 365.542 609.339 365.763C610.447 367.381 610.555 368.449 609.691 371.045C609.546 371.481 608.645 372.994 608.645 372.994C608.839 372.818 613.377 369.411 610.221 364.128C610.999 363.986 611.77 363.82 612.523 363.582C618.166 361.8 622.272 357.038 626.063 352.494C629.418 348.472 632.91 344.145 633.57 338.951C634.246 333.638 631.718 328.289 627.941 324.494C626.991 323.536 625.97 322.667 624.893 321.869Z" fill="#0B4870"/>
<path d="M645.134 334.843C646.852 326.836 641.755 318.952 633.749 317.233C625.742 315.514 617.858 320.612 616.139 328.618C614.421 336.625 619.518 344.509 627.524 346.228C635.531 347.946 643.415 342.849 645.134 334.843Z" fill="#0B4870"/>
<path d="M804.149 449.376C803.545 448.844 802.909 448.321 802.156 448.038C801.269 447.704 800.292 447.727 799.344 447.762C798.019 447.812 796.694 447.879 795.371 447.963C794.749 448.003 794.005 448.126 793.759 448.699C793.493 449.317 794.009 449.985 794.537 450.398C796.172 451.672 798.275 452.219 799.928 453.471C801.583 454.724 802.698 456.62 804.454 457.727C804.963 458.047 805.542 458.3 806.143 458.279C806.736 458.258 807.284 457.972 807.809 457.693C810.115 456.469 809.972 455.748 808.391 453.799C807.114 452.225 805.71 450.677 804.149 449.376Z" fill="#F7F7F7"/>
<path d="M731.806 516.527L753.48 364.233L811.954 356.207L842.367 515.427L731.806 516.527Z" fill="#FCD2B1"/>
<path d="M777.002 752.511L776.94 769.675C776.926 773.168 777.402 776.643 778.35 780.004L779.842 785.291C781.068 789.632 777.804 793.94 773.295 793.924C761.603 793.881 741.62 793.913 736.47 793.922C735.627 793.924 734.801 793.355 734.729 792.515C734.295 787.503 748.771 784.148 759.673 779.927C767.978 776.712 767.536 761.785 766.511 753.068C766.126 749.776 768.871 746.972 772.176 747.247C774.911 747.474 777.013 749.765 777.002 752.511Z" fill="#A4866F"/>
<path d="M857.358 747.695L863.273 767.332C863.533 768.199 863.923 769.023 864.43 769.774L868.623 776.001C871.285 779.954 869.369 785.355 864.811 786.745C864.811 786.745 856.358 789.719 847.641 792.582C838.721 795.513 827.5 793.064 827.5 790.71C827.5 785.48 832.376 789.631 840.545 784.169C843.283 782.338 846.108 780.423 848.626 778.446C855.657 772.928 849.518 758.957 845.215 751.088C843.667 748.259 845.311 744.747 848.465 744.074L850.501 743.64C853.494 743.001 856.475 744.765 857.358 747.695Z" fill="#A4866F"/>
<path d="M796.943 518.001L732.147 512.564C732.147 512.564 725.623 559.724 741.999 645.093C749.679 685.126 765.684 761.628 765.684 761.628C769.65 763.364 773.684 763.8 777.792 762.776C777.792 762.776 779.007 729.03 779.751 692.69C780.464 657.838 780.656 620.597 782.876 608.413C787.413 583.521 796.943 518.001 796.943 518.001Z" fill="#0B4870"/>
<path d="M783.568 518.823C776.879 554.725 761.934 608.413 790.72 658.847C819.507 709.282 849.741 761.716 849.741 761.716C853.636 761.875 857.17 760.463 860.452 757.971C860.452 757.971 855.405 735.106 848.109 708.408C839.763 677.866 829.19 641.942 832.202 623.21C837.847 588.105 844.331 541.353 842.366 518.649C840.402 495.945 787.086 499.943 783.568 518.823Z" fill="#0B4870"/>
<path d="M729.568 512.649L753.479 364.233L811.953 356.207L843.379 512.925C843.969 515.87 842.062 518.73 839.11 519.289C828.225 521.352 801.964 525.663 772.575 525.663C750.636 525.663 738.307 521.398 732.697 518.697C730.424 517.6 729.167 515.14 729.568 512.649Z" fill="#F7F7F7"/>
<path d="M793.688 365.451C793.688 376.143 795.631 386.732 799.282 396.78C806.425 416.439 817.143 453.613 810.774 486.363C801.604 533.523 789.814 552.588 805.098 563.579C820.381 574.57 849.692 556.23 850.538 550.117C851.384 544.004 844.834 468.905 837.41 436.369C829.986 403.832 809.194 357.059 809.194 357.059L800.384 358C796.576 358.405 793.688 361.62 793.688 365.451Z" fill="#00C6A7"/>
<path d="M769.344 362.055C769.344 362.055 759.202 383.972 762.74 415.462C766.277 446.951 774.474 542.84 745.82 557.32C736.746 561.905 716.025 541.6 716.025 534.067C716.025 526.533 722.942 501.317 729.495 478.392C736.048 455.466 751.841 364.457 751.841 364.457L769.344 362.055Z" fill="#00C6A7"/>
<path d="M777.507 294.128C790.558 294.128 795.426 303.417 795.675 320.602C795.768 327.038 792.873 333.414 790.542 337.486C788.811 340.51 788.336 344.093 789.324 347.436L792.19 357.134C794.138 366.131 789.865 371.065 783.558 372.858C780.433 373.745 776.689 373.058 773.96 371.294C770.716 369.198 770.449 364.689 771.051 360.873L771.792 358.108C772.789 354.382 770.631 350.367 766.862 349.542C756.814 347.344 755.375 336.87 752.682 320.602C749.878 303.646 764.457 294.128 777.507 294.128Z" fill="#A4866F"/>
<path d="M788.481 320.919C788.481 324.904 789.964 328.134 793.801 328.134C797.638 328.134 800.1 322.654 800.1 318.671C800.1 314.686 797.638 313.706 793.801 313.706C789.964 313.706 788.481 316.934 788.481 320.919Z" fill="#A4866F"/>
<path d="M790.069 338.41C790.069 338.41 780.322 351.809 768.194 349.994C768.194 349.994 770.712 351.198 771.325 353.155C771.325 353.154 782.844 352.303 790.069 338.41Z" fill="#A4866F"/>
<path d="M755.366 363.982C755.366 363.982 741.627 366.37 705.784 411.174C690.252 444.029 689.174 431.605 689.174 431.605C689.174 431.605 692.683 452.521 702.839 447.742C712.994 442.963 744.615 409.382 744.615 409.382L755.366 363.982Z" fill="#00C6A7"/>
<path d="M697.153 410.606C692.944 417.34 687.78 423.379 687.472 431.315C687.164 439.251 692.646 448.004 700.583 448.232C707.156 448.419 713.161 433.951 713.161 433.951L741.627 371.443L729.402 366.823C729.4 366.82 703.792 399.988 697.153 410.606Z" fill="#00C6A7"/>
<path d="M740.456 371.081C740.644 371.353 740.83 371.626 741.017 371.899C745.258 366.992 749.215 361.84 752.863 356.477C753.804 355.093 754.753 353.62 754.907 351.954C755.104 349.847 754.002 347.861 752.938 346.032C751.715 343.93 750.558 341.174 749.336 339.071C751.314 336.739 753.293 334.407 755.273 332.076C756.078 331.128 756.9 330.151 757.316 328.979C757.732 327.806 757.662 326.378 756.817 325.465C755.973 324.552 754.758 324.285 753.825 325.11C749.505 328.93 730.529 360.983 730.048 365.497C729.755 368.238 729.596 371.382 731.537 373.338C733.889 375.709 738.003 373.349 740.456 371.081Z" fill="#A4866F"/>
<path d="M758.21 301.916C758.21 301.916 777.939 303.558 784.036 299.175C784.036 299.175 786.381 312.803 790.067 315.326C793.754 317.849 791.629 312.382 795.275 313.767C795.275 313.767 798.135 297.462 785.178 292.507C772.221 287.553 764.408 281.456 764.408 281.456L770.124 287.363L760.788 284.695L765.361 289.078L747.449 288.125L752.33 290.411L743.638 296.7L755.364 296.128L742.682 303.369L755.364 300.892L750.307 304.321L758.21 301.916Z" fill="#0B4870"/>
<path d="M692.97 436.622C692.418 436.248 691.737 435.875 691.121 436.126C690.688 436.303 690.429 436.739 690.142 437.11C687.023 441.129 679.328 438.445 676.395 442.602C675.194 444.306 675.313 446.678 676.194 448.567C677.075 450.456 678.603 451.957 680.148 453.355C684.123 456.949 694.635 458.235 694.635 458.235L707.865 462.167L708.478 456.452L702.11 451.512C702.11 451.512 703.752 448.07 703.315 447.425C700.092 442.672 695.604 438.41 692.97 436.622Z" fill="#A4866F"/>
<path d="M693.653 436.456C693.118 435.855 692.547 435.26 691.834 434.888C690.993 434.451 690.02 434.357 689.073 434.279C687.752 434.171 686.429 434.079 685.105 434.006C684.482 433.971 683.73 434.006 683.416 434.546C683.079 435.126 683.511 435.85 683.988 436.324C685.459 437.783 687.482 438.579 688.973 440.018C690.467 441.46 691.348 443.474 692.959 444.783C693.425 445.163 693.971 445.483 694.57 445.533C695.162 445.582 695.739 445.364 696.294 445.151C698.73 444.21 698.674 443.477 697.337 441.353C696.256 439.637 695.046 437.931 693.653 436.456Z" fill="#A4866F"/>
<path d="M809.194 357.058C824.393 361.87 844.908 380.474 843.316 396.337C840.705 422.378 835.214 460.12 824.422 478.009C819.557 486.071 806.217 483.12 796.871 481.985C769.446 478.655 715.187 471.483 691.201 457.776C692.135 453.809 692.156 450.385 694.29 446.914C719.022 445.838 776.678 448.396 800.362 455.6L806.545 420.259" fill="#00C6A7"/>
<path d="M868.624 776.001C868.624 776.001 855.735 784.678 846.914 786.235C838.092 787.791 834.978 786.235 834.978 786.235C834.978 786.235 826.674 785.812 824.729 790.483C822.783 795.154 836.71 799.921 846.677 797.878C856.645 795.835 870.656 787.183 870.656 787.183C870.656 787.183 874.377 775.628 868.624 776.001Z" fill="#0B4870"/>
<path d="M777.177 783.404C777.177 783.404 762.811 789.323 753.856 789.081C744.9 788.838 742.162 786.689 742.162 786.689C742.162 786.689 734.112 784.612 731.269 788.797C728.426 792.983 741.115 800.445 751.29 800.44C761.464 800.436 776.926 794.766 776.926 794.766C776.926 794.766 782.889 784.19 777.177 783.404Z" fill="#0B4870"/>
<path d="M249.158 136.709L181.713 139.209V54.4211L249.158 56.9196V136.709Z" fill="#2A94F4"/>
</svg>
