<svg width="1000" height="866" viewBox="0 0 1000 866" fill="none" xmlns="http://www.w3.org/2000/svg">
<path opacity="0.5" d="M500 854.081C776.142 854.081 1000 831.166 1000 802.899C1000 774.632 776.142 751.718 500 751.718C223.858 751.718 0 774.632 0 802.899C0 831.166 223.858 854.081 500 854.081Z" fill="#E8FAF7"/>
<path opacity="0.3" d="M545.095 543.596C545.095 554.014 537.097 562.687 526.713 563.53L116.578 596.838C104.932 597.784 94.959 588.588 94.959 576.904V54.7567C94.959 43.0727 104.932 33.8766 116.578 34.8224L526.713 68.1303C537.097 68.9736 545.095 77.6467 545.095 88.0646V543.596Z" fill="#00C6A7" fill-opacity="0.3"/>
<path d="M287.218 409.394L415.767 429.859V177.005L287.218 156.54V409.394Z" fill="#CCE9FF"/>
<path opacity="0.13" d="M287.218 409.394L415.767 429.859V177.005L287.218 156.54V409.394Z" fill="#00C6A7"/>
<path d="M287.218 409.394L158.669 429.859V177.005L287.218 156.54V409.394Z" fill="#CCE9FF"/>
<path d="M544.316 409.394L415.767 429.859V177.005L544.316 156.54V409.394Z" fill="#CCE9FF"/>
<path d="M287.218 253.688L158.669 271.453V259.261L287.218 241.496V253.688Z" fill="#F7F7F7"/>
<path d="M287.218 331.367L158.669 349.132V336.94L287.218 319.175V331.367Z" fill="#F7F7F7"/>
<path d="M544.316 253.688L415.767 271.453V259.261L544.316 241.496V253.688Z" fill="#F7F7F7"/>
<path d="M346.577 324.7C361.628 324.7 373.83 311.727 373.83 295.724C373.83 279.721 361.628 266.748 346.577 266.748C331.526 266.748 319.325 279.721 319.325 295.724C319.325 311.727 331.526 324.7 346.577 324.7Z" fill="#0E538C"/>
<path d="M544.316 331.367L415.767 349.132V336.94L544.316 319.175V331.367Z" fill="#F7F7F7"/>
<path d="M287.218 253.688L415.767 271.453V259.261L287.218 241.496V253.688Z" fill="#F7F7F7"/>
<path d="M287.218 331.367L415.767 349.132V336.94L287.218 319.175V331.367Z" fill="#F7F7F7"/>
<path d="M200.614 423.181L189.926 424.835V172.029L200.614 170.328V423.181Z" fill="#F7F7F7"/>
<path d="M261.226 327.434L250.539 329.088V162.412L261.226 160.711V327.434Z" fill="#F7F7F7"/>
<path d="M344.255 418.848L354.943 420.502V167.599L344.255 165.898V418.848Z" fill="#F7F7F7"/>
<path d="M426.455 428.28L415.767 429.934V177.128L426.455 175.427V428.28Z" fill="#F7F7F7"/>
<path d="M477.808 335.167L467.121 336.821V169.062L477.808 167.36V335.167Z" fill="#F7F7F7"/>
<path d="M530.974 411.27L520.287 412.924V324.621L530.974 322.92V411.27Z" fill="#F7F7F7"/>
<path d="M498.392 416.611L487.705 418.265V329.962L498.392 328.261V416.611Z" fill="#F7F7F7"/>
<path d="M461.47 422.503L450.782 424.157V335.855L461.47 334.154V422.503Z" fill="#F7F7F7"/>
<path d="M346.577 253.91C324.857 253.91 307.25 272.631 307.25 295.724C307.25 318.818 324.857 337.538 346.577 337.538C368.296 337.538 385.904 318.817 385.904 295.724C385.904 272.63 368.296 253.91 346.577 253.91ZM346.577 324.7C331.526 324.7 319.325 311.727 319.325 295.724C319.325 279.721 331.526 266.748 346.577 266.748C361.628 266.748 373.829 279.721 373.829 295.724C373.829 311.727 361.628 324.7 346.577 324.7Z" fill="#F7F7F7"/>
<path d="M346.577 324.7C361.628 324.7 373.83 311.727 373.83 295.724C373.83 279.721 361.628 266.748 346.577 266.748C331.526 266.748 319.325 279.721 319.325 295.724C319.325 311.727 331.526 324.7 346.577 324.7Z" fill="#CCE9FF"/>
<path opacity="0.86" d="M346.577 324.7C361.628 324.7 373.83 311.727 373.83 295.724C373.83 279.721 361.628 266.748 346.577 266.748C331.526 266.748 319.325 279.721 319.325 295.724C319.325 311.727 331.526 324.7 346.577 324.7Z" fill="#00C6A7"/>
<path d="M415.776 266.185L415.645 266.167L285.582 248.605L225.217 255.652L225.006 253.845L285.598 246.772L415.758 264.347L471.555 255.695V168.356L473.374 168.066V257.254L415.776 266.185Z" fill="#00C6A7"/>
<path d="M226.662 277.949C220.222 277.949 209.323 276.872 209.323 272.836C209.323 268.8 220.222 267.723 226.662 267.723C233.102 267.723 244.001 268.8 244.001 272.836C244.001 276.872 233.102 277.949 226.662 277.949ZM211.677 272.836C212.206 273.831 217.661 275.609 226.662 275.609C235.663 275.609 241.118 273.831 241.647 272.836C241.118 271.842 235.663 270.063 226.662 270.063C217.661 270.063 212.205 271.842 211.677 272.836Z" fill="#00C6A7"/>
<path d="M236.471 245.973C236.471 240.556 232.08 236.165 226.663 236.165C221.246 236.165 216.854 240.556 216.854 245.973C216.854 245.982 216.854 245.991 216.854 245.999C216.858 247.268 217.193 248.513 217.755 249.65L226.663 267.65L235.57 249.65C236.133 248.513 236.467 247.268 236.471 245.999C236.471 245.991 236.471 245.982 236.471 245.973ZM226.663 251.155C223.801 251.155 221.481 248.835 221.481 245.973C221.481 243.111 223.801 240.791 226.663 240.791C229.525 240.791 231.845 243.111 231.845 245.973C231.845 248.835 229.525 251.155 226.663 251.155Z" fill="#00C6A7"/>
<path opacity="0.6" d="M303.809 246.718C304.659 253.979 310.699 259.965 311.029 267.268C311.424 275.986 303.816 282.687 297.099 288.259C290.481 293.749 283.891 299.739 280.354 307.576C276.818 315.414 277.085 325.575 283.165 331.656C290.391 338.885 302.69 338.013 310.847 344.172C317.07 348.872 319.771 356.758 323.928 363.355C332.857 377.528 349.925 386.144 366.63 384.913C371.241 384.573 376.253 383.245 378.833 379.409C381.945 374.779 380.252 368.44 377.466 363.607C374.679 358.775 370.85 354.36 369.635 348.916C367.056 337.35 377.013 326.967 386.718 320.169C396.423 313.37 407.776 306.258 410.056 294.631C412.485 282.243 403.232 270.582 393.143 262.993C387.143 258.479 380.332 254.326 377.065 247.566C374.384 242.02 374.523 235.516 372.398 229.734C369.458 221.733 361.939 215.603 353.504 214.335C338.006 212.009 335.223 224.608 324.081 230.006C315.85 233.993 302.056 231.75 303.809 246.718Z" fill="#00C6A7"/>
<path d="M614.243 740.897C613.92 746.123 613.455 751.728 610.133 755.774C606.217 760.545 599.528 761.757 593.421 762.654C584.522 763.96 575.622 765.268 566.723 766.574C566.269 767.891 567.807 768.995 569.127 769.442C575.706 771.669 582.874 770.698 589.782 769.978C597.788 769.144 605.834 768.686 613.884 768.605C617.467 768.568 621.717 768.248 623.535 765.161C624.892 762.859 624.272 759.968 623.953 757.314C622.984 749.225 625.259 740.986 624.102 732.923C623.97 731.993 623.67 730.919 622.792 730.585C622.345 730.416 621.846 730.487 621.378 730.582C614.569 731.958 614.621 734.78 614.243 740.897Z" fill="#FFE3CA"/>
<path d="M616.674 761.855C610.042 765.905 603.303 767.002 595.593 766.041C595.122 765.983 592.533 765.413 592.062 765.362C591.788 763.884 591.939 762.434 590.724 762.481C585.148 762.696 579.582 763.161 574.048 763.878C572.291 764.105 565.616 764.26 564.911 765.628C564.283 766.847 564.686 768.403 565.571 769.449C566.457 770.495 567.737 771.12 569.019 771.609C575.34 774.018 582.323 773.733 589.079 773.414C597.388 773.022 605.698 772.631 614.007 772.237C616.843 772.103 619.827 771.923 622.209 770.379C625.712 768.108 626.917 763.525 627.001 759.352C627.154 751.759 619.068 760.393 616.674 761.855Z" fill="#0B4870"/>
<path d="M589.932 364.12C589.932 364.12 608.621 363.033 608.583 362.565C608.15 357.122 603.231 349.052 605.786 344.225C608.339 339.398 610.293 336.666 612.874 331.853C613.255 331.141 613.589 330.17 613.008 329.611C612.531 329.151 611.755 329.303 611.12 329.492C607.704 330.507 604.333 331.68 601.024 333.006C595.42 335.25 590.121 335.193 589.931 341.119C589.723 347.629 589.932 364.12 589.932 364.12Z" fill="#FFE3CA"/>
<path d="M484.063 754.85C483.056 759.987 481.858 765.483 478.033 769.057C473.524 773.272 466.733 773.594 460.562 773.681C451.568 773.808 442.574 773.932 433.58 774.059C432.957 775.304 434.336 776.602 435.586 777.218C441.815 780.291 449.048 780.269 455.992 780.465C464.039 780.692 472.075 781.294 480.065 782.271C483.62 782.705 487.876 782.946 490.085 780.126C491.733 778.021 491.496 775.074 491.53 772.402C491.632 764.257 494.972 756.388 494.883 748.243C494.873 747.304 494.719 746.199 493.891 745.753C493.47 745.527 492.967 745.532 492.49 745.564C485.562 746.032 485.242 748.835 484.063 754.85Z" fill="#FFE3CA"/>
<path d="M632.244 507.503C632.244 507.503 626.218 551.939 623.959 585.83C621.7 619.722 632.997 692.777 632.244 712.359C631.491 731.942 626.973 743.237 626.973 743.237H609.649C609.649 743.237 588.561 652.108 587.808 632.525C587.055 612.943 574.251 512.776 574.251 512.776L632.244 507.503Z" fill="#0B4870"/>
<path d="M401.447 344.745C401.658 346.754 398.765 347.315 398.227 345.368C390.982 319.208 374.23 252.922 374.466 243.806C374.614 238.054 378.722 233.875 378.722 233.875H383.925C383.925 233.875 388.181 238.131 388.655 243.806C388.983 247.762 398.687 318.507 401.447 344.745Z" fill="#0B4870"/>
<path d="M590.333 307.083C588.284 310.925 585.758 315.352 581.443 315.923C580.754 316.015 580.017 316.006 579.423 316.366C578.316 317.035 578.234 318.58 578.281 319.873C578.459 324.797 578.638 329.721 578.816 334.643C578.979 339.143 579.56 344.396 583.412 346.73C586.174 348.404 589.68 347.928 592.851 347.318C595.389 346.83 597.935 346.286 600.314 345.277C607.718 342.14 612.662 334.803 614.959 327.097C616.767 321.029 617.127 314.26 614.436 308.527C609.206 297.387 596.106 296.259 590.333 307.083Z" fill="#FFE3CA"/>
<path d="M623.942 505.492C620.569 505.98 617.213 506.577 613.87 507.242C613.279 506.804 612.483 506.618 611.739 506.478C588.474 502.083 564.412 503.292 542.27 511.678C530.832 546.53 500.2 672.326 493.806 689.281C486.248 709.326 485.357 732.112 480.564 752.99C488.053 754.637 487.223 754.132 494.886 754.41C521.643 691.109 536.538 694.353 540.482 652.192C541.282 643.637 552.546 629.208 557.508 622.193C581.02 588.951 620.974 542.48 627.177 532.634C632.721 523.838 643.755 502.629 623.942 505.492Z" fill="#0B4870"/>
<path d="M402.844 287.483C402.448 285.96 401.919 284.349 400.662 283.401C399.052 282.189 396.756 282.461 394.89 283.221C393.024 283.98 391.325 285.161 389.376 285.673C385.876 286.596 381.724 285.346 378.828 287.513C377.139 288.779 376.332 291.112 376.883 293.149C377.166 294.202 377.765 295.14 378.209 296.138C379.721 299.541 379.448 303.689 381.649 306.693C383.32 308.975 386.088 310.128 388.715 311.173C395.082 313.71 401.45 316.247 407.817 318.783C408.226 318.946 408.697 319.108 409.091 318.914C409.425 318.75 409.597 318.381 409.736 318.036C412.402 311.402 411.259 308.195 407.918 302.824C405.021 298.17 404.204 292.705 402.844 287.483Z" fill="#FFE3CA"/>
<path d="M483.719 775.946C476.613 779.09 469.788 779.291 462.271 777.326C461.812 777.205 459.32 776.302 458.86 776.189C458.783 774.686 459.122 773.269 457.913 773.157C452.358 772.637 446.779 772.367 441.198 772.349C439.425 772.343 432.788 771.62 431.91 772.882C431.128 774.009 431.321 775.603 432.062 776.757C432.803 777.911 433.991 778.699 435.196 779.352C441.146 782.571 448.105 783.207 454.846 783.779C463.134 784.483 471.424 785.186 479.712 785.89C482.539 786.129 485.523 786.344 488.087 785.126C491.858 783.335 493.655 778.951 494.288 774.824C495.436 767.314 486.285 774.811 483.719 775.946Z" fill="#0B4870"/>
<path d="M641.767 380.105C632.986 372.268 623.014 363.962 611.246 364.131C607.323 364.187 547.267 350.69 540.293 350.148C493.692 346.521 455.7 309.282 409.354 303.213C404.75 304.683 403.23 310.919 405.11 315.372C406.99 319.824 411.136 322.837 415.127 325.562C456.825 354.045 500.904 362.8 546.241 385.041C535.797 412.052 557.4 444.712 555.619 451.41C553.715 458.576 536.593 505.821 538.471 512.994C555.366 518.192 568.825 518.884 586.442 520.349C604.06 521.814 622.925 518.637 637.868 509.192C636.229 500.446 628.392 492.378 634.384 489.151C651.54 478.241 668.194 470.012 679.517 453.125C681.701 449.867 683.66 446.337 684.249 442.459C685.871 431.771 654.282 391.276 641.767 380.105ZM631.64 470.146C633.842 460.295 640.244 411.951 640.244 411.951C645.316 414.588 668.7 442.205 668.7 442.205C668.7 442.205 636.616 466.826 631.64 470.146Z" fill="#00C6A7"/>
<path d="M384.61 233.65C381.282 235.469 377.023 234.665 374.426 231.903C372.921 230.304 371.839 228.124 372.865 225.484C375.15 219.607 379.394 212.754 377.435 208.836C375.476 204.918 375.476 205.246 375.476 204.918C375.476 204.592 386.275 210.991 387.88 216.344C391.145 227.228 388.054 231.767 384.61 233.65Z" fill="#F7F7F7"/>
<path d="M398.59 270.379C398.12 269.19 397.477 267.896 396.263 267.49C394.812 267.004 393.216 268.121 392.625 269.533C392.032 270.945 392.176 272.542 392.332 274.065C392.76 278.285 393.189 282.506 393.617 286.725C393.861 289.125 394.394 291.949 396.594 292.94C398.233 293.678 400.285 292.974 401.419 291.579C403.603 288.896 402.157 285.757 401.718 282.775C401.093 278.519 400.175 274.396 398.59 270.379Z" fill="#FFE3CA"/>
<path d="M388.976 221.37C388.761 219.85 388.444 218.222 387.88 216.343C386.275 210.99 375.476 204.591 375.476 204.917C375.476 205.027 375.482 205.073 375.557 205.221C375.582 205.269 375.608 205.321 375.636 205.373C375.84 205.751 376.31 206.585 377.433 208.833C379.297 212.564 375.557 218.946 373.221 224.622C373.904 224.989 374.651 225.111 375.409 224.779C376.993 224.083 377.846 221.719 379.558 221.96C381.974 222.3 381.046 226.876 383.317 227.765C384.723 228.315 386.145 226.916 386.712 225.516C387.279 224.117 387.535 222.475 388.698 221.513C388.785 221.446 388.884 221.42 388.976 221.37Z" fill="#00C6A7"/>
<path d="M627.942 307.492C624.165 303.696 619.256 301.245 614.296 299.225C610.45 297.66 606.412 296.297 602.261 296.381C598.11 296.464 593.79 298.237 591.593 301.76C589.916 304.448 589.657 307.83 590.233 310.946C590.608 312.974 591.497 317.378 593.063 318.879C594.383 320.143 596.48 319.282 597.596 321.137C598.366 322.417 598.273 324.044 597.883 325.486C597.477 326.98 596.735 328.449 595.474 329.349C595.12 329.6 594.723 329.795 594.303 329.925C592.274 330.554 590.942 332.472 591.235 334.576C591.691 337.855 592.906 341.03 594.788 343.753C595.235 344.397 595.732 345.013 596.287 345.565C596.156 346.504 595.904 347.451 595.774 348.388C595.389 351.175 596.576 354.524 599.293 355.254C598.326 354.179 597.378 352.936 597.328 351.49C597.277 350.045 598.588 348.504 599.988 348.868C601.107 349.16 601.659 350.425 601.834 351.567C602.236 354.185 601.444 356.964 599.718 358.975C601.553 357.943 603.445 356.861 604.691 355.164C606.032 353.336 606.491 350.969 607.872 349.172C608.169 348.786 608.508 348.44 608.861 348.108C609.021 348.326 609.186 348.542 609.337 348.763C610.445 350.381 610.553 351.449 609.689 354.045C609.544 354.481 608.643 355.993 608.643 355.993C608.837 355.818 613.375 352.411 610.22 347.128C610.997 346.986 611.768 346.82 612.521 346.582C618.165 344.8 622.27 340.038 626.061 335.493C629.416 331.472 632.909 327.144 633.569 321.951C634.245 316.635 631.72 311.286 627.942 307.492Z" fill="#0B4870"/>
<path d="M624.893 304.868C618.849 305.064 613.869 308.338 614.264 316.554C614.368 318.704 615.073 320.781 615.296 322.922C616.195 331.556 609.433 338.801 605.383 346.478C604.061 348.984 603.098 352.312 604.97 354.437C605 354.472 605.041 354.492 605.073 354.525C606.114 352.804 606.644 350.771 607.874 349.172C608.171 348.786 608.509 348.44 608.863 348.108C609.023 348.326 609.188 348.542 609.339 348.763C610.447 350.381 610.555 351.449 609.691 354.045C609.546 354.481 608.645 355.993 608.645 355.993C608.839 355.818 613.377 352.411 610.221 347.128C610.999 346.986 611.77 346.82 612.523 346.582C618.166 344.8 622.272 340.038 626.063 335.493C629.418 331.472 632.91 327.144 633.57 321.951C634.246 316.638 631.718 311.289 627.941 307.493C626.991 306.536 625.97 305.667 624.893 304.868Z" fill="#0B4870"/>
<path d="M645.134 317.843C646.853 309.836 641.756 301.952 633.749 300.233C625.743 298.514 617.859 303.611 616.14 311.618C614.421 319.624 619.518 327.508 627.524 329.227C635.531 330.946 643.415 325.849 645.134 317.843Z" fill="#0B4870"/>
<path d="M371.178 865.621C370.622 865.621 370.145 865.449 369.748 865.108C369.353 864.768 369.155 864.283 369.155 863.656C369.155 863.088 369.358 862.624 369.764 862.256C370.169 861.888 370.642 861.705 371.178 861.705C371.696 861.705 372.155 861.871 372.556 862.204C372.957 862.538 373.158 863.019 373.158 863.655C373.158 864.271 372.962 864.753 372.57 865.099C372.18 865.446 371.716 865.621 371.178 865.621Z" fill="#F7F7F7"/>
<path d="M601.912 865.611C601.352 865.611 600.88 865.434 600.488 865.094C600.087 864.749 599.889 864.272 599.889 863.649C599.889 863.08 600.091 862.615 600.5 862.245C600.904 861.884 601.375 861.696 601.912 861.696C602.436 861.696 602.893 861.861 603.291 862.188C603.692 862.525 603.893 863.013 603.893 863.649C603.893 864.266 603.697 864.746 603.309 865.092C602.919 865.434 602.454 865.611 601.912 865.611Z" fill="#F7F7F7"/>
<path d="M507.132 859.31C507.905 859.31 508.476 859.373 509.13 859.483L509.315 858.306C509.315 858.306 507.507 857.749 505.132 857.945L504.946 857.304C505.684 857.149 506.239 856.492 506.239 855.708C506.239 854.81 505.507 854.082 504.608 854.082C503.708 854.082 502.978 854.81 502.978 855.708C502.978 856.492 503.531 857.149 504.268 857.304L504.473 858.019C501.95 858.365 499.943 859.35 499.943 859.35L500.298 860.439C501.824 859.931 503.147 859.621 504.348 859.492C505.525 859.364 506.411 859.31 507.132 859.31Z" fill="#F7F7F7"/>
<path d="M589.956 125.061L513.399 121.386V0.378418L589.956 6.58116V125.061Z" fill="#00C6A7"/>
<path d="M115.287 325.095L61.4727 322.511V237.45L115.287 241.81V325.095Z" fill="#00C6A7"/>
<path d="M129.367 372.017L86.1675 369.942V301.659L129.367 305.159V372.017Z" fill="#2A94F4"/>
<path d="M487.825 119.709L420.379 122.209V37.4211L487.825 39.9196V119.709Z" fill="#2A94F4"/>
<path d="M282.88 630.496L215.436 632.994V548.206L282.88 550.706V630.496Z" fill="#00C6A7"/>
<path d="M804.149 432.376C803.545 431.844 802.909 431.321 802.156 431.038C801.269 430.704 800.292 430.727 799.344 430.762C798.019 430.812 796.694 430.879 795.371 430.963C794.749 431.003 794.005 431.126 793.758 431.699C793.493 432.317 794.008 432.985 794.537 433.398C796.172 434.672 798.275 435.219 799.928 436.471C801.583 437.724 802.697 439.62 804.454 440.727C804.963 441.047 805.542 441.3 806.143 441.279C806.736 441.257 807.284 440.972 807.809 440.693C810.115 439.469 809.972 438.748 808.391 436.799C807.114 435.225 805.71 433.677 804.149 432.376Z" fill="#F7F7F7"/>
<path d="M731.806 499.527L753.48 347.233L811.954 339.207L842.367 498.427L731.806 499.527Z" fill="#FCD2B1"/>
<path d="M777.002 735.511L776.94 752.675C776.926 756.168 777.402 759.643 778.35 763.004L779.842 768.291C781.068 772.632 777.804 776.94 773.295 776.924C761.603 776.881 741.62 776.913 736.47 776.922C735.627 776.924 734.801 776.355 734.729 775.515C734.295 770.503 748.77 767.148 759.673 762.927C767.978 759.712 767.536 744.785 766.511 736.068C766.126 732.776 768.871 729.972 772.176 730.247C774.911 730.474 777.013 732.765 777.002 735.511Z" fill="#FCD2B1"/>
<path d="M857.358 730.695L863.272 750.332C863.533 751.199 863.923 752.023 864.429 752.774L868.623 759.001C871.285 762.954 869.368 768.355 864.811 769.745C864.811 769.745 856.358 772.719 847.641 775.582C838.721 778.513 827.5 776.064 827.5 773.71C827.5 768.48 832.376 772.631 840.545 767.169C843.283 765.338 846.108 763.423 848.626 761.446C855.657 755.928 849.518 741.957 845.215 734.088C843.667 731.259 845.31 727.747 848.464 727.074L850.501 726.64C853.493 726.001 856.475 727.765 857.358 730.695Z" fill="#FCD2B1"/>
<path d="M796.943 501.001L732.147 495.564C732.147 495.564 725.623 542.724 741.999 628.093C749.679 668.127 765.684 744.628 765.684 744.628C769.65 746.364 773.684 746.8 777.792 745.776C777.792 745.776 779.007 712.03 779.751 675.691C780.464 640.838 780.656 603.598 782.876 591.413C787.412 566.521 796.943 501.001 796.943 501.001Z" fill="#0B4870"/>
<path d="M783.568 501.823C776.879 537.725 761.934 591.413 790.72 641.847C819.507 692.282 849.742 744.716 849.742 744.716C853.636 744.875 857.17 743.463 860.452 740.971C860.452 740.971 855.405 718.106 848.109 691.408C839.763 660.866 829.19 624.942 832.202 606.21C837.847 571.105 844.332 524.353 842.367 501.649C840.402 478.945 787.086 482.943 783.568 501.823Z" fill="#0B4870"/>
<path d="M729.568 495.649L753.479 347.233L811.953 339.207L843.378 495.925C843.968 498.87 842.061 501.73 839.11 502.29C828.225 504.352 801.964 508.663 772.575 508.663C750.636 508.663 738.307 504.398 732.697 501.697C730.424 500.601 729.167 498.14 729.568 495.649Z" fill="#F7F7F7"/>
<path d="M793.688 348.451C793.688 359.143 795.631 369.732 799.282 379.78C806.425 399.439 817.143 436.613 810.774 469.363C801.604 516.523 789.814 535.588 805.098 546.579C820.381 557.57 849.692 539.23 850.538 533.117C851.384 527.004 844.834 451.905 837.41 419.369C829.986 386.832 809.194 340.059 809.194 340.059L800.384 341C796.576 341.405 793.688 344.62 793.688 348.451Z" fill="#00C6A7"/>
<path d="M769.344 345.055C769.344 345.055 759.202 366.972 762.74 398.462C766.277 429.951 774.474 525.84 745.82 540.32C736.746 544.905 716.025 524.6 716.025 517.067C716.025 509.533 722.942 484.317 729.495 461.392C736.048 438.466 751.841 347.457 751.841 347.457L769.344 345.055Z" fill="#00C6A7"/>
<path d="M777.507 277.128C790.558 277.128 795.426 286.418 795.675 303.602C795.768 310.038 792.873 316.415 790.542 320.486C788.811 323.511 788.337 327.093 789.324 330.436L792.19 340.134C794.138 349.131 789.866 354.065 783.558 355.858C780.433 356.745 776.689 356.058 773.96 354.294C770.716 352.198 770.449 347.689 771.052 343.873L771.792 341.108C772.789 337.382 770.631 333.367 766.862 332.543C756.814 330.344 755.375 319.87 752.683 303.602C749.878 286.646 764.457 277.128 777.507 277.128Z" fill="#FCD2B1"/>
<path d="M788.481 303.919C788.481 307.904 789.965 311.134 793.802 311.134C797.638 311.134 800.1 305.654 800.1 301.67C800.1 297.686 797.638 296.706 793.802 296.706C789.965 296.706 788.481 299.934 788.481 303.919Z" fill="#FCD2B1"/>
<path d="M790.069 321.41C790.069 321.41 780.322 334.809 768.194 332.994C768.194 332.994 770.712 334.198 771.325 336.155C771.325 336.154 782.845 335.303 790.069 321.41Z" fill="#FCD2B1"/>
<path d="M755.366 346.981C755.366 346.981 741.627 349.37 705.784 394.174C690.252 427.029 689.174 414.605 689.174 414.605C689.174 414.605 692.683 435.521 702.839 430.742C712.994 425.963 744.615 392.382 744.615 392.382L755.366 346.981Z" fill="#00C6A7"/>
<path d="M697.153 393.607C692.944 400.34 687.78 406.379 687.472 414.315C687.164 422.251 692.646 431.004 700.583 431.232C707.156 431.419 713.161 416.951 713.161 416.951L741.627 354.443L729.402 349.823C729.4 349.82 703.792 382.988 697.153 393.607Z" fill="#00C6A7"/>
<path d="M740.456 354.081C740.644 354.354 740.829 354.626 741.017 354.899C745.258 349.992 749.215 344.84 752.863 339.477C753.804 338.093 754.753 336.62 754.907 334.954C755.104 332.847 754.002 330.861 752.938 329.032C751.715 326.93 750.558 324.174 749.336 322.072C751.314 319.739 753.293 317.407 755.273 315.076C756.078 314.128 756.9 313.151 757.316 311.979C757.732 310.806 757.662 309.378 756.817 308.465C755.973 307.552 754.758 307.285 753.825 308.11C749.505 311.93 730.529 343.983 730.047 348.497C729.755 351.238 729.596 354.382 731.537 356.338C733.889 358.709 738.003 356.349 740.456 354.081Z" fill="#FCD2B1"/>
<path d="M758.21 284.916C758.21 284.916 777.939 286.558 784.036 282.175C784.036 282.175 786.381 295.803 790.067 298.326C793.754 300.849 791.629 295.382 795.276 296.767C795.276 296.767 798.135 280.462 785.178 275.507C772.221 270.553 764.408 264.456 764.408 264.456L770.125 270.363L760.788 267.695L765.361 272.078L747.449 271.125L752.331 273.411L743.638 279.699L755.364 279.128L742.683 286.369L755.364 283.892L750.308 287.321L758.21 284.916Z" fill="#0B4870"/>
<path d="M692.97 419.622C692.418 419.248 691.737 418.875 691.121 419.126C690.688 419.303 690.429 419.739 690.142 420.109C687.023 424.129 679.328 421.445 676.395 425.602C675.194 427.306 675.313 429.678 676.194 431.567C677.075 433.455 678.603 434.957 680.148 436.355C684.123 439.949 694.635 441.234 694.635 441.234L707.865 445.167L708.478 439.452L702.11 434.512C702.11 434.512 703.752 431.07 703.315 430.425C700.092 425.672 695.604 421.41 692.97 419.622Z" fill="#FCD2B1"/>
<path d="M693.653 419.455C693.118 418.855 692.547 418.26 691.834 417.888C690.993 417.451 690.02 417.356 689.073 417.279C687.752 417.17 686.429 417.079 685.105 417.006C684.482 416.971 683.73 417.006 683.416 417.545C683.079 418.126 683.511 418.85 683.988 419.324C685.459 420.783 687.482 421.579 688.973 423.018C690.467 424.46 691.348 426.474 692.959 427.783C693.425 428.163 693.971 428.483 694.57 428.533C695.162 428.582 695.739 428.364 696.294 428.151C698.73 427.21 698.674 426.477 697.337 424.353C696.256 422.637 695.046 420.931 693.653 419.455Z" fill="#FCD2B1"/>
<path d="M809.195 340.058C824.393 344.87 844.908 363.474 843.317 379.337C840.705 405.378 835.214 443.12 824.422 461.009C819.557 469.071 806.217 466.12 796.871 464.984C769.446 461.655 715.187 454.483 691.201 440.776C692.135 436.809 692.156 433.385 694.291 429.914C719.022 428.838 776.678 431.396 800.362 438.6L806.545 403.259" fill="#00C6A7"/>
<path d="M614.243 740.897C613.92 746.123 613.455 751.728 610.133 755.774C606.217 760.545 599.528 761.757 593.421 762.654C584.522 763.96 575.622 765.268 566.723 766.574C566.269 767.891 567.807 768.995 569.127 769.442C575.706 771.669 582.874 770.698 589.782 769.978C597.788 769.144 605.834 768.686 613.884 768.605C617.467 768.568 621.717 768.248 623.535 765.161C624.892 762.859 624.272 759.968 623.953 757.314C622.984 749.225 625.259 740.986 624.102 732.923C623.97 731.993 623.67 730.919 622.792 730.585C622.345 730.416 621.846 730.487 621.378 730.582C614.569 731.958 614.621 734.78 614.243 740.897Z" fill="#FFE3CA"/>
<path d="M616.674 761.855C610.042 765.905 603.303 767.002 595.593 766.041C595.122 765.983 592.533 765.413 592.062 765.362C591.788 763.884 591.939 762.434 590.724 762.481C585.148 762.696 579.582 763.161 574.048 763.878C572.291 764.105 565.616 764.26 564.911 765.628C564.283 766.847 564.686 768.403 565.571 769.449C566.457 770.495 567.737 771.12 569.019 771.609C575.34 774.018 582.323 773.733 589.079 773.414C597.388 773.022 605.698 772.631 614.007 772.237C616.843 772.103 619.827 771.923 622.209 770.379C625.712 768.108 626.917 763.525 627.001 759.352C627.154 751.759 619.068 760.393 616.674 761.855Z" fill="#0B4870"/>
<path d="M589.932 364.12C589.932 364.12 608.621 363.033 608.583 362.565C608.15 357.122 603.231 349.052 605.786 344.225C608.339 339.398 610.293 336.666 612.874 331.853C613.255 331.141 613.589 330.17 613.008 329.611C612.531 329.151 611.755 329.303 611.12 329.492C607.704 330.507 604.333 331.68 601.024 333.006C595.42 335.25 590.121 335.193 589.931 341.119C589.723 347.629 589.932 364.12 589.932 364.12Z" fill="#FFE3CA"/>
<path d="M484.063 754.85C483.056 759.987 481.858 765.483 478.033 769.057C473.524 773.272 466.733 773.594 460.562 773.681C451.568 773.808 442.574 773.932 433.58 774.059C432.957 775.304 434.336 776.602 435.586 777.218C441.815 780.291 449.048 780.269 455.992 780.465C464.039 780.692 472.075 781.294 480.065 782.271C483.62 782.705 487.876 782.946 490.085 780.126C491.733 778.021 491.496 775.074 491.53 772.402C491.632 764.257 494.972 756.388 494.883 748.243C494.873 747.304 494.719 746.199 493.891 745.753C493.47 745.527 492.967 745.532 492.49 745.564C485.562 746.032 485.242 748.835 484.063 754.85Z" fill="#FFE3CA"/>
<path d="M632.244 507.503C632.244 507.503 626.218 551.939 623.959 585.83C621.7 619.722 632.997 692.777 632.244 712.359C631.491 731.942 626.973 743.237 626.973 743.237H609.649C609.649 743.237 588.561 652.108 587.808 632.525C587.055 612.943 574.251 512.776 574.251 512.776L632.244 507.503Z" fill="#0B4870"/>
<path d="M401.447 344.745C401.658 346.754 398.765 347.315 398.227 345.368C390.982 319.208 374.23 252.922 374.466 243.806C374.614 238.054 378.722 233.875 378.722 233.875H383.925C383.925 233.875 388.181 238.131 388.655 243.806C388.983 247.762 398.687 318.507 401.447 344.745Z" fill="#0B4870"/>
<path d="M590.333 307.083C588.284 310.925 585.758 315.352 581.443 315.923C580.754 316.015 580.017 316.006 579.423 316.366C578.316 317.035 578.234 318.58 578.281 319.873C578.459 324.797 578.638 329.721 578.816 334.643C578.979 339.143 579.56 344.396 583.412 346.73C586.174 348.404 589.68 347.928 592.851 347.318C595.389 346.83 597.935 346.286 600.314 345.277C607.718 342.14 612.662 334.803 614.959 327.097C616.767 321.029 617.127 314.26 614.436 308.527C609.206 297.387 596.106 296.259 590.333 307.083Z" fill="#FFE3CA"/>
<path d="M623.942 505.492C620.569 505.98 617.213 506.577 613.87 507.242C613.279 506.804 612.483 506.618 611.739 506.478C588.474 502.083 564.412 503.292 542.27 511.678C530.832 546.53 500.2 672.326 493.806 689.281C486.248 709.326 485.357 732.112 480.564 752.99C488.053 754.637 487.223 754.132 494.886 754.41C521.643 691.109 536.538 694.353 540.482 652.192C541.282 643.637 552.546 629.208 557.508 622.193C581.02 588.951 620.974 542.48 627.177 532.634C632.721 523.838 643.755 502.629 623.942 505.492Z" fill="#0B4870"/>
<path d="M402.844 287.483C402.448 285.96 401.919 284.349 400.662 283.401C399.052 282.189 396.756 282.461 394.89 283.221C393.024 283.98 391.325 285.161 389.376 285.673C385.876 286.596 381.724 285.346 378.828 287.513C377.139 288.779 376.332 291.112 376.883 293.149C377.166 294.202 377.765 295.14 378.209 296.138C379.721 299.541 379.448 303.689 381.649 306.693C383.32 308.975 386.088 310.128 388.715 311.173C395.082 313.71 401.45 316.247 407.817 318.783C408.226 318.946 408.697 319.108 409.091 318.914C409.425 318.75 409.597 318.381 409.736 318.036C412.402 311.402 411.259 308.195 407.918 302.824C405.021 298.17 404.204 292.705 402.844 287.483Z" fill="#FFE3CA"/>
<path d="M483.719 775.946C476.613 779.09 469.788 779.291 462.271 777.326C461.812 777.205 459.32 776.302 458.86 776.189C458.783 774.686 459.122 773.269 457.913 773.157C452.358 772.637 446.779 772.367 441.198 772.349C439.425 772.343 432.788 771.62 431.91 772.882C431.128 774.009 431.321 775.603 432.062 776.757C432.803 777.911 433.991 778.699 435.196 779.352C441.146 782.571 448.105 783.207 454.846 783.779C463.134 784.483 471.424 785.186 479.712 785.89C482.539 786.129 485.523 786.344 488.087 785.126C491.858 783.335 493.655 778.951 494.288 774.824C495.436 767.314 486.285 774.811 483.719 775.946Z" fill="#0B4870"/>
<path d="M641.767 380.105C632.986 372.268 623.014 363.962 611.246 364.131C607.323 364.187 547.267 350.69 540.293 350.148C493.692 346.521 455.7 309.282 409.354 303.213C404.75 304.683 403.23 310.919 405.11 315.372C406.99 319.824 411.136 322.837 415.127 325.562C456.825 354.045 500.904 362.8 546.241 385.041C535.797 412.052 557.4 444.712 555.619 451.41C553.715 458.576 536.593 505.821 538.471 512.994C555.366 518.192 568.825 518.884 586.442 520.349C604.06 521.814 622.925 518.637 637.868 509.192C636.229 500.446 628.392 492.378 634.384 489.151C651.54 478.241 668.194 470.012 679.517 453.125C681.701 449.867 683.66 446.337 684.249 442.459C685.871 431.771 654.282 391.276 641.767 380.105ZM631.64 470.146C633.842 460.295 640.244 411.951 640.244 411.951C645.316 414.588 668.7 442.205 668.7 442.205C668.7 442.205 636.616 466.826 631.64 470.146Z" fill="#00C6A7"/>
<path d="M384.61 233.65C381.282 235.469 377.023 234.665 374.426 231.903C372.921 230.304 371.839 228.124 372.865 225.484C375.15 219.607 379.394 212.754 377.435 208.836C375.476 204.918 375.476 205.246 375.476 204.918C375.476 204.592 386.275 210.991 387.88 216.344C391.145 227.228 388.054 231.767 384.61 233.65Z" fill="#F7F7F7"/>
<path d="M398.59 270.379C398.12 269.19 397.477 267.896 396.263 267.49C394.812 267.004 393.216 268.121 392.625 269.533C392.032 270.945 392.176 272.542 392.332 274.065C392.76 278.285 393.189 282.506 393.617 286.725C393.861 289.125 394.394 291.949 396.594 292.94C398.233 293.678 400.285 292.974 401.419 291.579C403.603 288.896 402.157 285.757 401.718 282.775C401.093 278.519 400.175 274.396 398.59 270.379Z" fill="#FFE3CA"/>
<path d="M388.976 221.37C388.761 219.85 388.444 218.222 387.88 216.343C386.275 210.99 375.476 204.591 375.476 204.917C375.476 205.027 375.482 205.073 375.557 205.221C375.582 205.269 375.608 205.321 375.636 205.373C375.84 205.751 376.31 206.585 377.433 208.833C379.297 212.564 375.557 218.946 373.221 224.622C373.904 224.989 374.651 225.111 375.409 224.779C376.993 224.083 377.846 221.719 379.558 221.96C381.974 222.3 381.046 226.876 383.317 227.765C384.723 228.315 386.145 226.916 386.712 225.516C387.279 224.117 387.535 222.475 388.698 221.513C388.785 221.446 388.884 221.42 388.976 221.37Z" fill="#00C6A7"/>
<path d="M627.942 307.492C624.165 303.696 619.256 301.245 614.296 299.225C610.45 297.66 606.412 296.297 602.261 296.381C598.11 296.464 593.79 298.237 591.593 301.76C589.916 304.448 589.657 307.83 590.233 310.946C590.608 312.974 591.497 317.378 593.063 318.879C594.383 320.143 596.48 319.282 597.596 321.137C598.366 322.417 598.273 324.044 597.883 325.486C597.477 326.98 596.735 328.449 595.474 329.349C595.12 329.6 594.723 329.795 594.303 329.925C592.274 330.554 590.942 332.472 591.235 334.576C591.691 337.855 592.906 341.03 594.788 343.753C595.235 344.397 595.732 345.013 596.287 345.565C596.156 346.504 595.904 347.451 595.774 348.388C595.389 351.175 596.576 354.524 599.293 355.254C598.326 354.179 597.378 352.936 597.328 351.49C597.277 350.045 598.588 348.504 599.988 348.868C601.107 349.16 601.659 350.425 601.834 351.567C602.236 354.185 601.444 356.964 599.718 358.975C601.553 357.943 603.445 356.861 604.691 355.164C606.032 353.336 606.491 350.969 607.872 349.172C608.169 348.786 608.508 348.44 608.861 348.108C609.021 348.326 609.186 348.542 609.337 348.763C610.445 350.381 610.553 351.449 609.689 354.045C609.544 354.481 608.643 355.993 608.643 355.993C608.837 355.818 613.375 352.411 610.22 347.128C610.997 346.986 611.768 346.82 612.521 346.582C618.165 344.8 622.27 340.038 626.061 335.493C629.416 331.472 632.909 327.144 633.569 321.951C634.245 316.635 631.72 311.286 627.942 307.492Z" fill="#0B4870"/>
<path d="M624.893 304.868C618.849 305.064 613.869 308.338 614.264 316.554C614.368 318.704 615.073 320.781 615.296 322.922C616.195 331.556 609.433 338.801 605.383 346.478C604.061 348.984 603.098 352.312 604.97 354.437C605 354.472 605.041 354.492 605.073 354.525C606.114 352.804 606.644 350.771 607.874 349.172C608.171 348.786 608.509 348.44 608.863 348.108C609.023 348.326 609.188 348.542 609.339 348.763C610.447 350.381 610.555 351.449 609.691 354.045C609.546 354.481 608.645 355.993 608.645 355.993C608.839 355.818 613.377 352.411 610.221 347.128C610.999 346.986 611.77 346.82 612.523 346.582C618.166 344.8 622.272 340.038 626.063 335.493C629.418 331.472 632.91 327.144 633.57 321.951C634.246 316.638 631.718 311.289 627.941 307.493C626.991 306.536 625.97 305.667 624.893 304.868Z" fill="#0B4870"/>
<path d="M645.134 317.843C646.853 309.836 641.756 301.952 633.749 300.233C625.743 298.514 617.859 303.611 616.14 311.618C614.421 319.624 619.518 327.508 627.524 329.227C635.531 330.946 643.415 325.849 645.134 317.843Z" fill="#0B4870"/>
<path d="M804.149 432.376C803.545 431.844 802.909 431.321 802.156 431.038C801.269 430.704 800.292 430.727 799.344 430.762C798.019 430.812 796.694 430.879 795.371 430.963C794.749 431.003 794.005 431.126 793.758 431.699C793.493 432.317 794.008 432.985 794.537 433.398C796.172 434.672 798.275 435.219 799.928 436.471C801.583 437.724 802.697 439.62 804.454 440.727C804.963 441.047 805.542 441.3 806.143 441.279C806.736 441.257 807.284 440.972 807.809 440.693C810.115 439.469 809.972 438.748 808.391 436.799C807.114 435.225 805.71 433.677 804.149 432.376Z" fill="#F7F7F7"/>
<path d="M731.806 499.527L753.48 347.233L811.954 339.207L842.367 498.427L731.806 499.527Z" fill="#FCD2B1"/>
<path d="M777.002 735.511L776.94 752.675C776.926 756.168 777.402 759.643 778.35 763.004L779.842 768.291C781.068 772.632 777.804 776.94 773.295 776.924C761.603 776.881 741.62 776.913 736.47 776.922C735.627 776.924 734.801 776.355 734.729 775.515C734.295 770.503 748.77 767.148 759.673 762.927C767.978 759.712 767.536 744.785 766.511 736.068C766.126 732.776 768.871 729.972 772.176 730.247C774.911 730.474 777.013 732.765 777.002 735.511Z" fill="#FCD2B1"/>
<path d="M857.358 730.695L863.272 750.332C863.533 751.199 863.923 752.023 864.429 752.774L868.623 759.001C871.285 762.954 869.368 768.355 864.811 769.745C864.811 769.745 856.358 772.719 847.641 775.582C838.721 778.513 827.5 776.064 827.5 773.71C827.5 768.48 832.376 772.631 840.545 767.169C843.283 765.338 846.108 763.423 848.626 761.446C855.657 755.928 849.518 741.957 845.215 734.088C843.667 731.259 845.31 727.747 848.464 727.074L850.501 726.64C853.493 726.001 856.475 727.765 857.358 730.695Z" fill="#FCD2B1"/>
<path d="M796.943 501.001L732.147 495.564C732.147 495.564 725.623 542.724 741.999 628.093C749.679 668.127 765.684 744.628 765.684 744.628C769.65 746.364 773.684 746.8 777.792 745.776C777.792 745.776 779.007 712.03 779.751 675.691C780.464 640.838 780.656 603.598 782.876 591.413C787.412 566.521 796.943 501.001 796.943 501.001Z" fill="#0B4870"/>
<path d="M783.568 501.823C776.879 537.725 761.934 591.413 790.72 641.847C819.507 692.282 849.742 744.716 849.742 744.716C853.636 744.875 857.17 743.463 860.452 740.971C860.452 740.971 855.405 718.106 848.109 691.408C839.763 660.866 829.19 624.942 832.202 606.21C837.847 571.105 844.332 524.353 842.367 501.649C840.402 478.945 787.086 482.943 783.568 501.823Z" fill="#0B4870"/>
<path d="M729.568 495.649L753.479 347.233L811.953 339.207L843.378 495.925C843.968 498.87 842.061 501.73 839.11 502.29C828.225 504.352 801.964 508.663 772.575 508.663C750.636 508.663 738.307 504.398 732.697 501.697C730.424 500.601 729.167 498.14 729.568 495.649Z" fill="#F7F7F7"/>
<path d="M793.688 348.451C793.688 359.143 795.631 369.732 799.282 379.78C806.425 399.439 817.143 436.613 810.774 469.363C801.604 516.523 789.814 535.588 805.098 546.579C820.381 557.57 849.692 539.23 850.538 533.117C851.384 527.004 844.834 451.905 837.41 419.369C829.986 386.832 809.194 340.059 809.194 340.059L800.384 341C796.576 341.405 793.688 344.62 793.688 348.451Z" fill="#00C6A7"/>
<path d="M769.344 345.055C769.344 345.055 759.202 366.972 762.74 398.462C766.277 429.951 774.474 525.84 745.82 540.32C736.746 544.905 716.025 524.6 716.025 517.067C716.025 509.533 722.942 484.317 729.495 461.392C736.048 438.466 751.841 347.457 751.841 347.457L769.344 345.055Z" fill="#00C6A7"/>
<path d="M777.507 277.128C790.558 277.128 795.426 286.418 795.675 303.602C795.768 310.038 792.873 316.415 790.542 320.486C788.811 323.511 788.337 327.093 789.324 330.436L792.19 340.134C794.138 349.131 789.866 354.065 783.558 355.858C780.433 356.745 776.689 356.058 773.96 354.294C770.716 352.198 770.449 347.689 771.052 343.873L771.792 341.108C772.789 337.382 770.631 333.367 766.862 332.543C756.814 330.344 755.375 319.87 752.683 303.602C749.878 286.646 764.457 277.128 777.507 277.128Z" fill="#FCD2B1"/>
<path d="M788.481 303.919C788.481 307.904 789.965 311.134 793.802 311.134C797.638 311.134 800.1 305.654 800.1 301.67C800.1 297.686 797.638 296.706 793.802 296.706C789.965 296.706 788.481 299.934 788.481 303.919Z" fill="#FCD2B1"/>
<path d="M790.069 321.41C790.069 321.41 780.322 334.809 768.194 332.994C768.194 332.994 770.712 334.198 771.325 336.155C771.325 336.154 782.845 335.303 790.069 321.41Z" fill="#FCD2B1"/>
<path d="M755.366 346.981C755.366 346.981 741.627 349.37 705.784 394.174C690.252 427.029 689.174 414.605 689.174 414.605C689.174 414.605 692.683 435.521 702.839 430.742C712.994 425.963 744.615 392.382 744.615 392.382L755.366 346.981Z" fill="#00C6A7"/>
<path d="M697.153 393.607C692.944 400.34 687.78 406.379 687.472 414.315C687.164 422.251 692.646 431.004 700.583 431.232C707.156 431.419 713.161 416.951 713.161 416.951L741.627 354.443L729.402 349.823C729.4 349.82 703.792 382.988 697.153 393.607Z" fill="#00C6A7"/>
<path d="M740.456 354.081C740.644 354.354 740.829 354.626 741.017 354.899C745.258 349.992 749.215 344.84 752.863 339.477C753.804 338.093 754.753 336.62 754.907 334.954C755.104 332.847 754.002 330.861 752.938 329.032C751.715 326.93 750.558 324.174 749.336 322.072C751.314 319.739 753.293 317.407 755.273 315.076C756.078 314.128 756.9 313.151 757.316 311.979C757.732 310.806 757.662 309.378 756.817 308.465C755.973 307.552 754.758 307.285 753.825 308.11C749.505 311.93 730.529 343.983 730.047 348.497C729.755 351.238 729.596 354.382 731.537 356.338C733.889 358.709 738.003 356.349 740.456 354.081Z" fill="#FCD2B1"/>
<path d="M758.21 284.916C758.21 284.916 777.939 286.558 784.036 282.175C784.036 282.175 786.381 295.803 790.067 298.326C793.754 300.849 791.629 295.382 795.276 296.767C795.276 296.767 798.135 280.462 785.178 275.507C772.221 270.553 764.408 264.456 764.408 264.456L770.125 270.363L760.788 267.695L765.361 272.078L747.449 271.125L752.331 273.411L743.638 279.699L755.364 279.128L742.683 286.369L755.364 283.892L750.308 287.321L758.21 284.916Z" fill="#0B4870"/>
<path d="M692.97 419.622C692.418 419.248 691.737 418.875 691.121 419.126C690.688 419.303 690.429 419.739 690.142 420.109C687.023 424.129 679.328 421.445 676.395 425.602C675.194 427.306 675.313 429.678 676.194 431.567C677.075 433.455 678.603 434.957 680.148 436.355C684.123 439.949 694.635 441.234 694.635 441.234L707.865 445.167L708.478 439.452L702.11 434.512C702.11 434.512 703.752 431.07 703.315 430.425C700.092 425.672 695.604 421.41 692.97 419.622Z" fill="#FCD2B1"/>
<path d="M693.653 419.455C693.118 418.855 692.547 418.26 691.834 417.888C690.993 417.451 690.02 417.356 689.073 417.279C687.752 417.17 686.429 417.079 685.105 417.006C684.482 416.971 683.73 417.006 683.416 417.545C683.079 418.126 683.511 418.85 683.988 419.324C685.459 420.783 687.482 421.579 688.973 423.018C690.467 424.46 691.348 426.474 692.959 427.783C693.425 428.163 693.971 428.483 694.57 428.533C695.162 428.582 695.739 428.364 696.294 428.151C698.73 427.21 698.674 426.477 697.337 424.353C696.256 422.637 695.046 420.931 693.653 419.455Z" fill="#FCD2B1"/>
<path d="M809.195 340.058C824.393 344.87 844.908 363.474 843.317 379.337C840.705 405.378 835.214 443.12 824.422 461.009C819.557 469.071 806.217 466.12 796.871 464.984C769.446 461.655 715.187 454.483 691.201 440.776C692.135 436.809 692.156 433.385 694.291 429.914C719.022 428.838 776.678 431.396 800.362 438.6L806.545 403.259" fill="#00C6A7"/>
<path d="M868.624 759.001C868.624 759.001 855.735 767.678 846.914 769.235C838.092 770.791 834.978 769.235 834.978 769.235C834.978 769.235 826.674 768.812 824.729 773.483C822.783 778.154 836.71 782.921 846.677 780.878C856.645 778.835 870.656 770.183 870.656 770.183C870.656 770.183 874.377 758.628 868.624 759.001Z" fill="#0B4870"/>
<path d="M777.177 766.404C777.177 766.404 762.811 772.323 753.856 772.081C744.9 771.838 742.162 769.689 742.162 769.689C742.162 769.689 734.112 767.613 731.269 771.797C728.426 775.983 741.115 783.445 751.29 783.44C761.464 783.436 776.926 777.767 776.926 777.767C776.926 777.767 782.889 767.19 777.177 766.404Z" fill="#0B4870"/>
<path d="M249.158 119.709L181.713 122.209V37.4211L249.158 39.9196V119.709Z" fill="#328ADA"/>
</svg>
