<svg width="1080" height="1080" viewBox="0 0 1080 1080" fill="none" xmlns="http://www.w3.org/2000/svg">
<path opacity="0.5" d="M540 956.325C813.024 956.325 1034.35 933.669 1034.35 905.722C1034.35 877.774 813.024 855.118 540 855.118C266.976 855.118 45.6465 877.774 45.6465 905.722C45.6465 933.669 266.976 956.325 540 956.325Z" fill="#F7F7F7"/>
<path opacity="0.3" d="M584.585 667.58L139.533 703.724V144.583L584.585 180.727V667.58Z" fill="#F7F7F7"/>
<path d="M329.621 516.661L456.718 536.894V286.896L329.621 266.663V516.661Z" fill="#CCE9FF"/>
<path opacity="0.13" d="M329.621 516.661L456.718 536.894V286.896L329.621 266.663V516.661Z" fill="#00C6A7"/>
<path d="M329.621 516.661L202.524 536.894V286.896L329.621 266.663V516.661Z" fill="#CCE9FF"/>
<path d="M583.816 516.661L456.718 536.894V286.896L583.816 266.663V516.661Z" fill="#CCE9FF"/>
<path d="M329.621 362.713L202.523 380.277V368.223L329.621 350.659V362.713Z" fill="#F7F7F7"/>
<path d="M329.621 439.514L202.523 457.079V445.025L329.621 427.461V439.514Z" fill="#F7F7F7"/>
<path d="M583.816 362.713L456.718 380.277V368.223L583.816 350.659V362.713Z" fill="#F7F7F7"/>
<path d="M388.31 432.923C403.191 432.923 415.254 420.097 415.254 404.274C415.254 388.452 403.191 375.626 388.31 375.626C373.429 375.626 361.365 388.452 361.365 404.274C361.365 420.097 373.429 432.923 388.31 432.923Z" fill="#0E538C"/>
<path d="M583.816 439.514L456.718 457.079V445.025L583.816 427.461V439.514Z" fill="#F7F7F7"/>
<path d="M329.621 362.713L456.718 380.277V368.223L329.621 350.659V362.713Z" fill="#F7F7F7"/>
<path d="M329.621 439.514L456.718 457.079V445.025L329.621 427.461V439.514Z" fill="#F7F7F7"/>
<path d="M243.994 530.292L233.427 531.928V281.976L243.994 280.294V530.292Z" fill="#F7F7F7"/>
<path d="M303.923 435.627L293.355 437.262V272.468L303.923 270.786V435.627Z" fill="#F7F7F7"/>
<path d="M386.014 526.007L396.581 527.643V277.597L386.014 275.914V526.007Z" fill="#F7F7F7"/>
<path d="M467.285 535.334L456.718 536.969V287.018L467.285 285.336V535.334Z" fill="#F7F7F7"/>
<path d="M518.059 443.272L507.492 444.907V279.042L518.059 277.36V443.272Z" fill="#F7F7F7"/>
<path d="M570.624 518.515L560.057 520.151V432.845L570.624 431.163V518.515Z" fill="#F7F7F7"/>
<path d="M538.41 523.796L527.843 525.432V438.126L538.41 436.444V523.796Z" fill="#F7F7F7"/>
<path d="M501.905 529.622L491.337 531.257V443.952L501.905 442.27V529.622Z" fill="#F7F7F7"/>
<path d="M388.309 362.932C366.835 362.932 349.427 381.442 349.427 404.274C349.427 427.107 366.835 445.616 388.309 445.616C409.784 445.616 427.192 427.107 427.192 404.274C427.192 381.441 409.784 362.932 388.309 362.932ZM388.309 432.923C373.429 432.923 361.365 420.096 361.365 404.274C361.365 388.452 373.428 375.625 388.309 375.625C403.191 375.625 415.254 388.452 415.254 404.274C415.254 420.096 403.191 432.923 388.309 432.923Z" fill="#F7F7F7"/>
<path d="M388.31 432.923C403.191 432.923 415.254 420.097 415.254 404.274C415.254 388.452 403.191 375.626 388.31 375.626C373.429 375.626 361.365 388.452 361.365 404.274C361.365 420.097 373.429 432.923 388.31 432.923Z" fill="#CCE9FF"/>
<path opacity="0.86" d="M388.31 432.923C403.191 432.923 415.254 420.097 415.254 404.274C415.254 388.452 403.191 375.626 388.31 375.626C373.429 375.626 361.365 388.452 361.365 404.274C361.365 420.097 373.429 432.923 388.31 432.923Z" fill="#00C6A7"/>
<path d="M456.727 375.069L456.598 375.051L328.003 357.688L268.32 364.655L268.111 362.868L328.019 355.875L456.709 373.251L511.876 364.697V278.344L513.674 278.058V366.239L456.727 375.069Z" fill="#00C6A7"/>
<path d="M269.749 386.7C263.382 386.7 252.605 385.635 252.605 381.645C252.605 377.655 263.382 376.59 269.749 376.59C276.116 376.59 286.892 377.655 286.892 381.645C286.892 385.635 276.116 386.7 269.749 386.7ZM254.934 381.645C255.456 382.628 260.85 384.387 269.749 384.387C278.648 384.387 284.042 382.628 284.564 381.645C284.042 380.662 278.648 378.904 269.749 378.904C260.85 378.904 255.456 380.662 254.934 381.645Z" fill="#00C6A7"/>
<path d="M279.447 355.085C279.447 349.729 275.105 345.388 269.749 345.388C264.393 345.388 260.052 349.729 260.052 355.085C260.052 355.094 260.052 355.103 260.052 355.111C260.055 356.365 260.386 357.596 260.942 358.72L269.749 376.517L278.556 358.72C279.112 357.596 279.443 356.365 279.447 355.111C279.447 355.103 279.447 355.094 279.447 355.085ZM269.749 360.209C266.92 360.209 264.626 357.915 264.626 355.085C264.626 352.255 266.92 349.961 269.749 349.961C272.579 349.961 274.873 352.255 274.873 355.085C274.873 357.915 272.579 360.209 269.749 360.209Z" fill="#00C6A7"/>
<path opacity="0.6" d="M346.024 355.822C346.864 363 352.837 368.919 353.163 376.139C353.554 384.759 346.031 391.384 339.391 396.894C332.847 402.322 326.332 408.244 322.835 415.992C319.338 423.742 319.603 433.789 325.613 439.801C332.758 446.948 344.918 446.086 352.983 452.176C359.135 456.822 361.806 464.619 365.916 471.142C374.744 485.154 391.62 493.673 408.136 492.456C412.695 492.119 417.651 490.807 420.201 487.014C423.278 482.437 421.604 476.169 418.849 471.391C416.094 466.613 412.308 462.248 411.108 456.865C408.558 445.431 418.402 435.165 427.997 428.443C437.592 421.721 448.817 414.69 451.072 403.194C453.473 390.945 444.325 379.416 434.35 371.913C428.418 367.45 421.683 363.344 418.453 356.66C415.802 351.177 415.939 344.746 413.839 339.03C410.933 331.119 403.498 325.058 395.158 323.804C379.835 321.505 377.084 333.961 366.067 339.299C357.93 343.241 344.292 341.023 346.024 355.822Z" fill="#00C6A7"/>
<path d="M652.952 844.42C652.633 849.587 652.173 855.129 648.889 859.129C645.017 863.846 638.403 865.045 632.366 865.931C623.567 867.222 614.768 868.516 605.969 869.807C605.52 871.109 607.041 872.201 608.346 872.642C614.851 874.844 621.938 873.884 628.768 873.173C636.684 872.348 644.639 871.895 652.598 871.815C656.14 871.779 660.342 871.462 662.14 868.41C663.481 866.134 662.868 863.275 662.553 860.651C661.594 852.654 663.845 844.508 662.701 836.536C662.569 835.617 662.273 834.554 661.404 834.224C660.963 834.057 660.47 834.128 660.007 834.221C653.275 835.582 653.326 838.372 652.952 844.42Z" fill="#FFE3CA"/>
<path d="M655.356 865.141C648.799 869.146 642.136 870.231 634.513 869.28C634.047 869.222 631.488 868.659 631.022 868.609C630.751 867.147 630.9 865.714 629.699 865.76C624.186 865.973 618.683 866.433 613.212 867.141C611.474 867.366 604.874 867.519 604.178 868.871C603.557 870.077 603.955 871.616 604.831 872.65C605.706 873.684 606.972 874.302 608.24 874.785C614.488 877.167 621.393 876.885 628.073 876.57C636.288 876.183 644.504 875.795 652.719 875.406C655.523 875.274 658.474 875.096 660.828 873.569C664.292 871.323 665.484 866.793 665.567 862.666C665.717 855.159 657.723 863.696 655.356 865.141Z" fill="#0B4870"/>
<path d="M628.916 471.898C628.916 471.898 647.394 470.823 647.357 470.361C646.929 464.979 642.065 457 644.591 452.228C647.116 447.455 649.048 444.754 651.599 439.996C651.976 439.292 652.306 438.332 651.732 437.779C651.26 437.323 650.493 437.474 649.865 437.661C646.487 438.665 643.155 439.824 639.883 441.135C634.342 443.354 629.103 443.298 628.915 449.156C628.71 455.593 628.916 471.898 628.916 471.898Z" fill="#FFE3CA"/>
<path d="M524.243 858.215C523.247 863.295 522.062 868.728 518.281 872.262C513.822 876.43 507.108 876.748 501.007 876.834C492.115 876.959 483.222 877.082 474.33 877.207C473.713 878.439 475.077 879.721 476.313 880.33C482.472 883.369 489.623 883.348 496.488 883.541C504.445 883.765 512.39 884.36 520.29 885.327C523.804 885.756 528.012 885.994 530.196 883.206C531.825 881.125 531.592 878.211 531.625 875.569C531.726 867.516 535.028 859.736 534.941 851.683C534.93 850.755 534.778 849.662 533.96 849.221C533.544 848.998 533.046 849.002 532.575 849.034C525.724 849.496 525.408 852.268 524.243 858.215Z" fill="#FFE3CA"/>
<path d="M670.75 613.661C670.75 613.661 664.792 657.596 662.559 691.105C660.325 724.614 671.495 796.843 670.75 816.205C670.006 835.566 665.538 846.734 665.538 846.734H648.411C648.411 846.734 627.56 756.633 626.816 737.272C626.071 717.911 613.413 618.875 613.413 618.875L670.75 613.661Z" fill="#0B4870"/>
<path d="M442.559 452.742C442.769 454.728 439.908 455.283 439.376 453.358C432.213 427.494 415.65 361.956 415.884 352.943C416.03 347.256 420.092 343.123 420.092 343.123H425.236C425.236 343.123 429.444 347.332 429.913 352.943C430.237 356.854 439.831 426.8 442.559 452.742Z" fill="#0B4870"/>
<path d="M629.312 415.506C627.287 419.304 624.789 423.681 620.522 424.246C619.841 424.336 619.113 424.327 618.525 424.683C617.431 425.344 617.35 426.873 617.397 428.151C617.573 433.019 617.749 437.887 617.926 442.754C618.087 447.203 618.661 452.397 622.47 454.704C625.201 456.359 628.667 455.889 631.802 455.286C634.312 454.804 636.829 454.266 639.181 453.268C646.502 450.166 651.389 442.912 653.661 435.293C655.448 429.293 655.804 422.601 653.144 416.933C647.973 405.918 635.02 404.803 629.312 415.506Z" fill="#FFE3CA"/>
<path d="M662.542 611.673C659.207 612.156 655.889 612.746 652.584 613.404C651.999 612.971 651.213 612.787 650.477 612.649C627.475 608.303 603.684 609.498 581.792 617.789C570.484 652.248 540.197 776.623 533.876 793.387C526.403 813.205 525.522 835.734 520.783 856.377C528.188 858.004 527.367 857.506 534.943 857.78C561.399 795.195 576.125 798.402 580.024 756.716C580.816 748.258 591.952 733.993 596.858 727.057C620.104 694.19 659.608 648.243 665.74 638.509C671.222 629.812 682.131 608.843 662.542 611.673Z" fill="#0B4870"/>
<path d="M443.941 396.126C443.55 394.621 443.027 393.028 441.783 392.09C440.192 390.892 437.922 391.162 436.077 391.912C434.232 392.663 432.552 393.831 430.626 394.337C427.165 395.249 423.059 394.013 420.196 396.157C418.526 397.407 417.729 399.715 418.273 401.729C418.553 402.77 419.145 403.697 419.584 404.684C421.079 408.048 420.809 412.149 422.986 415.12C424.637 417.376 427.375 418.515 429.971 419.549C436.267 422.057 442.562 424.565 448.858 427.073C449.262 427.234 449.727 427.394 450.118 427.203C450.448 427.04 450.618 426.675 450.755 426.335C453.391 419.775 452.261 416.604 448.957 411.295C446.094 406.693 445.286 401.29 443.941 396.126Z" fill="#FFE3CA"/>
<path d="M523.903 879.073C516.876 882.181 510.129 882.38 502.697 880.437C502.243 880.318 499.779 879.424 499.324 879.313C499.249 877.827 499.583 876.427 498.388 876.315C492.896 875.801 487.38 875.534 481.862 875.516C480.109 875.51 473.547 874.796 472.679 876.044C471.905 877.158 472.097 878.734 472.829 879.875C473.562 881.016 474.736 881.795 475.928 882.44C481.811 885.623 488.691 886.252 495.356 886.817C503.55 887.513 511.746 888.208 519.941 888.905C522.736 889.141 525.686 889.354 528.221 888.149C531.95 886.379 533.727 882.044 534.352 877.964C535.487 870.538 526.44 877.95 523.903 879.073Z" fill="#0B4870"/>
<path d="M680.166 487.702C671.484 479.954 661.624 471.741 649.989 471.909C646.111 471.964 586.733 458.62 579.837 458.083C533.763 454.498 496.2 417.679 450.377 411.679C445.825 413.132 444.323 419.298 446.181 423.7C448.04 428.103 452.139 431.081 456.085 433.776C497.312 461.937 540.893 470.593 585.718 492.582C575.393 519.288 596.751 551.579 594.991 558.202C593.108 565.287 576.179 611.999 578.036 619.09C594.74 624.23 608.047 624.914 625.466 626.362C642.884 627.811 661.537 624.67 676.31 615.331C674.69 606.685 666.942 598.707 672.866 595.517C689.828 584.73 706.294 576.594 717.489 559.897C719.649 556.677 721.586 553.186 722.167 549.352C723.771 538.785 692.539 498.747 680.166 487.702ZM670.153 576.727C672.33 566.987 678.66 519.189 678.66 519.189C683.674 521.796 706.794 549.102 706.794 549.102C706.794 549.102 675.073 573.444 670.153 576.727Z" fill="#00C6A7"/>
<path d="M425.913 342.901C422.623 344.699 418.412 343.905 415.843 341.174C414.356 339.593 413.286 337.438 414.3 334.827C416.559 329.017 420.755 322.241 418.818 318.368C416.882 314.494 416.882 314.818 416.882 314.494C416.882 314.172 427.559 320.499 429.146 325.79C432.374 336.552 429.317 341.04 425.913 342.901Z" fill="#F7F7F7"/>
<path d="M439.735 379.216C439.27 378.04 438.634 376.761 437.435 376.36C436 375.879 434.422 376.984 433.837 378.379C433.251 379.775 433.394 381.355 433.548 382.86C433.971 387.032 434.395 391.205 434.818 395.377C435.059 397.75 435.587 400.542 437.762 401.522C439.382 402.251 441.411 401.555 442.532 400.176C444.692 397.523 443.261 394.42 442.827 391.472C442.209 387.264 441.302 383.187 439.735 379.216Z" fill="#FFE3CA"/>
<path d="M430.229 330.76C430.017 329.257 429.703 327.648 429.146 325.79C427.559 320.498 416.882 314.171 416.882 314.493C416.882 314.602 416.888 314.647 416.962 314.793C416.987 314.841 417.013 314.893 417.04 314.944C417.242 315.318 417.706 316.142 418.817 318.365C420.66 322.053 416.962 328.364 414.653 333.975C415.328 334.338 416.067 334.459 416.816 334.13C418.382 333.443 419.226 331.105 420.918 331.343C423.307 331.68 422.389 336.204 424.635 337.083C426.024 337.627 427.431 336.243 427.991 334.86C428.552 333.476 428.805 331.853 429.955 330.902C430.041 330.836 430.139 330.81 430.229 330.76Z" fill="#00C6A7"/>
<path d="M666.497 415.909C662.762 412.157 657.909 409.733 653.005 407.736C649.202 406.188 645.21 404.841 641.106 404.924C637.002 405.007 632.73 406.759 630.558 410.243C628.901 412.9 628.644 416.244 629.214 419.325C629.585 421.329 630.463 425.684 632.011 427.168C633.317 428.418 635.39 427.566 636.494 429.4C637.255 430.666 637.163 432.274 636.777 433.7C636.376 435.177 635.642 436.63 634.396 437.519C634.046 437.768 633.653 437.961 633.238 438.089C631.232 438.712 629.915 440.608 630.204 442.687C630.655 445.929 631.856 449.069 633.718 451.761C634.159 452.398 634.65 453.007 635.199 453.553C635.069 454.481 634.821 455.417 634.693 456.344C634.311 459.099 635.485 462.41 638.171 463.132C637.216 462.07 636.278 460.84 636.228 459.411C636.179 457.982 637.475 456.459 638.858 456.819C639.965 457.107 640.51 458.358 640.684 459.486C641.081 462.076 640.298 464.823 638.592 466.811C640.406 465.791 642.277 464.721 643.508 463.043C644.834 461.236 645.288 458.896 646.654 457.119C646.947 456.737 647.282 456.395 647.632 456.067C647.79 456.282 647.953 456.496 648.102 456.715C649.198 458.314 649.305 459.37 648.45 461.937C648.307 462.368 647.416 463.863 647.416 463.863C647.608 463.69 652.094 460.321 648.975 455.098C649.743 454.957 650.506 454.793 651.25 454.558C656.83 452.796 660.889 448.088 664.637 443.595C667.954 439.619 671.407 435.34 672.06 430.205C672.729 424.95 670.232 419.661 666.497 415.909Z" fill="#0B4870"/>
<path d="M663.483 413.316C657.507 413.509 652.583 416.746 652.973 424.87C653.076 426.995 653.774 429.049 653.994 431.165C654.883 439.702 648.197 446.865 644.193 454.455C642.886 456.933 641.933 460.223 643.784 462.324C643.814 462.359 643.855 462.379 643.887 462.412C644.916 460.71 645.439 458.7 646.655 457.119C646.949 456.737 647.284 456.395 647.633 456.067C647.792 456.282 647.954 456.496 648.104 456.715C649.199 458.314 649.306 459.37 648.452 461.937C648.309 462.368 647.418 463.863 647.418 463.863C647.609 463.69 652.096 460.321 648.976 455.098C649.745 454.957 650.508 454.793 651.252 454.558C656.832 452.796 660.891 448.088 664.639 443.595C667.956 439.619 671.409 435.34 672.062 430.205C672.729 424.953 670.231 419.664 666.496 415.911C665.557 414.964 664.547 414.105 663.483 413.316Z" fill="#0B4870"/>
<path d="M683.494 426.143C685.194 418.227 680.154 410.432 672.238 408.733C664.322 407.033 656.527 412.073 654.828 419.989C653.128 427.905 658.168 435.7 666.084 437.399C674 439.099 681.795 434.059 683.494 426.143Z" fill="#0B4870"/>
<path d="M412.633 967.736C412.083 967.736 411.611 967.566 411.219 967.228C410.829 966.892 410.633 966.412 410.633 965.793C410.633 965.231 410.833 964.773 411.234 964.408C411.635 964.045 412.102 963.864 412.633 963.864C413.145 963.864 413.599 964.028 413.995 964.357C414.392 964.687 414.591 965.163 414.591 965.792C414.591 966.4 414.396 966.877 414.009 967.219C413.623 967.563 413.165 967.736 412.633 967.736Z" fill="#F7F7F7"/>
<path d="M640.76 967.725C640.207 967.725 639.74 967.55 639.353 967.214C638.956 966.874 638.76 966.402 638.76 965.785C638.76 965.223 638.961 964.764 639.365 964.397C639.764 964.04 640.23 963.855 640.76 963.855C641.279 963.855 641.731 964.018 642.124 964.342C642.521 964.675 642.72 965.157 642.72 965.785C642.72 966.396 642.525 966.871 642.142 967.213C641.757 967.55 641.297 967.725 640.76 967.725Z" fill="#F7F7F7"/>
<path d="M547.051 961.496C547.815 961.496 548.38 961.558 549.027 961.666L549.209 960.503C549.209 960.503 547.422 959.953 545.074 960.145L544.89 959.512C545.619 959.359 546.168 958.709 546.168 957.934C546.168 957.047 545.445 956.326 544.555 956.326C543.666 956.326 542.944 957.047 542.944 957.934C542.944 958.709 543.491 959.359 544.219 959.512L544.423 960.219C541.928 960.561 539.943 961.535 539.943 961.535L540.294 962.611C541.803 962.109 543.111 961.803 544.299 961.675C545.463 961.549 546.338 961.496 547.051 961.496Z" fill="#F7F7F7"/>
<path d="M628.94 235.539L553.248 231.905V112.264L628.94 118.397V235.539Z" fill="#00C6A7"/>
<path d="M159.631 433.313L106.425 430.759V346.658L159.631 350.969V433.313Z" fill="#00C6A7"/>
<path d="M173.553 479.706L130.841 477.655V410.142L173.553 413.603V479.706Z" fill="#2A94F4"/>
<path d="M527.962 230.247L461.278 232.719V148.889L527.962 151.359V230.247Z" fill="#2A94F4"/>
<path d="M291.991 230.247L225.308 232.719V148.889L291.991 151.359V230.247Z" fill="#328ADA"/>
<path d="M325.331 735.265L258.649 737.736V653.905L325.331 656.377V735.265Z" fill="#00C6A7"/>
<path d="M840.714 539.383C840.117 538.857 839.488 538.34 838.744 538.06C837.867 537.73 836.901 537.753 835.963 537.787C834.653 537.837 833.344 537.903 832.035 537.986C831.42 538.025 830.685 538.147 830.441 538.714C830.179 539.325 830.688 539.985 831.211 540.393C832.827 541.653 834.907 542.194 836.54 543.432C838.177 544.67 839.279 546.546 841.015 547.64C841.518 547.956 842.091 548.206 842.685 548.185C843.271 548.164 843.814 547.882 844.332 547.607C846.613 546.396 846.471 545.683 844.908 543.756C843.645 542.2 842.257 540.669 840.714 539.383Z" fill="#F7F7F7"/>
<path d="M769.188 605.776L790.617 455.202L848.431 447.266L878.5 604.688L769.188 605.776Z" fill="#FCD2B1"/>
<path d="M813.874 839.094L813.812 856.065C813.798 859.518 814.269 862.954 815.206 866.277L816.682 871.504C817.893 875.797 814.667 880.056 810.208 880.04C798.648 879.997 778.891 880.029 773.8 880.038C772.966 880.039 772.149 879.477 772.078 878.647C771.649 873.691 785.961 870.374 796.74 866.201C804.951 863.022 804.514 848.264 803.501 839.646C803.12 836.39 805.834 833.619 809.102 833.89C811.806 834.114 813.884 836.38 813.874 839.094Z" fill="#FCD2B1"/>
<path d="M893.322 834.333L899.17 853.748C899.427 854.606 899.813 855.42 900.314 856.163L904.46 862.319C907.091 866.228 905.197 871.568 900.69 872.942C900.69 872.942 892.333 875.883 883.715 878.713C874.895 881.611 863.801 879.189 863.801 876.862C863.801 871.691 868.622 875.795 876.699 870.395C879.406 868.585 882.199 866.692 884.689 864.737C891.64 859.281 885.57 845.468 881.316 837.688C879.786 834.89 881.411 831.418 884.529 830.753L886.543 830.324C889.501 829.692 892.449 831.436 893.322 834.333Z" fill="#FCD2B1"/>
<path d="M833.589 607.233L769.525 601.857C769.525 601.857 763.075 648.485 779.266 732.89C786.859 772.471 802.683 848.108 802.683 848.108C806.605 849.825 810.593 850.256 814.655 849.243C814.655 849.243 815.856 815.879 816.591 779.95C817.297 745.491 817.487 708.671 819.681 696.624C824.166 672.013 833.589 607.233 833.589 607.233Z" fill="#0B4870"/>
<path d="M820.365 608.046C813.752 643.543 798.975 696.624 827.437 746.489C855.898 796.354 885.791 848.196 885.791 848.196C889.642 848.353 893.136 846.957 896.381 844.493C896.381 844.493 891.391 821.887 884.177 795.49C875.926 765.292 865.472 729.774 868.45 711.254C874.031 676.545 880.442 630.322 878.5 607.874C876.557 585.426 823.844 589.379 820.365 608.046Z" fill="#0B4870"/>
<path d="M766.975 601.942L790.616 455.202L848.43 447.266L879.501 602.214C880.084 605.126 878.198 607.954 875.28 608.507C864.518 610.546 838.554 614.808 809.497 614.808C787.806 614.808 775.615 610.591 770.069 607.921C767.822 606.837 766.578 604.404 766.975 601.942Z" fill="#F7F7F7"/>
<path d="M830.371 456.406C830.371 466.977 832.292 477.446 835.902 487.381C842.965 506.818 853.561 543.572 847.265 575.952C838.197 622.579 826.541 641.43 841.652 652.296C856.763 663.163 885.743 645.03 886.579 638.987C887.416 632.943 880.939 558.692 873.599 526.523C866.259 494.353 845.702 448.109 845.702 448.109L836.992 449.039C833.227 449.44 830.371 452.618 830.371 456.406Z" fill="#00C6A7"/>
<path d="M806.302 453.048C806.302 453.048 796.275 474.718 799.773 505.852C803.269 536.985 811.374 631.791 783.043 646.108C774.073 650.641 753.585 630.566 753.585 623.117C753.585 615.669 760.423 590.737 766.903 568.071C773.382 545.404 788.997 455.423 788.997 455.423L806.302 453.048Z" fill="#00C6A7"/>
<path d="M814.373 385.888C827.276 385.888 832.09 395.073 832.335 412.063C832.427 418.427 829.565 424.731 827.261 428.757C825.549 431.747 825.08 435.289 826.057 438.594L828.89 448.183C830.816 457.078 826.592 461.957 820.355 463.729C817.265 464.606 813.564 463.927 810.866 462.183C807.658 460.11 807.395 455.652 807.99 451.88L808.722 449.146C809.708 445.462 807.574 441.492 803.848 440.677C793.913 438.504 792.49 428.148 789.829 412.063C787.055 395.299 801.47 385.888 814.373 385.888Z" fill="#FCD2B1"/>
<path d="M825.223 412.377C825.223 416.317 826.69 419.51 830.483 419.51C834.277 419.51 836.711 414.092 836.711 410.154C836.711 406.214 834.277 405.245 830.483 405.245C826.69 405.245 825.223 408.437 825.223 412.377Z" fill="#FCD2B1"/>
<path d="M826.792 429.67C826.792 429.67 817.156 442.918 805.165 441.123C805.165 441.123 807.654 442.314 808.26 444.249C808.26 444.248 819.65 443.406 826.792 429.67Z" fill="#FCD2B1"/>
<path d="M792.482 454.953C792.482 454.953 778.898 457.315 743.46 501.612C728.103 534.096 727.038 521.813 727.038 521.813C727.038 521.813 730.507 542.493 740.548 537.768C750.589 533.043 781.852 499.841 781.852 499.841L792.482 454.953Z" fill="#00C6A7"/>
<path d="M734.926 501.051C730.765 507.709 725.659 513.68 725.354 521.526C725.05 529.373 730.47 538.027 738.318 538.251C744.817 538.437 750.753 524.132 750.753 524.132L778.898 462.331L766.811 457.762C766.809 457.759 741.49 490.552 734.926 501.051Z" fill="#00C6A7"/>
<path d="M777.74 461.972C777.926 462.242 778.11 462.511 778.295 462.781C782.488 457.93 786.4 452.835 790.007 447.533C790.937 446.165 791.876 444.709 792.028 443.061C792.223 440.978 791.133 439.015 790.081 437.206C788.872 435.128 787.728 432.403 786.52 430.324C788.476 428.018 790.432 425.712 792.39 423.408C793.186 422.47 793.998 421.504 794.41 420.345C794.821 419.186 794.752 417.774 793.917 416.871C793.082 415.968 791.881 415.705 790.958 416.52C786.687 420.297 767.926 451.988 767.449 456.451C767.16 459.161 767.003 462.27 768.922 464.204C771.247 466.548 775.315 464.215 777.74 461.972Z" fill="#FCD2B1"/>
<path d="M795.294 393.588C795.294 393.588 814.799 395.212 820.828 390.878C820.828 390.878 823.146 404.353 826.79 406.847C830.436 409.341 828.335 403.937 831.94 405.305C831.94 405.305 834.768 389.184 821.957 384.286C809.146 379.388 801.422 373.359 801.422 373.359L807.074 379.199L797.842 376.562L802.364 380.895L784.654 379.953L789.48 382.214L780.886 388.431L792.48 387.866L779.941 395.025L792.48 392.575L787.48 395.967L795.294 393.588Z" fill="#0B4870"/>
<path d="M730.791 526.773C730.245 526.403 729.571 526.034 728.962 526.283C728.534 526.458 728.278 526.889 727.995 527.255C724.911 531.229 717.303 528.575 714.403 532.685C713.215 534.37 713.333 536.716 714.204 538.583C715.075 540.45 716.585 541.935 718.114 543.317C722.043 546.871 732.436 548.141 732.436 548.141L745.517 552.03L746.123 546.38L739.828 541.495C739.828 541.495 741.451 538.092 741.018 537.454C737.832 532.755 733.395 528.541 730.791 526.773Z" fill="#FCD2B1"/>
<path d="M731.465 526.608C730.936 526.015 730.373 525.427 729.667 525.059C728.835 524.627 727.874 524.533 726.938 524.456C725.631 524.349 724.323 524.259 723.015 524.186C722.398 524.152 721.655 524.186 721.345 524.72C721.012 525.294 721.438 526.01 721.91 526.479C723.364 527.921 725.364 528.708 726.838 530.131C728.315 531.557 729.186 533.548 730.78 534.842C731.241 535.217 731.78 535.534 732.373 535.584C732.957 535.632 733.529 535.416 734.077 535.205C736.486 534.276 736.43 533.551 735.108 531.451C734.04 529.754 732.843 528.067 731.465 526.608Z" fill="#FCD2B1"/>
<path d="M845.702 448.107C860.729 452.865 881.012 471.259 879.439 486.943C876.857 512.69 871.428 550.006 860.758 567.693C855.948 575.664 842.759 572.746 833.518 571.623C806.403 568.332 752.756 561.24 729.041 547.688C729.965 543.766 729.986 540.381 732.096 536.949C756.548 535.885 813.553 538.414 836.97 545.537L843.083 510.595" fill="#00C6A7"/>
<path d="M652.952 844.42C652.633 849.587 652.173 855.129 648.889 859.129C645.017 863.846 638.403 865.045 632.366 865.931C623.567 867.222 614.768 868.516 605.969 869.807C605.52 871.109 607.041 872.201 608.346 872.642C614.851 874.844 621.938 873.884 628.768 873.173C636.684 872.348 644.639 871.895 652.598 871.815C656.14 871.779 660.342 871.462 662.14 868.41C663.481 866.134 662.868 863.275 662.553 860.651C661.594 852.654 663.845 844.508 662.701 836.536C662.569 835.617 662.273 834.554 661.404 834.224C660.963 834.057 660.47 834.128 660.007 834.221C653.275 835.582 653.326 838.372 652.952 844.42Z" fill="#FFE3CA"/>
<path d="M655.356 865.141C648.799 869.146 642.136 870.231 634.513 869.28C634.047 869.222 631.488 868.659 631.022 868.609C630.751 867.147 630.9 865.714 629.699 865.76C624.186 865.973 618.683 866.433 613.212 867.141C611.474 867.366 604.874 867.519 604.178 868.871C603.557 870.077 603.955 871.616 604.831 872.65C605.706 873.684 606.972 874.302 608.24 874.785C614.488 877.167 621.393 876.885 628.073 876.57C636.288 876.183 644.504 875.795 652.719 875.406C655.523 875.274 658.474 875.096 660.828 873.569C664.292 871.323 665.484 866.793 665.567 862.666C665.717 855.159 657.723 863.696 655.356 865.141Z" fill="#0B4870"/>
<path d="M628.916 471.898C628.916 471.898 647.394 470.823 647.357 470.361C646.929 464.979 642.065 457 644.591 452.228C647.116 447.455 649.048 444.754 651.599 439.996C651.976 439.292 652.306 438.332 651.732 437.779C651.26 437.323 650.493 437.474 649.865 437.661C646.487 438.665 643.155 439.824 639.883 441.135C634.342 443.354 629.103 443.298 628.915 449.156C628.71 455.593 628.916 471.898 628.916 471.898Z" fill="#FFE3CA"/>
<path d="M524.243 858.215C523.247 863.295 522.062 868.728 518.281 872.262C513.822 876.43 507.108 876.748 501.007 876.834C492.115 876.959 483.222 877.082 474.33 877.207C473.713 878.439 475.077 879.721 476.313 880.33C482.472 883.369 489.623 883.348 496.488 883.541C504.445 883.765 512.39 884.36 520.29 885.327C523.804 885.756 528.012 885.994 530.196 883.206C531.825 881.125 531.592 878.211 531.625 875.569C531.726 867.516 535.028 859.736 534.941 851.683C534.93 850.755 534.778 849.662 533.96 849.221C533.544 848.998 533.046 849.002 532.575 849.034C525.724 849.496 525.408 852.268 524.243 858.215Z" fill="#FFE3CA"/>
<path d="M670.75 613.661C670.75 613.661 664.792 657.596 662.559 691.105C660.325 724.614 671.495 796.843 670.75 816.205C670.006 835.566 665.538 846.734 665.538 846.734H648.411C648.411 846.734 627.56 756.633 626.816 737.272C626.071 717.911 613.413 618.875 613.413 618.875L670.75 613.661Z" fill="#0B4870"/>
<path d="M442.559 452.742C442.769 454.728 439.908 455.283 439.376 453.358C432.213 427.494 415.65 361.956 415.884 352.943C416.03 347.256 420.092 343.123 420.092 343.123H425.236C425.236 343.123 429.444 347.332 429.913 352.943C430.237 356.854 439.831 426.8 442.559 452.742Z" fill="#0B4870"/>
<path d="M629.312 415.506C627.287 419.304 624.789 423.681 620.522 424.246C619.841 424.336 619.113 424.327 618.525 424.683C617.431 425.344 617.35 426.873 617.397 428.151C617.573 433.019 617.749 437.887 617.926 442.754C618.087 447.203 618.661 452.397 622.47 454.704C625.201 456.359 628.667 455.889 631.802 455.286C634.312 454.804 636.829 454.266 639.181 453.268C646.502 450.166 651.389 442.912 653.661 435.293C655.448 429.293 655.804 422.601 653.144 416.933C647.973 405.918 635.02 404.803 629.312 415.506Z" fill="#FFE3CA"/>
<path d="M662.542 611.673C659.207 612.156 655.889 612.746 652.584 613.404C651.999 612.971 651.213 612.787 650.477 612.649C627.475 608.303 603.684 609.498 581.792 617.789C570.484 652.248 540.197 776.623 533.876 793.387C526.403 813.205 525.522 835.734 520.783 856.377C528.188 858.004 527.367 857.506 534.943 857.78C561.399 795.195 576.125 798.402 580.024 756.716C580.816 748.258 591.952 733.993 596.858 727.057C620.104 694.19 659.608 648.243 665.74 638.509C671.222 629.812 682.131 608.843 662.542 611.673Z" fill="#0B4870"/>
<path d="M443.941 396.126C443.55 394.621 443.027 393.028 441.783 392.09C440.192 390.892 437.922 391.162 436.077 391.912C434.232 392.663 432.552 393.831 430.626 394.337C427.165 395.249 423.059 394.013 420.196 396.157C418.526 397.407 417.729 399.715 418.273 401.729C418.553 402.77 419.145 403.697 419.584 404.684C421.079 408.048 420.809 412.149 422.986 415.12C424.637 417.376 427.375 418.515 429.971 419.549C436.267 422.057 442.562 424.565 448.858 427.073C449.262 427.234 449.727 427.394 450.118 427.203C450.448 427.04 450.618 426.675 450.755 426.335C453.391 419.775 452.261 416.604 448.957 411.295C446.094 406.693 445.286 401.29 443.941 396.126Z" fill="#FFE3CA"/>
<path d="M523.903 879.073C516.876 882.181 510.129 882.38 502.697 880.437C502.243 880.318 499.779 879.424 499.324 879.313C499.249 877.827 499.583 876.427 498.388 876.315C492.896 875.801 487.38 875.534 481.862 875.516C480.109 875.51 473.547 874.796 472.679 876.044C471.905 877.158 472.097 878.734 472.829 879.875C473.562 881.016 474.736 881.795 475.928 882.44C481.811 885.623 488.691 886.252 495.356 886.817C503.55 887.513 511.746 888.208 519.941 888.905C522.736 889.141 525.686 889.354 528.221 888.149C531.95 886.379 533.727 882.044 534.352 877.964C535.487 870.538 526.44 877.95 523.903 879.073Z" fill="#0B4870"/>
<path d="M680.166 487.702C671.484 479.954 661.624 471.741 649.989 471.909C646.111 471.964 586.733 458.62 579.837 458.083C533.763 454.498 496.2 417.679 450.377 411.679C445.825 413.132 444.323 419.298 446.181 423.7C448.04 428.103 452.139 431.081 456.085 433.776C497.312 461.937 540.893 470.593 585.718 492.582C575.393 519.288 596.751 551.579 594.991 558.202C593.108 565.287 576.179 611.999 578.036 619.09C594.74 624.23 608.047 624.914 625.466 626.362C642.884 627.811 661.537 624.67 676.31 615.331C674.69 606.685 666.942 598.707 672.866 595.517C689.828 584.73 706.294 576.594 717.489 559.897C719.649 556.677 721.586 553.186 722.167 549.352C723.771 538.785 692.539 498.747 680.166 487.702ZM670.153 576.727C672.33 566.987 678.66 519.189 678.66 519.189C683.674 521.796 706.794 549.102 706.794 549.102C706.794 549.102 675.073 573.444 670.153 576.727Z" fill="#00C6A7"/>
<path d="M425.913 342.901C422.623 344.699 418.412 343.905 415.843 341.174C414.356 339.593 413.286 337.438 414.3 334.827C416.559 329.017 420.755 322.241 418.818 318.368C416.882 314.494 416.882 314.818 416.882 314.494C416.882 314.172 427.559 320.499 429.146 325.79C432.374 336.552 429.317 341.04 425.913 342.901Z" fill="#F7F7F7"/>
<path d="M439.735 379.216C439.27 378.04 438.634 376.761 437.435 376.36C436 375.879 434.422 376.984 433.837 378.379C433.251 379.775 433.394 381.355 433.548 382.86C433.971 387.032 434.395 391.205 434.818 395.377C435.059 397.75 435.587 400.542 437.762 401.522C439.382 402.251 441.411 401.555 442.532 400.176C444.692 397.523 443.261 394.42 442.827 391.472C442.209 387.264 441.302 383.187 439.735 379.216Z" fill="#FFE3CA"/>
<path d="M430.229 330.76C430.017 329.257 429.703 327.648 429.146 325.79C427.559 320.498 416.882 314.171 416.882 314.493C416.882 314.602 416.888 314.647 416.962 314.793C416.987 314.841 417.013 314.893 417.04 314.944C417.242 315.318 417.706 316.142 418.817 318.365C420.66 322.053 416.962 328.364 414.653 333.975C415.328 334.338 416.067 334.459 416.816 334.13C418.382 333.443 419.226 331.105 420.918 331.343C423.307 331.68 422.389 336.204 424.635 337.083C426.024 337.627 427.431 336.243 427.991 334.86C428.552 333.476 428.805 331.853 429.955 330.902C430.041 330.836 430.139 330.81 430.229 330.76Z" fill="#00C6A7"/>
<path d="M666.497 415.909C662.762 412.157 657.909 409.733 653.005 407.736C649.202 406.188 645.21 404.841 641.106 404.924C637.002 405.007 632.73 406.759 630.558 410.243C628.901 412.9 628.644 416.244 629.214 419.325C629.585 421.329 630.463 425.684 632.011 427.168C633.317 428.418 635.39 427.566 636.494 429.4C637.255 430.666 637.163 432.274 636.777 433.7C636.376 435.177 635.642 436.63 634.396 437.519C634.046 437.768 633.653 437.961 633.238 438.089C631.232 438.712 629.915 440.608 630.204 442.687C630.655 445.929 631.856 449.069 633.718 451.761C634.159 452.398 634.65 453.007 635.199 453.553C635.069 454.481 634.821 455.417 634.693 456.344C634.311 459.099 635.485 462.41 638.171 463.132C637.216 462.07 636.278 460.84 636.228 459.411C636.179 457.982 637.475 456.459 638.858 456.819C639.965 457.107 640.51 458.358 640.684 459.486C641.081 462.076 640.298 464.823 638.592 466.811C640.406 465.791 642.277 464.721 643.508 463.043C644.834 461.236 645.288 458.896 646.654 457.119C646.947 456.737 647.282 456.395 647.632 456.067C647.79 456.282 647.953 456.496 648.102 456.715C649.198 458.314 649.305 459.37 648.45 461.937C648.307 462.368 647.416 463.863 647.416 463.863C647.608 463.69 652.094 460.321 648.975 455.098C649.743 454.957 650.506 454.793 651.25 454.558C656.83 452.796 660.889 448.088 664.637 443.595C667.954 439.619 671.407 435.34 672.06 430.205C672.729 424.95 670.232 419.661 666.497 415.909Z" fill="#0B4870"/>
<path d="M663.483 413.316C657.507 413.509 652.583 416.746 652.973 424.87C653.076 426.995 653.774 429.049 653.994 431.165C654.883 439.702 648.197 446.865 644.193 454.455C642.886 456.933 641.933 460.223 643.784 462.324C643.814 462.359 643.855 462.379 643.887 462.412C644.916 460.71 645.439 458.7 646.655 457.119C646.949 456.737 647.284 456.395 647.633 456.067C647.792 456.282 647.954 456.496 648.104 456.715C649.199 458.314 649.306 459.37 648.452 461.937C648.309 462.368 647.418 463.863 647.418 463.863C647.609 463.69 652.096 460.321 648.976 455.098C649.745 454.957 650.508 454.793 651.252 454.558C656.832 452.796 660.891 448.088 664.639 443.595C667.956 439.619 671.409 435.34 672.062 430.205C672.729 424.953 670.231 419.664 666.496 415.911C665.557 414.964 664.547 414.105 663.483 413.316Z" fill="#0B4870"/>
<path d="M683.494 426.143C685.194 418.227 680.154 410.432 672.238 408.733C664.322 407.033 656.527 412.073 654.828 419.989C653.128 427.905 658.168 435.7 666.084 437.399C674 439.099 681.795 434.059 683.494 426.143Z" fill="#0B4870"/>
<path d="M840.714 539.383C840.117 538.857 839.488 538.34 838.744 538.06C837.867 537.73 836.901 537.753 835.963 537.787C834.653 537.837 833.344 537.903 832.035 537.986C831.42 538.025 830.685 538.147 830.441 538.714C830.179 539.325 830.688 539.985 831.211 540.393C832.827 541.653 834.907 542.194 836.54 543.432C838.177 544.67 839.279 546.546 841.015 547.64C841.518 547.956 842.091 548.206 842.685 548.185C843.271 548.164 843.814 547.882 844.332 547.607C846.613 546.396 846.471 545.683 844.908 543.756C843.645 542.2 842.257 540.669 840.714 539.383Z" fill="#F7F7F7"/>
<path d="M769.188 605.776L790.617 455.202L848.431 447.266L878.5 604.688L769.188 605.776Z" fill="#FCD2B1"/>
<path d="M813.874 839.094L813.812 856.065C813.798 859.518 814.269 862.954 815.206 866.277L816.682 871.504C817.893 875.797 814.667 880.056 810.208 880.04C798.648 879.997 778.891 880.029 773.8 880.038C772.966 880.039 772.149 879.477 772.078 878.647C771.649 873.691 785.961 870.374 796.74 866.201C804.951 863.022 804.514 848.264 803.501 839.646C803.12 836.39 805.834 833.619 809.102 833.89C811.806 834.114 813.884 836.38 813.874 839.094Z" fill="#FCD2B1"/>
<path d="M893.322 834.333L899.17 853.748C899.427 854.606 899.813 855.42 900.314 856.163L904.46 862.319C907.091 866.228 905.197 871.568 900.69 872.942C900.69 872.942 892.333 875.883 883.715 878.713C874.895 881.611 863.801 879.189 863.801 876.862C863.801 871.691 868.622 875.795 876.699 870.395C879.406 868.585 882.199 866.692 884.689 864.737C891.64 859.281 885.57 845.468 881.316 837.688C879.786 834.89 881.411 831.418 884.529 830.753L886.543 830.324C889.501 829.692 892.449 831.436 893.322 834.333Z" fill="#FCD2B1"/>
<path d="M833.589 607.233L769.525 601.857C769.525 601.857 763.075 648.485 779.266 732.89C786.859 772.471 802.683 848.108 802.683 848.108C806.605 849.825 810.593 850.256 814.655 849.243C814.655 849.243 815.856 815.879 816.591 779.95C817.297 745.491 817.487 708.671 819.681 696.624C824.166 672.013 833.589 607.233 833.589 607.233Z" fill="#0B4870"/>
<path d="M820.365 608.046C813.752 643.543 798.975 696.624 827.437 746.489C855.898 796.354 885.791 848.196 885.791 848.196C889.642 848.353 893.136 846.957 896.381 844.493C896.381 844.493 891.391 821.887 884.177 795.49C875.926 765.292 865.472 729.774 868.45 711.254C874.031 676.545 880.442 630.322 878.5 607.874C876.557 585.426 823.844 589.379 820.365 608.046Z" fill="#0B4870"/>
<path d="M766.975 601.942L790.616 455.202L848.43 447.266L879.501 602.214C880.084 605.126 878.198 607.954 875.28 608.507C864.518 610.546 838.554 614.808 809.497 614.808C787.806 614.808 775.615 610.591 770.069 607.921C767.822 606.837 766.578 604.404 766.975 601.942Z" fill="#F7F7F7"/>
<path d="M830.371 456.406C830.371 466.977 832.292 477.446 835.902 487.381C842.965 506.818 853.561 543.572 847.265 575.952C838.197 622.579 826.541 641.43 841.652 652.296C856.763 663.163 885.743 645.03 886.579 638.987C887.416 632.943 880.939 558.692 873.599 526.523C866.259 494.353 845.702 448.109 845.702 448.109L836.992 449.039C833.227 449.44 830.371 452.618 830.371 456.406Z" fill="#00C6A7"/>
<path d="M806.302 453.048C806.302 453.048 796.275 474.718 799.773 505.852C803.269 536.985 811.374 631.791 783.043 646.108C774.073 650.641 753.585 630.566 753.585 623.117C753.585 615.669 760.423 590.737 766.903 568.071C773.382 545.404 788.997 455.423 788.997 455.423L806.302 453.048Z" fill="#00C6A7"/>
<path d="M814.373 385.888C827.276 385.888 832.09 395.073 832.335 412.063C832.427 418.427 829.565 424.731 827.261 428.757C825.549 431.747 825.08 435.289 826.057 438.594L828.89 448.183C830.816 457.078 826.592 461.957 820.355 463.729C817.265 464.606 813.564 463.927 810.866 462.183C807.658 460.11 807.395 455.652 807.99 451.88L808.722 449.146C809.708 445.462 807.574 441.492 803.848 440.677C793.913 438.504 792.49 428.148 789.829 412.063C787.055 395.299 801.47 385.888 814.373 385.888Z" fill="#FCD2B1"/>
<path d="M825.223 412.377C825.223 416.317 826.69 419.51 830.483 419.51C834.277 419.51 836.711 414.092 836.711 410.154C836.711 406.214 834.277 405.245 830.483 405.245C826.69 405.245 825.223 408.437 825.223 412.377Z" fill="#FCD2B1"/>
<path d="M826.792 429.67C826.792 429.67 817.156 442.918 805.165 441.123C805.165 441.123 807.654 442.314 808.26 444.249C808.26 444.248 819.65 443.406 826.792 429.67Z" fill="#FCD2B1"/>
<path d="M792.482 454.953C792.482 454.953 778.898 457.315 743.46 501.612C728.103 534.096 727.038 521.813 727.038 521.813C727.038 521.813 730.507 542.493 740.548 537.768C750.589 533.043 781.852 499.841 781.852 499.841L792.482 454.953Z" fill="#00C6A7"/>
<path d="M734.926 501.051C730.765 507.709 725.659 513.68 725.354 521.526C725.05 529.373 730.47 538.027 738.318 538.251C744.817 538.437 750.753 524.132 750.753 524.132L778.898 462.331L766.811 457.762C766.809 457.759 741.49 490.552 734.926 501.051Z" fill="#00C6A7"/>
<path d="M777.74 461.972C777.926 462.242 778.11 462.511 778.295 462.781C782.488 457.93 786.4 452.835 790.007 447.533C790.937 446.165 791.876 444.709 792.028 443.061C792.223 440.978 791.133 439.015 790.081 437.206C788.872 435.128 787.728 432.403 786.52 430.324C788.476 428.018 790.432 425.712 792.39 423.408C793.186 422.47 793.998 421.504 794.41 420.345C794.821 419.186 794.752 417.774 793.917 416.871C793.082 415.968 791.881 415.705 790.958 416.52C786.687 420.297 767.926 451.988 767.449 456.451C767.16 459.161 767.003 462.27 768.922 464.204C771.247 466.548 775.315 464.215 777.74 461.972Z" fill="#FCD2B1"/>
<path d="M795.294 393.588C795.294 393.588 814.799 395.212 820.828 390.878C820.828 390.878 823.146 404.353 826.79 406.847C830.436 409.341 828.335 403.937 831.94 405.305C831.94 405.305 834.768 389.184 821.957 384.286C809.146 379.388 801.422 373.359 801.422 373.359L807.074 379.199L797.842 376.562L802.364 380.895L784.654 379.953L789.48 382.214L780.886 388.431L792.48 387.866L779.941 395.025L792.48 392.575L787.48 395.967L795.294 393.588Z" fill="#0B4870"/>
<path d="M730.791 526.773C730.245 526.403 729.571 526.034 728.962 526.283C728.534 526.458 728.278 526.889 727.995 527.255C724.911 531.229 717.303 528.575 714.403 532.685C713.215 534.37 713.333 536.716 714.204 538.583C715.075 540.45 716.585 541.935 718.114 543.317C722.043 546.871 732.436 548.141 732.436 548.141L745.517 552.03L746.123 546.38L739.828 541.495C739.828 541.495 741.451 538.092 741.018 537.454C737.832 532.755 733.395 528.541 730.791 526.773Z" fill="#FCD2B1"/>
<path d="M731.465 526.608C730.936 526.015 730.373 525.427 729.667 525.059C728.835 524.627 727.874 524.533 726.938 524.456C725.631 524.349 724.323 524.259 723.015 524.186C722.398 524.152 721.655 524.186 721.345 524.72C721.012 525.294 721.438 526.01 721.91 526.479C723.364 527.921 725.364 528.708 726.838 530.131C728.315 531.557 729.186 533.548 730.78 534.842C731.241 535.217 731.78 535.534 732.373 535.584C732.957 535.632 733.529 535.416 734.077 535.205C736.486 534.276 736.43 533.551 735.108 531.451C734.04 529.754 732.843 528.067 731.465 526.608Z" fill="#FCD2B1"/>
<path d="M845.702 448.107C860.729 452.865 881.012 471.259 879.439 486.943C876.857 512.69 871.428 550.006 860.758 567.693C855.948 575.664 842.759 572.746 833.518 571.623C806.403 568.332 752.756 561.24 729.041 547.688C729.965 543.766 729.986 540.381 732.096 536.949C756.548 535.885 813.553 538.414 836.97 545.537L843.083 510.595" fill="#00C6A7"/>
<path d="M904.461 862.32C904.461 862.32 891.718 870.899 882.996 872.437C874.274 873.976 871.194 872.437 871.194 872.437C871.194 872.437 862.985 872.02 861.062 876.638C859.137 881.256 872.907 885.969 882.762 883.949C892.617 881.93 906.47 873.375 906.47 873.375C906.47 873.375 910.149 861.95 904.461 862.32Z" fill="#0B4870"/>
<path d="M814.047 869.638C814.047 869.638 799.843 875.491 790.988 875.251C782.134 875.012 779.427 872.886 779.427 872.886C779.427 872.886 771.468 870.834 768.657 874.971C765.846 879.109 778.392 886.487 788.452 886.483C798.511 886.478 813.798 880.873 813.798 880.873C813.798 880.873 819.694 870.416 814.047 869.638Z" fill="#0B4870"/>
</svg>
