<svg width="520" height="515" viewBox="0 0 520 515" fill="none" xmlns="http://www.w3.org/2000/svg">
<path d="M282.469 148.357L327.408 139.681V197.521H282.469V148.357Z" fill="#D6F6F1"/>
<path d="M328.691 17.8949L381.333 0.863892V86.339L328.691 86.339V17.8949Z" fill="#D6F6F1"/>
<path opacity="0.5" d="M260 508.848C403.594 508.848 520 496.634 520 481.567C520 466.5 403.594 454.286 260 454.286C116.406 454.286 0 466.5 0 481.567C0 496.634 116.406 508.848 260 508.848Z" fill="#D1F5EF" fill-opacity="0.92"/>
<path d="M283.45 334.775C283.45 345.178 275.475 353.844 265.109 354.706L71.0381 370.862C59.3783 371.833 49.3789 362.631 49.3789 350.931V92.9545C49.3789 81.2543 59.3783 72.0528 71.0381 73.0234L265.109 89.1793C275.475 90.0423 283.45 98.7079 283.45 109.11V334.775Z" fill="#E5FBF7" fill-opacity="0.92"/>
<path d="M149.353 271.815L216.199 282.724V147.944L149.353 137.036V271.815Z" fill="#CCE9FF"/>
<path opacity="0.13" d="M149.353 271.815L216.199 282.724V147.944L149.353 137.036V271.815Z" fill="#00C6A7"/>
<path d="M149.354 271.816L82.509 282.724V147.944L149.354 137.036V271.816Z" fill="#CCE9FF"/>
<path d="M283.045 271.815L216.2 282.724V147.944L283.045 137.036V271.815Z" fill="#CCE9FF"/>
<path d="M149.354 188.819L82.5085 198.288V191.79L149.354 182.32V188.819Z" fill="#F7F7F7"/>
<path d="M149.354 230.224L82.5085 239.694V233.195L149.354 223.726V230.224Z" fill="#F7F7F7"/>
<path d="M283.045 188.819L216.2 198.288V191.79L283.045 182.32V188.819Z" fill="#F7F7F7"/>
<path d="M180.221 226.671C188.048 226.671 194.392 219.756 194.392 211.226C194.392 202.695 188.048 195.78 180.221 195.78C172.395 195.78 166.05 202.695 166.05 211.226C166.05 219.756 172.395 226.671 180.221 226.671Z" fill="#0E538C"/>
<path d="M283.045 230.224L216.2 239.694V233.195L283.045 223.726V230.224Z" fill="#F7F7F7"/>
<path d="M149.353 188.819L216.199 198.288V191.79L149.353 182.32V188.819Z" fill="#F7F7F7"/>
<path d="M149.353 230.224L216.199 239.694V233.195L149.353 223.726V230.224Z" fill="#F7F7F7"/>
<path d="M104.32 279.165L98.762 280.046V145.292L104.32 144.385V279.165Z" fill="#F7F7F7"/>
<path d="M135.838 228.128L130.281 229.01V140.166L135.838 139.259V228.128Z" fill="#F7F7F7"/>
<path d="M179.014 276.854L184.571 277.736V142.931L179.014 142.024V276.854Z" fill="#F7F7F7"/>
<path d="M221.757 281.882L216.2 282.764V148.01L221.757 147.103V281.882Z" fill="#F7F7F7"/>
<path d="M248.462 232.25L242.904 233.132V143.71L248.462 142.803V232.25Z" fill="#F7F7F7"/>
<path d="M276.107 272.815L270.55 273.697V226.629L276.107 225.722V272.815Z" fill="#F7F7F7"/>
<path d="M259.165 275.662L253.607 276.544V229.476L259.165 228.569V275.662Z" fill="#F7F7F7"/>
<path d="M239.964 278.803L234.406 279.685V232.617L239.964 231.71V278.803Z" fill="#F7F7F7"/>
<path d="M180.22 188.937C168.926 188.937 159.77 198.916 159.77 211.225C159.77 223.535 168.926 233.514 180.22 233.514C191.514 233.514 200.67 223.535 200.67 211.225C200.67 198.916 191.514 188.937 180.22 188.937ZM180.22 226.67C172.394 226.67 166.049 219.755 166.049 211.225C166.049 202.695 172.394 195.78 180.22 195.78C188.047 195.78 194.391 202.695 194.391 211.225C194.391 219.755 188.047 226.67 180.22 226.67Z" fill="#F7F7F7"/>
<path d="M180.221 226.671C188.048 226.671 194.392 219.756 194.392 211.226C194.392 202.695 188.048 195.78 180.221 195.78C172.395 195.78 166.05 202.695 166.05 211.226C166.05 219.756 172.395 226.671 180.221 226.671Z" fill="#CCE9FF"/>
<path opacity="0.86" d="M180.221 226.671C188.048 226.671 194.392 219.756 194.392 211.226C194.392 202.695 188.048 195.78 180.221 195.78C172.395 195.78 166.05 202.695 166.05 211.226C166.05 219.756 172.395 226.671 180.221 226.671Z" fill="#00C6A7"/>
<path d="M216.204 195.48L216.136 195.47L148.503 186.109L117.114 189.865L117.004 188.902L148.512 185.132L216.195 194.5L245.209 189.889V143.334L246.155 143.179V190.72L216.204 195.48Z" fill="#00C6A7"/>
<path d="M117.866 201.751C114.517 201.751 108.849 201.177 108.849 199.026C108.849 196.874 114.517 196.3 117.866 196.3C121.215 196.3 126.882 196.874 126.882 199.026C126.882 201.177 121.215 201.751 117.866 201.751ZM110.074 199.026C110.349 199.556 113.185 200.504 117.866 200.504C122.546 200.504 125.383 199.556 125.658 199.026C125.383 198.495 122.546 197.547 117.866 197.547C113.185 197.547 110.348 198.495 110.074 199.026Z" fill="#00C6A7"/>
<path d="M122.965 184.706C122.965 181.819 120.682 179.478 117.865 179.478C115.048 179.478 112.765 181.819 112.765 184.706C112.765 184.711 112.765 184.716 112.765 184.721C112.767 185.397 112.941 186.06 113.233 186.666L117.865 196.261L122.497 186.666C122.789 186.06 122.963 185.397 122.965 184.721C122.965 184.716 122.965 184.711 122.965 184.706ZM117.865 187.469C116.377 187.469 115.17 186.232 115.17 184.706C115.17 183.181 116.377 181.944 117.865 181.944C119.353 181.944 120.56 183.181 120.56 184.706C120.56 186.232 119.353 187.469 117.865 187.469Z" fill="#00C6A7"/>
<path opacity="0.6" d="M157.981 185.104C158.423 188.974 161.564 192.165 161.736 196.057C161.941 200.705 157.985 204.276 154.492 207.246C151.051 210.173 147.624 213.366 145.785 217.543C143.946 221.721 144.085 227.137 147.246 230.379C151.004 234.232 157.4 233.767 161.641 237.05C164.877 239.555 166.282 243.759 168.443 247.275C173.086 254.83 181.962 259.423 190.648 258.766C193.046 258.585 195.653 257.877 196.994 255.832C198.612 253.365 197.732 249.986 196.283 247.41C194.834 244.834 192.843 242.481 192.211 239.579C190.87 233.414 196.048 227.879 201.094 224.255C206.141 220.631 212.044 216.841 213.23 210.643C214.493 204.04 209.682 197.824 204.435 193.779C201.315 191.373 197.773 189.159 196.074 185.556C194.68 182.6 194.753 179.133 193.648 176.051C192.119 171.786 188.209 168.518 183.823 167.842C175.764 166.603 174.317 173.318 168.523 176.196C164.243 178.321 157.07 177.125 157.981 185.104Z" fill="#00C6A7"/>
<path d="M319.407 448.518C319.239 451.304 318.997 454.291 317.27 456.448C315.234 458.991 311.755 459.637 308.58 460.115C303.952 460.811 299.325 461.508 294.697 462.205C294.461 462.907 295.26 463.495 295.947 463.733C299.368 464.92 303.095 464.403 306.688 464.019C310.851 463.575 315.035 463.33 319.221 463.287C321.084 463.267 323.294 463.097 324.239 461.451C324.945 460.224 324.622 458.683 324.457 457.268C323.952 452.957 325.136 448.565 324.534 444.268C324.465 443.772 324.309 443.199 323.853 443.021C323.62 442.931 323.361 442.969 323.118 443.02C319.577 443.753 319.604 445.257 319.407 448.518Z" fill="#FFE3CA"/>
<path d="M320.671 459.689C317.223 461.848 313.718 462.433 309.709 461.92C309.464 461.889 308.118 461.585 307.873 461.559C307.731 460.77 307.809 459.998 307.177 460.023C304.278 460.137 301.383 460.385 298.506 460.767C297.592 460.888 294.121 460.971 293.755 461.7C293.428 462.35 293.637 463.18 294.098 463.737C294.559 464.294 295.224 464.628 295.891 464.888C299.177 466.172 302.809 466.02 306.322 465.851C310.643 465.642 314.964 465.433 319.285 465.223C320.759 465.152 322.311 465.056 323.549 464.233C325.371 463.022 325.998 460.579 326.041 458.355C326.121 454.307 321.916 458.91 320.671 459.689Z" fill="#0B4870"/>
<path d="M306.766 247.683C306.766 247.683 316.484 247.104 316.464 246.854C316.239 243.953 313.681 239.651 315.01 237.078C316.337 234.505 317.354 233.049 318.696 230.484C318.894 230.104 319.067 229.587 318.765 229.288C318.517 229.043 318.114 229.124 317.783 229.225C316.007 229.766 314.254 230.391 312.533 231.098C309.619 232.294 306.864 232.264 306.765 235.422C306.657 238.893 306.766 247.683 306.766 247.683Z" fill="#FFE3CA"/>
<path d="M251.712 455.955C251.188 458.694 250.565 461.623 248.577 463.528C246.232 465.775 242.7 465.946 239.492 465.993C234.815 466.06 230.138 466.127 225.461 466.194C225.137 466.858 225.854 467.55 226.504 467.878C229.743 469.516 233.504 469.505 237.115 469.609C241.3 469.73 245.479 470.051 249.633 470.571C251.482 470.803 253.695 470.931 254.843 469.428C255.7 468.306 255.578 466.735 255.595 465.311C255.648 460.97 257.385 456.775 257.339 452.434C257.333 451.933 257.253 451.344 256.823 451.106C256.604 450.986 256.342 450.988 256.094 451.005C252.492 451.255 252.325 452.749 251.712 455.955Z" fill="#FFE3CA"/>
<path d="M328.767 324.111C328.767 324.111 325.634 347.797 324.459 365.862C323.284 383.928 329.159 422.868 328.767 433.306C328.375 443.744 326.026 449.765 326.026 449.765H317.018C317.018 449.765 306.052 401.19 305.66 390.752C305.269 380.314 298.611 326.921 298.611 326.921L328.767 324.111Z" fill="#0B4870"/>
<path d="M208.752 237.355C208.862 238.426 207.357 238.725 207.078 237.688C203.31 223.744 194.599 188.411 194.722 183.552C194.799 180.486 196.935 178.258 196.935 178.258H199.641C199.641 178.258 201.854 180.526 202.1 183.552C202.271 185.66 207.317 223.37 208.752 237.355Z" fill="#0B4870"/>
<path d="M306.973 217.28C305.908 219.328 304.594 221.688 302.35 221.992C301.992 222.041 301.609 222.036 301.3 222.228C300.725 222.585 300.682 223.409 300.706 224.098C300.799 226.722 300.892 229.347 300.985 231.971C301.069 234.369 301.371 237.169 303.375 238.413C304.811 239.306 306.634 239.052 308.283 238.727C309.603 238.467 310.926 238.177 312.164 237.639C316.014 235.967 318.585 232.056 319.779 227.949C320.719 224.714 320.906 221.106 319.507 218.05C316.788 212.112 309.975 211.51 306.973 217.28Z" fill="#FFE3CA"/>
<path d="M324.451 323.039C322.696 323.299 320.952 323.618 319.213 323.972C318.906 323.739 318.492 323.64 318.105 323.565C306.007 321.222 293.495 321.867 281.981 326.336C276.034 344.914 260.105 411.967 256.78 421.005C252.85 431.689 252.386 443.835 249.894 454.964C253.788 455.842 253.356 455.573 257.341 455.72C271.255 421.979 279.001 423.708 281.051 401.235C281.467 396.675 287.324 388.984 289.905 385.245C302.131 367.525 322.907 342.755 326.133 337.506C329.016 332.818 334.753 321.513 324.451 323.039Z" fill="#0B4870"/>
<path d="M209.479 206.833C209.273 206.021 208.998 205.162 208.344 204.657C207.507 204.011 206.313 204.156 205.343 204.561C204.373 204.966 203.489 205.595 202.476 205.868C200.656 206.36 198.497 205.694 196.991 206.849C196.112 207.523 195.693 208.767 195.979 209.853C196.127 210.414 196.438 210.914 196.669 211.446C197.455 213.26 197.313 215.471 198.458 217.073C199.327 218.289 200.766 218.903 202.132 219.461C205.443 220.813 208.754 222.165 212.065 223.517C212.277 223.604 212.522 223.69 212.728 223.587C212.901 223.499 212.991 223.302 213.063 223.119C214.449 219.583 213.855 217.873 212.117 215.01C210.611 212.53 210.186 209.617 209.479 206.833Z" fill="#FFE3CA"/>
<path d="M251.534 467.2C247.838 468.876 244.289 468.983 240.381 467.936C240.142 467.871 238.846 467.39 238.607 467.33C238.567 466.528 238.743 465.773 238.114 465.713C235.226 465.436 232.325 465.292 229.423 465.283C228.501 465.279 225.049 464.894 224.593 465.567C224.186 466.168 224.287 467.017 224.672 467.633C225.057 468.248 225.675 468.668 226.302 469.016C229.396 470.732 233.014 471.07 236.52 471.375C240.829 471.751 245.14 472.125 249.45 472.501C250.92 472.628 252.472 472.743 253.805 472.093C255.766 471.139 256.701 468.802 257.029 466.602C257.626 462.599 252.868 466.595 251.534 467.2Z" fill="#0B4870"/>
<path d="M333.719 256.203C329.153 252.026 323.967 247.598 317.848 247.689C315.808 247.719 284.579 240.524 280.952 240.235C256.72 238.302 236.964 218.452 212.864 215.217C210.47 216.001 209.68 219.325 210.657 221.698C211.635 224.072 213.791 225.677 215.866 227.13C237.549 242.313 260.47 246.979 284.046 258.834C278.615 273.232 289.848 290.641 288.922 294.211C287.932 298.031 279.029 323.215 280.005 327.038C288.791 329.808 295.789 330.177 304.95 330.958C314.111 331.739 323.921 330.046 331.691 325.011C330.839 320.349 326.764 316.049 329.88 314.328C338.801 308.513 347.461 304.127 353.349 295.125C354.485 293.389 355.503 291.507 355.809 289.44C356.653 283.743 340.227 262.158 333.719 256.203ZM328.453 304.198C329.598 298.948 332.927 273.178 332.927 273.178C335.564 274.584 347.724 289.305 347.724 289.305C347.724 289.305 331.041 302.429 328.453 304.198Z" fill="#00C6A7"/>
<path d="M199.997 178.139C198.267 179.108 196.052 178.68 194.702 177.208C193.919 176.355 193.356 175.193 193.89 173.786C195.078 170.654 197.285 167 196.266 164.912C195.248 162.824 195.248 162.999 195.248 162.824C195.248 162.65 200.863 166.061 201.698 168.914C203.396 174.716 201.788 177.135 199.997 178.139Z" fill="#F7F7F7"/>
<path d="M207.267 197.716C207.023 197.082 206.688 196.392 206.057 196.176C205.303 195.917 204.473 196.513 204.165 197.265C203.857 198.017 203.932 198.869 204.013 199.681C204.236 201.93 204.458 204.18 204.681 206.429C204.808 207.708 205.085 209.214 206.229 209.742C207.081 210.135 208.148 209.76 208.738 209.016C209.874 207.586 209.122 205.913 208.894 204.324C208.569 202.055 208.091 199.857 207.267 197.716Z" fill="#FFE3CA"/>
<path d="M202.27 171.592C202.158 170.782 201.994 169.914 201.7 168.913C200.866 166.06 195.25 162.649 195.25 162.823C195.25 162.881 195.253 162.905 195.292 162.984C195.306 163.01 195.319 163.038 195.333 163.066C195.44 163.267 195.684 163.711 196.268 164.91C197.238 166.898 195.292 170.3 194.078 173.326C194.433 173.521 194.821 173.586 195.215 173.409C196.039 173.039 196.483 171.778 197.373 171.907C198.629 172.088 198.147 174.527 199.328 175.001C200.059 175.294 200.798 174.548 201.093 173.803C201.388 173.057 201.521 172.181 202.126 171.669C202.171 171.633 202.223 171.619 202.27 171.592Z" fill="#00C6A7"/>
<path d="M326.53 217.498C324.566 215.475 322.014 214.169 319.434 213.092C317.434 212.257 315.335 211.531 313.176 211.576C311.018 211.62 308.771 212.565 307.629 214.443C306.757 215.876 306.622 217.679 306.922 219.34C307.117 220.42 307.579 222.768 308.393 223.568C309.079 224.242 310.17 223.783 310.75 224.772C311.151 225.454 311.102 226.321 310.899 227.09C310.689 227.886 310.303 228.669 309.647 229.149C309.463 229.283 309.256 229.387 309.038 229.456C307.983 229.791 307.29 230.814 307.443 231.935C307.68 233.683 308.311 235.375 309.29 236.827C309.523 237.17 309.781 237.499 310.07 237.793C310.001 238.293 309.871 238.798 309.803 239.298C309.603 240.783 310.22 242.568 311.633 242.957C311.13 242.384 310.637 241.721 310.611 240.951C310.585 240.181 311.266 239.359 311.994 239.553C312.576 239.709 312.863 240.383 312.954 240.992C313.163 242.388 312.751 243.869 311.854 244.941C312.808 244.391 313.792 243.814 314.44 242.909C315.137 241.935 315.376 240.673 316.094 239.715C316.248 239.51 316.424 239.325 316.608 239.148C316.692 239.264 316.777 239.38 316.856 239.497C317.432 240.36 317.488 240.929 317.039 242.313C316.963 242.545 316.495 243.351 316.495 243.351C316.596 243.258 318.956 241.442 317.315 238.626C317.719 238.55 318.12 238.461 318.512 238.335C321.446 237.385 323.581 234.846 325.552 232.424C327.297 230.281 329.113 227.974 329.456 225.205C329.808 222.372 328.495 219.521 326.53 217.498Z" fill="#0B4870"/>
<path d="M324.945 216.1C321.802 216.204 319.213 217.949 319.418 222.329C319.472 223.475 319.839 224.582 319.955 225.723C320.422 230.325 316.906 234.187 314.8 238.279C314.113 239.615 313.612 241.389 314.585 242.522C314.601 242.54 314.622 242.551 314.639 242.569C315.18 241.651 315.455 240.567 316.095 239.715C316.25 239.51 316.426 239.325 316.61 239.148C316.693 239.264 316.778 239.379 316.857 239.497C317.433 240.359 317.489 240.929 317.04 242.313C316.965 242.545 316.496 243.351 316.496 243.351C316.597 243.258 318.957 241.442 317.316 238.625C317.72 238.55 318.121 238.461 318.513 238.335C321.447 237.385 323.582 234.846 325.553 232.424C327.298 230.281 329.114 227.974 329.457 225.205C329.808 222.374 328.494 219.522 326.53 217.499C326.036 216.989 325.505 216.526 324.945 216.1Z" fill="#0B4870"/>
<path d="M335.47 223.016C336.363 218.748 333.713 214.545 329.549 213.629C325.386 212.713 321.286 215.43 320.393 219.698C319.499 223.965 322.149 228.168 326.313 229.084C330.476 230 334.576 227.283 335.47 223.016Z" fill="#0B4870"/>
<path d="M193.013 515C192.724 515 192.475 514.908 192.269 514.726C192.064 514.545 191.961 514.287 191.961 513.953C191.961 513.65 192.066 513.403 192.277 513.206C192.488 513.01 192.734 512.913 193.013 512.913C193.282 512.913 193.521 513.001 193.729 513.179C193.938 513.356 194.042 513.613 194.042 513.952C194.042 514.28 193.94 514.537 193.737 514.722C193.534 514.907 193.293 515 193.013 515Z" fill="#F7F7F7"/>
<path d="M312.995 514.994C312.704 514.994 312.458 514.9 312.254 514.719C312.046 514.535 311.943 514.281 311.943 513.949C311.943 513.646 312.048 513.398 312.26 513.2C312.471 513.008 312.715 512.908 312.995 512.908C313.267 512.908 313.505 512.996 313.712 513.17C313.92 513.35 314.025 513.61 314.025 513.949C314.025 514.278 313.923 514.534 313.721 514.718C313.518 514.9 313.277 514.994 312.995 514.994Z" fill="#F7F7F7"/>
<path d="M263.709 511.636C264.11 511.636 264.408 511.67 264.748 511.728L264.844 511.101C264.844 511.101 263.904 510.804 262.669 510.908L262.572 510.567C262.955 510.484 263.244 510.134 263.244 509.716C263.244 509.238 262.864 508.849 262.396 508.849C261.928 508.849 261.548 509.238 261.548 509.716C261.548 510.134 261.836 510.484 262.219 510.567L262.326 510.948C261.014 511.132 259.97 511.657 259.97 511.657L260.155 512.237C260.948 511.967 261.636 511.802 262.261 511.733C262.873 511.665 263.334 511.636 263.709 511.636Z" fill="#F7F7F7"/>
<path d="M306.776 120.257L266.967 118.298V53.7964L306.776 57.1027V120.257Z" fill="#00C6A7"/>
<path d="M59.9491 226.881L31.9658 225.504V180.164L59.9491 182.487V226.881Z" fill="#00C6A7"/>
<path d="M67.2705 251.892L44.8066 250.786V214.389L67.2705 216.255V251.892Z" fill="#2A94F4"/>
<path d="M253.668 117.404L218.596 118.736V73.5414L253.668 74.8732V117.404Z" fill="#2A94F4"/>
<path d="M147.097 389.67L112.026 391.002V345.807L147.097 347.14V389.67Z" fill="#00C6A7"/>
<path d="M418.158 284.066C417.844 283.782 417.513 283.503 417.122 283.352C416.66 283.174 416.152 283.187 415.659 283.205C414.97 283.232 414.282 283.268 413.594 283.312C413.27 283.334 412.883 283.399 412.755 283.705C412.617 284.034 412.885 284.39 413.16 284.61C414.01 285.289 415.104 285.581 415.963 286.248C416.824 286.916 417.403 287.927 418.316 288.517C418.581 288.688 418.882 288.822 419.195 288.811C419.503 288.8 419.788 288.648 420.061 288.499C421.26 287.847 421.186 287.462 420.364 286.423C419.7 285.584 418.97 284.759 418.158 284.066Z" fill="#F7F7F7"/>
<path d="M380.54 319.859L391.81 238.681L422.217 234.403L438.031 319.273L380.54 319.859Z" fill="#FCD2B1"/>
<path d="M404.043 445.646L404.01 454.796C404.003 456.657 404.25 458.51 404.743 460.302L405.519 463.119C406.157 465.434 404.46 467.73 402.115 467.721C396.035 467.698 385.644 467.715 382.966 467.72C382.528 467.721 382.098 467.418 382.061 466.97C381.835 464.299 389.362 462.51 395.031 460.26C399.35 458.546 399.12 450.59 398.587 445.944C398.387 444.189 399.815 442.694 401.533 442.841C402.955 442.962 404.048 444.183 404.043 445.646Z" fill="#FCD2B1"/>
<path d="M445.828 443.079L448.903 453.547C449.039 454.009 449.242 454.448 449.505 454.848L451.686 458.168C453.07 460.275 452.073 463.154 449.703 463.895C449.703 463.895 445.308 465.48 440.775 467.006C436.136 468.568 430.302 467.263 430.302 466.008C430.302 463.22 432.837 465.433 437.085 462.521C438.509 461.546 439.978 460.525 441.287 459.471C444.943 456.53 441.751 449.083 439.513 444.888C438.709 443.38 439.563 441.508 441.203 441.15L442.262 440.918C443.818 440.578 445.369 441.518 445.828 443.079Z" fill="#FCD2B1"/>
<path d="M414.412 320.645L380.718 317.747C380.718 317.747 377.325 342.885 385.841 388.389C389.835 409.729 398.157 450.506 398.157 450.506C400.22 451.432 402.317 451.664 404.453 451.118C404.453 451.118 405.085 433.131 405.472 413.76C405.843 395.183 405.943 375.332 407.097 368.838C409.456 355.569 414.412 320.645 414.412 320.645Z" fill="#0B4870"/>
<path d="M407.456 321.083C403.978 340.22 396.206 368.838 411.175 395.721C426.144 422.604 441.866 450.553 441.866 450.553C443.892 450.638 445.729 449.885 447.436 448.557C447.436 448.557 444.811 436.37 441.017 422.138C436.677 405.858 431.179 386.71 432.746 376.725C435.681 358.013 439.053 333.093 438.031 320.99C437.009 308.888 409.285 311.02 407.456 321.083Z" fill="#0B4870"/>
<path d="M379.376 317.792L391.81 238.681L422.217 234.403L438.558 317.939C438.864 319.509 437.873 321.034 436.338 321.332C430.678 322.431 417.022 324.729 401.74 324.729C390.332 324.729 383.92 322.456 381.003 321.016C379.822 320.432 379.168 319.12 379.376 317.792Z" fill="#F7F7F7"/>
<path d="M412.718 239.331C412.718 245.03 413.729 250.674 415.627 256.03C419.342 266.509 424.915 286.324 421.603 303.781C416.835 328.919 410.704 339.081 418.651 344.94C426.599 350.798 441.841 341.022 442.281 337.764C442.72 334.506 439.314 294.475 435.454 277.132C431.594 259.789 420.781 234.858 420.781 234.858L416.201 235.359C414.22 235.575 412.718 237.289 412.718 239.331Z" fill="#00C6A7"/>
<path d="M400.06 237.52C400.06 237.52 394.786 249.203 396.626 265.988C398.465 282.773 402.727 333.885 387.827 341.603C383.109 344.048 372.334 333.224 372.334 329.209C372.334 325.193 375.931 311.752 379.339 299.532C382.746 287.312 390.958 238.801 390.958 238.801L400.06 237.52Z" fill="#00C6A7"/>
<path d="M404.305 201.313C411.091 201.313 413.623 206.265 413.752 215.425C413.801 218.855 412.295 222.254 411.083 224.425C410.183 226.037 409.936 227.946 410.45 229.728L411.94 234.897C412.953 239.693 410.731 242.323 407.451 243.279C405.826 243.752 403.879 243.385 402.46 242.445C400.774 241.328 400.635 238.924 400.948 236.891L401.333 235.417C401.852 233.431 400.729 231.291 398.77 230.851C393.544 229.679 392.796 224.096 391.396 215.425C389.938 206.387 397.519 201.313 404.305 201.313Z" fill="#FCD2B1"/>
<path d="M410.011 215.594C410.011 217.718 410.783 219.44 412.778 219.44C414.773 219.44 416.053 216.518 416.053 214.395C416.053 212.271 414.773 211.749 412.778 211.749C410.783 211.749 410.011 213.47 410.011 215.594Z" fill="#FCD2B1"/>
<path d="M410.837 224.917C410.837 224.917 405.768 232.059 399.462 231.091C399.462 231.091 400.771 231.733 401.09 232.777C401.09 232.776 407.08 232.322 410.837 224.917Z" fill="#FCD2B1"/>
<path d="M392.791 238.547C392.791 238.547 385.646 239.821 367.008 263.702C358.931 281.215 358.371 274.593 358.371 274.593C358.371 274.593 360.195 285.742 365.476 283.195C370.757 280.647 387.2 262.748 387.2 262.748L392.791 238.547Z" fill="#00C6A7"/>
<path d="M362.52 263.4C360.331 266.989 357.646 270.209 357.486 274.439C357.326 278.669 360.176 283.335 364.303 283.456C367.722 283.556 370.844 275.844 370.844 275.844L385.647 242.525L379.289 240.062C379.288 240.061 365.972 257.74 362.52 263.4Z" fill="#00C6A7"/>
<path d="M385.038 242.332C385.135 242.477 385.232 242.622 385.33 242.768C387.535 240.152 389.593 237.406 391.489 234.547C391.979 233.809 392.472 233.025 392.552 232.136C392.655 231.014 392.082 229.955 391.528 228.98C390.893 227.859 390.291 226.39 389.655 225.27C390.684 224.026 391.713 222.783 392.743 221.541C393.161 221.035 393.588 220.515 393.805 219.89C394.021 219.265 393.985 218.503 393.546 218.017C393.107 217.53 392.475 217.388 391.99 217.827C389.743 219.864 379.876 236.949 379.625 239.355C379.473 240.816 379.391 242.492 380.4 243.535C381.623 244.798 383.762 243.541 385.038 242.332Z" fill="#FCD2B1"/>
<path d="M394.27 205.464C394.27 205.464 404.529 206.34 407.7 204.003C407.7 204.003 408.919 211.268 410.836 212.612C412.753 213.957 411.648 211.043 413.544 211.781C413.544 211.781 415.031 203.09 408.294 200.449C401.556 197.809 397.493 194.558 397.493 194.558L400.466 197.707L395.611 196.285L397.989 198.621L388.675 198.113L391.213 199.332L386.693 202.684L392.79 202.379L386.196 206.239L392.79 204.918L390.161 206.747L394.27 205.464Z" fill="#0B4870"/>
<path d="M360.345 277.267C360.058 277.068 359.704 276.869 359.383 277.003C359.158 277.097 359.023 277.33 358.874 277.527C357.253 279.67 353.251 278.239 351.726 280.455C351.101 281.363 351.163 282.628 351.621 283.634C352.08 284.641 352.874 285.441 353.678 286.187C355.744 288.103 361.211 288.787 361.211 288.787L368.09 290.884L368.409 287.838L365.098 285.204C365.098 285.204 365.952 283.369 365.724 283.026C364.048 280.492 361.715 278.22 360.345 277.267Z" fill="#FCD2B1"/>
<path d="M360.7 277.179C360.422 276.858 360.126 276.542 359.755 276.343C359.317 276.11 358.811 276.06 358.319 276.018C357.632 275.961 356.944 275.912 356.256 275.873C355.931 275.854 355.541 275.873 355.377 276.16C355.202 276.47 355.426 276.856 355.675 277.109C356.44 277.886 357.491 278.311 358.267 279.078C359.044 279.846 359.502 280.92 360.34 281.618C360.582 281.82 360.866 281.991 361.177 282.017C361.485 282.043 361.785 281.927 362.074 281.813C363.341 281.312 363.311 280.921 362.616 279.789C362.054 278.874 361.425 277.965 360.7 277.179Z" fill="#FCD2B1"/>
<path d="M420.781 234.857C428.684 237.422 439.352 247.338 438.525 255.794C437.167 269.675 434.312 289.793 428.699 299.328C426.17 303.625 419.233 302.052 414.373 301.447C400.112 299.672 371.897 295.849 359.424 288.543C359.91 286.429 359.921 284.604 361.031 282.753C373.892 282.18 403.872 283.543 416.188 287.383L419.404 268.545" fill="#00C6A7"/>
<path d="M319.407 448.518C319.239 451.304 318.997 454.291 317.27 456.448C315.234 458.991 311.755 459.637 308.58 460.115C303.952 460.811 299.325 461.508 294.697 462.205C294.461 462.907 295.26 463.495 295.947 463.733C299.368 464.92 303.095 464.403 306.688 464.019C310.851 463.575 315.035 463.33 319.221 463.287C321.084 463.267 323.294 463.097 324.239 461.451C324.945 460.224 324.622 458.683 324.457 457.268C323.952 452.957 325.136 448.565 324.534 444.268C324.465 443.772 324.309 443.199 323.853 443.021C323.62 442.931 323.361 442.969 323.118 443.02C319.577 443.753 319.604 445.257 319.407 448.518Z" fill="#FFE3CA"/>
<path d="M320.671 459.689C317.223 461.848 313.718 462.433 309.709 461.92C309.464 461.889 308.118 461.585 307.873 461.559C307.731 460.77 307.809 459.998 307.177 460.023C304.278 460.137 301.383 460.385 298.506 460.767C297.592 460.888 294.121 460.971 293.755 461.7C293.428 462.35 293.637 463.18 294.098 463.737C294.559 464.294 295.224 464.628 295.891 464.888C299.177 466.172 302.809 466.02 306.322 465.851C310.643 465.642 314.964 465.433 319.285 465.223C320.759 465.152 322.311 465.056 323.549 464.233C325.371 463.022 325.998 460.579 326.041 458.355C326.121 454.307 321.916 458.91 320.671 459.689Z" fill="#0B4870"/>
<path d="M306.766 247.683C306.766 247.683 316.484 247.104 316.464 246.854C316.239 243.953 313.681 239.651 315.01 237.078C316.337 234.505 317.354 233.049 318.696 230.484C318.894 230.104 319.067 229.587 318.765 229.288C318.517 229.043 318.114 229.124 317.783 229.225C316.007 229.766 314.254 230.391 312.533 231.098C309.619 232.294 306.864 232.264 306.765 235.422C306.657 238.893 306.766 247.683 306.766 247.683Z" fill="#FFE3CA"/>
<path d="M251.712 455.955C251.188 458.694 250.565 461.623 248.577 463.528C246.232 465.775 242.7 465.946 239.492 465.993C234.815 466.06 230.138 466.127 225.461 466.194C225.137 466.858 225.854 467.55 226.504 467.878C229.743 469.516 233.504 469.505 237.115 469.609C241.3 469.73 245.479 470.051 249.633 470.571C251.482 470.803 253.695 470.931 254.843 469.428C255.7 468.306 255.578 466.735 255.595 465.311C255.648 460.97 257.385 456.775 257.339 452.434C257.333 451.933 257.253 451.344 256.823 451.106C256.604 450.986 256.342 450.988 256.094 451.005C252.492 451.255 252.325 452.749 251.712 455.955Z" fill="#FFE3CA"/>
<path d="M328.767 324.111C328.767 324.111 325.634 347.797 324.459 365.862C323.284 383.928 329.159 422.868 328.767 433.306C328.375 443.744 326.026 449.765 326.026 449.765H317.018C317.018 449.765 306.052 401.19 305.66 390.752C305.269 380.314 298.611 326.921 298.611 326.921L328.767 324.111Z" fill="#0B4870"/>
<path d="M208.752 237.355C208.862 238.426 207.357 238.725 207.078 237.688C203.31 223.744 194.599 188.411 194.722 183.552C194.799 180.486 196.935 178.258 196.935 178.258H199.641C199.641 178.258 201.854 180.526 202.1 183.552C202.271 185.66 207.317 223.37 208.752 237.355Z" fill="#0B4870"/>
<path d="M306.973 217.28C305.908 219.328 304.594 221.688 302.35 221.992C301.992 222.041 301.609 222.036 301.3 222.228C300.725 222.585 300.682 223.409 300.706 224.098C300.799 226.722 300.892 229.347 300.985 231.971C301.069 234.369 301.371 237.169 303.375 238.413C304.811 239.306 306.634 239.052 308.283 238.727C309.603 238.467 310.926 238.177 312.164 237.639C316.014 235.967 318.585 232.056 319.779 227.949C320.719 224.714 320.906 221.106 319.507 218.05C316.788 212.112 309.975 211.51 306.973 217.28Z" fill="#FFE3CA"/>
<path d="M324.451 323.039C322.696 323.299 320.952 323.618 319.213 323.972C318.906 323.739 318.492 323.64 318.105 323.565C306.007 321.222 293.495 321.867 281.981 326.336C276.034 344.914 260.105 411.967 256.78 421.005C252.85 431.689 252.386 443.835 249.894 454.964C253.788 455.842 253.356 455.573 257.341 455.72C271.255 421.979 279.001 423.708 281.051 401.235C281.467 396.675 287.324 388.984 289.905 385.245C302.131 367.525 322.907 342.755 326.133 337.506C329.016 332.818 334.753 321.513 324.451 323.039Z" fill="#0B4870"/>
<path d="M209.479 206.833C209.273 206.021 208.998 205.162 208.344 204.657C207.507 204.011 206.313 204.156 205.343 204.561C204.373 204.966 203.489 205.595 202.476 205.868C200.656 206.36 198.497 205.694 196.991 206.849C196.112 207.523 195.693 208.767 195.979 209.853C196.127 210.414 196.438 210.914 196.669 211.446C197.455 213.26 197.313 215.471 198.458 217.073C199.327 218.289 200.766 218.903 202.132 219.461C205.443 220.813 208.754 222.165 212.065 223.517C212.277 223.604 212.522 223.69 212.728 223.587C212.901 223.499 212.991 223.302 213.063 223.119C214.449 219.583 213.855 217.873 212.117 215.01C210.611 212.53 210.186 209.617 209.479 206.833Z" fill="#FFE3CA"/>
<path d="M251.534 467.2C247.838 468.876 244.289 468.983 240.381 467.936C240.142 467.871 238.846 467.39 238.607 467.33C238.567 466.528 238.743 465.773 238.114 465.713C235.226 465.436 232.325 465.292 229.423 465.283C228.501 465.279 225.049 464.894 224.593 465.567C224.186 466.168 224.287 467.017 224.672 467.633C225.057 468.248 225.675 468.668 226.302 469.016C229.396 470.732 233.014 471.07 236.52 471.375C240.829 471.751 245.14 472.125 249.45 472.501C250.92 472.628 252.472 472.743 253.805 472.093C255.766 471.139 256.701 468.802 257.029 466.602C257.626 462.599 252.868 466.595 251.534 467.2Z" fill="#0B4870"/>
<path d="M333.719 256.203C329.153 252.026 323.967 247.598 317.848 247.689C315.808 247.719 284.579 240.524 280.952 240.235C256.72 238.302 236.964 218.452 212.864 215.217C210.47 216.001 209.68 219.325 210.657 221.698C211.635 224.072 213.791 225.677 215.866 227.13C237.549 242.313 260.47 246.979 284.046 258.834C278.615 273.232 289.848 290.641 288.922 294.211C287.932 298.031 279.029 323.215 280.005 327.038C288.791 329.808 295.789 330.177 304.95 330.958C314.111 331.739 323.921 330.046 331.691 325.011C330.839 320.349 326.764 316.049 329.88 314.328C338.801 308.513 347.461 304.127 353.349 295.125C354.485 293.389 355.503 291.507 355.809 289.44C356.653 283.743 340.227 262.158 333.719 256.203ZM328.453 304.198C329.598 298.948 332.927 273.178 332.927 273.178C335.564 274.584 347.724 289.305 347.724 289.305C347.724 289.305 331.041 302.429 328.453 304.198Z" fill="#00C6A7"/>
<path d="M199.997 178.139C198.267 179.108 196.052 178.68 194.702 177.208C193.919 176.355 193.356 175.193 193.89 173.786C195.078 170.654 197.285 167 196.266 164.912C195.248 162.824 195.248 162.999 195.248 162.824C195.248 162.65 200.863 166.061 201.698 168.914C203.396 174.716 201.788 177.135 199.997 178.139Z" fill="#F7F7F7"/>
<path d="M207.267 197.716C207.023 197.082 206.688 196.392 206.057 196.176C205.303 195.917 204.473 196.513 204.165 197.265C203.857 198.017 203.932 198.869 204.013 199.681C204.236 201.93 204.458 204.18 204.681 206.429C204.808 207.708 205.085 209.214 206.229 209.742C207.081 210.135 208.148 209.76 208.738 209.016C209.874 207.586 209.122 205.913 208.894 204.324C208.569 202.055 208.091 199.857 207.267 197.716Z" fill="#FFE3CA"/>
<path d="M202.27 171.592C202.158 170.782 201.994 169.914 201.7 168.913C200.866 166.06 195.25 162.649 195.25 162.823C195.25 162.881 195.253 162.905 195.292 162.984C195.306 163.01 195.319 163.038 195.333 163.066C195.44 163.267 195.684 163.711 196.268 164.91C197.238 166.898 195.292 170.3 194.078 173.326C194.433 173.521 194.821 173.586 195.215 173.409C196.039 173.039 196.483 171.778 197.373 171.907C198.629 172.088 198.147 174.527 199.328 175.001C200.059 175.294 200.798 174.548 201.093 173.803C201.388 173.057 201.521 172.181 202.126 171.669C202.171 171.633 202.223 171.619 202.27 171.592Z" fill="#00C6A7"/>
<path d="M326.53 217.498C324.566 215.475 322.014 214.169 319.434 213.092C317.434 212.257 315.335 211.531 313.176 211.576C311.018 211.62 308.771 212.565 307.629 214.443C306.757 215.876 306.622 217.679 306.922 219.34C307.117 220.42 307.579 222.768 308.393 223.568C309.079 224.242 310.17 223.783 310.75 224.772C311.151 225.454 311.102 226.321 310.899 227.09C310.689 227.886 310.303 228.669 309.647 229.149C309.463 229.283 309.256 229.387 309.038 229.456C307.983 229.791 307.29 230.814 307.443 231.935C307.68 233.683 308.311 235.375 309.29 236.827C309.523 237.17 309.781 237.499 310.07 237.793C310.001 238.293 309.871 238.798 309.803 239.298C309.603 240.783 310.22 242.568 311.633 242.957C311.13 242.384 310.637 241.721 310.611 240.951C310.585 240.181 311.266 239.359 311.994 239.553C312.576 239.709 312.863 240.383 312.954 240.992C313.163 242.388 312.751 243.869 311.854 244.941C312.808 244.391 313.792 243.814 314.44 242.909C315.137 241.935 315.376 240.673 316.094 239.715C316.248 239.51 316.424 239.325 316.608 239.148C316.692 239.264 316.777 239.38 316.856 239.497C317.432 240.36 317.488 240.929 317.039 242.313C316.963 242.545 316.495 243.351 316.495 243.351C316.596 243.258 318.956 241.442 317.315 238.626C317.719 238.55 318.12 238.461 318.512 238.335C321.446 237.385 323.581 234.846 325.552 232.424C327.297 230.281 329.113 227.974 329.456 225.205C329.808 222.372 328.495 219.521 326.53 217.498Z" fill="#0B4870"/>
<path d="M324.945 216.1C321.802 216.204 319.213 217.949 319.418 222.329C319.472 223.475 319.839 224.582 319.955 225.723C320.422 230.325 316.906 234.187 314.8 238.279C314.113 239.615 313.612 241.389 314.585 242.522C314.601 242.54 314.622 242.551 314.639 242.569C315.18 241.651 315.455 240.567 316.095 239.715C316.25 239.51 316.426 239.325 316.61 239.148C316.693 239.264 316.778 239.379 316.857 239.497C317.433 240.359 317.489 240.929 317.04 242.313C316.965 242.545 316.496 243.351 316.496 243.351C316.597 243.258 318.957 241.442 317.316 238.625C317.72 238.55 318.121 238.461 318.513 238.335C321.447 237.385 323.582 234.846 325.553 232.424C327.298 230.281 329.114 227.974 329.457 225.205C329.808 222.374 328.494 219.522 326.53 217.499C326.036 216.989 325.505 216.526 324.945 216.1Z" fill="#0B4870"/>
<path d="M335.47 223.016C336.363 218.748 333.713 214.545 329.549 213.629C325.386 212.713 321.286 215.43 320.393 219.698C319.499 223.965 322.149 228.168 326.313 229.084C330.476 230 334.576 227.283 335.47 223.016Z" fill="#0B4870"/>
<path d="M418.158 284.066C417.844 283.782 417.513 283.503 417.122 283.352C416.66 283.174 416.152 283.187 415.659 283.205C414.97 283.232 414.282 283.268 413.594 283.312C413.27 283.334 412.883 283.399 412.755 283.705C412.617 284.034 412.885 284.39 413.16 284.61C414.01 285.289 415.104 285.581 415.963 286.248C416.824 286.916 417.403 287.927 418.316 288.517C418.581 288.688 418.882 288.822 419.195 288.811C419.503 288.8 419.788 288.648 420.061 288.499C421.26 287.847 421.186 287.462 420.364 286.423C419.7 285.584 418.97 284.759 418.158 284.066Z" fill="#F7F7F7"/>
<path d="M380.54 319.859L391.81 238.681L422.217 234.403L438.031 319.273L380.54 319.859Z" fill="#FCD2B1"/>
<path d="M404.043 445.646L404.01 454.796C404.003 456.657 404.25 458.51 404.743 460.302L405.519 463.119C406.157 465.434 404.46 467.73 402.115 467.721C396.035 467.698 385.644 467.715 382.966 467.72C382.528 467.721 382.098 467.418 382.061 466.97C381.835 464.299 389.362 462.51 395.031 460.26C399.35 458.546 399.12 450.59 398.587 445.944C398.387 444.189 399.815 442.694 401.533 442.841C402.955 442.962 404.048 444.183 404.043 445.646Z" fill="#A4866F"/>
<path d="M445.828 443.079L448.903 453.547C449.039 454.009 449.242 454.448 449.505 454.848L451.686 458.168C453.07 460.275 452.073 463.154 449.703 463.895C449.703 463.895 445.308 465.48 440.775 467.006C436.136 468.568 430.302 467.263 430.302 466.008C430.302 463.22 432.837 465.433 437.085 462.521C438.509 461.546 439.978 460.525 441.287 459.471C444.943 456.53 441.751 449.083 439.513 444.888C438.709 443.38 439.563 441.508 441.203 441.15L442.262 440.918C443.818 440.578 445.369 441.518 445.828 443.079Z" fill="#A4866F"/>
<path d="M414.412 320.645L380.718 317.747C380.718 317.747 377.325 342.885 385.841 388.389C389.835 409.729 398.157 450.506 398.157 450.506C400.22 451.432 402.317 451.664 404.453 451.118C404.453 451.118 405.085 433.131 405.472 413.76C405.843 395.183 405.943 375.332 407.097 368.838C409.456 355.569 414.412 320.645 414.412 320.645Z" fill="#0B4870"/>
<path d="M407.456 321.083C403.978 340.22 396.206 368.838 411.175 395.721C426.144 422.604 441.866 450.553 441.866 450.553C443.892 450.638 445.729 449.885 447.436 448.557C447.436 448.557 444.811 436.37 441.017 422.138C436.677 405.858 431.179 386.71 432.746 376.725C435.681 358.013 439.053 333.093 438.031 320.99C437.009 308.888 409.285 311.02 407.456 321.083Z" fill="#0B4870"/>
<path d="M379.376 317.792L391.81 238.681L422.217 234.403L438.558 317.939C438.864 319.509 437.873 321.034 436.338 321.332C430.678 322.431 417.022 324.729 401.74 324.729C390.332 324.729 383.92 322.456 381.003 321.016C379.822 320.432 379.168 319.12 379.376 317.792Z" fill="#F7F7F7"/>
<path d="M412.718 239.331C412.718 245.03 413.729 250.674 415.627 256.03C419.342 266.509 424.915 286.324 421.603 303.781C416.835 328.919 410.704 339.081 418.651 344.94C426.599 350.798 441.841 341.022 442.281 337.764C442.72 334.506 439.314 294.475 435.454 277.132C431.594 259.789 420.781 234.858 420.781 234.858L416.201 235.359C414.22 235.575 412.718 237.289 412.718 239.331Z" fill="#00C6A7"/>
<path d="M400.06 237.52C400.06 237.52 394.786 249.203 396.626 265.988C398.465 282.773 402.727 333.885 387.827 341.603C383.109 344.048 372.334 333.224 372.334 329.209C372.334 325.193 375.931 311.752 379.339 299.532C382.746 287.312 390.958 238.801 390.958 238.801L400.06 237.52Z" fill="#00C6A7"/>
<path d="M404.305 201.313C411.091 201.313 413.623 206.265 413.752 215.425C413.801 218.855 412.295 222.254 411.083 224.425C410.183 226.037 409.936 227.946 410.45 229.728L411.94 234.897C412.953 239.693 410.731 242.323 407.451 243.279C405.826 243.752 403.879 243.385 402.46 242.445C400.774 241.328 400.635 238.924 400.948 236.891L401.333 235.417C401.852 233.431 400.729 231.291 398.77 230.851C393.544 229.679 392.796 224.096 391.396 215.425C389.938 206.387 397.519 201.313 404.305 201.313Z" fill="#A4866F"/>
<path d="M410.011 215.594C410.011 217.718 410.783 219.44 412.778 219.44C414.773 219.44 416.053 216.518 416.053 214.395C416.053 212.271 414.773 211.749 412.778 211.749C410.783 211.749 410.011 213.47 410.011 215.594Z" fill="#A4866F"/>
<path d="M410.837 224.917C410.837 224.917 405.768 232.059 399.462 231.091C399.462 231.091 400.771 231.733 401.09 232.777C401.09 232.776 407.08 232.322 410.837 224.917Z" fill="#A4866F"/>
<path d="M392.791 238.547C392.791 238.547 385.646 239.821 367.008 263.702C358.931 281.215 358.371 274.593 358.371 274.593C358.371 274.593 360.195 285.742 365.476 283.195C370.757 280.647 387.2 262.748 387.2 262.748L392.791 238.547Z" fill="#00C6A7"/>
<path d="M362.52 263.4C360.331 266.989 357.646 270.209 357.486 274.439C357.326 278.669 360.176 283.335 364.303 283.456C367.722 283.556 370.844 275.844 370.844 275.844L385.647 242.525L379.289 240.062C379.288 240.061 365.972 257.74 362.52 263.4Z" fill="#00C6A7"/>
<path d="M385.038 242.332C385.135 242.477 385.232 242.622 385.33 242.768C387.535 240.152 389.593 237.406 391.489 234.547C391.979 233.809 392.472 233.025 392.552 232.136C392.655 231.014 392.082 229.955 391.528 228.98C390.893 227.859 390.291 226.39 389.655 225.27C390.684 224.026 391.713 222.783 392.743 221.541C393.161 221.035 393.588 220.515 393.805 219.89C394.021 219.265 393.985 218.503 393.546 218.017C393.107 217.53 392.475 217.388 391.99 217.827C389.743 219.864 379.876 236.949 379.625 239.355C379.473 240.816 379.391 242.492 380.4 243.535C381.623 244.798 383.762 243.541 385.038 242.332Z" fill="#A4866F"/>
<path d="M394.27 205.464C394.27 205.464 404.529 206.34 407.7 204.003C407.7 204.003 408.919 211.268 410.836 212.612C412.753 213.957 411.648 211.043 413.544 211.781C413.544 211.781 415.031 203.09 408.294 200.449C401.556 197.809 397.493 194.558 397.493 194.558L400.466 197.707L395.611 196.285L397.989 198.621L388.675 198.113L391.213 199.332L386.693 202.684L392.79 202.379L386.196 206.239L392.79 204.918L390.161 206.747L394.27 205.464Z" fill="#0B4870"/>
<path d="M360.345 277.267C360.058 277.068 359.704 276.869 359.383 277.003C359.158 277.097 359.023 277.33 358.874 277.527C357.253 279.67 353.251 278.239 351.726 280.455C351.101 281.363 351.163 282.628 351.621 283.634C352.08 284.641 352.874 285.441 353.678 286.187C355.744 288.103 361.211 288.787 361.211 288.787L368.09 290.884L368.409 287.838L365.098 285.204C365.098 285.204 365.952 283.369 365.724 283.026C364.048 280.492 361.715 278.22 360.345 277.267Z" fill="#A4866F"/>
<path d="M360.7 277.179C360.422 276.858 360.126 276.542 359.755 276.343C359.317 276.11 358.811 276.06 358.319 276.018C357.632 275.961 356.944 275.912 356.256 275.873C355.931 275.854 355.541 275.873 355.377 276.16C355.202 276.47 355.426 276.856 355.675 277.109C356.44 277.886 357.491 278.311 358.267 279.078C359.044 279.846 359.502 280.92 360.34 281.618C360.582 281.82 360.866 281.991 361.177 282.017C361.485 282.043 361.785 281.927 362.074 281.813C363.341 281.312 363.311 280.921 362.616 279.789C362.054 278.874 361.425 277.965 360.7 277.179Z" fill="#A4866F"/>
<path d="M420.781 234.857C428.684 237.422 439.352 247.338 438.525 255.794C437.167 269.675 434.312 289.793 428.699 299.328C426.17 303.625 419.233 302.052 414.373 301.447C400.112 299.672 371.897 295.849 359.424 288.543C359.91 286.429 359.921 284.604 361.031 282.753C373.892 282.18 403.872 283.543 416.188 287.383L419.404 268.545" fill="#00C6A7"/>
<path d="M451.684 458.168C451.684 458.168 444.982 462.793 440.395 463.623C435.807 464.452 434.188 463.623 434.188 463.623C434.188 463.623 429.87 463.398 428.859 465.887C427.847 468.377 435.089 470.918 440.272 469.829C445.455 468.74 452.741 464.128 452.741 464.128C452.741 464.128 454.676 457.969 451.684 458.168Z" fill="#0B4870"/>
<path d="M404.132 462.114C404.132 462.114 396.662 465.269 392.005 465.14C387.348 465.01 385.924 463.865 385.924 463.865C385.924 463.865 381.738 462.758 380.26 464.989C378.782 467.22 385.38 471.197 390.671 471.195C395.961 471.192 404.001 468.17 404.001 468.17C404.001 468.17 407.102 462.533 404.132 462.114Z" fill="#0B4870"/>
<path d="M129.562 117.404L94.4907 118.736V73.5414L129.562 74.8732V117.404Z" fill="#2A94F4"/>
<path d="M8.98755 323.484L67.0776 326.782V394.612L8.98755 401.206V323.484Z" fill="#D6F6F1"/>
<path d="M14.1235 31.712L54.2407 41.1337L56.3163 103.832H14.1235V31.712Z" fill="#D6F6F1"/>
</svg>
