<svg width="522" height="382" viewBox="0 0 522 382" fill="none" xmlns="http://www.w3.org/2000/svg">
<g clip-path="url(#clip0)">
<path d="M406.324 173.231C405.348 170.662 406.742 169.378 407.3 167.095C407.858 164.811 406.045 157.676 406.045 157.676C406.045 157.676 400.188 132.987 398.375 128.135C397.608 126.082 395.942 124.67 394.275 123.721C394.162 123.091 393.999 122.685 393.774 122.57C392.159 121.743 388.135 119.947 385.453 119.45C384.952 118.569 384.357 117.746 383.68 116.997C384.151 116.072 384.369 115.034 384.312 113.993C384.141 111.3 382.149 108.888 382.408 106.203C382.604 104.166 384.059 102.493 384.62 100.53C384.856 99.6475 384.911 98.7254 384.784 97.8204C384.657 96.9154 384.349 96.0469 383.88 95.2688C384.292 95.7178 384.705 96.1669 385.117 96.616C385.678 95.7554 385.948 94.7303 385.886 93.6976C385.824 92.6649 385.432 91.6816 384.772 90.8982C383.466 89.4216 381.282 88.8677 380.268 87.1673C379.227 85.4199 379.786 83.0456 378.801 81.2642C376.389 76.9002 370.214 79.9938 366.515 78.4706C364.995 77.8447 363.84 77.1558 362.13 77.2053C360.676 77.2906 359.238 77.5654 357.852 78.0229C355.863 78.6117 354.133 79.8813 352.949 81.6194C353.066 81.4833 353.194 81.3579 353.332 81.2447C354.228 80.5259 355.8 80.5857 356.274 81.6456C356.387 81.912 356.434 82.2028 356.412 82.4923C356.334 83.77 355.243 84.7242 354.159 85.3637C353.076 86.0031 351.856 86.5381 351.149 87.594C349.982 89.3366 350.668 91.6752 350.669 93.788C350.659 95.1306 350.355 96.454 349.78 97.6607C349.204 98.8673 348.372 99.9265 347.343 100.76L351.278 99.1141C349.399 102.479 348.166 106.181 347.644 110.02L352.965 105.522C350.994 108.731 349.797 112.374 349.47 116.149L353.741 111.671C353.935 112.021 354.033 112.419 354.023 112.821L353.577 114.579C353.42 114.927 353.246 115.268 353.055 115.599C352.368 116.806 351.657 118.293 352.3 119.526L352.303 119.524C351.626 121.854 350.606 124.184 348.336 125.317C350.854 125.587 353.482 124.298 354.619 122.247C354.804 122.616 355.028 122.964 355.287 123.283C355.36 123.377 355.432 123.47 355.505 123.563L354.877 123.991L353.195 125.139C353.195 125.139 342.179 127.422 342.876 131.703C342.905 131.879 342.939 132.089 342.978 132.325L339.809 137.839L335.207 153.823C335.207 153.823 332.836 158.96 333.255 161.101C333.673 163.241 333.255 164.098 333.255 167.951C333.255 171.804 331.442 173.374 333.255 176.513C335.067 179.653 340.506 188.786 340.506 188.786L341.7 189.703C341.642 190.254 341.662 190.81 341.761 191.355C342.876 197.063 353.335 251.72 353.335 251.72C353.335 251.72 348.036 294.96 358.773 297.672C360.12 298.012 361.442 298.32 362.727 298.595L364.351 309.517L363.375 323.359C363.375 323.359 355.984 340.484 369.51 341.483C383.036 342.482 376.901 326.641 376.901 326.641C377.615 325.289 377.907 323.745 377.738 322.218C377.6 320.947 376.439 314.336 375.3 307.978C380.433 307.348 379.473 301.773 378.789 299.322C379.085 299.145 379.306 298.862 379.411 298.528C379.565 297.959 379.206 295.719 378.553 292.581C378.021 289.462 377.113 284.411 376.493 280.99L379.829 281.546L393.913 197.063C393.913 197.063 394.006 195.718 393.964 193.751C395.889 192.732 397.875 191.836 399.909 191.069C404.511 189.214 406.324 182.364 407.858 179.51C409.392 176.656 407.3 175.8 406.324 173.231ZM356.318 119.441C356.774 119.119 357.308 118.934 357.861 118.905C357.742 119.569 356.626 119.763 355.691 120.11C355.862 119.853 356.074 119.627 356.318 119.441V119.441ZM349.291 161.957C350.421 163.857 348.375 169.004 346.532 173.088C345.476 172.157 344.373 172.451 345.665 169.806C346.546 168.13 347.069 166.282 347.199 164.383C347.199 164.057 347.363 161.659 348.737 160.663C348.881 161.111 349.067 161.545 349.291 161.957V161.957ZM345.059 178.351C345.698 178.085 346.666 177.676 347.974 177.221C347.347 178.062 346.632 179.065 345.913 180.159C345.641 179.948 345.422 179.674 345.274 179.36C345.125 179.046 345.052 178.7 345.059 178.351V178.351ZM390.288 180.224C389.44 179.302 388.755 178.477 388.191 177.739C389.243 178.023 390.313 178.328 391.403 178.654C391.946 178.737 392.5 178.699 393.028 178.543C393.076 179.53 393.077 180.937 393.077 180.937L391.549 182.019C391.201 181.371 390.777 180.768 390.288 180.224V180.224ZM394.615 175.274C394.599 175.289 394.581 175.306 394.564 175.321C394.489 174.757 394.365 174.2 394.192 173.659C393.278 170.709 392.79 165.476 392.53 161.01L395.168 170.091C395.168 170.091 395.308 174.658 394.615 175.274V175.274Z" fill="#CCE9FF"/>
<path d="M340.448 137.765C340.448 137.765 326.142 112.601 325.695 109.856C325.248 107.111 318.095 102.078 318.095 102.078C315.651 99.5766 311.641 98.7852 307.421 98.8264C309.01 97.4809 303.336 96.5765 302.895 95.6724C302.448 94.7573 301.106 94.7573 299.318 93.3848C297.53 92.0123 293.066 93.156 293.066 93.156C292.395 91.7111 291.928 90.1758 291.679 88.5962C293.584 86.2894 294.628 83.3656 294.624 80.3453C294.624 80.3124 294.622 80.2801 294.622 80.2473C294.735 80.4286 294.849 80.6109 294.963 80.7988C295.801 75.665 297.279 71.3975 294.461 66.7142C292.464 63.395 289.338 60.949 285.684 59.8471L283 62.0442L284.044 59.4816C283.166 59.3446 282.278 59.2921 281.391 59.3247L278.977 62.5018L279.976 59.4335C277.881 59.7 275.862 60.4078 274.048 61.5124C272.233 62.617 270.662 64.0944 269.433 65.8514C266.36 70.3863 266.566 76.69 269.588 81.2603C269.598 81.2283 269.606 81.197 269.617 81.165C269.75 83.3031 270.405 85.3728 271.523 87.1845C272.64 88.9962 274.184 90.4921 276.013 91.5352L276.772 97.7513C276.088 98.4006 275.212 98.7964 274.283 98.8751C272.941 98.8751 271.6 102.535 271.6 102.535C271.6 102.535 270.84 102.928 270.021 104.781C267.91 106.252 261.473 110.87 259.084 114.098C257.671 114.809 256.154 116.392 256.4 119.921C256.847 126.327 256.4 156.066 256.4 156.066C256.4 156.066 252.376 181.23 253.717 183.06C255.059 184.89 253.27 190.838 253.27 190.838L254.612 191.143V192.668C254.612 192.668 250.578 211.806 256.847 210.969C267.129 209.596 259.529 194.041 259.529 194.041V192.261L261.318 192.668C261.318 192.668 262.212 186.263 264 185.805C264.622 185.646 265.352 183.936 266.04 181.774C266.441 185.146 266.682 187.178 266.682 187.178L269.48 186.541L270.259 189.465C270.451 189.576 270.652 189.669 270.86 189.744L270.259 193.126C270.259 193.126 269.812 196.786 270.259 199.073C270.484 200.227 278.783 224.887 286.955 249.05L286.8 254.892C286.8 254.892 282.777 259.467 283.671 262.669C284.565 265.872 281.436 292.409 281.436 292.409L278.753 305.677L279.428 305.889L278.809 308.214C278.275 308.49 277.8 308.872 277.412 309.337C273.835 313.455 269.365 325.351 269.365 325.351C269.365 325.351 261.318 337.704 273.835 337.246C286.353 336.789 287.247 332.213 287.247 332.213C287.247 332.213 289.036 320.318 289.036 319.86C289.036 319.403 288.142 314.7 288.142 314.7L287.794 314.308L288.037 308.6L290.377 309.337C290.377 309.337 292.612 297.441 294.401 296.069C295.026 295.589 296.688 290.246 298.587 283.382C300.527 289.1 302.407 308.872 303.016 310.667C302.8 310.969 302.61 311.289 302.448 311.625C300.438 315.571 298.199 319.391 295.742 323.063C295.742 323.063 281.436 331.756 295.742 334.044C295.742 334.044 303.789 334.501 307.813 331.756C311.836 329.011 322.566 324.893 322.566 323.978C322.566 323.063 319.883 309.612 317.201 311.076L315.404 306.846L317.201 306.134L305.882 254.141C306.15 253.033 306.347 251.908 306.471 250.774C306.471 248.378 312.26 201.725 313.733 189.892C320.216 191.771 326.142 178.027 326.142 178.027L327.612 175.32L329.719 176.655C329.719 176.655 331.507 172.079 334.189 171.622C336.872 171.164 341.79 146.915 341.79 143.713C341.749 141.657 341.292 139.631 340.448 137.765ZM319.619 173.611C319.179 172.897 318.668 172.23 318.095 171.622C319.264 168.506 320.162 165.291 320.777 162.014C321.672 156.981 319.436 140.51 319.436 140.51L319.397 139.391C321.591 142.339 324.354 146.269 324.354 147.373C324.354 147.906 324.475 148.431 324.708 148.907C324.941 149.384 325.279 149.798 325.695 150.118L323.013 159.726C323.013 159.726 321.225 164.301 320.777 166.589C320.51 167.945 320.36 169.323 320.33 170.707L320.964 171.108L319.619 173.611Z" fill="#CCE9FF"/>
<path d="M135.779 146.233L138.165 145.684L128.329 117.317L107.094 109.311C107.094 109.311 107.012 109.403 106.862 109.562C105.051 107.768 104.282 105.165 103.961 103.116C105.669 102.41 107.203 101.327 108.455 99.9439C109.706 98.5611 110.644 96.9126 111.201 95.116C111.759 93.3195 111.922 91.4193 111.678 89.5509C111.435 87.6825 110.792 85.892 109.795 84.3073C111.545 83.8775 112.17 82.2529 112.757 80.3156C112.393 80.2058 112.023 80.1231 111.647 80.0683C111.922 79.4368 112.198 78.8053 112.473 78.1738C111.989 78.1293 111.506 78.0849 111.022 78.0404C111.146 77.4501 111.269 76.8597 111.393 76.2694C110.776 76.7051 110.159 77.1409 109.543 77.5766C109.752 76.9568 109.804 76.2927 109.694 75.6467C109.584 75.0007 109.315 74.394 108.913 73.8835C108.094 72.8707 107.025 72.0998 105.818 71.6505C103.457 70.6998 100.886 70.4334 98.3862 70.8804C95.8869 71.3275 93.5562 72.4707 91.6502 74.1846L91.5165 73.6514C87.7421 76.6207 85.2724 81.0007 84.6489 85.8308C84.0568 90.6053 86.298 95.4668 89.2111 99.245C89.1865 99.0801 89.1602 98.9156 89.1335 98.7513C89.2594 98.9288 89.3894 99.103 89.5236 99.2737L89.8817 113.2L88.9848 113.986C88.9834 113.987 73.9374 120.953 73.3509 129.274L73.3492 129.28C72.4461 133.331 71.999 154.377 71.999 154.377H73.237L71.999 162.612L63.9518 194.639C63.9518 194.639 53.6692 208.365 62.6106 211.11C68.1668 212.816 69.752 206.219 70.1562 200.979C70.4781 202.278 71.441 203.156 73.3402 203.332C73.4896 203.346 73.6492 203.358 73.8036 203.371C69.5758 214.552 72.446 250.915 72.446 250.915C70.2107 255.49 96.5877 287.06 96.5877 287.06L98.1759 286.193L98.5196 286.896C97.6357 286.983 97.0347 287.06 97.0347 287.06V301.243C97.0347 301.243 93.0111 315.426 98.3759 318.171C99.7641 318.882 101.212 318.365 102.596 317.211C102.331 321.588 101.952 328.12 101.952 329.61C101.952 331.897 107.764 336.015 107.764 336.015C107.764 336.015 109.106 341.048 119.835 341.048C130.565 341.048 122.518 327.779 122.518 327.779L116.706 314.511C116.706 314.511 116.271 314.729 114.955 313.632L115.426 308.327L118.047 308.563L121.623 255.033C121.623 255.033 124.753 207.45 125.2 200.13C125.305 197.783 125.251 195.431 125.038 193.092L138.165 165.358L135.779 146.233ZM126.094 163.985L124.753 168.768V158.19L126.094 163.985ZM70.2809 197.915C70.292 196.238 70.2107 195.097 70.2107 195.097L78.9509 177.208L78.705 182.744C78.705 182.744 71.7052 191.805 70.2809 197.915ZM90.7758 249.542L99.2701 218.888L104.188 255.948L103.835 269.421C103.236 268.183 102.756 266.888 102.4 265.556C101.058 260.066 90.7758 249.542 90.7758 249.542Z" fill="#CCE9FF"/>
<path d="M211.758 322.361C207.569 320.595 199.438 316.813 198.452 314.796C197.467 312.778 192.539 297.144 192.539 297.144L191.269 297.238C191.106 290.136 190.407 262.609 189.335 259.319C189.335 259.319 194.51 215.694 184.161 198.294L182.296 190.585C182.908 187.494 182.83 180.338 182.436 179.129C181.943 177.616 188.103 172.825 186.379 169.799C184.654 166.773 179.972 156.434 179.972 156.434C179.972 156.434 180.465 149.878 173.812 143.826C173.812 143.826 171.868 132.562 163.107 132.394C161.923 130.279 160.265 126.915 160.753 125.418C161.275 123.814 163.272 118.815 164.4 116.017C164.999 115.74 165.574 115.413 166.12 115.038C173.087 111.843 177.999 104.163 177.999 95.1909C177.999 85.5865 172.372 77.4585 164.618 74.7329C164.964 73.8013 165.105 72.8034 165.032 71.8098C164.959 70.8161 164.674 69.851 164.197 68.9826C163.719 68.1141 163.061 67.3635 162.27 66.7839C161.478 66.2042 160.571 65.8096 159.614 65.6279C158.656 65.4462 157.672 65.4819 156.729 65.7324C155.787 65.9829 154.91 66.4421 154.16 67.0776C153.41 67.7131 152.806 68.5094 152.389 69.4103C151.973 70.3111 151.755 71.2944 151.751 72.2908C151.325 71.2564 151.155 70.1301 151.258 69.0123C151.361 67.8945 151.732 66.8201 152.339 65.885C152.946 64.9499 153.77 64.1832 154.737 63.6533C155.704 63.1234 156.785 62.8469 157.882 62.8484C158.314 62.849 158.744 62.8925 159.168 62.9782C157.707 62.2672 156.043 62.1258 154.488 62.5804C152.932 63.035 151.592 64.0545 150.719 65.4478C149.845 66.8411 149.498 68.5126 149.743 70.1491C149.987 71.7855 150.806 73.2746 152.046 74.3372C152.123 74.5862 152.214 74.8305 152.318 75.0687C145.022 78.0819 139.817 85.9537 139.817 95.1909C139.817 103.759 144.296 111.15 150.768 114.581C150.734 117.368 150.058 122.067 146.302 124.931C144.362 124.024 141.67 123.028 139.942 123.48C139.049 122.767 137.7 122.532 135.866 124.409C132.17 128.191 128.967 138.026 128.967 144.078C128.967 150.13 129.706 185.181 129.706 185.181C129.706 185.181 125.763 186.694 128.474 188.964C129.034 189.441 129.736 189.708 130.464 189.721L133.155 210.146C133.155 210.146 131.431 229.815 138.084 230.067C138.605 230.097 139.124 229.966 139.573 229.693L134.634 252.51C134.634 252.51 123.299 260.075 114.429 274.953C109.86 282.616 107.582 287.33 106.444 290.106L104.819 289.075L99.1519 300.17C99.1519 300.17 86.5853 307.987 89.2957 313.787C92.0062 319.587 94.4702 321.1 94.4702 321.1L96.195 320.343L99.3982 326.395C99.3982 326.395 107.776 338.752 121.328 332.447C121.964 331.573 122.308 330.512 122.308 329.421C122.308 328.331 121.964 327.27 121.328 326.395C119.11 323.117 113.443 316.056 113.443 316.056L117.139 296.892L116.374 296.406L139.808 267.388C139.808 267.388 146.708 263.101 149.172 259.319C151.636 255.536 166.913 216.45 166.913 216.45L175.537 257.301C175.537 257.301 175.044 272.179 177.262 281.762C178.47 287.137 179.259 292.602 179.619 298.105L178.986 298.153L180.465 309.5C180.465 309.5 174.058 325.639 178.494 326.9C181.649 327.734 184.861 328.324 188.103 328.665L188.596 326.9C188.596 326.9 207.569 337.491 214.468 329.674C214.468 329.673 215.947 324.126 211.758 322.361ZM144.244 198.546C144.983 199.303 144.736 202.833 144.736 202.833L143.258 212.668L141.781 219.489C141.577 216.266 141.165 213.061 140.547 209.894L139.865 191.047C139.999 191.134 140.147 191.197 140.301 191.233C140.794 191.233 140.547 186.947 140.547 186.947C140.547 186.947 140.835 186.181 141.194 184.973C142.152 187.908 143.321 189.822 144.736 190.225L144.983 193.503C144.983 193.503 141.779 195.016 144.736 195.016C144.908 195.009 145.078 194.984 145.244 194.939L144.983 196.277C144.983 196.277 143.504 197.79 144.244 198.546Z" fill="#CCE9FF"/>
<path d="M207.546 334.108C316.939 334.108 405.619 332.612 405.619 330.766C405.619 328.921 316.939 327.425 207.546 327.425C98.1535 327.425 9.47321 328.921 9.47321 330.766C9.47321 332.612 98.1535 334.108 207.546 334.108Z" fill="#3F3D56"/>
<path d="M276.871 348.03C397.202 348.03 494.75 344.165 494.75 339.398C494.75 334.631 397.202 330.766 276.871 330.766C156.539 330.766 58.9915 334.631 58.9915 339.398C58.9915 344.165 156.539 348.03 276.871 348.03Z" fill="#3F3D56"/>
<path d="M236.659 360.838C295.713 360.838 343.586 356.974 343.586 352.207C343.586 347.439 295.713 343.575 236.659 343.575C177.605 343.575 129.732 347.439 129.732 352.207C129.732 356.974 177.605 360.838 236.659 360.838Z" fill="#3F3D56"/>
<path d="M391.199 366.964C417.496 366.964 438.813 364.969 438.813 362.509C438.813 360.048 417.496 358.054 391.199 358.054C364.903 358.054 343.586 360.048 343.586 362.509C343.586 364.969 364.903 366.964 391.199 366.964Z" fill="#3F3D56"/>
<path d="M325.9 382C338.372 382 348.483 380.005 348.483 377.545C348.483 375.084 338.372 373.09 325.9 373.09C313.428 373.09 303.318 375.084 303.318 377.545C303.318 380.005 313.428 382 325.9 382Z" fill="#3F3D56"/>
<path d="M141.975 363.066C154.447 363.066 164.558 361.071 164.558 358.611C164.558 356.15 154.447 354.156 141.975 354.156C129.503 354.156 119.393 356.15 119.393 358.611C119.393 361.071 129.503 363.066 141.975 363.066Z" fill="#3F3D56"/>
<path d="M253.528 308.212L255.704 323.805L266.587 322.691L265.499 306.542L253.528 308.212Z" fill="#E0AC69"/>
<path d="M201.833 308.212L199.656 323.805L188.773 322.691L189.861 306.542L201.833 308.212Z" fill="#E0AC69"/>
<path d="M186.052 146.715C186.052 146.715 176.257 158.41 178.434 176.787C180.611 195.164 184.42 236.931 184.42 236.931L187.14 310.997L204.553 309.883L207.274 246.955L215.981 196.278L239.379 255.308C239.379 255.308 250.807 310.44 251.351 310.44C251.895 310.44 267.676 308.769 267.676 308.769L260.057 243.613C260.057 243.613 248.086 148.943 241.012 147.272C233.938 145.601 186.052 146.715 186.052 146.715Z" fill="#0C4870"/>
<path d="M267.676 320.464C267.676 320.464 257.881 313.781 254.072 321.578C250.263 329.374 253.528 334.943 253.528 334.943C253.528 334.943 256.792 337.171 255.16 339.398C253.528 341.626 252.983 356.105 267.131 353.877C281.28 351.65 274.205 336.614 274.205 336.614L267.676 320.464Z" fill="#2F2E41"/>
<path d="M187.685 320.464C187.685 320.464 197.479 313.781 201.289 321.578C205.098 329.374 201.833 334.943 201.833 334.943C201.833 334.943 198.568 337.171 200.2 339.398C201.833 341.626 202.377 356.105 188.229 353.877C174.081 351.65 181.155 336.614 181.155 336.614L187.685 320.464Z" fill="#2F2E41"/>
<path d="M199.384 38.4004C199.384 38.4004 204.281 52.3226 200.472 60.119C196.663 67.9154 206.458 76.8256 206.458 76.8256C206.458 76.8256 232.033 63.4603 228.768 56.7777C225.503 50.095 220.062 41.1848 221.15 35.6159L199.384 38.4004Z" fill="#E0AC69"/>
<path d="M208.907 43.6908C218.524 43.6908 226.32 35.7124 226.32 25.8704C226.32 16.0285 218.524 8.05002 208.907 8.05002C199.29 8.05002 191.494 16.0285 191.494 25.8704C191.494 35.7124 199.29 43.6908 208.907 43.6908Z" fill="#E0AC69"/>
<path d="M196.391 59.2837C196.391 59.2837 213.863 74.1628 226.893 53.0795L240.468 60.9543L247.542 145.601C247.542 145.601 207.818 168.991 188.773 148.943L191.494 70.4214L196.391 59.2837Z" fill="#D0CDE1"/>
<path d="M201.878 50.9485L177.346 67.6368L186.052 108.846L174.625 172.889L193.126 144.487L201.878 50.9485Z" fill="#2B94F4"/>
<path d="M223.559 46.3035L229.585 50.3735L254.072 59.2837L250.263 128.338L260.602 172.889L245.909 180.685C245.909 180.685 243.189 159.523 226.32 148.943C209.451 138.362 219.711 49.473 223.559 46.3035Z" fill="#2B94F4"/>
<path d="M182.787 154.511L189.861 159.523C189.861 159.523 180.883 169.269 179.25 167.598C178.778 167.134 178.411 166.569 178.176 165.944C177.941 165.318 177.843 164.647 177.89 163.979L176.257 160.08L182.787 154.511Z" fill="#E0AC69"/>
<path d="M229.813 153.428L227.408 157.296C227.408 157.296 220.334 160.637 221.966 162.865C223.599 165.092 237.203 170.104 239.924 165.092L242.644 160.08L229.813 153.428Z" fill="#E0AC69"/>
<path d="M180.611 67.0801L176.801 67.637L170.544 109.125C170.544 109.125 168.095 116.643 170.816 134.463C173.537 152.284 176.231 163.888 176.231 163.888L188.229 155.068L182.787 140.589L189.861 87.6849L180.611 67.0801Z" fill="#2B94F4"/>
<path d="M245.365 58.1699L254.072 59.2837C254.072 59.2837 263.867 69.8645 265.499 81.0023C267.131 92.14 266.587 123.883 266.587 123.883L241.556 164.535L227.952 154.511L246.998 119.984L237.747 78.7747L245.365 58.1699Z" fill="#2B94F4"/>
<path d="M225.512 9.75288C222.879 5.3769 218.757 2.15228 213.94 0.699645L210.402 3.59618L211.778 0.217696C210.621 0.0371069 209.45 -0.0321379 208.281 0.0108689L205.098 4.19936L206.415 0.154339C203.653 0.505629 200.992 1.43882 198.6 2.89507C196.208 4.35131 194.136 6.29902 192.516 8.61537C188.465 14.5939 187.781 22.9081 191.766 28.9334C192.86 25.4931 194.187 22.265 195.281 18.8248C196.141 18.9447 197.012 18.9491 197.873 18.8377L199.204 15.6598L199.576 18.7033C203.701 18.3355 209.819 17.528 213.729 16.7882L213.349 14.4534L215.624 16.3936C216.822 16.1113 217.534 15.8554 217.475 15.6598C220.383 20.4581 223.265 23.5229 226.173 28.3213C227.277 21.553 229.226 15.9271 225.512 9.75288Z" fill="#2F2E41"/>
<path d="M224.548 27.7233C225.199 27.7233 225.726 26.6431 225.726 25.3106C225.726 23.9781 225.199 22.8979 224.548 22.8979C223.897 22.8979 223.369 23.9781 223.369 25.3106C223.369 26.6431 223.897 27.7233 224.548 27.7233Z" fill="#FFB8B8"/>
<path d="M412.894 340.278C413.395 357.853 403.361 364.293 390.769 364.67C390.477 364.678 390.185 364.684 389.896 364.686C389.312 364.69 388.733 364.68 388.161 364.656C376.772 364.172 367.758 357.985 367.291 341.641C366.809 324.727 387.323 302.75 388.862 301.125L388.865 301.123C388.923 301.061 388.953 301.03 388.953 301.03C388.953 301.03 412.392 322.705 412.894 340.278Z" fill="#00C6A6"/>
<path d="M389.862 362.006L397.861 349.832L389.879 363.316L389.896 364.686C389.312 364.69 388.733 364.68 388.161 364.656L388.557 347.047L388.546 346.912L388.561 346.885L388.599 345.221L379.839 332.206L388.589 343.976L388.62 344.328L388.919 331.024L381.353 317.529L388.941 328.687L388.862 301.125L388.862 301.033L388.865 301.123L389.367 322.846L396.263 314.022L389.389 324.717L389.54 336.617L395.885 325.003L389.563 338.367L389.647 344.984L398.875 328.806L389.675 347.292L389.862 362.006Z" fill="#3F3D56"/>
<path d="M121.226 314.104C121.727 331.679 111.693 338.119 99.1009 338.496C98.8085 338.504 98.5173 338.51 98.2274 338.512C97.6434 338.516 97.0652 338.506 96.4925 338.482C85.1041 337.998 76.0895 331.811 75.6231 315.467C75.1405 298.553 95.6546 276.577 97.1937 274.951L97.1965 274.949C97.2549 274.887 97.2849 274.857 97.2849 274.857C97.2849 274.857 120.724 296.531 121.226 314.104Z" fill="#00C6A6"/>
<path d="M98.1943 335.832L106.193 323.659L98.2107 337.142L98.2274 338.512C97.6434 338.516 97.0652 338.506 96.4925 338.482L96.8893 320.874L96.8784 320.738L96.893 320.711L96.931 319.048L88.1711 306.032L96.9207 317.802L96.9517 318.154L97.2514 304.85L89.6852 291.356L97.2729 302.513L97.1937 274.951L97.1939 274.859L97.1965 274.949L97.6987 296.672L104.594 287.848L97.7213 298.543L97.8718 310.443L104.217 298.829L97.8951 312.193L97.9789 318.81L107.207 302.632L98.007 321.118L98.1943 335.832Z" fill="#3F3D56"/>
<path d="M339.17 365.054C339.464 375.37 333.575 379.151 326.183 379.372C326.012 379.377 325.841 379.38 325.671 379.381C325.328 379.384 324.988 379.378 324.652 379.363C317.968 379.079 312.676 375.448 312.403 365.854C312.119 355.926 324.16 343.027 325.064 342.072L325.066 342.071C325.1 342.035 325.117 342.017 325.117 342.017C325.117 342.017 338.876 354.74 339.17 365.054Z" fill="#00C6A6"/>
<path d="M325.651 377.808L330.347 370.663L325.661 378.577L325.671 379.381C325.328 379.384 324.988 379.378 324.652 379.363L324.885 369.028L324.879 368.948L324.887 368.933L324.91 367.956L319.768 360.316L324.904 367.225L324.922 367.431L325.098 359.622L320.657 351.701L325.11 358.251L325.064 342.072L325.064 342.018L325.066 342.071L325.36 354.822L329.408 349.643L325.374 355.921L325.462 362.905L329.187 356.088L325.476 363.932L325.525 367.816L330.941 358.32L325.541 369.171L325.651 377.808Z" fill="#3F3D56"/>
<path d="M521.952 28.5046C521.968 28.4541 521.984 28.4029 522 28.3523C521.993 28.3745 521.984 28.3958 521.978 28.4181L521.952 28.5046Z" fill="#2F2E41"/>
<path d="M445.91 324.002L486.215 262.663L445.993 330.601L446.077 337.503C443.134 337.526 440.221 337.476 437.335 337.352L439.334 248.629L439.28 247.945L439.353 247.812L439.545 239.429L395.406 173.846L439.493 233.154L439.649 234.926L441.159 167.892L403.035 99.8978L441.268 156.116L440.869 17.2395L440.869 16.7773L440.882 17.2319L443.413 126.685L478.158 82.2253L443.527 136.115L444.285 196.075L476.258 137.556L444.403 204.89L444.825 238.231L491.322 156.715L444.966 249.862L445.91 324.002Z" fill="#3F3D56"/>
<path d="M34.3664 321.624L61.7924 279.885L34.4224 326.114L34.4797 330.811C32.4775 330.827 30.4947 330.793 28.5314 330.709L29.8917 270.335L29.8544 269.869L29.9046 269.78L30.0348 264.075L0 219.447L29.9994 259.805L30.1058 261.011L31.1333 215.396L5.19129 169.128L31.2071 207.383L30.9356 112.881L30.9362 112.567L30.945 112.876L32.6671 187.356L56.3101 157.102L32.7445 193.772L33.2605 234.573L55.017 194.753L33.3405 240.572L33.6277 263.259L65.2674 207.79L33.7239 271.174L34.3664 321.624Z" fill="#3F3D56"/>
</g>
<defs>
<clipPath id="clip0">
<rect width="522" height="382" fill="white"/>
</clipPath>
</defs>
</svg>
