<svg width="1372" height="1372" viewBox="0 0 1372 1372" fill="none" xmlns="http://www.w3.org/2000/svg">
<g clip-path="url(#clip0)">
<path d="M685.366 1372C1063.88 1372 1370.73 1065.15 1370.73 686.634C1370.73 308.117 1063.88 1.2688 685.366 1.2688C306.849 1.2688 0 308.117 0 686.634C0 1065.15 306.849 1372 685.366 1372Z" fill="url(#paint0_linear)"/>
<path fill-rule="evenodd" clip-rule="evenodd" d="M793.007 607.849C791.094 586.285 779.881 578.134 755.857 578.081C689.776 577.941 623.696 577.958 557.617 578.131C534.802 578.184 525.161 586.097 522.326 608.802C518.451 639.827 519.31 671.127 521.557 702.173C523.198 724.857 533.862 733.814 556.633 736.676C562.324 737.271 568.047 737.515 573.768 737.408C610.178 737.47 646.588 737.389 682.997 737.461C706.659 737.505 710.872 741.861 711.187 765.804C711.731 806.874 712.219 847.94 712.959 889.003C713.2 902.335 715.588 914.646 729.176 921.9C734.923 925.048 741.145 927.239 747.597 928.385H762.029C780.003 925.141 792.554 909.245 792.657 884.602C792.823 840.93 792.695 797.26 792.695 753.591H793.007V607.849ZM498.796 564.276C498.796 587.135 499.318 610.009 498.662 632.848C498.037 655.197 489.211 666.323 466.924 667.476C432.721 669.242 398.315 669.273 364.102 667.723C342.666 666.754 332.684 654.228 332.503 632.648C332.126 587.45 332.151 542.252 332.578 497.052C332.812 474.493 342.841 462.405 365.284 461.401C398.981 459.898 432.856 459.898 466.543 461.48C489.326 462.548 498.212 473.937 498.683 497.261C499.14 519.591 498.796 541.924 498.796 564.276ZM921.478 874.817C898.079 874.817 874.68 874.742 851.281 874.848C839.499 874.902 827.376 874.333 821.229 862.679C817.96 856.648 816.585 849.772 817.285 842.948C817.985 836.124 820.726 829.67 825.151 824.428C858.063 784.265 892.129 745.046 925.766 705.474C926.112 705.086 926.486 704.723 926.885 704.389C942.136 690.95 1009.95 690.069 1025.62 703.139C1029 705.994 1031.68 709.6 1033.42 713.669C1035.17 717.738 1035.94 722.158 1035.68 726.579C1035.59 764.513 1035.84 802.448 1035.58 840.377C1035.45 859.535 1027.14 869.817 1007.1 873.167C982.921 877.214 958.35 874.07 933.957 874.811C929.801 874.927 925.638 874.817 921.478 874.817ZM688.601 784.918C686.335 766.917 676.39 759.135 655.967 758.935C622.705 758.608 589.439 758.647 556.167 759.054C531.752 759.344 523.004 768.689 522.864 793.679C522.714 820.689 522.714 847.702 522.864 874.717C523.017 899.719 533.49 910.602 558.861 911.489C574.437 912.036 590.048 911.592 605.643 911.586C621.757 911.586 637.899 912.189 653.979 911.436C675.428 910.43 686.185 901.667 688.601 883.149V784.918ZM813.512 654.722C813.512 626.654 813.322 598.586 813.575 570.521C813.793 546.084 824.023 535.518 848.465 534.367C859.365 533.742 870.292 533.777 881.187 534.471C899.458 535.839 910.043 546.709 910.252 564.623C910.649 599.964 910.387 635.311 910.458 670.655C910.253 680.072 906.776 689.125 900.623 696.257C885.528 715.421 870.62 734.745 855.144 753.6C848.69 761.463 842.152 770.642 829.304 766.21C816.109 761.66 813.409 751.253 813.471 738.927C813.6 710.859 813.512 682.79 813.512 654.722ZM647.531 553.8C616.816 553.8 586.088 554.263 555.382 553.654C531.758 553.185 519.789 539.065 519.857 513.719C519.923 489.363 533.271 475.043 556.579 474.987C617.495 474.837 678.412 474.82 739.33 474.937C763.264 474.996 775.965 488.545 776.134 513.306C776.306 539.015 763.779 553.538 739.687 553.935C708.978 554.454 678.25 554.06 647.531 554.06V553.8ZM391.911 774.921C391.911 792.572 392.296 810.236 391.821 827.875C391.9 832.556 390.689 837.169 388.32 841.206C385.951 845.244 382.516 848.552 378.391 850.766C374.267 852.981 369.612 854.016 364.937 853.76C360.263 853.503 355.749 851.964 351.892 849.312C343.733 843.784 336.158 837.438 329.287 830.373C302.503 804.298 275.829 778.102 251.78 749.409C246.107 742.643 240.351 735.97 237.403 727.404C235.889 723.261 235.377 718.818 235.91 714.439C236.443 710.059 238.006 705.869 240.471 702.21C242.935 698.551 246.231 695.529 250.089 693.389C253.947 691.249 258.256 690.054 262.665 689.9C296.418 689.35 330.202 689.51 363.968 689.832C380.707 689.991 391.074 700.673 391.746 718.866C392.449 737.533 391.911 756.238 391.911 774.921ZM498.596 787.372H498.437C498.437 764.507 498.893 741.63 498.299 718.781C497.796 699.439 484.363 687.769 463.296 686.956C435.69 685.891 420.611 694.388 419.229 715.084C419.023 718.119 418.867 721.156 418.686 724.191V846.39C418.954 850.349 419.207 854.309 419.536 858.266C421.508 882.04 434.021 888.956 465.215 887.331C487.048 886.184 498.03 875.742 498.483 854.431C498.968 832.073 498.602 809.721 498.602 787.372H498.596ZM310.507 555.051C310.507 583.144 310.873 611.243 310.363 639.327C310.013 658.651 295.202 671.993 275.738 671.871C256.49 671.749 241.744 658.119 241.604 638.927C241.204 583.788 240.851 528.639 241.391 473.506C241.666 445.378 263.356 431.314 289.583 440.984C304.019 446.297 310.541 457.185 310.523 472.334C310.495 499.894 310.49 527.467 310.507 555.051ZM1066.69 584.531C1066.27 567.142 1057.23 557.654 1038.5 556.841C1013.56 555.782 988.459 555.694 963.523 556.841C944.902 557.701 934.458 567.808 933.873 583.941C933.107 605.727 932.979 627.573 933.873 649.353C934.57 666.129 944.718 674.143 963.738 675.321C969.601 675.683 975.468 676.015 981.337 676.315H1000.28C1000.28 676.171 1000.28 676.024 1000.28 675.88C1013.06 675.88 1025.87 676.33 1038.62 675.771C1056.42 674.993 1066.18 666.189 1066.61 649.95C1067.2 628.146 1067.23 606.334 1066.69 584.516V584.531ZM692.035 933.629C689.329 932.131 686.357 931.176 683.285 930.816C660.576 928.807 637.802 927.41 615.153 930.788C596.174 933.616 588.135 945.621 588.048 969.601C587.967 992.078 597.383 1006.01 615.519 1008.58C617.929 1008.92 620.351 1009.17 622.779 1009.37H648.075C648.075 1009.28 648.075 1009.2 648.075 1009.1C657.395 1009.1 666.73 1009.46 676.031 1009.03C693.342 1008.22 703.412 999.832 706.971 983.943C711.89 961.841 705.787 940.948 692.035 933.629ZM958.429 893.547C968.842 893.547 979.259 893.441 989.681 893.569C1011.96 893.838 1024.68 905.276 1025.8 925.825C1026.85 945.436 1014.31 960.738 993.241 961.885C968.798 963.126 944.306 963.102 919.866 961.813C900.82 960.875 887.922 944.336 888.925 925.325C889.947 906.126 902.364 894.206 922.513 893.613C934.461 893.263 946.456 893.55 958.429 893.547ZM1146.98 519.579H1146.73C1146.73 515.666 1146.86 511.734 1146.98 507.806V490.045C1146.86 487.969 1146.71 485.897 1146.45 483.841C1144.18 465.917 1129.36 455.351 1110.78 456.473C1091.77 457.623 1079.6 469.374 1079.16 488.176C1078.69 508.421 1078.76 528.692 1079.14 548.944C1079.51 569.036 1091.33 580.59 1111.31 581.331C1131.49 582.078 1145.02 571.549 1146.92 552.266C1146.95 551.953 1146.95 551.61 1146.98 551.285V519.579ZM1025.74 1050.01C1001.15 1050.1 988.55 1038.26 988.262 1014.83C987.95 989.009 1000.71 975.017 1024.83 974.726C1048.84 974.436 1063.43 988.953 1063.45 1013.17C1063.47 1037.48 1050.74 1049.93 1025.74 1050.01Z" fill="white"/>
</g>
<defs>
<linearGradient id="paint0_linear" x1="1371" y1="687" x2="1.56879e-05" y2="726" gradientUnits="userSpaceOnUse">
<stop stop-color="#02C4AA"/>
<stop offset="1" stop-color="#2897F0"/>
</linearGradient>
<clipPath id="clip0">
<rect width="1372" height="1372" fill="white"/>
</clipPath>
</defs>
</svg>
