<svg width="396" height="256" viewBox="0 0 396 256" fill="none" xmlns="http://www.w3.org/2000/svg">
<path fill-rule="evenodd" clip-rule="evenodd" d="M241.954 71.0689C241.124 62.0498 236.255 58.6395 225.825 58.6186C197.135 58.5593 168.445 58.5663 139.756 58.6395C129.851 58.6617 125.665 61.9726 124.434 71.4676C122.752 84.4434 123.125 97.5343 124.1 110.519C124.813 120.006 129.442 123.753 139.329 124.949C141.8 125.197 144.284 125.3 146.768 125.255C162.576 125.281 178.384 125.247 194.192 125.275C204.465 125.295 206.294 127.116 206.431 137.13C206.667 154.307 206.879 171.482 207.2 188.657C207.305 194.233 208.341 199.375 214.241 202.415C216.736 203.732 219.437 204.649 222.239 205.128H228.505C236.308 203.771 241.757 197.123 241.802 186.816C241.874 168.55 241.818 150.286 241.818 132.022H241.954V71.0689V71.0689ZM114.218 52.845C114.218 62.4053 114.445 71.9722 114.16 81.5246C113.888 90.8719 110.057 95.5266 100.381 96.0076C85.5309 96.7474 70.5929 96.7592 55.7391 96.1121C46.4322 95.7069 42.0983 90.468 42.0196 81.441C41.8559 62.5382 41.8667 43.6341 42.0522 24.7287C42.1539 15.2952 46.5082 10.2379 56.252 9.81961C70.8819 9.19089 85.5892 9.18958 100.215 9.85229C110.107 10.2993 113.964 15.0625 114.169 24.8176C114.367 34.1557 114.218 43.4964 114.218 52.845ZM297.732 182.726C287.573 182.726 277.414 182.695 267.255 182.739C262.139 182.762 256.876 182.524 254.207 177.649C252.787 175.127 252.191 172.251 252.495 169.397C252.798 166.543 253.989 163.844 255.91 161.651C270.199 144.854 284.989 128.45 299.593 111.9C299.743 111.737 299.906 111.586 300.079 111.446C306.701 105.825 336.141 105.455 342.946 110.923C344.415 112.117 345.575 113.625 346.334 115.327C347.092 117.029 347.428 118.878 347.315 120.727C347.273 136.591 347.381 152.457 347.269 168.32C347.213 176.333 343.605 180.634 334.908 182.035C324.408 183.734 313.74 182.413 303.15 182.722C301.345 182.772 299.538 182.726 297.732 182.726ZM196.625 145.127C195.641 137.598 191.323 134.343 182.456 134.259C168.015 134.122 153.572 134.138 139.127 134.309C128.527 134.431 124.729 138.339 124.668 148.791C124.602 160.089 124.602 171.387 124.668 182.684C124.734 193.141 129.281 197.693 140.296 198.064C147.059 198.293 153.837 198.107 160.607 198.105C167.603 198.105 174.612 198.357 181.593 198.042C190.905 197.621 195.576 193.956 196.625 186.211V145.127V145.127ZM250.857 90.6732C250.857 78.9339 250.774 67.1946 250.884 55.4566C250.979 45.2362 255.42 40.8168 266.032 40.3358C270.764 40.0743 275.508 40.0887 280.239 40.3789C288.171 40.9514 292.767 45.4976 292.858 52.9901C293.03 67.771 292.916 82.5546 292.947 97.3369C292.859 101.276 291.349 105.062 288.677 108.045C282.123 116.062 275.651 124.142 268.932 132.029C266.13 135.318 263.291 139.157 257.713 137.304C251.984 135.4 250.812 131.048 250.839 125.892C250.895 114.152 250.857 102.412 250.857 90.6732ZM178.794 48.4635C165.458 48.4635 152.117 48.6556 138.786 48.4007C128.529 48.2047 123.332 42.2991 123.362 31.6983C123.391 21.5132 129.186 15.5239 139.306 15.4991C165.752 15.4363 192.2 15.4294 218.65 15.4782C229.041 15.503 234.555 21.1694 234.628 31.5257C234.703 42.2782 229.264 48.3524 218.804 48.5184C205.471 48.7354 192.131 48.5707 178.794 48.5707V48.4635ZM67.8127 140.945C67.8127 148.328 67.9796 155.716 67.7733 163.093C67.8078 165.051 67.282 166.98 66.2535 168.669C65.225 170.358 63.7336 171.741 61.9428 172.667C60.152 173.593 58.1311 174.026 56.1016 173.919C54.0721 173.812 52.1125 173.168 50.4377 172.059C46.8952 169.747 43.6068 167.093 40.6234 164.138C28.9949 153.232 17.4138 142.276 6.9726 130.275C4.50985 127.445 2.01047 124.655 0.737707 121.07C0.0798164 119.338 -0.142571 117.479 0.0887681 115.648C0.320107 113.816 0.998607 112.063 2.06865 110.533C3.13869 109.003 4.56986 107.738 6.2449 106.843C7.91995 105.949 9.79122 105.449 11.7054 105.385C26.3598 105.155 41.0277 105.223 55.6875 105.356C62.955 105.423 67.4558 109.889 67.7475 117.499C68.0461 125.308 67.8127 133.131 67.8127 140.945ZM114.131 146.153H114.062C114.062 136.59 114.26 127.022 114.002 117.465C113.784 109.376 107.952 104.495 98.8053 104.155C86.8199 103.709 80.273 107.263 79.6732 115.919C79.5837 117.188 79.5158 118.457 79.4371 119.727V170.835C79.5538 172.491 79.6637 174.148 79.8062 175.802C80.6624 185.746 86.0953 188.638 99.6384 187.959C109.118 187.479 113.886 183.112 114.082 174.199C114.293 164.849 114.134 155.5 114.134 146.153H114.131ZM32.4698 48.9798C32.4698 60.7296 32.6286 72.4819 32.4074 84.2278C32.2555 92.3097 25.8252 97.8911 17.3745 97.8402C9.01743 97.7892 2.61564 92.0888 2.55458 84.0604C2.38226 60.9988 2.22893 37.9346 2.46367 14.8743C2.58308 3.11013 11.9999 -2.77193 23.3869 1.27232C29.6543 3.49443 32.4861 8.04846 32.478 14.3841C32.4653 25.9156 32.4626 37.4475 32.4698 48.9798ZM360.778 61.3099C360.595 54.0371 356.671 50.0686 348.539 49.7301C337.708 49.287 326.812 49.2504 315.986 49.7301C307.901 50.0896 303.367 54.3168 303.113 61.0629C302.781 70.1749 302.725 79.313 303.113 88.421C303.416 95.439 307.821 98.7905 316.079 99.2832C318.625 99.4349 321.173 99.5695 323.72 99.6989H331.943C331.943 99.6388 331.943 99.5773 331.943 99.5172C337.492 99.5172 343.053 99.7054 348.59 99.4715C356.318 99.146 360.555 95.4625 360.743 88.672C360.999 79.5561 361.01 70.4354 360.778 61.3099ZM198.116 207.324C196.941 206.695 195.651 206.293 194.317 206.141C184.457 205.3 174.57 204.716 164.736 206.129C156.496 207.312 153.006 212.333 152.968 222.362C152.933 231.763 157.021 237.592 164.895 238.666C165.941 238.809 166.993 238.91 168.047 238.997H179.03C179.03 238.959 179.03 238.922 179.03 238.884C183.076 238.884 187.129 239.033 191.167 238.853C198.683 238.516 203.055 235.006 204.6 228.361C206.736 219.123 204.086 210.385 198.116 207.324ZM313.774 190.56C318.295 190.56 322.818 190.515 327.343 190.569C337.013 190.681 342.54 195.466 343.024 204.06C343.482 212.262 338.038 218.662 328.888 219.141C318.276 219.661 307.643 219.651 297.031 219.111C288.763 218.719 283.163 211.802 283.598 203.851C284.042 195.821 289.433 190.836 298.181 190.587C303.368 190.441 308.576 190.561 313.774 190.56V190.56ZM395.636 34.1505H395.526C395.526 32.5139 395.583 30.8709 395.636 29.2278V21.7981C395.586 20.9302 395.518 20.0636 395.406 19.2035C394.415 11.7045 387.988 7.28902 379.92 7.75435C371.666 8.23538 366.383 13.1502 366.193 21.0125C365.988 29.4801 366.018 37.9594 366.182 46.4283C366.344 54.8331 371.474 59.6643 380.149 59.974C388.912 60.2864 394.784 55.884 395.609 47.8178C395.624 47.6871 395.624 47.5433 395.636 47.4073V34.1505ZM342.999 256C332.323 256.035 326.852 251.084 326.727 241.287C326.591 230.486 332.131 224.634 342.602 224.512C353.029 224.391 359.36 230.463 359.372 240.59C359.38 250.76 353.851 255.965 342.999 256Z" fill="url(#paint0_linear)"/>
<defs>
<linearGradient id="paint0_linear" x1="337.655" y1="169.514" x2="20.1764" y2="112.298" gradientUnits="userSpaceOnUse">
<stop stop-color="#00C6A7"/>
<stop offset="1" stop-color="#2A94F4"/>
</linearGradient>
</defs>
</svg>
