<svg id="Layer_1" data-name="Layer 1" xmlns="http://www.w3.org/2000/svg" xmlns:xlink="http://www.w3.org/1999/xlink" viewBox="0 0 1608.26 1607.88"><defs><style>.cls-1{fill:url(#linear-gradient);}.cls-2{fill:#fcfefe;}</style><linearGradient id="linear-gradient" x1="521.26" y1="2203.43" x2="2129.52" y2="2203.43" gradientUnits="userSpaceOnUse"><stop offset="0" stop-color="#3f8ac9"/><stop offset="0.8" stop-color="#45b2b0"/><stop offset="1" stop-color="#46bca9"/></linearGradient></defs><title>navigation bar logo</title><path class="cls-1" d="M2129.51,2202.16c2.15,447.22-368.86,815.85-824.94,805C880.3,2997,510.48,2644.26,521.5,2182c10.11-423.85,356.53-786,811.81-782.48C1776.74,1403,2129.64,1763.88,2129.51,2202.16ZM1139,1953.79v.14q-111,0-222.1,0c-26.61,0-41.3,14-41.31,40.54,0,80.19.39,160.38.58,240.57.06,25.42,10.37,46.26,30.25,61.3,81.25,61.5,166.15,117.43,257.4,163.11,28.11,14.07,55.26,32.37,89.63,26.89,8.14-1.29,11.57,4.5,11.32,12.74-.52,16.53.81,32.91,6.81,48.54,4.58,12,12.47,20.22,26.09,20.47,13.87.26,27.78.3,41.63-.32,13.12-.59,22.13-7.6,26.48-20.07a120.81,120.81,0,0,0,6.48-45.49c-.59-12.69,3.87-16.87,16.66-17.13,24.08-.48,45.86-8.21,59.63-29.48,5.29-8.18,11.18-11,20.21-10.4,6.65.45,13.36,0,20,0,18.21,0,36.14-.63,49.63-15.67,3.47-3.87,8.45-3.23,13-3.24,27.25-.08,54.5.13,81.74-.3,8.74-.14,14.06,2.58,18.23,10.68,11.54,22.48,27.42,42.15,42.46,62.33,4.28,5.74,9.2,8.78,16.86,8.58,25.71-.69,38.59-18.72,28.94-42.52-11.38-28.05-22.28-56.34-36.33-83.25-3.38-6.48-5.54-12.89-1.58-20.42,19.63-37.25,38.88-74.7,58.32-112.05,4.82-9.25,7.62-18.76,7.46-29.45-.45-29.29,1.12-58.67-.6-87.87-1.73-29.41,31.82-50.41,18-82-.15-.35.25-1,.47-1.44,12.13-25.3,19-53.12,38.3-75,12.54-14.2,6.64-39.55-9.17-49.88-19.48-12.75-58.41-3.44-55.57,30.51.7,8.34-.08,15.73-8.39,21.5-16,11.11-31.63,22.91-46.55,35.45-14.32,12-29.17,18.92-48.79,17.85-23.52-1.29-40.44,16.84-41,40.56-.27,11.3-.43,22.63,0,33.92.5,11.93-1.46,23.65-15.53,23.38-14.45-.27-12.44-13.93-12.75-23.66q-.85-27,0-54c.34-11.15-4.19-19.43-11.1-27.68-10.18-12.15-23.5-11.12-36.84-10.59-8.88.36-14-1.1-14.61-12.2-1.72-33.18-16.8-46.91-49.89-46.65-40.08.32-80.15,1.39-120.23,1.54C1281.88,1954,1210.42,1953.79,1139,1953.79Z" transform="translate(-521.26 -1399.49)"/><path class="cls-2" d="M1137.47,1955.27c71.46,0,142.93.19,214.39-.07,40.08-.15,80.15-1.22,120.23-1.53,33.08-.27,48.16,13.46,49.89,46.64.58,11.11,5.72,12.57,14.61,12.21,13.34-.54,26.65-1.57,36.83,10.58,6.92,8.26,11.44,16.53,11.11,27.68q-.81,27,0,54c.31,9.73-1.7,23.39,12.75,23.67,14.06.27,16-11.46,15.53-23.39-.48-11.29-.33-22.62-.06-33.92.57-23.71,17.49-41.85,41-40.56,19.61,1.08,34.46-5.81,48.79-17.85,14.92-12.54,30.53-24.34,46.55-35.45,8.31-5.76,9.08-13.16,8.39-21.5-2.84-33.94,36.09-43.25,55.57-30.51,15.81,10.34,21.71,35.68,9.17,49.88-19.3,21.87-26.18,49.69-38.3,75-.22.46-.62,1.1-.47,1.44,13.78,31.57-19.77,52.57-18,82,1.71,29.2.15,58.58.59,87.87.16,10.7-2.64,20.2-7.45,29.45-19.44,37.35-38.69,74.8-58.32,112.05-4,7.53-1.81,13.95,1.58,20.42,14.05,26.91,25,55.2,36.33,83.26,9.65,23.79-3.23,41.82-29,42.51-7.66.21-12.58-2.84-16.85-8.57-15.05-20.19-30.92-39.86-42.47-62.34-4.16-8.1-9.48-10.82-18.22-10.68-27.24.44-54.5.22-81.74.3-4.6,0-9.59-.62-13,3.24-13.49,15-31.42,15.71-49.63,15.67-6.68,0-13.39.45-20,0-9-.62-14.92,2.22-20.21,10.39-13.78,21.27-35.56,29-59.63,29.49-12.79.25-17.26,4.43-16.67,17.12a120.63,120.63,0,0,1-6.47,45.5c-4.35,12.47-13.37,19.48-26.48,20.06-13.86.62-27.76.58-41.63.32-13.62-.25-21.51-8.52-26.1-20.47-6-15.63-7.33-32-6.81-48.54.26-8.24-3.17-14-11.31-12.73-34.37,5.47-61.53-12.82-89.63-26.89-91.25-45.69-176.15-101.62-257.41-163.11-19.87-15-30.19-35.89-30.25-61.31-.18-80.19-.6-160.38-.57-240.57,0-26.52,14.7-40.52,41.3-40.54q111.06-.08,222.11,0Z" transform="translate(-521.26 -1399.49)"/></svg>