<svg xmlns="http://www.w3.org/2000/svg" viewBox="0 0 262.98 145.47"><defs><style>.cls-1{fill:#89bbe0;}.cls-1,.cls-3{stroke:#fff;stroke-miterlimit:10;}.cls-2{fill:#c9eafd;}.cls-3,.cls-9{fill:#c8aa69;}.cls-4{fill:#c7f4de;}.cls-5{fill:#d4eafd;}.cls-6{fill:#ddf3fc;}.cls-7{fill:#fcfdfd;}.cls-8{fill:#fff;}</style></defs><g id="Layer_2" data-name="Layer 2"><g id="Layer_1-2" data-name="Layer 1"><path class="cls-1" d="M262.48,117.83v-26c-2.93-2.61-5.81-.29-8.7.87-4.78,6.15-10.76,10.93-17.2,15.19-.82,2.16-1.94,4.29-.25,6.56,6.63,8.87,13.21,17.78,19.88,26.61,1.76,2.34,3.93,3,6.27.62-.05-7.14-.11-14.27-.14-21.4A8.26,8.26,0,0,1,262.48,117.83Z"/><path class="cls-1" d="M21.9,110.8c4.92,6.53,4.79,7.1-.23,13.58C16.82,130.65,12,136.88,6,142.17c-1.58,1.41-2.92,3.27-5.48,2.69L.5,93.93c1.82-.44,3.15,1,4.78,1.27Z"/><path class="cls-2" d="M50.35,63.43c.57-2,2.47-3,3.57-4.68,1.5-2.21,2.39-4.4.34-6.76,0-4.46,2.16-7.3,6.23-9.24s8-4.63,12-7c1.24-.71,2.39-2.4,3.94-1.51,1.82,1,.24,2.67,0,4-1,6.19-2.16,12.36-3.28,18.53a8.22,8.22,0,0,1-3.81,6.06c-7,3.41-13.84,6.94-20,11.72-2.1-1.71-.68-3.58-.22-5.39S50.68,65.5,50.35,63.43Z"/><path class="cls-3" d="M21.9,110.8,5.28,95.2C11.1,91.12,13.67,85,15.34,78.48,16.74,73,18.29,67.6,21,62.58A10.46,10.46,0,0,1,28.78,57c5.88-1.1,11.74-2.3,17.61-3.46l1,.4c.26,1.47-.89,2.45-1.3,3.69l-1,1c-2.62,3.72-8,3.24-10.68,7.3C33,68,29.64,68.18,28,64.72c-.37-.78-.8-1.93-2.16-1.4.86,6.59,4.88,8.58,10,4.82,3.59-2.64,7.26-5.23,10-8.8l1.06-.91L54.26,55c2.05,2.36,1.16,4.55-.34,6.76-1.1,1.63-3,2.65-3.57,4.68-6.73,6.71-10.61,15-13.71,23.83-.87,2.48,1.27,4.63-.06,7.23-2.25,4.43-4.89,8.25-9.64,10.22A13.08,13.08,0,0,0,21.9,110.8Z"/><path class="cls-3" d="M213.81,56.76a6.32,6.32,0,0,1-2.24-.27c-1.82-.79-3.58-1.74-5.36-2.63a2.91,2.91,0,0,0-1.82,2.76c.5,1.73,2.09,3,2.65,4.68a1.47,1.47,0,0,1,1,.43c.83,1,1.6,2.1,2.36,3.18.36.51.71,1,1.08,1.52l.54.73.14.18h0l.26.33a1.77,1.77,0,0,1,.41.94c.8.74,1.38,1.75,2.1,2.56,5.33,6.08,7.08,13.76,9.42,21.18,2.12,6.75,4.41,13.36,12.28,15.58,6.44-4.26,12.42-9,17.2-15.19-5.1-5.65-7-12.73-8.65-19.86-2.46-10.46-7.87-17.4-19.61-17.34-1.47,0-3-.8-4.41-.7-2.48.18-6.27-4-7.3,1.92M234,65.39c-3.49,5.2-9.6,4-13.71-2.65-.67,0-1.05-.26-1-1-1.32.25-1.89-.62-2.37-1.61l-1.06-1c-.58-.33-1.81-.52-1.06-1.42s1.25.23,1.7.8l1,.95a2,2,0,0,1,1.78,2.21l1,1c1.93-.41,3,1.09,4.39,2,2.77,1.75,5.22,1.88,7.38-1,.6-.81,1.24-2.51,2.59-1.33C235.74,63.3,234.57,64.48,234,65.39Z"/><path class="cls-2" d="M134.93,34.93c4.74,8.63,15.17,13.89,13.47,26.43-.88,6.5-.12,13.24.09,19.87.11,3.36-1.4,4.07-4.27,3.31-.16,0-.31-.11-.47-.15C133,81.8,133.09,81.8,133.21,70.87c.12-11.44.11-22.88.17-34.32a4.07,4.07,0,0,1,.26-.95Z"/><path class="cls-2" d="M180.25,24.47c-.85-5.4-2.87-10.54-3.42-16a2.91,2.91,0,0,0-.77-2L157.64,24.51a1.53,1.53,0,0,1-.59.37,3.27,3.27,0,0,0-.73,2.43c.63,4.92,1.14,9.86,1.56,14.8.34,4.13,2.26,4.37,5.13,2.2,4.75-3.61,9.39-7.38,14.16-11C180.25,31,180.8,28,180.25,24.47Z"/><path class="cls-2" d="M168.35,74a118.79,118.79,0,0,1,12.52-14.76c4.89-4.8,4.59-9.73,3-15.44-.79-2.81-1.92-3.46-4.56-2-4.83,2.59-9.65,5.23-14.69,7.33-4.32,1.8-6.73,4.17-5.7,7.27.87,8.4,1.52,15,2.24,21.57.1.83,0,1.94.7,2.46Z"/><path class="cls-4" d="M207.2,63a5.32,5.32,0,0,1,3.19,4.62c1.32,5.11,2.53,10.26,4,15.34,1,3.33-.22,4.37-3.38,3.69q-7.05-1.5-14.09-3.11C194.54,83,194,81.05,193.6,79q-1.93-9.51-3.88-19c-.23-1.11-.92-2.36.08-3.29,1.26-1.18,2.53,0,3.66.45C198.07,59,202.63,61.05,207.2,63Z"/><path class="cls-2" d="M199.56,36.33C195.3,35,191,33.74,186.77,32.48c-2.56-.75-2.93-3-3.35-5-1-5-1.89-10.06-2.83-15.09-.21-1.13-.68-2.42.48-3.19a3.12,3.12,0,0,1,3.31.31c3.6,2,7.08,4.3,11.05,5.61a2.36,2.36,0,0,1,1.34,1.36c1.79,6,3.57,12,5.19,18.1C202.54,36.69,201.11,36.62,199.56,36.33Z"/><path class="cls-4" d="M190.61,82.68l-3.29-17.37c-.15-.76-.09-1.7-.72-2.15a1.44,1.44,0,0,1-.32.45l-6.87,6.74c-4.33,5.59-9,10.94-13.46,16.41-.79,1-2.13,2.07-1,3.44.8,1,2.16.56,3.3.26,6.26-1.64,12.54-3.25,18.79-5C189,85,191,84.29,190.61,82.68Z"/><path class="cls-2" d="M129,78.09c-2.48-13.86-8-26.77-12.13-40.11-.57-1.83-.15-2.57,1.6-3.35,11.22-5,12.38-7.7,12,7.15-.28,12,0,24.12,0,36.18Z"/><path class="cls-2" d="M133.3,22.44a1.46,1.46,0,0,1,.81-1.59c5.87,2.61,11.36,6.13,17.79,7.4,4,6.06,2.33,13.1,3.25,19.67.39,2.8-2.05,1.57-3,.75a100.61,100.61,0,0,1-8.16-8c-2.65-2.94-5-6.18-7.53-9.22C134.27,28.85,132.83,26,133.3,22.44Z"/><path class="cls-4" d="M105.27,20.18c-.37,7.65-.37,7.66-7.41,5.68a53.33,53.33,0,0,1-7.12-2.18c-2.32-1-6.37-.34-6.64-3.31C83.78,16.72,85,12.86,86,9.22c.53-2,2.5-1.12,3.86-.63,4.51,1.63,9,3.38,13.48,5C107.1,15,104.64,18.19,105.27,20.18Z"/><path class="cls-4" d="M63.14,31.77c-1.15.05-3.08,1.06-2.38-1.5q2.06-7.44,4.44-14.78a3.8,3.8,0,0,1,1.93-2.14c5-2,10.13-3.75,16.64-6.12-3.09,6.31-.55,12.93-6.39,16.77A87.28,87.28,0,0,0,63.14,31.77Z"/><path class="cls-2" d="M103.29,43.83c-.66,5.35-2,11.51-2,17.82,0,1.83-.73,3.43-3.07,2.61-2.91-1-7.57-.5-7.21-5.11.45-5.92,1.32-11.8,1.74-17.74.12-1.72-.83-5.26,2.86-5.24C100.59,36.2,103.36,38.79,103.29,43.83Z"/><path class="cls-4" d="M69.42,67.78c2,0,1.91,1.31,1.62,2.72-.57,2.75-1.19,5.48-1.66,8.24C69,81,67.29,81.48,65.49,81.93c-5.12,1.29-10.21,2.71-15.37,3.83-1.4.3-3.26,2.07-4.42,0-1-1.78.17-3.51,1.49-4.86A24.53,24.53,0,0,1,49.48,79Z"/><path class="cls-4" d="M102.6,85.55c.28-3,.65-5.46.7-7.94a3.57,3.57,0,0,1,2.57-3.68c7.56-3.16,7.73-3.26,11.2,4.66,3.15,7.19,5.59,7.76-4.63,9.45a25.35,25.35,0,0,0-4.85,1C103.45,90.63,101.47,89.83,102.6,85.55Z"/><path class="cls-2" d="M206.21,50.86a2.91,2.91,0,0,0-1.82,2.76c-5.52.45-10.28-2.38-15-4.31-3.47-1.41-3-6.63-2.49-9.81s4.06-1.41,6.39-.91c1.29.28,2.6.44,3.89.71C205.55,41.1,206.34,42.11,206.21,50.86Z"/><path class="cls-2" d="M108.32,38C110,38,110.6,39.26,111,40.5c1.78,5.16,3.54,10.32,5.17,15.53.86,2.73-.26,4.4-3.14,5-2.72.6-6.17,3.34-7.81,1.94-2.23-1.9-.92-5.87-.36-8.9.82-4.42.08-9,1.31-13.33C106.57,39.47,106.48,38.08,108.32,38Z"/><path class="cls-2" d="M85.35,42.42c-1.84,4.9-.16,11.33-1.76,17.45-.38,1.46.64,4.39-2.64,3.26-2.35-.82-6.25-.33-5.48-4.74,1-5.67,2.17-11.32,3.27-17,.22-1.13.46-2.26.64-3.39.24-1.57-.09-3.8,2.29-3.61,2,.15,3.84,1.2,3.68,3.82C85.29,39.22,85.34,40.21,85.35,42.42Z"/><path class="cls-4" d="M134.27,18.74c1.14-2.92,1.48-6.32,4.81-7.9l7.26,3c5.87,2.41,7.45,6.6,5,13.14Z"/><path class="cls-4" d="M99.45,82.29a4.46,4.46,0,0,1-.11,1.48c-1,2.06,1.66,6.08-2.67,6.17-5.48.1-8.39-3.38-7.69-8.21.1-.66.22-1.31.3-2,.84-7.24,2.63-8.15,9.14-4.66C99.93,75.93,99.93,75.93,99.45,82.29Z"/><path class="cls-4" d="M82.34,73.32c-.17,1-.51,2.77-.77,4.57-.95,6.75-1.25,6.87-7.35,4.18-1.84-.82-2.6-1.64-2-3.72.65-2.39.72-4.94,1.45-7.3.52-1.67-.37-4.81,3.42-4C81.47,67.9,82.54,68.86,82.34,73.32Z"/><path class="cls-4" d="M115.22,12.71a17.79,17.79,0,0,1,4.26,9.18c-4,1.73-7.74,3.91-12,4.79a42.52,42.52,0,0,0,.25-5.4C107.31,15.82,109.94,13.14,115.22,12.71Z"/><path class="cls-2" d="M155.2,55.36c2.79,6.53,1.74,13.56,3,20.29.57,3.06,0,6.27.85,9.37.32,1.17.77,3-.95,3.37-2,.4-2.41-1.64-2.53-3-.52-5.43-1-10.87-1.1-16.32C154.34,64.55,153.8,60,155.2,55.36Z"/><path class="cls-4" d="M163.62,16.44a12.19,12.19,0,0,1,1.31-1.28l2.14-2.09c.31-1.27,2.3-1.9,1.59-3.88-2.67,1-5.21,2.26-7.9,2.75-5.61,1-5.82,4.54-5.24,9.1.18,1.38.53,2.08,1,2.34Z"/><path class="cls-2" d="M105.16,31.83c-.23,1.32-1.1,1.93-2.76,1.48-5.75-1.57-11.53-3.07-17.27-4.67-1.54-.43-1.95-1.7-1.65-3.17s1.51-1.73,2.69-1.36c5.86,1.81,11.69,3.7,17.52,5.61A2,2,0,0,1,105.16,31.83Z"/><path class="cls-2" d="M120.81,24.85a4.64,4.64,0,0,1,1.72,3.5c-3.57,1.57-7.15,3.12-10.71,4.73-3.22,1.46-5.12,1.11-4.4-3.06Z"/><path class="cls-2" d="M78.46,25.05c1.39,1.32,1.36,2.89-.21,3.7C72,32,65.63,35,58.48,38.5c.82-4.15,4-4.14,5.82-5.65Z"/><path class="cls-5" d="M122.24,85.06c-1.84-4-3.72-8-5.51-12-.49-1.09-.61-2.35.82-2.94,1.62-.67,2.4.24,2.9,1.71C121.86,76.06,123.35,80.24,122.24,85.06Z"/><path class="cls-6" d="M50.4,41c.05-1.1-.18-2.28,1-3h0c0,1.09.17,2.28-1,3Z"/><path class="cls-6" d="M54.39,28l.38-2.17c.13.08.34.13.38.25A1.52,1.52,0,0,1,54.37,28Z"/><path class="cls-6" d="M47.42,50.94l.38-2.18c.14.08.34.14.38.25a1.52,1.52,0,0,1-.77,1.92Z"/><path class="cls-6" d="M54.37,28,54,30.12c-.13-.08-.34-.14-.38-.25A1.52,1.52,0,0,1,54.39,28Z"/><path class="cls-6" d="M51.4,38l.39-2.17c.13.08.34.13.37.25a1.52,1.52,0,0,1-.77,1.91Z"/><path class="cls-6" d="M50.39,40.93,50,43.11c-.13-.09-.34-.14-.37-.25A1.52,1.52,0,0,1,50.4,41Z"/><path class="cls-6" d="M55.76,22.68c.12,0,.35.08.35.13a1.36,1.36,0,0,1-.13.42c-.12,0-.35-.08-.35-.13A1.36,1.36,0,0,1,55.76,22.68Z"/><path class="cls-6" d="M49.14,46.11c-.12,0-.32.12-.35.09a1.65,1.65,0,0,1-.14-.41c.13,0,.33-.13.36-.1A1.29,1.29,0,0,1,49.14,46.11Z"/><path class="cls-6" d="M53,33.23c-.12,0-.34-.09-.35-.13a1.36,1.36,0,0,1,.13-.42c.12,0,.34.08.34.13A1.11,1.11,0,0,1,53,33.23Z"/><path class="cls-7" d="M45.83,59.34c-2.79,3.57-6.46,6.16-10,8.8-5.1,3.76-9.12,1.77-10-4.82,1.36-.53,1.79.62,2.16,1.4C29.64,68.18,33,68,34.42,65.9c2.73-4.06,8.06-3.58,10.68-7.3Z"/><path class="cls-7" d="M45.1,58.6l1-1c.26.28.53.55.79.84l-1.05.91Z"/><path class="cls-8" d="M218.82,62.19c2.21-.47,3.47,1.25,5,2.23,3.17,2,6,2.15,8.45-1.15.69-.92,1.42-2.87,3-1.53,1.28,1.11-.06,2.46-.76,3.5-4,6-11,4.58-15.7-3Z"/><path class="cls-7" d="M219.24,61.76c-1.32.25-1.89-.62-2.37-1.61l.62-.64a2,2,0,0,1,1.78,2.21Z"/><path class="cls-7" d="M215.81,59.19c-.58-.34-1.81-.53-1.06-1.43s1.25.23,1.7.8Z"/><path class="cls-7" d="M219.25,61.74c-.67,0-1.05-.26-1-1l0,0,1,1Z"/><path class="cls-7" d="M216.87,60.15c-.35-.32-.7-.65-1.06-1l.64-.63,1,.95Z"/><path class="cls-6" d="M59.36,12.22l-12.22,41"/><path class="cls-8" d="M58.63,12,46.41,53a.75.75,0,0,0,1.45.4l12.22-41c.28-.93-1.17-1.32-1.45-.4Z"/><path class="cls-8" d="M39.69,96.55l29.1-8.42a.75.75,0,0,0-.4-1.45L39.29,95.1a.75.75,0,0,0,.4,1.45Z"/><path class="cls-8" d="M101.21,98.54,130.8,90a.75.75,0,0,0-.4-1.45l-29.59,8.56a.75.75,0,0,0,.4,1.45Z"/><path class="cls-8" d="M162.75,101l31.38-9.09a.75.75,0,0,0-.4-1.44l-31.37,9.08a.75.75,0,0,0,.39,1.45Z"/><path class="cls-8" d="M225.2,98.61l-30.28-7.9a.75.75,0,0,0-.4,1.45l30.29,7.9a.75.75,0,0,0,.39-1.45Z"/><path class="cls-8" d="M130.61,89.76l31.75,11.12c.91.32,1.3-1.13.4-1.45L131,88.31c-.92-.32-1.31,1.13-.4,1.45Z"/><path class="cls-8" d="M100.6,97.24,68.86,87c-.93-.3-1.32,1.15-.4,1.45L100.2,98.68c.92.3,1.31-1.15.4-1.44Z"/><path class="cls-8" d="M202.78,14.39l10.37,41.06a.75.75,0,0,0,1.44-.4L204.22,14a.75.75,0,0,0-1.44.39Z"/><path class="cls-8" d="M219.86,61.83a15,15,0,0,1-2.06-2,.37.37,0,0,0-.53.53,9,9,0,0,0,2.4,2l.29-.69a3.08,3.08,0,0,1-2-1.28c-.27-.4-.9,0-.65.38A5.48,5.48,0,0,0,221,63.35a.38.38,0,0,0,.37-.63,16.32,16.32,0,0,0-3.29-2.92.38.38,0,1,0-.38.65,15.48,15.48,0,0,1,3.14,2.8l.36-.62A4.78,4.78,0,0,1,218,60.42l-.65.38a3.91,3.91,0,0,0,2.44,1.63.38.38,0,0,0,.29-.69,8.43,8.43,0,0,1-2.25-1.91l-.53.53a15,15,0,0,0,2.06,2,.37.37,0,1,0,.53-.53Z"/><path class="cls-8" d="M215.36,58.53A6.89,6.89,0,0,0,217.49,61a18.59,18.59,0,0,0,2.57,2.45c.41.26.79-.39.38-.65a16,16,0,0,1-2.37-2.28c-.69-.66-1.64-1.24-2-2.18-.17-.45-.89-.25-.72.2Z"/><path class="cls-8" d="M214.35,57.59a2.48,2.48,0,0,0,.68,1.07l1.2,1.3c.76.82,1.52,1.63,2.3,2.44a16.71,16.71,0,0,0,4.6,3.63c.43.21.81-.44.38-.65A15.65,15.65,0,0,1,219.16,62c-.69-.72-1.38-1.45-2.06-2.18-.36-.38-.73-.77-1.09-1.17s-.83-.74-.93-1.23-.83-.27-.73.2Z"/><path class="cls-8" d="M222.24,63.16a3.15,3.15,0,0,1-1.49-1l-.45.59,3.24,2,.29-.69a6.4,6.4,0,0,1-2.4-1.43c-.8-.66-1.61-1.33-2.39-2s-1.53-1.33-2.25-2-1.17-1.35-2.07-1.42c-.49,0-.48.72,0,.75s.76.44,1.05.73.73.71,1.1,1q1.11,1,2.28,2c.73.62,1.46,1.24,2.22,1.84a6.12,6.12,0,0,0,2.26,1.25.38.38,0,0,0,.29-.69l-3.24-2c-.39-.23-.72.28-.46.59A3.83,3.83,0,0,0,222,63.88a.37.37,0,0,0,.2-.72Z"/><path class="cls-8" d="M228.4,68.88a1.5,1.5,0,0,0,0-3,1.5,1.5,0,0,0,0,3Z"/><path class="cls-8" d="M223.58,64.82a4.94,4.94,0,0,0,1.68.89c.65.31,1.26.69,1.94.94a.38.38,0,0,0,.2-.73c-.61-.22-1.17-.58-1.76-.86a4.5,4.5,0,0,1-1.53-.77c-.33-.35-.86.18-.53.53Z"/><path class="cls-8" d="M222.15,63.78l.35.2.05,0h0s0,0,0,0l0,0c.06,0,.11.11.16.16a6.86,6.86,0,0,1,.57.64.39.39,0,0,0,.27.11.36.36,0,0,0,.26-.11.35.35,0,0,0,.11-.27.38.38,0,0,0-.11-.26c-.18-.23-.38-.45-.58-.66a3.12,3.12,0,0,0-.75-.54.37.37,0,0,0-.51.14.38.38,0,0,0,.13.51Z"/><path class="cls-8" d="M223.6,64.79a2,2,0,0,0,.9.59.37.37,0,0,0,.29,0,.39.39,0,0,0,.18-.22.4.4,0,0,0-.27-.47l-.13-.05.09,0a1.31,1.31,0,0,1-.36-.21l.08.06a2.73,2.73,0,0,1-.25-.23.36.36,0,0,0-.26-.11.4.4,0,0,0-.27.11.41.41,0,0,0-.11.26l0,.1a.46.46,0,0,0,.09.17Z"/><path class="cls-8" d="M60.2,11.87,86.86,4.16a.75.75,0,0,0-.4-1.45L59.8,10.43a.75.75,0,0,0,.4,1.44Z"/><path class="cls-8" d="M107,9.48,86.92,3c-.92-.3-1.31,1.15-.4,1.45l20,6.45c.93.3,1.32-1.15.4-1.44Z"/><path class="cls-8" d="M107,10.83l24.93-7.22a.75.75,0,0,0-.4-1.45L106.6,9.38a.75.75,0,0,0,.4,1.45Z"/><path class="cls-8" d="M132.38,3.41l20.33,7.11c.91.32,1.31-1.12.4-1.44L132.78,2c-.91-.32-1.3,1.13-.4,1.45Z"/><path class="cls-8" d="M153,10.34,175.85,1.5c.89-.34.5-1.8-.4-1.45L152.62,8.9c-.9.34-.51,1.79.39,1.44Z"/><path class="cls-8" d="M203.26,13.3,176.31.2c-.86-.42-1.63.87-.76,1.3l27,13.1c.86.42,1.62-.88.75-1.3Z"/><path class="cls-4" d="M123.29,22a22.84,22.84,0,0,1-3.08-10.34c3.47-1.73,6.8-4,10.5-4.75-.19,2-.54,4-.54,6C130.18,18.92,127.79,21.76,123.29,22Z"/><path class="cls-4" d="M122.69,20.27q.77,2.36,1.76,4.62c.67,1.51,1.39,3.5,3.43,3.11a1.52,1.52,0,0,0,1.1-1.45q-.12-5.78.09-11.55a1.5,1.5,0,0,0-3,0q-.21,5.78-.09,11.55l1.1-1.45-.14,0h.8c.16,0,.21.29.13,0a5.62,5.62,0,0,0-.38-.78c-.24-.51-.47-1-.68-1.53-.46-1.1-.86-2.22-1.22-3.35a1.5,1.5,0,0,0-2.9.79Z"/><path class="cls-4" d="M126.61,15.46c-.26,3.31-.45,6.64-.56,10a1.5,1.5,0,0,0,1.5,1.5,1.53,1.53,0,0,0,1.5-1.5c.11-3.32.3-6.65.56-10a1.49,1.49,0,0,0-1.5-1.5,1.54,1.54,0,0,0-1.5,1.5Z"/><path class="cls-4" d="M129.4,26.6v-11a1.5,1.5,0,0,0-3,0v11a1.5,1.5,0,0,0,3,0Z"/><path class="cls-4" d="M130,26.45V11.34a1.5,1.5,0,0,0-3,0V26.45a1.5,1.5,0,0,0,3,0Z"/><path class="cls-4" d="M136.07,17.47V9.34a1.5,1.5,0,0,0-3,0v8.13a1.5,1.5,0,0,0,3,0Z"/><path class="cls-4" d="M134.26,11.22l3.83,1.67a1.59,1.59,0,0,0,1.15.15,1.51,1.51,0,0,0,.9-.68,1.56,1.56,0,0,0,.15-1.16,1.46,1.46,0,0,0-.69-.9l-3.82-1.67a1.62,1.62,0,0,0-1.16-.15,1.52,1.52,0,0,0-.9.69,1.54,1.54,0,0,0-.15,1.15,1.43,1.43,0,0,0,.69.9Z"/><path class="cls-4" d="M138,12.17c-.12-.13-.12-.13,0,0-.08-.15-.08-.16,0,0a3,3,0,0,1-.13-.39c-.1-.34-.19-.67-.28-1l-.6-2.14-2.51,1.46a21,21,0,0,0,4.48,3.12c.76.42,1.52.83,2.26,1.28q.54.33,1,.69l.29.2.08.06.54.45a1.5,1.5,0,1,0,2.12-2.13,25.86,25.86,0,0,0-4.58-3c-.75-.42-1.51-.84-2.23-1.31-.35-.22-.69-.46-1-.71l-.08-.06-.26-.23c-.18-.15-.35-.31-.51-.47A1.51,1.51,0,0,0,134,9.43l.69,2.46a5,5,0,0,0,1.13,2.4,1.53,1.53,0,0,0,2.12,0,1.51,1.51,0,0,0,0-2.12Z"/><path class="cls-8" d="M69.37,87.29,82,22.62l3.57-18.3c.18-.94-1.26-1.34-1.45-.4L71.49,68.59l-3.56,18.3c-.19.94,1.26,1.35,1.44.4Z"/><path class="cls-8" d="M131.26,89.11l1.51-66.7L133.2,3.5a.75.75,0,0,0-1.5,0l-1.51,66.7-.43,18.91a.75.75,0,0,0,1.5,0Z"/><path class="cls-8" d="M100.74,98.14l5.73-68.66,1.62-19.4c.08-1-1.42-1-1.5,0l-5.73,68.65L99.24,98.14c-.08,1,1.42,1,1.5,0Z"/><path class="cls-8" d="M163.14,100.16l-7.6-70.33L153.4,10c-.11-.95-1.61-1-1.5,0l7.6,70.34,2.14,19.81c.11,1,1.61,1,1.5,0Z"/><path class="cls-8" d="M196.29,91.76,181.47,21.1l-4.2-20c-.19-.94-1.64-.54-1.44.4l14.82,70.66,4.19,20c.2.94,1.65.54,1.45-.4Z"/><path class="cls-9" d="M215.38,57.35c.23.12.44.24.66.38a2.2,2.2,0,0,0,.25.17c.39.28-.1-.08.11.09a9.82,9.82,0,0,1,1,1,12.32,12.32,0,0,0,2.1,2.17,16.24,16.24,0,0,0,5.09,2.24,1.53,1.53,0,0,0,1.85-1,1.55,1.55,0,0,0-1.05-1.85c-.83-.25-1.67-.51-2.48-.84l-.09,0-.26-.12-.56-.29-.53-.32-.29-.2c-.2-.14.25.22-.08-.06a18.72,18.72,0,0,1-1.78-2,9.56,9.56,0,0,0-2.45-1.89,1.5,1.5,0,0,0-1.52,2.59Z"/><path class="cls-8" d="M213.86,56.73a1.94,1.94,0,0,0,.52,1.33c.27.32.85-.11.59-.45a4.53,4.53,0,0,1-.64-1.08c-.1-.25-.54-.42-.68-.09a1,1,0,0,0,.17,1.09c.32.44.7.84,1.05,1.25.71.83,1.4,1.66,2.13,2.47A15.74,15.74,0,0,0,221.57,65c.43.22.81-.43.37-.64a14.46,14.46,0,0,1-4.09-3.29c-.59-.64-1.16-1.31-1.73-2l-1-1.2c-.13-.16-.89-.85-.8-1.07l-.68-.09a5.59,5.59,0,0,0,.71,1.26l.59-.46a1.12,1.12,0,0,1-.3-.8.38.38,0,0,0-.75,0Z"/><path class="cls-8" d="M213.33,56.72a3.89,3.89,0,0,0,1,2l.46-.59A6.61,6.61,0,0,1,213,56.53l-.53.53,2.64,2.81a3.56,3.56,0,0,0,1.27,1c.57.23,1.15.44,1.73.66s.64-.56.2-.73l-1.61-.6a3.62,3.62,0,0,1-1.21-1L213,56.53c-.33-.36-.82.17-.53.53a7,7,0,0,0,2,1.69.37.37,0,0,0,.45-.58,3.16,3.16,0,0,1-.85-1.65c-.09-.47-.81-.27-.72.2Z"/><path class="cls-8" d="M218.38,60.88a2.85,2.85,0,0,1-.58-.12l-.27-.09-.14-.05s0,0,0,0l-.09,0a5.14,5.14,0,0,1-.51-.29l-.24-.16,0,0s0,0,0,0l-.13-.1a.38.38,0,0,0-.53,0,.39.39,0,0,0,0,.53,4.69,4.69,0,0,0,2.37,1.11.38.38,0,0,0,.2-.73Z"/><path class="cls-8" d="M213.9,56c.78,1.57,2.23,2.59,3.47,3.77s2.18,2.8,3.67,3.79c.41.26.78-.39.38-.65-1.43-.95-2.3-2.51-3.52-3.68s-2.6-2.1-3.35-3.61c-.22-.43-.86,0-.65.38Z"/></g></g></svg>