<svg width="250" height="250" viewBox="0 0 250 250" fill="none" xmlns="http://www.w3.org/2000/svg">
<rect width="250" height="250" fill="white"/>
<path d="M185.92 83.5054C173.403 83.5054 163.221 73.3227 163.221 60.8064C163.221 48.2902 173.403 38.1074 185.92 38.1074C198.436 38.1074 208.619 48.2902 208.619 60.8064C208.619 73.3227 198.436 83.5054 185.92 83.5054ZM185.92 47.187C178.41 47.187 172.3 53.2967 172.3 60.8064C172.3 68.3162 178.41 74.4258 185.92 74.4258C193.429 74.4258 199.539 68.3162 199.539 60.8064C199.539 53.2967 193.429 47.187 185.92 47.187Z" fill="url(#paint0_linear)"/>
<path d="M51.2278 210.62C48.7205 210.62 46.688 208.587 46.688 206.08V65.3463C46.688 59.9807 42.7942 55.9343 37.6311 55.9343C32.6119 55.9343 28.5288 60.3861 28.5288 65.8574V205.169C28.5288 207.676 26.4964 209.709 23.989 209.709C21.4817 209.709 19.4492 207.676 19.4492 205.169V65.8574C19.4492 55.3791 27.6054 46.8547 37.6311 46.8547C47.8012 46.8547 55.7676 54.9774 55.7676 65.3463V206.08C55.7676 208.587 53.7352 210.62 51.2278 210.62Z" fill="url(#paint1_linear)"/>
<path d="M103.436 128.904H53.4978C50.9905 128.904 48.958 126.871 48.958 124.364V65.3463C48.958 62.839 50.9905 60.8065 53.4978 60.8065H103.436C105.943 60.8065 107.975 62.839 107.975 65.3463V124.364C107.975 126.871 105.943 128.904 103.436 128.904ZM58.0376 119.824H98.8958V69.8861H58.0376V119.824Z" fill="url(#paint2_linear)"/>
<path d="M157.913 233.319C155.406 233.319 153.373 231.286 153.373 228.779V174.302H53.4978C50.9905 174.302 48.958 172.269 48.958 169.762C48.958 167.255 50.9905 165.222 53.4978 165.222H157.913C160.42 165.222 162.453 167.255 162.453 169.762V228.779C162.453 231.286 160.42 233.319 157.913 233.319Z" fill="url(#paint3_linear)"/>
<path d="M226.01 233.319H194.231C191.725 233.319 189.692 231.286 189.692 228.779V169.762C189.692 167.255 191.725 165.222 194.231 165.222H226.01C228.517 165.222 230.55 167.255 230.55 169.762V228.779C230.55 231.286 228.517 233.319 226.01 233.319ZM198.771 224.239H221.47V174.302H198.771V224.239Z" fill="url(#paint4_linear)"/>
<path d="M226.01 128.904H157.913C155.406 128.904 153.374 126.871 153.374 124.364V92.5852C153.374 90.0779 155.406 88.0454 157.913 88.0454C160.42 88.0454 162.453 90.0779 162.453 92.5852V119.824H226.01C228.517 119.824 230.55 121.856 230.55 124.364C230.55 126.871 228.517 128.904 226.01 128.904Z" fill="url(#paint5_linear)"/>
<path d="M226.01 233.319H46.6883C31.4876 233.319 19.7831 221.269 19.4626 205.289C19.4599 205.159 19.4631 205.028 19.4717 204.898C20.1263 195.034 28.1028 187.308 37.6309 187.308C40.8909 187.308 43.9962 188.302 46.6878 190.025V65.3463C46.6878 62.839 48.7203 60.8065 51.2276 60.8065H146.101C148.382 60.8065 150.309 62.4994 150.603 64.7616C152.58 79.9799 166.897 94.2744 179.528 106.886C181.716 109.071 183.828 111.18 185.835 113.249C187.775 111.271 189.81 109.256 191.917 107.167C204.726 94.4778 219.243 80.0952 221.236 64.7611C221.53 62.499 223.457 60.8065 225.738 60.8065H226.01C228.517 60.8065 230.55 62.839 230.55 65.3463V228.779C230.55 231.286 228.517 233.319 226.01 233.319ZM28.5454 205.312C28.8573 216.292 36.4587 224.239 46.6883 224.239H221.471V87.4574C215.139 96.9429 206.407 105.594 198.308 113.618C195.019 116.876 191.912 119.954 189.13 122.926C188.272 123.843 187.072 124.364 185.815 124.364C185.81 124.364 185.806 124.364 185.8 124.364C184.538 124.359 183.335 123.83 182.48 122.903C179.657 119.845 176.478 116.672 173.113 113.312C160.451 100.669 146.223 86.4632 142.323 69.8861H55.7679V206.08C55.7679 208.538 53.8121 210.55 51.3552 210.618C48.9041 210.706 46.8331 208.789 46.6951 206.334C46.3923 200.942 42.2415 196.387 37.6309 196.387C32.9259 196.387 28.9681 200.293 28.5454 205.312Z" fill="url(#paint6_linear)"/>
<path d="M185.816 124.364C185.81 124.364 185.806 124.364 185.8 124.364C184.538 124.359 183.335 123.83 182.48 122.903C179.656 119.845 176.477 116.671 173.111 113.31C158.196 98.4183 141.29 81.5394 141.29 61.2065C141.29 49.2614 145.907 38.0658 154.291 29.6821C162.675 21.2985 173.87 16.681 185.816 16.681C197.767 16.681 208.996 21.2939 217.433 29.6703C225.892 38.068 230.551 49.2677 230.551 61.2065C230.551 81.6769 213.422 98.6453 198.309 113.616C195.02 116.875 191.912 119.953 189.13 122.926C188.272 123.844 187.072 124.364 185.816 124.364ZM185.816 25.7602C166.27 25.7602 150.37 41.6613 150.37 61.206C150.37 77.7736 165.86 93.2393 179.527 106.884C181.716 109.07 183.828 111.179 185.835 113.249C187.776 111.27 189.811 109.254 191.919 107.166C205.771 93.4436 221.471 77.8907 221.471 61.206C221.471 41.6613 205.476 25.7602 185.816 25.7602Z" fill="url(#paint7_linear)"/>
<path d="M71.657 142.523H62.5774V151.603H71.657V142.523Z" fill="url(#paint8_linear)"/>
<path d="M85.2764 142.523H76.1968V151.603H85.2764V142.523Z" fill="url(#paint9_linear)"/>
<path d="M98.896 142.523H89.8164V151.603H98.896V142.523Z" fill="url(#paint10_linear)"/>
<path d="M112.515 142.523H103.436V151.603H112.515V142.523Z" fill="url(#paint11_linear)"/>
<path d="M126.135 142.523H117.055V151.603H126.135V142.523Z" fill="url(#paint12_linear)"/>
<path d="M139.754 142.523H130.674V151.603H139.754V142.523Z" fill="url(#paint13_linear)"/>
<path d="M139.754 128.904H130.674V137.983H139.754V128.904Z" fill="url(#paint14_linear)"/>
<path d="M139.754 115.284H130.674V124.364H139.754V115.284Z" fill="url(#paint15_linear)"/>
<path d="M139.754 101.665H130.674V110.744H139.754V101.665Z" fill="url(#paint16_linear)"/>
<path d="M139.754 88.0454H130.674V97.125H139.754V88.0454Z" fill="url(#paint17_linear)"/>
<path d="M139.754 74.426H130.674V83.5056H139.754V74.426Z" fill="url(#paint18_linear)"/>
<path d="M153.374 142.523H144.294V151.603H153.374V142.523Z" fill="url(#paint19_linear)"/>
<path d="M166.993 142.523H157.913V151.603H166.993V142.523Z" fill="url(#paint20_linear)"/>
<path d="M180.612 142.523H171.533V151.603H180.612V142.523Z" fill="url(#paint21_linear)"/>
<path d="M194.232 142.523H185.152V151.603H194.232V142.523Z" fill="url(#paint22_linear)"/>
<path d="M207.851 142.523H198.771V151.603H207.851V142.523Z" fill="url(#paint23_linear)"/>
<path d="M180.612 156.142H171.533V165.222H180.612V156.142Z" fill="url(#paint24_linear)"/>
<path d="M180.612 169.762H171.533V178.841H180.612V169.762Z" fill="url(#paint25_linear)"/>
<path d="M180.612 183.381H171.533V192.461H180.612V183.381Z" fill="url(#paint26_linear)"/>
<path d="M180.612 197.001H171.533V206.08H180.612V197.001Z" fill="url(#paint27_linear)"/>
<path d="M180.612 210.62H171.533V219.7H180.612V210.62Z" fill="url(#paint28_linear)"/>
<defs>
<linearGradient id="paint0_linear" x1="185.92" y1="38.1074" x2="185.92" y2="83.5054" gradientUnits="userSpaceOnUse">
<stop stop-color="#00C6A7"/>
<stop offset="1" stop-color="#2A94F4"/>
</linearGradient>
<linearGradient id="paint1_linear" x1="37.6084" y1="46.8547" x2="37.6084" y2="210.62" gradientUnits="userSpaceOnUse">
<stop stop-color="#00C6A7"/>
<stop offset="1" stop-color="#2A94F4"/>
</linearGradient>
<linearGradient id="paint2_linear" x1="78.4667" y1="60.8065" x2="78.4667" y2="128.904" gradientUnits="userSpaceOnUse">
<stop stop-color="#00C6A7"/>
<stop offset="1" stop-color="#2A94F4"/>
</linearGradient>
<linearGradient id="paint3_linear" x1="105.706" y1="165.222" x2="105.706" y2="233.319" gradientUnits="userSpaceOnUse">
<stop stop-color="#00C6A7"/>
<stop offset="1" stop-color="#2A94F4"/>
</linearGradient>
<linearGradient id="paint4_linear" x1="210.121" y1="165.222" x2="210.121" y2="233.319" gradientUnits="userSpaceOnUse">
<stop stop-color="#00C6A7"/>
<stop offset="1" stop-color="#2A94F4"/>
</linearGradient>
<linearGradient id="paint5_linear" x1="191.962" y1="88.0454" x2="191.962" y2="128.904" gradientUnits="userSpaceOnUse">
<stop stop-color="#00C6A7"/>
<stop offset="1" stop-color="#2A94F4"/>
</linearGradient>
<linearGradient id="paint6_linear" x1="125.006" y1="60.8065" x2="125.006" y2="233.319" gradientUnits="userSpaceOnUse">
<stop stop-color="#00C6A7"/>
<stop offset="1" stop-color="#2A94F4"/>
</linearGradient>
<linearGradient id="paint7_linear" x1="185.92" y1="16.681" x2="185.92" y2="124.364" gradientUnits="userSpaceOnUse">
<stop stop-color="#00C6A7"/>
<stop offset="1" stop-color="#2A94F4"/>
</linearGradient>
<linearGradient id="paint8_linear" x1="67.1172" y1="142.523" x2="67.1172" y2="151.603" gradientUnits="userSpaceOnUse">
<stop stop-color="#00C6A7"/>
<stop offset="1" stop-color="#2A94F4"/>
</linearGradient>
<linearGradient id="paint9_linear" x1="80.7366" y1="142.523" x2="80.7366" y2="151.603" gradientUnits="userSpaceOnUse">
<stop stop-color="#00C6A7"/>
<stop offset="1" stop-color="#2A94F4"/>
</linearGradient>
<linearGradient id="paint10_linear" x1="94.3562" y1="142.523" x2="94.3562" y2="151.603" gradientUnits="userSpaceOnUse">
<stop stop-color="#00C6A7"/>
<stop offset="1" stop-color="#2A94F4"/>
</linearGradient>
<linearGradient id="paint11_linear" x1="107.975" y1="142.523" x2="107.975" y2="151.603" gradientUnits="userSpaceOnUse">
<stop stop-color="#00C6A7"/>
<stop offset="1" stop-color="#2A94F4"/>
</linearGradient>
<linearGradient id="paint12_linear" x1="121.595" y1="142.523" x2="121.595" y2="151.603" gradientUnits="userSpaceOnUse">
<stop stop-color="#00C6A7"/>
<stop offset="1" stop-color="#2A94F4"/>
</linearGradient>
<linearGradient id="paint13_linear" x1="135.214" y1="142.523" x2="135.214" y2="151.603" gradientUnits="userSpaceOnUse">
<stop stop-color="#00C6A7"/>
<stop offset="1" stop-color="#2A94F4"/>
</linearGradient>
<linearGradient id="paint14_linear" x1="135.214" y1="128.904" x2="135.214" y2="137.983" gradientUnits="userSpaceOnUse">
<stop stop-color="#00C6A7"/>
<stop offset="1" stop-color="#2A94F4"/>
</linearGradient>
<linearGradient id="paint15_linear" x1="135.214" y1="115.284" x2="135.214" y2="124.364" gradientUnits="userSpaceOnUse">
<stop stop-color="#00C6A7"/>
<stop offset="1" stop-color="#2A94F4"/>
</linearGradient>
<linearGradient id="paint16_linear" x1="135.214" y1="101.665" x2="135.214" y2="110.744" gradientUnits="userSpaceOnUse">
<stop stop-color="#00C6A7"/>
<stop offset="1" stop-color="#2A94F4"/>
</linearGradient>
<linearGradient id="paint17_linear" x1="135.214" y1="88.0454" x2="135.214" y2="97.125" gradientUnits="userSpaceOnUse">
<stop stop-color="#00C6A7"/>
<stop offset="1" stop-color="#2A94F4"/>
</linearGradient>
<linearGradient id="paint18_linear" x1="135.214" y1="74.426" x2="135.214" y2="83.5056" gradientUnits="userSpaceOnUse">
<stop stop-color="#00C6A7"/>
<stop offset="1" stop-color="#2A94F4"/>
</linearGradient>
<linearGradient id="paint19_linear" x1="148.834" y1="142.523" x2="148.834" y2="151.603" gradientUnits="userSpaceOnUse">
<stop stop-color="#00C6A7"/>
<stop offset="1" stop-color="#2A94F4"/>
</linearGradient>
<linearGradient id="paint20_linear" x1="162.453" y1="142.523" x2="162.453" y2="151.603" gradientUnits="userSpaceOnUse">
<stop stop-color="#00C6A7"/>
<stop offset="1" stop-color="#2A94F4"/>
</linearGradient>
<linearGradient id="paint21_linear" x1="176.073" y1="142.523" x2="176.073" y2="151.603" gradientUnits="userSpaceOnUse">
<stop stop-color="#00C6A7"/>
<stop offset="1" stop-color="#2A94F4"/>
</linearGradient>
<linearGradient id="paint22_linear" x1="189.692" y1="142.523" x2="189.692" y2="151.603" gradientUnits="userSpaceOnUse">
<stop stop-color="#00C6A7"/>
<stop offset="1" stop-color="#2A94F4"/>
</linearGradient>
<linearGradient id="paint23_linear" x1="203.311" y1="142.523" x2="203.311" y2="151.603" gradientUnits="userSpaceOnUse">
<stop stop-color="#00C6A7"/>
<stop offset="1" stop-color="#2A94F4"/>
</linearGradient>
<linearGradient id="paint24_linear" x1="176.073" y1="156.142" x2="176.073" y2="165.222" gradientUnits="userSpaceOnUse">
<stop stop-color="#00C6A7"/>
<stop offset="1" stop-color="#2A94F4"/>
</linearGradient>
<linearGradient id="paint25_linear" x1="176.073" y1="169.762" x2="176.073" y2="178.841" gradientUnits="userSpaceOnUse">
<stop stop-color="#00C6A7"/>
<stop offset="1" stop-color="#2A94F4"/>
</linearGradient>
<linearGradient id="paint26_linear" x1="176.073" y1="183.381" x2="176.073" y2="192.461" gradientUnits="userSpaceOnUse">
<stop stop-color="#00C6A7"/>
<stop offset="1" stop-color="#2A94F4"/>
</linearGradient>
<linearGradient id="paint27_linear" x1="176.073" y1="197.001" x2="176.073" y2="206.08" gradientUnits="userSpaceOnUse">
<stop stop-color="#00C6A7"/>
<stop offset="1" stop-color="#2A94F4"/>
</linearGradient>
<linearGradient id="paint28_linear" x1="176.073" y1="210.62" x2="176.073" y2="219.7" gradientUnits="userSpaceOnUse">
<stop stop-color="#00C6A7"/>
<stop offset="1" stop-color="#2A94F4"/>
</linearGradient>
</defs>
</svg>
