<svg width="297" height="301" viewBox="0 0 297 301" fill="none" xmlns="http://www.w3.org/2000/svg">
<rect x="176.567" y="171.071" width="4.85629" height="84.0071" transform="rotate(-154.668 176.567 171.071)" fill="#DAEFFF"/>
<rect x="81.6046" y="111.193" width="4.85629" height="127.32" transform="rotate(-8.37958 81.6046 111.193)" fill="#DAEFFF"/>
<rect x="87.6525" y="95.26" width="4.85629" height="110.868" transform="rotate(32.67 87.6525 95.26)" fill="#DAEFFF"/>
<rect x="163.372" y="178.49" width="4.85629" height="70.0282" transform="rotate(51.1743 163.372 178.49)" fill="#DAEFFF"/>
<rect x="210.663" y="272.467" width="4.85629" height="94.293" transform="rotate(156.585 210.663 272.467)" fill="#DAEFFF"/>
<rect x="265.063" y="198.378" width="4.85629" height="94.293" transform="rotate(100.344 265.063 198.378)" fill="#DAEFFF"/>
<rect x="212.376" y="90.0304" width="4.85629" height="77.474" transform="rotate(135.226 212.376 90.0304)" fill="#DAEFFF"/>
<rect x="168.403" y="163.358" width="4.85629" height="131.758" transform="rotate(172.947 168.403 163.358)" fill="#DAEFFF"/>
<rect x="276.393" y="191.714" width="4.85629" height="125.845" transform="rotate(148.48 276.393 191.714)" fill="#DAEFFF"/>
<rect x="88.5562" y="105.546" width="4.85629" height="94.293" transform="rotate(-133.754 88.5562 105.546)" fill="#DAEFFF"/>
<circle cx="152.088" cy="35.451" r="25.4592" transform="rotate(34.9387 152.088 35.451)" fill="#2A94F4"/>
<circle cx="272.445" cy="195.332" r="17.0669" transform="rotate(34.9387 272.445 195.332)" fill="#5BAEFA"/>
<circle cx="104.765" cy="224.765" r="17.0669" transform="rotate(34.9387 104.765 224.765)" fill="#5BAEFA"/>
<ellipse cx="210.208" cy="277.603" rx="17.0669" ry="16.6177" transform="rotate(34.9387 210.208 277.603)" fill="#5BAEFA"/>
<ellipse cx="166.394" cy="177.7" rx="16.6177" ry="17.0669" transform="rotate(34.9387 166.394 177.7)" fill="#5BAEFA"/>
<ellipse cx="208.979" cy="91.7046" rx="13.4738" ry="13.923" transform="rotate(47.414 208.979 91.7046)" fill="#5BAEFA"/>
<circle cx="23.765" cy="200.765" r="17.0669" transform="rotate(34.9387 23.765 200.765)" fill="#5BAEFA"/>
<circle cx="82.1263" cy="104.608" r="17.0669" transform="rotate(34.9387 82.1263 104.608)" fill="#5BAEFA"/>
</svg>
