<svg xmlns="http://www.w3.org/2000/svg" data-name="300%" viewBox="0 0 100 125" x="0px" y="0px"><title>essentials</title><path d="M62,26a25.4,25.4,0,1,0-2.3,38L76.4,80.6a3,3,0,0,0,4.2-4.2L64,59.7A25.3,25.3,0,0,0,62,26ZM57.7,57.7a19.4,19.4,0,0,1-27.5,0A19,19,0,0,1,24.5,44a19.5,19.5,0,0,1,39,0A19.1,19.1,0,0,1,57.7,57.7Z"/><text x="0" y="115" fill="#000000" font-size="5px" font-weight="bold" font-family="'Helvetica Neue', Helvetica, Arial-Unicode, Arial, Sans-serif">Created by Andreas Wikström</text><text x="0" y="120" fill="#000000" font-size="5px" font-weight="bold" font-family="'Helvetica Neue', Helvetica, Arial-Unicode, Arial, Sans-serif">from the Noun Project</text></svg>