<svg id="svg" version="1.1" xmlns="http://www.w3.org/2000/svg" xmlns:xlink="http://www.w3.org/1999/xlink" width="400" height="400" viewBox="0, 0, 400,400"><g id="svgg"><path id="path0" d="M197.409 108.119 C 196.974 108.383,196.434 108.800,196.209 109.045 C 195.984 109.290,192.560 111.977,188.600 115.016 C 184.640 118.055,180.320 121.375,179.000 122.393 C 177.680 123.412,175.340 125.215,173.800 126.402 C 172.260 127.588,169.830 129.460,168.400 130.561 C 166.970 131.663,165.252 133.023,164.581 133.582 C 163.911 134.142,162.848 134.960,162.220 135.400 C 161.592 135.840,160.783 136.470,160.423 136.800 C 158.988 138.113,156.050 140.400,155.797 140.400 C 155.650 140.400,154.842 141.051,154.003 141.846 L 152.478 143.291 155.539 147.353 C 157.222 149.587,158.960 151.926,159.400 152.550 C 159.840 153.175,160.631 154.191,161.158 154.808 L 162.116 155.929 164.498 154.065 C 165.809 153.039,167.447 151.691,168.140 151.069 C 168.833 150.447,171.650 148.207,174.400 146.093 C 178.755 142.743,183.093 139.173,185.203 137.200 C 185.556 136.870,186.633 135.970,187.597 135.200 C 188.561 134.430,190.635 132.585,192.205 131.100 C 193.776 129.615,195.317 128.400,195.630 128.400 C 196.122 128.400,196.181 138.857,196.060 204.518 C 195.938 271.252,195.994 280.697,196.511 281.126 C 196.946 281.487,199.356 281.588,205.651 281.508 L 214.200 281.400 214.200 194.600 L 214.200 107.800 206.200 107.719 C 200.544 107.662,197.968 107.779,197.409 108.119 " stroke="none" fill="#fbfbfc" fill-rule="evenodd"></path><path id="path1" d="M188.139 6.587 C 187.504 7.033,185.810 7.194,181.150 7.254 C 174.482 7.340,174.000 7.406,174.000 8.243 C 174.000 8.687,173.065 8.800,169.400 8.800 C 165.578 8.800,164.800 8.901,164.800 9.400 C 164.800 9.882,164.188 10.000,161.689 10.000 C 159.166 10.000,158.459 10.139,157.949 10.734 C 157.458 11.308,156.827 11.450,155.060 11.386 C 153.109 11.315,152.800 11.404,152.800 12.034 C 152.800 12.656,152.404 12.781,150.100 12.882 C 148.202 12.965,147.430 13.148,147.500 13.500 C 147.569 13.847,146.987 14.000,145.600 14.000 C 144.089 14.000,143.600 14.147,143.600 14.600 C 143.600 15.229,143.523 15.252,141.072 15.343 C 140.076 15.380,139.407 15.644,139.152 16.100 C 138.873 16.598,138.262 16.800,137.029 16.800 C 135.978 16.800,135.102 17.036,134.800 17.400 C 134.514 17.745,133.642 18.000,132.751 18.000 C 131.639 18.000,131.200 18.170,131.200 18.600 C 131.200 19.046,130.729 19.200,129.363 19.200 C 127.877 19.200,127.486 19.350,127.321 19.980 C 127.162 20.587,126.706 20.786,125.259 20.880 C 124.033 20.959,123.434 21.170,123.500 21.500 C 123.565 21.824,123.107 22.000,122.200 22.000 C 121.270 22.000,120.800 22.187,120.800 22.557 C 120.800 23.216,120.144 23.509,118.900 23.407 C 118.267 23.356,118.000 23.551,118.000 24.067 C 118.000 24.616,117.696 24.800,116.787 24.800 C 116.079 24.800,115.479 25.049,115.345 25.400 C 115.213 25.742,114.617 26.000,113.957 26.000 C 113.195 26.000,112.800 26.205,112.800 26.600 C 112.800 27.119,111.545 27.444,110.300 27.247 C 110.135 27.221,110.000 27.560,110.000 28.000 C 110.000 28.624,109.733 28.800,108.787 28.800 C 108.079 28.800,107.479 29.049,107.345 29.400 C 107.216 29.734,106.622 30.000,106.004 30.000 C 105.252 30.000,104.830 30.244,104.696 30.754 C 104.546 31.329,104.244 31.459,103.425 31.303 C 102.574 31.140,102.306 31.273,102.129 31.949 C 101.980 32.521,101.590 32.800,100.941 32.800 C 100.410 32.800,99.871 33.070,99.745 33.400 C 99.618 33.730,99.174 34.000,98.757 34.000 C 98.341 34.000,98.000 34.270,98.000 34.600 C 98.000 34.930,97.640 35.223,97.200 35.250 C 95.630 35.348,95.401 35.443,95.511 35.953 C 95.573 36.237,95.258 36.564,94.811 36.681 C 94.365 36.798,94.000 37.142,94.000 37.447 C 94.000 37.790,93.561 38.000,92.843 38.000 C 92.183 38.000,91.587 38.258,91.455 38.600 C 91.329 38.930,90.949 39.200,90.613 39.200 C 90.267 39.200,90.000 39.548,90.000 40.000 C 90.000 40.624,89.733 40.800,88.787 40.800 C 88.079 40.800,87.479 41.049,87.345 41.400 C 87.218 41.730,86.864 42.000,86.557 42.000 C 86.251 42.000,85.992 42.225,85.983 42.500 C 85.963 43.081,83.414 44.800,82.572 44.800 C 82.258 44.800,82.000 45.070,82.000 45.400 C 82.000 45.730,81.730 46.000,81.400 46.000 C 81.070 46.000,80.800 46.249,80.800 46.553 C 80.800 46.858,80.440 47.201,80.000 47.316 C 79.560 47.431,79.200 47.812,79.200 48.163 C 79.200 48.604,78.831 48.800,78.000 48.800 C 77.200 48.800,76.800 49.000,76.800 49.400 C 76.800 49.730,76.551 50.000,76.247 50.000 C 75.942 50.000,75.593 50.383,75.471 50.852 C 75.314 51.449,75.048 51.627,74.579 51.447 C 74.082 51.256,73.974 51.355,74.157 51.832 C 74.322 52.263,74.139 52.543,73.602 52.684 C 73.161 52.799,72.800 53.142,72.800 53.447 C 72.800 53.751,72.440 54.000,72.000 54.000 C 71.459 54.000,71.200 54.267,71.200 54.824 C 71.200 55.305,71.023 55.538,70.773 55.383 C 70.538 55.238,70.247 55.497,70.126 55.960 C 69.967 56.568,69.589 56.800,68.753 56.800 C 68.099 56.800,67.599 57.016,67.597 57.300 C 67.596 57.575,66.966 58.228,66.197 58.752 C 65.429 59.275,64.800 59.929,64.800 60.205 C 64.800 60.481,64.422 60.806,63.960 60.926 C 63.497 61.047,63.238 61.338,63.383 61.573 C 63.538 61.823,63.305 62.000,62.824 62.000 C 62.259 62.000,62.000 62.259,62.000 62.824 C 62.000 63.305,61.823 63.538,61.573 63.383 C 61.338 63.238,61.052 63.481,60.936 63.923 C 60.821 64.365,60.346 64.826,59.880 64.947 C 59.415 65.069,59.143 65.276,59.275 65.408 C 59.562 65.695,57.532 67.828,57.100 67.694 C 56.935 67.642,56.800 68.119,56.800 68.753 C 56.800 69.589,56.568 69.967,55.960 70.126 C 55.497 70.247,55.238 70.538,55.383 70.773 C 55.538 71.023,55.305 71.200,54.824 71.200 C 54.267 71.200,54.000 71.459,54.000 72.000 C 54.000 72.444,53.733 72.800,53.400 72.800 C 53.070 72.800,52.800 73.070,52.800 73.400 C 52.800 73.730,52.446 74.000,52.013 74.000 C 51.464 74.000,51.298 74.189,51.465 74.624 C 51.624 75.041,51.421 75.322,50.852 75.471 C 50.383 75.593,50.000 75.942,50.000 76.247 C 50.000 76.551,49.730 76.800,49.400 76.800 C 49.005 76.800,48.800 77.195,48.800 77.953 C 48.800 78.770,48.567 79.168,48.000 79.316 C 47.560 79.431,47.200 79.812,47.200 80.163 C 47.200 80.513,46.930 80.800,46.600 80.800 C 46.270 80.800,46.000 81.070,46.000 81.400 C 46.000 81.730,45.730 82.000,45.400 82.000 C 45.067 82.000,44.800 82.356,44.800 82.800 C 44.800 83.240,44.611 83.600,44.379 83.600 C 44.148 83.600,43.770 84.140,43.540 84.800 C 43.310 85.460,42.890 86.000,42.608 86.000 C 42.325 86.000,41.994 86.378,41.874 86.840 C 41.753 87.303,41.462 87.562,41.227 87.417 C 40.955 87.249,40.800 87.669,40.800 88.576 C 40.800 89.733,40.650 90.000,40.000 90.000 C 39.467 90.000,39.200 90.267,39.200 90.800 C 39.200 91.244,38.933 91.600,38.600 91.600 C 38.200 91.600,38.000 92.000,38.000 92.800 C 38.000 93.600,37.800 94.000,37.400 94.000 C 37.062 94.000,36.800 94.358,36.800 94.818 C 36.800 95.371,36.577 95.597,36.109 95.518 C 35.724 95.452,35.398 95.665,35.370 96.000 C 35.344 96.330,35.294 96.915,35.261 97.300 C 35.227 97.685,34.930 98.000,34.600 98.000 C 34.267 98.000,34.000 98.356,34.000 98.800 C 34.000 99.244,33.733 99.600,33.400 99.600 C 33.005 99.600,32.800 99.995,32.800 100.753 C 32.800 101.570,32.567 101.968,32.000 102.116 C 31.417 102.268,31.200 102.662,31.200 103.563 C 31.200 104.396,31.004 104.800,30.600 104.800 C 30.205 104.800,30.000 105.195,30.000 105.957 C 30.000 106.617,29.742 107.213,29.400 107.345 C 29.049 107.479,28.800 108.079,28.800 108.787 C 28.800 109.733,28.624 110.000,28.000 110.000 C 27.560 110.000,27.221 110.135,27.247 110.300 C 27.444 111.545,27.119 112.800,26.600 112.800 C 26.205 112.800,26.000 113.195,26.000 113.957 C 26.000 114.617,25.742 115.213,25.400 115.345 C 25.049 115.479,24.800 116.079,24.800 116.787 C 24.800 117.710,24.619 118.000,24.044 118.000 C 23.629 118.000,23.297 118.225,23.307 118.500 C 23.365 120.053,23.136 120.800,22.600 120.800 C 22.205 120.800,22.000 121.195,22.000 121.957 C 22.000 122.617,21.742 123.213,21.400 123.345 C 20.995 123.500,20.800 124.135,20.800 125.299 C 20.800 126.527,20.570 127.219,20.000 127.707 C 19.482 128.151,19.200 128.887,19.200 129.796 C 19.200 130.777,19.019 131.200,18.600 131.200 C 18.185 131.200,18.000 131.617,18.000 132.557 C 18.000 133.395,17.770 134.003,17.400 134.145 C 16.975 134.308,16.800 134.970,16.800 136.411 C 16.800 137.595,16.641 138.349,16.420 138.212 C 15.806 137.833,15.200 139.405,15.200 141.374 C 15.200 142.730,15.046 143.200,14.600 143.200 C 14.147 143.200,14.000 143.689,14.000 145.200 C 14.000 146.711,13.853 147.200,13.400 147.200 C 12.924 147.200,12.800 147.778,12.800 150.000 C 12.800 152.533,12.724 152.800,12.000 152.800 C 11.309 152.800,11.200 153.067,11.200 154.757 C 11.200 156.032,11.012 156.787,10.659 156.922 C 10.279 157.068,10.094 158.060,10.036 160.262 C 9.976 162.507,9.789 163.486,9.376 163.717 C 8.923 163.971,8.800 165.094,8.800 168.973 C 8.800 173.375,8.723 173.927,8.085 174.094 C 7.349 174.286,7.345 174.341,7.214 186.300 C 7.205 187.183,7.007 187.600,6.600 187.600 C 5.704 187.600,5.700 210.594,6.596 211.872 C 7.048 212.518,7.206 214.105,7.253 218.462 C 7.323 224.969,7.458 226.000,8.243 226.000 C 8.687 226.000,8.800 226.937,8.800 230.600 C 8.800 234.422,8.901 235.200,9.400 235.200 C 9.887 235.200,10.000 235.847,10.000 238.624 C 10.000 240.635,10.154 241.952,10.372 241.817 C 10.954 241.458,11.145 242.062,11.247 244.579 C 11.323 246.453,11.485 246.949,12.071 247.103 C 12.651 247.254,12.800 247.693,12.800 249.247 C 12.800 250.716,12.949 251.200,13.400 251.200 C 13.871 251.200,14.000 251.753,14.000 253.780 C 14.000 255.598,14.169 256.455,14.571 256.680 C 14.885 256.856,15.216 257.809,15.308 258.800 C 15.426 260.069,15.671 260.638,16.138 260.729 C 16.647 260.829,16.800 261.314,16.800 262.829 C 16.800 264.314,16.948 264.800,17.400 264.800 C 17.843 264.800,18.000 265.264,18.000 266.580 C 18.000 267.796,18.203 268.474,18.640 268.718 C 19.047 268.946,19.280 269.616,19.280 270.560 C 19.280 271.584,19.515 272.190,20.040 272.518 C 20.488 272.798,20.800 273.445,20.800 274.096 C 20.800 274.811,21.012 275.200,21.400 275.200 C 21.810 275.200,22.016 275.644,22.050 276.600 C 22.120 278.566,22.125 278.582,22.864 279.322 C 23.256 279.713,23.440 280.327,23.312 280.817 C 23.151 281.430,23.318 281.706,23.947 281.870 C 24.606 282.042,24.800 282.402,24.800 283.447 C 24.800 284.383,24.985 284.800,25.400 284.800 C 25.800 284.800,26.000 285.200,26.000 286.000 C 26.000 286.800,26.200 287.200,26.600 287.200 C 27.163 287.200,27.389 287.903,27.223 289.131 C 27.183 289.423,27.522 289.759,27.975 289.878 C 28.508 290.017,28.800 290.420,28.800 291.018 C 28.800 291.527,29.070 292.213,29.400 292.543 C 29.730 292.873,30.000 293.427,30.000 293.775 C 30.000 294.123,30.351 294.708,30.780 295.075 C 31.208 295.442,31.460 295.903,31.339 296.098 C 31.218 296.294,31.498 296.553,31.960 296.674 C 32.568 296.833,32.800 297.211,32.800 298.047 C 32.800 298.783,33.008 299.200,33.375 299.200 C 33.731 299.200,33.997 299.695,34.075 300.500 C 34.144 301.215,34.359 301.710,34.554 301.600 C 34.749 301.490,35.058 301.805,35.241 302.300 C 35.424 302.795,35.850 303.200,36.187 303.200 C 36.621 303.200,36.800 303.609,36.800 304.600 C 36.800 305.578,36.981 306.000,37.400 306.000 C 37.730 306.000,38.000 306.270,38.000 306.600 C 38.000 306.930,38.270 307.200,38.600 307.200 C 39.151 307.200,39.245 307.447,39.362 309.195 C 39.384 309.522,39.716 309.850,40.101 309.924 C 40.485 309.998,40.800 310.315,40.800 310.629 C 40.800 310.943,41.070 311.200,41.400 311.200 C 41.801 311.200,42.000 311.601,42.000 312.413 C 42.000 313.121,42.249 313.721,42.600 313.855 C 42.930 313.982,43.200 314.336,43.200 314.643 C 43.200 314.949,43.560 315.200,44.000 315.200 C 44.533 315.200,44.800 315.467,44.800 316.000 C 44.800 316.444,45.067 316.800,45.400 316.800 C 45.775 316.800,46.000 317.179,46.000 317.813 C 46.000 318.369,46.270 318.929,46.600 319.055 C 46.930 319.182,47.200 319.553,47.200 319.880 C 47.200 320.207,47.560 320.569,48.000 320.684 C 48.440 320.799,48.800 321.142,48.800 321.447 C 48.800 321.751,49.070 322.000,49.400 322.000 C 49.730 322.000,50.000 322.270,50.000 322.600 C 50.000 322.930,50.270 323.200,50.600 323.200 C 50.930 323.200,51.200 323.487,51.200 323.837 C 51.200 324.188,51.560 324.569,52.000 324.684 C 52.567 324.832,52.800 325.230,52.800 326.047 C 52.800 326.805,53.005 327.200,53.400 327.200 C 53.730 327.200,54.000 327.487,54.000 327.837 C 54.000 328.188,54.360 328.569,54.800 328.684 C 55.240 328.799,55.600 329.142,55.600 329.447 C 55.600 329.751,55.870 330.000,56.200 330.000 C 56.530 330.000,56.800 330.270,56.800 330.600 C 56.800 330.930,57.070 331.200,57.400 331.200 C 57.730 331.200,58.000 331.539,58.000 331.953 C 58.000 332.382,58.362 332.801,58.840 332.926 C 59.303 333.047,59.562 333.338,59.417 333.573 C 59.262 333.823,59.495 334.000,59.976 334.000 C 60.442 334.000,60.800 334.261,60.800 334.600 C 60.800 334.930,61.070 335.200,61.400 335.200 C 61.730 335.200,62.000 335.539,62.000 335.953 C 62.000 336.382,62.362 336.801,62.840 336.926 C 63.303 337.047,63.562 337.338,63.417 337.573 C 63.262 337.823,63.495 338.000,63.976 338.000 C 64.442 338.000,64.800 338.261,64.800 338.600 C 64.800 338.930,65.070 339.200,65.400 339.200 C 65.739 339.200,66.000 339.558,66.000 340.024 C 66.000 340.505,66.177 340.738,66.427 340.583 C 66.662 340.438,66.953 340.697,67.074 341.160 C 67.199 341.638,67.618 342.000,68.047 342.000 C 68.461 342.000,68.800 342.270,68.800 342.600 C 68.800 342.930,69.070 343.200,69.400 343.200 C 69.730 343.200,70.003 343.425,70.007 343.700 C 70.015 344.288,71.732 346.000,72.314 346.000 C 72.534 346.000,72.818 346.270,72.945 346.600 C 73.071 346.930,73.532 347.200,73.969 347.200 C 74.779 347.200,76.800 348.926,76.800 349.618 C 76.800 349.828,77.070 350.000,77.400 350.000 C 77.730 350.000,78.000 350.270,78.000 350.600 C 78.000 350.949,78.363 351.200,78.867 351.200 C 79.343 351.200,79.615 351.318,79.470 351.463 C 79.015 351.918,80.056 352.800,81.049 352.800 C 81.592 352.800,82.000 353.037,82.000 353.353 C 82.000 353.658,82.378 354.006,82.840 354.126 C 83.303 354.247,83.562 354.538,83.417 354.773 C 83.264 355.020,83.481 355.200,83.930 355.200 C 84.370 355.200,84.797 355.546,84.916 356.000 C 85.057 356.541,85.462 356.800,86.163 356.800 C 86.818 356.800,87.200 357.021,87.200 357.400 C 87.200 357.733,87.556 358.000,88.000 358.000 C 88.444 358.000,88.800 358.267,88.800 358.600 C 88.800 359.021,89.225 359.200,90.224 359.200 C 91.007 359.200,91.553 359.353,91.437 359.540 C 91.139 360.023,93.209 361.758,94.400 362.022 C 94.950 362.144,95.355 362.459,95.300 362.722 C 95.245 362.985,95.560 363.200,96.000 363.200 C 96.533 363.200,96.800 363.467,96.800 364.000 C 96.800 364.652,97.067 364.800,98.243 364.800 C 99.361 364.800,99.634 364.935,99.455 365.400 C 99.278 365.862,99.544 366.000,100.613 366.000 C 101.579 366.000,102.000 366.182,102.000 366.600 C 102.000 366.930,102.249 367.200,102.553 367.200 C 102.858 367.200,103.201 367.560,103.316 368.000 C 103.468 368.583,103.862 368.800,104.763 368.800 C 105.596 368.800,106.000 368.996,106.000 369.400 C 106.000 369.819,106.422 370.000,107.400 370.000 C 108.378 370.000,108.800 370.181,108.800 370.600 C 108.800 370.997,109.197 371.200,109.973 371.200 C 110.795 371.200,111.222 371.440,111.400 372.000 C 111.578 372.560,112.005 372.800,112.827 372.800 C 113.603 372.800,114.000 373.003,114.000 373.400 C 114.000 373.819,114.422 374.000,115.400 374.000 C 116.378 374.000,116.800 374.181,116.800 374.600 C 116.800 374.995,117.195 375.200,117.953 375.200 C 118.770 375.200,119.168 375.433,119.316 376.000 C 119.468 376.583,119.862 376.800,120.763 376.800 C 121.596 376.800,122.000 376.996,122.000 377.400 C 122.000 377.853,122.489 378.000,124.000 378.000 C 125.511 378.000,126.000 378.147,126.000 378.600 C 126.000 379.019,126.422 379.200,127.400 379.200 C 128.378 379.200,128.800 379.381,128.800 379.800 C 128.800 380.130,129.070 380.423,129.400 380.450 C 129.730 380.478,130.180 380.545,130.400 380.600 C 130.620 380.655,131.250 380.723,131.800 380.750 C 132.400 380.780,132.800 381.040,132.800 381.400 C 132.800 381.853,133.289 382.000,134.800 382.000 C 136.311 382.000,136.800 382.147,136.800 382.600 C 136.800 383.053,137.289 383.200,138.800 383.200 C 140.243 383.200,140.800 383.355,140.800 383.757 C 140.800 384.512,141.692 384.800,144.033 384.800 C 145.515 384.800,146.000 384.948,146.000 385.400 C 146.000 385.853,146.489 386.000,148.000 386.000 C 149.511 386.000,150.000 386.147,150.000 386.600 C 150.000 387.077,150.580 387.200,152.818 387.200 C 155.279 387.200,155.620 387.288,155.518 387.900 C 155.417 388.496,155.815 388.630,158.200 388.800 C 160.146 388.939,160.969 389.153,160.900 389.500 C 160.825 389.877,161.933 390.000,165.400 390.000 C 169.222 390.000,170.000 390.101,170.000 390.600 C 170.000 391.104,170.867 391.200,175.400 391.200 C 179.715 391.200,180.800 391.310,180.800 391.750 C 180.800 392.053,181.341 392.408,182.001 392.540 C 184.200 392.980,217.200 392.819,217.200 392.368 C 217.200 392.140,217.411 392.083,217.668 392.242 C 217.983 392.436,218.052 392.313,217.881 391.866 C 217.649 391.263,218.193 391.200,223.625 391.200 C 228.589 391.200,229.665 391.096,229.855 390.600 C 230.039 390.123,230.894 390.000,234.043 390.000 C 237.294 390.000,238.000 389.893,238.000 389.400 C 238.000 388.930,238.549 388.800,240.538 388.800 C 242.568 388.800,243.221 388.640,243.800 388.000 C 244.355 387.386,245.032 387.200,246.705 387.200 C 248.479 387.200,248.843 387.088,248.655 386.600 C 248.465 386.105,248.875 386.000,250.993 386.000 C 252.858 386.000,253.652 385.836,253.896 385.400 C 254.100 385.036,254.890 384.775,255.909 384.735 C 257.150 384.686,257.648 384.478,257.821 383.935 C 258.005 383.353,258.464 383.200,260.027 383.200 C 261.514 383.200,262.000 383.052,262.000 382.600 C 262.000 382.073,264.200 381.697,265.730 381.963 C 265.911 381.994,265.953 381.848,265.823 381.638 C 265.477 381.077,266.120 380.805,267.958 380.733 C 269.153 380.686,269.650 380.473,269.821 379.935 C 270.005 379.353,270.464 379.200,272.027 379.200 C 273.475 379.200,274.000 379.047,274.000 378.625 C 274.000 378.269,274.495 378.003,275.300 377.925 C 276.078 377.850,276.560 377.599,276.500 377.300 C 276.435 376.976,276.893 376.800,277.800 376.800 C 278.933 376.800,279.200 376.648,279.200 376.000 C 279.200 375.352,279.467 375.200,280.600 375.200 C 281.578 375.200,282.000 375.019,282.000 374.600 C 282.000 374.050,283.456 373.756,285.105 373.971 C 285.383 374.008,285.713 373.770,285.839 373.443 C 285.964 373.116,286.592 372.734,287.233 372.593 C 287.875 372.452,288.400 372.081,288.400 371.768 C 288.400 371.456,288.760 371.200,289.200 371.200 C 289.644 371.200,290.000 370.933,290.000 370.600 C 290.000 370.181,290.422 370.000,291.400 370.000 C 292.378 370.000,292.800 369.819,292.800 369.400 C 292.800 368.886,293.797 368.578,294.900 368.753 C 295.065 368.779,295.200 368.440,295.200 368.000 C 295.200 367.352,295.467 367.200,296.600 367.200 C 297.448 367.200,298.004 367.003,298.010 366.700 C 298.021 366.206,301.120 364.534,301.700 364.709 C 301.865 364.759,302.000 364.440,302.000 364.000 C 302.000 363.376,302.267 363.200,303.213 363.200 C 303.921 363.200,304.521 362.951,304.655 362.600 C 304.782 362.270,305.136 362.000,305.443 362.000 C 305.749 362.000,306.000 361.730,306.000 361.400 C 306.000 360.996,306.404 360.800,307.237 360.800 C 308.138 360.800,308.532 360.583,308.684 360.000 C 308.799 359.560,309.142 359.200,309.447 359.200 C 309.751 359.200,310.000 358.930,310.000 358.600 C 310.000 358.083,311.009 357.775,312.111 357.956 C 312.282 357.984,312.527 357.736,312.654 357.404 C 312.781 357.072,313.136 356.800,313.443 356.800 C 313.749 356.800,314.000 356.440,314.000 356.000 C 314.000 355.556,314.267 355.200,314.600 355.200 C 314.930 355.200,315.200 354.930,315.200 354.600 C 315.200 354.185,315.617 354.000,316.553 354.000 C 317.592 354.000,317.958 353.805,318.126 353.160 C 318.247 352.697,318.538 352.438,318.773 352.583 C 319.023 352.738,319.200 352.505,319.200 352.024 C 319.200 351.467,319.459 351.200,320.000 351.200 C 320.444 351.200,320.800 350.933,320.800 350.600 C 320.800 350.270,321.070 350.000,321.400 350.000 C 321.730 350.000,322.000 349.730,322.000 349.400 C 322.000 348.999,322.401 348.800,323.213 348.800 C 323.977 348.800,324.520 348.553,324.682 348.131 C 325.010 347.276,326.279 346.000,326.800 346.000 C 327.020 346.000,327.200 345.751,327.200 345.447 C 327.200 345.142,327.560 344.799,328.000 344.684 C 328.440 344.569,328.800 344.188,328.800 343.837 C 328.800 343.487,329.070 343.200,329.400 343.200 C 329.730 343.200,330.000 342.930,330.000 342.600 C 330.000 342.270,330.270 342.000,330.600 342.000 C 330.930 342.000,331.200 341.751,331.200 341.447 C 331.200 341.142,331.560 340.799,332.000 340.684 C 332.440 340.569,332.800 340.188,332.800 339.837 C 332.800 339.487,333.070 339.200,333.400 339.200 C 333.730 339.200,334.000 338.930,334.000 338.600 C 334.000 338.270,334.270 338.000,334.600 338.000 C 334.930 338.000,335.200 337.751,335.200 337.447 C 335.200 337.142,335.560 336.799,336.000 336.684 C 336.440 336.569,336.800 336.188,336.800 335.837 C 336.800 335.487,337.070 335.200,337.400 335.200 C 337.730 335.200,338.000 334.930,338.000 334.600 C 338.000 334.270,338.270 334.000,338.600 334.000 C 338.930 334.000,339.200 333.751,339.200 333.447 C 339.200 333.142,339.560 332.799,340.000 332.684 C 340.440 332.569,340.800 332.188,340.800 331.837 C 340.800 331.487,341.070 331.200,341.400 331.200 C 341.730 331.200,342.000 330.930,342.000 330.600 C 342.000 330.270,342.270 330.000,342.600 330.000 C 342.930 330.000,343.200 329.751,343.200 329.447 C 343.200 329.142,343.560 328.799,344.000 328.684 C 344.440 328.569,344.800 328.188,344.800 327.837 C 344.800 327.487,345.070 327.200,345.400 327.200 C 345.730 327.200,346.000 327.020,346.000 326.800 C 346.000 326.279,347.276 325.010,348.131 324.682 C 348.553 324.520,348.800 323.977,348.800 323.213 C 348.800 322.401,348.999 322.000,349.400 322.000 C 349.730 322.000,350.000 321.730,350.000 321.400 C 350.000 321.070,350.270 320.800,350.600 320.800 C 350.933 320.800,351.200 320.444,351.200 320.000 C 351.200 319.459,351.467 319.200,352.024 319.200 C 352.505 319.200,352.738 319.023,352.583 318.773 C 352.438 318.538,352.697 318.247,353.160 318.126 C 353.805 317.958,354.000 317.592,354.000 316.553 C 354.000 315.617,354.185 315.200,354.600 315.200 C 354.930 315.200,355.200 314.930,355.200 314.600 C 355.200 314.267,355.556 314.000,356.000 314.000 C 356.440 314.000,356.800 313.749,356.800 313.443 C 356.800 313.136,357.070 312.782,357.400 312.655 C 357.751 312.521,358.000 311.921,358.000 311.213 C 358.000 310.401,358.199 310.000,358.600 310.000 C 358.930 310.000,359.200 309.660,359.200 309.244 C 359.200 308.770,359.461 308.510,359.900 308.544 C 360.285 308.575,360.624 308.330,360.654 308.000 C 360.683 307.670,360.728 307.085,360.754 306.700 C 360.779 306.315,361.070 306.000,361.400 306.000 C 361.730 306.000,362.000 305.749,362.000 305.443 C 362.000 305.136,362.270 304.782,362.600 304.655 C 362.951 304.521,363.200 303.921,363.200 303.213 C 363.200 302.255,363.373 302.000,364.024 302.000 C 364.477 302.000,364.739 301.825,364.607 301.611 C 364.474 301.397,364.734 300.907,365.183 300.522 C 365.632 300.137,366.000 299.412,366.000 298.911 C 366.000 298.368,366.242 298.000,366.600 298.000 C 367.019 298.000,367.200 297.578,367.200 296.600 C 367.200 295.467,367.352 295.200,368.000 295.200 C 368.440 295.200,368.779 295.065,368.753 294.900 C 368.578 293.797,368.886 292.800,369.400 292.800 C 369.819 292.800,370.000 292.378,370.000 291.400 C 370.000 290.422,370.181 290.000,370.600 290.000 C 371.004 290.000,371.200 289.596,371.200 288.763 C 371.200 287.862,371.417 287.468,372.000 287.316 C 372.440 287.201,372.822 286.858,372.850 286.553 C 372.951 285.437,373.007 285.260,373.364 284.933 C 373.580 284.735,373.595 284.844,373.400 285.200 C 373.205 285.556,373.220 285.665,373.436 285.467 C 373.840 285.097,373.878 284.928,373.950 283.200 C 373.982 282.422,374.211 282.000,374.600 282.000 C 375.019 282.000,375.200 281.578,375.200 280.600 C 375.200 279.467,375.352 279.200,376.000 279.200 C 376.648 279.200,376.800 278.933,376.800 277.800 C 376.800 276.893,376.976 276.435,377.300 276.500 C 377.590 276.558,377.857 276.095,377.935 275.400 C 378.009 274.740,378.324 274.056,378.635 273.880 C 378.986 273.682,379.200 272.903,379.200 271.827 C 379.200 270.430,379.355 270.053,380.000 269.884 C 380.654 269.713,380.800 269.338,380.800 267.837 C 380.800 266.471,380.954 266.000,381.400 266.000 C 381.853 266.000,382.000 265.511,382.000 264.000 C 382.000 262.489,382.147 262.000,382.600 262.000 C 383.051 262.000,383.200 261.516,383.200 260.047 C 383.200 258.430,383.338 258.057,384.000 257.884 C 384.650 257.714,384.800 257.338,384.800 255.880 C 384.800 254.630,384.988 254.014,385.419 253.848 C 385.759 253.718,386.008 253.383,385.971 253.105 C 385.713 251.131,386.053 248.800,386.600 248.800 C 387.076 248.800,387.200 248.222,387.200 246.000 C 387.200 243.467,387.276 243.200,388.000 243.200 C 388.718 243.200,388.800 242.933,388.800 240.600 C 388.800 238.556,388.928 238.000,389.400 238.000 C 389.898 238.000,390.000 237.227,390.000 233.443 C 390.000 229.761,390.115 228.841,390.600 228.655 C 391.091 228.467,391.200 227.477,391.200 223.213 C 391.200 218.553,391.284 217.916,391.991 217.209 C 392.754 216.446,392.782 215.823,392.782 199.817 C 392.781 182.887,392.730 182.000,391.757 182.000 C 391.306 182.000,391.200 180.862,391.200 176.000 C 391.200 170.933,391.107 170.000,390.600 170.000 C 390.071 170.000,389.599 163.758,389.981 161.815 C 390.022 161.604,389.782 161.230,389.448 160.985 C 389.038 160.686,388.800 159.700,388.719 157.970 C 388.619 155.809,388.489 155.409,387.900 155.456 C 387.296 155.504,387.200 155.134,387.200 152.756 C 387.200 150.573,387.075 150.000,386.600 150.000 C 386.147 150.000,386.000 149.511,386.000 148.000 C 386.000 146.489,385.853 146.000,385.400 146.000 C 384.947 146.000,384.800 145.511,384.800 144.000 C 384.800 142.267,384.693 142.000,384.000 142.000 C 383.282 142.000,383.200 141.733,383.200 139.400 C 383.200 137.356,383.072 136.800,382.600 136.800 C 382.155 136.800,382.000 136.332,382.000 134.987 C 382.000 133.745,381.811 133.102,381.400 132.945 C 381.030 132.803,380.800 132.195,380.800 131.357 C 380.800 130.267,380.643 130.000,380.000 130.000 C 379.307 130.000,379.200 129.733,379.200 128.000 C 379.200 126.489,379.053 126.000,378.600 126.000 C 378.157 126.000,378.000 125.536,378.000 124.220 C 378.000 123.104,377.789 122.320,377.435 122.120 C 377.124 121.944,376.809 121.260,376.735 120.600 C 376.636 119.717,376.415 119.431,375.900 119.518 C 375.343 119.611,375.200 119.346,375.200 118.218 C 375.200 117.224,375.020 116.800,374.600 116.800 C 374.181 116.800,374.000 116.378,374.000 115.400 C 374.000 114.422,373.819 114.000,373.400 114.000 C 373.067 114.000,372.800 113.644,372.800 113.200 C 372.800 111.857,372.777 111.809,371.976 111.513 C 371.442 111.315,371.200 110.848,371.200 110.013 C 371.200 109.201,371.001 108.800,370.600 108.800 C 370.181 108.800,370.000 108.378,370.000 107.400 C 370.000 106.422,369.819 106.000,369.400 106.000 C 369.035 106.000,368.800 105.628,368.800 105.049 C 368.800 104.056,367.918 103.015,367.463 103.470 C 367.318 103.615,367.200 103.343,367.200 102.867 C 367.200 102.363,366.949 102.000,366.600 102.000 C 366.181 102.000,366.000 101.578,366.000 100.600 C 366.000 99.622,365.819 99.200,365.400 99.200 C 365.021 99.200,364.800 98.818,364.800 98.163 C 364.800 97.462,364.541 97.057,364.000 96.916 C 363.560 96.801,363.200 96.452,363.200 96.141 C 363.200 95.830,362.930 95.471,362.600 95.345 C 362.258 95.213,362.000 94.617,362.000 93.957 C 362.000 93.195,361.795 92.800,361.400 92.800 C 361.070 92.800,360.800 92.542,360.800 92.227 C 360.800 91.912,360.440 91.540,360.000 91.400 C 359.440 91.222,359.200 90.795,359.200 89.973 C 359.200 89.197,358.997 88.800,358.600 88.800 C 358.267 88.800,358.000 88.444,358.000 88.000 C 358.000 87.556,357.733 87.200,357.400 87.200 C 357.021 87.200,356.800 86.818,356.800 86.163 C 356.800 85.462,356.541 85.057,356.000 84.916 C 355.546 84.797,355.200 84.370,355.200 83.930 C 355.200 83.481,355.020 83.264,354.773 83.417 C 354.538 83.562,354.247 83.303,354.126 82.840 C 354.006 82.378,353.658 82.000,353.353 82.000 C 353.049 82.000,352.800 81.638,352.800 81.196 C 352.800 80.754,352.440 80.084,352.000 79.707 C 351.560 79.330,351.200 78.792,351.200 78.511 C 351.200 78.230,350.930 78.000,350.600 78.000 C 350.270 78.000,350.000 77.730,350.000 77.400 C 350.000 77.070,349.730 76.800,349.400 76.800 C 349.070 76.800,348.800 76.542,348.800 76.227 C 348.800 75.912,348.440 75.540,348.000 75.400 C 347.560 75.260,347.200 74.888,347.200 74.573 C 347.200 74.258,346.930 74.000,346.600 74.000 C 346.230 74.000,346.000 73.625,346.000 73.021 C 346.000 72.002,344.445 70.000,343.654 70.000 C 343.404 70.000,343.200 69.730,343.200 69.400 C 343.200 69.070,342.930 68.800,342.600 68.800 C 342.267 68.800,342.000 68.444,342.000 68.000 C 342.000 67.556,341.733 67.200,341.400 67.200 C 341.070 67.200,340.800 66.930,340.800 66.600 C 340.800 66.267,340.444 66.000,340.000 66.000 C 339.556 66.000,339.200 65.733,339.200 65.400 C 339.200 65.070,338.930 64.800,338.600 64.800 C 338.261 64.800,338.000 64.442,338.000 63.976 C 338.000 63.495,337.823 63.262,337.573 63.417 C 337.338 63.562,337.047 63.303,336.926 62.840 C 336.801 62.362,336.382 62.000,335.953 62.000 C 335.539 62.000,335.200 61.730,335.200 61.400 C 335.200 61.070,334.930 60.800,334.600 60.800 C 334.267 60.800,334.000 60.444,334.000 60.000 C 334.000 59.556,333.733 59.200,333.400 59.200 C 333.070 59.200,332.800 58.930,332.800 58.600 C 332.800 58.267,332.444 58.000,332.000 58.000 C 331.556 58.000,331.200 57.733,331.200 57.400 C 331.200 57.070,330.930 56.800,330.600 56.800 C 330.270 56.800,330.000 56.648,330.000 56.462 C 330.000 55.932,328.224 54.000,327.736 54.000 C 327.495 54.000,327.074 53.730,326.800 53.400 C 326.526 53.070,325.964 52.800,325.551 52.800 C 325.131 52.800,324.800 52.519,324.800 52.163 C 324.800 51.812,324.440 51.431,324.000 51.316 C 323.560 51.201,323.200 50.858,323.200 50.553 C 323.200 50.249,322.930 50.000,322.600 50.000 C 322.270 50.000,322.000 49.730,322.000 49.400 C 322.000 49.070,321.751 48.800,321.447 48.800 C 321.142 48.800,320.793 48.417,320.671 47.949 C 320.494 47.273,320.226 47.140,319.375 47.303 C 318.556 47.459,318.254 47.329,318.104 46.754 C 317.995 46.339,317.658 46.000,317.353 46.000 C 317.049 46.000,316.800 45.730,316.800 45.400 C 316.800 45.067,316.444 44.800,316.000 44.800 C 315.482 44.800,315.200 44.533,315.200 44.044 C 315.200 43.629,314.975 43.297,314.700 43.307 C 313.363 43.357,312.800 43.148,312.800 42.600 C 312.800 42.267,312.444 42.000,312.000 42.000 C 311.556 42.000,311.200 41.733,311.200 41.400 C 311.200 41.070,310.846 40.800,310.413 40.800 C 309.877 40.800,309.699 40.608,309.855 40.200 C 309.987 39.856,309.854 39.580,309.543 39.554 C 309.244 39.528,308.820 39.466,308.600 39.415 C 308.380 39.364,307.975 39.294,307.700 39.261 C 307.425 39.227,307.200 38.930,307.200 38.600 C 307.200 38.270,306.930 38.000,306.600 38.000 C 306.270 38.000,306.000 37.730,306.000 37.400 C 306.000 36.981,305.578 36.800,304.600 36.800 C 303.494 36.800,303.200 36.641,303.200 36.044 C 303.200 35.629,302.975 35.297,302.700 35.307 C 301.363 35.357,300.800 35.148,300.800 34.600 C 300.800 34.267,300.444 34.000,300.000 34.000 C 299.556 34.000,299.200 33.733,299.200 33.400 C 299.200 33.000,298.800 32.800,298.000 32.800 C 297.241 32.800,296.800 32.595,296.800 32.243 C 296.800 31.631,295.959 31.200,294.767 31.200 C 294.345 31.200,294.000 30.930,294.000 30.600 C 294.000 30.270,293.659 30.000,293.243 30.000 C 292.826 30.000,292.382 29.730,292.255 29.400 C 292.129 29.070,291.569 28.800,291.013 28.800 C 290.379 28.800,290.000 28.575,290.000 28.200 C 290.000 27.870,289.820 27.578,289.600 27.550 C 289.380 27.523,289.020 27.455,288.800 27.400 C 288.580 27.345,288.130 27.277,287.800 27.250 C 287.470 27.223,287.200 26.930,287.200 26.600 C 287.200 26.205,286.805 26.000,286.043 26.000 C 285.383 26.000,284.787 25.742,284.655 25.400 C 284.521 25.049,283.921 24.800,283.213 24.800 C 282.401 24.800,282.000 24.601,282.000 24.200 C 282.000 23.870,281.730 23.578,281.400 23.550 C 281.070 23.523,280.620 23.455,280.400 23.400 C 280.180 23.345,279.550 23.278,279.000 23.250 C 278.400 23.220,278.000 22.960,278.000 22.600 C 278.000 22.181,277.578 22.000,276.600 22.000 C 275.622 22.000,275.200 21.819,275.200 21.400 C 275.200 20.947,274.711 20.800,273.200 20.800 C 271.497 20.800,271.200 20.686,271.200 20.035 C 271.200 19.451,270.957 19.297,270.171 19.383 C 269.510 19.456,268.975 19.229,268.675 18.748 C 268.340 18.212,267.736 18.000,266.547 18.000 C 265.439 18.000,264.809 17.800,264.655 17.400 C 264.502 16.999,263.871 16.800,262.757 16.800 C 261.632 16.800,260.922 16.573,260.578 16.103 C 260.298 15.719,259.828 15.387,259.534 15.364 C 259.240 15.341,258.415 15.294,257.700 15.261 C 256.838 15.221,256.400 14.998,256.400 14.600 C 256.400 14.128,255.844 14.000,253.800 14.000 C 251.756 14.000,251.200 13.872,251.200 13.400 C 251.200 12.947,250.711 12.800,249.200 12.800 C 247.689 12.800,247.200 12.653,247.200 12.200 C 247.200 11.870,247.065 11.580,246.900 11.555 C 246.465 11.491,243.552 11.280,242.500 11.237 C 242.005 11.217,241.645 10.975,241.700 10.700 C 241.772 10.341,240.899 10.167,238.606 10.081 C 236.323 9.997,235.318 9.797,235.086 9.381 C 234.829 8.922,233.733 8.800,229.876 8.800 C 225.628 8.800,224.935 8.707,224.548 8.088 C 224.157 7.462,223.348 7.366,217.766 7.286 C 212.629 7.212,211.366 7.082,211.095 6.597 C 210.601 5.715,189.397 5.706,188.139 6.587 M214.957 107.033 C 215.326 107.994,215.235 281.725,214.866 282.307 C 214.617 282.699,212.283 282.790,204.572 282.707 L 194.600 282.600 194.499 216.228 C 194.428 169.895,194.532 148.339,194.844 144.828 C 195.089 142.063,195.370 137.489,195.468 134.664 L 195.645 129.528 192.781 132.364 C 191.206 133.924,189.755 135.200,189.558 135.200 C 189.361 135.200,188.877 135.515,188.482 135.900 C 188.087 136.285,186.859 137.360,185.753 138.289 C 184.647 139.218,183.215 140.480,182.571 141.094 C 181.927 141.708,180.545 142.824,179.500 143.573 C 178.455 144.323,177.600 145.085,177.600 145.268 C 177.600 145.451,177.375 145.606,177.100 145.613 C 176.825 145.620,175.979 146.250,175.219 147.013 C 174.460 147.776,173.599 148.400,173.307 148.400 C 173.014 148.400,172.671 148.670,172.545 149.000 C 172.418 149.330,172.104 149.600,171.846 149.600 C 171.589 149.600,171.098 149.915,170.756 150.300 C 169.951 151.207,167.152 153.630,166.022 154.400 C 165.538 154.730,164.479 155.585,163.671 156.300 C 162.862 157.015,162.086 157.600,161.947 157.600 C 161.578 157.600,159.600 154.927,159.600 154.427 C 159.600 154.192,159.414 154.000,159.187 154.000 C 158.961 154.000,158.664 153.711,158.529 153.358 C 158.393 153.005,157.679 152.060,156.943 151.258 C 156.206 150.456,155.603 149.594,155.602 149.343 C 155.601 149.091,155.330 148.782,155.000 148.655 C 154.670 148.529,154.395 148.194,154.389 147.913 C 154.383 147.631,153.847 146.879,153.197 146.242 C 152.548 145.605,151.911 144.750,151.782 144.342 C 151.652 143.934,151.366 143.600,151.146 143.600 C 150.581 143.600,152.362 141.189,153.150 140.889 C 153.820 140.633,154.344 140.254,155.519 139.175 C 157.206 137.627,159.921 135.600,160.308 135.600 C 160.542 135.600,160.793 135.438,160.867 135.240 C 161.007 134.861,166.601 130.400,166.936 130.400 C 167.044 130.400,167.748 129.815,168.503 129.100 C 169.257 128.385,170.288 127.530,170.793 127.200 C 171.298 126.870,172.271 126.150,172.956 125.600 C 173.640 125.051,174.434 124.421,174.719 124.200 C 175.005 123.980,175.545 123.524,175.919 123.186 C 176.294 122.849,177.320 122.087,178.200 121.494 C 179.080 120.900,180.610 119.692,181.600 118.808 C 182.590 117.924,183.507 117.201,183.639 117.201 C 183.864 117.200,185.060 116.285,186.400 115.088 C 188.260 113.427,190.743 111.600,191.141 111.600 C 191.394 111.600,191.600 111.463,191.600 111.295 C 191.600 110.898,195.820 107.600,196.327 107.600 C 196.540 107.600,196.818 107.330,196.945 107.000 C 197.300 106.073,214.601 106.105,214.957 107.033 " stroke="none" fill="#74c4ec" fill-rule="evenodd"></path><path id="path2" d="M197.400 107.227 C 197.180 107.440,196.280 108.164,195.400 108.835 C 194.520 109.507,193.260 110.496,192.600 111.033 C 191.033 112.309,179.630 121.209,176.128 123.888 C 174.628 125.036,171.135 127.736,168.366 129.888 C 165.597 132.040,162.748 134.250,162.035 134.800 C 157.724 138.127,156.541 139.073,155.907 139.700 C 155.518 140.085,155.050 140.400,154.867 140.400 C 154.683 140.400,153.878 141.055,153.077 141.856 L 151.621 143.312 153.213 145.356 C 154.088 146.480,155.029 147.715,155.302 148.099 C 157.274 150.869,161.840 156.779,162.016 156.788 C 162.135 156.795,162.945 156.186,163.816 155.437 C 166.367 153.241,169.051 151.075,174.800 146.573 C 177.770 144.248,180.650 141.957,181.200 141.483 C 181.750 141.009,183.459 139.536,184.997 138.210 C 186.536 136.885,188.111 135.485,188.497 135.100 C 188.884 134.715,189.335 134.395,189.500 134.389 C 189.665 134.383,191.059 133.221,192.599 131.808 C 194.283 130.261,195.543 129.383,195.762 129.602 C 195.981 129.821,195.940 135.670,195.658 144.283 C 195.364 153.295,195.192 181.535,195.195 220.500 L 195.200 282.400 204.520 282.400 C 211.236 282.400,213.974 282.266,214.320 281.920 C 214.829 281.411,215.064 108.753,214.557 107.433 C 214.274 106.694,198.151 106.501,197.400 107.227 M214.200 194.600 L 214.200 281.400 205.651 281.508 C 199.356 281.588,196.946 281.487,196.511 281.126 C 195.994 280.697,195.938 271.252,196.060 204.518 C 196.181 138.857,196.122 128.400,195.630 128.400 C 195.317 128.400,193.776 129.615,192.205 131.100 C 190.635 132.585,188.561 134.430,187.597 135.200 C 186.633 135.970,185.556 136.870,185.203 137.200 C 183.093 139.173,178.755 142.743,174.400 146.093 C 171.650 148.207,168.833 150.447,168.140 151.069 C 167.447 151.691,165.809 153.039,164.498 154.065 L 162.116 155.929 161.158 154.808 C 160.631 154.191,159.840 153.175,159.400 152.550 C 158.960 151.926,157.222 149.587,155.539 147.353 L 152.478 143.291 154.003 141.846 C 154.842 141.051,155.650 140.400,155.797 140.400 C 156.050 140.400,158.988 138.113,160.423 136.800 C 160.783 136.470,161.592 135.840,162.220 135.400 C 162.848 134.960,163.911 134.142,164.581 133.582 C 165.252 133.023,166.970 131.663,168.400 130.561 C 169.830 129.460,172.260 127.588,173.800 126.402 C 175.340 125.215,177.680 123.412,179.000 122.393 C 180.320 121.375,184.640 118.055,188.600 115.016 C 192.560 111.977,195.984 109.290,196.209 109.045 C 197.396 107.755,198.272 107.638,206.200 107.719 L 214.200 107.800 214.200 194.600 " stroke="none" fill="#bce4f4" fill-rule="evenodd"></path><path id="path3" d="M214.800 194.600 L 214.600 282.200 204.685 282.307 L 194.770 282.414 194.960 213.907 C 195.064 176.228,195.249 144.050,195.369 142.400 C 195.556 139.841,195.516 139.547,195.094 140.400 C 194.708 141.182,194.600 156.772,194.600 212.000 L 194.600 282.600 204.691 282.707 L 214.781 282.814 215.000 281.907 C 215.120 281.408,215.169 241.850,215.109 194.000 L 214.999 107.000 214.800 194.600 M193.800 109.251 C 192.700 110.143,191.740 111.036,191.667 111.236 C 191.593 111.436,191.342 111.600,191.108 111.600 C 190.684 111.600,187.610 113.934,186.322 115.234 C 185.950 115.611,185.410 116.002,185.122 116.104 C 184.835 116.207,184.704 116.404,184.831 116.542 C 184.957 116.681,185.767 116.156,186.631 115.377 C 187.494 114.597,188.695 113.660,189.300 113.293 C 189.905 112.927,190.400 112.486,190.400 112.314 C 190.400 112.141,190.661 112.000,190.980 112.000 C 191.299 112.000,191.704 111.765,191.880 111.478 C 192.056 111.191,192.920 110.426,193.800 109.778 C 195.776 108.324,196.559 107.596,196.129 107.614 C 195.948 107.622,194.900 108.358,193.800 109.251 M182.695 117.864 C 181.873 118.449,181.200 119.088,181.200 119.283 C 181.200 119.478,181.920 119.059,182.800 118.352 C 184.233 117.200,184.619 116.800,184.295 116.800 C 184.238 116.800,183.518 117.279,182.695 117.864 M180.214 119.978 C 180.085 120.186,179.085 120.936,177.990 121.645 C 176.896 122.354,176.000 123.095,176.000 123.291 C 176.000 123.487,177.080 122.816,178.400 121.800 C 179.720 120.784,180.800 119.874,180.800 119.777 C 180.800 119.468,180.456 119.586,180.214 119.978 M173.744 125.047 L 172.200 126.494 173.900 125.213 C 175.445 124.049,175.875 123.600,175.444 123.600 C 175.358 123.600,174.593 124.251,173.744 125.047 M168.754 128.845 L 167.400 130.090 168.688 129.226 C 169.396 128.751,170.082 128.191,170.212 127.981 C 170.646 127.278,170.119 127.590,168.754 128.845 M163.800 132.661 C 162.260 133.883,160.941 135.089,160.870 135.342 C 160.784 135.643,160.852 135.659,161.070 135.390 C 161.607 134.723,165.678 131.600,166.009 131.600 C 166.177 131.600,166.418 131.330,166.545 131.000 C 166.846 130.214,167.006 130.117,163.800 132.661 M191.200 133.400 C 190.085 134.390,189.314 135.197,189.487 135.194 C 189.881 135.186,193.897 131.600,193.511 131.600 C 193.354 131.600,192.315 132.410,191.200 133.400 M188.342 135.475 C 188.264 135.654,187.601 136.295,186.869 136.900 C 186.137 137.505,185.687 137.993,185.869 137.984 C 186.422 137.957,188.966 135.633,188.717 135.383 C 188.588 135.255,188.420 135.296,188.342 135.475 M157.947 137.139 C 156.928 137.969,155.806 138.937,155.454 139.289 C 155.102 139.641,154.586 140.010,154.307 140.110 C 154.028 140.209,153.907 140.407,154.037 140.549 C 154.168 140.692,154.749 140.368,155.330 139.830 C 155.910 139.292,157.063 138.346,157.892 137.726 C 159.803 136.299,160.547 135.596,160.129 135.614 C 159.948 135.622,158.966 136.308,157.947 137.139 M182.120 140.919 C 181.944 141.205,180.664 142.304,179.276 143.362 C 177.887 144.419,176.854 145.387,176.980 145.513 C 177.105 145.639,177.431 145.464,177.704 145.125 C 177.977 144.786,179.235 143.743,180.500 142.807 C 181.765 141.870,182.800 140.946,182.800 140.752 C 182.800 140.243,182.489 140.320,182.120 140.919 M151.850 142.088 C 151.296 142.796,150.923 143.456,151.021 143.554 C 151.120 143.653,151.245 143.657,151.300 143.565 C 151.355 143.472,151.929 142.812,152.575 142.098 C 153.221 141.384,153.549 140.800,153.304 140.800 C 153.059 140.800,152.404 141.380,151.850 142.088 M151.953 144.700 C 152.395 145.512,153.936 147.200,154.234 147.200 C 154.346 147.200,153.859 146.480,153.152 145.600 C 151.782 143.896,151.330 143.556,151.953 144.700 M174.600 147.009 C 173.720 147.768,173.180 148.390,173.400 148.392 C 173.795 148.396,176.400 146.128,176.400 145.780 C 176.400 145.482,176.264 145.575,174.600 147.009 M169.578 151.072 L 168.200 152.545 169.473 151.572 C 170.533 150.762,171.472 149.600,171.066 149.600 C 171.006 149.600,170.337 150.263,169.578 151.072 M166.184 153.744 C 165.295 154.435,164.037 155.495,163.388 156.100 C 161.932 157.457,162.013 157.466,160.800 155.826 C 160.250 155.082,159.737 154.535,159.660 154.610 C 159.474 154.792,161.623 157.600,161.947 157.600 C 162.086 157.600,162.862 157.015,163.671 156.300 C 164.479 155.585,165.532 154.730,166.009 154.400 C 167.987 153.032,168.190 152.857,167.999 152.677 C 167.890 152.574,167.073 153.054,166.184 153.744 " stroke="none" fill="#94d4f4" fill-rule="evenodd"></path><path id="path4" d="M201.900 106.698 C 204.155 106.770,207.845 106.770,210.100 106.698 C 212.355 106.627,210.510 106.569,206.000 106.569 C 201.490 106.569,199.645 106.627,201.900 106.698 M187.643 114.423 C 187.117 114.861,186.771 115.305,186.875 115.408 C 186.979 115.512,187.486 115.148,188.001 114.598 C 189.124 113.404,188.962 113.325,187.643 114.423 M181.600 119.246 C 178.717 121.570,177.055 123.076,178.400 122.147 C 179.634 121.295,184.800 117.104,184.800 116.955 C 184.800 116.682,184.649 116.789,181.600 119.246 M174.200 125.060 C 172.995 126.136,172.905 126.285,173.836 125.663 C 174.941 124.924,176.332 123.576,175.949 123.615 C 175.867 123.623,175.080 124.273,174.200 125.060 M170.600 127.844 L 169.000 129.276 170.700 128.004 C 172.163 126.910,172.691 126.383,172.300 126.406 C 172.245 126.409,171.480 127.056,170.600 127.844 M167.400 130.250 C 166.681 130.862,166.534 131.105,167.033 130.857 C 167.766 130.493,169.141 129.176,168.749 129.214 C 168.667 129.222,168.060 129.688,167.400 130.250 M191.170 133.038 C 190.636 133.609,189.705 134.334,189.100 134.648 C 188.495 134.963,188.000 135.403,188.000 135.626 C 188.000 136.102,188.281 135.903,190.800 133.638 C 191.790 132.748,192.496 132.016,192.370 132.010 C 192.243 132.005,191.703 132.467,191.170 133.038 M195.748 136.000 C 195.748 138.310,195.814 139.255,195.895 138.100 C 195.976 136.945,195.976 135.055,195.895 133.900 C 195.814 132.745,195.748 133.690,195.748 136.000 M184.087 139.100 C 183.130 140.035,183.114 140.081,183.981 139.406 C 185.688 138.076,185.769 138.000,185.486 138.000 C 185.336 138.000,184.706 138.495,184.087 139.100 M195.061 149.057 C 194.918 151.404,194.840 182.411,194.889 217.962 L 194.978 282.600 195.189 213.800 C 195.305 175.960,195.383 144.953,195.361 144.894 C 195.340 144.836,195.205 146.709,195.061 149.057 M174.000 147.046 C 173.010 147.819,171.930 148.738,171.600 149.088 C 171.270 149.438,172.125 148.876,173.500 147.839 C 174.875 146.802,176.000 145.874,176.000 145.777 C 176.000 145.499,175.906 145.559,174.000 147.046 M157.200 151.200 C 157.897 152.080,158.557 152.800,158.667 152.800 C 158.777 152.800,158.297 152.080,157.600 151.200 C 156.903 150.320,156.243 149.600,156.133 149.600 C 156.023 149.600,156.503 150.320,157.200 151.200 M169.178 151.100 L 167.800 152.600 169.300 151.222 C 170.125 150.463,170.800 149.788,170.800 149.722 C 170.800 149.416,170.462 149.704,169.178 151.100 " stroke="none" fill="#9cd4f4" fill-rule="evenodd"></path></g></svg>