<svg id="svg" version="1.1" xmlns="http://www.w3.org/2000/svg" xmlns:xlink="http://www.w3.org/1999/xlink" width="400" height="400" viewBox="0, 0, 400,400"><g id="svgg"><path id="path0" d="M183.800 106.425 C 181.160 106.827,178.693 107.343,178.317 107.570 C 177.942 107.798,176.862 108.103,175.917 108.248 C 174.973 108.393,173.714 108.756,173.120 109.056 C 172.526 109.355,171.640 109.600,171.151 109.600 C 170.663 109.600,169.169 110.130,167.832 110.778 C 166.494 111.426,164.950 112.145,164.400 112.377 C 163.850 112.609,163.130 112.963,162.800 113.166 C 162.470 113.368,160.760 114.214,159.000 115.047 C 157.240 115.880,155.170 117.040,154.400 117.624 C 152.739 118.885,148.954 121.546,146.300 123.318 C 143.979 124.868,143.978 124.677,146.322 127.711 C 147.380 129.080,149.160 131.385,150.279 132.832 C 151.397 134.280,152.747 135.933,153.278 136.506 L 154.242 137.547 156.621 135.749 C 158.678 134.194,160.245 133.125,165.600 129.623 C 166.150 129.263,167.860 128.367,169.400 127.631 C 170.940 126.895,172.503 126.143,172.873 125.959 C 174.064 125.370,178.152 124.075,179.763 123.777 C 180.622 123.618,181.792 123.244,182.363 122.946 C 182.933 122.648,184.120 122.404,185.000 122.402 C 185.880 122.400,188.130 122.129,190.000 121.800 C 194.232 121.055,198.611 121.055,202.000 121.800 C 203.430 122.115,205.202 122.378,205.938 122.386 C 206.674 122.394,207.754 122.665,208.338 122.988 C 208.922 123.312,210.140 123.762,211.045 123.989 C 211.950 124.216,213.390 124.882,214.245 125.469 C 215.100 126.056,216.610 127.073,217.600 127.727 C 219.336 128.875,220.685 130.154,222.800 132.658 C 224.735 134.948,225.434 136.228,226.373 139.200 C 226.894 140.850,227.450 142.380,227.608 142.600 C 228.219 143.450,228.469 146.419,228.449 152.588 C 228.428 158.800,228.305 159.873,227.024 165.000 C 226.694 166.320,226.193 168.330,225.912 169.467 C 225.630 170.604,225.267 171.667,225.105 171.829 C 224.800 172.134,221.600 178.706,221.600 179.027 C 221.600 179.127,221.004 180.061,220.275 181.104 C 219.547 182.147,218.819 183.270,218.660 183.600 C 217.328 186.346,212.589 192.594,209.500 195.676 C 208.895 196.279,208.400 196.857,208.400 196.960 C 208.400 197.063,207.455 198.122,206.300 199.313 C 205.145 200.504,201.860 203.970,199.000 207.016 C 196.140 210.062,185.340 221.046,175.000 231.426 C 164.660 241.807,152.911 253.666,148.892 257.780 L 141.583 265.261 141.692 273.130 L 141.800 281.000 198.700 281.101 L 255.600 281.203 255.600 272.801 L 255.600 264.400 211.426 264.400 C 182.504 264.400,166.883 264.260,166.184 263.994 C 164.729 263.441,165.358 262.484,170.125 258.000 C 172.113 256.130,177.372 251.000,181.811 246.600 C 189.276 239.201,194.711 233.921,201.217 227.749 C 202.637 226.401,207.400 221.559,211.800 216.990 C 216.200 212.421,220.610 207.848,221.600 206.827 C 223.821 204.538,226.939 200.668,231.165 194.960 C 232.940 192.562,234.754 190.166,235.196 189.637 C 235.638 189.107,236.000 188.432,236.000 188.137 C 236.000 187.841,236.180 187.600,236.400 187.600 C 236.620 187.600,236.800 187.352,236.800 187.049 C 236.800 186.746,237.089 186.258,237.442 185.965 C 237.795 185.673,238.244 185.065,238.441 184.616 C 238.637 184.167,238.968 183.530,239.176 183.200 C 239.526 182.646,241.494 178.408,243.170 174.600 C 243.558 173.720,244.195 171.920,244.586 170.600 C 244.977 169.280,245.545 167.609,245.849 166.886 C 246.152 166.164,246.401 165.174,246.402 164.686 C 246.404 164.199,246.695 163.260,247.049 162.600 C 248.029 160.774,248.047 142.784,247.070 140.920 C 246.702 140.216,246.394 139.136,246.386 138.520 C 246.378 137.904,246.114 136.950,245.800 136.400 C 245.486 135.850,245.222 135.027,245.214 134.570 C 245.206 134.114,244.453 132.314,243.539 130.570 C 242.626 128.827,241.607 126.860,241.275 126.200 C 239.987 123.642,233.858 116.872,232.300 116.288 C 231.915 116.143,231.600 115.839,231.600 115.613 C 231.600 115.386,231.354 115.200,231.054 115.200 C 230.754 115.200,229.899 114.663,229.154 114.006 C 227.682 112.708,225.038 111.339,219.400 108.957 C 217.491 108.151,214.305 107.255,212.377 106.983 C 211.400 106.845,209.921 106.477,209.092 106.166 C 206.769 105.294,190.105 105.465,183.800 106.425 " stroke="none" fill="#fbfbfc" fill-rule="evenodd"></path><path id="path1" d="M188.139 6.587 C 187.504 7.033,185.810 7.194,181.150 7.254 C 174.482 7.340,174.000 7.406,174.000 8.243 C 174.000 8.687,173.065 8.800,169.400 8.800 C 165.578 8.800,164.800 8.901,164.800 9.400 C 164.800 9.883,164.180 10.000,161.620 10.000 C 159.082 10.000,158.365 10.133,158.071 10.659 C 157.792 11.158,157.106 11.320,155.251 11.326 C 153.167 11.333,152.800 11.441,152.800 12.049 C 152.800 12.653,152.382 12.782,150.100 12.882 C 148.202 12.965,147.430 13.148,147.500 13.500 C 147.569 13.847,146.987 14.000,145.600 14.000 C 144.089 14.000,143.600 14.147,143.600 14.600 C 143.600 15.229,143.523 15.252,141.072 15.343 C 140.076 15.380,139.407 15.644,139.152 16.100 C 138.873 16.598,138.262 16.800,137.029 16.800 C 135.978 16.800,135.102 17.036,134.800 17.400 C 134.514 17.745,133.642 18.000,132.751 18.000 C 131.639 18.000,131.200 18.170,131.200 18.600 C 131.200 19.046,130.729 19.200,129.363 19.200 C 127.877 19.200,127.486 19.350,127.321 19.980 C 127.162 20.587,126.706 20.786,125.259 20.880 C 124.033 20.959,123.434 21.170,123.500 21.500 C 123.565 21.824,123.107 22.000,122.200 22.000 C 121.222 22.000,120.800 22.181,120.800 22.600 C 120.800 23.203,120.561 23.291,118.900 23.303 C 118.291 23.308,118.000 23.551,118.000 24.055 C 118.000 24.618,117.704 24.800,116.787 24.800 C 116.079 24.800,115.479 25.049,115.345 25.400 C 115.213 25.742,114.617 26.000,113.957 26.000 C 113.195 26.000,112.800 26.205,112.800 26.600 C 112.800 27.119,111.545 27.444,110.300 27.247 C 110.135 27.221,110.000 27.560,110.000 28.000 C 110.000 28.624,109.733 28.800,108.787 28.800 C 108.079 28.800,107.479 29.049,107.345 29.400 C 107.216 29.734,106.622 30.000,106.004 30.000 C 105.252 30.000,104.830 30.244,104.696 30.754 C 104.546 31.329,104.244 31.459,103.425 31.303 C 102.574 31.140,102.306 31.273,102.129 31.949 C 101.980 32.521,101.590 32.800,100.941 32.800 C 100.410 32.800,99.871 33.070,99.745 33.400 C 99.618 33.730,99.174 34.000,98.757 34.000 C 98.341 34.000,98.000 34.270,98.000 34.600 C 98.000 34.930,97.640 35.223,97.200 35.250 C 95.630 35.348,95.401 35.443,95.511 35.953 C 95.573 36.237,95.258 36.564,94.811 36.681 C 94.365 36.798,94.000 37.142,94.000 37.447 C 94.000 37.790,93.561 38.000,92.843 38.000 C 92.183 38.000,91.587 38.258,91.455 38.600 C 91.329 38.930,90.949 39.200,90.613 39.200 C 90.267 39.200,90.000 39.548,90.000 40.000 C 90.000 40.624,89.733 40.800,88.787 40.800 C 88.079 40.800,87.479 41.049,87.345 41.400 C 87.218 41.730,86.864 42.000,86.557 42.000 C 86.251 42.000,85.992 42.225,85.983 42.500 C 85.963 43.081,83.414 44.800,82.572 44.800 C 82.258 44.800,82.000 45.070,82.000 45.400 C 82.000 45.730,81.730 46.000,81.400 46.000 C 81.070 46.000,80.800 46.249,80.800 46.553 C 80.800 46.858,80.440 47.201,80.000 47.316 C 79.560 47.431,79.200 47.812,79.200 48.163 C 79.200 48.604,78.831 48.800,78.000 48.800 C 77.200 48.800,76.800 49.000,76.800 49.400 C 76.800 49.730,76.530 50.000,76.200 50.000 C 75.870 50.000,75.600 50.270,75.600 50.600 C 75.600 51.141,75.125 51.378,74.300 51.247 C 74.135 51.221,74.000 51.560,74.000 52.000 C 74.000 52.444,73.733 52.800,73.400 52.800 C 73.070 52.800,72.800 53.070,72.800 53.400 C 72.800 53.733,72.444 54.000,72.000 54.000 C 71.459 54.000,71.200 54.267,71.200 54.824 C 71.200 55.305,71.023 55.538,70.773 55.383 C 70.538 55.238,70.247 55.497,70.126 55.960 C 69.967 56.568,69.589 56.800,68.753 56.800 C 68.099 56.800,67.599 57.016,67.597 57.300 C 67.596 57.575,66.966 58.228,66.197 58.752 C 65.429 59.275,64.800 59.929,64.800 60.205 C 64.800 60.481,64.422 60.806,63.960 60.926 C 63.497 61.047,63.238 61.338,63.383 61.573 C 63.538 61.823,63.305 62.000,62.824 62.000 C 62.259 62.000,62.000 62.259,62.000 62.824 C 62.000 63.305,61.823 63.538,61.573 63.383 C 61.338 63.238,61.052 63.481,60.936 63.923 C 60.821 64.365,60.346 64.826,59.880 64.947 C 59.415 65.069,59.143 65.276,59.275 65.408 C 59.562 65.695,57.532 67.828,57.100 67.694 C 56.935 67.642,56.800 68.119,56.800 68.753 C 56.800 69.589,56.568 69.967,55.960 70.126 C 55.497 70.247,55.238 70.538,55.383 70.773 C 55.538 71.023,55.305 71.200,54.824 71.200 C 54.267 71.200,54.000 71.459,54.000 72.000 C 54.000 72.444,53.733 72.800,53.400 72.800 C 53.070 72.800,52.800 73.070,52.800 73.400 C 52.800 73.733,52.444 74.000,52.000 74.000 C 51.560 74.000,51.221 74.135,51.247 74.300 C 51.378 75.125,51.141 75.600,50.600 75.600 C 50.270 75.600,50.000 75.870,50.000 76.200 C 50.000 76.530,49.730 76.800,49.400 76.800 C 49.005 76.800,48.800 77.195,48.800 77.953 C 48.800 78.770,48.567 79.168,48.000 79.316 C 47.560 79.431,47.200 79.812,47.200 80.163 C 47.200 80.513,46.930 80.800,46.600 80.800 C 46.270 80.800,46.000 81.070,46.000 81.400 C 46.000 81.730,45.730 82.000,45.400 82.000 C 45.067 82.000,44.800 82.356,44.800 82.800 C 44.800 83.240,44.611 83.600,44.379 83.600 C 44.148 83.600,43.770 84.140,43.540 84.800 C 43.310 85.460,42.890 86.000,42.608 86.000 C 42.325 86.000,41.994 86.378,41.874 86.840 C 41.753 87.303,41.462 87.562,41.227 87.417 C 40.955 87.249,40.800 87.669,40.800 88.576 C 40.800 89.733,40.650 90.000,40.000 90.000 C 39.467 90.000,39.200 90.267,39.200 90.800 C 39.200 91.244,38.933 91.600,38.600 91.600 C 38.200 91.600,38.000 92.000,38.000 92.800 C 38.000 93.600,37.800 94.000,37.400 94.000 C 37.062 94.000,36.800 94.358,36.800 94.818 C 36.800 95.365,36.577 95.596,36.123 95.518 C 35.615 95.429,35.440 95.699,35.423 96.595 C 35.407 97.403,35.174 97.833,34.700 97.924 C 34.315 97.998,34.000 98.405,34.000 98.829 C 34.000 99.253,33.730 99.600,33.400 99.600 C 33.005 99.600,32.800 99.995,32.800 100.753 C 32.800 101.570,32.567 101.968,32.000 102.116 C 31.417 102.268,31.200 102.662,31.200 103.563 C 31.200 104.396,31.004 104.800,30.600 104.800 C 30.205 104.800,30.000 105.195,30.000 105.957 C 30.000 106.617,29.742 107.213,29.400 107.345 C 29.049 107.479,28.800 108.079,28.800 108.787 C 28.800 109.733,28.624 110.000,28.000 110.000 C 27.560 110.000,27.221 110.135,27.247 110.300 C 27.444 111.545,27.119 112.800,26.600 112.800 C 26.205 112.800,26.000 113.195,26.000 113.957 C 26.000 114.617,25.742 115.213,25.400 115.345 C 25.049 115.479,24.800 116.079,24.800 116.787 C 24.800 117.710,24.619 118.000,24.044 118.000 C 23.629 118.000,23.297 118.225,23.307 118.500 C 23.365 120.053,23.136 120.800,22.600 120.800 C 22.205 120.800,22.000 121.195,22.000 121.957 C 22.000 122.617,21.742 123.213,21.400 123.345 C 20.995 123.500,20.800 124.135,20.800 125.299 C 20.800 126.527,20.570 127.219,20.000 127.707 C 19.482 128.151,19.200 128.887,19.200 129.796 C 19.200 130.777,19.019 131.200,18.600 131.200 C 18.185 131.200,18.000 131.617,18.000 132.557 C 18.000 133.395,17.770 134.003,17.400 134.145 C 16.975 134.308,16.800 134.970,16.800 136.411 C 16.800 137.595,16.641 138.349,16.420 138.212 C 15.806 137.833,15.200 139.405,15.200 141.374 C 15.200 142.730,15.046 143.200,14.600 143.200 C 14.147 143.200,14.000 143.689,14.000 145.200 C 14.000 146.711,13.853 147.200,13.400 147.200 C 12.924 147.200,12.800 147.778,12.800 150.000 C 12.800 152.533,12.724 152.800,12.000 152.800 C 11.309 152.800,11.200 153.067,11.200 154.757 C 11.200 156.032,11.012 156.787,10.659 156.922 C 10.279 157.068,10.094 158.060,10.036 160.262 C 9.976 162.507,9.789 163.486,9.376 163.717 C 8.923 163.971,8.800 165.094,8.800 168.973 C 8.800 173.401,8.726 173.926,8.074 174.096 C 7.302 174.298,7.294 174.402,7.226 183.900 C 7.205 186.911,7.088 187.600,6.600 187.600 C 5.699 187.600,5.701 210.595,6.603 211.882 C 7.065 212.543,7.216 214.071,7.250 218.471 C 7.300 224.904,7.444 226.000,8.243 226.000 C 8.687 226.000,8.800 226.937,8.800 230.600 C 8.800 234.422,8.901 235.200,9.400 235.200 C 9.886 235.200,10.000 235.844,10.000 238.600 C 10.000 241.356,10.114 242.000,10.600 242.000 C 11.191 242.000,11.262 242.366,11.290 245.551 C 11.298 246.528,11.509 246.956,12.051 247.097 C 12.654 247.255,12.800 247.674,12.800 249.247 C 12.800 250.716,12.949 251.200,13.400 251.200 C 13.871 251.200,14.000 251.753,14.000 253.780 C 14.000 255.598,14.169 256.455,14.571 256.680 C 14.885 256.856,15.216 257.809,15.308 258.800 C 15.426 260.069,15.671 260.638,16.138 260.729 C 16.647 260.829,16.800 261.314,16.800 262.829 C 16.800 264.314,16.948 264.800,17.400 264.800 C 17.843 264.800,18.000 265.264,18.000 266.580 C 18.000 267.844,18.198 268.471,18.684 268.743 C 19.165 269.012,19.340 269.551,19.272 270.552 C 19.201 271.619,19.381 272.106,19.988 272.485 C 20.485 272.796,20.800 273.420,20.800 274.096 C 20.800 274.811,21.012 275.200,21.400 275.200 C 21.924 275.200,22.283 277.050,22.044 278.511 C 22.016 278.682,22.264 278.927,22.596 279.054 C 22.948 279.189,23.200 279.784,23.200 280.480 C 23.200 281.338,23.425 281.734,24.000 281.884 C 24.601 282.041,24.800 282.430,24.800 283.447 C 24.800 284.383,24.985 284.800,25.400 284.800 C 25.795 284.800,26.000 285.195,26.000 285.953 C 26.000 286.761,26.234 287.168,26.781 287.311 C 27.381 287.468,27.517 287.765,27.367 288.591 C 27.215 289.430,27.352 289.715,27.986 289.880 C 28.570 290.033,28.800 290.423,28.800 291.259 C 28.800 291.927,29.057 292.524,29.400 292.655 C 29.730 292.782,30.000 293.213,30.000 293.614 C 30.000 294.015,30.235 294.581,30.522 294.871 C 30.810 295.162,31.164 295.715,31.310 296.100 C 31.456 296.485,31.851 296.800,32.187 296.800 C 32.601 296.800,32.800 297.189,32.800 298.000 C 32.800 298.800,33.000 299.200,33.400 299.200 C 33.786 299.200,34.002 299.592,34.007 300.300 C 34.014 301.391,35.479 303.200,36.356 303.200 C 36.600 303.200,36.800 303.830,36.800 304.600 C 36.800 305.578,36.981 306.000,37.400 306.000 C 37.730 306.000,38.000 306.270,38.000 306.600 C 38.000 306.930,38.270 307.200,38.600 307.200 C 39.151 307.200,39.245 307.447,39.362 309.195 C 39.384 309.522,39.716 309.850,40.101 309.924 C 40.485 309.998,40.800 310.315,40.800 310.629 C 40.800 310.943,41.070 311.200,41.400 311.200 C 41.801 311.200,42.000 311.601,42.000 312.413 C 42.000 313.121,42.249 313.721,42.600 313.855 C 42.930 313.982,43.200 314.336,43.200 314.643 C 43.200 314.949,43.560 315.200,44.000 315.200 C 44.533 315.200,44.800 315.467,44.800 316.000 C 44.800 316.444,45.067 316.800,45.400 316.800 C 45.775 316.800,46.000 317.179,46.000 317.813 C 46.000 318.369,46.270 318.929,46.600 319.055 C 46.930 319.182,47.200 319.553,47.200 319.880 C 47.200 320.207,47.560 320.569,48.000 320.684 C 48.440 320.799,48.800 321.142,48.800 321.447 C 48.800 321.751,49.070 322.000,49.400 322.000 C 49.730 322.000,50.000 322.270,50.000 322.600 C 50.000 322.930,50.270 323.200,50.600 323.200 C 50.930 323.200,51.200 323.487,51.200 323.837 C 51.200 324.188,51.560 324.569,52.000 324.684 C 52.567 324.832,52.800 325.230,52.800 326.047 C 52.800 326.805,53.005 327.200,53.400 327.200 C 53.730 327.200,54.000 327.487,54.000 327.837 C 54.000 328.188,54.360 328.569,54.800 328.684 C 55.240 328.799,55.600 329.142,55.600 329.447 C 55.600 329.751,55.870 330.000,56.200 330.000 C 56.530 330.000,56.800 330.270,56.800 330.600 C 56.800 330.930,57.070 331.200,57.400 331.200 C 57.730 331.200,58.000 331.539,58.000 331.953 C 58.000 332.382,58.362 332.801,58.840 332.926 C 59.303 333.047,59.562 333.338,59.417 333.573 C 59.262 333.823,59.495 334.000,59.976 334.000 C 60.442 334.000,60.800 334.261,60.800 334.600 C 60.800 334.930,61.070 335.200,61.400 335.200 C 61.730 335.200,62.000 335.539,62.000 335.953 C 62.000 336.382,62.362 336.801,62.840 336.926 C 63.303 337.047,63.562 337.338,63.417 337.573 C 63.262 337.823,63.495 338.000,63.976 338.000 C 64.442 338.000,64.800 338.261,64.800 338.600 C 64.800 338.930,65.070 339.200,65.400 339.200 C 65.733 339.200,66.000 339.556,66.000 340.000 C 66.000 340.444,66.267 340.800,66.600 340.800 C 66.930 340.800,67.200 341.070,67.200 341.400 C 67.200 341.733,67.556 342.000,68.000 342.000 C 68.444 342.000,68.800 342.267,68.800 342.600 C 68.800 342.930,69.070 343.200,69.400 343.200 C 69.730 343.200,70.003 343.425,70.007 343.700 C 70.015 344.288,71.732 346.000,72.314 346.000 C 72.534 346.000,72.818 346.270,72.945 346.600 C 73.071 346.930,73.618 347.200,74.160 347.200 C 74.795 347.200,75.237 347.485,75.400 348.000 C 75.540 348.440,75.912 348.800,76.227 348.800 C 76.542 348.800,76.800 349.070,76.800 349.400 C 76.800 349.730,77.070 350.000,77.400 350.000 C 77.730 350.000,78.000 350.270,78.000 350.600 C 78.000 350.949,78.363 351.200,78.867 351.200 C 79.343 351.200,79.615 351.318,79.470 351.463 C 79.015 351.918,80.056 352.800,81.049 352.800 C 81.592 352.800,82.000 353.037,82.000 353.353 C 82.000 353.658,82.378 354.006,82.840 354.126 C 83.303 354.247,83.562 354.538,83.417 354.773 C 83.264 355.020,83.481 355.200,83.930 355.200 C 84.370 355.200,84.797 355.546,84.916 356.000 C 85.057 356.541,85.462 356.800,86.163 356.800 C 86.818 356.800,87.200 357.021,87.200 357.400 C 87.200 357.733,87.556 358.000,88.000 358.000 C 88.444 358.000,88.800 358.267,88.800 358.600 C 88.800 359.019,89.222 359.200,90.200 359.200 C 90.970 359.200,91.579 359.335,91.553 359.500 C 91.422 360.325,91.659 360.800,92.200 360.800 C 92.530 360.800,92.800 361.059,92.800 361.375 C 92.800 361.731,93.295 361.997,94.100 362.075 C 94.878 362.150,95.360 362.401,95.300 362.700 C 95.245 362.975,95.560 363.200,96.000 363.200 C 96.533 363.200,96.800 363.467,96.800 364.000 C 96.800 364.652,97.067 364.800,98.243 364.800 C 99.361 364.800,99.634 364.935,99.455 365.400 C 99.278 365.862,99.544 366.000,100.613 366.000 C 101.579 366.000,102.000 366.182,102.000 366.600 C 102.000 366.930,102.249 367.200,102.553 367.200 C 102.858 367.200,103.201 367.560,103.316 368.000 C 103.468 368.583,103.862 368.800,104.763 368.800 C 105.596 368.800,106.000 368.996,106.000 369.400 C 106.000 369.819,106.422 370.000,107.400 370.000 C 108.378 370.000,108.800 370.181,108.800 370.600 C 108.800 370.997,109.197 371.200,109.973 371.200 C 110.795 371.200,111.222 371.440,111.400 372.000 C 111.578 372.560,112.005 372.800,112.827 372.800 C 113.603 372.800,114.000 373.003,114.000 373.400 C 114.000 373.819,114.422 374.000,115.400 374.000 C 116.378 374.000,116.800 374.181,116.800 374.600 C 116.800 374.995,117.195 375.200,117.953 375.200 C 118.770 375.200,119.168 375.433,119.316 376.000 C 119.468 376.583,119.862 376.800,120.763 376.800 C 121.596 376.800,122.000 376.996,122.000 377.400 C 122.000 377.853,122.489 378.000,124.000 378.000 C 125.511 378.000,126.000 378.147,126.000 378.600 C 126.000 379.019,126.422 379.200,127.400 379.200 C 128.325 379.200,128.800 379.388,128.800 379.753 C 128.800 380.360,129.987 380.786,131.700 380.795 C 132.409 380.798,132.800 381.013,132.800 381.400 C 132.800 381.853,133.289 382.000,134.800 382.000 C 136.311 382.000,136.800 382.147,136.800 382.600 C 136.800 383.053,137.289 383.200,138.800 383.200 C 140.243 383.200,140.800 383.355,140.800 383.757 C 140.800 384.512,141.692 384.800,144.033 384.800 C 145.515 384.800,146.000 384.948,146.000 385.400 C 146.000 385.853,146.489 386.000,148.000 386.000 C 149.511 386.000,150.000 386.147,150.000 386.600 C 150.000 387.077,150.580 387.200,152.818 387.200 C 155.279 387.200,155.620 387.288,155.518 387.900 C 155.417 388.500,155.786 388.617,158.100 388.718 C 160.141 388.808,160.800 388.978,160.800 389.418 C 160.800 389.894,161.642 390.000,165.400 390.000 C 169.222 390.000,170.000 390.101,170.000 390.600 C 170.000 391.104,170.867 391.200,175.400 391.200 C 179.715 391.200,180.800 391.310,180.800 391.750 C 180.800 392.690,182.804 392.800,200.017 392.800 C 217.005 392.800,218.000 392.742,218.000 391.757 C 218.000 391.306,219.111 391.200,223.813 391.200 C 228.610 391.200,229.665 391.095,229.855 390.600 C 230.039 390.123,230.894 390.000,234.043 390.000 C 237.294 390.000,238.000 389.893,238.000 389.400 C 238.000 388.930,238.549 388.800,240.538 388.800 C 242.568 388.800,243.221 388.640,243.800 388.000 C 244.352 387.390,245.032 387.200,246.662 387.200 C 248.296 387.200,248.800 387.058,248.800 386.600 C 248.800 386.133,249.335 386.000,251.213 386.000 C 252.988 386.000,253.686 385.842,253.855 385.400 C 254.013 384.990,254.654 384.800,255.880 384.800 C 257.338 384.800,257.714 384.650,257.884 384.000 C 258.057 383.338,258.430 383.200,260.047 383.200 C 261.516 383.200,262.000 383.051,262.000 382.600 C 262.000 382.078,264.133 381.705,265.700 381.953 C 265.865 381.979,265.955 381.775,265.900 381.500 C 265.834 381.168,266.451 380.959,267.744 380.876 C 269.271 380.779,269.731 380.586,269.890 379.976 C 270.056 379.342,270.450 379.200,272.047 379.200 C 273.516 379.200,274.000 379.051,274.000 378.600 C 274.000 378.199,274.401 378.000,275.213 378.000 C 275.921 378.000,276.521 377.751,276.655 377.400 C 276.787 377.058,277.383 376.800,278.043 376.800 C 278.933 376.800,279.200 376.616,279.200 376.000 C 279.200 375.352,279.467 375.200,280.600 375.200 C 281.578 375.200,282.000 375.019,282.000 374.600 C 282.000 374.155,282.468 374.000,283.813 374.000 C 285.021 374.000,285.699 373.808,285.846 373.424 C 285.967 373.108,286.592 372.734,287.233 372.593 C 287.875 372.452,288.400 372.081,288.400 371.768 C 288.400 371.456,288.760 371.200,289.200 371.200 C 289.644 371.200,290.000 370.933,290.000 370.600 C 290.000 370.181,290.422 370.000,291.400 370.000 C 292.378 370.000,292.800 369.819,292.800 369.400 C 292.800 369.000,293.200 368.800,294.000 368.800 C 294.933 368.800,295.200 368.622,295.200 368.000 C 295.200 367.352,295.467 367.200,296.600 367.200 C 297.448 367.200,298.004 367.003,298.010 366.700 C 298.021 366.206,300.625 364.800,301.531 364.800 C 301.789 364.800,302.000 364.440,302.000 364.000 C 302.000 363.376,302.267 363.200,303.213 363.200 C 303.921 363.200,304.521 362.951,304.655 362.600 C 304.782 362.270,305.136 362.000,305.443 362.000 C 305.749 362.000,306.000 361.730,306.000 361.400 C 306.000 360.996,306.404 360.800,307.237 360.800 C 308.138 360.800,308.532 360.583,308.684 360.000 C 308.799 359.560,309.142 359.200,309.447 359.200 C 309.751 359.200,310.000 358.930,310.000 358.600 C 310.000 358.199,310.401 358.000,311.213 358.000 C 311.921 358.000,312.521 357.751,312.655 357.400 C 312.782 357.070,313.136 356.800,313.443 356.800 C 313.749 356.800,314.000 356.440,314.000 356.000 C 314.000 355.556,314.267 355.200,314.600 355.200 C 314.930 355.200,315.200 354.930,315.200 354.600 C 315.200 354.181,315.622 354.000,316.600 354.000 C 317.578 354.000,318.000 353.819,318.000 353.400 C 318.000 353.070,318.270 352.800,318.600 352.800 C 318.933 352.800,319.200 352.444,319.200 352.000 C 319.200 351.467,319.467 351.200,320.000 351.200 C 320.444 351.200,320.800 350.933,320.800 350.600 C 320.800 350.270,321.070 350.000,321.400 350.000 C 321.730 350.000,322.000 349.730,322.000 349.400 C 322.000 348.996,322.404 348.800,323.237 348.800 C 324.138 348.800,324.532 348.583,324.684 348.000 C 324.799 347.560,325.142 347.200,325.447 347.200 C 325.751 347.200,326.000 346.930,326.000 346.600 C 326.000 346.270,326.270 346.000,326.600 346.000 C 326.930 346.000,327.200 345.751,327.200 345.447 C 327.200 345.142,327.560 344.799,328.000 344.684 C 328.440 344.569,328.800 344.188,328.800 343.837 C 328.800 343.487,329.070 343.200,329.400 343.200 C 329.730 343.200,330.000 342.930,330.000 342.600 C 330.000 342.270,330.270 342.000,330.600 342.000 C 330.930 342.000,331.200 341.751,331.200 341.447 C 331.200 341.142,331.560 340.799,332.000 340.684 C 332.440 340.569,332.800 340.188,332.800 339.837 C 332.800 339.487,333.070 339.200,333.400 339.200 C 333.730 339.200,334.000 338.930,334.000 338.600 C 334.000 338.270,334.270 338.000,334.600 338.000 C 334.930 338.000,335.200 337.751,335.200 337.447 C 335.200 337.142,335.560 336.799,336.000 336.684 C 336.440 336.569,336.800 336.188,336.800 335.837 C 336.800 335.487,337.070 335.200,337.400 335.200 C 337.730 335.200,338.000 334.930,338.000 334.600 C 338.000 334.270,338.270 334.000,338.600 334.000 C 338.930 334.000,339.200 333.751,339.200 333.447 C 339.200 333.142,339.560 332.799,340.000 332.684 C 340.440 332.569,340.800 332.188,340.800 331.837 C 340.800 331.487,341.070 331.200,341.400 331.200 C 341.730 331.200,342.000 330.930,342.000 330.600 C 342.000 330.270,342.270 330.000,342.600 330.000 C 342.930 330.000,343.200 329.751,343.200 329.447 C 343.200 329.142,343.560 328.799,344.000 328.684 C 344.440 328.569,344.800 328.188,344.800 327.837 C 344.800 327.487,345.070 327.200,345.400 327.200 C 345.730 327.200,346.000 326.930,346.000 326.600 C 346.000 326.270,346.270 326.000,346.600 326.000 C 346.930 326.000,347.200 325.751,347.200 325.447 C 347.200 325.142,347.560 324.799,348.000 324.684 C 348.583 324.532,348.800 324.138,348.800 323.237 C 348.800 322.404,348.996 322.000,349.400 322.000 C 349.730 322.000,350.000 321.730,350.000 321.400 C 350.000 321.070,350.270 320.800,350.600 320.800 C 350.933 320.800,351.200 320.444,351.200 320.000 C 351.200 319.467,351.467 319.200,352.000 319.200 C 352.444 319.200,352.800 318.933,352.800 318.600 C 352.800 318.270,353.070 318.000,353.400 318.000 C 353.819 318.000,354.000 317.578,354.000 316.600 C 354.000 315.622,354.181 315.200,354.600 315.200 C 354.930 315.200,355.200 314.930,355.200 314.600 C 355.200 314.267,355.556 314.000,356.000 314.000 C 356.440 314.000,356.800 313.749,356.800 313.443 C 356.800 313.136,357.070 312.782,357.400 312.655 C 357.751 312.521,358.000 311.921,358.000 311.213 C 358.000 310.401,358.199 310.000,358.600 310.000 C 358.930 310.000,359.200 309.751,359.200 309.447 C 359.200 309.142,359.560 308.799,360.000 308.684 C 360.583 308.532,360.800 308.138,360.800 307.237 C 360.800 306.404,360.996 306.000,361.400 306.000 C 361.730 306.000,362.000 305.749,362.000 305.443 C 362.000 305.136,362.270 304.782,362.600 304.655 C 362.951 304.521,363.200 303.921,363.200 303.213 C 363.200 302.267,363.376 302.000,364.000 302.000 C 364.518 302.000,364.800 301.733,364.800 301.243 C 364.800 300.826,365.070 300.382,365.400 300.255 C 365.730 300.129,366.000 299.569,366.000 299.013 C 366.000 298.379,366.225 298.000,366.600 298.000 C 367.019 298.000,367.200 297.578,367.200 296.600 C 367.200 295.467,367.352 295.200,368.000 295.200 C 368.622 295.200,368.800 294.933,368.800 294.000 C 368.800 293.200,369.000 292.800,369.400 292.800 C 369.819 292.800,370.000 292.378,370.000 291.400 C 370.000 290.422,370.181 290.000,370.600 290.000 C 370.933 290.000,371.200 289.644,371.200 289.200 C 371.200 288.760,371.456 288.400,371.768 288.400 C 372.081 288.400,372.452 287.872,372.594 287.228 C 372.736 286.583,373.110 285.841,373.426 285.579 C 373.744 285.314,374.000 284.411,374.000 283.551 C 374.000 282.439,374.170 282.000,374.600 282.000 C 375.019 282.000,375.200 281.578,375.200 280.600 C 375.200 279.467,375.352 279.200,376.000 279.200 C 376.616 279.200,376.800 278.933,376.800 278.043 C 376.800 277.383,377.058 276.787,377.400 276.655 C 377.744 276.523,378.000 275.926,378.000 275.255 C 378.000 274.585,378.256 273.987,378.600 273.855 C 379.008 273.699,379.200 273.060,379.200 271.859 C 379.200 270.430,379.352 270.053,380.000 269.884 C 380.654 269.713,380.800 269.338,380.800 267.837 C 380.800 266.471,380.954 266.000,381.400 266.000 C 381.853 266.000,382.000 265.511,382.000 264.000 C 382.000 262.489,382.147 262.000,382.600 262.000 C 383.051 262.000,383.200 261.516,383.200 260.047 C 383.200 258.430,383.338 258.057,384.000 257.884 C 384.650 257.714,384.800 257.338,384.800 255.880 C 384.800 254.654,384.990 254.013,385.400 253.855 C 385.842 253.686,386.000 252.988,386.000 251.213 C 386.000 249.335,386.133 248.800,386.600 248.800 C 387.076 248.800,387.200 248.222,387.200 246.000 C 387.200 243.467,387.276 243.200,388.000 243.200 C 388.718 243.200,388.800 242.933,388.800 240.600 C 388.800 238.556,388.928 238.000,389.400 238.000 C 389.898 238.000,390.000 237.227,390.000 233.443 C 390.000 229.761,390.115 228.841,390.600 228.655 C 391.091 228.467,391.200 227.477,391.200 223.213 C 391.200 218.533,391.282 217.918,392.000 217.200 C 392.774 216.426,392.800 215.867,392.800 199.833 C 392.800 182.994,392.742 182.000,391.757 182.000 C 391.306 182.000,391.200 180.862,391.200 176.000 C 391.200 170.933,391.107 170.000,390.600 170.000 C 390.103 170.000,390.000 169.247,390.000 165.620 C 390.000 162.215,389.871 161.168,389.422 160.916 C 389.032 160.698,388.803 159.744,388.722 157.996 C 388.619 155.811,388.489 155.409,387.900 155.456 C 387.296 155.504,387.200 155.134,387.200 152.756 C 387.200 150.573,387.075 150.000,386.600 150.000 C 386.147 150.000,386.000 149.511,386.000 148.000 C 386.000 146.489,385.853 146.000,385.400 146.000 C 384.947 146.000,384.800 145.511,384.800 144.000 C 384.800 142.267,384.693 142.000,384.000 142.000 C 383.282 142.000,383.200 141.733,383.200 139.400 C 383.200 137.356,383.072 136.800,382.600 136.800 C 382.155 136.800,382.000 136.332,382.000 134.987 C 382.000 133.745,381.811 133.102,381.400 132.945 C 381.030 132.803,380.800 132.195,380.800 131.357 C 380.800 130.267,380.643 130.000,380.000 130.000 C 379.307 130.000,379.200 129.733,379.200 128.000 C 379.200 126.489,379.053 126.000,378.600 126.000 C 378.157 126.000,378.000 125.536,378.000 124.220 C 378.000 123.104,377.789 122.320,377.435 122.120 C 377.124 121.944,376.809 121.260,376.735 120.600 C 376.636 119.717,376.415 119.431,375.900 119.518 C 375.343 119.611,375.200 119.346,375.200 118.218 C 375.200 117.224,375.020 116.800,374.600 116.800 C 374.181 116.800,374.000 116.378,374.000 115.400 C 374.000 114.422,373.819 114.000,373.400 114.000 C 373.005 114.000,372.800 113.605,372.800 112.847 C 372.800 112.030,372.567 111.632,372.000 111.484 C 371.417 111.332,371.200 110.938,371.200 110.037 C 371.200 109.204,371.004 108.800,370.600 108.800 C 370.181 108.800,370.000 108.378,370.000 107.400 C 370.000 106.422,369.819 106.000,369.400 106.000 C 369.035 106.000,368.800 105.628,368.800 105.049 C 368.800 104.056,367.918 103.015,367.463 103.470 C 367.318 103.615,367.200 103.343,367.200 102.867 C 367.200 102.363,366.949 102.000,366.600 102.000 C 366.181 102.000,366.000 101.578,366.000 100.600 C 366.000 99.622,365.819 99.200,365.400 99.200 C 365.021 99.200,364.800 98.818,364.800 98.163 C 364.800 97.462,364.541 97.057,364.000 96.916 C 363.560 96.801,363.200 96.452,363.200 96.141 C 363.200 95.830,362.930 95.471,362.600 95.345 C 362.258 95.213,362.000 94.617,362.000 93.957 C 362.000 93.195,361.795 92.800,361.400 92.800 C 361.070 92.800,360.800 92.530,360.800 92.200 C 360.800 91.659,360.325 91.422,359.500 91.553 C 359.335 91.579,359.200 90.970,359.200 90.200 C 359.200 89.222,359.019 88.800,358.600 88.800 C 358.267 88.800,358.000 88.444,358.000 88.000 C 358.000 87.556,357.733 87.200,357.400 87.200 C 357.021 87.200,356.800 86.818,356.800 86.163 C 356.800 85.462,356.541 85.057,356.000 84.916 C 355.546 84.797,355.200 84.370,355.200 83.930 C 355.200 83.481,355.020 83.264,354.773 83.417 C 354.538 83.562,354.247 83.303,354.126 82.840 C 354.006 82.378,353.658 82.000,353.353 82.000 C 353.049 82.000,352.800 81.638,352.800 81.196 C 352.800 80.754,352.440 80.084,352.000 79.707 C 351.560 79.330,351.200 78.792,351.200 78.511 C 351.200 78.230,350.930 78.000,350.600 78.000 C 350.270 78.000,350.000 77.730,350.000 77.400 C 350.000 77.070,349.730 76.800,349.400 76.800 C 349.070 76.800,348.800 76.530,348.800 76.200 C 348.800 75.659,348.325 75.422,347.500 75.553 C 347.335 75.579,347.200 75.240,347.200 74.800 C 347.200 74.356,346.933 74.000,346.600 74.000 C 346.230 74.000,346.000 73.625,346.000 73.021 C 346.000 72.002,344.445 70.000,343.654 70.000 C 343.404 70.000,343.200 69.730,343.200 69.400 C 343.200 69.070,342.930 68.800,342.600 68.800 C 342.267 68.800,342.000 68.444,342.000 68.000 C 342.000 67.556,341.733 67.200,341.400 67.200 C 341.070 67.200,340.800 66.930,340.800 66.600 C 340.800 66.267,340.444 66.000,340.000 66.000 C 339.556 66.000,339.200 65.733,339.200 65.400 C 339.200 65.070,338.930 64.800,338.600 64.800 C 338.261 64.800,338.000 64.442,338.000 63.976 C 338.000 63.495,337.823 63.262,337.573 63.417 C 337.338 63.562,337.047 63.303,336.926 62.840 C 336.801 62.362,336.382 62.000,335.953 62.000 C 335.539 62.000,335.200 61.730,335.200 61.400 C 335.200 61.070,334.930 60.800,334.600 60.800 C 334.267 60.800,334.000 60.444,334.000 60.000 C 334.000 59.556,333.733 59.200,333.400 59.200 C 333.070 59.200,332.800 58.930,332.800 58.600 C 332.800 58.267,332.444 58.000,332.000 58.000 C 331.556 58.000,331.200 57.733,331.200 57.400 C 331.200 57.070,330.930 56.800,330.600 56.800 C 330.270 56.800,329.997 56.575,329.993 56.300 C 329.985 55.716,328.269 54.000,327.693 54.000 C 327.476 54.000,327.074 53.730,326.800 53.400 C 326.526 53.070,325.964 52.800,325.551 52.800 C 325.131 52.800,324.800 52.519,324.800 52.163 C 324.800 51.812,324.440 51.431,324.000 51.316 C 323.560 51.201,323.200 50.858,323.200 50.553 C 323.200 50.249,322.930 50.000,322.600 50.000 C 322.270 50.000,322.000 49.730,322.000 49.400 C 322.000 49.070,321.751 48.800,321.447 48.800 C 321.142 48.800,320.793 48.417,320.671 47.949 C 320.494 47.273,320.226 47.140,319.375 47.303 C 318.556 47.459,318.254 47.329,318.104 46.754 C 317.995 46.339,317.658 46.000,317.353 46.000 C 317.049 46.000,316.800 45.730,316.800 45.400 C 316.800 45.067,316.444 44.800,316.000 44.800 C 315.486 44.800,315.200 44.533,315.200 44.055 C 315.200 43.489,314.949 43.338,314.155 43.425 C 313.401 43.507,313.053 43.325,312.908 42.770 C 312.797 42.346,312.368 42.000,311.953 42.000 C 311.539 42.000,311.200 41.730,311.200 41.400 C 311.200 41.070,310.930 40.800,310.600 40.800 C 310.270 40.800,310.000 40.530,310.000 40.200 C 310.000 39.870,309.820 39.578,309.600 39.550 C 309.380 39.523,309.020 39.455,308.800 39.400 C 308.580 39.345,308.130 39.278,307.800 39.250 C 307.470 39.223,307.200 38.930,307.200 38.600 C 307.200 38.270,306.930 38.000,306.600 38.000 C 306.270 38.000,306.000 37.730,306.000 37.400 C 306.000 36.981,305.578 36.800,304.600 36.800 C 303.467 36.800,303.200 36.648,303.200 36.000 C 303.200 35.560,303.065 35.221,302.900 35.247 C 301.797 35.422,300.800 35.114,300.800 34.600 C 300.800 34.267,300.444 34.000,300.000 34.000 C 299.556 34.000,299.200 33.733,299.200 33.400 C 299.200 33.000,298.800 32.800,298.000 32.800 C 297.241 32.800,296.800 32.595,296.800 32.243 C 296.800 31.631,295.959 31.200,294.767 31.200 C 294.345 31.200,294.000 30.930,294.000 30.600 C 294.000 30.270,293.659 30.000,293.243 30.000 C 292.826 30.000,292.382 29.730,292.255 29.400 C 292.129 29.070,291.569 28.800,291.013 28.800 C 290.379 28.800,290.000 28.575,290.000 28.200 C 290.000 27.870,289.820 27.578,289.600 27.550 C 289.380 27.523,289.020 27.455,288.800 27.400 C 288.580 27.345,288.130 27.277,287.800 27.250 C 287.470 27.223,287.200 26.930,287.200 26.600 C 287.200 26.205,286.805 26.000,286.043 26.000 C 285.383 26.000,284.787 25.742,284.655 25.400 C 284.521 25.049,283.921 24.800,283.213 24.800 C 282.401 24.800,282.000 24.601,282.000 24.200 C 282.000 23.870,281.730 23.578,281.400 23.550 C 281.070 23.523,280.620 23.455,280.400 23.400 C 280.180 23.345,279.550 23.278,279.000 23.250 C 278.400 23.220,278.000 22.960,278.000 22.600 C 278.000 22.181,277.578 22.000,276.600 22.000 C 275.622 22.000,275.200 21.819,275.200 21.400 C 275.200 20.947,274.711 20.800,273.200 20.800 C 271.497 20.800,271.200 20.686,271.200 20.035 C 271.200 19.451,270.957 19.297,270.171 19.383 C 269.510 19.456,268.975 19.229,268.675 18.748 C 268.340 18.212,267.736 18.000,266.547 18.000 C 265.439 18.000,264.809 17.800,264.655 17.400 C 264.502 16.999,263.871 16.800,262.757 16.800 C 261.641 16.800,260.922 16.572,260.586 16.113 C 260.308 15.733,259.481 15.394,258.741 15.356 C 258.004 15.318,257.175 15.267,256.900 15.243 C 256.625 15.219,256.400 14.930,256.400 14.600 C 256.400 14.128,255.844 14.000,253.800 14.000 C 251.756 14.000,251.200 13.872,251.200 13.400 C 251.200 12.947,250.711 12.800,249.200 12.800 C 247.689 12.800,247.200 12.653,247.200 12.200 C 247.200 11.870,247.065 11.584,246.900 11.564 C 246.735 11.544,245.621 11.460,244.423 11.377 C 243.006 11.279,242.127 11.013,241.903 10.613 C 241.641 10.144,240.826 10.000,238.423 10.000 C 236.003 10.000,235.233 9.863,235.055 9.400 C 234.868 8.912,233.910 8.800,229.909 8.800 C 225.645 8.800,224.934 8.706,224.552 8.094 C 224.165 7.475,223.333 7.377,217.772 7.295 C 212.620 7.219,211.369 7.088,211.096 6.600 C 210.601 5.716,189.401 5.704,188.139 6.587 M203.200 104.437 C 203.970 104.634,205.819 104.797,207.310 104.798 C 208.989 104.799,210.886 105.104,212.296 105.600 C 213.548 106.040,215.181 106.400,215.924 106.400 C 216.668 106.400,217.754 106.643,218.338 106.939 C 218.922 107.236,220.030 107.750,220.800 108.082 C 221.570 108.414,223.030 109.072,224.044 109.543 C 225.058 110.014,225.994 110.400,226.124 110.400 C 226.550 110.400,229.796 112.712,230.569 113.565 C 230.984 114.024,231.566 114.400,231.862 114.400 C 232.158 114.400,232.400 114.670,232.400 115.000 C 232.400 115.330,232.715 115.600,233.101 115.600 C 234.233 115.600,241.600 123.082,241.600 124.231 C 241.600 124.490,241.858 124.917,242.174 125.179 C 242.490 125.441,242.861 126.168,242.999 126.794 C 243.136 127.421,243.508 128.033,243.824 128.154 C 244.141 128.276,244.400 128.719,244.400 129.138 C 244.400 129.558,244.670 130.126,245.000 130.400 C 245.330 130.674,245.601 131.191,245.602 131.549 C 245.604 131.907,245.882 132.732,246.221 133.382 C 246.560 134.032,246.947 135.382,247.080 136.382 C 247.214 137.382,247.508 138.321,247.734 138.469 C 247.961 138.616,248.274 140.416,248.430 142.469 C 248.587 144.521,248.914 146.829,249.157 147.597 C 249.774 149.543,249.702 153.386,249.000 156.000 C 248.675 157.210,248.407 159.465,248.405 161.011 C 248.402 162.723,248.187 164.130,247.855 164.611 C 247.555 165.045,247.185 166.251,247.032 167.291 C 246.879 168.331,246.605 169.274,246.422 169.386 C 246.240 169.499,245.973 170.268,245.829 171.096 C 245.591 172.464,244.829 174.443,243.940 176.000 C 243.752 176.330,243.417 177.050,243.196 177.600 C 242.975 178.150,242.526 179.078,242.197 179.662 C 241.869 180.246,241.600 180.989,241.600 181.313 C 241.600 181.637,241.330 182.126,241.000 182.400 C 240.670 182.674,240.400 183.153,240.400 183.465 C 240.400 184.007,239.163 185.971,238.100 187.118 C 237.825 187.414,237.600 187.843,237.600 188.071 C 237.600 188.299,237.060 189.167,236.400 190.000 C 235.740 190.833,235.200 191.632,235.200 191.774 C 235.200 192.017,230.228 198.694,229.075 200.000 C 228.783 200.330,227.721 201.680,226.715 203.000 C 225.709 204.320,222.614 207.740,219.838 210.600 C 212.566 218.091,197.133 233.600,196.950 233.600 C 196.864 233.600,192.160 238.173,186.497 243.762 C 180.834 249.351,174.246 255.804,171.857 258.103 C 168.445 261.387,167.659 262.337,168.190 262.541 C 168.562 262.683,188.359 262.800,212.184 262.800 C 248.451 262.800,255.576 262.890,255.959 263.350 C 256.279 263.736,256.383 266.689,256.307 273.250 L 256.200 282.600 199.000 282.710 C 167.540 282.770,141.395 282.721,140.900 282.602 C 139.916 282.365,139.474 267.436,140.380 265.052 C 140.589 264.502,151.398 253.375,164.399 240.326 C 177.400 227.277,190.954 213.559,194.519 209.843 C 198.083 206.126,202.485 201.573,204.300 199.725 C 206.115 197.877,207.600 196.283,207.600 196.183 C 207.600 196.082,207.915 195.675,208.300 195.278 C 208.685 194.880,209.630 193.790,210.400 192.854 C 211.170 191.918,212.133 190.758,212.540 190.276 C 212.947 189.794,213.931 188.410,214.726 187.200 C 215.522 185.990,216.272 184.910,216.394 184.800 C 216.516 184.690,216.834 184.105,217.100 183.500 C 217.365 182.895,217.767 182.400,217.991 182.400 C 218.216 182.400,218.400 182.049,218.400 181.620 C 218.400 181.191,218.625 180.696,218.900 180.520 C 219.175 180.344,220.205 178.580,221.190 176.600 C 222.174 174.620,223.119 172.940,223.290 172.867 C 223.460 172.793,223.600 172.423,223.600 172.043 C 223.600 171.664,223.864 171.004,224.187 170.576 C 224.510 170.149,224.780 169.301,224.787 168.690 C 224.794 168.080,225.160 166.556,225.600 165.304 C 226.040 164.052,226.408 162.211,226.418 161.214 C 226.427 160.216,226.695 158.680,227.012 157.800 C 227.698 155.896,227.823 147.983,227.177 147.337 C 226.944 147.104,226.647 145.853,226.517 144.557 C 226.386 143.261,225.946 141.573,225.540 140.806 C 225.133 140.039,224.800 139.132,224.800 138.791 C 224.800 137.938,223.533 135.524,222.509 134.424 C 222.044 133.926,221.168 132.733,220.562 131.774 C 219.955 130.814,218.996 129.865,218.429 129.664 C 217.863 129.463,216.928 128.871,216.351 128.349 C 214.940 127.071,212.220 125.600,211.270 125.600 C 210.845 125.600,210.274 125.330,210.000 125.000 C 209.726 124.670,208.997 124.400,208.380 124.400 C 207.762 124.400,206.950 124.093,206.575 123.718 C 205.551 122.694,186.247 122.701,184.784 123.726 C 184.255 124.097,183.074 124.400,182.160 124.400 C 181.171 124.400,180.296 124.643,180.000 125.000 C 179.726 125.330,178.939 125.606,178.251 125.614 C 177.563 125.621,176.280 125.975,175.400 126.400 C 174.520 126.825,173.507 127.179,173.149 127.186 C 172.791 127.194,172.274 127.470,172.000 127.800 C 171.726 128.130,171.096 128.400,170.600 128.400 C 170.104 128.400,169.474 128.670,169.200 129.000 C 168.926 129.330,168.467 129.600,168.180 129.600 C 167.892 129.600,167.414 129.825,167.118 130.100 C 165.934 131.197,163.998 132.400,163.416 132.400 C 163.077 132.400,162.800 132.563,162.800 132.762 C 162.800 132.961,161.995 133.596,161.011 134.173 C 160.027 134.749,158.572 135.816,157.778 136.544 C 154.876 139.202,154.176 139.417,152.905 138.041 C 151.280 136.281,150.707 135.575,149.706 134.099 C 148.717 132.643,148.682 132.599,146.395 130.000 C 145.524 129.010,144.809 128.057,144.806 127.883 C 144.799 127.537,144.217 126.783,143.039 125.595 C 142.213 124.762,142.692 123.600,143.862 123.600 C 144.171 123.600,144.529 123.330,144.655 123.000 C 144.782 122.670,145.061 122.400,145.275 122.400 C 145.490 122.400,146.416 121.798,147.333 121.062 C 148.250 120.326,149.315 119.612,149.700 119.474 C 150.085 119.337,150.400 119.039,150.400 118.813 C 150.400 118.586,150.578 118.400,150.797 118.400 C 151.015 118.400,152.018 117.770,153.027 117.000 C 154.036 116.230,155.098 115.600,155.388 115.600 C 155.677 115.600,156.018 115.330,156.145 115.000 C 156.271 114.670,156.646 114.400,156.977 114.400 C 157.309 114.400,158.747 113.770,160.173 113.000 C 161.599 112.230,162.966 111.600,163.211 111.600 C 163.457 111.600,163.927 111.330,164.257 111.000 C 164.587 110.670,165.182 110.400,165.580 110.400 C 165.977 110.400,166.522 110.135,166.791 109.811 C 167.060 109.486,167.921 109.101,168.703 108.954 C 169.485 108.808,170.592 108.444,171.163 108.146 C 171.733 107.848,172.853 107.604,173.651 107.602 C 174.450 107.601,175.326 107.330,175.600 107.000 C 175.896 106.643,176.771 106.400,177.760 106.400 C 178.674 106.400,179.848 106.102,180.369 105.737 C 181.061 105.252,182.727 104.988,186.558 104.754 C 189.441 104.578,192.610 104.274,193.600 104.078 C 195.605 103.680,201.043 103.884,203.200 104.437 " stroke="none" fill="#74c4ec" fill-rule="evenodd"></path><path id="path2" d="M188.200 105.397 C 182.820 105.863,180.713 106.236,176.800 107.412 C 175.810 107.709,173.560 108.345,171.800 108.825 C 165.360 110.582,143.600 122.903,143.600 124.793 C 143.600 125.089,146.549 128.996,151.098 134.726 C 153.123 137.276,154.205 138.341,154.528 138.100 C 154.788 137.907,156.170 136.855,157.600 135.761 C 164.652 130.368,170.415 127.238,177.140 125.147 C 183.959 123.027,184.918 122.816,189.797 122.368 C 192.435 122.126,194.746 121.834,194.932 121.718 C 195.245 121.525,200.242 122.065,205.000 122.807 C 207.886 123.257,213.351 125.345,215.100 126.665 C 216.745 127.907,217.774 128.582,219.000 129.225 C 220.136 129.821,224.701 135.975,225.229 137.622 C 225.699 139.090,225.714 139.131,226.886 142.200 C 228.874 147.409,228.276 158.616,225.468 168.803 C 224.117 173.703,216.853 186.310,212.221 191.793 C 207.598 197.267,208.782 195.975,198.800 206.435 C 195.170 210.239,191.681 213.902,191.048 214.576 C 190.414 215.249,178.935 226.803,165.540 240.251 L 141.184 264.702 141.292 273.251 L 141.400 281.800 198.600 281.800 L 255.800 281.800 255.908 272.900 L 256.015 264.000 211.908 263.995 C 187.648 263.992,167.399 263.882,166.910 263.750 C 165.701 263.426,166.185 262.580,169.341 259.500 C 170.693 258.179,177.560 251.501,184.600 244.659 C 208.445 221.486,222.683 206.881,227.942 200.200 C 229.500 198.220,230.924 196.420,231.106 196.200 C 231.288 195.980,232.239 194.630,233.219 193.200 C 234.198 191.770,235.097 190.510,235.215 190.400 C 236.015 189.658,239.830 183.111,241.182 180.161 C 242.080 178.203,242.995 176.281,243.216 175.891 C 243.788 174.882,244.982 171.496,245.998 168.000 C 246.478 166.350,247.114 164.280,247.411 163.400 C 247.950 161.802,248.640 153.626,248.491 150.600 C 248.264 146.009,247.656 140.460,247.262 139.400 C 247.017 138.740,246.432 136.850,245.961 135.200 C 243.333 125.984,234.354 115.239,226.000 111.313 C 220.821 108.880,218.800 108.035,216.800 107.465 C 213.894 106.638,209.153 105.594,208.400 105.615 C 207.296 105.645,210.176 106.667,212.102 106.928 C 214.118 107.201,217.407 108.115,219.400 108.957 C 225.038 111.339,227.682 112.708,229.154 114.006 C 229.899 114.663,230.754 115.200,231.054 115.200 C 231.354 115.200,231.600 115.386,231.600 115.613 C 231.600 115.839,231.915 116.143,232.300 116.288 C 233.858 116.872,239.987 123.642,241.275 126.200 C 241.607 126.860,242.626 128.827,243.539 130.570 C 244.453 132.314,245.206 134.114,245.214 134.570 C 245.222 135.027,245.486 135.850,245.800 136.400 C 246.114 136.950,246.378 137.904,246.386 138.520 C 246.394 139.136,246.702 140.216,247.070 140.920 C 248.047 142.784,248.029 160.774,247.049 162.600 C 246.695 163.260,246.404 164.199,246.402 164.686 C 246.401 165.174,246.152 166.164,245.849 166.886 C 245.545 167.609,244.977 169.280,244.586 170.600 C 244.195 171.920,243.558 173.720,243.170 174.600 C 241.494 178.408,239.526 182.646,239.176 183.200 C 238.968 183.530,238.637 184.167,238.441 184.616 C 238.244 185.065,237.795 185.673,237.442 185.965 C 237.089 186.258,236.800 186.746,236.800 187.049 C 236.800 187.352,236.620 187.600,236.400 187.600 C 236.180 187.600,236.000 187.841,236.000 188.137 C 236.000 188.432,235.638 189.107,235.196 189.637 C 234.754 190.166,232.940 192.562,231.165 194.960 C 226.939 200.668,223.821 204.538,221.600 206.827 C 220.610 207.848,216.200 212.421,211.800 216.990 C 207.400 221.559,202.637 226.401,201.217 227.749 C 194.711 233.921,189.276 239.201,181.811 246.600 C 177.372 251.000,172.113 256.130,170.125 258.000 C 165.358 262.484,164.729 263.441,166.184 263.994 C 166.883 264.260,182.504 264.400,211.426 264.400 L 255.600 264.400 255.600 272.801 L 255.600 281.203 198.700 281.101 L 141.800 281.000 141.692 273.130 L 141.583 265.261 148.892 257.780 C 152.911 253.666,164.660 241.807,175.000 231.426 C 185.340 221.046,196.140 210.062,199.000 207.016 C 201.860 203.970,205.145 200.504,206.300 199.313 C 207.455 198.122,208.400 197.063,208.400 196.960 C 208.400 196.857,208.895 196.279,209.500 195.676 C 210.423 194.754,214.512 189.940,215.509 188.600 C 216.391 187.414,218.209 184.529,218.660 183.600 C 218.819 183.270,219.547 182.147,220.275 181.104 C 221.004 180.061,221.600 179.127,221.600 179.027 C 221.600 178.706,224.800 172.134,225.105 171.829 C 225.267 171.667,225.630 170.604,225.912 169.467 C 226.193 168.330,226.694 166.320,227.024 165.000 C 228.305 159.873,228.428 158.800,228.449 152.588 C 228.469 146.419,228.219 143.450,227.608 142.600 C 227.450 142.380,226.894 140.850,226.373 139.200 C 225.434 136.228,224.735 134.948,222.800 132.658 C 220.685 130.154,219.336 128.875,217.600 127.727 C 216.610 127.073,215.100 126.056,214.245 125.469 C 213.390 124.882,211.950 124.216,211.045 123.989 C 210.140 123.762,208.922 123.312,208.338 122.988 C 207.754 122.665,206.674 122.394,205.938 122.386 C 205.202 122.378,203.430 122.115,202.000 121.800 C 198.611 121.055,194.232 121.055,190.000 121.800 C 188.130 122.129,185.880 122.400,185.000 122.402 C 184.120 122.404,182.933 122.648,182.363 122.946 C 181.792 123.244,180.622 123.618,179.763 123.777 C 178.152 124.075,174.064 125.370,172.873 125.959 C 172.503 126.143,170.940 126.895,169.400 127.631 C 167.860 128.367,166.150 129.263,165.600 129.623 C 160.245 133.125,158.678 134.194,156.621 135.749 L 154.242 137.547 153.278 136.506 C 152.747 135.933,151.467 134.370,150.434 133.032 C 149.401 131.695,147.620 129.390,146.478 127.911 C 143.960 124.653,143.968 124.876,146.300 123.318 C 148.954 121.546,152.739 118.885,154.400 117.624 C 155.170 117.040,157.240 115.880,159.000 115.047 C 160.760 114.214,162.470 113.368,162.800 113.166 C 163.130 112.963,163.850 112.609,164.400 112.377 C 164.950 112.145,166.494 111.426,167.832 110.778 C 169.169 110.130,170.663 109.600,171.151 109.600 C 171.640 109.600,172.526 109.355,173.120 109.056 C 173.714 108.756,175.001 108.388,175.980 108.238 C 176.959 108.088,177.956 107.802,178.196 107.603 C 179.341 106.653,189.802 105.599,198.740 105.533 C 206.408 105.476,207.155 105.422,203.600 105.182 C 197.795 104.790,194.698 104.833,188.200 105.397 " stroke="none" fill="#c1e6f5" fill-rule="evenodd"></path><path id="path3" d="M193.461 104.030 C 192.394 104.203,191.465 104.402,191.394 104.472 C 191.324 104.543,194.177 104.616,197.734 104.635 C 201.290 104.655,203.660 104.539,203.000 104.377 C 201.022 103.893,195.535 103.693,193.461 104.030 M182.011 105.094 C 180.889 105.304,179.148 106.400,179.937 106.400 C 180.221 106.400,180.819 106.204,181.267 105.964 C 181.715 105.724,183.999 105.390,186.341 105.222 L 190.600 104.916 186.800 104.912 C 184.710 104.910,182.555 104.992,182.011 105.094 M208.042 105.184 C 209.495 105.333,211.240 105.685,211.921 105.967 C 212.602 106.249,213.375 106.408,213.639 106.320 C 214.644 105.985,209.806 104.803,207.654 104.857 L 205.400 104.914 208.042 105.184 M175.600 107.000 C 174.995 107.730,175.007 107.730,177.000 107.012 C 178.596 106.436,178.597 106.435,177.349 106.418 C 176.661 106.408,175.874 106.670,175.600 107.000 M215.800 106.674 C 216.240 106.773,217.167 107.112,217.860 107.427 C 218.554 107.742,219.262 108.000,219.434 108.000 C 219.606 108.000,220.479 108.344,221.374 108.764 C 222.268 109.184,224.012 109.996,225.249 110.569 C 226.486 111.141,228.376 112.270,229.449 113.078 C 230.575 113.925,231.065 114.162,230.607 113.638 C 229.823 112.742,226.581 110.400,226.124 110.400 C 225.994 110.400,225.058 110.014,224.044 109.543 C 223.030 109.072,221.570 108.414,220.800 108.082 C 220.030 107.750,218.922 107.236,218.338 106.939 C 217.754 106.643,216.764 106.421,216.138 106.446 C 215.327 106.479,215.230 106.545,215.800 106.674 M171.242 108.034 C 170.715 108.245,170.394 108.528,170.529 108.662 C 170.664 108.797,171.275 108.714,171.887 108.476 C 172.499 108.239,173.360 107.966,173.800 107.869 C 174.308 107.757,174.162 107.685,173.400 107.672 C 172.740 107.660,171.769 107.823,171.242 108.034 M167.741 109.197 C 166.795 109.579,166.120 110.400,166.753 110.400 C 166.973 110.400,167.262 110.223,167.396 110.006 C 167.530 109.790,168.216 109.446,168.920 109.242 C 169.678 109.023,169.874 108.868,169.400 108.861 C 168.960 108.856,168.213 109.007,167.741 109.197 M164.412 110.784 C 164.088 110.989,163.941 111.275,164.086 111.419 C 164.230 111.563,164.760 111.393,165.263 111.041 C 166.249 110.350,165.470 110.115,164.412 110.784 M160.400 112.865 C 159.190 113.538,157.762 114.213,157.226 114.366 C 156.690 114.519,156.183 114.850,156.099 115.103 C 156.015 115.355,157.173 114.959,158.673 114.222 C 162.923 112.134,163.847 111.603,163.200 111.624 C 162.870 111.634,161.610 112.193,160.400 112.865 M153.027 117.000 C 152.018 117.770,151.034 118.400,150.839 118.400 C 150.645 118.400,150.382 118.670,150.255 119.000 C 150.129 119.330,149.813 119.600,149.554 119.600 C 149.295 119.600,148.314 120.230,147.374 121.000 C 146.434 121.770,145.490 122.400,145.275 122.400 C 145.061 122.400,144.779 122.677,144.649 123.015 C 144.520 123.354,145.625 122.773,147.107 121.724 C 154.464 116.515,155.687 115.600,155.290 115.600 C 155.054 115.600,154.036 116.230,153.027 117.000 M234.240 116.746 C 235.611 117.753,238.205 120.483,240.755 123.600 C 241.205 124.150,241.579 124.411,241.587 124.180 C 241.618 123.190,234.235 115.600,233.241 115.600 C 232.932 115.600,233.382 116.116,234.240 116.746 M193.200 122.401 C 192.210 122.588,190.133 122.754,188.585 122.770 C 185.695 122.801,179.951 124.354,182.611 124.386 C 183.277 124.394,184.255 124.097,184.784 123.726 C 185.621 123.140,187.061 123.050,195.973 123.026 C 201.736 123.012,204.803 122.896,203.000 122.761 C 201.240 122.630,198.720 122.419,197.400 122.291 C 196.080 122.164,194.190 122.213,193.200 122.401 M206.400 123.627 C 206.400 124.004,208.318 124.615,208.603 124.330 C 208.695 124.239,208.236 123.963,207.585 123.717 C 206.933 123.471,206.400 123.430,206.400 123.627 M142.788 124.214 C 142.368 124.721,142.411 124.961,143.039 125.595 C 144.217 126.783,144.799 127.537,144.806 127.883 C 144.809 128.057,145.524 129.010,146.395 130.000 C 148.682 132.599,148.717 132.643,149.706 134.099 C 150.707 135.575,151.280 136.281,152.905 138.041 C 154.176 139.417,154.876 139.202,157.778 136.544 C 158.572 135.816,160.027 134.749,161.011 134.173 C 161.995 133.596,162.800 132.973,162.800 132.789 C 162.800 132.399,159.918 134.293,156.452 136.960 L 154.028 138.825 152.000 136.313 C 144.728 127.299,142.878 124.632,143.546 124.123 C 143.906 123.850,143.997 123.620,143.749 123.613 C 143.501 123.606,143.069 123.876,142.788 124.214 M178.200 125.014 L 177.000 125.564 178.251 125.582 C 178.939 125.592,179.726 125.330,180.000 125.000 C 180.642 124.227,179.908 124.232,178.200 125.014 M210.000 125.000 C 210.274 125.330,210.881 125.594,211.349 125.586 C 212.151 125.572,212.142 125.538,211.200 125.000 C 209.890 124.251,209.379 124.251,210.000 125.000 M241.600 124.888 C 241.600 124.990,242.038 125.867,242.573 126.837 C 243.108 127.807,243.952 129.400,244.447 130.379 C 244.942 131.357,245.423 131.932,245.515 131.656 C 245.607 131.380,245.394 130.835,245.041 130.445 C 244.688 130.056,244.400 129.431,244.400 129.056 C 244.400 128.681,244.141 128.276,243.824 128.154 C 243.508 128.033,243.136 127.421,242.999 126.794 C 242.795 125.864,241.600 124.237,241.600 124.888 M174.400 126.274 C 170.421 128.044,169.811 128.389,170.651 128.394 C 171.119 128.398,171.726 128.130,172.000 127.800 C 172.274 127.470,172.791 127.194,173.149 127.186 C 173.507 127.179,174.520 126.825,175.400 126.400 C 177.298 125.483,176.425 125.373,174.400 126.274 M213.400 126.400 C 214.060 126.837,214.780 127.195,215.000 127.195 C 215.220 127.195,214.860 126.837,214.200 126.400 C 213.540 125.963,212.820 125.605,212.600 125.605 C 212.380 125.605,212.740 125.963,213.400 126.400 M216.600 128.553 C 217.824 129.591,218.647 129.923,218.198 129.197 C 218.061 128.976,217.376 128.511,216.675 128.165 L 215.400 127.535 216.600 128.553 M168.400 129.000 C 168.122 129.335,168.079 129.600,168.302 129.600 C 168.522 129.600,168.926 129.330,169.200 129.000 C 169.478 128.665,169.521 128.400,169.298 128.400 C 169.078 128.400,168.674 128.670,168.400 129.000 M165.005 131.039 C 163.907 131.787,163.239 132.400,163.521 132.400 C 164.016 132.400,166.016 131.121,167.118 130.100 C 168.111 129.179,167.020 129.664,165.005 131.039 M219.552 130.441 C 219.983 130.903,220.836 132.073,221.448 133.041 C 222.059 134.008,222.688 134.800,222.844 134.800 C 223.209 134.800,224.633 137.843,224.982 139.367 C 225.326 140.871,226.400 142.495,226.400 141.513 C 226.400 141.147,226.234 140.745,226.031 140.619 C 225.828 140.494,225.534 139.808,225.377 139.095 C 224.913 136.978,220.031 129.600,219.095 129.600 C 218.916 129.600,219.121 129.978,219.552 130.441 M245.775 133.200 C 245.909 133.750,246.288 135.100,246.617 136.200 L 247.215 138.200 247.026 136.382 C 246.923 135.382,246.544 134.032,246.184 133.382 C 245.595 132.317,245.555 132.299,245.775 133.200 M247.411 139.100 C 247.574 139.485,247.843 140.430,248.008 141.200 C 248.304 142.582,248.309 142.585,248.349 141.400 C 248.402 139.820,248.005 138.400,247.511 138.400 C 247.287 138.400,247.244 138.705,247.411 139.100 M226.570 144.557 C 226.671 145.853,226.944 147.104,227.177 147.337 C 227.779 147.939,227.696 146.646,226.975 144.200 L 226.386 142.200 226.570 144.557 M248.676 147.800 C 249.011 150.890,249.011 152.030,248.680 155.200 L 248.407 157.800 248.996 155.800 C 249.728 153.311,249.719 149.115,248.977 147.000 L 248.416 145.400 248.676 147.800 M227.737 152.200 C 227.739 153.960,227.809 154.630,227.893 153.689 C 227.978 152.749,227.977 151.309,227.891 150.489 C 227.805 149.670,227.736 150.440,227.737 152.200 M226.881 158.200 C 226.619 159.080,226.418 160.520,226.436 161.400 C 226.465 162.933,226.491 162.900,227.047 160.600 C 227.745 157.717,227.609 155.756,226.881 158.200 M247.947 162.200 C 247.816 163.080,247.518 164.340,247.287 165.000 C 246.057 168.506,245.548 170.433,245.732 170.890 C 245.845 171.171,245.951 171.006,245.968 170.524 C 245.986 170.042,246.170 169.542,246.377 169.414 C 246.584 169.286,246.881 168.331,247.036 167.291 C 247.191 166.251,247.573 165.009,247.885 164.531 C 248.205 164.039,248.394 162.995,248.319 162.131 L 248.187 160.600 247.947 162.200 M225.462 165.641 C 225.098 166.769,224.821 168.166,224.846 168.746 C 224.882 169.549,224.935 169.610,225.069 169.000 C 225.165 168.560,225.530 167.251,225.880 166.091 C 226.704 163.356,226.330 162.954,225.462 165.641 M224.032 170.739 C 223.795 171.184,223.607 171.784,223.616 172.074 C 223.625 172.363,223.909 172.089,224.247 171.465 C 224.586 170.840,224.773 170.240,224.664 170.130 C 224.554 170.021,224.270 170.295,224.032 170.739 M244.812 172.831 C 244.515 173.584,243.662 175.527,242.917 177.148 C 242.172 178.770,241.631 180.164,241.714 180.248 C 241.874 180.408,242.515 179.259,243.191 177.600 C 243.415 177.050,243.752 176.330,243.940 176.000 C 244.965 174.204,245.669 172.408,245.522 171.965 C 245.430 171.689,245.110 172.078,244.812 172.831 M221.400 176.079 C 219.527 179.901,219.344 180.356,219.900 179.800 C 220.265 179.436,223.600 173.246,223.600 172.933 C 223.600 172.134,222.708 173.410,221.400 176.079 M218.538 181.017 C 218.178 181.955,218.567 182.066,219.119 181.182 C 219.428 180.687,219.454 180.400,219.191 180.400 C 218.962 180.400,218.668 180.678,218.538 181.017 M240.871 181.635 C 240.581 182.099,240.421 182.555,240.515 182.649 C 240.793 182.926,241.688 181.664,241.537 181.210 C 241.460 180.980,241.160 181.171,240.871 181.635 M217.100 183.500 C 216.834 184.105,216.516 184.690,216.394 184.800 C 216.272 184.910,215.522 185.990,214.726 187.200 C 213.931 188.410,212.947 189.794,212.540 190.276 C 212.133 190.758,211.170 191.918,210.400 192.854 C 209.630 193.790,208.685 194.880,208.300 195.278 C 207.915 195.675,207.600 196.082,207.600 196.183 C 207.600 196.283,206.115 197.877,204.300 199.725 C 202.485 201.573,198.083 206.126,194.519 209.843 C 190.954 213.559,177.400 227.277,164.399 240.326 C 151.398 253.375,140.589 264.502,140.380 265.052 C 139.474 267.436,139.916 282.365,140.900 282.602 C 144.038 283.359,256.193 282.580,256.330 281.800 C 256.463 281.052,256.437 281.045,255.936 281.703 C 255.428 282.369,252.366 282.400,198.200 282.303 L 141.000 282.200 140.892 273.450 L 140.784 264.700 164.565 240.850 C 177.645 227.732,189.189 216.100,190.219 215.000 C 191.963 213.136,193.500 211.526,204.166 200.387 C 206.385 198.070,208.563 195.730,209.006 195.187 C 209.450 194.644,210.766 193.052,211.931 191.649 C 213.096 190.247,214.880 187.817,215.896 186.249 C 216.911 184.682,217.912 183.175,218.120 182.900 C 218.369 182.571,218.341 182.400,218.040 182.400 C 217.789 182.400,217.365 182.895,217.100 183.500 M238.634 185.727 C 235.758 190.269,233.407 193.769,232.681 194.588 C 232.286 195.035,231.701 195.685,231.381 196.034 C 231.062 196.382,230.800 196.813,230.800 196.992 C 230.800 197.171,230.131 198.146,229.314 199.159 C 227.806 201.026,227.458 201.438,224.356 205.000 C 219.770 210.267,203.055 227.128,185.600 244.094 C 168.117 261.088,167.274 261.935,166.997 262.810 C 166.748 263.593,167.119 263.600,211.373 263.600 C 245.108 263.600,256.000 263.714,256.000 264.067 C 256.000 264.323,256.116 264.418,256.257 264.276 C 257.708 262.825,256.957 262.800,212.184 262.800 C 188.359 262.800,168.562 262.683,168.190 262.541 C 167.659 262.337,168.445 261.387,171.857 258.103 C 174.246 255.804,180.834 249.351,186.497 243.762 C 192.160 238.173,196.864 233.600,196.950 233.600 C 197.133 233.600,212.566 218.091,219.838 210.600 C 222.614 207.740,225.709 204.320,226.715 203.000 C 227.721 201.680,228.783 200.330,229.075 200.000 C 230.228 198.694,235.200 192.017,235.200 191.774 C 235.200 191.632,235.740 190.833,236.400 190.000 C 237.060 189.167,237.600 188.299,237.600 188.071 C 237.600 187.843,237.825 187.414,238.100 187.118 C 239.160 185.975,240.448 183.944,240.327 183.607 C 240.257 183.413,239.495 184.367,238.634 185.727 " stroke="none" fill="#92d4ec" fill-rule="evenodd"></path><path id="path4" d="M195.300 104.691 C 196.125 104.778,197.475 104.778,198.300 104.691 C 199.125 104.605,198.450 104.534,196.800 104.534 C 195.150 104.534,194.475 104.605,195.300 104.691 M191.100 105.082 C 191.595 105.178,192.405 105.178,192.900 105.082 C 193.395 104.987,192.990 104.909,192.000 104.909 C 191.010 104.909,190.605 104.987,191.100 105.082 M201.491 105.089 C 202.201 105.177,203.461 105.179,204.291 105.092 C 205.121 105.005,204.540 104.933,203.000 104.931 C 201.460 104.929,200.781 105.000,201.491 105.089 M185.107 105.490 C 185.826 105.579,186.906 105.577,187.507 105.486 C 188.108 105.395,187.520 105.322,186.200 105.324 C 184.880 105.326,184.388 105.401,185.107 105.490 M208.800 105.556 C 212.682 106.475,212.624 106.466,211.929 106.022 C 211.560 105.786,210.390 105.510,209.329 105.409 C 207.669 105.250,207.595 105.271,208.800 105.556 M181.200 106.018 C 180.762 106.315,180.924 106.352,181.800 106.156 C 183.271 105.827,183.590 105.598,182.567 105.606 C 182.145 105.609,181.530 105.795,181.200 106.018 M175.600 107.425 C 174.830 107.716,174.494 107.965,174.854 107.977 C 175.214 107.990,176.114 107.737,176.854 107.416 C 178.520 106.692,177.516 106.700,175.600 107.425 M216.200 107.200 C 217.301 107.673,217.692 107.673,217.400 107.200 C 217.264 106.980,216.758 106.813,216.276 106.828 C 215.431 106.855,215.429 106.869,216.200 107.200 M220.600 108.792 C 224.351 110.624,227.381 111.953,227.511 111.822 C 227.588 111.745,226.605 111.198,225.326 110.605 C 224.046 110.013,222.268 109.184,221.374 108.764 C 220.479 108.344,219.579 108.002,219.374 108.006 C 219.168 108.009,219.720 108.363,220.600 108.792 M167.776 109.822 C 167.012 110.434,167.013 110.438,167.800 110.076 C 168.240 109.874,168.870 109.608,169.200 109.486 C 169.718 109.293,169.715 109.259,169.176 109.232 C 168.834 109.214,168.204 109.480,167.776 109.822 M162.106 112.478 C 161.174 112.955,160.475 113.409,160.553 113.486 C 160.630 113.563,161.572 113.175,162.647 112.624 C 163.721 112.072,164.420 111.618,164.200 111.616 C 163.980 111.613,163.038 112.001,162.106 112.478 M228.000 112.153 C 228.000 112.263,229.080 113.184,230.400 114.200 C 231.720 115.216,232.800 115.957,232.800 115.847 C 232.800 115.737,231.720 114.816,230.400 113.800 C 229.080 112.784,228.000 112.043,228.000 112.153 M154.000 116.850 C 152.350 117.969,150.730 119.171,150.400 119.521 C 149.867 120.086,149.867 120.108,150.400 119.721 C 150.730 119.481,152.513 118.276,154.361 117.043 C 156.210 115.809,157.560 114.803,157.361 114.807 C 157.163 114.811,155.650 115.730,154.000 116.850 M235.691 118.530 C 237.172 120.000,239.107 122.117,239.991 123.237 C 240.876 124.356,241.600 125.139,241.600 124.977 C 241.600 124.223,235.630 117.572,234.000 116.511 C 233.450 116.152,234.211 117.061,235.691 118.530 M147.700 121.240 C 146.765 121.902,146.000 122.533,146.000 122.641 C 146.000 122.750,146.810 122.281,147.800 121.600 C 148.790 120.919,149.600 120.280,149.600 120.181 C 149.600 119.905,149.524 119.948,147.700 121.240 M194.400 121.856 C 194.070 121.947,192.360 122.187,190.600 122.390 L 187.400 122.760 191.000 122.493 C 192.980 122.346,195.860 122.243,197.400 122.264 C 199.835 122.297,199.992 122.259,198.600 121.974 C 196.910 121.628,195.394 121.585,194.400 121.856 M201.305 122.687 C 201.914 122.779,202.814 122.777,203.305 122.682 C 203.797 122.587,203.300 122.511,202.200 122.514 C 201.100 122.517,200.697 122.595,201.305 122.687 M144.092 123.764 C 142.888 124.616,142.839 124.733,143.469 125.245 C 144.029 125.699,144.094 125.701,143.826 125.256 C 143.605 124.888,143.872 124.405,144.649 123.770 C 146.121 122.566,145.791 122.562,144.092 123.764 M183.000 123.414 C 181.385 124.154,182.351 124.155,184.054 123.416 C 184.794 123.094,185.130 122.839,184.800 122.848 C 184.470 122.857,183.660 123.112,183.000 123.414 M206.800 123.400 C 207.350 123.714,207.980 123.972,208.200 123.972 C 208.420 123.972,208.150 123.714,207.600 123.400 C 207.050 123.086,206.420 122.828,206.200 122.828 C 205.980 122.828,206.250 123.086,206.800 123.400 M177.200 125.000 C 176.430 125.297,176.070 125.545,176.400 125.552 C 176.730 125.558,177.540 125.317,178.200 125.014 C 179.745 124.307,179.026 124.297,177.200 125.000 M210.433 124.548 C 210.927 124.986,214.729 126.609,214.538 126.300 C 214.414 126.099,213.507 125.589,212.523 125.167 C 210.837 124.444,210.056 124.213,210.433 124.548 M173.800 126.214 C 173.140 126.517,172.870 126.766,173.200 126.768 C 173.530 126.770,174.250 126.514,174.800 126.200 C 176.065 125.477,175.389 125.487,173.800 126.214 M144.975 127.332 C 145.591 128.139,146.176 128.800,146.275 128.800 C 146.553 128.800,144.821 126.460,144.309 126.144 C 144.059 125.989,144.359 126.524,144.975 127.332 M217.709 128.800 C 218.269 129.240,218.857 129.600,219.017 129.600 C 219.177 129.600,218.850 129.240,218.291 128.800 C 217.731 128.360,217.143 128.000,216.983 128.000 C 216.823 128.000,217.150 128.360,217.709 128.800 M165.800 130.172 C 165.360 130.464,163.695 131.541,162.100 132.565 C 160.505 133.590,159.200 134.522,159.200 134.638 C 159.200 134.882,159.365 134.786,162.800 132.542 C 165.714 130.639,167.098 129.634,166.800 129.639 C 166.690 129.641,166.240 129.881,165.800 130.172 M221.800 132.800 C 222.816 134.120,223.737 135.200,223.847 135.200 C 223.957 135.200,223.216 134.120,222.200 132.800 C 221.184 131.480,220.263 130.400,220.153 130.400 C 220.043 130.400,220.784 131.480,221.800 132.800 M244.724 131.400 C 244.926 131.840,245.192 132.470,245.314 132.800 C 245.507 133.318,245.541 133.315,245.568 132.776 C 245.586 132.434,245.320 131.804,244.978 131.376 C 244.366 130.612,244.362 130.613,244.724 131.400 M150.329 134.300 C 152.746 137.692,154.192 138.935,154.810 138.150 C 155.348 137.467,155.341 137.447,154.731 137.924 C 154.143 138.384,153.806 138.129,151.959 135.824 C 149.823 133.158,148.903 132.298,150.329 134.300 M224.025 135.800 C 224.025 136.020,224.290 136.549,224.613 136.976 C 224.936 137.404,225.200 137.573,225.200 137.353 C 225.200 137.133,224.936 136.604,224.613 136.176 C 224.290 135.749,224.025 135.580,224.025 135.800 M246.830 138.400 C 246.828 138.976,247.957 141.266,247.986 140.746 C 247.994 140.606,247.737 139.886,247.416 139.146 C 247.094 138.406,246.831 138.070,246.830 138.400 M248.124 144.600 C 248.126 145.920,248.201 146.412,248.290 145.693 C 248.379 144.974,248.377 143.894,248.286 143.293 C 248.195 142.692,248.122 143.280,248.124 144.600 M226.834 143.400 C 226.872 144.766,227.538 146.042,227.566 144.800 C 227.578 144.250,227.413 143.530,227.200 143.200 C 226.880 142.705,226.816 142.740,226.834 143.400 M227.701 147.800 C 227.705 148.680,227.787 148.993,227.883 148.495 C 227.979 147.998,227.975 147.278,227.875 146.895 C 227.775 146.513,227.696 146.920,227.701 147.800 M248.538 151.600 C 248.526 154.636,248.560 154.801,248.864 153.141 C 249.052 152.119,249.058 150.589,248.879 149.741 C 248.613 148.486,248.550 148.830,248.538 151.600 M227.709 156.800 C 227.709 157.790,227.787 158.195,227.882 157.700 C 227.978 157.205,227.978 156.395,227.882 155.900 C 227.787 155.405,227.709 155.810,227.709 156.800 M248.124 158.600 C 248.126 159.920,248.201 160.412,248.290 159.693 C 248.379 158.974,248.377 157.894,248.286 157.293 C 248.195 156.692,248.122 157.280,248.124 158.600 M227.022 160.622 C 226.872 161.425,226.838 162.172,226.948 162.282 C 227.058 162.392,227.272 161.825,227.422 161.022 C 227.573 160.219,227.606 159.473,227.496 159.363 C 227.386 159.253,227.173 159.819,227.022 160.622 M247.515 163.010 C 247.392 163.445,247.169 164.160,247.020 164.600 C 246.871 165.040,247.042 164.894,247.400 164.276 C 247.758 163.658,247.981 162.942,247.895 162.686 C 247.810 162.430,247.639 162.576,247.515 163.010 M225.800 166.000 C 225.650 166.473,225.617 166.950,225.727 167.060 C 225.837 167.170,226.050 166.873,226.200 166.400 C 226.350 165.927,226.383 165.450,226.273 165.340 C 226.163 165.230,225.950 165.527,225.800 166.000 M246.312 166.800 C 246.176 167.350,245.950 168.250,245.810 168.800 C 245.652 169.422,245.797 169.279,246.192 168.421 C 246.542 167.662,246.768 166.762,246.694 166.421 C 246.610 166.031,246.468 166.172,246.312 166.800 M245.132 170.800 C 245.006 171.350,244.778 172.160,244.626 172.600 C 244.474 173.040,244.642 172.895,244.999 172.277 C 245.357 171.659,245.585 170.849,245.505 170.477 C 245.402 169.994,245.295 170.087,245.132 170.800 M220.323 179.132 C 219.732 180.159,218.774 181.810,218.195 182.800 C 217.617 183.790,217.439 184.240,217.802 183.800 C 218.788 182.602,221.730 177.597,221.552 177.419 C 221.467 177.334,220.914 178.105,220.323 179.132 M242.065 178.217 C 241.395 179.688,241.523 180.002,242.247 178.665 C 242.586 178.040,242.788 177.454,242.696 177.363 C 242.605 177.271,242.321 177.656,242.065 178.217 M240.857 180.857 C 240.575 181.309,240.432 181.766,240.540 181.873 C 240.647 181.981,240.944 181.678,241.200 181.200 C 241.805 180.070,241.524 179.790,240.857 180.857 M238.908 184.654 C 238.197 185.855,237.775 186.739,237.970 186.619 C 238.420 186.340,240.516 182.782,240.335 182.604 C 240.261 182.530,239.618 183.453,238.908 184.654 M216.133 185.900 C 215.756 186.505,215.257 187.260,215.024 187.577 C 214.716 187.996,214.725 188.079,215.060 187.878 C 215.546 187.587,217.299 184.800,216.996 184.800 C 216.898 184.800,216.510 185.295,216.133 185.900 M236.354 188.700 C 235.852 189.525,235.343 190.290,235.221 190.400 C 234.550 191.007,232.522 194.326,232.923 194.161 C 233.359 193.982,233.956 193.121,236.711 188.700 C 237.225 187.875,237.560 187.200,237.455 187.200 C 237.351 187.200,236.855 187.875,236.354 188.700 M212.286 191.198 C 211.029 192.737,210.000 194.103,210.000 194.234 C 210.000 194.365,211.080 193.180,212.400 191.600 C 214.603 188.964,215.005 188.400,214.686 188.400 C 214.623 188.400,213.543 189.659,212.286 191.198 M228.668 199.254 C 227.606 200.544,226.888 201.600,227.073 201.600 C 227.451 201.600,230.966 197.221,230.742 197.029 C 230.664 196.962,229.731 197.963,228.668 199.254 M202.023 202.600 C 200.194 204.470,198.828 206.000,198.988 206.000 C 199.148 206.000,199.816 205.415,200.473 204.700 C 201.130 203.985,202.591 202.455,203.720 201.300 C 204.849 200.145,205.678 199.200,205.561 199.200 C 205.445 199.200,203.853 200.730,202.023 202.600 M222.808 206.300 C 221.427 207.785,218.388 210.935,216.055 213.300 C 213.722 215.665,211.927 217.600,212.066 217.600 C 212.281 217.600,221.044 208.803,222.200 207.425 C 222.420 207.164,223.312 206.196,224.181 205.275 C 225.051 204.354,225.663 203.600,225.541 203.600 C 225.419 203.600,224.189 204.815,222.808 206.300 M197.929 206.954 C 197.638 207.258,195.780 209.177,193.800 211.217 C 191.820 213.257,190.470 214.763,190.800 214.563 C 191.578 214.092,199.025 206.400,198.702 206.400 C 198.567 206.400,198.219 206.649,197.929 206.954 M170.391 235.019 C 159.506 245.920,150.517 254.965,150.416 255.119 C 150.315 255.274,159.270 246.401,170.316 235.402 C 181.362 224.402,190.400 215.357,190.400 215.302 C 190.400 215.009,188.682 216.702,170.391 235.019 M204.973 224.807 C 197.302 232.516,196.098 233.835,201.460 228.655 C 206.162 224.113,212.169 218.000,211.931 218.000 C 211.829 218.000,208.698 221.063,204.973 224.807 M193.504 235.902 C 191.362 238.046,189.477 239.980,189.317 240.200 C 189.157 240.420,190.955 238.713,193.313 236.407 C 197.265 232.542,197.783 231.996,197.500 232.002 C 197.445 232.003,195.647 233.758,193.504 235.902 M184.699 244.484 C 182.884 246.291,181.929 247.326,182.576 246.784 C 184.414 245.247,188.522 241.200,188.246 241.200 C 188.109 241.200,186.513 242.678,184.699 244.484 M175.991 253.100 L 172.600 256.600 176.100 253.209 C 179.351 250.059,179.782 249.600,179.491 249.600 C 179.431 249.600,177.856 251.175,175.991 253.100 M148.604 256.796 C 147.974 257.454,147.535 258.056,147.629 258.134 C 147.723 258.212,148.313 257.674,148.939 256.938 C 150.354 255.277,150.145 255.188,148.604 256.796 M169.862 258.991 C 168.618 260.196,167.600 261.296,167.600 261.435 C 167.600 261.575,168.680 260.644,170.000 259.367 C 171.320 258.090,172.400 256.990,172.400 256.923 C 172.400 256.601,171.959 256.960,169.862 258.991 M144.154 261.300 C 143.271 262.235,142.402 263.270,142.221 263.600 C 142.041 263.930,142.471 263.570,143.175 262.800 C 143.880 262.030,144.904 260.995,145.450 260.500 C 145.997 260.005,146.290 259.600,146.102 259.600 C 145.913 259.600,145.037 260.365,144.154 261.300 M166.474 262.598 C 166.223 263.149,166.181 263.600,166.382 263.600 C 166.775 263.600,167.384 262.051,167.101 261.768 C 167.007 261.674,166.725 262.047,166.474 262.598 M189.300 263.900 C 201.565 263.959,221.635 263.959,233.900 263.900 C 246.165 263.841,236.130 263.793,211.600 263.793 C 187.070 263.793,177.035 263.841,189.300 263.900 M140.994 264.900 C 140.873 265.395,140.824 269.490,140.887 274.000 L 141.000 282.200 198.179 282.301 C 229.627 282.357,255.493 282.267,255.659 282.101 C 255.824 281.936,230.184 281.800,198.680 281.800 L 141.400 281.800 141.400 272.900 C 141.400 263.796,141.377 263.341,140.994 264.900 M256.170 272.800 C 256.170 277.530,256.228 279.465,256.298 277.100 C 256.369 274.735,256.369 270.865,256.298 268.500 C 256.228 266.135,256.170 268.070,256.170 272.800 " stroke="none" fill="#a7dcf4" fill-rule="evenodd"></path></g></svg>