<svg width="250" height="250" viewBox="0 0 250 250" fill="none" xmlns="http://www.w3.org/2000/svg">
<rect width="250" height="250" fill="white"/>
<path d="M59.7537 159.058C64.3431 154.71 67.4831 148.671 67.4831 141.908C67.4831 128.865 56.8552 118.478 44.0534 118.478C31.2516 118.478 20.3821 128.865 20.3821 141.908C20.3821 148.671 23.2806 154.951 28.1115 159.058C19.6575 162.198 13.3773 169.927 12.1696 179.347L10.2372 196.255C9.75416 200.362 12.6527 204.468 16.5174 205.192C25.4545 207.125 34.6332 208.091 44.0534 208.091C53.4736 208.091 62.6523 207.125 71.5894 205.192C75.6956 204.226 78.5942 200.362 77.8695 196.255L75.9372 179.347C74.4879 169.927 68.2078 162.198 59.7537 159.058ZM43.8118 126.208C52.5074 126.208 59.5122 133.212 59.5122 141.908C59.5122 150.603 52.5074 157.608 43.8118 157.608C35.1163 157.608 28.1115 150.603 28.1115 141.908C28.1115 133.212 35.3578 126.208 43.8118 126.208ZM17.7251 197.221L19.6575 180.313C20.6236 171.859 27.8699 165.338 36.324 165.338H50.8166C59.2707 165.338 66.517 171.618 67.4831 180.313L69.1739 197.705C53.2321 201.086 34.8747 201.569 17.7251 197.221Z" fill="url(#paint0_linear)"/>
<path d="M23.2805 96.9809H32.4592L36.807 105.677C38.0147 108.333 40.6717 110.024 43.5702 110.024C46.4687 110.024 49.1257 108.333 50.3334 105.677L54.6812 96.9809H64.343C70.14 96.9809 74.9709 92.1501 74.9709 86.353V52.5369C74.9709 46.7398 70.14 41.9089 64.343 41.9089H23.2805C17.4835 41.9089 12.6526 46.7398 12.6526 52.5369V86.353C12.6526 92.1501 17.4835 96.9809 23.2805 96.9809ZM20.6235 52.5369C20.6235 50.8461 21.8313 49.6383 23.5221 49.6383H64.5845C66.2753 49.6383 67.483 50.8461 67.483 52.5369V86.353C67.483 88.0438 66.2753 89.2515 64.5845 89.2515H52.9904C51.5411 89.2515 50.0919 89.9762 49.6088 91.4254L44.2948 102.295L38.7393 91.4254C38.0147 90.2177 36.807 89.2515 35.3577 89.2515H23.2805C21.5897 89.2515 20.382 88.0438 20.382 86.353V52.5369H20.6235Z" fill="url(#paint1_linear)"/>
<path d="M38.7395 78.1405C39.4641 78.8651 40.4303 79.3482 41.3965 79.3482C42.3627 79.3482 43.3288 78.8651 44.0535 78.1405L55.6476 66.5464C57.0968 65.0971 57.0968 62.4401 55.6476 60.9909C54.1983 59.5416 51.5413 59.5416 50.0921 60.9909L41.155 69.928L37.0487 65.8218C35.5994 64.3725 32.9425 64.3725 31.4932 65.8218C30.0439 67.271 30.0439 69.928 31.4932 71.3773L38.7395 78.1405Z" fill="url(#paint2_linear)"/>
<path d="M140.671 159.058C145.26 154.71 148.401 148.671 148.401 141.908C148.401 128.865 137.773 118.478 124.971 118.478C111.927 118.478 101.541 129.106 101.541 141.908C101.541 148.671 104.44 154.951 109.27 159.058C100.816 162.198 94.5362 169.927 93.3285 179.347L91.3962 196.255C90.9131 200.362 93.8116 204.468 97.6763 205.192C106.372 207.125 115.792 208.091 125.212 208.091C134.633 208.091 143.811 207.125 152.748 205.192C156.855 204.226 159.753 200.362 159.028 196.255L157.096 179.347C155.405 169.927 149.125 162.198 140.671 159.058ZM124.729 126.208C133.425 126.208 140.43 133.212 140.43 141.908C140.43 150.603 133.425 157.608 124.729 157.608C116.034 157.608 109.029 150.603 109.029 141.908C109.029 133.212 116.034 126.208 124.729 126.208ZM98.6425 197.221L100.575 180.313C101.541 171.859 108.787 165.338 117.241 165.338H131.734C140.188 165.338 147.434 171.618 148.401 180.313L150.091 197.705C133.908 201.086 115.792 201.569 98.6425 197.221Z" fill="url(#paint3_linear)"/>
<path d="M104.198 96.9809H113.377L117.725 105.677C118.932 108.333 121.589 110.024 124.729 110.024C127.628 110.024 130.285 108.333 131.493 105.677L135.84 96.9809H145.019C150.816 96.9809 155.647 92.1501 155.647 86.353V52.5369C155.647 46.7398 150.816 41.9089 145.019 41.9089H103.957C98.1595 41.9089 93.3286 46.7398 93.3286 52.5369V86.353C93.5702 92.1501 98.401 96.9809 104.198 96.9809ZM101.3 52.5369C101.3 50.8461 102.507 49.6383 104.198 49.6383H145.261C146.951 49.6383 148.159 50.8461 148.159 52.5369V86.353C148.159 88.0438 146.951 89.2515 145.261 89.2515H133.666C132.217 89.2515 130.768 89.9762 130.285 91.4254L124.729 102.295L119.174 91.4254C118.449 90.2177 117.241 89.2515 115.792 89.2515H104.198C102.507 89.2515 101.3 88.0438 101.3 86.353V52.5369V52.5369Z" fill="url(#paint4_linear)"/>
<path d="M113.376 80.7974C114.101 81.5221 115.067 82.0052 116.033 82.0052C117 82.0052 117.966 81.5221 118.69 80.7974L124.488 75.0004L130.285 80.7974C131.009 81.5221 131.975 82.0052 132.942 82.0052C133.908 82.0052 134.874 81.5221 135.599 80.7974C137.048 79.3482 137.048 76.6912 135.599 75.2419L130.285 69.4449L136.082 63.6478C137.531 62.1986 137.531 59.5416 136.082 58.0923C134.632 56.6431 131.975 56.6431 130.526 58.0923L124.729 63.8894L118.932 58.0923C117.483 56.6431 114.826 56.6431 113.376 58.0923C111.927 59.5416 111.927 62.1986 113.376 63.6478L119.174 69.4449L113.376 75.2419C111.927 76.6912 111.927 79.1066 113.376 80.7974Z" fill="url(#paint5_linear)"/>
<path d="M237.289 179.347C236.081 169.927 229.801 162.198 221.347 159.058C225.936 154.71 229.076 148.671 229.076 141.908C229.076 128.865 218.448 118.478 205.646 118.478C192.603 118.478 182.217 129.106 182.217 141.908C182.217 148.671 185.115 154.951 189.946 159.058C181.492 162.198 175.212 169.927 174.004 179.347L172.072 196.255C171.589 200.362 174.487 204.468 178.352 205.192C187.289 207.125 196.468 208.091 205.888 208.091C215.308 208.091 224.487 207.125 233.424 205.192C237.53 204.226 240.429 200.362 239.704 196.255L237.289 179.347ZM205.646 126.208C214.342 126.208 221.347 133.212 221.347 141.908C221.347 150.603 214.342 157.608 205.646 157.608C196.951 157.608 189.946 150.603 189.946 141.908C189.946 133.212 196.951 126.208 205.646 126.208ZM179.56 197.221L181.492 180.313C182.458 171.859 189.704 165.338 198.158 165.338H212.651C221.105 165.338 228.351 171.618 229.318 180.313L231.008 197.705C214.825 201.086 196.468 201.569 179.56 197.221Z" fill="url(#paint6_linear)"/>
<path d="M185.115 96.9809H194.294L198.642 105.677C199.85 108.333 202.507 110.024 205.405 110.024C208.304 110.024 210.961 108.333 212.168 105.677L216.516 96.9809H226.178C231.975 96.9809 236.806 92.1501 236.806 86.353V52.5369C236.806 46.7398 231.975 41.9089 226.178 41.9089H185.115C179.318 41.9089 174.487 46.7398 174.487 52.5369V86.353C174.246 92.1501 179.077 96.9809 185.115 96.9809ZM182.217 52.5369C182.217 50.8461 183.425 49.6383 185.115 49.6383H226.178C227.869 49.6383 229.076 50.8461 229.076 52.5369V86.353C229.076 88.0438 227.869 89.2515 226.178 89.2515H214.584C213.134 89.2515 211.685 89.9762 211.202 91.4254L205.888 102.295L200.333 91.4254C199.608 90.2177 198.4 89.2515 196.951 89.2515H185.115C183.425 89.2515 182.217 88.0438 182.217 86.353V52.5369Z" fill="url(#paint7_linear)"/>
<path d="M200.332 78.1405C201.057 78.8651 202.023 79.3482 202.989 79.3482C203.955 79.3482 204.922 78.8651 205.646 78.1405L217.24 66.5464C218.69 65.0971 218.69 62.4401 217.24 60.9909C215.791 59.5416 213.134 59.5416 211.685 60.9909L202.748 69.928L198.641 65.8218C197.192 64.3725 194.535 64.3725 193.086 65.8218C191.637 67.271 191.637 69.928 193.086 71.3773L200.332 78.1405Z" fill="url(#paint8_linear)"/>
<defs>
<linearGradient id="paint0_linear" x1="44.0827" y1="118.478" x2="44.0827" y2="208.091" gradientUnits="userSpaceOnUse">
<stop stop-color="#00C6A7"/>
<stop offset="1" stop-color="#2A94F4"/>
</linearGradient>
<linearGradient id="paint1_linear" x1="43.8117" y1="41.9089" x2="43.8117" y2="110.024" gradientUnits="userSpaceOnUse">
<stop stop-color="#00C6A7"/>
<stop offset="1" stop-color="#2A94F4"/>
</linearGradient>
<linearGradient id="paint2_linear" x1="43.5704" y1="59.9039" x2="43.5704" y2="79.3482" gradientUnits="userSpaceOnUse">
<stop stop-color="#00C6A7"/>
<stop offset="1" stop-color="#2A94F4"/>
</linearGradient>
<linearGradient id="paint3_linear" x1="125.242" y1="118.478" x2="125.242" y2="208.091" gradientUnits="userSpaceOnUse">
<stop stop-color="#00C6A7"/>
<stop offset="1" stop-color="#2A94F4"/>
</linearGradient>
<linearGradient id="paint4_linear" x1="124.488" y1="41.9089" x2="124.488" y2="110.024" gradientUnits="userSpaceOnUse">
<stop stop-color="#00C6A7"/>
<stop offset="1" stop-color="#2A94F4"/>
</linearGradient>
<linearGradient id="paint5_linear" x1="124.729" y1="57.0054" x2="124.729" y2="82.0052" gradientUnits="userSpaceOnUse">
<stop stop-color="#00C6A7"/>
<stop offset="1" stop-color="#2A94F4"/>
</linearGradient>
<linearGradient id="paint6_linear" x1="205.917" y1="118.478" x2="205.917" y2="208.091" gradientUnits="userSpaceOnUse">
<stop stop-color="#00C6A7"/>
<stop offset="1" stop-color="#2A94F4"/>
</linearGradient>
<linearGradient id="paint7_linear" x1="205.642" y1="41.9089" x2="205.642" y2="110.024" gradientUnits="userSpaceOnUse">
<stop stop-color="#00C6A7"/>
<stop offset="1" stop-color="#2A94F4"/>
</linearGradient>
<linearGradient id="paint8_linear" x1="205.163" y1="59.9039" x2="205.163" y2="79.3482" gradientUnits="userSpaceOnUse">
<stop stop-color="#00C6A7"/>
<stop offset="1" stop-color="#2A94F4"/>
</linearGradient>
</defs>
</svg>
