<svg width="1080" height="1080" viewBox="0 0 1080 1080" fill="none" xmlns="http://www.w3.org/2000/svg">
<rect width="1080" height="1080" fill="white"/>
<rect width="1080" height="1080" rx="186" fill="url(#paint0_linear)"/>
<path d="M462.138 515.381V369.843H586.678C612.744 369.843 632.294 375.636 645.328 387.221C658.361 398.323 664.877 416.425 664.877 441.526C664.877 467.593 658.361 486.419 645.328 498.004C632.294 509.589 612.744 515.381 586.678 515.381H462.138ZM348.458 281.507V798.493H462.138V596.477H575.817C604.297 596.477 624.812 602.753 637.363 615.303C649.913 627.854 658.119 647.645 661.981 674.677C664.877 695.434 667.05 717.156 668.498 739.843C669.946 762.531 673.808 782.081 680.083 798.493H793.762C788.452 791.252 784.349 782.563 781.453 772.426C779.039 761.807 777.108 750.704 775.66 739.119C774.695 727.534 773.971 716.19 773.488 705.088C773.005 693.985 772.523 684.331 772.04 676.125C771.074 663.092 769.144 650.058 766.247 637.025C763.834 623.992 759.731 612.165 753.938 601.546C748.146 590.443 740.664 581.03 731.492 573.307C722.32 565.101 710.735 559.067 696.737 555.205V553.757C725.699 542.172 746.456 525.277 759.007 503.072C772.04 480.867 778.557 454.559 778.557 424.148C778.557 404.357 774.936 386.014 767.695 369.119C760.937 351.741 750.8 336.536 737.284 323.503C724.251 310.469 708.322 300.332 689.496 293.092C671.153 285.368 650.396 281.507 627.226 281.507H348.458Z" fill="white"/>
<defs>
<linearGradient id="paint0_linear" x1="64.8" y1="1080" x2="1080" y2="-2.46227e-05" gradientUnits="userSpaceOnUse">
<stop stop-color="#2A94F4"/>
<stop offset="1" stop-color="#00C6A7"/>
</linearGradient>
</defs>
</svg>
