<svg width="192" height="28" viewBox="0 0 192 28" fill="none" xmlns="http://www.w3.org/2000/svg">
<path fill-rule="evenodd" clip-rule="evenodd" d="M7.62012 8.00446C5.1891 8.00446 4.05643 10.1627 4.05643 10.1627V8.32433H0.906982V20.9532H4.22213V12.6937C4.52122 12.1841 4.94782 11.7595 5.46076 11.4609C5.9737 11.1622 6.55568 10.9995 7.15055 10.9885C7.69027 10.977 8.22651 11.0768 8.72527 11.2814L9.88545 8.40421C9.15645 8.15304 8.39182 8.01811 7.62012 8.00446ZM18.505 8.00446C14.7203 8.00446 11.9301 10.9353 11.9301 14.6386C11.9301 18.342 14.9973 21.2727 18.9746 21.2727C20.8797 21.268 22.728 20.6301 24.2237 19.461L22.5661 17.0631C21.5688 17.913 20.2901 18.3684 18.9749 18.342C16.9031 18.342 15.5494 16.9033 15.3009 15.7843H25.08C25.1075 15.3047 25.1075 14.825 25.1075 14.5853C25.1273 13.7191 24.9703 12.8578 24.646 12.0531C24.3217 11.2484 23.8368 10.5169 23.2202 9.90239C22.6037 9.28787 21.8683 8.803 21.058 8.47688C20.2478 8.15075 19.3794 7.99007 18.505 8.00446ZM15.3005 13.4663C15.4109 12.3472 16.3779 10.9086 18.505 10.9086C20.6869 10.9086 21.7373 12.3739 21.7936 13.4663H15.3005ZM29.1964 8.32433V27.0811H32.5115V19.6474C32.9682 20.1735 33.5373 20.5922 34.1776 20.8733C34.8179 21.1545 35.5133 21.2909 36.2134 21.2727C39.6114 21.2727 42.5948 18.5287 42.5948 14.6386C42.5948 10.7485 39.6114 8.00446 36.2134 8.00446C35.4432 7.99266 34.6816 8.16583 33.9936 8.50916C33.3057 8.85249 32.7119 9.35577 32.263 9.97597V8.32433H29.1958H29.1964ZM32.5115 12.747C32.8334 12.211 33.2904 11.767 33.8376 11.4588C34.3849 11.1505 35.0036 10.9884 35.6332 10.9885C37.871 10.9885 39.2244 12.5606 39.2244 14.6386C39.2244 16.7166 37.871 18.2887 35.6332 18.2887C35.0036 18.2888 34.3849 18.1267 33.8376 17.8185C33.2904 17.5102 32.8334 17.0662 32.5115 16.5302V12.747ZM53.3969 8.00446C50.9659 8.00446 49.8332 10.1627 49.8332 10.1627V8.32433H46.6841V20.9532H49.9992V12.6937C50.2983 12.1842 50.7248 11.7596 51.2377 11.4609C51.7506 11.1623 52.3325 10.9995 52.9273 10.9885C53.467 10.977 54.0033 11.0768 54.502 11.2814L55.6622 8.40421C54.9332 8.15304 54.1686 8.01811 53.3969 8.00446ZM64.2821 8.00446C60.4974 8.00446 57.7071 10.9353 57.7071 14.6386C57.7071 18.342 60.7744 21.2727 64.7517 21.2727C66.6567 21.2681 68.5051 20.6301 70.0007 19.461L68.3432 17.0631C67.3459 17.913 66.0672 18.3684 64.752 18.342C62.6799 18.342 61.3265 16.9033 61.0776 15.7843H70.857C70.8849 15.3047 70.8849 14.825 70.8849 14.5853C70.9047 13.7191 70.7477 12.8578 70.4234 12.0531C70.0991 11.2483 69.6141 10.5168 68.9975 9.90228C68.381 9.28775 67.6455 8.8029 66.8352 8.47679C66.0249 8.15068 65.1566 7.99003 64.2821 8.00446ZM61.0773 13.4663C61.188 12.3472 62.1546 10.9086 64.2821 10.9086C66.464 10.9086 67.5141 12.3739 67.5707 13.4663H61.0773ZM74.1447 18.9801C74.1447 18.9801 76.2165 21.2715 80.0578 21.2715C83.4005 21.2715 85.7761 19.5396 85.7761 17.3817C85.7761 14.7705 83.9254 13.9447 81.3283 13.4118C79.1184 12.9588 78.2345 12.7724 78.2345 11.9998C78.2345 11.2272 79.3672 10.8008 80.6102 10.8008C81.7793 10.8518 82.9098 11.2306 83.87 11.8933L85.5276 9.54864C84.0898 8.54085 82.3714 8.00079 80.6102 8.00321C77.019 8.00321 74.9747 9.97472 74.9747 11.9465C74.9747 14.3444 77.2397 15.4099 79.8368 15.9428C81.8257 16.3426 82.4335 16.5023 82.4335 17.3285C82.4335 18.101 81.3008 18.4742 79.9471 18.4742C77.7371 18.4742 75.9967 16.6621 75.9967 16.6621L74.1447 18.9801ZM95.665 8.00321C91.8803 8.00321 89.09 10.934 89.09 14.6373C89.09 18.3407 92.1573 21.2715 96.1346 21.2715C98.0396 21.2668 99.888 20.6289 101.384 19.4598L99.7264 17.0619C98.729 17.9117 97.4501 18.3671 96.1349 18.3407C94.0631 18.3407 92.7094 16.9021 92.4608 15.783H102.24C102.268 15.3034 102.268 14.8238 102.268 14.5841C102.287 13.7179 102.13 12.8568 101.806 12.0522C101.482 11.2476 100.997 10.5162 100.38 9.90184C99.7634 9.28745 99.028 8.80271 98.2178 8.47668C97.4076 8.15064 96.5393 7.99003 95.665 8.00446V8.00321ZM92.4605 13.465C92.5709 12.346 93.5378 10.9074 95.665 10.9074C97.8468 10.9074 98.8973 12.3726 98.9536 13.465H92.4618H92.4605ZM113.373 8.00321C112.587 7.99457 111.811 8.18903 111.123 8.56746C110.436 8.94588 109.859 9.49523 109.45 10.1614V8.32307H106.356V20.9519H109.671V12.6138C109.671 12.6138 110.555 10.9885 112.268 10.9885C113.705 10.9885 114.865 11.7611 114.865 13.5728V20.9532H118.18V12.7736C118.18 9.7363 115.915 8.00446 113.373 8.00446V8.00321ZM122.103 11.1987H124.674V16.794C124.674 19.4848 126.607 21.2699 129.149 21.2699C130.255 21.2837 131.344 20.9981 132.298 20.4441L131.083 17.8329C130.674 18.1078 130.195 18.2647 129.702 18.2859C128.816 18.2859 127.989 17.8329 127.989 16.2877V11.2015H131.939V8.32433H127.987V4.5674H124.674V8.32433H122.105V11.2015L122.103 11.1987ZM141.441 18.6057C140.419 18.6057 139.065 18.3125 139.065 16.9804C139.065 15.6217 140.474 15.1947 141.496 15.1947C142.527 15.1797 143.548 15.3985 144.48 15.8341V17.1396C144.117 17.5943 143.655 17.9624 143.129 18.2167C142.603 18.471 142.026 18.6049 141.441 18.6086V18.6057ZM141.828 8.00164C140.047 8.04331 138.291 8.43264 136.662 9.14733L137.739 11.7849C137.739 11.7849 139.756 10.8525 141.662 10.8525C142.822 10.8525 144.48 11.3851 144.48 13.0371V13.7576C144.48 13.7576 143.237 12.8535 140.832 12.8535C137.986 12.8535 135.694 14.612 135.694 17.0365C135.694 19.7276 137.959 21.2727 140.418 21.2727C143.374 21.2727 144.727 19.3545 144.727 19.3545V20.9523H147.794V12.7204C147.795 9.84283 145.585 8.00446 141.828 8.00446V8.00164ZM153.155 20.9504H156.222V19.2984C156.222 19.2984 157.355 21.2699 160.172 21.2699C163.57 21.2699 166.554 18.5259 166.554 14.6358C166.554 10.7457 163.57 8.00164 160.172 8.00164C159.47 7.98578 158.773 8.12591 158.132 8.41177C157.492 8.69762 156.924 9.12195 156.471 9.6536V0.810791H153.155V20.9532V20.9504ZM156.47 12.7442C156.792 12.2081 157.249 11.7642 157.796 11.4559C158.343 11.1477 158.962 10.9856 159.592 10.9857C161.829 10.9857 163.183 12.5578 163.183 14.6358C163.183 16.7138 161.829 18.2859 159.592 18.2859C158.962 18.286 158.343 18.1239 157.796 17.8156C157.249 17.5074 156.792 17.0634 156.47 16.5274V12.747V12.7442ZM171.03 20.9532H174.344V0.810791H171.03V20.9532ZM185.396 8.00446C181.611 8.00446 178.821 10.9353 178.821 14.6386C178.821 18.342 181.888 21.2727 185.865 21.2727C187.77 21.2681 189.619 20.6301 191.114 19.461L189.457 17.0631C188.459 17.913 187.181 18.3684 185.865 18.342C183.794 18.342 182.44 16.9033 182.191 15.7843H191.971C191.998 15.3047 191.998 14.825 191.998 14.5853C192.018 13.719 191.861 12.8576 191.537 12.0528C191.212 11.248 190.727 10.5164 190.111 9.90182C189.494 9.28727 188.758 8.80245 187.948 8.47642C187.137 8.15039 186.269 7.98986 185.394 8.00446H185.396ZM182.191 13.4663C182.301 12.3472 183.268 10.9086 185.396 10.9086C187.577 10.9086 188.628 12.3739 188.684 13.4663H182.192H182.191Z" fill="url(#paint0_linear)"/>
<defs>
<linearGradient id="paint0_linear" x1="182.4" y1="13.493" x2="17.3682" y2="19.03" gradientUnits="userSpaceOnUse">
<stop stop-color="#00C6A7"/>
<stop offset="1" stop-color="#2A94F4"/>
</linearGradient>
</defs>
</svg>
