<svg width="250" height="250" viewBox="0 0 250 250" fill="none" xmlns="http://www.w3.org/2000/svg">
<rect width="250" height="250" fill="white"/>
<path d="M147.358 80.7387C140.944 74.3412 132.819 69.9313 123.96 68.0385C115.1 66.1457 105.883 66.8506 97.4144 70.0684C88.9459 73.2862 81.5863 78.8802 76.2194 86.1786C70.8525 93.477 67.7065 102.169 67.1592 111.212C66.6119 120.255 68.6865 129.263 73.134 137.156C77.5814 145.048 84.2126 151.489 92.2312 155.705C100.25 159.92 109.315 161.732 118.338 160.921C127.361 160.111 135.958 156.713 143.097 151.136L174.035 181.888C175.105 182.691 176.429 183.081 177.763 182.986C179.098 182.891 180.353 182.318 181.299 181.372C182.245 180.426 182.818 179.171 182.913 177.836C183.008 176.502 182.618 175.178 181.815 174.108L151.063 143.17C158.239 134.133 161.83 122.766 161.146 111.246C160.462 99.7262 155.553 88.8636 147.358 80.7387V80.7387ZM139.392 139.465C136.052 142.82 132.083 145.482 127.711 147.299C123.34 149.116 118.653 150.051 113.919 150.051C109.185 150.051 104.498 149.116 100.127 147.299C95.7552 145.482 91.7858 142.82 88.4463 139.465C85.0736 136.159 82.4006 132.209 80.5865 127.848C78.7724 123.488 77.8542 118.807 77.8867 114.085C77.8867 104.504 81.6928 95.3153 88.4675 88.5406C95.2422 81.7659 104.431 77.9599 114.012 77.9599C123.593 77.9599 132.781 81.7659 139.556 88.5406C146.331 95.3153 150.137 104.504 150.137 114.085C150.134 118.819 149.182 123.504 147.337 127.864C145.491 132.223 142.789 136.168 139.392 139.465Z" fill="url(#paint0_linear)"/>
<defs>
<linearGradient id="paint0_linear" x1="125" y1="67" x2="125" y2="183" gradientUnits="userSpaceOnUse">
<stop stop-color="#00C6A7"/>
<stop offset="1" stop-color="#2A94F4"/>
</linearGradient>
</defs>
</svg>
