<svg width="172" height="172" viewBox="0 0 172 172" fill="none" xmlns="http://www.w3.org/2000/svg">
<path d="M119.119 20.4352C109.617 10.9586 97.5822 4.42608 84.4588 1.62229C71.3354 -1.1815 57.6817 -0.1374 45.1372 4.6292C32.5927 9.3958 21.6908 17.6822 13.7408 28.4934C5.79071 39.3046 1.13049 52.1809 0.319736 65.5759C-0.491017 78.971 2.58216 92.3153 9.17023 104.006C15.7583 115.698 25.5811 125.238 37.4592 131.483C49.3372 137.728 62.7654 140.411 76.1311 139.211C89.4969 138.01 102.232 132.977 112.807 124.716L158.636 170.27C160.221 171.459 162.182 172.036 164.159 171.895C166.135 171.755 167.995 170.906 169.396 169.505C170.798 168.103 171.647 166.244 171.787 164.267C171.928 162.29 171.35 160.329 170.161 158.744L124.607 112.915C135.238 99.5285 140.556 82.6904 139.543 65.626C138.531 48.5617 131.258 32.4707 119.119 20.4352V20.4352ZM107.319 107.427C102.372 112.397 96.4919 116.341 90.0165 119.032C83.5411 121.723 76.5979 123.108 69.5856 123.108C62.5733 123.108 55.6301 121.723 49.1547 119.032C42.6793 116.341 36.7994 112.397 31.8526 107.427C26.8566 102.53 22.897 96.6781 20.2097 90.2192C17.5224 83.7603 16.1624 76.8266 16.2106 69.8312C16.2106 55.6388 21.8484 42.0278 31.8839 31.9923C41.9194 21.9568 55.5305 16.3189 69.7228 16.3189C83.9152 16.3189 97.5262 21.9568 107.562 31.9923C117.597 42.0278 123.235 55.6388 123.235 69.8312C123.232 76.8438 121.822 83.7846 119.088 90.2424C116.354 96.7002 112.352 102.544 107.319 107.427Z" fill="url(#paint0_linear)"/>
<defs>
<linearGradient id="paint0_linear" x1="86.0001" y1="0.0839233" x2="86.0001" y2="171.916" gradientUnits="userSpaceOnUse">
<stop stop-color="#00C6A7"/>
<stop offset="1" stop-color="#2A94F4"/>
</linearGradient>
</defs>
</svg>
