<svg width="45" height="45" viewBox="0 0 45 45" fill="none" xmlns="http://www.w3.org/2000/svg">
<g opacity="0.5" clip-path="url(#clip0)">
<path d="M2.95995 9.40164C2.96498 7.70309 3.63522 6.07557 4.82431 4.87451C6.0134 3.67345 7.62471 2.99646 9.30633 2.99138L38.2881 2.99138C41.7786 2.99138 43.0669 4.62173 41.1503 6.61318L39.3966 8.42301C27.2793 20.9422 7.48703 40.5918 7.48703 40.5918C4.99714 43.064 2.95995 42.2008 2.95995 38.6687L2.95995 9.40164Z" fill="#95BBF1"/>
<path d="M9.30787 0.000651156L38.2896 0.000651156C42.6707 0.000651156 44.1664 2.0156 44.6698 3.20577C45.0231 4.06046 45.5943 6.27841 43.2736 8.68865L41.5157 10.5049C29.5168 22.898 9.76269 42.5197 9.5723 42.7163C6.71009 45.5539 4.32174 45.1394 3.14554 44.6436C1.96935 44.1479 -0.000141654 42.7078 -0.000141654 38.6757L-0.000141654 9.40233C0.00265787 6.90971 0.984219 4.52 2.7292 2.75746C4.47419 0.994917 6.84009 0.00347885 9.30787 0.000651156V0.000651156ZM37.619 5.98353L9.30787 5.98353C8.41018 5.98353 7.54926 6.34373 6.9145 6.98488C6.27974 7.62602 5.92314 8.49561 5.92314 9.40233L5.92314 37.9492C9.11113 34.7826 26.4029 17.569 37.2806 6.32542L37.619 5.98353Z" fill="#95BBF1"/>
<path d="M4.00716 32.3139C2.77384 34.8161 3.43175 37.7477 5.20662 38.7242C6.72976 39.5682 8.82618 38.8395 10.0828 36.8801" fill="#95BBF1"/>
<path d="M2.10984 31.3612L5.89861 33.265C5.13282 34.8206 5.56014 36.4915 6.22227 36.8569C6.7046 37.1261 7.65655 36.7351 8.30387 35.7266L11.8557 38.0492C10.0216 40.9125 6.72364 42.0108 4.18722 40.6133C1.36309 39.0407 0.413255 34.8078 2.10984 31.3612Z" fill="#95BBF1"/>
<path d="M35.9702 10.8799C38.13 9.5551 38.8535 6.8564 37.7598 5.11069C36.8206 3.61497 34.6945 3.0466 32.7526 3.9248" fill="#95BBF1"/>
<path d="M34.6343 1.37156C36.6312 1.37156 38.5098 2.29678 39.5506 3.96558C39.9488 4.61999 40.2127 5.34853 40.3268 6.10796C40.4409 6.86739 40.4028 7.64224 40.2148 8.38652C39.9983 9.28085 39.6087 10.1231 39.0685 10.8646C38.5282 11.6061 37.848 12.2323 37.067 12.707L34.8712 9.05319C35.1723 8.87331 35.4352 8.63521 35.6451 8.35251C35.8549 8.06982 36.0074 7.74809 36.0939 7.40575C36.2039 7.01737 36.1591 6.60095 35.9691 6.24549C35.6243 5.69208 34.6512 5.39079 33.6167 5.86729L31.8842 1.96772C32.7489 1.57511 33.6862 1.37194 34.6343 1.37156V1.37156Z" fill="#95BBF1"/>
</g>
<path d="M10.32 12.4L11.7 14.16L14.16 12.2V23H16.56V9H14.58L10.32 12.4Z" fill="white"/>
<defs>
<clipPath id="clip0">
<rect width="45" height="45" fill="white" transform="translate(45 45) rotate(180)"/>
</clipPath>
</defs>
</svg>
