<svg id="Layer_1" data-name="Layer 1" xmlns="http://www.w3.org/2000/svg" viewBox="0 0 517.28 545.73"><defs><style>.cls-1,.cls-2{fill:#58595b;}.cls-1{stroke:#58595b;stroke-miterlimit:10;}</style></defs><title>community icon</title><path class="cls-1" d="M578.68,734.59c-2.16,0-4.33-.1-6.48,0-27.77,1.57-51.18-9.29-71.71-26.59-51-43-58.95-115.85-18.81-169.2,2-2.7,1.89-4.07-.51-6.41q-18.37-18-36.34-36.33c-2.38-2.43-3.68-2.63-6.19-.06q-16.51,17-33.5,33.52c-2.5,2.43-2.33,3.84-.23,6.42a119.31,119.31,0,0,1,27.23,69.64,122.53,122.53,0,0,1-88.31,126.24c-6.4,1.84-12.76,3.12-19.49,2.82a194.1,194.1,0,0,0-21.44,0c-26.75,1.73-49.87-8.22-69.58-24.57-40.18-33.32-55.48-76.51-42.54-127.4,12.73-50,46.76-79.93,96.64-90.13,35.12-7.19,67.93,1.36,96.72,23.27,3,2.3,4.38,1.93,6.81-.55q18.66-19.08,37.71-37.78a9.75,9.75,0,0,0,3.15-7.87c-.19-8.65-.36-17.31.05-25.94.22-4.45-1.24-5.92-5.51-6.39-26.49-2.91-49.16-14.11-68.69-32.06-57.05-52.44-50.21-146.82,13.69-190.7,24.17-16.6,50.91-25,79.85-21.92,52.49,5.66,89.34,33.35,107.14,83.61C582.27,343.8,541,418,470.79,435.09c-5.3,1.29-10.72,2.1-16.13,2.86-2.13.29-2.73,1.05-2.71,3.11q.14,15.46,0,30.94a5.61,5.61,0,0,0,2,4.3q21,21,41.93,42c1.9,1.92,3.06,2.12,5.24.32,26.47-21.79,56.94-30.43,90.92-27.56,49.31,4.17,93.69,42.1,106.31,90.48a67.48,67.48,0,0,1,2,17.53c0,8-.46,16,.1,23.95.88,12.7-2,24.54-6.84,36.07C677.56,697.47,649.51,722,609.31,733,599,735.79,588.85,733.41,578.68,734.59ZM476.75,613.15c0,57.19,45.64,103.27,102.31,103.3A102.64,102.64,0,0,0,682.17,613.76c.05-56.64-45.36-102.29-101.18-102.89C522.93,510.24,476.24,557.27,476.75,613.15Zm-64.6.57c.45-55.38-44.18-101.13-99.25-102.84A102.81,102.81,0,0,0,206.73,614c-.15,56.43,46.36,102.5,102.91,102.52S412.1,670.49,412.15,613.72Zm29.59-195.55a102.93,102.93,0,0,0,102.84-103c0-56.09-46.41-102.54-102.43-102.51A103,103,0,0,0,339.12,316C339.16,372.08,385.45,418.2,441.74,418.17Z" transform="translate(-185.74 -191.48)"/><path class="cls-1" d="M585.08,668.68q-33.68,0-67.35,0c-6.43,0-7.74-1.35-7-7.62,2.52-22.65,11.83-41.62,30.58-55.26,2.31-1.68,2.71-2.74,1.46-5.46-13.53-29.48,4.1-62.91,35.75-67.18,18.34-2.47,33.85,3.83,44.85,18.9,10.72,14.7,12.24,30.91,4.82,47.57-1.46,3.29-1.19,4.56,1.64,6.63,19.08,14,28,33.52,30.39,56.51.41,3.86-1.93,5.88-6.75,5.9-14.47,0-28.94,0-43.4,0Zm-.23-61.88c15.63,0,27.63-11.89,27.53-27.33-.08-14.23-12.65-26.59-27-26.52-15.44.07-27,11.92-27,27.78C558.31,594.87,570.42,606.79,584.85,606.8Zm51.62,41.66c-4.37-12.56-12-21.59-22.34-28.53-1.81-1.21-3-.42-4.4.39-16.33,9.42-32.68,9.51-48.94-.06-1.86-1.09-3.14-1.1-4.85,0a55,55,0,0,0-20.5,24.39c-1.1,2.57-1.28,3.83,2.25,3.82C570.39,648.43,603.09,648.46,636.47,648.46Z" transform="translate(-185.74 -191.48)"/><path class="cls-1" d="M309.67,668.68q-33.42,0-66.84,0c-6.85,0-8.12-1.13-7.6-7.76,1.79-22.6,11.62-41,29.72-54.67,2.74-2.07,3.25-3.27,1.77-6.64-7.79-17.83-6-34.88,6.58-49.87,12.1-14.41,28-20,46.46-15.78,18.75,4.29,30.83,16.24,35.73,34.91a44.27,44.27,0,0,1-3.14,31c-1.23,2.57-1.56,4,1.22,6,18,13,27.49,31,30.28,52.83,1.09,8.56-.18,10-8.83,10Zm-.42-61.88c15.48,0,27.18-11.57,27.2-26.9,0-14.53-12-26.87-26.36-27a27.25,27.25,0,0,0-27.52,26.89A26.73,26.73,0,0,0,309.25,606.8Zm-50.87,41.64c33.56,0,66.45,0,99.35,0,3.17,0,2.69-1.41,1.86-3.34a55.11,55.11,0,0,0-20.33-24.58,4.22,4.22,0,0,0-5.26-.19c-16.35,9.34-32.78,9.33-49.13,0-1.55-.89-2.66-1.38-4.41-.22A54,54,0,0,0,258.38,648.44Z" transform="translate(-185.74 -191.48)"/><path class="cls-1" d="M441.48,368.29H374.67c-7.15,0-8.27-1.49-7.37-8.67,2.85-22.9,12.69-41.72,31.92-55,1.9-1.32,1.22-2.1.5-3.52-8.84-17.41-6.1-38.77,6.73-52.91A47.88,47.88,0,0,1,459.7,235.7c18.14,7.37,29.65,25.14,29.35,45.14a41.73,41.73,0,0,1-4.86,19.59c-1.2,2.23-.8,3.35,1.19,4.77C504.8,319,514,338.55,516.62,361.72c.51,4.56-1.35,6.55-6.33,6.55Q475.88,368.32,441.48,368.29Zm-.15-61.88c14.37,1.09,27.32-11.1,27.42-26.6.09-14.7-12.21-27.22-26.7-27.24-14.77,0-27.13,12.17-27.16,26.78C414.85,294.7,426.27,306.39,441.33,306.41Zm.48,41.77c15.78,0,31.56-.09,47.34.06,3.44,0,4-.74,2.6-3.84A57.28,57.28,0,0,0,471.21,320c-1.79-1.24-3.11-1.11-4.89-.05-16.1,9.61-32.32,9.54-48.55.34-1.83-1-3.21-1.76-5.32-.31A56.67,56.67,0,0,0,392,344.4c-1.29,3-1.07,3.9,2.51,3.86C410.24,348.09,426,348.18,441.81,348.18Z" transform="translate(-185.74 -191.48)"/><path class="cls-2" d="M309.29,512.09A101.56,101.56,0,1,1,207.74,613.65,101.68,101.68,0,0,1,309.29,512.09m0-22A123.56,123.56,0,1,0,432.85,613.65,123.55,123.55,0,0,0,309.29,490.09Z" transform="translate(-185.74 -191.48)"/><path class="cls-2" d="M579.46,512.09A101.56,101.56,0,1,1,477.9,613.65,101.67,101.67,0,0,1,579.46,512.09m0-22A123.56,123.56,0,1,0,703,613.65,123.56,123.56,0,0,0,579.46,490.09Z" transform="translate(-185.74 -191.48)"/><path class="cls-2" d="M441.82,213.84A101.56,101.56,0,1,1,340.26,315.4,101.67,101.67,0,0,1,441.82,213.84m0-22A123.56,123.56,0,1,0,565.37,315.4,123.56,123.56,0,0,0,441.82,191.84Z" transform="translate(-185.74 -191.48)"/></svg>