<svg id="Layer_1" data-name="Layer 1" xmlns="http://www.w3.org/2000/svg" viewBox="0 0 146.64 161.24"><defs><style>.cls-1{fill:#1d1d1d;}.cls-2{fill:#dadada;}.cls-3{fill:#b5e3f2;}.cls-4{fill:#c3e4d0;}</style></defs><title>voting</title><path class="cls-1" d="M146.72,86.74l-1.81-1.67c-.21-.13-.41-.26-.63-.37a5.33,5.33,0,0,0-.66-.17H125.68a2.38,2.38,0,0,1-1.53-.51c-2.9-.66-1.21-2.82-1.4-4.37,0-1.33,0-2.65,0-4l0-3c-.07-2.58-.12-5.16-.22-7.74-.07-2,.61-3.46,2.72-3.94,1.88-1.76,4.4-1.74,6.68-2.4,2.49-1.81,5.38-2.73,8.22-3.78l.06,0,.88-.61,1.06-.4a7.7,7.7,0,0,1,3.9-2,41.38,41.38,0,0,1,8.94-5.09l5.32-3.82c.23-.32.45-.64.68-1,.25-2.33-.88-3.71-3-4.41l-.48.13-.48-.1c-3.63.74-6.24,3.31-9.24,5.18-9.36,5.8-19.64,9.66-29.68,14l-.79.51-6.11,3.48-.88.7c-2.92,1.81-5.78,3.72-8.77,5.39-1.2.66-2.36,2.74-4.1.72-.54,0-.82-.23-.66-.81-.8-1.71.57-2.36,1.59-3.07,3.34-2.31,6.72-4.56,10.09-6.83l.84-.67q2.15-1.68,4.28-3.37c1.81-1.45,3.29-3.17,1.55-5.44s-3.7-1.19-5.66.08-3.44,3.22-6,3.23c-7.21,0-14.41,0-22.85,0C88,43,94.74,37.09,104.84,37c6.78,0,13.57,0,20.35-.11a26,26,0,0,0,15.64-5.47c1.8-1.35,3.56-3,2-5.36-1.7-2.58-4.05-1.69-6-.16-4,3.1-8.56,4.06-13.51,4-4.3-.08-8.62.32-12.9,0-15.16-1-26.34,6.16-35.54,17.24-1.93,2.33-3.64,3.94-6.92,3.56-3.68-.44-5.42,1.39-5.36,5.25.13,7.78-.24,15.56.09,23.33.17,4.26-1.29,5.7-5.31,5C50.18,83,45.31,86.2,41,91.69c-5.42,6.86-11.54,13.17-17.36,19.72-.22.29-.45.57-.68.86l-.33,1.08q0,32.75.06,65.5c0,2.28-.26,4.71,2.31,6l141.91,0c1.8-.8,2.23-2.23,2.36-3.88V117.39a30.51,30.51,0,0,0-3.2-8C159.42,102,152.51,94.83,146.72,86.74Zm-77-.17V61.71l0-3c-.16-.74.12-1.06.89-.91H88.52l5.63-.29c-2.16,2.84-3.84,5.28-4.45,8.22l.09,1.84a15.61,15.61,0,0,0,3,5.27L98.43,75l3.91-.52,2-.91a2,2,0,0,1,1.85-1.09,4.53,4.53,0,0,1,3.11-1.91,14.15,14.15,0,0,1,5-3.09c1.11-1.09,1.8-.63,1.81.69.06,9.06.13,18.13,0,27.2-.05,3.72-2.91,2-4.76,2.05l-4,0h-11l-3.95,0H77.61c-9.07.27-8.37,2.36-7.87-8.84ZM35.88,108.44a70.78,70.78,0,0,1,8.74-10,3.25,3.25,0,0,1,1.89-2L48,94.56c2.48-3.14,10.28-5.22,13.54-3.65,1.86.9,1,2.56,1.07,3.9s.37,2.82-1.73,2.75a6.42,6.42,0,0,0-4.83,2c-.1.63-.2,1.26-.31,1.89,2.51,5.06,7.39,1.94,11,3.2H77.58a46.27,46.27,0,0,1,11,0h3.93a46.27,46.27,0,0,1,11,0h10.88a46.81,46.81,0,0,1,11,0l3.94-.06,2.9-.61c1.82-.38,2.38-1.65,2.2-3.32a2.83,2.83,0,0,0-2.87-2.83c-2.15-.11-4.31-.27-6.45-.23s-2.52-1.13-2.37-2.84c.13-1.54-.55-3.54,2-3.73.66,0,1.32-.08,2-.1,14.14-.61,14.15-.62,23.39,10,2.56,2.94,5,5.94,8.51,10H126.66q-34.51,0-69,0c-2,0-3.93-.27-5.9-.41H50a.9.9,0,0,1-1.42,0l-1.79-.06h-1a41.84,41.84,0,0,1-9.94,0c-.62.32-1.45.12-1.37-.41S35.39,109,35.88,108.44ZM161,178H129.26a6.52,6.52,0,0,1-4,0h-7q-12.9.6-25.81,0a6.55,6.55,0,0,1-4,0h-7a67,67,0,0,1-12.9,0l-2,0h-4l-2,0-5,0a31.93,31.93,0,0,1-10,0l-3,.05-2,0a33,33,0,0,1-8.93,0c-1.74.48-3,.38-2.51-2V172c0-1.35,0-2.71,0-4.06v-7c0-1.29,0-2.58,0-3.88v-4.06c0-1,0-1.93,0-2.89V124.27l.07-4.87c.26-2.43,2.21-1.53,3.42-1.53q63.21-.11,126.42-.05c1.19,0,2.79-.59,3.13,1.42,0,.34.08.68.11,1a6.87,6.87,0,0,1,0,4.09V172C162.14,174,164.67,176.73,161,178Z" transform="translate(-22.59 -24.44)"/><path class="cls-2" d="M23.6,111.41c-.22.29-.45.57-.68.86C23.15,112,23.38,111.7,23.6,111.41Z" transform="translate(-22.59 -24.44)"/><path class="cls-2" d="M97.52,67.51c-.54,0-.82-.23-.66-.81Z" transform="translate(-22.59 -24.44)"/><path class="cls-2" d="M111.27,60.7l-.88.7Z" transform="translate(-22.59 -24.44)"/><path class="cls-2" d="M118.17,56.71l-.79.51Z" transform="translate(-22.59 -24.44)"/><path class="cls-2" d="M108.54,56.8l.84-.67Z" transform="translate(-22.59 -24.44)"/><path class="cls-2" d="M140.28,54.81l.88-.61Z" transform="translate(-22.59 -24.44)"/><path class="cls-2" d="M160.38,42.84l.68-1Z" transform="translate(-22.59 -24.44)"/><path class="cls-2" d="M158.05,37.48l-.48.13-.48-.09C157.39,37,157.71,37,158.05,37.48Z" transform="translate(-22.59 -24.44)"/><path class="cls-3" d="M29.4,175.92V172c1.17-.21,3,.43,3.19-1.25.28-2.1-1.79-2.22-3.18-2.81v-2.89c1.75-.1,3.5-.51,3.22-2.7-.23-1.8-2-1.15-3.23-1.37v-3.88c1.16-.21,2.95.43,3.18-1.25.28-2.1-1.79-2.22-3.18-2.81v-2.89c1.53-.11,3.27-.26,3.09-2.28-.14-1.57-1.72-1.75-3.09-1.79v-3.88c1.17-.21,3,.43,3.19-1.26.28-2.09-1.8-2.21-3.19-2.8v-3.89c2.11-1,2.09-2,0-3.07v-2.89c3.12-1.36,3.14-2.71,0-4.06,0-1.62.05-3.25.07-4.87,9.21,0,18.42-.13,27.62,0,2.18,0,4.6.16,5.68,2.92,1.15,2.93,2.36,2.64,3.94,0,2.19-3.62,8.82-3.68,10.81,0,1.39,2.57,2,1.57,2.89,0,1.55-2.87,2.86-2.78,4.22.13,1.1,2.36,2.86,2.52,3.68.16,1.14-3.26,4-3.14,6-3.08,8,.22,16.05.17,24.1-.08,14.65-.46,29.33-.2,44-.24l.11,1c-1,.2-2.69-.36-2.9.95-.29,1.85,1.32,2.64,2.9,3.14v2.9c-1.39.59-3.47.71-3.18,2.81.22,1.68,2,1.05,3.18,1.25v3.88c-1.17.21-3-.42-3.18,1.26-.29,2.09,1.79,2.22,3.18,2.81v2.88c-1.76.11-3.5.51-3.22,2.71.22,1.79,2,1.15,3.22,1.36v3.88c-1.34.36-3.45-.75-3.9,1s1.84,1.93,3,2.74a3.12,3.12,0,0,0,.94.28v2.89c-1.39.58-3.47.71-3.18,2.81.22,1.68,2,1,3.18,1.25V165c-1.17.21-3-.42-3.18,1.26-.29,2.09,1.79,2.21,3.18,2.81V172c-2.42.22-5.45.17-1.74,3.43,1,.87.54,1.68.23,2.57H129.26q-2-4.12-4,0h-4c-.13-.8-.28-1.61-1.27-1.73-1.27-.16-1.58.73-1.73,1.73q-12.9.6-25.81,0-2-4.12-4,0h-4c-.13-.79-.28-1.61-1.27-1.73-1.27-.16-1.57.72-1.72,1.73a67,67,0,0,1-12.9,0c-.27-.49-.45-1.33-.8-1.41-1-.22-1.07.71-1.2,1.43h-4c-.13-.72-.18-1.65-1.2-1.44-.35.08-.53.92-.8,1.41l-5,0c0-2.68-3.29-1.4-4-3.63-1.25-3.63-2.82-3.21-4,.25a21.21,21.21,0,0,1-1.86,3.35l-3,.05c-.88-1.86,2.47-5.05-.23-5.34-3-.32-1.19,3.43-1.76,5.32a33,33,0,0,1-8.93,0C31.86,176.25,30.77,175.91,29.4,175.92ZM53.84,139c-.6-1,1.55-2.58-.12-3.31-1.92-.83-1.66,1.37-2.21,2.38-.92,1.7-2.59,1-4,1.16-1.11.14-3.12.9-2.29,1.5,3.06,2.22,2.11,6.41,4.85,8.58a4.11,4.11,0,0,0,4.63.39c1.52-.83,1.34-2.74.55-3.94A9.42,9.42,0,0,1,53.84,139ZM34.63,128.7c-.12.26-.38.58-.31.76s.49.25.75.37c.11-.27.37-.58.3-.77S34.89,128.81,34.63,128.7Z" transform="translate(-22.59 -24.44)"/><path class="cls-4" d="M69.74,68.67v-4c1.31-.28,3.54.62,3.54-1.51s-2.22-1.23-3.54-1.5l0-3,.89-.91h3c.21,1.56.83,2.89,2.66,2.67,1.52-.18,1.2-1.61,1.33-2.67h4c.15,1-.22,2.47,1.28,2.62,2,.2,1.55-1.47,1.72-2.62h4c0,1.71.43,3.69-2.23,4-.84.09-1.53.55-1.45,1.54s.91,1.12,1.7,1.34c1.07.29,2.11.71,3.16,1.07l.09,1.84a14.71,14.71,0,0,1-1.78.77c-1.64.48-3.68.4-3.41,3.09s2.67,3,4.49,3.79c2.12.91,3.39-.11,3.66-2.38L98.43,75c.37,1.08.76,2.15,1.12,3.23a1.81,1.81,0,0,0,2.32,1.26c1.57-.32,1.5-1.42,1.1-2.65-.25-.77-.42-1.57-.63-2.36l2-.91c1.82,1.67,1.79.2,1.86-1.09l0,0c1.58.23,3,.28,3.13-1.93a14.15,14.15,0,0,1,5-3.09c-.18,2,1,4.4-1.92,5.51-.82.3-1.22,1.54-.39,2,4.94,2.81-2.8,8.19,2.28,10.89-2.76,2.14-2.58,4.16-.07,6.49.6.55-.25,1.84-1.36,2.2-1.42.46-1.43,1.65-1.47,2.83l-4,0c-.07-1.35-.07-2.77-2-2.77s-1.92,1.41-2,2.76h-4c-.11-1.11.12-2.62-1.5-2.62s-1.4,1.5-1.51,2.61l-3.95,0c-.07-1.36-.07-2.77-2-2.77s-1.93,1.41-2,2.76H84.57c-.11-1.11.11-2.62-1.51-2.62s-1.39,1.51-1.5,2.62h-4c.08-1.71-.61-2.58-2.42-3s-2-2-.75-3.39c.82-.92,3.7-.27,2.65-2.46-1-2-2.88.19-4.41,0a28.83,28.83,0,0,0-2.94,0v-2c1.32-.26,3.54.63,3.54-1.5s-2.23-1.23-3.54-1.5V79.62c1.46-.37,4.06.84,4.19-1.1.16-2.52-2.57-1.64-4.19-1.91v-2c2.24-.43,4.17-1.15,3.8-4C73.22,68.13,71.23,68.89,69.74,68.67Z" transform="translate(-22.59 -24.44)"/><path class="cls-3" d="M55.69,101.45c2.51,5.06,7.39,1.94,11,3.2.37,1.57-1.13,4.27,1.53,4.45,2.83.18,2.33-2.54,2.4-4.45h3c.37,1.67-1.19,4.55,2,4.55s1.59-2.87,2-4.54a46.27,46.27,0,0,1,11,0c.37,1.67-1.18,4.54,2,4.54s1.59-2.87,2-4.54a46.27,46.27,0,0,1,11,0c.38,1.67-1.18,4.55,2,4.54s1.58-2.88,2-4.54h3c.38,1.67-1.18,4.55,2,4.55s1.59-2.87,2-4.54a46.81,46.81,0,0,1,11,0c.39,1.68-1.21,4.53,2,4.59,2.87.06,1.68-2.56,1.94-4.16a2.67,2.67,0,0,0,0-.49l2.9-.61c1.82-.38,2.38-1.65,2.2-3.32a2.83,2.83,0,0,0-2.87-2.83c-2.15-.11-4.31-.27-6.45-.23s-2.52-1.13-2.37-2.84c.13-1.54-.55-3.54,2-3.73.66,0,1.32-.08,2-.1,14.14-.61,14.15-.62,23.39,10,2.56,2.94,5,5.94,8.51,10H126.66q-34.51,0-69,0c-2,0-3.93-.27-5.9-.41.45-1.77,7.07-.65,2.28-4.76-1-.84-2.5-1.1-2-2.79C52.52,100.93,54.34,101.68,55.69,101.45Z" transform="translate(-22.59 -24.44)"/><path class="cls-3" d="M162.44,119.24c-14.66,0-29.34-.22-44,.24-8,.25-16.06.3-24.1.08-2-.06-4.9-.18-6,3.08-.82,2.36-2.58,2.2-3.68-.16-1.36-2.91-2.67-3-4.22-.13-.86,1.59-1.5,2.59-2.89,0-2-3.69-8.62-3.63-10.81,0-1.58,2.61-2.79,2.9-3.94,0-1.08-2.76-3.5-2.89-5.68-2.92-9.2-.14-18.41,0-27.62,0,.26-2.43,2.21-1.53,3.42-1.53q63.21-.11,126.42-.05C160.5,117.82,162.1,117.23,162.44,119.24Z" transform="translate(-22.59 -24.44)"/><path class="cls-3" d="M55.69,101.45c-1.35.23-3.17-.52-3.72,1.5-.46,1.69,1.06,2,2,2.79,4.79,4.11-1.83,3-2.28,4.76H50l-1.42,0-1.79-.06-.49-1.29-.5,1.29a41.84,41.84,0,0,1-9.94,0c0-.66,0-1.32,0-2a70.78,70.78,0,0,1,8.74-10c2.94-.11,3-.15,1.89-2L48,94.56c1.33.15,3.32-.64,3.61,1.32.4,2.81,2.82,2.65,4.44,3.68Z" transform="translate(-22.59 -24.44)"/><path class="cls-4" d="M111.36,97.37c0-1.18,0-2.37,1.47-2.83,1.11-.36,2-1.65,1.36-2.2-2.51-2.33-2.69-4.35.07-6.49-5.08-2.7,2.66-8.08-2.28-10.89-.83-.48-.43-1.72.39-2,2.94-1.11,1.74-3.52,1.92-5.51,1.11-1.09,1.8-.63,1.81.69.06,9.06.13,18.13,0,27.2C116.07,99,113.21,97.27,111.36,97.37Z" transform="translate(-22.59 -24.44)"/><path class="cls-3" d="M56,99.56c-1.62-1-4-.87-4.44-3.68-.29-2-2.28-1.17-3.61-1.32,2.48-3.14,10.28-5.22,13.54-3.65,1.86.9,1,2.56,1.07,3.9s.37,2.82-1.73,2.75A6.42,6.42,0,0,0,56,99.56Zm3.79-7.79c-.52,2-3,2.15-3.41,4-.17.73,1.25.91,1.95.6C60.17,95.51,60.89,94.11,59.79,91.77Z" transform="translate(-22.59 -24.44)"/><path class="cls-4" d="M69.74,88.54a28.83,28.83,0,0,1,2.94,0c1.53.16,3.46-2,4.41,0,1,2.19-1.83,1.54-2.65,2.46-1.21,1.35-1.21,2.91.75,3.39s2.5,1.31,2.42,3C68.54,97.65,69.24,99.74,69.74,88.54Z" transform="translate(-22.59 -24.44)"/><path class="cls-4" d="M92.75,72.86c-.27,2.27-1.54,3.29-3.66,2.38-1.82-.77-4.21-1-4.49-3.79s1.77-2.61,3.41-3.09a14.71,14.71,0,0,0,1.78-.77A15.61,15.61,0,0,0,92.75,72.86Z" transform="translate(-22.59 -24.44)"/><path class="cls-4" d="M89.7,65.75c-1-.36-2.09-.78-3.16-1.07-.79-.22-1.62-.34-1.7-1.34s.61-1.45,1.45-1.54c2.66-.29,2.18-2.27,2.23-4l5.63-.29C92,60.37,90.31,62.81,89.7,65.75Z" transform="translate(-22.59 -24.44)"/><path class="cls-3" d="M45.8,177.91a21.21,21.21,0,0,0,1.86-3.35c1.22-3.46,2.79-3.88,4-.25.76,2.23,4.09.95,4,3.63A31.93,31.93,0,0,1,45.8,177.91Z" transform="translate(-22.59 -24.44)"/><path class="cls-4" d="M69.74,68.67c1.49.22,3.48-.54,3.8,1.94.37,2.89-1.56,3.61-3.8,4Z" transform="translate(-22.59 -24.44)"/><path class="cls-3" d="M129.24,104.55a2.67,2.67,0,0,1,0,.49c-.26,1.6.93,4.22-1.94,4.16-3.21-.06-1.61-2.91-2-4.59Z" transform="translate(-22.59 -24.44)"/><path class="cls-3" d="M114.33,104.65c-.37,1.67,1.19,4.54-2,4.54s-1.59-2.88-2-4.55Z" transform="translate(-22.59 -24.44)"/><path class="cls-3" d="M107.38,104.65c-.38,1.66,1.18,4.54-2,4.54s-1.59-2.87-2-4.54Z" transform="translate(-22.59 -24.44)"/><path class="cls-4" d="M102.34,74.43c.21.79.38,1.59.63,2.36.4,1.23.47,2.33-1.1,2.65a1.81,1.81,0,0,1-2.32-1.26C99.19,77.1,98.8,76,98.43,75Z" transform="translate(-22.59 -24.44)"/><path class="cls-3" d="M92.48,104.65c-.38,1.67,1.18,4.54-2,4.54s-1.59-2.87-2-4.54Z" transform="translate(-22.59 -24.44)"/><path class="cls-3" d="M77.58,104.65c-.38,1.67,1.18,4.54-2,4.54s-1.59-2.88-2-4.55Z" transform="translate(-22.59 -24.44)"/><path class="cls-3" d="M70.62,104.65c-.07,1.91.43,4.63-2.4,4.45-2.66-.18-1.16-2.88-1.53-4.45Z" transform="translate(-22.59 -24.44)"/><path class="cls-3" d="M161,178c.31-.89.77-1.7-.23-2.57-3.71-3.26-.68-3.21,1.74-3.43C162.14,174,164.67,176.73,161,178Z" transform="translate(-22.59 -24.44)"/><path class="cls-3" d="M162.55,154.16a3.12,3.12,0,0,1-.94-.28c-1.12-.81-3.41-.93-3-2.74s2.56-.69,3.9-1Z" transform="translate(-22.59 -24.44)"/><path class="cls-3" d="M162.55,146.21c-1.19-.21-3,.43-3.22-1.36-.28-2.2,1.46-2.6,3.22-2.71Z" transform="translate(-22.59 -24.44)"/><path class="cls-3" d="M40.84,177.94c.57-1.89-1.24-5.64,1.76-5.32,2.7.29-.65,3.48.23,5.34Z" transform="translate(-22.59 -24.44)"/><path class="cls-3" d="M29.4,161c1.2.22,3-.43,3.23,1.37.28,2.19-1.47,2.6-3.22,2.7Z" transform="translate(-22.59 -24.44)"/><path class="cls-3" d="M29.41,153.08c1.39.59,3.46.71,3.18,2.81-.23,1.68-2,1-3.18,1.25Z" transform="translate(-22.59 -24.44)"/><path class="cls-3" d="M162.55,139.26c-1.39-.59-3.47-.72-3.18-2.81.22-1.68,2-1,3.18-1.26Z" transform="translate(-22.59 -24.44)"/><path class="cls-3" d="M162.55,131.31c-1.17-.2-3,.43-3.18-1.25-.29-2.1,1.79-2.22,3.18-2.81Z" transform="translate(-22.59 -24.44)"/><path class="cls-3" d="M29.4,146.12c1.37,0,3,.22,3.09,1.79.18,2-1.56,2.17-3.09,2.28Z" transform="translate(-22.59 -24.44)"/><path class="cls-3" d="M162.55,161.11c-1.17-.21-3,.43-3.18-1.25-.29-2.1,1.79-2.23,3.18-2.81Z" transform="translate(-22.59 -24.44)"/><path class="cls-3" d="M29.4,138.18c1.39.59,3.47.71,3.19,2.8-.23,1.69-2,1.05-3.19,1.26Z" transform="translate(-22.59 -24.44)"/><path class="cls-3" d="M29.41,168c1.39.59,3.46.71,3.18,2.81-.23,1.68-2,1-3.19,1.25Z" transform="translate(-22.59 -24.44)"/><path class="cls-3" d="M162.55,169.06c-1.39-.6-3.47-.72-3.18-2.81.22-1.68,2-1.05,3.18-1.26Z" transform="translate(-22.59 -24.44)"/><path class="cls-4" d="M69.74,76.61c1.62.27,4.35-.61,4.19,1.91-.13,1.94-2.73.73-4.19,1.1Z" transform="translate(-22.59 -24.44)"/><path class="cls-3" d="M162.55,124.35c-1.58-.5-3.19-1.29-2.9-3.14.21-1.31,1.87-.75,2.9-.95A6.87,6.87,0,0,1,162.55,124.35Z" transform="translate(-22.59 -24.44)"/><path class="cls-4" d="M69.74,83.57c1.31.27,3.54-.62,3.54,1.5s-2.22,1.24-3.54,1.5Z" transform="translate(-22.59 -24.44)"/><path class="cls-4" d="M69.74,61.71c1.32.27,3.54-.62,3.54,1.5s-2.23,1.23-3.54,1.51Z" transform="translate(-22.59 -24.44)"/><path class="cls-4" d="M103.42,97.38c.07-1.35.07-2.76,2-2.76s1.93,1.42,2,2.77Z" transform="translate(-22.59 -24.44)"/><path class="cls-4" d="M88.51,97.38c.07-1.35.08-2.76,2-2.76s1.93,1.41,2,2.77Z" transform="translate(-22.59 -24.44)"/><path class="cls-4" d="M77.61,57.82c-.13,1.06.19,2.49-1.33,2.67-1.83.22-2.45-1.11-2.66-2.67Z" transform="translate(-22.59 -24.44)"/><path class="cls-3" d="M29.4,124.27c3.15,1.35,3.13,2.7,0,4.06Z" transform="translate(-22.59 -24.44)"/><path class="cls-4" d="M84.56,57.82c-.17,1.15.23,2.82-1.72,2.62-1.5-.15-1.13-1.6-1.28-2.62Z" transform="translate(-22.59 -24.44)"/><path class="cls-4" d="M96.46,97.37c.11-1.11-.12-2.62,1.51-2.61s1.39,1.51,1.5,2.62Z" transform="translate(-22.59 -24.44)"/><path class="cls-4" d="M81.56,97.38c.11-1.11-.12-2.62,1.5-2.62s1.4,1.51,1.51,2.62Z" transform="translate(-22.59 -24.44)"/><path class="cls-3" d="M88.52,177.94q2-4.12,4,0A6.55,6.55,0,0,1,88.52,177.94Z" transform="translate(-22.59 -24.44)"/><path class="cls-3" d="M125.28,177.94q2-4.12,4,0A6.52,6.52,0,0,1,125.28,177.94Z" transform="translate(-22.59 -24.44)"/><path class="cls-3" d="M29.4,175.92c1.37,0,2.46.33,2.51,2C30.17,178.39,28.89,178.29,29.4,175.92Z" transform="translate(-22.59 -24.44)"/><path class="cls-3" d="M81.57,177.93c.15-1,.45-1.89,1.72-1.73,1,.12,1.14.94,1.27,1.73Z" transform="translate(-22.59 -24.44)"/><path class="cls-3" d="M118.32,177.93c.15-1,.46-1.89,1.73-1.73,1,.12,1.14.93,1.27,1.73Z" transform="translate(-22.59 -24.44)"/><path class="cls-3" d="M29.41,131.22c2.08,1,2.1,2.05,0,3.07Z" transform="translate(-22.59 -24.44)"/><path class="cls-3" d="M46.51,96.39c1.08,1.86,1.05,1.9-1.89,2A3.25,3.25,0,0,1,46.51,96.39Z" transform="translate(-22.59 -24.44)"/><path class="cls-4" d="M109.33,70.52c-.08,2.21-1.55,2.16-3.13,1.93A4.54,4.54,0,0,1,109.33,70.52Z" transform="translate(-22.59 -24.44)"/><path class="cls-4" d="M106.23,72.43c-.07,1.29,0,2.76-1.86,1.09A2,2,0,0,1,106.23,72.43Z" transform="translate(-22.59 -24.44)"/><path class="cls-3" d="M60.7,177.91c.27-.49.45-1.33.8-1.41,1-.21,1.07.72,1.2,1.44Z" transform="translate(-22.59 -24.44)"/><path class="cls-3" d="M66.67,177.93c.13-.72.18-1.65,1.2-1.43.35.08.53.92.8,1.41Z" transform="translate(-22.59 -24.44)"/><path class="cls-3" d="M35.88,108.44c0,.66,0,1.32,0,2-.62.32-1.45.12-1.37-.41S35.39,109,35.88,108.44Z" transform="translate(-22.59 -24.44)"/><path class="cls-3" d="M45.81,110.43l.5-1.29.49,1.29Z" transform="translate(-22.59 -24.44)"/><path class="cls-3" d="M48.59,110.49l1.42,0A.9.9,0,0,1,48.59,110.49Z" transform="translate(-22.59 -24.44)"/><path class="cls-4" d="M70.65,57.83l-.89.91C69.6,58,69.88,57.68,70.65,57.83Z" transform="translate(-22.59 -24.44)"/><path class="cls-3" d="M53.84,139a9.42,9.42,0,0,0,1.44,6.76c.79,1.2,1,3.11-.55,3.94a4.11,4.11,0,0,1-4.63-.39c-2.74-2.17-1.79-6.36-4.85-8.58-.83-.6,1.18-1.36,2.29-1.5,1.38-.18,3.05.54,4-1.16.55-1,.29-3.21,2.21-2.38C55.39,136.43,53.24,138,53.84,139Z" transform="translate(-22.59 -24.44)"/><path class="cls-3" d="M34.63,128.7c.26.11.66.17.74.36s-.19.5-.3.77c-.26-.12-.67-.18-.75-.37S34.51,129,34.63,128.7Z" transform="translate(-22.59 -24.44)"/><path class="cls-3" d="M59.79,91.77c1.1,2.34.38,3.74-1.46,4.55-.7.31-2.12.13-1.95-.6C56.82,93.92,59.27,93.81,59.79,91.77Z" transform="translate(-22.59 -24.44)"/><path class="cls-3" d="M54.9,105.77H43.61a2.5,2.5,0,0,0,0,5H54.9a2.5,2.5,0,0,0,0-5Z" transform="translate(-22.59 -24.44)"/><path class="cls-3" d="M162.86,174.66V123.6c0-3.22-5-3.23-5,0v51.06c0,3.22,5,3.22,5,0Z" transform="translate(-22.59 -24.44)"/><path class="cls-3" d="M160.32,173H81.1v5H95.75v-5h-43c-3.22,0-3.22,5,0,5h43c3.21,0,3.22-5,0-5H81.1c-3.21,0-3.22,5,0,5h79.22c3.22,0,3.22-5,0-5Z" transform="translate(-22.59 -24.44)"/><path class="cls-3" d="M32.12,178.38h128.4c3.22,0,3.23-5,0-5H32.12c-3.22,0-3.22,5,0,5Z" transform="translate(-22.59 -24.44)"/><path class="cls-3" d="M47.91,94.63l-5.21,5.79a2.63,2.63,0,0,0-.73,1.76,2.49,2.49,0,0,0,2.5,2.5,2.46,2.46,0,0,0,1.77-.73l5.21-5.79a2.63,2.63,0,0,0,.73-1.76,2.5,2.5,0,0,0-4.27-1.77Z" transform="translate(-22.59 -24.44)"/><path class="cls-3" d="M49.33,93.35a19.47,19.47,0,0,0-3.06,2.82c-.83.93-1.6,1.91-2.45,2.82a25.67,25.67,0,0,0-2.89,3,11.27,11.27,0,0,0-1.44,4,2.5,2.5,0,0,0,4.82,1.33c.12-.57.24-1.13.41-1.68,0-.14.09-.28.14-.43.13-.37,0,.08,0,.1.19-.06.21-.7.44-.77l-.18.22c.06-.08.13-.15.19-.22l.27-.27c.23-.22.48-.43.72-.65a15.6,15.6,0,0,0,1.22-1.22c.77-.82,1.47-1.7,2.21-2.55.38-.43.77-.86,1.17-1.26.22-.22.44-.42.66-.62l.28-.24c.08-.07.58-.44.06-.06A2.72,2.72,0,0,0,53,96.17a2.6,2.6,0,0,0-.25-1.93c-.67-1-2.3-1.73-3.42-.89Z" transform="translate(-22.59 -24.44)"/><path class="cls-3" d="M51.61,97.47l-.92,2.6a1.89,1.89,0,0,0,0,1,1.85,1.85,0,0,0,.29.93,2,2,0,0,0,.65.7,1.89,1.89,0,0,0,.85.45l.66.09a2.54,2.54,0,0,0,1.26-.35l.51-.39a2.5,2.5,0,0,0,.64-1.1l.92-2.6a1.89,1.89,0,0,0,0-1,2.26,2.26,0,0,0-.94-1.63,1.94,1.94,0,0,0-.85-.45L54,95.63a2.64,2.64,0,0,0-1.26.34l-.5.4a2.52,2.52,0,0,0-.65,1.1Z" transform="translate(-22.59 -24.44)"/><path class="cls-3" d="M58.25,109.1h77.41c3.22,0,3.22-5,0-5H58.25c-3.22,0-3.23,5,0,5Z" transform="translate(-22.59 -24.44)"/><path class="cls-1" d="M157,39.17c-8.13,5.58-16,11.78-25.2,15.57-8.46,3.49-17.55,6.06-25,11.58-2,1.45-3.84,3.26-6.35,3.61-1.85.26-4.78.16-5.28-2.06-.71-3.14-5.54-1.81-4.83,1.33,1.3,5.74,8.71,6.84,13.42,5,2.42-.94,4.3-2.68,6.4-4.15a47.42,47.42,0,0,1,6.35-3.71c8.83-4.36,18.6-6.63,27-11.91,5.47-3.43,10.7-7.28,16-10.93a2.56,2.56,0,0,0,.89-3.42,2.52,2.52,0,0,0-3.42-.9Z" transform="translate(-22.59 -24.44)"/><path class="cls-1" d="M25.48,185.61H165.75c3.22,0,3.23-5,0-5H25.48c-3.22,0-3.23,5,0,5Z" transform="translate(-22.59 -24.44)"/><path class="cls-1" d="M22.67,182.25v.16a1.86,1.86,0,0,0,.22,1,2.16,2.16,0,0,0,1.32,1.32,1.88,1.88,0,0,0,1,.22l.67-.09a2.5,2.5,0,0,0,1.1-.64l.39-.51a2.43,2.43,0,0,0,.34-1.26v-.16a2,2,0,0,0-.21-1,2,2,0,0,0-.52-.8,1.85,1.85,0,0,0-.81-.52,1.76,1.76,0,0,0-1-.21l-.66.09a2.39,2.39,0,0,0-1.11.64L23,181a2.54,2.54,0,0,0-.34,1.27Z" transform="translate(-22.59 -24.44)"/><path class="cls-1" d="M168,184.94a4.08,4.08,0,0,0,.6-.77,4.18,4.18,0,0,0,.4-.89,1.61,1.61,0,0,0,.1-.36,5.69,5.69,0,0,0,.12-1,6.78,6.78,0,0,0-.11-1,3.57,3.57,0,0,0-.1-.35,5.91,5.91,0,0,0-.4-.89,7,7,0,0,0-.48-.63l-.13-.15a1.77,1.77,0,0,0-.8-.52,2.32,2.32,0,0,0-1.93,0,1.77,1.77,0,0,0-.8.52,2.5,2.5,0,0,0-.74,1.77l.09.66a2.52,2.52,0,0,0,.65,1.1c0,.05.09.1.13.16l-.39-.51a1.75,1.75,0,0,1,.2.35l-.25-.6a1.69,1.69,0,0,1,.13.49l-.08-.66a2,2,0,0,1,0,.54l.09-.67a1.83,1.83,0,0,1-.12.46l.25-.6a1.76,1.76,0,0,1-.21.38l.39-.5-.14.15a2.4,2.4,0,0,0-.51,2.73,1.83,1.83,0,0,0,.51.8,2.53,2.53,0,0,0,1.77.74l.67-.09a2.52,2.52,0,0,0,1.1-.65Z" transform="translate(-22.59 -24.44)"/><path class="cls-1" d="M162.63,118.74v62.09c0,3.22,5,3.23,5,0V118.74c0-3.22-5-3.23-5,0Z" transform="translate(-22.59 -24.44)"/><path class="cls-1" d="M162.14,117.76V180.1c0,3.22,5,3.22,5,0V117.76c0-3.22-5-3.22-5,0Z" transform="translate(-22.59 -24.44)"/><path class="cls-1" d="M162.17,176.18a14.32,14.32,0,0,1-.1,1.46l.09-.67a7.89,7.89,0,0,1-.49,1.91l.25-.6a4.86,4.86,0,0,1-.61,1.06l.39-.51a5.37,5.37,0,0,1-.81.84l.5-.4a4,4,0,0,1-.84.5l.6-.25a3.62,3.62,0,0,1-.86.22,2.52,2.52,0,0,0-1.49,1.15,2.55,2.55,0,0,0-.25,1.93,2.49,2.49,0,0,0,1.15,1.49l.59.25a2.5,2.5,0,0,0,1.33,0,6.36,6.36,0,0,0,4.29-3.11,10.47,10.47,0,0,0,1.26-5.27,2.59,2.59,0,0,0-.73-1.77,2.5,2.5,0,0,0-4.27,1.77Z" transform="translate(-22.59 -24.44)"/><path class="cls-1" d="M167.07,120.63a6.63,6.63,0,0,0-1.54-6,6.7,6.7,0,0,0-2.64-1.74,5.92,5.92,0,0,0-2.64-.38,2.68,2.68,0,0,0-1.77.73,2.51,2.51,0,0,0,0,3.54,2.48,2.48,0,0,0,1.77.73,4.13,4.13,0,0,1,.93,0l-.66-.09a4.91,4.91,0,0,1,1.12.31l-.6-.25a4.72,4.72,0,0,1,.87.51l-.51-.39a4.34,4.34,0,0,1,.72.7l-.39-.5a4.34,4.34,0,0,1,.54.93l-.25-.59a4.58,4.58,0,0,1,.29,1l-.09-.66a4.34,4.34,0,0,1,0,1.08l.09-.66c0,.13,0,.25-.07.38a2.65,2.65,0,0,0,.25,1.93,2.54,2.54,0,0,0,1.49,1.14,2.5,2.5,0,0,0,3.08-1.74Z" transform="translate(-22.59 -24.44)"/><path class="cls-1" d="M161.17,117.31a8.07,8.07,0,0,1,.73.82l-.39-.5a8.41,8.41,0,0,1,1.09,1.85l-.26-.6.12.28a1.78,1.78,0,0,0,.44.85,2,2,0,0,0,.7.65,1.85,1.85,0,0,0,.93.29,1.89,1.89,0,0,0,1,0,2.5,2.5,0,0,0,1.49-1.15l.26-.6a2.5,2.5,0,0,0,0-1.33,11.87,11.87,0,0,0-1.06-2.18c-.27-.41-.58-.8-.89-1.19a8.07,8.07,0,0,0-.62-.68,2.58,2.58,0,0,0-1.77-.74,2.83,2.83,0,0,0-1.77.74,2.48,2.48,0,0,0-.73,1.76,2.59,2.59,0,0,0,.73,1.77Z" transform="translate(-22.59 -24.44)"/><path class="cls-1" d="M29.52,179.15V117c0-3.21-5-3.22-5,0v62.2c0,3.21,5,3.22,5,0Z" transform="translate(-22.59 -24.44)"/><path class="cls-1" d="M29.7,117.85H147.12c3.21,0,3.22-5,0-5H29.7c-3.21,0-3.22,5,0,5Z" transform="translate(-22.59 -24.44)"/><path class="cls-1" d="M147.24,117.81h15.62a2.5,2.5,0,0,0,0-5H147.24a2.5,2.5,0,0,0,0,5Z" transform="translate(-22.59 -24.44)"/><path class="cls-1" d="M63.73,83.45H49.88a2.5,2.5,0,0,0,0,5H63.73a2.53,2.53,0,0,0,2.5-2.5,2.55,2.55,0,0,0-2.5-2.5Z" transform="translate(-22.59 -24.44)"/><path class="cls-1" d="M47.69,84.77c-1.16,1.19-2.37,2.32-3.62,3.42A2.7,2.7,0,0,0,43.34,90a2.53,2.53,0,0,0,.73,1.77,2.49,2.49,0,0,0,1.77.73l.66-.09a2.5,2.5,0,0,0,1.1-.64q1.88-1.64,3.62-3.41A2.6,2.6,0,0,0,52,86.54a2.56,2.56,0,0,0-.74-1.77A2.48,2.48,0,0,0,49.46,84a2.59,2.59,0,0,0-1.77.73Z" transform="translate(-22.59 -24.44)"/><path class="cls-1" d="M57.47,104H59a1.85,1.85,0,0,0,1-.21,2,2,0,0,0,.81-.52,2.83,2.83,0,0,0,.73-1.77l-.09-.66a2.45,2.45,0,0,0-.64-1.1l-.51-.4A2.53,2.53,0,0,0,59,99H57.88a1.88,1.88,0,0,0-1,.22,1.85,1.85,0,0,0-.81.52,1.83,1.83,0,0,0-.51.8,1.88,1.88,0,0,0-.22,1l.09.67a2.5,2.5,0,0,0,.64,1.1l.51.39a2.43,2.43,0,0,0,1.26.34H59a1.85,1.85,0,0,0,1-.21,2,2,0,0,0,.81-.52,2.83,2.83,0,0,0,.73-1.77l-.09-.66a2.45,2.45,0,0,0-.64-1.1l-.51-.4A2.53,2.53,0,0,0,59,99H57.47a1.88,1.88,0,0,0-1,.22,1.85,1.85,0,0,0-.81.52,1.83,1.83,0,0,0-.51.8,1.88,1.88,0,0,0-.22,1l.09.67a2.5,2.5,0,0,0,.64,1.1l.51.39a2.43,2.43,0,0,0,1.26.34Z" transform="translate(-22.59 -24.44)"/><path class="cls-1" d="M59.5,98a5.4,5.4,0,0,0-1.5-.11,8,8,0,0,0-1.06.17,6.78,6.78,0,0,0-1,.39,2.8,2.8,0,0,0-1.15,1.49,1.89,1.89,0,0,0,0,1,2,2,0,0,0,.3.93l.39.5a2.52,2.52,0,0,0,1.1.65l.67.08a2.43,2.43,0,0,0,1.26-.34h0l-.6.25a2.94,2.94,0,0,1,.72-.19l-.66.09a2.3,2.3,0,0,1,.74,0l-.66-.09.11,0a2,2,0,0,0,1,0,2.26,2.26,0,0,0,1.63-.94,1.94,1.94,0,0,0,.45-.85l.09-.67A2.53,2.53,0,0,0,61,99.11l-.4-.5A2.46,2.46,0,0,0,59.5,98Z" transform="translate(-22.59 -24.44)"/><path class="cls-1" d="M95.32,71.25c3.22,0,3.23-5,0-5s-3.22,5,0,5Z" transform="translate(-22.59 -24.44)"/><path class="cls-1" d="M90,64.88c-1,1.78-.56,3.72.3,5.45a7.37,7.37,0,0,0,3.08,3.4c2.88,1.54,6.5,2.26,9.41.38a2.5,2.5,0,1,0-2.52-4.32l-.33.2c-.41.23,0,0,.1,0-.13,0-.58.2-.74.23s-.56.09-.13,0-.07,0-.13,0a6.77,6.77,0,0,1-.78,0c-.34,0,.07,0,.18,0L98,70.2a7.69,7.69,0,0,1-.79-.21l-.38-.13c-.09,0-.53-.21-.16,0l-.15-.07-.37-.18c-.21-.1-.42-.21-.62-.33s-.43-.33-.12-.06,0,0-.09-.1-.36-.42-.1-.09,0,0-.06-.12-.26-.43-.38-.65-.23-.45-.33-.68.06.08.07.18a2.54,2.54,0,0,0-.15-.44c0-.09,0-.2-.06-.29.18.43,0,.47,0,.17s0,0,0,.18l0-.14c-.17.38-.2.45-.07.22A2.5,2.5,0,1,0,90,64.88Z" transform="translate(-22.59 -24.44)"/><path class="cls-1" d="M117.72,80.1v5.5a2.56,2.56,0,0,0,.74,1.77,2.5,2.5,0,0,0,3.53,0,2.59,2.59,0,0,0,.73-1.77V80.1a2.49,2.49,0,0,0-4.26-1.76,2.6,2.6,0,0,0-.74,1.76Z" transform="translate(-22.59 -24.44)"/><path class="cls-1" d="M157.57,42.2c3.22,0,3.22-5,0-5s-3.22,5,0,5Z" transform="translate(-22.59 -24.44)"/><path class="cls-1" d="M34.55,110.19a8.47,8.47,0,0,0-1.22.15l.67-.09a1.48,1.48,0,0,1-.42,0l.67.09a.79.79,0,0,1-.22-.06l.6.25a.94.94,0,0,1-.22-.12l.51.39a.9.9,0,0,1-.19-.2l.39.51a1.13,1.13,0,0,1-.16-.26l.26.6a.9.9,0,0,1-.08-.28l.09.66a1,1,0,0,1,0-.25l-.09.67a1.16,1.16,0,0,1,0-.18,1.89,1.89,0,0,0,0-1,2.26,2.26,0,0,0-.94-1.63,1.83,1.83,0,0,0-.85-.44l-.67-.09a2.43,2.43,0,0,0-1.26.34l-.51.39a2.5,2.5,0,0,0-.64,1.1.75.75,0,0,0,0,.16,4.17,4.17,0,0,0-.1.8,3.41,3.41,0,0,0,.05.46,3.14,3.14,0,0,0,1,2.07l.12.1a6.38,6.38,0,0,0,.6.46,6.5,6.5,0,0,0,.72.31l.15,0a3.47,3.47,0,0,0,1,.1c.36,0,.72-.09,1.09-.14l-.67.09.26,0a2.83,2.83,0,0,0,1.77-.73,2,2,0,0,0,.52-.81,1.88,1.88,0,0,0,.21-1L37,112a2.5,2.5,0,0,0-.64-1.1l-.51-.39a2.43,2.43,0,0,0-1.26-.34Z" transform="translate(-22.59 -24.44)"/><path class="cls-1" d="M32.45,104.8a5.81,5.81,0,0,0-1.87,1.82,5.67,5.67,0,0,0-.81,2.53l.09.66.25.6a2.55,2.55,0,0,0,3.93.51,6.12,6.12,0,0,0,1.05-1.53,8.33,8.33,0,0,1,.77-1.19l-.39.51c.32-.4.66-.78,1-1.16a2.46,2.46,0,0,0,.19-3.29,2.51,2.51,0,0,0-3.22-.64,11.39,11.39,0,0,0-1.91,1.32A5.47,5.47,0,0,0,30,107.29a6.12,6.12,0,0,0-.25,1.54,8,8,0,0,0,0,1,5.41,5.41,0,0,0,.83,2.92,2.7,2.7,0,0,0,1.5,1.15,2.58,2.58,0,0,0,1.92-.26,2.63,2.63,0,0,0,1.32-2.26,3.37,3.37,0,0,0-.43-1.58l.25.6a3,3,0,0,1-.18-.65l.09.66a2.81,2.81,0,0,1,0-.58l-.09.67A3.57,3.57,0,0,1,35,110a2.52,2.52,0,0,0-1.74-3.08,2.56,2.56,0,0,0-3.08,1.75A4.66,4.66,0,0,0,30,110.3a5.66,5.66,0,0,0,.57,2.09l-.25-.59a.5.5,0,0,1,0,.13l-.09-.67a.2.2,0,0,1,0,.13l.34-1.26,0,0,.9-.89-.05,0,3.42.89a2.09,2.09,0,0,1-.26-.46l.25.59a3.44,3.44,0,0,1-.2-.78l.09.67a7.35,7.35,0,0,1,0-1.69l-.09.66a3.14,3.14,0,0,1,.19-.73l-.25.6a3.16,3.16,0,0,1,.33-.56l-.39.51a4.63,4.63,0,0,1,.71-.69l-.51.39a9.52,9.52,0,0,1,1.21-.77l-3-3.93a24,24,0,0,0-1.63,2c-.38.54-.61,1.16-1,1.68l.39-.51a1.9,1.9,0,0,1-.19.21l4.27,1.77v-.09l-.09.67a3.06,3.06,0,0,1,.21-.73l-.25.59a3.86,3.86,0,0,1,.39-.65l-.39.51a3.11,3.11,0,0,1,.48-.48l-.51.39a3.64,3.64,0,0,1,.35-.24,2.5,2.5,0,1,0-2.52-4.32Z" transform="translate(-22.59 -24.44)"/><path class="cls-1" d="M35.26,110.47a4.82,4.82,0,0,1-.93,0l.67.09a1.83,1.83,0,0,1-.46-.12l.6.25a1.91,1.91,0,0,1-.27-.16l.51.39a.92.92,0,0,1-.22-.22l.39.51a1.68,1.68,0,0,1-.2-.34l.25.59a8.36,8.36,0,0,1-.3-1.22,1.78,1.78,0,0,0-.44-.85,2,2,0,0,0-.7-.65,1.85,1.85,0,0,0-.93-.29,1.89,1.89,0,0,0-1,0l-.6.25a2.64,2.64,0,0,0-.89.9l-.26.6a2.5,2.5,0,0,0,0,1.33c.07.33.13.67.22,1a4.06,4.06,0,0,0,1.08,1.84,5.21,5.21,0,0,0,.66.5,4.82,4.82,0,0,0,.78.35,2.12,2.12,0,0,0,.45.12,7.91,7.91,0,0,0,1.08.11l.51,0a1.88,1.88,0,0,0,1-.21,1.85,1.85,0,0,0,.8-.52,1.82,1.82,0,0,0,.52-.8,1.9,1.9,0,0,0,.22-1l-.09-.66A2.55,2.55,0,0,0,37,111.2l-.5-.39a2.53,2.53,0,0,0-1.26-.34Z" transform="translate(-22.59 -24.44)"/><path class="cls-1" d="M57.87,99.08h-.42v5h1.3a1.9,1.9,0,0,0,1-.22,1.83,1.83,0,0,0,.8-.51,1.85,1.85,0,0,0,.52-.81,1.88,1.88,0,0,0,.21-1l-.09-.67a2.41,2.41,0,0,0-.64-1.1l-.5-.39a2.47,2.47,0,0,0-1.27-.34H57a1.93,1.93,0,0,0-1,.21,2.05,2.05,0,0,0-.81.52,2.75,2.75,0,0,0-.73,1.77l.09.66a2.48,2.48,0,0,0,.64,1.11l.51.39a2.53,2.53,0,0,0,1.26.34h1.8a1.9,1.9,0,0,0,1-.22,1.83,1.83,0,0,0,.8-.51,1.85,1.85,0,0,0,.52-.81,1.88,1.88,0,0,0,.21-1l-.09-.67a2.41,2.41,0,0,0-.64-1.1l-.5-.39a2.47,2.47,0,0,0-1.27-.34h-1.3a2,2,0,0,0-1,.21,2,2,0,0,0-.8.52,1.85,1.85,0,0,0-.52.81,1.76,1.76,0,0,0-.21,1l.09.66a2.39,2.39,0,0,0,.64,1.11l.5.39a2.54,2.54,0,0,0,1.27.34h.42a1.88,1.88,0,0,0,1-.22,2.16,2.16,0,0,0,1.32-1.32,1.88,1.88,0,0,0,.22-1l-.09-.67a2.5,2.5,0,0,0-.64-1.1l-.51-.39a2.43,2.43,0,0,0-1.26-.34Z" transform="translate(-22.59 -24.44)"/><path class="cls-1" d="M59.45,101.19a.43.43,0,0,1,0-.16l-.09.66a.94.94,0,0,1,0-.16l-.25.6a.54.54,0,0,1,.09-.15l-.39.5a.57.57,0,0,1,.11-.11l-.5.39a.39.39,0,0,1,.14-.08,2,2,0,0,0,.7-.65,2.21,2.21,0,0,0,.49-1.85,1.77,1.77,0,0,0-.3-.93l-.39-.5a2.41,2.41,0,0,0-1.1-.64L57.34,98a2.44,2.44,0,0,0-1.27.34l-.09,0a4.37,4.37,0,0,0-.59.45l-.07.08c-.07.09-.14.17-.2.26s-.14.17-.2.26l0,0,0,0a.08.08,0,0,0,0,0v0c-.09.2-.18.41-.26.61a.23.23,0,0,0,0,.11c0,.12,0,.27-.06.38s0,.25-.05.38a.41.41,0,0,0,0,.11,1.89,1.89,0,0,0,.21,1A2.3,2.3,0,0,0,56,103.48a1.89,1.89,0,0,0,1,.21l.66-.09a2.5,2.5,0,0,0,1.1-.64l.4-.51a2.53,2.53,0,0,0,.34-1.26Z" transform="translate(-22.59 -24.44)"/><path class="cls-1" d="M24.36,176.82a5.2,5.2,0,0,0,.1,1.36,6.4,6.4,0,0,0,.45,1.27,8.12,8.12,0,0,0,1.2,1.77,5.56,5.56,0,0,0,.52.56,4.33,4.33,0,0,0,.82.58,9.71,9.71,0,0,0,.94.38l1.75.6v-4.82h-.06l.66-.09a3.24,3.24,0,0,1-.88,0l.67.09a3.43,3.43,0,0,1-.85-.22l.59.25a3.29,3.29,0,0,1-.7-.41l.51.4a3.31,3.31,0,0,1-.5-.49l.4.5a3.74,3.74,0,0,1-.46-.83l.25.6a7.21,7.21,0,0,1-.53-1.69l.09.66c0-.12,0-.24,0-.36a2.59,2.59,0,0,0-.73-1.77,2.51,2.51,0,0,0-3.54,0,2.57,2.57,0,0,0-.73,1.77,7,7,0,0,0,.56,2.51,6.37,6.37,0,0,0,1.47,2.46,5.78,5.78,0,0,0,2.34,1.34,7,7,0,0,0,1.36.21,6.15,6.15,0,0,0,1.42-.12l.6-.25a1.88,1.88,0,0,0,.7-.64,2.39,2.39,0,0,0,.54-1.52,2.93,2.93,0,0,0-.34-1.26,2.66,2.66,0,0,0-1.5-1.15c-.67-.23-1.36-.44-2-.7l.6.25a1.45,1.45,0,0,1-.32-.18l.51.39a4.12,4.12,0,0,1-.75-.81l.39.51a5.44,5.44,0,0,1-.64-1.06l.25.6a3.37,3.37,0,0,1-.21-.77l.09.67a3,3,0,0,1,0-.6,2,2,0,0,0-.21-1,2,2,0,0,0-.52-.81,2.51,2.51,0,0,0-3.54,0l-.39.51a2.53,2.53,0,0,0-.34,1.26Z" transform="translate(-22.59 -24.44)"/><path class="cls-1" d="M24.46,176.88a6.38,6.38,0,0,0,2,4.3,11.8,11.8,0,0,0,1.66,1.33,5.12,5.12,0,0,0,1.22.6,3.66,3.66,0,0,0,2,.06,1.94,1.94,0,0,0,.85-.45,1.88,1.88,0,0,0,.64-.7,2.55,2.55,0,0,0,.25-1.93,2.52,2.52,0,0,0-1.15-1.49l-.59-.25a2.5,2.5,0,0,0-1.33,0h-.07l.67-.09H30.3l.66.09a1.58,1.58,0,0,1-.37-.11l.59.26a5.28,5.28,0,0,1-1-.67l.51.39a6.58,6.58,0,0,1-1.17-1.13l.39.5a4.26,4.26,0,0,1-.51-.85l.26.6a3.49,3.49,0,0,1-.24-.82l.09.66,0-.32a2.59,2.59,0,0,0-.73-1.77,2.49,2.49,0,0,0-1.77-.73,2.52,2.52,0,0,0-1.77.73,2.59,2.59,0,0,0-.73,1.77Z" transform="translate(-22.59 -24.44)"/><path class="cls-1" d="M162.49,176a3.26,3.26,0,0,1,0,.7l.09-.67a10.26,10.26,0,0,1-.8,2.42l.25-.6a5.9,5.9,0,0,1-.72,1.3l.39-.5a4.48,4.48,0,0,1-.36.4,2.59,2.59,0,0,0-.73,1.77,2.55,2.55,0,0,0,.73,1.77,2.51,2.51,0,0,0,1.77.73,2.59,2.59,0,0,0,1.77-.73,8.69,8.69,0,0,0,2.5-4.77,1.85,1.85,0,0,0,0-1,1.79,1.79,0,0,0-.29-.93,2.54,2.54,0,0,0-1.5-1.15,2.48,2.48,0,0,0-1.92.25,2.41,2.41,0,0,0-1.15,1.49,7.17,7.17,0,0,1-.43,1.57l.25-.6a7.25,7.25,0,0,1-.86,1.47l.39-.51a6.75,6.75,0,0,1-.57.63l3.54,3.54a8.91,8.91,0,0,0,1.89-3.21c.17-.44.34-.88.47-1.33a5,5,0,0,0,.16-.69,6.19,6.19,0,0,0,.11-1.36,2.66,2.66,0,0,0-.73-1.77,2.53,2.53,0,0,0-1.77-.73,2.57,2.57,0,0,0-1.77.73,2.51,2.51,0,0,0-.73,1.77Z" transform="translate(-22.59 -24.44)"/><path class="cls-1" d="M161.22,117.84l.23.1-.59-.26a5.65,5.65,0,0,1,1.11.6l-.51-.39a2.85,2.85,0,0,1,.43.42l-.39-.51c.15.19.24.41.38.61a4.61,4.61,0,0,0,.58.74,3.31,3.31,0,0,1,.26.27l-.39-.5a1,1,0,0,1,.14.22l-.25-.6a2,2,0,0,1,.1.41l-.09-.66c0,.14,0,.28,0,.43l3.16-2.41h0l.6.25-.07,0,.51.39a.1.1,0,0,1-.06-.05l.39.5-.05-.07.26.6a.42.42,0,0,1,0-.12l.09.67a.19.19,0,0,1,0-.08l-.09.66v0a1.85,1.85,0,0,0,0-1,1.79,1.79,0,0,0-.29-.93,1.83,1.83,0,0,0-.65-.7,1.8,1.8,0,0,0-.85-.45,2.48,2.48,0,0,0-1.92.25,2.63,2.63,0,0,0-1.15,1.49,2.16,2.16,0,0,0-.06,1.12,2.1,2.1,0,0,0,.34,1.07,3,3,0,0,0,.23.3,2.81,2.81,0,0,0,.25.31,3.49,3.49,0,0,0,.54.41l.34.14a1.36,1.36,0,0,0,.33.14,2.5,2.5,0,0,0,1.33,0,1.89,1.89,0,0,0,.85-.45,1.83,1.83,0,0,0,.65-.7,2.53,2.53,0,0,0,.34-1.26c0-.26,0-.51-.07-.76a5.25,5.25,0,0,0-.09-.55,2.92,2.92,0,0,0-.19-.49,3.46,3.46,0,0,0-.72-1.12c-.11-.12-.24-.22-.34-.35l.39.51c-.15-.22-.26-.47-.42-.68a5.78,5.78,0,0,0-.63-.76,8.2,8.2,0,0,0-.74-.58,9,9,0,0,0-1.9-.92,1.89,1.89,0,0,0-1,0,2.26,2.26,0,0,0-1.63.94,2,2,0,0,0-.45.85,2.55,2.55,0,0,0,.26,1.93l.39.51a2.5,2.5,0,0,0,1.1.64Z" transform="translate(-22.59 -24.44)"/><path class="cls-1" d="M161.35,117.88c3.22,0,3.22-5,0-5s-3.22,5,0,5Z" transform="translate(-22.59 -24.44)"/><path class="cls-1" d="M157.46,109.79a3.69,3.69,0,0,1,.11.45l-.09-.66a2.91,2.91,0,0,1,0,.59l.09-.66a3,3,0,0,1-.22.77l.25-.6a3.55,3.55,0,0,1-.41.71l.39-.5a4.1,4.1,0,0,1-.69.69l.5-.39A6.94,6.94,0,0,1,156,111l.6-.25c-.44.18-.89.34-1.35.49a2.75,2.75,0,0,0-1.49,1.15,2.55,2.55,0,0,0-.25,1.93,2.46,2.46,0,0,0,1.15,1.49,2.49,2.49,0,0,0,1.92.26,10.5,10.5,0,0,0,4.28-2.31,6,6,0,0,0,1.46-2.44,5.19,5.19,0,0,0,.22-1.41,6.8,6.8,0,0,0-.11-1,3.69,3.69,0,0,0-.11-.45,2.67,2.67,0,0,0-1.15-1.49,2.5,2.5,0,0,0-3.67,2.82Z" transform="translate(-22.59 -24.44)"/><path class="cls-1" d="M159.63,105h-.77a2.54,2.54,0,0,0-2.16,1.24,2.52,2.52,0,0,0,0,2.53,3.48,3.48,0,0,1,.22.43l-.25-.6a3.78,3.78,0,0,1,.23.86l-.09-.66a4.18,4.18,0,0,1,0,1.06l.09-.66a4.24,4.24,0,0,1-.29,1l.25-.6a5.72,5.72,0,0,1-.72,1.24l.4-.51-.27.33a2.63,2.63,0,0,0-.73,1.76A2.49,2.49,0,0,0,158,115a2.41,2.41,0,0,0,1.76-.73,8.71,8.71,0,0,0,1.18-1.65,7.1,7.1,0,0,0,.72-1.89,6.33,6.33,0,0,0-.67-4.45L158.86,110h.77a2.5,2.5,0,0,0,1.77-4.26,2.6,2.6,0,0,0-1.77-.74Z" transform="translate(-22.59 -24.44)"/><path class="cls-1" d="M156.65,110.54c-.26.13-.52.26-.79.37l.59-.25a12.8,12.8,0,0,1-1.84.61,1.78,1.78,0,0,0-.85.44,1.9,1.9,0,0,0-.65.7,2,2,0,0,0-.3.93,2,2,0,0,0,.05,1,2.55,2.55,0,0,0,1.15,1.5l.6.25a2.46,2.46,0,0,0,1.32,0,15,15,0,0,0,3.25-1.23,2,2,0,0,0,.7-.65,1.78,1.78,0,0,0,.44-.85,2.71,2.71,0,0,0-.25-1.92,2.46,2.46,0,0,0-1.49-1.15l-.67-.09a2.43,2.43,0,0,0-1.26.34Z" transform="translate(-22.59 -24.44)"/></svg>