<svg width="1000" height="866" viewBox="0 0 1000 866" fill="none" xmlns="http://www.w3.org/2000/svg">
<path opacity="0.5" d="M500 853.702C776.142 853.702 1000 830.787 1000 802.521C1000 774.254 776.142 751.339 500 751.339C223.858 751.339 0 774.254 0 802.521C0 830.787 223.858 853.702 500 853.702Z" fill="#E8FAF7"/>
<path opacity="0.3" d="M545.095 543.218C545.095 553.636 537.097 562.309 526.713 563.152L116.578 596.46C104.932 597.406 94.959 588.21 94.959 576.526V54.3785C94.959 42.6945 104.932 33.4984 116.578 34.4442L526.713 67.7521C537.097 68.5954 545.095 77.2685 545.095 87.6865V543.218Z" fill="#00C6A7" fill-opacity="0.3"/>
<path d="M287.218 409.016L415.767 429.481V176.627L287.218 156.162V409.016Z" fill="#CCE9FF"/>
<path opacity="0.13" d="M287.218 409.016L415.767 429.481V176.627L287.218 156.162V409.016Z" fill="#00C6A7"/>
<path d="M287.218 409.016L158.669 429.481V176.627L287.218 156.162V409.016Z" fill="#CCE9FF"/>
<path d="M544.317 409.016L415.768 429.481V176.627L544.317 156.162V409.016Z" fill="#CCE9FF"/>
<path d="M287.218 253.31L158.669 271.075V258.883L287.218 241.118V253.31Z" fill="#F7F7F7"/>
<path d="M287.218 330.988L158.669 348.754V336.562L287.218 318.797V330.988Z" fill="#F7F7F7"/>
<path d="M544.317 253.31L415.768 271.075V258.883L544.317 241.118V253.31Z" fill="#F7F7F7"/>
<path d="M346.577 324.322C361.628 324.322 373.83 311.349 373.83 295.346C373.83 279.343 361.628 266.37 346.577 266.37C331.526 266.37 319.325 279.343 319.325 295.346C319.325 311.349 331.526 324.322 346.577 324.322Z" fill="#0E538C"/>
<path d="M544.317 330.988L415.768 348.754V336.562L544.317 318.797V330.988Z" fill="#F7F7F7"/>
<path d="M287.218 253.31L415.767 271.075V258.883L287.218 241.118V253.31Z" fill="#F7F7F7"/>
<path d="M287.218 330.988L415.767 348.754V336.562L287.218 318.797V330.988Z" fill="#F7F7F7"/>
<path d="M200.614 422.803L189.926 424.458V171.651L200.614 169.95V422.803Z" fill="#F7F7F7"/>
<path d="M261.226 327.056L250.538 328.71V162.034L261.226 160.333V327.056Z" fill="#F7F7F7"/>
<path d="M344.256 418.469L354.944 420.123V167.221L344.256 165.52V418.469Z" fill="#F7F7F7"/>
<path d="M426.455 427.902L415.768 429.556V176.75L426.455 175.048V427.902Z" fill="#F7F7F7"/>
<path d="M477.809 334.789L467.121 336.443V168.683L477.809 166.982V334.789Z" fill="#F7F7F7"/>
<path d="M530.974 410.892L520.286 412.546V324.243L530.974 322.542V410.892Z" fill="#F7F7F7"/>
<path d="M498.393 416.233L487.705 417.887V329.584L498.393 327.883V416.233Z" fill="#F7F7F7"/>
<path d="M461.47 422.125L450.782 423.779V335.477L461.47 333.775V422.125Z" fill="#F7F7F7"/>
<path d="M346.577 253.532C324.857 253.532 307.25 272.252 307.25 295.346C307.25 318.439 324.857 337.16 346.577 337.16C368.296 337.16 385.904 318.439 385.904 295.346C385.904 272.252 368.296 253.532 346.577 253.532ZM346.577 324.321C331.526 324.321 319.325 311.348 319.325 295.346C319.325 279.343 331.526 266.37 346.577 266.37C361.628 266.37 373.829 279.343 373.829 295.346C373.829 311.348 361.628 324.321 346.577 324.321Z" fill="#F7F7F7"/>
<path d="M346.577 324.322C361.628 324.322 373.83 311.349 373.83 295.346C373.83 279.343 361.628 266.37 346.577 266.37C331.526 266.37 319.325 279.343 319.325 295.346C319.325 311.349 331.526 324.322 346.577 324.322Z" fill="#CCE9FF"/>
<path opacity="0.86" d="M346.577 324.322C361.628 324.322 373.83 311.349 373.83 295.346C373.83 279.343 361.628 266.37 346.577 266.37C331.526 266.37 319.325 279.343 319.325 295.346C319.325 311.349 331.526 324.322 346.577 324.322Z" fill="#00C6A7"/>
<path d="M415.776 265.807L415.645 265.789L285.582 248.227L225.217 255.273L225.006 253.467L285.598 246.393L415.758 263.968L471.555 255.317V167.977L473.374 167.688V256.876L415.776 265.807Z" fill="#00C6A7"/>
<path d="M226.663 277.571C220.222 277.571 209.323 276.494 209.323 272.458C209.323 268.422 220.222 267.345 226.663 267.345C233.103 267.345 244.002 268.422 244.002 272.458C244.002 276.494 233.103 277.571 226.663 277.571ZM211.678 272.458C212.206 273.453 217.662 275.231 226.663 275.231C235.663 275.231 241.119 273.453 241.647 272.458C241.119 271.464 235.663 269.685 226.663 269.685C217.662 269.685 212.206 271.464 211.678 272.458Z" fill="#00C6A7"/>
<path d="M236.471 245.594C236.471 240.177 232.08 235.786 226.663 235.786C221.246 235.786 216.854 240.177 216.854 245.594C216.854 245.603 216.854 245.612 216.854 245.621C216.858 246.889 217.193 248.135 217.755 249.271L226.663 267.271L235.57 249.271C236.133 248.135 236.467 246.889 236.471 245.621C236.471 245.612 236.471 245.603 236.471 245.594ZM226.663 250.777C223.801 250.777 221.481 248.456 221.481 245.594C221.481 242.732 223.801 240.412 226.663 240.412C229.525 240.412 231.845 242.732 231.845 245.594C231.845 248.456 229.525 250.777 226.663 250.777Z" fill="#00C6A7"/>
<path opacity="0.6" d="M303.809 246.34C304.659 253.6 310.699 259.587 311.03 266.889C311.424 275.608 303.816 282.308 297.1 287.881C290.482 293.371 283.892 299.36 280.355 307.198C276.818 315.035 277.086 325.197 283.165 331.278C290.391 338.507 302.691 337.634 310.847 343.794C317.07 348.494 319.771 356.38 323.929 362.977C332.857 377.15 349.926 385.766 366.631 384.534C371.241 384.194 376.254 382.867 378.833 379.03C381.946 374.401 380.253 368.062 377.466 363.229C374.68 358.397 370.85 353.982 369.636 348.537C367.057 336.972 377.014 326.589 386.718 319.79C396.423 312.991 407.776 305.88 410.057 294.253C412.486 281.864 403.233 270.203 393.144 262.614C387.144 258.101 380.332 253.947 377.065 247.188C374.384 241.642 374.523 235.137 372.399 229.356C369.459 221.355 361.939 215.224 353.504 213.956C338.006 211.63 335.223 224.229 324.081 229.628C315.851 233.615 302.057 231.372 303.809 246.34Z" fill="#00C6A7"/>
<path d="M614.242 740.519C613.919 745.745 613.454 751.35 610.132 755.396C606.216 760.167 599.527 761.379 593.42 762.275C584.521 763.582 575.621 764.889 566.722 766.196C566.268 767.513 567.806 768.617 569.126 769.063C575.705 771.29 582.873 770.319 589.781 769.6C597.787 768.766 605.833 768.307 613.884 768.226C617.466 768.19 621.716 767.87 623.534 764.783C624.891 762.481 624.271 759.589 623.952 756.935C622.983 748.847 625.259 740.607 624.101 732.545C623.969 731.615 623.669 730.54 622.791 730.207C622.344 730.037 621.845 730.109 621.377 730.203C614.568 731.58 614.62 734.402 614.242 740.519Z" fill="#FFE3CA"/>
<path d="M616.673 761.477C610.041 765.527 603.302 766.624 595.592 765.662C595.121 765.605 592.532 765.034 592.061 764.984C591.787 763.506 591.938 762.056 590.723 762.103C585.147 762.318 579.581 762.783 574.047 763.499C572.29 763.727 565.615 763.882 564.91 765.249C564.282 766.469 564.685 768.025 565.57 769.071C566.456 770.117 567.737 770.742 569.019 771.231C575.339 773.64 582.322 773.355 589.078 773.036C597.387 772.644 605.697 772.252 614.006 771.859C616.842 771.725 619.826 771.545 622.208 770.001C625.711 767.73 626.916 763.147 627 758.973C627.153 751.38 619.067 760.015 616.673 761.477Z" fill="#0B4870"/>
<path d="M589.932 363.741C589.932 363.741 608.621 362.655 608.583 362.187C608.15 356.743 603.231 348.673 605.786 343.847C608.339 339.019 610.293 336.287 612.874 331.475C613.255 330.763 613.589 329.792 613.008 329.232C612.531 328.772 611.755 328.924 611.12 329.113C607.704 330.129 604.333 331.301 601.024 332.627C595.42 334.871 590.121 334.815 589.931 340.74C589.723 347.251 589.932 363.741 589.932 363.741Z" fill="#FFE3CA"/>
<path d="M484.063 754.471C483.055 759.609 481.857 765.104 478.032 768.679C473.523 772.894 466.732 773.215 460.561 773.302C451.567 773.429 442.573 773.554 433.58 773.68C432.956 774.926 434.336 776.223 435.586 776.839C441.814 779.912 449.048 779.891 455.991 780.086C464.038 780.313 472.075 780.915 480.064 781.892C483.619 782.327 487.875 782.568 490.084 779.747C491.732 777.642 491.496 774.696 491.529 772.023C491.631 763.879 494.971 756.01 494.883 747.865C494.872 746.926 494.718 745.821 493.891 745.374C493.47 745.148 492.967 745.153 492.49 745.185C485.561 745.653 485.241 748.456 484.063 754.471Z" fill="#FFE3CA"/>
<path d="M632.243 507.124C632.243 507.124 626.217 551.56 623.958 585.452C621.699 619.344 632.996 692.398 632.243 711.981C631.49 731.563 626.972 742.859 626.972 742.859H609.649C609.649 742.859 588.56 651.729 587.807 632.147C587.054 612.564 574.251 512.397 574.251 512.397L632.243 507.124Z" fill="#0B4870"/>
<path d="M401.446 344.367C401.657 346.376 398.764 346.937 398.226 344.99C390.981 318.83 374.229 252.543 374.465 243.428C374.613 237.676 378.721 233.496 378.721 233.496H383.924C383.924 233.496 388.18 237.752 388.654 243.428C388.982 247.383 398.686 318.129 401.446 344.367Z" fill="#0B4870"/>
<path d="M590.332 306.705C588.283 310.546 585.758 314.973 581.442 315.545C580.753 315.636 580.017 315.627 579.422 315.987C578.316 316.656 578.233 318.202 578.28 319.494C578.459 324.418 578.637 329.342 578.815 334.264C578.979 338.764 579.559 344.017 583.412 346.351C586.174 348.025 589.68 347.549 592.851 346.94C595.389 346.452 597.934 345.908 600.314 344.898C607.718 341.761 612.662 334.424 614.959 326.719C616.767 320.65 617.126 313.882 614.436 308.148C609.206 297.008 596.105 295.88 590.332 306.705Z" fill="#FFE3CA"/>
<path d="M623.942 505.113C620.568 505.601 617.213 506.199 613.87 506.864C613.278 506.426 612.483 506.24 611.739 506.1C588.474 501.705 564.411 502.914 542.269 511.299C530.832 546.152 500.199 671.947 493.806 688.903C486.248 708.947 485.356 731.734 480.563 752.612C488.053 754.258 487.222 753.754 494.885 754.031C521.643 690.731 536.538 693.975 540.481 651.813C541.282 643.258 552.545 628.83 557.507 621.815C581.019 588.572 620.974 542.101 627.176 532.255C632.72 523.46 643.754 502.251 623.942 505.113Z" fill="#0B4870"/>
<path d="M402.843 287.105C402.447 285.582 401.918 283.971 400.661 283.022C399.051 281.81 396.755 282.083 394.889 282.842C393.023 283.602 391.324 284.783 389.375 285.295C385.875 286.217 381.723 284.967 378.827 287.135C377.138 288.4 376.331 290.734 376.882 292.771C377.165 293.824 377.764 294.762 378.208 295.76C379.72 299.163 379.447 303.31 381.648 306.315C383.319 308.597 386.087 309.749 388.714 310.795C395.081 313.332 401.449 315.868 407.816 318.405C408.225 318.568 408.696 318.73 409.09 318.536C409.424 318.371 409.596 318.003 409.735 317.658C412.401 311.024 411.258 307.817 407.917 302.446C405.02 297.792 404.203 292.327 402.843 287.105Z" fill="#FFE3CA"/>
<path d="M483.719 775.568C476.612 778.711 469.787 778.912 462.271 776.947C461.812 776.827 459.319 775.923 458.859 775.81C458.783 774.307 459.121 772.891 457.912 772.778C452.358 772.258 446.778 771.989 441.197 771.97C439.425 771.964 432.787 771.242 431.909 772.504C431.127 773.63 431.321 775.225 432.062 776.379C432.803 777.533 433.99 778.321 435.196 778.973C441.146 782.193 448.105 782.829 454.845 783.4C463.133 784.105 471.423 784.807 479.711 785.511C482.539 785.751 485.522 785.966 488.086 784.748C491.858 782.957 493.655 778.572 494.287 774.446C495.435 766.935 486.284 774.432 483.719 775.568Z" fill="#0B4870"/>
<path d="M641.766 379.726C632.986 371.889 623.013 363.583 611.245 363.752C607.323 363.809 547.266 350.312 540.292 349.769C493.692 346.142 455.699 308.903 409.353 302.834C404.75 304.304 403.23 310.54 405.109 314.993C406.989 319.446 411.135 322.458 415.126 325.184C456.824 353.667 500.904 362.421 546.241 384.662C535.797 411.673 557.399 444.333 555.619 451.031C553.715 458.197 536.593 505.443 538.471 512.615C555.366 517.813 568.824 518.505 586.442 519.97C604.059 521.435 622.925 518.258 637.867 508.813C636.228 500.068 628.391 491.999 634.384 488.772C651.539 477.862 668.193 469.633 679.516 452.746C681.701 449.488 683.66 445.958 684.248 442.08C685.87 431.392 654.282 390.897 641.766 379.726ZM631.64 469.767C633.841 459.917 640.244 411.572 640.244 411.572C645.315 414.209 668.699 441.827 668.699 441.827C668.699 441.827 636.616 466.447 631.64 469.767Z" fill="#00C6A7"/>
<path d="M384.61 233.272C381.282 235.09 377.023 234.287 374.425 231.525C372.92 229.925 371.838 227.746 372.864 225.105C375.149 219.229 379.393 212.375 377.434 208.458C375.475 204.54 375.475 204.868 375.475 204.54C375.475 204.214 386.274 210.613 387.879 215.965C391.145 226.849 388.053 231.389 384.61 233.272Z" fill="#F7F7F7"/>
<path d="M398.589 270.001C398.12 268.812 397.476 267.518 396.263 267.112C394.812 266.626 393.216 267.743 392.624 269.155C392.031 270.566 392.176 272.164 392.331 273.687C392.76 277.906 393.188 282.127 393.617 286.347C393.86 288.746 394.394 291.571 396.594 292.562C398.232 293.3 400.284 292.595 401.418 291.201C403.603 288.518 402.156 285.379 401.717 282.397C401.092 278.141 400.174 274.018 398.589 270.001Z" fill="#FFE3CA"/>
<path d="M388.975 220.992C388.76 219.472 388.443 217.844 387.879 215.964C386.274 210.612 375.475 204.213 375.475 204.539C375.475 204.649 375.481 204.694 375.556 204.842C375.582 204.891 375.608 204.943 375.635 204.995C375.84 205.373 376.309 206.207 377.433 208.455C379.297 212.185 375.556 218.568 373.221 224.243C373.904 224.611 374.651 224.732 375.408 224.4C376.992 223.705 377.846 221.341 379.558 221.582C381.974 221.921 381.045 226.498 383.317 227.386C384.722 227.937 386.144 226.537 386.712 225.138C387.279 223.739 387.535 222.097 388.698 221.135C388.785 221.068 388.884 221.042 388.975 220.992Z" fill="#00C6A7"/>
<path d="M627.942 307.113C624.164 303.318 619.256 300.867 614.295 298.847C610.449 297.281 606.411 295.918 602.26 296.002C598.109 296.086 593.789 297.859 591.593 301.382C589.916 304.069 589.657 307.452 590.233 310.568C590.608 312.595 591.497 316.999 593.062 318.501C594.382 319.764 596.48 318.903 597.596 320.758C598.365 322.039 598.272 323.665 597.882 325.107C597.477 326.601 596.734 328.071 595.474 328.97C595.12 329.222 594.722 329.417 594.303 329.546C592.274 330.176 590.942 332.094 591.234 334.197C591.69 337.476 592.905 340.652 594.788 343.374C595.234 344.019 595.731 344.635 596.286 345.187C596.155 346.126 595.904 347.072 595.774 348.01C595.388 350.796 596.576 354.146 599.292 354.876C598.326 353.801 597.378 352.557 597.327 351.112C597.277 349.667 598.588 348.126 599.987 348.49C601.106 348.781 601.658 350.046 601.833 351.188C602.236 353.807 601.443 356.586 599.718 358.597C601.553 357.565 603.445 356.482 604.69 354.786C606.032 352.958 606.49 350.591 607.871 348.793C608.169 348.408 608.507 348.062 608.861 347.729C609.021 347.947 609.185 348.164 609.336 348.385C610.445 350.002 610.553 351.071 609.689 353.667C609.544 354.103 608.643 355.615 608.643 355.615C608.836 355.44 613.375 352.033 610.219 346.749C610.997 346.607 611.768 346.441 612.521 346.203C618.164 344.421 622.269 339.659 626.061 335.115C629.416 331.094 632.908 326.766 633.568 321.572C634.245 316.257 631.719 310.908 627.942 307.113Z" fill="#0B4870"/>
<path d="M624.893 304.49C618.849 304.685 613.869 307.96 614.264 316.176C614.368 318.326 615.073 320.403 615.296 322.544C616.195 331.178 609.433 338.423 605.383 346.1C604.061 348.606 603.098 351.934 604.97 354.059C605 354.094 605.041 354.114 605.073 354.147C606.114 352.426 606.644 350.393 607.874 348.794C608.171 348.408 608.509 348.062 608.863 347.73C609.023 347.948 609.188 348.164 609.339 348.385C610.447 350.002 610.555 351.071 609.691 353.667C609.546 354.103 608.645 355.615 608.645 355.615C608.839 355.44 613.377 352.033 610.221 346.749C610.999 346.608 611.77 346.441 612.523 346.204C618.166 344.422 622.272 339.659 626.063 335.115C629.418 331.094 632.91 326.766 633.57 321.573C634.246 316.26 631.718 310.911 627.941 307.115C626.991 306.158 625.97 305.289 624.893 304.49Z" fill="#0B4870"/>
<path d="M645.133 317.464C646.852 309.458 641.755 301.574 633.748 299.855C625.742 298.136 617.858 303.233 616.139 311.24C614.42 319.246 619.517 327.13 627.523 328.849C635.53 330.568 643.414 325.471 645.133 317.464Z" fill="#0B4870"/>
<path d="M371.178 865.243C370.622 865.243 370.145 865.071 369.748 864.73C369.353 864.39 369.155 863.905 369.155 863.278C369.155 862.71 369.358 862.246 369.764 861.877C370.169 861.51 370.642 861.327 371.178 861.327C371.696 861.327 372.155 861.493 372.556 861.826C372.957 862.159 373.158 862.641 373.158 863.277C373.158 863.893 372.962 864.374 372.57 864.72C372.18 865.068 371.716 865.243 371.178 865.243Z" fill="#F7F7F7"/>
<path d="M601.912 865.233C601.352 865.233 600.88 865.056 600.488 864.716C600.087 864.371 599.889 863.894 599.889 863.271C599.889 862.702 600.091 862.237 600.5 861.867C600.904 861.505 601.375 861.318 601.912 861.318C602.436 861.318 602.893 861.483 603.291 861.81C603.692 862.147 603.893 862.635 603.893 863.271C603.893 863.888 603.697 864.368 603.309 864.714C602.919 865.056 602.454 865.233 601.912 865.233Z" fill="#F7F7F7"/>
<path d="M507.132 858.932C507.905 858.932 508.477 858.995 509.131 859.105L509.315 857.928C509.315 857.928 507.507 857.371 505.132 857.566L504.946 856.926C505.684 856.771 506.239 856.114 506.239 855.33C506.239 854.432 505.507 853.704 504.608 853.704C503.709 853.704 502.978 854.432 502.978 855.33C502.978 856.114 503.532 856.771 504.268 856.926L504.474 857.641C501.951 857.987 499.943 858.972 499.943 858.972L500.298 860.06C501.824 859.553 503.148 859.243 504.349 859.114C505.526 858.986 506.411 858.932 507.132 858.932Z" fill="#F7F7F7"/>
<path d="M589.956 124.683L513.399 121.008V0L589.956 6.20274V124.683Z" fill="#00C6A7"/>
<path d="M115.287 324.717L61.4727 322.133V237.072L115.287 241.432V324.717Z" fill="#00C6A7"/>
<path d="M129.367 371.638L86.167 369.564V301.28L129.367 304.78V371.638Z" fill="#2A94F4"/>
<path d="M487.824 119.331L420.379 121.831V37.0425L487.824 39.541V119.331Z" fill="#2A94F4"/>
<path d="M282.879 630.117L215.436 632.616V547.828L282.879 550.328V630.117Z" fill="#00C6A7"/>
<path d="M804.149 431.998C803.545 431.466 802.909 430.943 802.156 430.66C801.269 430.326 800.292 430.349 799.344 430.384C798.019 430.434 796.694 430.501 795.371 430.585C794.749 430.625 794.005 430.748 793.758 431.321C793.493 431.939 794.008 432.606 794.537 433.019C796.172 434.294 798.275 434.841 799.928 436.093C801.583 437.346 802.697 439.242 804.454 440.349C804.963 440.669 805.542 440.922 806.143 440.901C806.736 440.879 807.284 440.594 807.809 440.315C810.115 439.091 809.972 438.37 808.391 436.42C807.114 434.847 805.71 433.298 804.149 431.998Z" fill="#F7F7F7"/>
<path d="M731.806 499.149L753.479 346.855L811.953 338.829L842.367 498.048L731.806 499.149Z" fill="#FCD2B1"/>
<path d="M777.002 735.132L776.94 752.297C776.926 755.789 777.402 759.264 778.35 762.626L779.842 767.912C781.068 772.254 777.804 776.562 773.295 776.545C761.603 776.502 741.62 776.534 736.47 776.543C735.627 776.545 734.801 775.976 734.729 775.136C734.295 770.124 748.77 766.769 759.673 762.548C767.978 759.333 767.536 744.406 766.511 735.69C766.126 732.397 768.871 729.594 772.176 729.868C774.911 730.095 777.013 732.386 777.002 735.132Z" fill="#FCD2B1"/>
<path d="M857.358 730.316L863.273 749.953C863.534 750.821 863.924 751.644 864.43 752.395L868.623 758.623C871.285 762.575 869.369 767.976 864.811 769.367C864.811 769.367 856.358 772.341 847.642 775.203C838.721 778.135 827.5 775.685 827.5 773.331C827.5 768.101 832.376 772.252 840.546 766.79C843.284 764.96 846.108 763.045 848.627 761.068C855.657 755.549 849.518 741.578 845.215 733.709C843.668 730.88 845.311 727.368 848.465 726.696L850.502 726.261C853.494 725.623 856.476 727.386 857.358 730.316Z" fill="#FCD2B1"/>
<path d="M796.943 500.623L732.147 495.186C732.147 495.186 725.623 542.346 741.999 627.715C749.679 667.748 765.684 744.25 765.684 744.25C769.65 745.986 773.684 746.422 777.792 745.397C777.792 745.397 779.007 711.652 779.751 675.312C780.464 640.46 780.656 603.219 782.876 591.035C787.412 566.143 796.943 500.623 796.943 500.623Z" fill="#0B4870"/>
<path d="M783.567 501.445C776.878 537.347 761.933 591.034 790.72 641.469C819.506 691.903 849.741 744.338 849.741 744.338C853.636 744.496 857.17 743.085 860.452 740.592C860.452 740.592 855.404 717.728 848.109 691.03C839.763 660.487 829.189 624.563 832.202 605.832C837.846 570.726 844.331 523.975 842.366 501.271C840.401 478.566 787.086 482.565 783.567 501.445Z" fill="#0B4870"/>
<path d="M729.568 495.271L753.48 346.855L811.954 338.829L843.379 495.547C843.969 498.492 842.062 501.351 839.111 501.911C828.225 503.973 801.964 508.284 772.576 508.284C750.637 508.284 738.307 504.019 732.698 501.318C730.425 500.222 729.167 497.762 729.568 495.271Z" fill="#F7F7F7"/>
<path d="M793.688 348.072C793.688 358.765 795.631 369.353 799.282 379.402C806.425 399.06 817.143 436.234 810.774 468.984C801.604 516.144 789.814 535.21 805.098 546.2C820.381 557.191 849.692 538.851 850.538 532.739C851.384 526.626 844.834 451.527 837.41 418.99C829.986 386.453 809.194 339.681 809.194 339.681L800.384 340.621C796.576 341.027 793.688 344.242 793.688 348.072Z" fill="#00C6A7"/>
<path d="M769.344 344.676C769.344 344.676 759.202 366.594 762.74 398.083C766.277 429.573 774.474 525.461 745.82 539.941C736.746 544.527 716.025 524.222 716.025 516.688C716.025 509.155 722.942 483.938 729.495 461.013C736.048 438.088 751.841 347.079 751.841 347.079L769.344 344.676Z" fill="#00C6A7"/>
<path d="M777.507 276.75C790.557 276.75 795.426 286.039 795.674 303.224C795.767 309.66 792.873 316.036 790.542 320.108C788.81 323.132 788.336 326.714 789.324 330.057L792.19 339.756C794.138 348.753 789.865 353.687 783.557 355.48C780.432 356.367 776.688 355.679 773.96 353.916C770.716 351.82 770.449 347.31 771.051 343.495L771.792 340.73C772.789 337.004 770.63 332.989 766.862 332.164C756.813 329.966 755.374 319.492 752.682 303.224C749.877 286.268 764.457 276.75 777.507 276.75Z" fill="#FCD2B1"/>
<path d="M788.48 303.541C788.48 307.525 789.964 310.755 793.801 310.755C797.637 310.755 800.099 305.275 800.099 301.292C800.099 297.307 797.637 296.327 793.801 296.327C789.964 296.327 788.48 299.556 788.48 303.541Z" fill="#FCD2B1"/>
<path d="M790.068 321.032C790.068 321.032 780.321 334.431 768.193 332.616C768.193 332.616 770.712 333.82 771.324 335.777C771.324 335.776 782.844 334.925 790.068 321.032Z" fill="#FCD2B1"/>
<path d="M755.366 346.603C755.366 346.603 741.627 348.992 705.784 393.795C690.252 426.65 689.174 414.226 689.174 414.226C689.174 414.226 692.683 435.143 702.838 430.364C712.994 425.585 744.614 392.004 744.614 392.004L755.366 346.603Z" fill="#00C6A7"/>
<path d="M697.154 393.228C692.945 399.961 687.78 406.001 687.472 413.937C687.164 421.873 692.646 430.626 700.584 430.853C707.157 431.04 713.161 416.572 713.161 416.572L741.628 354.065L729.402 349.444C729.401 349.441 703.792 382.609 697.154 393.228Z" fill="#00C6A7"/>
<path d="M740.456 353.702C740.644 353.975 740.829 354.248 741.017 354.521C745.258 349.614 749.215 344.461 752.863 339.098C753.804 337.714 754.753 336.242 754.907 334.576C755.104 332.469 754.002 330.483 752.938 328.653C751.715 326.551 750.558 323.795 749.336 321.693C751.314 319.361 753.293 317.028 755.273 314.697C756.078 313.749 756.9 312.772 757.316 311.6C757.732 310.428 757.662 308.999 756.817 308.086C755.973 307.173 754.758 306.906 753.825 307.731C749.505 311.551 730.529 343.604 730.047 348.118C729.755 350.859 729.596 354.004 731.537 355.96C733.889 358.33 738.003 355.97 740.456 353.702Z" fill="#FCD2B1"/>
<path d="M758.21 284.538C758.21 284.538 777.939 286.179 784.036 281.797C784.036 281.797 786.381 295.425 790.067 297.948C793.754 300.47 791.629 295.004 795.276 296.388C795.276 296.388 798.135 280.083 785.178 275.129C772.221 270.175 764.408 264.077 764.408 264.077L770.125 269.984L760.788 267.316L765.361 271.699L747.449 270.746L752.331 273.033L743.638 279.321L755.364 278.749L742.683 285.99L755.364 283.513L750.308 286.943L758.21 284.538Z" fill="#0B4870"/>
<path d="M692.97 419.243C692.418 418.87 691.737 418.496 691.121 418.748C690.688 418.925 690.429 419.361 690.142 419.731C687.023 423.751 679.328 421.067 676.395 425.224C675.194 426.928 675.313 429.3 676.194 431.189C677.075 433.077 678.603 434.579 680.148 435.977C684.123 439.571 694.635 440.856 694.635 440.856L707.865 444.789L708.478 439.074L702.11 434.134C702.11 434.134 703.752 430.692 703.315 430.047C700.092 425.294 695.604 421.032 692.97 419.243Z" fill="#FCD2B1"/>
<path d="M693.652 419.077C693.117 418.476 692.547 417.882 691.834 417.51C690.992 417.072 690.019 416.978 689.073 416.9C687.751 416.792 686.428 416.701 685.105 416.627C684.481 416.592 683.73 416.627 683.416 417.167C683.079 417.748 683.51 418.472 683.987 418.946C685.458 420.405 687.481 421.201 688.972 422.64C690.466 424.082 691.347 426.095 692.959 427.405C693.425 427.784 693.971 428.105 694.57 428.155C695.161 428.204 695.739 427.986 696.294 427.772C698.73 426.832 698.673 426.098 697.337 423.975C696.256 422.258 695.045 420.553 693.652 419.077Z" fill="#FCD2B1"/>
<path d="M809.194 339.679C824.392 344.492 844.908 363.095 843.316 378.958C840.705 404.999 835.214 442.742 824.421 460.63C819.557 468.693 806.217 465.742 796.871 464.606C769.446 461.277 715.186 454.105 691.2 440.397C692.135 436.431 692.156 433.007 694.29 429.536C719.022 428.46 776.677 431.018 800.362 438.222L806.545 402.88" fill="#00C6A7"/>
<path d="M614.242 740.519C613.919 745.745 613.454 751.35 610.132 755.396C606.216 760.167 599.527 761.379 593.42 762.275C584.521 763.582 575.621 764.889 566.722 766.196C566.268 767.513 567.806 768.617 569.126 769.063C575.705 771.29 582.873 770.319 589.781 769.6C597.787 768.766 605.833 768.307 613.884 768.226C617.466 768.19 621.716 767.87 623.534 764.783C624.891 762.481 624.271 759.589 623.952 756.935C622.983 748.847 625.259 740.607 624.101 732.545C623.969 731.615 623.669 730.54 622.791 730.207C622.344 730.037 621.845 730.109 621.377 730.203C614.568 731.58 614.62 734.402 614.242 740.519Z" fill="#FFE3CA"/>
<path d="M616.673 761.477C610.041 765.527 603.302 766.624 595.592 765.662C595.121 765.605 592.532 765.034 592.061 764.984C591.787 763.506 591.938 762.056 590.723 762.103C585.147 762.318 579.581 762.783 574.047 763.499C572.29 763.727 565.615 763.882 564.91 765.249C564.282 766.469 564.685 768.025 565.57 769.071C566.456 770.117 567.737 770.742 569.019 771.231C575.339 773.64 582.322 773.355 589.078 773.036C597.387 772.644 605.697 772.252 614.006 771.859C616.842 771.725 619.826 771.545 622.208 770.001C625.711 767.73 626.916 763.147 627 758.973C627.153 751.38 619.067 760.015 616.673 761.477Z" fill="#0B4870"/>
<path d="M589.932 363.741C589.932 363.741 608.621 362.655 608.583 362.187C608.15 356.743 603.231 348.673 605.786 343.847C608.339 339.019 610.293 336.287 612.874 331.475C613.255 330.763 613.589 329.792 613.008 329.232C612.531 328.772 611.755 328.924 611.12 329.113C607.704 330.129 604.333 331.301 601.024 332.627C595.42 334.871 590.121 334.815 589.931 340.74C589.723 347.251 589.932 363.741 589.932 363.741Z" fill="#FFE3CA"/>
<path d="M484.063 754.471C483.055 759.609 481.857 765.104 478.032 768.679C473.523 772.894 466.732 773.215 460.561 773.302C451.567 773.429 442.573 773.554 433.58 773.68C432.956 774.926 434.336 776.223 435.586 776.839C441.814 779.912 449.048 779.891 455.991 780.086C464.038 780.313 472.075 780.915 480.064 781.892C483.619 782.327 487.875 782.568 490.084 779.747C491.732 777.642 491.496 774.696 491.529 772.023C491.631 763.879 494.971 756.01 494.883 747.865C494.872 746.926 494.718 745.821 493.891 745.374C493.47 745.148 492.967 745.153 492.49 745.185C485.561 745.653 485.241 748.456 484.063 754.471Z" fill="#FFE3CA"/>
<path d="M632.243 507.124C632.243 507.124 626.217 551.56 623.958 585.452C621.699 619.344 632.996 692.398 632.243 711.981C631.49 731.563 626.972 742.859 626.972 742.859H609.649C609.649 742.859 588.56 651.729 587.807 632.147C587.054 612.564 574.251 512.397 574.251 512.397L632.243 507.124Z" fill="#0B4870"/>
<path d="M401.446 344.367C401.657 346.376 398.764 346.937 398.226 344.99C390.981 318.83 374.229 252.543 374.465 243.428C374.613 237.676 378.721 233.496 378.721 233.496H383.924C383.924 233.496 388.18 237.752 388.654 243.428C388.982 247.383 398.686 318.129 401.446 344.367Z" fill="#0B4870"/>
<path d="M590.332 306.705C588.283 310.546 585.758 314.973 581.442 315.545C580.753 315.636 580.017 315.627 579.422 315.987C578.316 316.656 578.233 318.202 578.28 319.494C578.459 324.418 578.637 329.342 578.815 334.264C578.979 338.764 579.559 344.017 583.412 346.351C586.174 348.025 589.68 347.549 592.851 346.94C595.389 346.452 597.934 345.908 600.314 344.898C607.718 341.761 612.662 334.424 614.959 326.719C616.767 320.65 617.126 313.882 614.436 308.148C609.206 297.008 596.105 295.88 590.332 306.705Z" fill="#FFE3CA"/>
<path d="M623.942 505.113C620.568 505.601 617.213 506.199 613.87 506.864C613.278 506.426 612.483 506.24 611.739 506.1C588.474 501.705 564.411 502.914 542.269 511.299C530.832 546.152 500.199 671.947 493.806 688.903C486.248 708.947 485.356 731.734 480.563 752.612C488.053 754.258 487.222 753.754 494.885 754.031C521.643 690.731 536.538 693.975 540.481 651.813C541.282 643.258 552.545 628.83 557.507 621.815C581.019 588.572 620.974 542.101 627.176 532.255C632.72 523.46 643.754 502.251 623.942 505.113Z" fill="#0B4870"/>
<path d="M402.843 287.105C402.447 285.582 401.918 283.971 400.661 283.022C399.051 281.81 396.755 282.083 394.889 282.842C393.023 283.602 391.324 284.783 389.375 285.295C385.875 286.217 381.723 284.967 378.827 287.135C377.138 288.4 376.331 290.734 376.882 292.771C377.165 293.824 377.764 294.762 378.208 295.76C379.72 299.163 379.447 303.31 381.648 306.315C383.319 308.597 386.087 309.749 388.714 310.795C395.081 313.332 401.449 315.868 407.816 318.405C408.225 318.568 408.696 318.73 409.09 318.536C409.424 318.371 409.596 318.003 409.735 317.658C412.401 311.024 411.258 307.817 407.917 302.446C405.02 297.792 404.203 292.327 402.843 287.105Z" fill="#FFE3CA"/>
<path d="M483.719 775.568C476.612 778.711 469.787 778.912 462.271 776.947C461.812 776.827 459.319 775.923 458.859 775.81C458.783 774.307 459.121 772.891 457.912 772.778C452.358 772.258 446.778 771.989 441.197 771.97C439.425 771.964 432.787 771.242 431.909 772.504C431.127 773.63 431.321 775.225 432.062 776.379C432.803 777.533 433.99 778.321 435.196 778.973C441.146 782.193 448.105 782.829 454.845 783.4C463.133 784.105 471.423 784.807 479.711 785.511C482.539 785.751 485.522 785.966 488.086 784.748C491.858 782.957 493.655 778.572 494.287 774.446C495.435 766.935 486.284 774.432 483.719 775.568Z" fill="#0B4870"/>
<path d="M641.766 379.726C632.986 371.889 623.013 363.583 611.245 363.752C607.323 363.809 547.266 350.312 540.292 349.769C493.692 346.142 455.699 308.903 409.353 302.834C404.75 304.304 403.23 310.54 405.109 314.993C406.989 319.446 411.135 322.458 415.126 325.184C456.824 353.667 500.904 362.421 546.241 384.662C535.797 411.673 557.399 444.333 555.619 451.031C553.715 458.197 536.593 505.443 538.471 512.615C555.366 517.813 568.824 518.505 586.442 519.97C604.059 521.435 622.925 518.258 637.867 508.813C636.228 500.068 628.391 491.999 634.384 488.772C651.539 477.862 668.193 469.633 679.516 452.746C681.701 449.488 683.66 445.958 684.248 442.08C685.87 431.392 654.282 390.897 641.766 379.726ZM631.64 469.767C633.841 459.917 640.244 411.572 640.244 411.572C645.315 414.209 668.699 441.827 668.699 441.827C668.699 441.827 636.616 466.447 631.64 469.767Z" fill="#00C6A7"/>
<path d="M384.61 233.272C381.282 235.09 377.023 234.287 374.425 231.525C372.92 229.925 371.838 227.746 372.864 225.105C375.149 219.229 379.393 212.375 377.434 208.458C375.475 204.54 375.475 204.868 375.475 204.54C375.475 204.214 386.274 210.613 387.879 215.965C391.145 226.849 388.053 231.389 384.61 233.272Z" fill="#F7F7F7"/>
<path d="M398.589 270.001C398.12 268.812 397.476 267.518 396.263 267.112C394.812 266.626 393.216 267.743 392.624 269.155C392.031 270.566 392.176 272.164 392.331 273.687C392.76 277.906 393.188 282.127 393.617 286.347C393.86 288.746 394.394 291.571 396.594 292.562C398.232 293.3 400.284 292.595 401.418 291.201C403.603 288.518 402.156 285.379 401.717 282.397C401.092 278.141 400.174 274.018 398.589 270.001Z" fill="#FFE3CA"/>
<path d="M388.975 220.992C388.76 219.472 388.443 217.844 387.879 215.964C386.274 210.612 375.475 204.213 375.475 204.539C375.475 204.649 375.481 204.694 375.556 204.842C375.582 204.891 375.608 204.943 375.635 204.995C375.84 205.373 376.309 206.207 377.433 208.455C379.297 212.185 375.556 218.568 373.221 224.243C373.904 224.611 374.651 224.732 375.408 224.4C376.992 223.705 377.846 221.341 379.558 221.582C381.974 221.921 381.045 226.498 383.317 227.386C384.722 227.937 386.144 226.537 386.712 225.138C387.279 223.739 387.535 222.097 388.698 221.135C388.785 221.068 388.884 221.042 388.975 220.992Z" fill="#00C6A7"/>
<path d="M627.942 307.113C624.164 303.318 619.256 300.867 614.295 298.847C610.449 297.281 606.411 295.918 602.26 296.002C598.109 296.086 593.789 297.859 591.593 301.382C589.916 304.069 589.657 307.452 590.233 310.568C590.608 312.595 591.497 316.999 593.062 318.501C594.382 319.764 596.48 318.903 597.596 320.758C598.365 322.039 598.272 323.665 597.882 325.107C597.477 326.601 596.734 328.071 595.474 328.97C595.12 329.222 594.722 329.417 594.303 329.546C592.274 330.176 590.942 332.094 591.234 334.197C591.69 337.476 592.905 340.652 594.788 343.374C595.234 344.019 595.731 344.635 596.286 345.187C596.155 346.126 595.904 347.072 595.774 348.01C595.388 350.796 596.576 354.146 599.292 354.876C598.326 353.801 597.378 352.557 597.327 351.112C597.277 349.667 598.588 348.126 599.987 348.49C601.106 348.781 601.658 350.046 601.833 351.188C602.236 353.807 601.443 356.586 599.718 358.597C601.553 357.565 603.445 356.482 604.69 354.786C606.032 352.958 606.49 350.591 607.871 348.793C608.169 348.408 608.507 348.062 608.861 347.729C609.021 347.947 609.185 348.164 609.336 348.385C610.445 350.002 610.553 351.071 609.689 353.667C609.544 354.103 608.643 355.615 608.643 355.615C608.836 355.44 613.375 352.033 610.219 346.749C610.997 346.607 611.768 346.441 612.521 346.203C618.164 344.421 622.269 339.659 626.061 335.115C629.416 331.094 632.908 326.766 633.568 321.572C634.245 316.257 631.719 310.908 627.942 307.113Z" fill="#0B4870"/>
<path d="M624.893 304.49C618.849 304.685 613.869 307.96 614.264 316.176C614.368 318.326 615.073 320.403 615.296 322.544C616.195 331.178 609.433 338.423 605.383 346.1C604.061 348.606 603.098 351.934 604.97 354.059C605 354.094 605.041 354.114 605.073 354.147C606.114 352.426 606.644 350.393 607.874 348.794C608.171 348.408 608.509 348.062 608.863 347.73C609.023 347.948 609.188 348.164 609.339 348.385C610.447 350.002 610.555 351.071 609.691 353.667C609.546 354.103 608.645 355.615 608.645 355.615C608.839 355.44 613.377 352.033 610.221 346.749C610.999 346.608 611.77 346.441 612.523 346.204C618.166 344.422 622.272 339.659 626.063 335.115C629.418 331.094 632.91 326.766 633.57 321.573C634.246 316.26 631.718 310.911 627.941 307.115C626.991 306.158 625.97 305.289 624.893 304.49Z" fill="#0B4870"/>
<path d="M645.133 317.464C646.852 309.458 641.755 301.574 633.748 299.855C625.742 298.136 617.858 303.233 616.139 311.24C614.42 319.246 619.517 327.13 627.523 328.849C635.53 330.568 643.414 325.471 645.133 317.464Z" fill="#0B4870"/>
<path d="M804.149 431.998C803.545 431.466 802.909 430.943 802.156 430.66C801.269 430.326 800.292 430.349 799.344 430.384C798.019 430.434 796.694 430.501 795.371 430.585C794.749 430.625 794.005 430.748 793.758 431.321C793.493 431.939 794.008 432.606 794.537 433.019C796.172 434.294 798.275 434.841 799.928 436.093C801.583 437.346 802.697 439.242 804.454 440.349C804.963 440.669 805.542 440.922 806.143 440.901C806.736 440.879 807.284 440.594 807.809 440.315C810.115 439.091 809.972 438.37 808.391 436.42C807.114 434.847 805.71 433.298 804.149 431.998Z" fill="#F7F7F7"/>
<path d="M731.806 499.149L753.479 346.855L811.953 338.829L842.367 498.048L731.806 499.149Z" fill="#FCD2B1"/>
<path d="M777.002 735.132L776.94 752.297C776.926 755.789 777.402 759.264 778.35 762.626L779.842 767.912C781.068 772.254 777.804 776.562 773.295 776.545C761.603 776.502 741.62 776.534 736.47 776.543C735.627 776.545 734.801 775.976 734.729 775.136C734.295 770.124 748.77 766.769 759.673 762.548C767.978 759.333 767.536 744.406 766.511 735.69C766.126 732.397 768.871 729.594 772.176 729.868C774.911 730.095 777.013 732.386 777.002 735.132Z" fill="#A4866F"/>
<path d="M857.358 730.316L863.273 749.953C863.534 750.821 863.924 751.644 864.43 752.395L868.623 758.623C871.285 762.575 869.369 767.976 864.811 769.367C864.811 769.367 856.358 772.341 847.642 775.203C838.721 778.135 827.5 775.685 827.5 773.331C827.5 768.101 832.376 772.252 840.546 766.79C843.284 764.96 846.108 763.045 848.627 761.068C855.657 755.549 849.518 741.578 845.215 733.709C843.668 730.88 845.311 727.368 848.465 726.696L850.502 726.261C853.494 725.623 856.476 727.386 857.358 730.316Z" fill="#A4866F"/>
<path d="M796.943 500.623L732.147 495.186C732.147 495.186 725.623 542.346 741.999 627.715C749.679 667.748 765.684 744.25 765.684 744.25C769.65 745.986 773.684 746.422 777.792 745.397C777.792 745.397 779.007 711.652 779.751 675.312C780.464 640.46 780.656 603.219 782.876 591.035C787.412 566.143 796.943 500.623 796.943 500.623Z" fill="#0B4870"/>
<path d="M783.567 501.445C776.878 537.347 761.933 591.034 790.72 641.469C819.506 691.903 849.741 744.338 849.741 744.338C853.636 744.496 857.17 743.085 860.452 740.592C860.452 740.592 855.404 717.728 848.109 691.03C839.763 660.487 829.189 624.563 832.202 605.832C837.846 570.726 844.331 523.975 842.366 501.271C840.401 478.566 787.086 482.565 783.567 501.445Z" fill="#0B4870"/>
<path d="M729.568 495.271L753.48 346.855L811.954 338.829L843.379 495.547C843.969 498.492 842.062 501.351 839.111 501.911C828.225 503.973 801.964 508.284 772.576 508.284C750.637 508.284 738.307 504.019 732.698 501.318C730.425 500.222 729.167 497.762 729.568 495.271Z" fill="#F7F7F7"/>
<path d="M793.688 348.072C793.688 358.765 795.631 369.353 799.282 379.402C806.425 399.06 817.143 436.234 810.774 468.984C801.604 516.144 789.814 535.21 805.098 546.2C820.381 557.191 849.692 538.851 850.538 532.739C851.384 526.626 844.834 451.527 837.41 418.99C829.986 386.453 809.194 339.681 809.194 339.681L800.384 340.621C796.576 341.027 793.688 344.242 793.688 348.072Z" fill="#00C6A7"/>
<path d="M769.344 344.676C769.344 344.676 759.202 366.594 762.74 398.083C766.277 429.573 774.474 525.461 745.82 539.941C736.746 544.527 716.025 524.222 716.025 516.688C716.025 509.155 722.942 483.938 729.495 461.013C736.048 438.088 751.841 347.079 751.841 347.079L769.344 344.676Z" fill="#00C6A7"/>
<path d="M777.507 276.75C790.557 276.75 795.426 286.039 795.674 303.224C795.767 309.66 792.873 316.036 790.542 320.108C788.81 323.132 788.336 326.714 789.324 330.057L792.19 339.756C794.138 348.753 789.865 353.687 783.557 355.48C780.432 356.367 776.688 355.679 773.96 353.916C770.716 351.82 770.449 347.31 771.051 343.495L771.792 340.73C772.789 337.004 770.63 332.989 766.862 332.164C756.813 329.966 755.374 319.492 752.682 303.224C749.877 286.268 764.457 276.75 777.507 276.75Z" fill="#A4866F"/>
<path d="M788.48 303.541C788.48 307.525 789.964 310.755 793.801 310.755C797.637 310.755 800.099 305.275 800.099 301.292C800.099 297.307 797.637 296.327 793.801 296.327C789.964 296.327 788.48 299.556 788.48 303.541Z" fill="#A4866F"/>
<path d="M790.068 321.032C790.068 321.032 780.321 334.431 768.193 332.616C768.193 332.616 770.712 333.82 771.324 335.777C771.324 335.776 782.844 334.925 790.068 321.032Z" fill="#A4866F"/>
<path d="M755.366 346.603C755.366 346.603 741.627 348.992 705.784 393.795C690.252 426.65 689.174 414.226 689.174 414.226C689.174 414.226 692.683 435.143 702.838 430.364C712.994 425.585 744.614 392.004 744.614 392.004L755.366 346.603Z" fill="#00C6A7"/>
<path d="M697.154 393.228C692.945 399.961 687.78 406.001 687.472 413.937C687.164 421.873 692.646 430.626 700.584 430.853C707.157 431.04 713.161 416.572 713.161 416.572L741.628 354.065L729.402 349.444C729.401 349.441 703.792 382.609 697.154 393.228Z" fill="#00C6A7"/>
<path d="M740.456 353.702C740.644 353.975 740.829 354.248 741.017 354.521C745.258 349.614 749.215 344.461 752.863 339.098C753.804 337.714 754.753 336.242 754.907 334.576C755.104 332.469 754.002 330.483 752.938 328.653C751.715 326.551 750.558 323.795 749.336 321.693C751.314 319.361 753.293 317.028 755.273 314.697C756.078 313.749 756.9 312.772 757.316 311.6C757.732 310.428 757.662 308.999 756.817 308.086C755.973 307.173 754.758 306.906 753.825 307.731C749.505 311.551 730.529 343.604 730.047 348.118C729.755 350.859 729.596 354.004 731.537 355.96C733.889 358.33 738.003 355.97 740.456 353.702Z" fill="#A4866F"/>
<path d="M758.21 284.538C758.21 284.538 777.939 286.179 784.036 281.797C784.036 281.797 786.381 295.425 790.067 297.948C793.754 300.47 791.629 295.004 795.276 296.388C795.276 296.388 798.135 280.083 785.178 275.129C772.221 270.175 764.408 264.077 764.408 264.077L770.125 269.984L760.788 267.316L765.361 271.699L747.449 270.746L752.331 273.033L743.638 279.321L755.364 278.749L742.683 285.99L755.364 283.513L750.308 286.943L758.21 284.538Z" fill="#0B4870"/>
<path d="M692.97 419.243C692.418 418.87 691.737 418.496 691.121 418.748C690.688 418.925 690.429 419.361 690.142 419.731C687.023 423.751 679.328 421.067 676.395 425.224C675.194 426.928 675.313 429.3 676.194 431.189C677.075 433.077 678.603 434.579 680.148 435.977C684.123 439.571 694.635 440.856 694.635 440.856L707.865 444.789L708.478 439.074L702.11 434.134C702.11 434.134 703.752 430.692 703.315 430.047C700.092 425.294 695.604 421.032 692.97 419.243Z" fill="#A4866F"/>
<path d="M693.652 419.077C693.117 418.476 692.547 417.882 691.834 417.51C690.992 417.072 690.019 416.978 689.073 416.9C687.751 416.792 686.428 416.701 685.105 416.627C684.481 416.592 683.73 416.627 683.416 417.167C683.079 417.748 683.51 418.472 683.987 418.946C685.458 420.405 687.481 421.201 688.972 422.64C690.466 424.082 691.347 426.095 692.959 427.405C693.425 427.784 693.971 428.105 694.57 428.155C695.161 428.204 695.739 427.986 696.294 427.772C698.73 426.832 698.673 426.098 697.337 423.975C696.256 422.258 695.045 420.553 693.652 419.077Z" fill="#A4866F"/>
<path d="M809.194 339.679C824.392 344.492 844.908 363.095 843.316 378.958C840.705 404.999 835.214 442.742 824.421 460.63C819.557 468.693 806.217 465.742 796.871 464.606C769.446 461.277 715.186 454.105 691.2 440.397C692.135 436.431 692.156 433.007 694.29 429.536C719.022 428.46 776.677 431.018 800.362 438.222L806.545 402.88" fill="#00C6A7"/>
<path d="M868.624 758.623C868.624 758.623 855.735 767.3 846.913 768.856C838.092 770.413 834.977 768.856 834.977 768.856C834.977 768.856 826.674 768.434 824.729 773.105C822.782 777.776 836.709 782.542 846.677 780.5C856.645 778.457 870.656 769.805 870.656 769.805C870.656 769.805 874.377 758.25 868.624 758.623Z" fill="#0B4870"/>
<path d="M777.177 766.025C777.177 766.025 762.811 771.945 753.856 771.702C744.9 771.46 742.162 769.31 742.162 769.31C742.162 769.31 734.112 767.234 731.269 771.419C728.426 775.605 741.115 783.066 751.29 783.062C761.464 783.057 776.926 777.388 776.926 777.388C776.926 777.388 782.889 766.812 777.177 766.025Z" fill="#0B4870"/>
<path d="M249.158 119.331L181.713 121.831V37.0425L249.158 39.541V119.331Z" fill="#2A94F4"/>
</svg>
