<svg width="144" height="144" viewBox="0 0 144 144" fill="none" xmlns="http://www.w3.org/2000/svg">
<rect width="144" height="144" rx="20" fill="url(#paint0_linear)"/>
<path d="M61.6182 68.7175V49.3124H78.2235C81.699 49.3124 84.3057 50.0847 86.0435 51.6294C87.7812 53.1097 88.6501 55.5233 88.6501 58.8701C88.6501 62.3457 87.7812 64.8558 86.0435 66.4005C84.3057 67.9451 81.699 68.7175 78.2235 68.7175H61.6182ZM46.4609 37.5342V106.466H61.6182V79.5303H76.7754C80.5727 79.5303 83.3081 80.367 84.9815 82.0404C86.6549 83.7138 87.7491 86.3526 88.264 89.9569C88.6501 92.7245 88.9398 95.6207 89.1328 98.6458C89.3259 101.671 89.8408 104.277 90.6775 106.466H105.835C105.127 105.5 104.58 104.342 104.194 102.99C103.872 101.574 103.614 100.094 103.421 98.5492C103.292 97.0045 103.196 95.492 103.132 94.0117C103.067 92.5314 103.003 91.2441 102.938 90.15C102.81 88.4122 102.552 86.6744 102.166 84.9367C101.844 83.1989 101.297 81.622 100.525 80.2061C99.7525 78.7258 98.7549 77.4707 97.5321 76.4409C96.3092 75.3468 94.7645 74.5422 92.898 74.0273V73.8343C96.7597 72.2896 99.5273 70.0369 101.201 67.0763C102.938 64.1156 103.807 60.6079 103.807 56.5531C103.807 53.9143 103.325 51.4685 102.359 49.2159C101.458 46.8988 100.107 44.8714 98.3044 43.1337C96.5666 41.3959 94.4427 40.0443 91.9326 39.0789C89.4868 38.0491 86.7193 37.5342 83.6299 37.5342H46.4609Z" fill="white"/>
<defs>
<linearGradient id="paint0_linear" x1="8.64" y1="144" x2="144" y2="-3.28302e-06" gradientUnits="userSpaceOnUse">
<stop stop-color="#2A94F4"/>
<stop offset="1" stop-color="#00C6A7"/>
</linearGradient>
</defs>
</svg>
