<svg width="274" height="274" viewBox="0 0 274 274" fill="none" xmlns="http://www.w3.org/2000/svg">
<path d="M137 274C212.663 274 274 212.663 274 137C274 61.3369 212.663 0 137 0C61.3371 0 0 61.3369 0 137C0 212.663 61.3371 274 137 274Z" fill="url(#paint0_linear)"/>
<path fill-rule="evenodd" clip-rule="evenodd" d="M158.517 121.251C158.135 116.941 155.893 115.311 151.091 115.301C137.882 115.273 124.673 115.276 111.464 115.311C106.904 115.321 104.976 116.903 104.41 121.442C103.635 127.643 103.807 133.9 104.256 140.106C104.584 144.64 106.716 146.431 111.268 147.003C112.405 147.122 113.549 147.171 114.693 147.149C121.971 147.162 129.249 147.145 136.527 147.16C141.257 147.169 142.099 148.039 142.162 152.825C142.271 161.035 142.368 169.244 142.516 177.452C142.564 180.117 143.042 182.578 145.758 184.028C146.907 184.657 148.15 185.095 149.44 185.324H152.325C155.918 184.676 158.427 181.498 158.447 176.572C158.48 167.843 158.455 159.113 158.455 150.384H158.517V121.251ZM99.7063 112.541C99.7063 117.111 99.8106 121.683 99.6795 126.248C99.5546 130.716 97.7903 132.94 93.3353 133.17C86.4983 133.523 79.6208 133.53 72.7818 133.22C68.4969 133.026 66.5016 130.522 66.4654 126.208C66.39 117.174 66.395 108.139 66.4804 99.1037C66.5272 94.5943 68.5319 92.178 73.0181 91.9773C79.7539 91.6769 86.5253 91.6769 93.2591 91.9931C97.8133 92.2066 99.5895 94.4832 99.6837 99.1455C99.775 103.609 99.7063 108.073 99.7063 112.541ZM184.198 174.616C179.52 174.616 174.843 174.601 170.166 174.623C167.811 174.633 165.387 174.52 164.158 172.19C163.505 170.985 163.23 169.61 163.37 168.246C163.51 166.882 164.058 165.592 164.942 164.544C171.521 156.516 178.331 148.676 185.055 140.766C185.124 140.688 185.199 140.616 185.278 140.549C188.327 137.863 201.883 137.687 205.015 140.299C205.691 140.87 206.226 141.591 206.574 142.404C206.924 143.217 207.078 144.101 207.026 144.985C207.008 152.567 207.058 160.15 207.006 167.732C206.98 171.562 205.319 173.617 201.313 174.287C196.48 175.096 191.568 174.467 186.692 174.615C185.861 174.638 185.029 174.616 184.198 174.616ZM137.647 156.646C137.194 153.048 135.206 151.492 131.124 151.452C124.475 151.387 117.825 151.395 111.174 151.476C106.294 151.534 104.545 153.402 104.517 158.397C104.487 163.797 104.487 169.196 104.517 174.596C104.548 179.594 106.641 181.77 111.713 181.947C114.826 182.056 117.947 181.967 121.064 181.966C124.285 181.966 127.512 182.087 130.726 181.936C135.014 181.735 137.164 179.984 137.647 176.282V156.646ZM162.616 130.621C162.616 125.01 162.578 119.4 162.629 113.79C162.672 108.905 164.717 106.793 169.603 106.563C171.782 106.438 173.966 106.445 176.144 106.584C179.796 106.857 181.912 109.03 181.954 112.611C182.033 119.675 181.981 126.741 181.995 133.806C181.954 135.688 181.259 137.498 180.029 138.923C177.011 142.754 174.031 146.617 170.938 150.386C169.648 151.958 168.341 153.793 165.773 152.907C163.135 151.997 162.595 149.917 162.608 147.453C162.634 141.842 162.616 136.231 162.616 130.621ZM129.437 110.447C123.298 110.447 117.155 110.54 111.017 110.418C106.295 110.324 103.903 107.502 103.916 102.435C103.929 97.5667 106.598 94.7042 111.257 94.6931C123.433 94.6631 135.61 94.6597 147.787 94.6831C152.572 94.6949 155.111 97.4032 155.144 102.353C155.179 107.492 152.675 110.395 147.859 110.474C141.72 110.578 135.578 110.499 129.437 110.499V110.447ZM78.3407 154.648C78.3407 158.176 78.4176 161.707 78.3227 165.233C78.3385 166.169 78.0964 167.091 77.6229 167.898C77.1493 168.705 76.4627 169.366 75.6381 169.809C74.8138 170.252 73.8833 170.458 72.9488 170.407C72.0145 170.356 71.1121 170.048 70.3411 169.518C68.7102 168.413 67.196 167.145 65.8226 165.732C60.4686 160.52 55.1367 155.284 50.3294 149.548C49.1954 148.196 48.0448 146.862 47.4556 145.15C47.1529 144.321 47.0506 143.433 47.1571 142.558C47.2637 141.682 47.5761 140.845 48.0688 140.113C48.5614 139.382 49.2202 138.778 49.9914 138.35C50.7626 137.922 51.6239 137.684 52.5053 137.653C59.2523 137.543 66.0055 137.575 72.7551 137.639C76.1011 137.671 78.1734 139.806 78.3077 143.443C78.4482 147.174 78.3407 150.913 78.3407 154.648ZM99.6663 157.137H99.6345C99.6345 152.566 99.7257 147.993 99.6069 143.426C99.5064 139.56 96.8212 137.227 92.6101 137.064C87.0918 136.851 84.0776 138.55 83.8014 142.687C83.7602 143.294 83.729 143.901 83.6928 144.507V168.934C83.7464 169.725 83.797 170.517 83.8627 171.308C84.2569 176.06 86.7582 177.443 92.9937 177.118C97.3579 176.889 99.5532 174.801 99.6437 170.541C99.7407 166.072 99.6675 161.604 99.6675 157.137H99.6663ZM62.0686 110.697C62.0686 116.313 62.1417 121.93 62.0398 127.544C61.9698 131.406 59.0092 134.073 55.1185 134.049C51.2709 134.024 48.3233 131.3 48.2953 127.464C48.2153 116.442 48.1448 105.418 48.2527 94.397C48.3077 88.7744 52.6434 85.9631 57.886 87.8961C60.7716 88.9581 62.0754 91.1346 62.0718 94.1627C62.0662 99.6718 62.0652 105.183 62.0686 110.697ZM213.225 116.59C213.141 113.114 211.334 111.218 207.59 111.055C202.604 110.843 197.587 110.826 192.602 111.055C188.88 111.227 186.792 113.247 186.675 116.472C186.522 120.827 186.497 125.194 186.675 129.548C186.815 132.901 188.843 134.503 192.645 134.738C193.817 134.811 194.99 134.877 196.163 134.937H199.95C199.95 134.908 199.95 134.879 199.95 134.85C202.504 134.85 205.065 134.94 207.614 134.828C211.172 134.673 213.123 132.913 213.209 129.667C213.326 125.309 213.332 120.948 213.225 116.587V116.59ZM138.333 186.373C137.793 186.073 137.198 185.882 136.584 185.81C132.045 185.409 127.493 185.129 122.965 185.805C119.171 186.37 117.565 188.77 117.547 193.563C117.531 198.056 119.413 200.841 123.038 201.355C123.52 201.423 124.004 201.473 124.49 201.513H129.546C129.546 201.495 129.546 201.479 129.546 201.459C131.409 201.459 133.275 201.531 135.134 201.445C138.595 201.283 140.608 199.606 141.319 196.43C142.302 192.012 141.082 187.836 138.333 186.373ZM191.584 178.36C193.665 178.36 195.748 178.339 197.831 178.365C202.284 178.419 204.827 180.705 205.051 184.813C205.261 188.733 202.754 191.791 198.543 192.021C193.657 192.269 188.761 192.264 183.875 192.006C180.068 191.819 177.49 188.513 177.69 184.713C177.895 180.875 180.377 178.492 184.404 178.374C186.793 178.304 189.191 178.361 191.584 178.36ZM229.274 103.607H229.224C229.224 102.825 229.25 102.039 229.274 101.253V97.703C229.25 97.2881 229.22 96.8739 229.168 96.4629C228.714 92.88 225.752 90.7679 222.038 90.9922C218.238 91.2221 215.805 93.5711 215.717 97.3294C215.623 101.376 215.637 105.428 215.713 109.477C215.787 113.493 218.15 115.802 222.144 115.951C226.178 116.1 228.882 113.995 229.262 110.141C229.268 110.078 229.268 110.009 229.274 109.945V103.607ZM205.039 209.636C200.124 209.654 197.605 207.288 197.547 202.604C197.485 197.443 200.036 194.646 204.857 194.588C209.656 194.53 212.573 197.431 212.577 202.272C212.581 207.132 210.036 209.62 205.039 209.636Z" fill="white"/>
<defs>
<linearGradient id="paint0_linear" x1="274.054" y1="137.073" x2="3.53057e-06" y2="144.869" gradientUnits="userSpaceOnUse">
<stop stop-color="#02C4AA"/>
<stop offset="1" stop-color="#2897F0"/>
</linearGradient>
</defs>
</svg>
